<svg width="517" height="514" viewBox="0 0 517 514" fill="none" xmlns="http://www.w3.org/2000/svg">
<ellipse opacity="0.4" cx="286.421" cy="226.857" rx="226.857" ry="226.857" fill="#ED7801"/>
<path d="M516.768 348.125H318.61V233.455H516.768V348.125ZM319.819 346.916H515.559V234.664H319.819V346.916Z" fill="#E0E0E0"/>
<path d="M475.888 294.6H345.149V298.432H475.888V294.6Z" fill="#F0F0F0"/>
<path d="M484.896 308.891H345.149V313.074H484.896V308.891Z" fill="#F0F0F0"/>
<path d="M484.896 323.352H345.149V327.535H484.896V323.352Z" fill="#F0F0F0"/>
<path d="M390.841 273.838H345.149V283.789H390.841V273.838Z" fill="#F0F0F0"/>
<path d="M516.163 234.061H319.251V252.318H516.163V234.061Z" fill="#E0E0E0"/>
<path d="M501.013 249.584C500.759 249.342 503.298 246.283 506.672 242.752C510.045 239.222 513.007 236.55 513.249 236.779C513.491 237.009 510.964 240.08 507.591 243.623C504.217 247.165 501.255 249.825 501.013 249.584Z" fill="white"/>
<path d="M513.274 249.585C513.032 249.827 510.082 247.167 506.696 243.624C503.311 240.082 500.784 237.023 501.038 236.781C501.292 236.539 504.23 239.199 507.615 242.754C511 246.309 513.503 249.343 513.274 249.585Z" fill="white"/>
<path d="M272.93 6.98047H76.0181V120.454H272.93V6.98047Z" fill="#E6E6E6"/>
<path d="M232.668 67.5312H101.929V71.3641H232.668V67.5312Z" fill="#F0F0F0"/>
<path d="M241.676 81.8223H101.929V86.0057H241.676V81.8223Z" fill="#F0F0F0"/>
<path d="M241.676 96.2832H101.929V100.467H241.676V96.2832Z" fill="#F0F0F0"/>
<path d="M147.621 46.7715H101.929V56.7223H147.621V46.7715Z" fill="#F0F0F0"/>
<path d="M272.93 6.98047H76.0181V25.2377H272.93V6.98047Z" fill="#E0E0E0"/>
<path d="M257.116 22.4207C256.862 22.1909 259.401 19.1198 262.774 15.5893C266.148 12.0587 269.11 9.38666 269.352 9.62848C269.593 9.8703 267.066 12.9293 263.693 16.4598C260.32 19.9904 257.357 22.6383 257.116 22.4207Z" fill="white"/>
<path d="M269.352 22.4207C269.11 22.6625 266.16 20.0025 262.774 16.4599C259.389 12.9173 256.862 9.87036 257.116 9.62854C257.37 9.38673 260.308 12.0467 263.693 15.5894C267.079 19.132 269.606 22.191 269.352 22.4207Z" fill="white"/>
<path d="M198.354 217.774H0.232422V103.092H198.354V217.774ZM1.44151 216.565H197.145V104.301H1.44151V216.565Z" fill="#E0E0E0"/>
<path d="M157.486 164.246H26.7476V168.079H157.486V164.246Z" fill="#F0F0F0"/>
<path d="M166.494 178.539H26.7476V182.723H166.494V178.539Z" fill="#F0F0F0"/>
<path d="M166.494 192.998H26.7476V197.182H166.494V192.998Z" fill="#F0F0F0"/>
<path d="M72.4391 143.486H26.7476V153.437H72.4391V143.486Z" fill="#F0F0F0"/>
<path d="M197.749 103.695H0.836914V121.953H197.749V103.695Z" fill="#E0E0E0"/>
<path d="M427.005 244.047H194.497V452.204H427.005V244.047Z" fill="#E6E6E6"/>
<path d="M206.189 178.479H24.0513V367.713H206.189V178.479Z" fill="#F0F0F0"/>
<path d="M206.189 178.479H24.0513V199.094H206.189V178.479Z" fill="#E0E0E0"/>
<path d="M39.0928 188.574C39.0596 189.322 38.8077 190.043 38.3682 190.649C37.9287 191.254 37.3211 191.717 36.6207 191.981C35.9203 192.244 35.1579 192.296 34.4283 192.13C33.6986 191.964 33.0338 191.588 32.5162 191.047C31.9987 190.507 31.6513 189.826 31.517 189.09C31.3828 188.354 31.4677 187.594 31.7612 186.906C32.0547 186.218 32.5439 185.631 33.168 185.218C33.7921 184.805 34.5238 184.585 35.2721 184.584C36.3069 184.609 37.2895 185.043 38.0054 185.791C38.7213 186.538 39.1123 187.539 39.0928 188.574Z" fill="white"/>
<path d="M54.6053 188.574C54.5744 189.325 54.3234 190.051 53.8834 190.66C53.4434 191.27 52.8339 191.736 52.1307 192.002C51.4275 192.268 50.6617 192.321 49.9286 192.155C49.1954 191.989 48.5273 191.611 48.0074 191.068C47.4875 190.525 47.1387 189.841 47.0045 189.101C46.8702 188.362 46.9565 187.599 47.2525 186.908C47.5485 186.217 48.0411 185.628 48.6691 185.215C49.2972 184.802 50.0328 184.582 50.7846 184.584C51.8193 184.609 52.802 185.043 53.5179 185.791C54.2338 186.538 54.6248 187.539 54.6053 188.574Z" fill="white"/>
<path d="M70.118 188.574C70.0871 189.325 69.8361 190.051 69.3961 190.66C68.9561 191.27 68.3466 191.736 67.6434 192.002C66.9402 192.268 66.1744 192.321 65.4413 192.155C64.7081 191.989 64.04 191.611 63.5201 191.068C63.0002 190.525 62.6514 189.841 62.5172 189.101C62.3829 188.362 62.4692 187.599 62.7652 186.908C63.0612 186.217 63.5538 185.628 64.1818 185.215C64.8099 184.802 65.5455 184.582 66.2972 184.584C67.332 184.609 68.3147 185.043 69.0306 185.791C69.7465 186.538 70.1375 187.539 70.118 188.574Z" fill="white"/>
<path d="M490.76 48.3672H258.252V280.101H490.76V48.3672Z" fill="#F0F0F0"/>
<path d="M490.76 48.3672H258.252V75.5113H490.76V48.3672Z" fill="#E0E0E0"/>
<path d="M278.057 61.6677C278.015 62.6545 277.683 63.6071 277.104 64.4071C276.524 65.2071 275.723 65.8194 274.799 66.1678C273.874 66.5163 272.868 66.5856 271.905 66.3672C270.942 66.1488 270.064 65.6522 269.38 64.9392C268.697 64.2261 268.238 63.3281 268.06 62.3564C267.883 61.3848 267.994 60.3824 268.382 59.4737C268.769 58.565 269.414 57.7901 270.238 57.2451C271.062 56.7001 272.028 56.4091 273.015 56.4082C274.38 56.4399 275.677 57.0112 276.622 57.9969C277.567 58.9826 278.083 60.3025 278.057 61.6677Z" fill="white"/>
<path d="M297.003 58.1127C297.674 58.8407 298.115 59.7497 298.272 60.7267C298.429 61.7036 298.296 62.7053 297.888 63.6068C297.48 64.5083 296.816 65.2698 295.978 65.7965C295.14 66.3232 294.166 66.5917 293.177 66.5686C292.187 66.5455 291.227 66.2319 290.415 65.6667C289.602 65.1015 288.974 64.3098 288.609 63.3903C288.243 62.4707 288.157 61.4639 288.359 60.4954C288.562 59.5268 289.045 58.6393 289.749 57.9435C290.734 57.0058 292.051 56.497 293.411 56.5287C294.771 56.5605 296.063 57.1301 297.003 58.1127Z" fill="white"/>
<path d="M318.9 61.6677C318.857 62.6545 318.526 63.6071 317.946 64.4071C317.367 65.2071 316.566 65.8194 315.641 66.1678C314.717 66.5163 313.711 66.5856 312.748 66.3672C311.784 66.1488 310.907 65.6522 310.223 64.9392C309.54 64.2261 309.08 63.3281 308.903 62.3564C308.725 61.3848 308.837 60.3824 309.224 59.4737C309.611 58.565 310.257 57.7901 311.081 57.2451C311.905 56.7001 312.87 56.4091 313.858 56.4082C315.223 56.4399 316.52 57.0112 317.465 57.9969C318.41 58.9826 318.926 60.3025 318.9 61.6677Z" fill="white"/>
<path d="M440.535 513.685C440.535 513.855 356.575 514 253.041 514C149.507 514 65.5112 513.855 65.5112 513.685C65.5112 513.516 149.458 513.371 253.041 513.371C356.624 513.371 440.535 513.528 440.535 513.685Z" fill="#263238"/>
<path d="M358.727 365.669C340.047 352.623 335.815 328.405 336.553 306.629C336.674 303.002 336.275 299.157 338.004 295.977C339.733 292.797 343.771 290.609 347.023 292.132C349.72 293.402 350.893 296.546 352.404 299.145C354.421 302.608 357.376 305.429 360.928 307.282C363.237 308.491 366.103 309.217 368.388 307.959C371.532 306.23 371.894 301.914 371.87 298.287C371.87 291.54 371.83 284.801 371.749 278.071C371.532 274.457 371.9 270.831 372.838 267.334C373.962 263.9 376.465 260.72 379.886 259.753C383.308 258.786 387.576 260.781 388.35 264.311C388.483 265.807 388.52 267.309 388.459 268.809C388.556 270.32 389.257 271.977 390.672 272.436C392.086 272.896 393.561 271.844 394.649 270.78C398.373 267.153 400.913 262.425 403.27 257.758C405.628 253.091 407.937 248.291 411.323 244.313C414.708 240.335 419.387 237.179 424.623 236.877C429.858 236.575 435.311 239.791 436.617 244.869C437.923 249.947 434.961 255.134 431.781 259.257C426.982 265.377 421.326 270.773 414.986 275.278C413.749 275.953 412.761 277.009 412.169 278.288C411.383 280.707 413.668 283.125 416.05 283.886C418.747 284.781 421.673 284.503 424.514 284.842C427.355 285.18 430.378 286.413 431.454 289.073C432.929 292.773 429.834 296.642 426.799 299.181C420.705 304.26 413.786 308.255 406.341 310.994C403.681 311.962 400.888 312.82 398.736 314.682C396.584 316.544 395.302 319.796 396.596 322.348C397.89 324.899 401.215 325.709 404.008 325.189C406.801 324.669 409.279 323.17 411.939 322.166C416.909 320.292 423.317 320.631 426.449 324.923C427.419 326.402 428.033 328.085 428.243 329.841C428.452 331.597 428.252 333.378 427.658 335.043C426.448 338.358 424.585 341.396 422.18 343.978C414.261 353.44 403.972 360.629 392.364 364.811C380.842 368.801 370.165 369.889 358.715 365.693" fill="#ED7801"/>
<path d="M431.297 239.863C431.297 239.863 431.188 239.984 430.946 240.202L429.87 241.157C428.927 242.003 427.537 243.237 425.783 244.869C420.813 249.484 416.197 254.468 411.976 259.777C409.279 263.126 406.486 266.923 403.512 271.046C400.538 275.169 397.467 279.618 394.42 284.346C391.171 289.331 388.196 294.489 385.509 299.798C384.106 302.567 382.873 305.456 381.603 308.407L377.855 317.414C372.914 328.76 368.611 340.374 364.966 352.2C362.03 361.876 360.006 371.805 358.921 381.859C358.218 388.643 358.104 395.476 358.582 402.28C358.776 404.699 358.957 406.548 359.126 407.806C359.199 408.41 359.247 408.894 359.296 409.245V409.74C359.243 409.583 359.207 409.421 359.187 409.257C359.126 408.906 359.054 408.435 358.957 407.83C358.739 406.621 358.51 404.711 358.292 402.292C357.709 395.476 357.749 388.62 358.413 381.81C359.431 371.714 361.411 361.738 364.325 352.018C367.94 340.159 372.231 328.517 377.178 317.148L381.023 308.177C382.292 305.239 383.538 302.325 384.952 299.544C387.659 294.219 390.658 289.049 393.936 284.056C397.031 279.219 400.151 274.842 403.089 270.756C406.027 266.669 408.868 262.848 411.552 259.511C415.817 254.216 420.494 249.267 425.542 244.712C427.331 243.104 428.758 241.895 429.725 241.084L430.849 240.178C430.987 240.058 431.137 239.952 431.297 239.863Z" fill="#263238"/>
<path d="M385.11 299.521C384.939 299.023 384.821 298.508 384.759 297.985C384.565 296.982 384.348 295.567 384.094 293.729C383.574 290.102 383.042 285.133 382.474 279.631C381.905 274.13 381.265 269.149 380.733 265.558C380.455 263.768 380.213 262.329 380.043 261.326C379.911 260.812 379.842 260.284 379.838 259.754C380.046 260.238 380.196 260.746 380.285 261.265C380.551 262.257 380.854 263.683 381.192 265.485C381.881 269.112 382.558 274.045 383.127 279.559C383.695 285.072 384.179 289.909 384.553 293.669C384.735 295.362 384.892 296.8 385.013 297.949C385.107 298.467 385.139 298.995 385.11 299.521Z" fill="#263238"/>
<path d="M431.635 290.838C431.047 290.966 430.448 291.039 429.846 291.055C428.637 291.164 426.92 291.309 424.792 291.551C420.536 292.011 414.684 292.857 408.264 294.066C401.843 295.275 396.076 296.641 391.929 297.693C389.861 298.225 388.193 298.709 387.092 299.035C386.505 299.244 385.897 299.39 385.279 299.471C385.838 299.19 386.42 298.959 387.02 298.781C388.156 298.382 389.801 297.826 391.856 297.234C395.979 296.025 401.747 294.586 408.191 293.353C413.65 292.309 419.158 291.542 424.695 291.055C426.835 290.874 428.564 290.801 429.773 290.777C430.394 290.735 431.018 290.755 431.635 290.838Z" fill="#263238"/>
<path d="M364.918 351.173C364.789 350.998 364.683 350.807 364.603 350.605L363.805 348.924C363.116 347.461 362.185 345.297 361.073 342.649C358.824 337.329 355.958 329.881 352.912 321.611C349.865 313.341 347.06 305.893 344.932 300.512C343.892 297.9 343.033 295.76 342.393 294.164L341.715 292.435C341.622 292.236 341.556 292.024 341.522 291.807C341.651 291.982 341.757 292.173 341.836 292.375L342.634 294.056C343.311 295.519 344.255 297.683 345.367 300.331C347.616 305.651 350.481 313.099 353.528 321.369C356.575 329.639 359.38 337.087 361.508 342.467C362.548 345.079 363.406 347.219 364.035 348.815C364.313 349.504 364.543 350.024 364.724 350.544C364.818 350.744 364.883 350.955 364.918 351.173Z" fill="#263238"/>
<path d="M426.678 331.258C426.485 331.369 426.277 331.454 426.062 331.512L424.272 332.116L417.658 334.256C412.072 336.07 404.358 338.657 395.895 341.511C387.431 344.364 379.681 346.903 374.059 348.596C371.253 349.455 368.968 350.108 367.384 350.543L365.559 351.014C365.346 351.082 365.128 351.126 364.906 351.147C365.099 351.036 365.307 350.951 365.522 350.893L367.312 350.289L373.926 348.149C379.512 346.335 387.226 343.748 395.689 340.894C404.153 338.041 411.891 335.502 417.513 333.809C420.33 332.951 422.603 332.298 424.199 331.862L426.025 331.391C426.238 331.323 426.456 331.279 426.678 331.258Z" fill="#263238"/>
<path d="M401.481 37.9701L395.254 40.1948L392.582 32.0577C387.673 17.0529 372.027 9.08496 357.651 14.151C343.275 19.2171 335.622 35.6728 340.531 50.6777L343.203 58.8148L336.952 61.0516C334.568 61.9762 332.632 63.7837 331.547 66.0985C330.462 68.4134 330.31 71.0574 331.124 73.4811L348.45 126.427C348.81 127.627 349.407 128.742 350.206 129.707C351.005 130.671 351.99 131.465 353.102 132.041C354.214 132.618 355.431 132.965 356.68 133.062C357.928 133.159 359.184 133.003 360.372 132.606L424.901 109.524C427.316 108.601 429.279 106.778 430.377 104.437C431.475 102.096 431.623 99.421 430.789 96.9737L413.451 44.0277C413.082 42.8312 412.475 41.7213 411.668 40.7643C410.861 39.8073 409.869 39.0227 408.752 38.4573C407.635 37.892 406.415 37.5575 405.166 37.4738C403.917 37.3901 402.663 37.5589 401.481 37.9701ZM352.295 46.4337C350.971 42.5323 351.209 38.2699 352.958 34.5398C354.707 30.8096 357.832 27.901 361.677 26.4233C363.576 25.7736 365.587 25.513 367.589 25.6572C369.591 25.8014 371.543 26.3473 373.329 27.2625C375.116 28.1777 376.699 29.4432 377.986 30.9838C379.272 32.5243 380.235 34.3082 380.817 36.229L383.477 44.3662L354.955 54.5709L352.295 46.4337ZM388.568 93.419L392.993 106.937C393.074 107.208 393.048 107.5 392.92 107.752C392.791 108.004 392.571 108.197 392.304 108.291L386.101 110.503C385.854 110.572 385.59 110.542 385.365 110.42C385.14 110.299 384.97 110.094 384.892 109.851L380.43 96.3933C377.97 96.2593 375.61 95.3769 373.665 93.8643C371.72 92.3517 370.284 90.2811 369.549 87.9297C368.497 84.8211 368.689 81.4261 370.084 78.4557C371.479 75.4853 373.969 73.1698 377.033 71.9939C378.546 71.4771 380.147 71.2701 381.741 71.3852C383.336 71.5004 384.891 71.9353 386.314 72.6642C387.736 73.3931 388.998 74.4009 390.023 75.6277C391.048 76.8544 391.815 78.2749 392.28 79.8046C393.057 82.1932 393.122 84.7569 392.465 87.1815C391.808 89.6061 390.457 91.7864 388.58 93.4552L388.568 93.419Z" fill="#ED7801"/>
<path d="M394.976 40.0492C394.976 40.2185 383.429 44.5591 369.065 49.7219C354.701 54.8848 342.985 59.0319 342.925 58.911C342.864 58.7901 354.471 54.4132 368.847 49.2383C383.224 44.0634 394.915 39.892 394.976 40.0492Z" fill="#263238"/>
<path d="M408.687 42.2754C408.74 42.3803 408.785 42.4895 408.82 42.6018C408.917 42.8437 409.026 43.158 409.171 43.5449C409.485 44.4276 409.92 45.6488 410.464 47.1722L415.107 60.6898C417.042 66.4209 419.351 73.216 421.914 80.7607C423.124 84.5452 424.55 88.4868 425.88 92.634C426.592 94.7711 426.9 97.0221 426.787 99.2719C426.685 100.442 426.352 101.58 425.808 102.621C425.227 103.659 424.451 104.574 423.523 105.317C421.655 106.681 419.581 107.738 417.38 108.449L411.154 110.686L399.365 114.905L379.403 122.015L365.921 126.754L362.294 127.964L361.327 128.278C361.224 128.324 361.113 128.353 361 128.363C361 128.363 361.097 128.363 361.303 128.217L362.246 127.843L365.873 126.476L379.282 121.543L399.208 114.289L410.972 110.033L417.199 107.784C419.337 107.102 421.35 106.077 423.16 104.749C424.023 104.059 424.746 103.21 425.288 102.246C425.8 101.284 426.108 100.226 426.195 99.1389C426.306 96.9712 426.011 94.8019 425.324 92.7428C424.018 88.6319 422.64 84.654 421.395 80.8695C418.88 73.3127 416.558 66.4935 414.72 60.7624C412.883 55.0313 411.335 50.4247 410.271 47.1843C409.763 45.6004 409.376 44.3671 409.062 43.4724L408.772 42.5051C408.735 42.4318 408.707 42.3548 408.687 42.2754Z" fill="#263238"/>
<path d="M374.639 25.6019C374.639 25.6019 373.998 25.2876 372.813 24.8039C371.124 24.155 369.338 23.7953 367.53 23.7399C364.849 23.648 362.181 24.1518 359.719 25.215C356.724 26.5389 354.164 28.6804 352.331 31.3935C350.487 34.0988 349.497 37.2959 349.49 40.5705C349.515 43.2543 349.922 45.9209 350.699 48.49C351.328 50.6905 351.981 52.4437 352.416 53.6649C352.673 54.2852 352.883 54.9237 353.045 55.5753C352.701 54.9953 352.414 54.384 352.186 53.7496C351.691 52.5405 350.977 50.8236 350.276 48.6109C349.415 46.0148 348.946 43.3049 348.886 40.5705C348.853 37.1722 349.866 33.8462 351.787 31.0428C353.684 28.2306 356.349 26.023 359.465 24.683C362.004 23.614 364.755 23.1424 367.505 23.3047C369.353 23.3988 371.168 23.829 372.862 24.5742C373.315 24.7831 373.751 25.0256 374.168 25.2997C374.34 25.3752 374.499 25.4772 374.639 25.6019Z" fill="#263238"/>
<path d="M375.195 72.913C375.388 72.7961 375.591 72.695 375.8 72.6107C376.405 72.3376 377.032 72.1152 377.674 71.9457C378.693 71.645 379.744 71.4664 380.806 71.4137C382.249 71.3362 383.693 71.5542 385.05 72.0546C388.145 73.1427 390.986 76.2985 392.389 80.5182C393.061 82.7827 393.061 85.1939 392.389 87.4584C391.643 89.9162 390.306 92.1537 388.495 93.9754L388.568 93.6489C390.176 98.0621 391.929 102.85 393.743 107.844L393.852 108.146L393.549 108.255L390.781 109.174L384.735 111.193L384.433 111.29L384.336 110.987C382.68 105.982 380.866 101.315 379.5 96.7321L379.766 96.9376C377.402 96.7413 375.148 95.8541 373.285 94.3864C371.599 93.0881 370.217 91.4376 369.235 89.5501C368.348 87.8762 367.907 86.0027 367.953 84.1092C368.009 82.174 368.492 80.2751 369.368 78.5485C370.244 76.8219 371.491 75.3104 373.019 74.1221C373.648 73.6114 374.354 73.2033 375.111 72.913C374.428 73.3182 373.766 73.7581 373.128 74.2309C371.449 75.6514 370.163 77.479 369.392 79.5388C368.73 81.0921 368.421 82.7725 368.486 84.4595C368.55 86.1465 368.988 87.7982 369.767 89.2962C370.733 91.112 372.082 92.6962 373.72 93.9391C375.498 95.3341 377.647 96.1751 379.899 96.3573H380.104L380.165 96.5386C381.495 101.036 383.321 105.74 385.001 110.77L384.602 110.576L390.648 108.557L393.404 107.626L393.211 108.037C391.409 103.044 389.668 98.2434 388.072 93.8303V93.6489L388.217 93.5038C389.975 91.7577 391.286 89.6134 392.038 87.2528C392.679 85.0866 392.679 82.7811 392.038 80.6149C390.72 76.5524 388 73.4692 385.05 72.381C383.744 71.8775 382.349 71.643 380.951 71.6918C379.906 71.7158 378.868 71.8577 377.855 72.115C376.054 72.5624 375.208 72.9735 375.195 72.913Z" fill="#263238"/>
<path d="M337.823 422.024L217.047 421.468C210.072 421.43 203.398 418.625 198.49 413.669C193.581 408.713 190.841 402.012 190.87 395.037L192.151 92.2693C192.166 88.8138 192.861 85.395 194.197 82.2082C195.533 79.0215 197.485 76.1294 199.939 73.6972C202.394 71.2651 205.304 69.3405 208.503 68.0335C211.702 66.7266 215.127 66.0629 218.582 66.0804L339.346 66.6366C346.321 66.6718 352.996 69.4738 357.907 74.4272C362.817 79.3806 365.561 86.0805 365.535 93.0552L364.253 395.811C364.239 399.268 363.544 402.688 362.208 405.876C360.872 409.064 358.921 411.958 356.467 414.392C354.013 416.826 351.103 418.753 347.904 420.062C344.705 421.372 341.279 422.039 337.823 422.024Z" fill="#455A64"/>
<path d="M339.165 77.0462H315.757C314.993 77.0603 314.24 77.2248 313.539 77.5303C312.839 77.8357 312.206 78.276 311.676 78.8262C311.146 79.3764 310.73 80.0256 310.451 80.7367C310.172 81.4478 310.035 82.207 310.05 82.9707V87.2146C310.064 87.9778 309.928 88.7363 309.649 89.4468C309.37 90.1572 308.953 90.8056 308.423 91.3548C307.893 91.904 307.26 92.3432 306.56 92.6474C305.859 92.9515 305.106 93.1145 304.343 93.1271L258.712 92.9215C257.168 92.8804 255.704 92.2282 254.641 91.1083C253.578 89.9884 253.002 88.4924 253.041 86.9486V82.7047C253.08 81.163 252.507 79.6687 251.446 78.5492C250.385 77.4296 248.924 76.7761 247.383 76.7318H239.149L218.655 76.6351C213.78 76.6061 209.093 78.5098 205.619 81.9294C202.145 85.349 200.167 90.0058 200.119 94.8803L198.91 390.406C198.899 392.824 199.364 395.221 200.28 397.459C201.195 399.698 202.542 401.734 204.244 403.452C205.946 405.17 207.97 406.535 210.2 407.471C212.43 408.407 214.822 408.894 217.24 408.905L337.762 409.461C340.182 409.472 342.58 409.007 344.82 408.091C347.06 407.175 349.098 405.827 350.817 404.124C352.536 402.421 353.902 400.396 354.838 398.164C355.775 395.933 356.262 393.539 356.273 391.119L357.482 95.5936C357.511 90.7054 355.598 86.0058 352.163 82.5278C348.728 79.0498 344.053 77.0781 339.165 77.0462Z" fill="white"/>
<path d="M322.951 370.034L233.333 369.647C232.402 369.647 231.653 368.632 231.665 367.398L231.761 343.954C231.761 342.745 232.523 341.705 233.454 341.705L323.072 342.116C323.588 342.205 324.049 342.49 324.36 342.912C324.671 343.333 324.807 343.858 324.74 344.377L324.656 367.797C324.656 369.043 323.882 370.046 322.951 370.034Z" fill="#ED7801"/>
<path d="M261.61 352.235C261.575 351.942 261.435 351.715 261.188 351.553C260.942 351.392 260.64 351.311 260.282 351.311C260.02 351.311 259.791 351.353 259.594 351.438C259.4 351.522 259.248 351.639 259.138 351.787C259.03 351.935 258.976 352.104 258.976 352.292C258.976 352.45 259.014 352.586 259.089 352.7C259.166 352.811 259.264 352.905 259.384 352.98C259.503 353.053 259.628 353.113 259.759 353.162C259.89 353.208 260.01 353.245 260.12 353.274L260.72 353.436C260.874 353.476 261.046 353.532 261.234 353.603C261.425 353.675 261.607 353.772 261.78 353.895C261.955 354.016 262.1 354.172 262.213 354.363C262.327 354.553 262.384 354.787 262.384 355.064C262.384 355.384 262.3 355.673 262.132 355.931C261.967 356.189 261.724 356.394 261.405 356.546C261.087 356.698 260.701 356.774 260.247 356.774C259.823 356.774 259.457 356.706 259.147 356.569C258.839 356.432 258.596 356.242 258.419 355.997C258.244 355.753 258.145 355.469 258.122 355.145H258.861C258.88 355.369 258.955 355.553 259.086 355.7C259.219 355.844 259.386 355.952 259.589 356.023C259.793 356.092 260.012 356.127 260.247 356.127C260.52 356.127 260.766 356.083 260.983 355.994C261.201 355.904 261.373 355.779 261.5 355.619C261.627 355.457 261.691 355.269 261.691 355.053C261.691 354.857 261.636 354.697 261.526 354.574C261.416 354.45 261.272 354.35 261.093 354.273C260.914 354.196 260.72 354.129 260.513 354.071L259.785 353.863C259.323 353.73 258.957 353.541 258.688 353.294C258.418 353.048 258.283 352.726 258.283 352.327C258.283 351.996 258.373 351.707 258.552 351.461C258.733 351.212 258.975 351.02 259.28 350.883C259.586 350.745 259.927 350.675 260.305 350.675C260.686 350.675 261.025 350.744 261.321 350.88C261.618 351.015 261.852 351.2 262.026 351.435C262.201 351.67 262.293 351.936 262.303 352.235H261.61ZM264.277 350.756V356.67H263.561V350.756H264.277ZM270.402 350.756V356.67H269.709L266.487 352.027H266.429V356.67H265.713V350.756H266.406L269.64 355.411H269.698V350.756H270.402ZM275.878 352.604C275.814 352.41 275.731 352.236 275.627 352.082C275.525 351.926 275.402 351.793 275.26 351.683C275.119 351.573 274.96 351.49 274.781 351.432C274.602 351.374 274.405 351.345 274.192 351.345C273.841 351.345 273.523 351.436 273.236 351.617C272.949 351.798 272.721 352.064 272.551 352.417C272.382 352.769 272.297 353.201 272.297 353.713C272.297 354.225 272.383 354.657 272.554 355.01C272.726 355.362 272.958 355.628 273.25 355.809C273.543 355.99 273.872 356.081 274.238 356.081C274.577 356.081 274.875 356.009 275.133 355.864C275.393 355.718 275.595 355.512 275.739 355.246C275.886 354.979 275.959 354.664 275.959 354.302L276.178 354.348H274.399V353.713H276.652V354.348C276.652 354.835 276.548 355.259 276.34 355.619C276.134 355.979 275.849 356.258 275.485 356.456C275.123 356.653 274.707 356.751 274.238 356.751C273.714 356.751 273.254 356.628 272.857 356.381C272.463 356.135 272.155 355.784 271.933 355.33C271.714 354.876 271.604 354.337 271.604 353.713C271.604 353.245 271.667 352.825 271.792 352.451C271.919 352.076 272.098 351.756 272.329 351.493C272.56 351.229 272.833 351.027 273.149 350.886C273.465 350.746 273.812 350.675 274.192 350.675C274.503 350.675 274.794 350.723 275.064 350.817C275.335 350.909 275.577 351.041 275.788 351.212C276.002 351.382 276.18 351.585 276.323 351.822C276.465 352.057 276.563 352.317 276.617 352.604H275.878ZM284.046 350.756H284.762V354.672C284.762 355.076 284.667 355.437 284.476 355.755C284.288 356.07 284.021 356.32 283.676 356.502C283.332 356.683 282.927 356.774 282.464 356.774C282 356.774 281.595 356.683 281.251 356.502C280.906 356.32 280.639 356.07 280.448 355.755C280.259 355.437 280.165 355.076 280.165 354.672V350.756H280.881V354.614C280.881 354.903 280.945 355.16 281.072 355.385C281.199 355.608 281.38 355.784 281.615 355.913C281.851 356.04 282.134 356.104 282.464 356.104C282.793 356.104 283.076 356.04 283.312 355.913C283.549 355.784 283.73 355.608 283.855 355.385C283.982 355.16 284.046 354.903 284.046 354.614V350.756ZM286.192 356.67V350.756H288.19C288.654 350.756 289.033 350.84 289.328 351.007C289.624 351.173 289.844 351.397 289.986 351.68C290.129 351.963 290.2 352.279 290.2 352.627C290.2 352.976 290.129 353.292 289.986 353.577C289.846 353.862 289.628 354.089 289.334 354.259C289.039 354.426 288.662 354.51 288.202 354.51H286.77V353.875H288.179C288.496 353.875 288.751 353.82 288.944 353.71C289.136 353.6 289.276 353.452 289.363 353.266C289.451 353.077 289.495 352.864 289.495 352.627C289.495 352.391 289.451 352.179 289.363 351.992C289.276 351.805 289.135 351.659 288.941 351.553C288.747 351.445 288.489 351.392 288.167 351.392H286.908V356.67H286.192Z" fill="#E8E8E3"/>
<path d="M251.208 163.92L220.111 163.779L220.085 169.486L251.182 169.627L251.208 163.92Z" fill="#ED7801"/>
<path opacity="0.1" d="M251.208 163.92L220.111 163.779L220.085 169.486L251.182 169.627L251.208 163.92Z" fill="black"/>
<path d="M342.369 198.959C342.613 198.934 342.853 198.877 343.082 198.789C343.417 198.659 343.708 198.436 343.922 198.147C344.136 197.859 344.264 197.515 344.291 197.157C344.291 195.235 344.291 192.43 344.291 188.826C344.291 187.025 344.291 185.006 344.291 182.781C344.291 182.237 344.291 181.669 344.291 181.1C344.37 180.549 344.25 179.987 343.953 179.516C343.786 179.291 343.57 179.106 343.32 178.978C343.07 178.851 342.795 178.782 342.514 178.779H340.628H323.156L222.028 178.404C221.769 178.4 221.513 178.458 221.282 178.574C221.05 178.689 220.85 178.859 220.698 179.069C220.406 179.542 220.295 180.104 220.384 180.653C220.384 181.862 220.384 183.071 220.384 184.28C220.384 186.698 220.384 189.117 220.384 191.535C220.384 192.744 220.384 193.953 220.384 195.162C220.334 195.725 220.334 196.292 220.384 196.855C220.447 197.096 220.565 197.32 220.729 197.509C220.892 197.697 221.097 197.846 221.327 197.943C221.565 198.038 221.82 198.083 222.077 198.076H228.231L255.085 198.221L300.547 198.499L331.197 198.741L339.528 198.838H341.692C342.188 198.838 342.429 198.838 342.429 198.838H341.692H339.528H331.197H300.547L255.085 198.693L228.231 198.584H222.077C221.738 198.598 221.4 198.54 221.085 198.415C220.767 198.279 220.484 198.072 220.257 197.81C220.031 197.548 219.868 197.238 219.779 196.903C219.709 196.586 219.685 196.26 219.707 195.936V195.041C219.707 193.832 219.707 192.623 219.707 191.414C219.707 188.996 219.707 186.578 219.707 184.159C219.707 182.95 219.707 181.741 219.707 180.532C219.684 180.21 219.684 179.887 219.707 179.565C219.752 179.209 219.89 178.872 220.106 178.585C220.314 178.294 220.59 178.057 220.91 177.894C221.23 177.732 221.585 177.65 221.944 177.654L323.072 178.211L340.543 178.332H342.429C342.762 178.332 343.089 178.412 343.384 178.566C343.678 178.719 343.932 178.942 344.122 179.214C344.463 179.74 344.601 180.372 344.509 180.992C344.509 181.56 344.509 182.128 344.509 182.672C344.509 184.873 344.509 186.892 344.509 188.718C344.509 192.345 344.424 195.126 344.4 197.06C344.371 197.432 344.235 197.788 344.011 198.086C343.786 198.384 343.48 198.611 343.131 198.741C342.902 198.883 342.638 198.958 342.369 198.959Z" fill="#E0E0E0"/>
<path d="M286.327 184.475H229.452V189.807H286.327V184.475Z" fill="#ED7801"/>
<path opacity="0.2" d="M286.327 184.475H229.452V189.807H286.327V184.475Z" fill="white"/>
<path d="M250.996 215.983L219.899 215.842L219.873 221.549L250.971 221.69L250.996 215.983Z" fill="#ED7801"/>
<path opacity="0.1" d="M250.996 215.983L219.899 215.842L219.873 221.549L250.971 221.69L250.996 215.983Z" fill="black"/>
<path d="M341.583 251.023C341.827 250.993 342.069 250.948 342.308 250.89C342.646 250.782 342.956 250.604 343.219 250.366C343.482 250.128 343.691 249.837 343.831 249.511C344.022 249.023 344.096 248.498 344.049 247.976C344.049 247.395 344.049 246.767 344.049 246.065C344.049 244.663 344.049 243.067 344.049 241.229V233.551C344.107 232.996 343.984 232.436 343.699 231.955C343.4 231.463 342.931 231.097 342.381 230.928C341.778 230.82 341.165 230.788 340.555 230.831H323.156L222.378 230.456C221.836 230.457 221.313 230.655 220.906 231.014C220.499 231.372 220.236 231.865 220.166 232.403C220.166 233.551 220.166 234.821 220.166 236.03C220.166 238.448 220.166 240.866 220.166 243.285C220.166 244.494 220.166 245.703 220.166 246.912C220.121 247.477 220.145 248.045 220.238 248.605C220.389 249.095 220.7 249.52 221.121 249.814C221.568 250.097 222.092 250.232 222.62 250.201H224.301H227.795L254.552 250.334L299.857 250.612L330.399 250.853L338.705 250.95H340.869H341.595H340.869H338.705H330.399H299.857L254.528 250.902L227.771 250.805H222.511C221.857 250.844 221.209 250.67 220.662 250.309C220.111 249.928 219.71 249.369 219.525 248.725C219.417 248.111 219.384 247.486 219.428 246.863C219.428 245.654 219.428 244.445 219.428 243.236C219.428 240.818 219.428 238.4 219.428 235.982C219.428 234.773 219.428 233.563 219.428 232.354C219.516 231.663 219.854 231.027 220.377 230.567C220.9 230.106 221.573 229.852 222.27 229.852L323.047 230.408L340.446 230.541C341.094 230.501 341.744 230.546 342.381 230.674C343.009 230.879 343.539 231.31 343.868 231.883C344.181 232.415 344.316 233.034 344.255 233.648C344.255 234.216 344.255 234.773 344.255 235.329C344.255 237.517 344.255 239.524 344.255 241.374C344.255 243.224 344.255 244.784 344.255 246.211C344.255 246.9 344.255 247.541 344.255 248.133C344.299 248.674 344.212 249.217 344.001 249.717C343.844 250.051 343.617 250.346 343.335 250.584C343.053 250.822 342.724 250.996 342.368 251.095C342.104 251.117 341.838 251.093 341.583 251.023Z" fill="#E0E0E0"/>
<path d="M250.762 270.305L219.665 270.164L219.639 275.871L250.736 276.012L250.762 270.305Z" fill="#ED7801"/>
<path opacity="0.1" d="M250.762 270.305L219.665 270.164L219.639 275.871L250.736 276.012L250.762 270.305Z" fill="black"/>
<path d="M341.341 305.322C341.585 305.294 341.828 305.249 342.066 305.189C342.403 305.083 342.712 304.906 342.975 304.67C343.238 304.434 343.447 304.146 343.59 303.823C343.779 303.335 343.854 302.809 343.808 302.288C343.808 301.695 343.808 301.079 343.808 300.365C343.808 298.975 343.808 297.367 343.808 295.529V287.851C343.865 287.295 343.742 286.736 343.457 286.255C343.152 285.771 342.685 285.411 342.139 285.24C341.537 285.128 340.924 285.091 340.313 285.131H322.914L222.137 284.756C221.595 284.757 221.072 284.955 220.665 285.313C220.258 285.671 219.994 286.165 219.924 286.702C219.924 287.912 219.924 289.121 219.924 290.33C219.924 292.748 219.924 295.166 219.924 297.584C219.924 298.793 219.924 300.002 219.924 301.212C219.879 301.773 219.904 302.337 219.997 302.892C220.142 303.386 220.454 303.813 220.879 304.101C221.323 304.391 221.85 304.527 222.379 304.488H227.638L254.395 304.633L299.7 304.911L330.242 305.153L338.548 305.25H340.712C341.196 305.25 341.438 305.25 341.438 305.25C341.438 305.25 341.196 305.25 340.712 305.25H338.548H330.242H299.7L254.395 305.117L227.638 305.008H222.379C221.724 305.052 221.073 304.878 220.529 304.512C219.979 304.131 219.577 303.572 219.392 302.928C219.284 302.314 219.251 301.689 219.295 301.066C219.295 299.857 219.295 298.648 219.295 297.439C219.295 295.021 219.295 292.603 219.295 290.185C219.295 288.976 219.295 287.767 219.295 286.497C219.381 285.807 219.716 285.171 220.237 284.71C220.758 284.249 221.429 283.995 222.125 283.994L322.902 284.55L340.301 284.683C340.949 284.644 341.599 284.688 342.236 284.816C342.864 285.022 343.394 285.452 343.723 286.025C344.036 286.558 344.171 287.176 344.11 287.791C344.11 288.359 344.11 288.927 344.11 289.471C344.11 291.66 344.11 293.667 344.11 295.517C344.11 297.367 344.11 298.926 344.11 300.353C344.11 301.042 344.11 301.683 344.11 302.276C344.156 302.816 344.069 303.36 343.856 303.859C343.699 304.193 343.472 304.489 343.19 304.727C342.909 304.965 342.579 305.139 342.224 305.238C341.94 305.335 341.638 305.364 341.341 305.322Z" fill="#E0E0E0"/>
<path d="M285.113 238.045L228.238 237.787L228.214 243.119L285.089 243.377L285.113 238.045Z" fill="#ED7801"/>
<path opacity="0.2" d="M285.113 238.045L228.238 237.787L228.214 243.119L285.089 243.377L285.113 238.045Z" fill="white"/>
<path d="M233.382 295.456C233.346 295.943 233.168 296.408 232.871 296.794C232.573 297.18 232.168 297.471 231.707 297.629C231.246 297.788 230.749 297.808 230.276 297.686C229.804 297.564 229.378 297.307 229.051 296.945C228.723 296.584 228.51 296.134 228.436 295.652C228.362 295.17 228.431 294.677 228.634 294.234C228.838 293.791 229.167 293.417 229.581 293.159C229.995 292.902 230.476 292.771 230.963 292.784C231.637 292.822 232.269 293.123 232.721 293.623C233.174 294.124 233.411 294.782 233.382 295.456Z" fill="#ED7801"/>
<path d="M241.083 295.492C241.107 295.833 241.06 296.175 240.946 296.497C240.832 296.819 240.653 297.115 240.42 297.364C240.187 297.614 239.905 297.814 239.592 297.95C239.278 298.086 238.94 298.156 238.599 298.156C238.257 298.156 237.919 298.086 237.606 297.95C237.292 297.814 237.01 297.614 236.777 297.364C236.544 297.115 236.365 296.819 236.251 296.497C236.137 296.175 236.09 295.833 236.114 295.492C236.09 295.151 236.137 294.809 236.251 294.487C236.365 294.165 236.544 293.87 236.777 293.62C237.01 293.37 237.292 293.171 237.606 293.035C237.919 292.898 238.257 292.828 238.599 292.828C238.94 292.828 239.278 292.898 239.592 293.035C239.905 293.171 240.187 293.37 240.42 293.62C240.653 293.87 240.832 294.165 240.946 294.487C241.06 294.809 241.107 295.151 241.083 295.492Z" fill="#ED7801"/>
<path d="M248.797 295.528C248.761 296.015 248.584 296.48 248.286 296.866C247.988 297.253 247.584 297.543 247.123 297.702C246.662 297.86 246.164 297.88 245.692 297.758C245.22 297.637 244.793 297.379 244.466 297.017C244.139 296.656 243.925 296.206 243.851 295.724C243.777 295.242 243.846 294.749 244.05 294.306C244.254 293.863 244.583 293.489 244.997 293.232C245.411 292.974 245.891 292.843 246.379 292.856C247.051 292.897 247.681 293.199 248.133 293.699C248.585 294.198 248.824 294.855 248.797 295.528Z" fill="#ED7801"/>
<path d="M256.499 295.566C256.464 296.052 256.286 296.517 255.988 296.903C255.691 297.29 255.286 297.58 254.825 297.739C254.364 297.897 253.866 297.917 253.394 297.795C252.922 297.674 252.496 297.416 252.168 297.055C251.841 296.693 251.627 296.243 251.553 295.761C251.479 295.279 251.548 294.786 251.752 294.343C251.956 293.9 252.285 293.526 252.699 293.269C253.113 293.011 253.594 292.881 254.081 292.893C254.753 292.934 255.383 293.237 255.835 293.736C256.287 294.236 256.526 294.892 256.499 295.566Z" fill="#ED7801"/>
<path d="M264.201 295.591C264.168 296.078 263.992 296.544 263.696 296.932C263.399 297.32 262.996 297.613 262.535 297.773C262.073 297.933 261.575 297.955 261.102 297.834C260.629 297.714 260.202 297.457 259.873 297.096C259.545 296.735 259.33 296.285 259.255 295.802C259.18 295.32 259.249 294.826 259.452 294.382C259.656 293.939 259.985 293.564 260.399 293.306C260.814 293.048 261.295 292.918 261.783 292.931C262.453 292.971 263.081 293.272 263.533 293.769C263.985 294.266 264.225 294.919 264.201 295.591Z" fill="#ED7801"/>
<path d="M271.915 295.627C271.882 296.111 271.708 296.576 271.415 296.963C271.121 297.35 270.721 297.642 270.263 297.805C269.806 297.967 269.31 297.992 268.839 297.877C268.367 297.762 267.939 297.511 267.608 297.156C267.277 296.8 267.057 296.356 266.975 295.877C266.893 295.398 266.953 294.906 267.148 294.461C267.342 294.016 267.662 293.637 268.069 293.372C268.475 293.106 268.951 292.966 269.437 292.967C270.118 292.992 270.761 293.286 271.225 293.785C271.69 294.283 271.938 294.946 271.915 295.627Z" fill="#ED7801"/>
<path d="M279.617 295.662C279.641 296.003 279.594 296.345 279.48 296.667C279.366 296.989 279.187 297.285 278.954 297.534C278.721 297.784 278.439 297.984 278.125 298.12C277.812 298.256 277.474 298.326 277.132 298.326C276.791 298.326 276.453 298.256 276.139 298.12C275.826 297.984 275.544 297.784 275.311 297.534C275.078 297.285 274.899 296.989 274.785 296.667C274.67 296.345 274.624 296.003 274.648 295.662C274.624 295.321 274.67 294.979 274.785 294.657C274.899 294.335 275.078 294.04 275.311 293.79C275.544 293.54 275.826 293.341 276.139 293.205C276.453 293.068 276.791 292.998 277.132 292.998C277.474 292.998 277.812 293.068 278.125 293.205C278.439 293.341 278.721 293.54 278.954 293.79C279.187 294.04 279.366 294.335 279.48 294.657C279.594 294.979 279.641 295.321 279.617 295.662Z" fill="#ED7801"/>
<path d="M287.319 295.699C287.286 296.184 287.112 296.648 286.818 297.035C286.525 297.422 286.125 297.715 285.667 297.877C285.209 298.04 284.714 298.065 284.242 297.949C283.771 297.834 283.343 297.583 283.012 297.228C282.681 296.872 282.461 296.428 282.379 295.949C282.297 295.471 282.357 294.978 282.551 294.533C282.746 294.088 283.066 293.71 283.472 293.444C283.879 293.179 284.355 293.038 284.84 293.039C285.521 293.064 286.165 293.358 286.629 293.857C287.094 294.356 287.342 295.018 287.319 295.699Z" fill="#ED7801"/>
<path d="M295.021 295.735C294.987 296.222 294.811 296.689 294.515 297.077C294.219 297.465 293.815 297.757 293.354 297.917C292.893 298.078 292.395 298.099 291.922 297.979C291.448 297.858 291.021 297.602 290.693 297.24C290.364 296.879 290.149 296.429 290.074 295.947C290 295.464 290.068 294.971 290.272 294.527C290.475 294.083 290.804 293.709 291.219 293.451C291.633 293.193 292.114 293.062 292.602 293.075C293.273 293.116 293.901 293.416 294.352 293.913C294.804 294.41 295.044 295.064 295.021 295.735Z" fill="#ED7801"/>
<g opacity="0.2">
<path d="M233.382 295.456C233.346 295.943 233.168 296.408 232.871 296.794C232.573 297.18 232.168 297.471 231.707 297.629C231.246 297.788 230.749 297.808 230.276 297.686C229.804 297.564 229.378 297.307 229.051 296.945C228.723 296.584 228.51 296.134 228.436 295.652C228.362 295.17 228.431 294.677 228.634 294.234C228.838 293.791 229.167 293.417 229.581 293.159C229.995 292.902 230.476 292.771 230.963 292.784C231.637 292.822 232.269 293.123 232.721 293.623C233.174 294.124 233.411 294.782 233.382 295.456Z" fill="white"/>
<path d="M241.083 295.492C241.107 295.833 241.06 296.175 240.946 296.497C240.832 296.819 240.653 297.115 240.42 297.364C240.187 297.614 239.905 297.814 239.592 297.95C239.278 298.086 238.94 298.156 238.599 298.156C238.257 298.156 237.919 298.086 237.606 297.95C237.292 297.814 237.01 297.614 236.777 297.364C236.544 297.115 236.365 296.819 236.251 296.497C236.137 296.175 236.09 295.833 236.114 295.492C236.09 295.151 236.137 294.809 236.251 294.487C236.365 294.165 236.544 293.87 236.777 293.62C237.01 293.37 237.292 293.171 237.606 293.035C237.919 292.898 238.257 292.828 238.599 292.828C238.94 292.828 239.278 292.898 239.592 293.035C239.905 293.171 240.187 293.37 240.42 293.62C240.653 293.87 240.832 294.165 240.946 294.487C241.06 294.809 241.107 295.151 241.083 295.492Z" fill="white"/>
<path d="M248.798 295.528C248.762 296.015 248.584 296.48 248.287 296.866C247.989 297.253 247.584 297.543 247.123 297.702C246.662 297.86 246.165 297.88 245.692 297.758C245.22 297.637 244.794 297.379 244.467 297.017C244.139 296.656 243.926 296.206 243.852 295.724C243.778 295.242 243.847 294.749 244.05 294.306C244.254 293.863 244.583 293.489 244.997 293.232C245.411 292.974 245.892 292.843 246.379 292.856C247.052 292.897 247.682 293.199 248.134 293.699C248.586 294.198 248.824 294.855 248.798 295.528Z" fill="white"/>
<path d="M256.499 295.566C256.464 296.052 256.286 296.517 255.988 296.903C255.691 297.29 255.286 297.58 254.825 297.739C254.364 297.897 253.866 297.917 253.394 297.795C252.922 297.674 252.496 297.416 252.168 297.055C251.841 296.693 251.627 296.243 251.553 295.761C251.479 295.279 251.548 294.786 251.752 294.343C251.956 293.9 252.285 293.526 252.699 293.269C253.113 293.011 253.594 292.881 254.081 292.893C254.753 292.934 255.383 293.237 255.835 293.736C256.287 294.236 256.526 294.892 256.499 295.566Z" fill="white"/>
<path d="M264.201 295.589C264.168 296.076 263.992 296.542 263.696 296.93C263.399 297.318 262.996 297.611 262.535 297.771C262.073 297.931 261.575 297.953 261.102 297.832C260.629 297.712 260.202 297.455 259.873 297.094C259.545 296.733 259.33 296.283 259.255 295.8C259.18 295.318 259.249 294.824 259.452 294.38C259.656 293.937 259.985 293.562 260.399 293.304C260.814 293.046 261.295 292.916 261.783 292.929C262.453 292.969 263.081 293.27 263.533 293.767C263.985 294.264 264.225 294.918 264.201 295.589Z" fill="white"/>
<path d="M271.915 295.625C271.882 296.109 271.708 296.574 271.415 296.961C271.121 297.348 270.721 297.64 270.263 297.803C269.806 297.965 269.31 297.99 268.839 297.875C268.367 297.76 267.939 297.509 267.608 297.154C267.277 296.798 267.057 296.354 266.975 295.875C266.893 295.396 266.953 294.904 267.148 294.459C267.342 294.014 267.662 293.635 268.069 293.37C268.475 293.104 268.951 292.964 269.437 292.965C270.118 292.99 270.761 293.284 271.225 293.783C271.69 294.281 271.938 294.944 271.915 295.625Z" fill="white"/>
<path d="M279.617 295.662C279.641 296.003 279.594 296.345 279.48 296.667C279.366 296.989 279.187 297.285 278.954 297.534C278.721 297.784 278.439 297.984 278.125 298.12C277.812 298.256 277.474 298.326 277.132 298.326C276.791 298.326 276.453 298.256 276.139 298.12C275.826 297.984 275.544 297.784 275.311 297.534C275.078 297.285 274.899 296.989 274.785 296.667C274.67 296.345 274.624 296.003 274.648 295.662C274.624 295.321 274.67 294.979 274.785 294.657C274.899 294.335 275.078 294.04 275.311 293.79C275.544 293.54 275.826 293.341 276.139 293.205C276.453 293.068 276.791 292.998 277.132 292.998C277.474 292.998 277.812 293.068 278.125 293.205C278.439 293.341 278.721 293.54 278.954 293.79C279.187 294.04 279.366 294.335 279.48 294.657C279.594 294.979 279.641 295.321 279.617 295.662Z" fill="white"/>
<path d="M287.319 295.697C287.286 296.182 287.112 296.646 286.818 297.033C286.525 297.42 286.125 297.713 285.667 297.875C285.209 298.038 284.714 298.063 284.242 297.947C283.771 297.832 283.343 297.581 283.012 297.226C282.681 296.87 282.461 296.426 282.379 295.947C282.297 295.469 282.357 294.976 282.551 294.531C282.746 294.086 283.066 293.708 283.472 293.442C283.879 293.177 284.355 293.036 284.84 293.037C285.521 293.062 286.165 293.356 286.629 293.855C287.094 294.354 287.342 295.016 287.319 295.697Z" fill="white"/>
<path d="M295.021 295.735C294.988 296.222 294.812 296.689 294.516 297.077C294.219 297.465 293.815 297.757 293.354 297.917C292.893 298.078 292.395 298.099 291.922 297.979C291.449 297.858 291.022 297.602 290.693 297.24C290.365 296.879 290.15 296.429 290.075 295.947C290 295.464 290.069 294.971 290.272 294.527C290.476 294.083 290.805 293.709 291.219 293.451C291.634 293.193 292.115 293.062 292.603 293.075C293.273 293.116 293.901 293.416 294.353 293.913C294.805 294.41 295.044 295.064 295.021 295.735Z" fill="white"/>
</g>
<path d="M284.079 121.191C284.919 120.821 285.631 120.212 286.128 119.441C286.624 118.669 286.883 117.768 286.872 116.85C286.903 116.254 286.812 115.657 286.606 115.097C286.399 114.536 286.08 114.024 285.669 113.59C285.258 113.157 284.763 112.812 284.214 112.576C283.665 112.34 283.074 112.219 282.477 112.219C281.879 112.219 281.288 112.34 280.739 112.576C280.19 112.812 279.695 113.157 279.284 113.59C278.873 114.024 278.554 114.536 278.347 115.097C278.141 115.657 278.05 116.254 278.082 116.85C278.063 117.777 278.32 118.689 278.819 119.47C279.318 120.251 280.038 120.867 280.887 121.239C274.116 122.255 274.418 129.606 274.418 129.606L290.426 129.679C290.426 129.679 290.801 122.195 284.079 121.191Z" fill="#ED7801"/>
<path opacity="0.1" d="M284.079 121.191C284.919 120.821 285.631 120.212 286.128 119.441C286.624 118.669 286.883 117.768 286.872 116.85C286.903 116.254 286.812 115.657 286.606 115.097C286.399 114.536 286.08 114.024 285.669 113.59C285.258 113.157 284.763 112.812 284.214 112.576C283.665 112.34 283.074 112.219 282.477 112.219C281.879 112.219 281.288 112.34 280.739 112.576C280.19 112.812 279.695 113.157 279.284 113.59C278.873 114.024 278.554 114.536 278.347 115.097C278.141 115.657 278.05 116.254 278.082 116.85C278.063 117.777 278.32 118.689 278.819 119.47C279.318 120.251 280.038 120.867 280.887 121.239C274.116 122.255 274.418 129.606 274.418 129.606L290.426 129.679C290.426 129.679 290.801 122.195 284.079 121.191Z" fill="black"/>
<path d="M310.091 134.419L253.035 134.16L253.004 140.979L310.061 141.238L310.091 134.419Z" fill="#ED7801"/>
<path opacity="0.2" d="M310.091 134.419L253.035 134.16L253.004 140.979L310.061 141.238L310.091 134.419Z" fill="white"/>
<path d="M100.333 169.76H99.7647L98.1203 169.881C97.2305 169.934 96.3456 170.051 95.4724 170.231C94.9069 170.311 94.3459 170.42 93.7918 170.558L91.9177 171.078C88.7279 172.056 85.7184 173.547 83.0067 175.491C79.424 178.091 76.4325 181.421 74.2287 185.26C72.9335 187.474 71.9027 189.831 71.1576 192.285C70.3747 194.952 69.924 197.705 69.8156 200.483C69.7435 201.942 69.7677 203.404 69.8881 204.86C69.8881 205.597 70.0936 206.335 70.1904 207.084C70.2717 207.84 70.4132 208.588 70.6135 209.321C71.7008 214.173 73.9068 218.704 77.0557 222.552C80.2046 226.399 84.2091 229.458 88.7499 231.484C92.0363 232.902 95.5588 233.693 99.136 233.817C102.831 234.021 106.529 233.491 110.018 232.258L111.082 231.859H111.227L111.348 231.931L126.594 239.669L126.147 240.056C124.515 235.002 122.943 230.106 121.42 225.402V225.221L121.553 225.088C125.251 221.363 127.997 216.8 129.557 211.788C130.97 207.205 131.382 202.373 130.766 197.617C130.218 193.391 128.859 189.31 126.764 185.599C124.958 182.411 122.628 179.55 119.872 177.135C117.598 175.224 115.082 173.622 112.388 172.371C110.349 171.492 108.226 170.824 106.052 170.376L103.634 169.977L101.881 169.844L100.817 169.772H100.454C100.574 169.759 100.696 169.759 100.817 169.772H101.893L103.646 169.844L106.064 170.195C108.265 170.61 110.417 171.254 112.484 172.118C115.225 173.354 117.786 174.952 120.102 176.869C122.908 179.273 125.287 182.135 127.138 185.333C129.293 189.084 130.694 193.22 131.261 197.508C131.929 202.338 131.545 207.254 130.137 211.921C128.567 217.037 125.779 221.697 122.012 225.499L122.085 225.185C123.608 229.888 125.192 234.785 126.836 239.827L127.066 240.564L126.377 240.214L111.13 232.487H111.396L110.308 232.886C106.752 234.138 102.985 234.68 99.2206 234.482C95.5664 234.343 91.9702 233.523 88.6169 232.064C82.2205 229.325 76.8987 224.564 73.467 218.51C71.8878 215.715 70.7346 212.699 70.0453 209.563C69.8565 208.811 69.7152 208.048 69.6221 207.278C69.5254 206.516 69.3682 205.767 69.3319 205.017C69.0047 200.715 69.4594 196.389 70.674 192.249C71.4376 189.761 72.4971 187.374 73.8297 185.139C76.086 181.265 79.1399 177.914 82.7891 175.31C85.5454 173.361 88.6055 171.882 91.8452 170.933L93.7434 170.449C94.3021 170.319 94.8671 170.219 95.4362 170.147C96.3184 169.983 97.2115 169.886 98.1082 169.857L99.7647 169.796C99.953 169.771 100.143 169.759 100.333 169.76Z" fill="#ED7801"/>
<path d="M107.225 197.955H104.988L100.152 191.16V186.698C100.152 186.698 96.6938 186.481 97.1049 192.321C97.516 198.16 97.1049 196.673 97.1049 196.673C97.1049 196.673 89.7657 196.673 89.1612 197.338C88.5566 198.003 88.5204 205.089 88.4357 209.042C88.3894 209.995 88.6629 210.937 89.2127 211.717C89.7626 212.496 90.5573 213.07 91.4705 213.347C91.7265 213.418 91.9908 213.454 92.2564 213.455C94.0943 213.455 103.441 211.968 103.441 211.968H107.298L107.225 197.955Z" fill="#ED7801"/>
<path d="M113.621 196.76L112.243 212.043H108.422V197.074L113.621 196.76Z" fill="#ED7801"/>
<path d="M159.192 507.895V497.557L140.656 497.424L140.499 513.057L141.648 513.142C146.762 513.468 167.667 513.952 171.101 512.888C174.922 511.703 159.192 507.895 159.192 507.895Z" fill="#ED7801"/>
<path d="M171.536 511.92C171.536 512.089 164.596 512.234 156.048 512.234C147.5 512.234 140.56 512.089 140.56 511.92C140.56 511.751 147.5 511.605 156.048 511.605C164.596 511.605 171.536 511.751 171.536 511.92Z" fill="#263238"/>
<path d="M159.518 510.009C159.361 509.924 159.518 509.38 159.893 508.8C160.268 508.22 160.776 507.978 160.896 508.099C161.017 508.22 160.763 508.679 160.401 509.175C160.038 509.67 159.675 510.094 159.518 510.009Z" fill="#263238"/>
<path d="M160.703 510.687C160.534 510.687 160.618 510.01 160.981 509.37C161.344 508.729 161.827 508.342 161.96 508.439C162.093 508.535 161.876 509.079 161.537 509.648C161.199 510.216 160.86 510.748 160.703 510.687Z" fill="#263238"/>
<path d="M146.146 511.872C146.073 511.872 145.795 511.655 145.396 511.195C144.909 510.605 144.366 510.062 143.776 509.575C143.195 509.111 142.503 508.807 141.769 508.692C141.2 508.62 140.838 508.692 140.801 508.62C140.765 508.547 141.116 508.293 141.781 508.245C142.658 508.226 143.514 508.518 144.199 509.067C144.84 509.59 145.381 510.225 145.795 510.941C146.073 511.473 146.218 511.824 146.146 511.872Z" fill="#263238"/>
<path d="M159.579 508.062C159.663 508.207 159.349 508.57 158.817 508.763C158.285 508.957 157.813 508.884 157.789 508.763C157.765 508.642 158.14 508.388 158.599 508.219C159.059 508.05 159.482 507.917 159.579 508.062Z" fill="#263238"/>
<path d="M159.288 507.059C159.288 507.24 158.805 507.385 158.176 507.397C157.547 507.409 157.052 507.264 157.064 507.095C157.076 506.926 157.572 506.769 158.176 506.757C158.781 506.744 159.264 506.89 159.288 507.059Z" fill="#263238"/>
<path d="M204.835 507.895V497.557L186.299 497.424L186.142 512.9L187.291 512.985C192.405 513.311 213.322 513.952 216.744 512.888C220.565 511.703 204.835 507.895 204.835 507.895Z" fill="#ED7801"/>
<path d="M217.18 511.943C217.18 512.113 210.252 512.258 201.691 512.258C193.131 512.258 186.215 512.113 186.215 511.943C186.215 511.774 193.143 511.629 201.691 511.629C210.239 511.629 217.18 511.774 217.18 511.943Z" fill="#263238"/>
<path d="M205.161 510.009C205.016 509.924 205.161 509.38 205.536 508.8C205.911 508.22 206.419 507.978 206.54 508.099C206.661 508.22 206.407 508.679 206.044 509.175C205.681 509.67 205.319 510.094 205.161 510.009Z" fill="#263238"/>
<path d="M206.346 510.687C206.189 510.687 206.261 510.01 206.636 509.37C207.011 508.729 207.483 508.342 207.616 508.439C207.749 508.535 207.519 509.079 207.18 509.648C206.842 510.216 206.515 510.748 206.346 510.687Z" fill="#263238"/>
<path d="M191.789 511.872C191.716 511.872 191.45 511.655 191.039 511.195C190.552 510.605 190.009 510.062 189.419 509.575C188.838 509.111 188.146 508.807 187.412 508.692C186.856 508.62 186.481 508.692 186.444 508.62C186.408 508.547 186.759 508.293 187.424 508.245C188.301 508.226 189.158 508.518 189.842 509.067C190.487 509.586 191.028 510.222 191.438 510.941C191.716 511.473 191.861 511.824 191.789 511.872Z" fill="#263238"/>
<path d="M205.222 508.062C205.306 508.207 204.992 508.57 204.46 508.763C203.928 508.957 203.456 508.884 203.432 508.763C203.408 508.642 203.783 508.388 204.242 508.219C204.702 508.05 205.125 507.917 205.222 508.062Z" fill="#263238"/>
<path d="M204.956 507.059C204.956 507.24 204.472 507.385 203.843 507.397C203.214 507.409 202.731 507.264 202.743 507.095C202.755 506.926 203.239 506.769 203.843 506.757C204.448 506.744 204.956 506.89 204.956 507.059Z" fill="#263238"/>
<path d="M273.124 200.906C272.64 200.41 271.443 200.652 271.443 200.652C271.563 199.956 271.563 199.244 271.443 198.548C271.226 197.871 269.702 198.004 269.702 198.004C269.632 197.434 269.632 196.857 269.702 196.287C269.714 196.161 269.687 196.034 269.624 195.923C269.562 195.813 269.466 195.725 269.352 195.671C268.631 195.377 267.857 195.237 267.078 195.259C266.147 194.595 269.92 189.311 271.322 187.618C272.725 185.925 272.471 184.607 271.226 184.607C270.367 184.607 265.966 189.686 264.612 191.39C263.258 193.095 259.667 197.835 259.546 194.05C259.425 190.266 257.901 187.413 256.946 186.929C255.991 186.445 254.975 187.582 255.495 188.634C255.952 189.829 256.237 191.083 256.342 192.358C256.473 193.373 256.428 194.404 256.209 195.405C255.808 197.266 255.262 199.093 254.576 200.87H254.48C254.48 200.87 228.097 226.176 226.187 227.977C224.482 229.598 190.192 226.055 183.313 225.33C180.975 224.987 178.614 224.826 176.252 224.846C173.265 224.979 172.733 225.402 169.759 225.438C162.247 225.522 154.753 226.181 147.342 227.409C143.987 227.98 140.852 229.461 138.281 231.691C135.709 233.921 133.8 236.815 132.761 240.056C125.833 261.699 110.139 312.928 107.37 341.704C105.278 345.499 103.389 349.401 101.711 353.396C99.7646 358.692 100.236 358.874 100.889 358.994C102.654 359.321 104.661 349.817 105.411 352.115C106.161 354.412 101.602 363.444 103.452 363.71C105.871 364.048 107.793 354.037 108.023 353.239C108.252 352.441 109.449 352.695 109.232 353.445C108.881 354.509 105.484 365.789 107.853 366.152C109.159 366.346 109.304 363.964 109.304 363.964C109.304 363.964 111.723 353.167 112.823 353.384C113.923 353.602 112.75 359.974 112.194 362.102C111.638 364.23 112.412 365.306 113.548 364.786C114.322 364.423 116.172 357.955 116.68 355.851C117.188 353.747 118.457 347.919 120.162 351.293C121.867 354.666 124.454 356.625 125.518 356.673C125.758 356.645 125.984 356.547 126.167 356.389C126.35 356.232 126.482 356.024 126.546 355.791C126.61 355.558 126.602 355.312 126.525 355.083C126.447 354.855 126.303 354.655 126.111 354.509C125.196 353.615 124.41 352.598 123.777 351.486C123.213 350.62 122.804 349.663 122.568 348.657C122.081 346.651 121.797 344.601 121.722 342.539L121.528 341.33C124.237 327.921 132.035 288.565 143.292 263.428L147.911 272.931L149.918 279.968L137.609 310.353L190.108 309.664L182.273 279.509L191.788 248.073C202.078 248.302 228.496 248.689 232.897 246.694C238.435 244.276 267.078 208.1 267.078 208.1C268.946 206.649 270.734 205.099 272.435 203.457C272.435 203.457 274.176 201.994 273.124 200.906Z" fill="#FFBE9D"/>
<path d="M135.3 287.9C136.823 282.701 144.646 256.996 144.646 256.996C144.646 256.996 148.491 277.949 147.476 280.476C146.541 282.64 145.438 284.726 144.175 286.715C135.3 300.221 136.461 306.98 136.461 306.98L190.084 305.347C190.205 297.851 185.767 280.416 184.849 277.635C183.93 274.854 186.989 265.75 186.989 265.75C186.989 265.75 193.034 259.595 192.816 256.428C192.702 253.582 192.35 250.751 191.765 247.964L224.41 249.173L223.382 227.047L176.494 222.355C174.861 226.962 160.098 224.701 160.098 224.701C144.163 225.233 143.171 228.159 136.545 233.31C129.92 238.461 118.953 282.665 118.953 282.665L135.3 287.9Z" fill="#ED7801"/>
<path d="M167.002 282.665C166.073 282.831 165.127 282.879 164.185 282.81C162.432 282.81 160.026 282.689 157.378 282.423C154.73 282.157 152.336 281.782 150.631 281.443C149.691 281.322 148.77 281.087 147.887 280.742C148.832 280.743 149.775 280.832 150.704 281.008C152.421 281.226 154.803 281.528 157.439 281.794C160.074 282.06 162.468 282.241 164.197 282.362C165.14 282.374 166.079 282.476 167.002 282.665Z" fill="#263238"/>
<path d="M170.678 278.105C169.748 278.561 168.765 278.898 167.752 279.109C162.928 280.377 157.951 280.967 152.965 280.862C151.933 280.896 150.901 280.798 149.894 280.572C150.912 280.443 151.938 280.391 152.965 280.415C154.863 280.354 157.475 280.221 160.352 279.883C163.23 279.544 165.793 279.061 167.607 278.674C168.614 278.405 169.641 278.215 170.678 278.105Z" fill="#263238"/>
<path d="M188.718 257.77C188.693 258.691 188.568 259.608 188.343 260.502C188.029 262.183 187.545 264.48 186.928 266.995C186.312 269.51 185.719 271.831 185.187 273.403C184.973 274.303 184.657 275.175 184.244 276.003C184.312 275.084 184.482 274.175 184.752 273.294C185.211 271.408 185.731 269.232 186.312 266.85C186.892 264.468 187.448 262.292 187.908 260.405C188.071 259.498 188.343 258.613 188.718 257.77Z" fill="#263238"/>
<path d="M135.868 284.817C133.071 284.385 130.311 283.742 127.61 282.895C124.851 282.249 122.143 281.401 119.509 280.355C122.305 280.794 125.065 281.437 127.767 282.278C130.527 282.921 133.235 283.77 135.868 284.817Z" fill="#263238"/>
<path d="M192.345 247.698C191.889 247.777 191.422 247.777 190.966 247.698C189.703 247.569 188.463 247.272 187.279 246.816C185.301 246.072 183.5 244.924 181.992 243.443C180.485 241.963 179.304 240.183 178.525 238.219C177.664 236.058 177.296 233.733 177.449 231.412C177.503 229.497 178.075 227.634 179.105 226.019C179.83 224.932 180.912 224.132 182.164 223.758C182.499 223.666 182.845 223.621 183.192 223.625C183.434 223.625 183.555 223.625 183.555 223.625C183.555 223.625 183.047 223.625 182.237 223.952C181.088 224.376 180.113 225.172 179.468 226.213C177.823 228.8 177.364 233.528 179.117 237.941C179.933 240.022 181.211 241.89 182.853 243.406C184.199 244.646 185.75 245.644 187.436 246.356C189.018 246.982 190.664 247.432 192.345 247.698Z" fill="#263238"/>
<path d="M220.529 248.737C220.226 245.029 220.13 241.307 220.239 237.589C220.144 233.874 220.257 230.156 220.577 226.453C220.88 230.157 220.977 233.874 220.867 237.589C220.969 241.308 220.856 245.03 220.529 248.737Z" fill="#263238"/>
<path d="M176.179 223.71C176.312 221.014 176.59 217.967 176.59 217.967C176.59 217.967 183.265 217.229 183.664 210.337C184.063 203.446 183.664 187.546 183.664 187.546L171.573 181.355L158.152 191.911L160.219 226.37L172.528 227.156C173.469 227.182 174.382 226.834 175.066 226.188C175.751 225.542 176.151 224.651 176.179 223.71Z" fill="#FFBE9D"/>
<path d="M177.376 204.883C177.376 204.883 177.376 205.016 177.268 205.173C177.178 205.287 177.061 205.377 176.929 205.436C176.796 205.495 176.651 205.521 176.506 205.511C175.732 205.511 174.982 204.617 174.716 203.577C174.59 203.073 174.59 202.545 174.716 202.041C174.741 201.821 174.821 201.611 174.947 201.429C175.074 201.248 175.244 201.101 175.442 201.002C175.604 200.934 175.787 200.934 175.95 201.002C176.07 201.061 176.168 201.159 176.228 201.28C176.312 201.485 176.228 201.618 176.228 201.606C176.228 201.594 176.228 201.485 176.107 201.364C176.044 201.278 175.951 201.217 175.846 201.195C175.741 201.173 175.632 201.19 175.539 201.243C175.39 201.333 175.267 201.459 175.18 201.609C175.094 201.759 175.046 201.929 175.043 202.102C174.941 202.552 174.941 203.018 175.043 203.468C175.285 204.411 175.938 205.173 176.518 205.245C176.631 205.261 176.747 205.253 176.857 205.221C176.967 205.19 177.07 205.137 177.159 205.064C177.304 204.967 177.352 204.871 177.376 204.883Z" fill="#EB996E"/>
<path d="M187.811 183.821C186.88 180.653 183.506 179.082 180.435 178.211C175.756 176.881 170.702 176.301 166.132 177.981C161.561 179.662 156.072 182.612 156.072 187.654C153.376 187.436 151.828 189.794 150.764 192.72C150.084 194.503 149.676 196.378 149.555 198.282C149.217 204.884 147.367 214 143.087 218.837C140.668 221.533 137.319 223.395 135.941 226.756C134.732 229.67 135.36 233.128 134.236 236.078C133.232 238.678 131.02 240.528 129.4 242.789C127.749 245.354 126.778 248.296 126.577 251.34C126.376 254.383 126.952 257.428 128.251 260.187C129.559 262.876 131.402 265.271 133.665 267.225C135.929 269.179 138.567 270.651 141.418 271.553C147.066 273.271 153.088 273.33 158.768 271.722C163.031 270.703 167.008 268.731 170.4 265.955C173.87 263.121 176.254 259.174 177.147 254.783C178.005 249.85 176.627 244.832 175.599 239.923C172.383 224.41 173.302 223.6 177.364 209.2C177.461 208.946 177.509 208.68 177.582 208.426C177.654 208.172 177.691 208.051 177.739 207.858C177.854 207.289 177.915 206.71 177.92 206.129C177.327 206.35 176.683 206.396 176.064 206.264C175.445 206.131 174.877 205.824 174.426 205.379C173.974 204.905 173.66 204.318 173.515 203.679C173.37 203.041 173.401 202.375 173.604 201.752C173.889 201.071 174.314 200.458 174.852 199.952C175.389 199.446 176.027 199.058 176.723 198.814C178.066 198.258 179.504 197.968 180.822 197.351C183.615 196.021 185.55 193.264 186.868 190.375C187.951 188.372 188.286 186.048 187.811 183.821Z" fill="#263238"/>
<path d="M177.86 205.211C178.115 205.588 178.326 205.994 178.489 206.42C178.851 207.182 179.335 208.258 179.867 209.503L179.964 209.733H179.71L178.501 209.842C177.667 209.842 176.965 209.999 176.143 209.987C176.072 209.971 176.005 209.937 175.95 209.888C175.895 209.84 175.853 209.778 175.829 209.709C175.793 209.599 175.793 209.48 175.829 209.37C175.857 209.207 175.893 209.046 175.938 208.887L176.155 208.028C176.265 207.455 176.435 206.896 176.663 206.36C176.641 206.943 176.555 207.523 176.409 208.089L176.24 208.947C176.179 209.237 176.071 209.685 176.24 209.648C176.844 209.648 177.703 209.515 178.501 209.467L179.71 209.358L179.553 209.624C179.033 208.415 178.598 207.278 178.344 206.493C178.121 206.091 177.958 205.659 177.86 205.211Z" fill="#ED7801"/>
<path d="M136.461 306.98L190.084 305.348L213.419 396.44L209.127 500.93H180.774L184.244 398.665L163.508 335.248L166.7 504.98L138.045 505.404L135.034 345.864C134.901 341.427 133.45 331.428 133.994 327.027L136.461 306.98Z" fill="#263238"/>
<path d="M170.642 336.541C169.764 336.597 168.883 336.544 168.018 336.384C166.398 336.191 164.185 335.852 161.755 335.369C159.325 334.885 157.148 334.329 155.576 333.881C154.736 333.697 153.923 333.404 153.158 333.011C153.158 332.829 157.1 333.773 161.936 334.752C166.773 335.731 170.666 336.36 170.642 336.541Z" fill="#455A64"/>
<path d="M208.837 495.197C208.837 495.366 202.416 495.512 194.497 495.512C186.577 495.512 180.145 495.366 180.145 495.197C180.145 495.028 186.565 494.883 194.497 494.883C202.429 494.883 208.837 495.016 208.837 495.197Z" fill="#455A64"/>
<path d="M166.446 500.566C166.446 500.748 160.207 500.881 152.517 500.881C144.827 500.881 138.601 500.748 138.601 500.566C138.601 500.385 144.84 500.252 152.517 500.252C160.195 500.252 166.446 500.397 166.446 500.566Z" fill="#455A64"/>
<path d="M162.746 500.13C162.577 500.13 161.827 463.048 161.066 417.308C160.304 371.568 159.857 334.461 160.014 334.461C160.171 334.461 160.945 371.532 161.694 417.296C162.444 463.06 162.928 500.13 162.746 500.13Z" fill="#455A64"/>
<path d="M205.028 495.198C205.015 495.033 205.015 494.867 205.028 494.702V493.251C205.028 491.945 205.125 490.071 205.197 487.689C205.367 482.853 205.609 475.828 205.911 467.219C206.564 449.905 207.483 426.038 208.486 399.692C208.486 399.438 208.486 399.196 208.486 398.978V399.063C202.138 373.672 196.395 350.627 192.224 333.953L187.388 314.233C186.831 311.924 186.408 310.122 186.106 308.865C185.961 308.272 185.864 307.813 185.779 307.462C185.732 307.305 185.704 307.142 185.695 306.979C185.758 307.131 185.806 307.289 185.84 307.45C185.937 307.789 186.058 308.248 186.227 308.828C186.553 310.038 187.025 311.875 187.629 314.173C188.838 318.84 190.543 325.562 192.671 333.844C196.879 350.506 202.683 373.491 209.115 398.918V399.002C209.115 399.22 209.115 399.474 209.115 399.716C208.039 426.062 207.059 449.917 206.346 467.231C205.971 475.852 205.657 482.829 205.439 487.689C205.318 490.107 205.222 491.945 205.161 493.251C205.161 493.868 205.089 494.351 205.077 494.702C205.078 494.868 205.062 495.035 205.028 495.198Z" fill="#455A64"/>
<path d="M195.779 396.852C193.742 397.521 191.644 397.987 189.516 398.242C186.904 398.689 184.679 399.004 183.676 399.052V398.81C184.002 398.907 184.171 398.967 184.171 399.016C184.171 399.064 183.966 399.016 183.627 399.016H182.902L183.627 398.798C184.57 398.52 186.795 398.061 189.407 397.589C191.501 397.135 193.636 396.888 195.779 396.852Z" fill="#455A64"/>
<path d="M195.283 400.321C193.397 400.408 191.507 400.323 189.636 400.067C187.748 400.029 185.866 399.822 184.014 399.451C187.793 399.142 191.596 399.436 195.283 400.321Z" fill="#455A64"/>
<path opacity="0.2" d="M136.231 308.902C136.866 309.718 137.666 310.39 138.578 310.876C139.491 311.361 140.496 311.649 141.527 311.72C143.686 311.975 145.871 311.935 148.02 311.599C161.864 310.063 176.53 308.648 190.084 305.348C172.54 306.327 154.005 306.001 136.461 306.98L136.279 308.479" fill="black"/>
<g opacity="0.2">
<path d="M154.307 333.627L164.197 372.003L163.508 335.247L154.307 333.627Z" fill="black"/>
</g>
</svg>
