<svg width="659" height="514" viewBox="0 0 659 514" fill="none" xmlns="http://www.w3.org/2000/svg">
<g clip-path="url(#clip0_270_5212)">
<circle opacity="0.4" cx="329" cy="270" r="260" fill="#ED7801"/>
<path d="M162.075 235.72L165.484 218.958L151.862 216.189C151.757 211.872 150.909 207.66 149.435 203.745L161.032 196.063L151.609 181.803L140.011 189.484C136.959 186.581 133.416 184.184 129.486 182.398L132.255 168.762L115.491 165.354L112.722 178.989C108.405 179.093 104.192 179.927 100.276 181.401L92.5944 169.804L78.3321 179.242L86.0141 190.838C83.111 193.875 80.7141 197.418 78.9276 201.348L65.2906 198.579L61.8813 215.341L75.5183 218.11C75.6226 222.427 76.4563 226.639 77.9301 230.569L66.3327 238.25L75.7863 252.496L87.3837 244.815C90.4208 247.718 93.9491 250.129 97.8943 251.916L95.1253 265.537L111.889 268.945L114.658 255.325C118.975 255.221 123.188 254.372 127.119 252.898L134.801 264.495L149.048 255.057L141.366 243.461C144.269 240.409 146.681 236.866 148.467 232.936L162.075 235.72ZM109.358 238.295C97.6859 235.913 90.1379 224.54 92.505 212.84C94.887 201.169 106.276 193.622 117.963 195.989C129.649 198.356 137.183 209.759 134.815 221.444C132.433 233.145 121.044 240.677 109.358 238.295Z" fill="#F29A41"/>
<path d="M218.632 292.227L222.518 280.453L212.945 277.297C213.243 274.171 212.99 271.074 212.261 268.127L221.267 263.587L215.7 252.512L206.693 257.052C204.742 254.7 202.405 252.675 199.71 251.053L202.866 241.481L191.09 237.596L187.934 247.167C184.808 246.87 181.711 247.108 178.764 247.837L174.223 238.831L163.146 244.414L167.687 253.42C165.35 255.355 163.31 257.707 161.687 260.386L152.115 257.23L148.229 269.005L157.817 272.161C157.519 275.287 157.757 278.383 158.487 281.346L149.48 285.886L155.063 296.946L164.07 292.406C166.005 294.743 168.342 296.797 171.037 298.42L167.881 307.992L179.657 311.877L182.813 302.305C185.939 302.603 189.036 302.35 191.999 301.621L196.539 310.627L207.601 305.059L203.06 296.053C205.412 294.103 207.452 291.766 209.075 289.087L218.632 292.227ZM180.476 289.578C172.273 286.868 167.806 278.026 170.516 269.824C173.225 261.622 182.069 257.156 190.272 259.865C198.475 262.574 202.941 271.417 200.231 279.619C197.522 287.836 188.679 292.287 180.476 289.578Z" stroke="#F29A41" stroke-miterlimit="10"/>
<path d="M239.564 216.473L241.068 208.628L234.696 207.407C234.622 205.383 234.205 203.433 233.49 201.602L238.865 197.954L234.383 191.345L229.024 195.007C227.58 193.667 225.927 192.566 224.066 191.747L225.287 185.361L217.441 183.857L216.221 190.244C214.196 190.318 212.246 190.72 210.429 191.434L206.782 186.061L200.172 190.541L203.819 195.915C202.479 197.344 201.378 199.011 200.559 200.857L194.172 199.637L192.668 207.482L199.055 208.702C199.13 210.727 199.532 212.677 200.246 214.508L194.872 218.155L199.353 224.764L204.727 221.117C206.157 222.457 207.824 223.558 209.67 224.377L208.449 230.748L216.295 232.252L217.516 225.881C219.541 225.806 221.491 225.389 223.322 224.69L226.969 230.064L233.565 225.583L229.917 220.209C231.257 218.765 232.374 217.113 233.178 215.252L239.564 216.473ZM214.985 217.946C209.521 216.904 205.933 211.62 206.99 206.157C208.032 200.694 213.318 197.121 218.781 198.163C224.245 199.205 227.818 204.489 226.776 209.953C225.719 215.416 220.434 218.988 214.985 217.946Z" stroke="#F29A41" stroke-miterlimit="10"/>
<path d="M658.5 248.522L657.071 230.748L642.615 231.91C641.26 227.607 639.191 223.633 636.571 220.135L645.98 209.089L632.402 197.523L622.993 208.568C619.093 206.544 614.85 205.159 610.383 204.504L609.222 190.035L591.446 191.464L592.608 205.933C588.305 207.288 584.33 209.342 580.832 211.962L569.785 202.554L558.217 216.145L569.264 225.553C567.239 229.438 565.855 233.681 565.2 238.147L550.729 239.308L552.158 257.082L566.629 255.921C567.984 260.223 570.038 264.197 572.658 267.71L563.249 278.756L576.842 290.308L586.251 279.262C590.136 281.287 594.379 282.686 598.846 283.341L600.007 297.795L617.782 296.366L616.621 281.912C620.924 280.557 624.899 278.488 628.412 275.868L639.459 285.276L651.012 271.7L639.965 262.292C641.99 258.392 643.389 254.149 644.044 249.683L658.5 248.522ZM606.423 266.356C594.037 267.353 583.169 258.124 582.171 245.724C581.174 233.339 590.419 222.472 602.806 221.474C615.192 220.477 626.06 229.721 627.057 242.107C628.055 254.521 618.81 265.358 606.423 266.356Z" fill="#F29A41"/>
<path d="M490.166 77.9876L491.67 70.1427L485.298 68.922C485.224 66.8975 484.807 64.9475 484.092 63.1165L489.467 59.4694L484.986 52.86L479.611 56.5071C478.167 55.1673 476.514 54.0658 474.654 53.247L475.874 46.8609L468.029 45.3574L466.808 51.7435C464.783 51.818 462.833 52.2199 461.017 52.9344L457.369 47.5606L450.759 52.0413L454.407 57.4151C453.067 58.8442 451.965 60.5114 451.146 62.3573L444.759 61.1366L443.256 68.9816L449.642 70.2022C449.717 72.2267 450.119 74.1768 450.833 76.0078L445.459 79.6549L449.94 86.2643L455.315 82.6172C456.744 83.9569 458.411 85.0585 460.257 85.8772L459.037 92.2484L466.882 93.7519L468.103 87.3807C470.128 87.3063 472.078 86.8895 473.909 86.1898L477.557 91.5637L484.167 87.083L480.519 81.7091C481.859 80.2652 482.976 78.6128 483.78 76.7521L490.166 77.9876ZM465.572 79.4613C460.108 78.4193 456.521 73.1348 457.578 67.6716C458.62 62.2084 463.905 58.6358 469.368 59.6778C474.832 60.7198 478.405 66.0044 477.363 71.4675C476.321 76.9307 471.036 80.5034 465.572 79.4613Z" stroke="#F29A41" stroke-miterlimit="10"/>
<path d="M271.474 140.936C301.558 140.936 325.947 116.55 325.947 86.468C325.947 56.3862 301.558 32 271.474 32C241.389 32 217 56.3862 217 86.468C217 116.55 241.389 140.936 271.474 140.936Z" fill="#F29A41"/>
<path d="M271.474 133.166C297.266 133.166 318.176 112.259 318.176 86.469C318.176 60.6787 297.266 39.7715 271.474 39.7715C245.681 39.7715 224.771 60.6787 224.771 86.469C224.771 112.259 245.681 133.166 271.474 133.166Z" fill="#F8CCA0"/>
<path d="M271.488 42.1074L271.429 48.3" stroke="#212B3B" stroke-width="2" stroke-miterlimit="10"/>
<path d="M271.518 124.621L271.459 130.814" stroke="#212B3B" stroke-width="2" stroke-miterlimit="10"/>
<path d="M227.109 86.4531L233.302 86.4978" stroke="#212B3B" stroke-width="2" stroke-miterlimit="10"/>
<path d="M309.63 86.4238L315.824 86.4834" stroke="#212B3B" stroke-width="2" stroke-miterlimit="10"/>
<path d="M240.12 55.0879L244.453 59.509" stroke="#212B3B" stroke-miterlimit="10"/>
<path d="M298.494 113.426L302.827 117.832" stroke="#212B3B" stroke-miterlimit="10"/>
<path d="M240.091 117.817L244.512 113.471" stroke="#212B3B" stroke-miterlimit="10"/>
<path d="M298.435 59.449L302.842 55.1172" stroke="#212B3B" stroke-miterlimit="10"/>
<path d="M271.474 90.2033C273.537 90.2033 275.21 88.5304 275.21 86.4669C275.21 84.4033 273.537 82.7305 271.474 82.7305C269.41 82.7305 267.737 84.4033 267.737 86.4669C267.737 88.5304 269.41 90.2033 271.474 90.2033Z" fill="#212B3B"/>
<path d="M375.651 331.304L367.999 305.238C367.999 305.238 347.425 314.125 340.889 327.776C326.091 358.739 316.771 418.908 310.771 427.304C304.772 435.699 230.93 445.703 230.93 445.703L238.492 483.767C238.492 483.767 328.8 477.261 340.889 466.588C357.265 452.134 377.021 389.27 377.021 389.27L375.651 331.304Z" fill="#F8CCA0"/>
<path d="M424.602 175.044C427.177 164.371 438.685 157.136 449.628 158.029C460.57 158.923 470.217 166.946 474.609 177.009C478.986 187.072 478.554 198.817 474.996 209.208C472.584 216.234 468.788 223.766 471.497 230.688C473.507 235.839 478.658 239.039 483.72 241.287C488.782 243.52 494.246 245.247 498.355 248.953C502.464 252.66 504.756 259.195 501.689 263.81C497.268 270.493 485 269.213 482.246 276.731C480.832 280.556 482.827 284.784 482.589 288.863C482.306 293.984 478.42 298.375 473.805 300.608C469.19 302.841 463.935 303.287 458.798 303.407C449.777 303.63 440.368 302.871 432.552 298.375C424.736 293.865 418.989 284.754 420.865 275.927C422.398 268.692 428.681 261.994 426.492 254.938C424.914 249.832 419.555 247.093 415.714 243.371C407.585 235.496 406.305 222.516 409.595 211.694C412.855 200.857 420.567 191.821 424.602 175.044Z" fill="#6B2E40"/>
<path d="M435.738 286.378C422.875 306.251 400.082 328.624 391.953 327.538C385.239 326.645 378.376 317.222 378.376 300.594C379.314 300.222 380.252 299.671 381.16 298.986C383.14 297.453 384.911 295.19 385.954 292.526C386.222 291.871 386.445 291.156 386.594 290.442C387.636 285.782 386.356 280.438 383.497 277.268C383.348 277.104 383.214 276.94 383.065 276.791C393.948 266.907 404.816 259.911 415.669 252.914C416.086 259.434 417.456 265.463 419.838 270.628C420.389 271.849 420.999 273.01 421.669 274.112C425.152 279.917 430.17 284.294 435.738 286.378Z" fill="#FAC8BF"/>
<path d="M419.808 270.598C411.813 281.688 397.998 299.224 381.13 298.971C383.11 297.437 384.882 295.175 385.924 292.51C386.192 291.855 386.415 291.141 386.564 290.426C387.606 285.767 386.326 280.423 383.467 277.252C383.318 277.088 383.185 276.924 383.036 276.776C393.918 266.891 404.786 259.895 415.639 252.898C416.056 259.419 417.441 265.447 419.808 270.598Z" fill="#EDA19F"/>
<path d="M431.018 283.266C431.018 283.266 412.632 322.371 390.703 323.428C378.167 324.039 380.267 297.02 380.267 297.02C380.267 297.02 359.35 306.83 353.32 314.318C346.368 322.937 337.777 375.351 338.522 389.061C339.862 413.772 352.859 429.893 352.859 443.32C352.859 456.748 343.107 488.991 343.107 488.991L475.993 488.633C475.993 488.633 468.981 460.037 467.612 429.7C466.242 399.362 481.71 331.586 476.127 312.487C472.167 299.06 431.018 283.266 431.018 283.266Z" fill="#ED7801"/>
<path d="M390.211 323.488C390.211 323.488 419.019 312.383 429.887 281.703C429.887 281.703 445.638 286.243 446.65 288.834C448.347 293.165 440.933 324.381 431.599 329.056C423.574 333.075 390.211 323.488 390.211 323.488Z" fill="#F29A41"/>
<path d="M390.211 323.458C390.211 323.458 380.728 309.867 384.435 293.805C384.435 293.805 376.038 296.693 371.513 300.786C364.873 306.8 353.35 330.499 356.566 332.836C358.799 334.444 390.211 323.458 390.211 323.458Z" fill="#F29A41"/>
<path d="M388.41 340.949C390.605 340.949 392.385 339.17 392.385 336.975C392.385 334.779 390.605 333 388.41 333C386.215 333 384.435 334.779 384.435 336.975C384.435 339.17 386.215 340.949 388.41 340.949Z" fill="#ED7801"/>
<path d="M385.596 365.406C387.792 365.406 389.571 363.627 389.571 361.432C389.571 359.237 387.792 357.457 385.596 357.457C383.401 357.457 381.621 359.237 381.621 361.432C381.621 363.627 383.401 365.406 385.596 365.406Z" fill="#ED7801"/>
<path d="M346.847 261.862C356.185 260.227 361.859 248.076 359.52 234.722C357.182 221.369 347.716 211.869 338.378 213.504C329.04 215.139 323.366 227.29 325.705 240.644C328.044 253.997 337.509 263.497 346.847 261.862Z" fill="#F29A41"/>
<path d="M438.462 228.545C442.63 195.364 423.485 165.562 395.69 161.975C367.91 158.402 337.837 182.131 337.837 215.58C337.837 260.64 355.821 289.474 382.768 284.204C408.627 279.158 434.293 261.726 438.462 228.545Z" fill="#FAC8BF"/>
<path d="M433.266 224.302C424.244 222.798 416.071 216.918 411.769 208.85C412.707 214.031 410.533 219.672 406.335 222.858C404.742 224.079 402.598 224.972 400.752 224.213C399.323 223.632 398.414 222.203 397.744 220.819C395.377 215.906 394.707 210.205 395.869 204.876C391.894 214.075 383.184 221.072 373.344 222.992C370.664 223.513 367.523 223.528 365.677 221.518C364.158 219.866 364.039 217.291 364.798 215.177C365.558 213.063 367.061 211.306 368.52 209.609C359.335 216.07 347.678 218.913 336.557 217.395C340.264 202.137 349.554 188.01 362.952 179.808C376.351 171.62 393.904 169.938 408.032 176.786C422.16 183.633 431.926 199.353 430.393 214.998" fill="#EDA19F"/>
<path d="M434.681 243.907C433.728 238.414 431.971 232.088 429.574 225.478C421.103 219.182 414.701 210.176 410.22 200.544C410.191 200.902 410.191 201.214 410.191 201.571C409.982 209.238 404.563 223.871 402.166 222.352C398.266 219.926 398.861 193.295 397.209 178.766C398.34 187.698 397.134 197.091 392.847 205.01C388.559 212.93 380.922 219.182 372.093 220.879C370.932 221.087 369.562 221.161 368.758 220.313C367.776 219.226 368.267 217.529 368.833 216.204C373.269 205.754 377.691 195.349 382.053 184.899C378.599 192.952 374.624 200.827 367.835 206.037C360.243 211.917 350.104 214.507 338.82 214.403C337.837 221.161 338.016 227.235 338.715 232.311C335.827 226.967 333.966 221.266 333.088 215.46C330.795 200.515 334.845 184.795 343.926 172.871C356.521 156.333 379.001 147.967 399.337 152.224C403.7 152.477 407.957 153.207 412.007 154.442C428.294 159.325 441.514 171.606 447.186 187.013C454.273 206.231 449.166 229.379 434.681 243.907Z" fill="#904B57"/>
<path d="M411.992 154.412C394.573 153.251 376.887 156.868 362.282 166.306C345.638 177.039 333.892 195.81 333.088 215.445C330.795 200.499 334.845 184.779 343.926 172.856C356.521 156.317 379.001 147.951 399.337 152.209C403.685 152.447 407.942 153.191 411.992 154.412Z" fill="#BD7D81"/>
<path d="M428.011 222.412C428.011 222.412 431.122 186.656 410.518 170.311C385.581 150.542 352.025 164.341 352.025 164.341C352.025 164.341 350 159.623 370.649 153.177C380.758 150.021 405.307 146.94 422.19 162.6C442.318 181.267 441.097 213.986 441.097 213.986L428.011 222.412Z" fill="#ED7801"/>
<path d="M418.87 234.009C420.642 220.567 429.693 210.667 439.087 211.903C448.481 213.139 454.675 225.032 452.903 238.475C451.131 251.917 442.08 261.816 432.686 260.58C423.292 259.36 417.098 247.451 418.87 234.009Z" fill="#F29A41"/>
<path d="M431.048 235.616C432.626 223.618 438.849 214.552 444.938 215.356C451.042 216.16 454.704 226.521 453.126 238.519C451.548 250.517 445.325 259.583 439.236 258.779C433.147 257.975 429.485 247.599 431.048 235.616Z" fill="#F8CCA0"/>
<path d="M398.876 227.102C393.263 221.49 385.418 220.984 380.252 223.261" stroke="#904B57" stroke-width="2" stroke-miterlimit="10" stroke-linecap="round"/>
<path d="M359.067 223.976C353.261 219.57 345.668 221.133 342.422 225.018" stroke="#904B57" stroke-width="2" stroke-miterlimit="10" stroke-linecap="round"/>
<path d="M363.846 239.264C363.667 243.655 364.128 248.061 365.23 252.363" stroke="#B35267" stroke-width="2" stroke-miterlimit="10" stroke-linecap="round"/>
<path d="M386.996 243.164C388.418 243.164 389.571 241.411 389.571 239.249C389.571 237.087 388.418 235.334 386.996 235.334C385.573 235.334 384.42 237.087 384.42 239.249C384.42 241.411 385.573 243.164 386.996 243.164Z" fill="#363857"/>
<path d="M350.745 243.164C352.167 243.164 353.32 241.411 353.32 239.249C353.32 237.087 352.167 235.334 350.745 235.334C349.322 235.334 348.169 237.087 348.169 239.249C348.169 241.411 349.322 243.164 350.745 243.164Z" fill="#363857"/>
<path d="M384.629 269.155C379.82 270.614 376.455 269.095 374.207 266.877C371.185 263.915 370.128 259.687 370.128 259.687L370.768 259.509L389.973 253.822C389.973 253.822 390.45 254.864 390.866 256.427C391.03 257.008 391.164 257.663 391.254 258.377C391.789 262.144 391.134 267.19 384.629 269.155Z" fill="#B35267"/>
<path d="M390.866 256.427C385.834 258.377 374.981 261.206 373.508 261.206C372.525 261.206 371.513 260.327 370.783 259.509L389.988 253.822C389.988 253.822 390.464 254.864 390.866 256.427Z" fill="#FFEDEF"/>
<path d="M384.629 269.156C379.82 270.614 376.455 269.096 374.207 266.878C379.879 260.373 386.891 258.706 391.254 258.363C391.789 262.144 391.134 267.191 384.629 269.156Z" fill="#E6919D"/>
<path d="M368.267 287.94C368.267 287.94 359.096 288.029 350.745 280.779C342.735 273.813 341.797 265.149 342.065 261.502" stroke="#363857" stroke-miterlimit="10"/>
<path d="M371.394 292.777C375.784 292.777 379.343 290.611 379.343 287.94C379.343 285.268 375.784 283.102 371.394 283.102C367.003 283.102 363.444 285.268 363.444 287.94C363.444 290.611 367.003 292.777 371.394 292.777Z" fill="#363857"/>
<path d="M0.5 503.461V512.913L513.57 514L626.968 489.587V480.477L0.5 503.461Z" fill="#1B2E34"/>
<path d="M185.731 480.64L626.968 480.477L512.766 503.639L0.5 503.461L185.731 480.64Z" fill="#ED7801"/>
<g opacity="0.949">
<path d="M233.833 483.111C224.275 484.287 213.496 485.031 202.167 485.418C191.195 485.85 179.716 485.999 168.149 485.999C170.933 476.472 177.126 467.853 185.627 462.762C188.247 461.199 191.105 459.933 194.098 459.115C200.678 457.269 207.809 457.358 214.241 459.695C223.56 463.119 232.031 473.346 233.833 483.111Z" fill="#12252B"/>
<path d="M202.167 485.419C191.195 485.851 179.716 485.999 168.149 485.999C170.933 476.472 177.126 467.853 185.627 462.762C188.247 461.199 191.105 459.934 194.098 459.115C197.864 461.854 200.41 466.201 201.616 470.786C202.866 475.549 202.762 480.566 202.167 485.419Z" fill="#597375"/>
<path d="M239.237 474.447C233.535 477.126 228.786 477.856 221.684 477.29C219.213 480.521 206.782 491 203.581 488.217C201.11 486.073 210.102 477.305 211.918 473.971C213.228 471.559 214.285 468.835 214.36 465.977C211.308 462.33 205.234 458.832 201.318 459.814C195.214 461.347 187.726 470.249 180.089 476.725C179.032 477.618 177.96 478.526 176.694 478.913C175.429 479.3 173.955 479.047 173.106 477.901C171.618 475.891 172.838 472.81 174.148 470.636C181.175 459.055 190.197 449.141 200.514 441.668C213.407 443.261 222.176 446.491 233.818 451.671C236.944 458.534 239.341 467.629 239.237 474.447Z" fill="#FAC8BF"/>
</g>
<path d="M216.667 481.919V489.005H420.15L465.111 480.192V475.727L216.667 481.919Z" fill="#1B2E34"/>
<path d="M290.122 475.771L465.111 475.727L419.823 481.979L216.667 481.919L290.122 475.771Z" fill="#324B4F"/>
<path d="M453.96 436.635C453.96 436.635 439.981 450.494 453.707 473.12C453.707 473.12 465.81 470.783 466.897 456.582C467.582 447.502 453.96 436.635 453.96 436.635Z" fill="#BF4753"/>
<path d="M462.237 459.471C461.776 460.304 455.925 461.108 451.697 461.525C450.61 461.599 446.546 461.495 445.802 461.525C446.457 466.288 443.911 469.533 441.246 470.188C437.971 471.022 434.606 469.087 432.403 467.062C429.202 469.489 426.12 470.144 423.187 468.611C420.225 467.077 417.634 462.611 417.292 458.265C416.652 461.197 416.086 463.743 416.488 465.202C417.024 467.196 424.2 477.006 419.019 478.659C416.637 479.418 408.776 470.963 407.883 467.256C406.766 462.611 406.96 457.104 409.431 450.122C404.92 455.526 403.327 458.205 402.851 460.483C401.615 466.333 402.583 476.738 398.459 476.396C393.546 476.396 392.623 461.555 394.633 455.198C396.077 450.613 405.233 436.159 410.161 434.938C414.716 433.807 439.459 434.819 444.104 435.504C446.427 435.861 448.734 436.099 450.863 436.293C456.699 436.799 461.314 436.769 461.567 436.978C464.456 440.044 463.503 456.999 462.237 459.471Z" fill="#FAC8BF"/>
<path d="M462.237 459.471C461.776 460.305 455.925 461.109 451.697 461.526C452.709 459.054 453.424 456.509 453.737 453.904C454.511 447.905 453.484 441.712 450.848 436.309C456.684 436.815 461.299 436.785 461.553 436.993C464.456 440.045 463.503 457 462.237 459.471Z" fill="#EDA19F"/>
<path d="M426.12 449.258C426.567 455.897 428.07 460.333 431.718 465.9" stroke="#B35267" stroke-miterlimit="10" stroke-linecap="round"/>
<path d="M445.251 461.301C444.268 461.033 442.884 460.11 442.139 459.41" stroke="#B35267" stroke-miterlimit="10" stroke-linecap="round"/>
<path d="M442.035 456.566C442.303 458.516 441.975 460.526 441.097 462.298" stroke="#B35267" stroke-miterlimit="10" stroke-linecap="round"/>
<path d="M489.958 323.085C486.072 314.183 474.252 305.922 463.205 299.818C462.848 300.027 462.49 300.22 462.133 300.444C455.851 304.478 450.64 310.03 445.802 315.657C445.593 315.895 445.4 316.163 445.206 316.401C448.258 336.512 452.114 362.072 453.513 371.569C456.446 391.427 478.45 429.788 478.152 433.808C477.854 437.827 453.513 435.743 453.513 435.743C463.235 449.259 461.002 463.624 453.364 472.764C453.364 472.764 516.383 476.367 523.976 466.438C531.569 456.524 495.63 336.096 489.958 323.085Z" fill="#F8CCA0"/>
<path d="M463.562 314.719C453.632 345.384 455.047 379.577 467.478 409.32" stroke="#ED7801" stroke-miterlimit="10" stroke-linecap="round"/>
<path d="M441.931 366.953C445.816 381.125 453.484 393.346 464.798 402.709" stroke="#ED7801" stroke-miterlimit="10" stroke-linecap="round"/>
<path d="M454.913 435.549C458.501 436.368 462.193 436.725 465.87 436.606" stroke="#EB6E6A" stroke-miterlimit="10" stroke-linecap="round"/>
<path d="M472.063 473.449C465.289 473.449 460.927 473.241 454.332 472.898" stroke="#EB6E6A" stroke-miterlimit="10" stroke-linecap="round"/>
<path d="M49.1823 458.088L41.0537 272.697H295.244L303.372 458.088H49.1823Z" fill="#1B2E34"/>
<path d="M294.663 458.088L286.535 272.697H295.244L303.372 458.088H294.663Z" fill="#324B4F"/>
<path d="M122.414 494.841L146.13 395.283H192.207L168.491 494.841H122.414Z" fill="#12252B"/>
<path d="M165.529 494.841L189.244 395.283H192.207L168.491 494.841H165.529Z" fill="#324B4F"/>
<path d="M194.515 484.436H100.559V494.841H194.515V484.436Z" fill="#12252B"/>
<path d="M194.515 484.436H188.455V494.841H194.515V484.436Z" fill="#324B4F"/>
</g>
<defs>
<clipPath id="clip0_270_5212">
<rect width="658" height="514" fill="white" transform="translate(0.5)"/>
</clipPath>
</defs>
</svg>
