<svg width="108" height="63" viewBox="0 0 108 63" fill="none" xmlns="http://www.w3.org/2000/svg">
<path d="M87.5645 55.0004L83.1083 47.6247V55.0004H78.626V31.6755H83.1083V44.5672L87.5383 37.4122H93.0692L86.9878 46.2378L93.1216 55.0004H87.5645Z" fill="white"/>
<path d="M67.538 55.0634C65.808 55.0634 64.2177 54.5801 62.7673 53.6135C61.3343 52.6469 60.1897 51.302 59.3334 49.5789C58.4946 47.8348 58.0752 45.8806 58.0752 43.7162C58.0752 41.5518 58.4946 39.6081 59.3334 37.885C60.1897 36.1619 61.3343 34.817 62.7673 33.8504C64.2177 32.8838 65.808 32.4005 67.538 32.4005C69.268 32.4005 70.8495 32.8838 72.2825 33.8504C73.7329 34.817 74.8688 36.1619 75.6902 37.885C76.529 39.6081 76.9484 41.5518 76.9484 43.7162C76.9484 45.8806 76.529 47.8348 75.6902 49.5789C74.8513 51.302 73.7155 52.6469 72.2825 53.6135C70.8495 54.5801 69.268 55.0634 67.538 55.0634ZM67.538 50.1463C69.0059 50.1463 70.1767 49.5579 71.0505 48.3812C71.9417 47.2044 72.3873 45.6494 72.3873 43.7162C72.3873 41.7619 71.9417 40.207 71.0505 39.0512C70.1767 37.8745 69.0059 37.2861 67.538 37.2861C66.0526 37.2861 64.8643 37.864 63.9731 39.0197C63.0993 40.1754 62.6624 41.7409 62.6624 43.7162C62.6624 45.6704 63.0993 47.2359 63.9731 48.4127C64.8643 49.5684 66.0526 50.1463 67.538 50.1463Z" fill="white"/>
<path d="M19.0445 32.3374C20.8619 32.3374 22.3036 32.9994 23.3696 34.3232C24.4531 35.6471 24.9948 37.4857 24.9948 39.8392V50.1148H20.5386V40.5642C20.5386 39.4295 20.2852 38.5574 19.7785 37.948C19.2892 37.3176 18.6076 37.0024 17.7339 37.0024C16.8601 37.0024 16.1698 37.3176 15.6631 37.948C15.1738 38.5574 14.9291 39.4295 14.9291 40.5642V50.1148H10.473V40.5642C10.473 39.4295 10.2196 38.5574 9.71278 37.948C9.22348 37.3176 8.54195 37.0024 7.66819 37.0024C6.79444 37.0024 6.10417 37.3176 5.59739 37.948C5.10809 38.5574 4.86343 39.4295 4.86343 40.5642V50.1148H0.381063V32.5266H4.86343V34.733C5.31779 33.9975 5.91194 33.4196 6.6459 32.9994C7.37985 32.5581 8.20992 32.3374 9.13611 32.3374C10.237 32.3374 11.2156 32.6211 12.0719 33.1885C12.9457 33.7558 13.6272 34.5649 14.1165 35.6155C14.6233 34.6489 15.3136 33.8609 16.1873 33.2515C17.0611 32.6421 18.0135 32.3374 19.0445 32.3374Z" fill="#352A2B"/>
<path d="M7.43228 22.9129C6.08669 22.9129 4.88091 22.6503 3.81493 22.1249C2.74894 21.5996 1.89266 20.8221 1.24608 19.7924C0.616978 18.7628 0.28495 17.523 0.25 16.0731H5.02071C5.09061 16.8926 5.32653 17.523 5.72845 17.9643C6.13038 18.3846 6.65464 18.5947 7.30122 18.5947C7.96527 18.5947 8.48952 18.4161 8.87398 18.0588C9.25843 17.6806 9.45066 17.1658 9.45066 16.5144C9.45066 15.968 9.29338 15.5162 8.97883 15.159C8.68175 14.8018 8.30604 14.5076 7.85168 14.2764C7.4148 14.0453 6.7857 13.7826 5.96437 13.4884C4.77606 13.0472 3.80619 12.6059 3.05476 12.1646C2.30333 11.7233 1.65675 11.0719 1.11502 10.2103C0.57329 9.3488 0.302425 8.22458 0.302425 6.8377C0.302425 4.77838 0.922793 3.17086 2.16353 2.01512C3.40426 0.838375 5.02071 0.25 7.01288 0.25C9.03999 0.25 10.6739 0.838375 11.9147 2.01512C13.1554 3.17086 13.8194 4.78889 13.9068 6.86922H9.05747C9.02252 6.15476 8.80408 5.59791 8.40215 5.19865C8.00022 4.77838 7.4847 4.56825 6.8556 4.56825C6.31387 4.56825 5.87699 4.74686 5.54497 5.10409C5.21294 5.44031 5.04692 5.93412 5.04692 6.58554C5.04692 7.29999 5.32653 7.85685 5.88573 8.2561C6.44493 8.65535 7.31869 9.08613 8.507 9.54842C9.69531 10.0317 10.6564 10.494 11.3904 10.9353C12.1418 11.3766 12.7884 12.0175 13.3301 12.858C13.8719 13.6986 14.1427 14.7808 14.1427 16.1046C14.1427 17.3654 13.8719 18.5106 13.3301 19.5403C12.8059 20.5699 12.037 21.3895 11.0234 21.9989C10.0099 22.6082 8.81282 22.9129 7.43228 22.9129Z" fill="white"/>
<path d="M21.5085 8.13002V30.2571H17.0261V8.13002H21.5085Z" fill="white"/>
<path d="M43.4223 12.4798C45.2397 12.4798 46.6814 13.1417 47.7474 14.4656C48.8309 15.7894 49.3726 17.6281 49.3726 19.9816V30.2571H44.9164V20.7065C44.9164 19.5718 44.663 18.6998 44.1563 18.0904C43.667 17.46 42.9854 17.1448 42.1117 17.1448C41.2379 17.1448 40.5477 17.46 40.0409 18.0904C39.5516 18.6998 39.3069 19.5718 39.3069 20.7065V30.2571H34.8508V20.7065C34.8508 19.5718 34.5974 18.6998 34.0906 18.0904C33.6013 17.46 32.9198 17.1448 32.046 17.1448C31.1722 17.1448 30.482 17.46 29.9752 18.0904C29.4859 18.6998 29.2412 19.5718 29.2412 20.7065V30.2571H24.7589V12.6689H29.2412V14.8753C29.6956 14.1398 30.2898 13.562 31.0237 13.1417C31.7577 12.7004 32.5877 12.4798 33.5139 12.4798C34.6148 12.4798 35.5935 12.7635 36.4497 13.3308C37.3235 13.8982 38.005 14.7072 38.4943 15.7579C39.0011 14.7913 39.6914 14.0033 40.5651 13.3939C41.4389 12.7845 42.3913 12.4798 43.4223 12.4798Z" fill="#352A2B"/>
<path d="M56.3714 15.0014C56.8083 14.1819 57.4112 13.52 58.1801 13.0156C58.949 12.5113 59.8489 12.2592 60.88 12.2592C62.0858 12.2592 63.178 12.6269 64.1566 13.3624C65.1352 14.0978 65.9041 15.1485 66.4633 16.5144C67.04 17.8802 67.3283 19.4667 67.3283 21.2739C67.3283 23.081 67.04 24.6781 66.4633 26.0649C65.9041 27.4308 65.1352 28.492 64.1566 29.2485C63.178 29.9839 62.0858 30.3517 60.88 30.3517C59.8664 30.3517 58.9664 30.0995 58.1801 29.5952C57.4112 29.0909 56.8083 28.4395 56.3714 27.641V38.4839H51.889V12.5113H56.3714V15.0014ZM62.7673 21.2739C62.7673 19.929 62.4527 18.8784 61.8236 18.1219C61.212 17.3444 60.4518 16.9556 59.5431 16.9556C58.6519 16.9556 57.8917 17.3444 57.2626 18.1219C56.651 18.8994 56.3452 19.9606 56.3452 21.3054C56.3452 22.6503 56.651 23.7114 57.2626 24.4889C57.8917 25.2664 58.6519 25.6552 59.5431 25.6552C60.4344 25.6552 61.1945 25.2664 61.8236 24.4889C62.4527 23.6904 62.7673 22.6188 62.7673 21.2739Z" fill="#352A2B"/>
<path d="M83.7637 20.8641C83.7637 21.3685 83.7374 21.8938 83.685 22.4401H73.5407C73.6106 23.5328 73.8989 24.3734 74.4057 24.9617C74.93 25.5291 75.5678 25.8128 76.3193 25.8128C77.4377 25.8128 78.2153 25.2454 78.6522 24.1107H83.4229C83.1782 25.2664 82.7326 26.3066 82.086 27.2312C81.4569 28.1558 80.6618 28.8807 79.7007 29.4061C78.7396 29.9314 77.6648 30.1941 76.4765 30.1941C75.0436 30.1941 73.7679 29.8263 72.6495 29.0909C71.5311 28.3554 70.6573 27.3047 70.0282 25.9389C69.3991 24.573 69.0845 22.976 69.0845 21.1478C69.0845 19.3196 69.3904 17.7226 70.002 16.3568C70.6311 14.9909 71.5049 13.9402 72.6233 13.2048C73.7417 12.4693 75.0261 12.1015 76.4765 12.1015C77.892 12.1015 79.1502 12.4588 80.2512 13.1732C81.3521 13.8877 82.2084 14.9068 82.82 16.2307C83.4491 17.5545 83.7637 19.099 83.7637 20.8641ZM79.1764 19.4457C79.1764 18.5211 78.9143 17.7857 78.3901 17.2393C77.8658 16.693 77.2105 16.4198 76.4241 16.4198C75.6727 16.4198 75.0348 16.6825 74.5106 17.2078C74.0038 17.7331 73.6892 18.4791 73.5669 19.4457H79.1764Z" fill="#352A2B"/>
<path d="M90.0547 6.93226V30.2571H85.5723V6.93226H90.0547Z" fill="#352A2B"/>
<path d="M50.7094 32.3374C52.422 32.3374 53.7851 33.0099 54.7986 34.3547C55.8297 35.6786 56.3452 37.5067 56.3452 39.8392V50.1148H51.889V40.5642C51.889 39.3874 51.6356 38.4733 51.1288 37.8219C50.6221 37.1705 49.9405 36.8448 49.0843 36.8448C48.228 36.8448 47.5464 37.1705 47.0397 37.8219C46.5329 38.4733 46.2795 39.3874 46.2795 40.5642V50.1148H41.7971V32.5266H46.2795V34.859C46.7339 34.0816 47.3455 33.4722 48.1144 33.0309C48.8833 32.5686 49.7483 32.3374 50.7094 32.3374Z" fill="#352A2B"/>
<path d="M105.761 40.8809C105.986 41.3063 106.199 41.7663 106.399 42.261L97.8428 48.8145C98.3899 49.691 99.0087 50.2136 99.699 50.3825C100.395 50.5223 101.059 50.3495 101.693 49.8641C102.636 49.1415 103.039 48.1606 102.9 46.9213L106.924 43.8393C107.234 44.9721 107.323 46.1373 107.191 47.3348C107.073 48.5211 106.726 49.6462 106.151 50.7102C105.575 51.7742 104.786 52.69 103.783 53.4577C102.575 54.3835 101.334 54.8975 100.063 54.9997C98.7907 55.1019 97.5843 54.7802 96.4435 54.0346C95.3026 53.2891 94.3238 52.1453 93.507 50.6034C92.6902 49.0615 92.2346 47.517 92.1402 45.9698C92.0605 44.4114 92.328 42.9608 92.9427 41.6179C93.5574 40.2751 94.4764 39.1352 95.6997 38.1981C96.8936 37.2837 98.1144 36.7721 99.3621 36.6635C100.61 36.5548 101.787 36.8612 102.895 37.5826C104.017 38.2928 104.972 39.3922 105.761 40.8809ZM101.258 42.6481C100.845 41.8683 100.295 41.4173 99.6091 41.2952C98.9229 41.1731 98.2481 41.3661 97.5849 41.8741C96.9511 42.3596 96.5305 42.9932 96.323 43.7749C96.1303 44.5454 96.1983 45.3778 96.527 46.2721L101.258 42.6481Z" fill="white"/>
<path d="M40.7748 40.8794C40.7748 41.3837 40.7486 41.909 40.6962 42.4554H30.5519C30.6218 43.5481 30.9101 44.3886 31.4169 44.977C31.9412 45.5444 32.579 45.828 33.3304 45.828C34.4488 45.828 35.2265 45.2607 35.6634 44.126H40.4341C40.1894 45.2817 39.7438 46.3219 39.0972 47.2464C38.4681 48.171 37.673 48.896 36.7119 49.4213C35.7507 49.9467 34.676 50.2093 33.4877 50.2093C32.0547 50.2093 30.7791 49.8416 29.6606 49.1061C28.5422 48.3707 27.6685 47.32 27.0394 45.9541C26.4103 44.5882 26.0957 42.9912 26.0957 41.1631C26.0957 39.3349 26.4015 37.7379 27.0132 36.372C27.6423 35.0061 28.516 33.9555 29.6344 33.22C30.7528 32.4845 32.0373 32.1168 33.4877 32.1168C34.9032 32.1168 36.1614 32.474 37.2623 33.1885C38.3633 33.9029 39.2195 34.9221 39.8312 36.2459C40.4603 37.5698 40.7748 39.1143 40.7748 40.8794ZM36.1876 39.461C36.1876 38.5364 35.9255 37.8009 35.4012 37.2546C34.877 36.7082 34.2217 36.4351 33.4353 36.4351C32.6838 36.4351 32.046 36.6977 31.5217 37.2231C31.015 37.7484 30.7004 38.4944 30.5781 39.461H36.1876Z" fill="#352A2B"/>
<path fill-rule="evenodd" clip-rule="evenodd" d="M21.4256 1.49559C21.4655 1.51474 21.4997 1.54784 21.5239 1.59061C21.548 1.63338 21.5609 1.68386 21.5609 1.73553V4.72176C21.5609 4.77344 21.548 4.82392 21.5239 4.86669C21.4997 4.90946 21.4655 4.94256 21.4256 4.96171L19.347 5.96149C19.2958 5.98614 19.2386 5.98614 19.1873 5.96149L17.1087 4.96171C17.0689 4.9425 17.0347 4.90938 17.0106 4.86662C16.9866 4.82385 16.9737 4.7734 16.9737 4.72176V1.73553C16.9737 1.68389 16.9866 1.63344 17.0106 1.59068C17.0347 1.54791 17.0689 1.51479 17.1087 1.49559L19.1076 0.534075L19.1088 0.53373L19.1873 0.495808C19.2387 0.471066 19.296 0.471066 19.3473 0.495808L19.4259 0.53373L19.427 0.534075L21.4256 1.49559ZM21.0317 1.67727L19.2673 2.52605L17.503 1.67727L17.2604 1.79414V1.93204L19.124 2.82839V5.55951L19.2673 5.62846L19.4107 5.55951V2.82874L21.2742 1.93238V1.79448L21.0317 1.67761V1.67727Z" fill="white"/>
<path d="M55.3753 38.4839H56.3714V50.1148H55.3753V38.4839Z" fill="#352A2B"/>
<path d="M58.1277 57.522H76.8697V62.25H58.1277V57.522Z" fill="white"/>
<path d="M0.328651 25.5291H14.0903V30.2571H0.328651V25.5291Z" fill="white"/>
</svg>
