<svg width="120" height="58" viewBox="0 0 120 58" fill="none" xmlns="http://www.w3.org/2000/svg">
<path d="M97.9228 51.2181L92.9252 44.3183V51.2181H87.8983V29.3981H92.9252V41.4581L97.8934 34.7646H104.096L97.2761 43.0208L104.155 51.2181H97.9228Z" fill="#C9111B"/>
<path d="M75.4632 51.2771C73.5229 51.2771 71.7395 50.8249 70.1128 49.9207C68.5058 49.0164 67.2221 47.7583 66.2618 46.1464C65.3211 44.5148 64.8507 42.6867 64.8507 40.6619C64.8507 38.6372 65.3211 36.8188 66.2618 35.2069C67.2221 33.595 68.5058 32.3369 70.1128 31.4326C71.7395 30.5284 73.5229 30.0763 75.4632 30.0763C77.4034 30.0763 79.1771 30.5284 80.7841 31.4326C82.4108 32.3369 83.6847 33.595 84.6058 35.2069C85.5465 36.8188 86.0169 38.6372 86.0169 40.6619C86.0169 42.6867 85.5465 44.5148 84.6058 46.1464C83.6651 47.7583 82.3912 49.0164 80.7841 49.9207C79.1771 50.8249 77.4034 51.2771 75.4632 51.2771ZM75.4632 46.6772C77.1094 46.6772 78.4225 46.1268 79.4024 45.0259C80.4019 43.9251 80.9017 42.4704 80.9017 40.6619C80.9017 38.8338 80.4019 37.3791 79.4024 36.2979C78.4225 35.1971 77.1094 34.6467 75.4632 34.6467C73.7973 34.6467 72.4646 35.1873 71.4651 36.2684C70.4852 37.3496 69.9953 38.8141 69.9953 40.6619C69.9953 42.4901 70.4852 43.9546 71.4651 45.0554C72.4646 46.1366 73.7973 46.6772 75.4632 46.6772Z" fill="#C9111B"/>
<path d="M21.078 30.0173C23.1162 30.0173 24.733 30.6365 25.9285 31.8749C27.1436 33.1134 27.7512 34.8334 27.7512 37.0351V46.6477H22.7536V37.7133C22.7536 36.6518 22.4694 35.836 21.9011 35.2659C21.3523 34.6762 20.588 34.3813 19.6081 34.3813C18.6282 34.3813 17.854 34.6762 17.2857 35.2659C16.7369 35.836 16.4626 36.6518 16.4626 37.7133V46.6477H11.465V37.7133C11.465 36.6518 11.1808 35.836 10.6125 35.2659C10.0637 34.6762 9.29938 34.3813 8.31947 34.3813C7.33956 34.3813 6.56542 34.6762 5.99707 35.2659C5.44832 35.836 5.17395 36.6518 5.17395 37.7133V46.6477H0.146987V30.1942H5.17395V32.2583C5.6835 31.5702 6.34984 31.0297 7.17297 30.6365C7.9961 30.2237 8.92702 30.0173 9.96573 30.0173C11.2004 30.0173 12.2979 30.2827 13.2582 30.8134C14.2382 31.3442 15.0025 32.101 15.5512 33.0839C16.1196 32.1796 16.8937 31.4425 17.8736 30.8724C18.8535 30.3023 19.9217 30.0173 21.078 30.0173Z" fill="#352A2B"/>
<path d="M8.05489 21.2008C6.54583 21.2008 5.19354 20.9551 3.99805 20.4637C2.80255 19.9722 1.84224 19.2449 1.1171 18.2816C0.411564 17.3184 0.0391966 16.1586 0 14.8022H5.35033C5.42872 15.5689 5.6933 16.1586 6.14406 16.5714C6.59482 16.9646 7.18277 17.1612 7.90791 17.1612C8.65264 17.1612 9.24059 16.9941 9.67175 16.6599C10.1029 16.306 10.3185 15.8244 10.3185 15.215C10.3185 14.7039 10.1421 14.2813 9.78934 13.9471C9.45617 13.6129 9.03481 13.3377 8.52525 13.1215C8.03529 12.9053 7.32976 12.6595 6.40864 12.3843C5.07595 11.9715 3.98825 11.5587 3.14552 11.1459C2.3028 10.7331 1.57766 10.1237 0.970115 9.31774C0.362568 8.51178 0.0587948 7.46009 0.0587948 6.16268C0.0587948 4.23623 0.754534 2.73242 2.14601 1.65125C3.53749 0.550415 5.35033 0 7.58453 0C9.85793 0 11.6904 0.550415 13.0819 1.65125C14.4733 2.73242 15.2181 4.24606 15.3161 6.19217H9.87753C9.83834 5.52381 9.59336 5.00288 9.1426 4.62938C8.69184 4.23623 8.11369 4.03965 7.40815 4.03965C6.8006 4.03965 6.31065 4.20674 5.93828 4.54093C5.56591 4.85545 5.37973 5.3174 5.37973 5.92679C5.37973 6.59515 5.6933 7.11608 6.32045 7.48958C6.94759 7.86307 7.9275 8.26606 9.26019 8.69853C10.5929 9.15065 11.6708 9.58312 12.4939 9.99593C13.3366 10.4087 14.0618 11.0083 14.6693 11.7946C15.2769 12.5809 15.5806 13.5933 15.5806 14.8317C15.5806 16.0112 15.2769 17.0825 14.6693 18.0458C14.0814 19.009 13.219 19.7756 12.0823 20.3457C10.9456 20.9158 9.60316 21.2008 8.05489 21.2008Z" fill="#C9111B"/>
<path d="M23.8413 7.37163V28.0712H18.8143V7.37163H23.8413Z" fill="#C9111B"/>
<path d="M48.4175 11.4408C50.4558 11.4408 52.0726 12.06 53.2681 13.2984C54.4832 14.5369 55.0908 16.2569 55.0908 18.4586V28.0712H50.0932V19.1368C50.0932 18.0752 49.809 17.2594 49.2407 16.6894C48.6919 16.0996 47.9276 15.8048 46.9477 15.8048C45.9678 15.8048 45.1936 16.0996 44.6253 16.6894C44.0765 17.2594 43.8022 18.0752 43.8022 19.1368V28.0712H38.8046V19.1368C38.8046 18.0752 38.5204 17.2594 37.9521 16.6894C37.4033 16.0996 36.639 15.8048 35.6591 15.8048C34.6792 15.8048 33.905 16.0996 33.3367 16.6894C32.7879 17.2594 32.5135 18.0752 32.5135 19.1368V28.0712H27.4866V11.6177H32.5135V13.6817C33.0231 12.9937 33.6894 12.4531 34.5126 12.06C35.3357 11.6472 36.2666 11.4408 37.3053 11.4408C38.54 11.4408 39.6375 11.7062 40.5978 12.2369C41.5778 12.7677 42.3421 13.5245 42.8908 14.5074C43.4592 13.6031 44.2333 12.866 45.2132 12.2959C46.1931 11.7258 47.2612 11.4408 48.4175 11.4408Z" fill="#352A2B"/>
<path d="M62.9399 13.7997C63.4298 13.033 64.106 12.4138 64.9683 11.942C65.8306 11.4703 66.8399 11.2344 67.9962 11.2344C69.3485 11.2344 70.5734 11.5784 71.6709 12.2664C72.7684 12.9544 73.6307 13.9373 74.2579 15.215C74.9046 16.4928 75.228 17.977 75.228 19.6675C75.228 21.3581 74.9046 22.8521 74.2579 24.1495C73.6307 25.4272 72.7684 26.4199 71.6709 27.1276C70.5734 27.8156 69.3485 28.1596 67.9962 28.1596C66.8595 28.1596 65.8502 27.9237 64.9683 27.452C64.106 26.9802 63.4298 26.3708 62.9399 25.6238V35.7672H57.9129V11.4703H62.9399V13.7997ZM70.1128 19.6675C70.1128 18.4094 69.7601 17.4265 69.0545 16.7189C68.3686 15.9915 67.5161 15.6279 66.497 15.6279C65.4975 15.6279 64.6449 15.9915 63.9394 16.7189C63.2534 17.4462 62.9105 18.4389 62.9105 19.697C62.9105 20.9551 63.2534 21.9478 63.9394 22.6751C64.6449 23.4025 65.4975 23.7661 66.497 23.7661C67.4965 23.7661 68.349 23.4025 69.0545 22.6751C69.7601 21.9281 70.1128 20.9256 70.1128 19.6675Z" fill="#352A2B"/>
<path d="M93.6602 19.2842C93.6602 19.756 93.6308 20.2474 93.572 20.7585H82.1952C82.2736 21.7807 82.5969 22.567 83.1653 23.1174C83.7532 23.6482 84.4686 23.9136 85.3113 23.9136C86.5656 23.9136 87.4377 23.3828 87.9277 22.3213H93.278C93.0036 23.4025 92.5039 24.3755 91.7787 25.2405C91.0732 26.1054 90.1815 26.7836 89.1036 27.275C88.0257 27.7665 86.8204 28.0122 85.4877 28.0122C83.8806 28.0122 82.45 27.6682 81.1957 26.9802C79.9414 26.2922 78.9615 25.3093 78.2559 24.0315C77.5504 22.7538 77.1976 21.2598 77.1976 19.5496C77.1976 17.8393 77.5406 16.3454 78.2265 15.0676C78.9321 13.7899 79.912 12.807 81.1663 12.119C82.4206 11.4309 83.861 11.0869 85.4877 11.0869C87.0751 11.0869 88.4862 11.4211 89.7209 12.0895C90.9556 12.7578 91.9159 13.7112 92.6019 14.9497C93.3074 16.1881 93.6602 17.6329 93.6602 19.2842ZM88.5156 17.9573C88.5156 17.0924 88.2217 16.4043 87.6337 15.8932C87.0458 15.3821 86.3108 15.1266 85.4289 15.1266C84.5862 15.1266 83.8708 15.3723 83.2829 15.8638C82.7145 16.3552 82.3618 17.053 82.2246 17.9573H88.5156Z" fill="#352A2B"/>
<path d="M100.716 6.25114V28.0712H95.6886V6.25114H100.716Z" fill="#352A2B"/>
<path d="M56.59 30.0173C58.5107 30.0173 60.0393 30.6463 61.176 31.9044C62.3323 33.1429 62.9105 34.8531 62.9105 37.0351V46.6477H57.9129V37.7133C57.9129 36.6124 57.6287 35.7573 57.0604 35.1479C56.492 34.5386 55.7277 34.2339 54.7674 34.2339C53.8071 34.2339 53.0427 34.5386 52.4744 35.1479C51.906 35.7573 51.6219 36.6124 51.6219 37.7133V46.6477H46.5949V30.1942H51.6219V32.3762C52.1314 31.6489 52.8174 31.0788 53.6797 30.666C54.542 30.2335 55.5121 30.0173 56.59 30.0173Z" fill="#352A2B"/>
<path d="M118.33 38.0096C118.583 38.4075 118.821 38.8378 119.045 39.3006L109.45 45.4314C110.063 46.2513 110.757 46.7402 111.532 46.8981C112.312 47.029 113.057 46.8673 113.768 46.4132C114.826 45.7373 115.277 44.8196 115.122 43.6603L119.634 40.7771C119.982 41.8368 120.082 42.9268 119.933 44.0471C119.802 45.1568 119.413 46.2093 118.767 47.2047C118.121 48.2001 117.236 49.0568 116.112 49.775C114.757 50.641 113.366 51.1218 111.939 51.2174C110.513 51.3131 109.16 51.0121 107.881 50.3147C106.601 49.6172 105.503 48.5472 104.587 47.1048C103.671 45.6624 103.16 44.2175 103.054 42.7702C102.965 41.3123 103.265 39.9552 103.954 38.699C104.644 37.4428 105.674 36.3764 107.046 35.4999C108.385 34.6444 109.754 34.1659 111.154 34.0642C112.553 33.9626 113.874 34.2492 115.116 34.9241C116.374 35.5884 117.446 36.6169 118.33 38.0096ZM113.28 39.6628C112.817 38.9333 112.2 38.5114 111.431 38.3972C110.661 38.2829 109.904 38.4634 109.161 38.9387C108.45 39.3928 107.978 39.9855 107.745 40.7169C107.529 41.4376 107.606 42.2163 107.974 43.0529L113.28 39.6628Z" fill="#C9111B"/>
<path d="M45.4484 38.0081C45.4484 38.4799 45.419 38.9714 45.3602 39.4825H33.9834C34.0618 40.5047 34.3852 41.291 34.9535 41.8414C35.5415 42.3721 36.2568 42.6375 37.0995 42.6375C38.3538 42.6375 39.226 42.1068 39.7159 41.0452H45.0662C44.7919 42.1264 44.2921 43.0995 43.567 43.9644C42.8614 44.8294 41.9697 45.5075 40.8918 45.999C39.8139 46.4904 38.6086 46.7361 37.2759 46.7361C35.6689 46.7361 34.2382 46.3921 32.9839 45.7041C31.7296 45.0161 30.7497 44.0332 30.0442 42.7555C29.3386 41.4777 28.9859 39.9837 28.9859 38.2735C28.9859 36.5633 29.3288 35.0693 30.0148 33.7916C30.7203 32.5138 31.7002 31.5309 32.9545 30.8429C34.2088 30.1549 35.6493 29.8109 37.2759 29.8109C38.8634 29.8109 40.2745 30.1451 41.5092 30.8134C42.7438 31.4818 43.7042 32.4352 44.3901 33.6736C45.0956 34.912 45.4484 36.3569 45.4484 38.0081ZM40.3039 36.6812C40.3039 35.8163 40.0099 35.1283 39.4219 34.6172C38.834 34.1061 38.0991 33.8505 37.2171 33.8505C36.3744 33.8505 35.6591 34.0963 35.0711 34.5877C34.5028 35.0791 34.15 35.777 34.0128 36.6812H40.3039Z" fill="#352A2B"/>
<path fill-rule="evenodd" clip-rule="evenodd" d="M23.7483 1.16523C23.7931 1.18314 23.8315 1.21411 23.8585 1.25412C23.8856 1.29413 23.9001 1.34135 23.9001 1.38969V4.18326C23.9001 4.23161 23.8856 4.27883 23.8585 4.31884C23.8315 4.35885 23.7931 4.38981 23.7483 4.40773L21.4172 5.34301C21.3597 5.36606 21.2956 5.36606 21.2381 5.34301L18.907 4.40773C18.8623 4.38976 18.824 4.35878 18.797 4.31877C18.77 4.27876 18.7556 4.23157 18.7556 4.18326V1.38969C18.7556 1.34139 18.77 1.29419 18.797 1.25418C18.824 1.21418 18.8623 1.18319 18.907 1.16523L21.1487 0.265748L21.15 0.265425L21.2381 0.229949C21.2957 0.206804 21.36 0.206804 21.4175 0.229949L21.5056 0.265425L21.5069 0.265748L23.7483 1.16523ZM23.3065 1.33519L21.3278 2.1292L19.3491 1.33519L19.0771 1.44452V1.57352L21.1671 2.41204V4.96696L21.3278 5.03146L21.4886 4.96696V2.41237L23.5786 1.57384V1.44484L23.3065 1.33551V1.33519Z" fill="#C9111B"/>
<path d="M61.8228 35.7672H62.9399V46.6477H61.8228V35.7672Z" fill="#352A2B"/>
<path d="M64.9095 53.577H85.9287V58H64.9095V53.577Z" fill="#C9111B"/>
<path d="M0.0882066 23.6482H15.5219V28.0712H0.0882066V23.6482Z" fill="#C9111B"/>
</svg>
