<svg width="512" height="482" viewBox="0 0 512 482" fill="none" xmlns="http://www.w3.org/2000/svg">
<path d="M280.516 381.396H162.821V472.172H280.516V381.396Z" fill="#EBEBEB"/>
<path d="M251.034 471.54C250.875 471.54 250.74 451.3 250.74 426.338C250.74 401.375 250.875 381.135 251.034 381.135C251.192 381.135 251.327 401.375 251.327 426.338C251.327 451.3 251.192 471.54 251.034 471.54Z" fill="#E0E0E0"/>
<path d="M270.537 451.516H261.52V461.72H270.537V451.516Z" fill="#FAFAFA"/>
<path d="M212.104 381.633H198.736V401.002H212.104V381.633Z" fill="#E0E0E0"/>
<path d="M212.104 452.532H198.736V471.901H212.104V452.532Z" fill="#E0E0E0"/>
<path d="M494.085 358.636H345.675V473.099H494.085V358.636Z" fill="#EBEBEB"/>
<path d="M456.895 472.285C456.737 472.285 456.602 446.779 456.602 415.307C456.602 383.836 456.737 358.33 456.895 358.33C457.054 358.33 457.189 383.836 457.189 415.307C457.189 446.779 457.065 472.285 456.895 472.285Z" fill="#E0E0E0"/>
<path d="M481.496 447.04H470.117V459.9H481.496V447.04Z" fill="#FAFAFA"/>
<path d="M407.806 358.93H390.945V383.351H407.806V358.93Z" fill="#E0E0E0"/>
<path d="M407.806 448.328H390.945V472.748H407.806V448.328Z" fill="#E0E0E0"/>
<path d="M66.1459 362.004C72.1577 358.908 79.2319 358.501 85.8992 359.608C89.4814 360.196 93.2106 361.27 95.6515 363.959C98.0924 366.649 98.5444 371.384 95.7532 373.7C94.0807 375.079 91.7641 375.282 89.5944 375.26C84.3736 375.192 78.5877 374.276 74.4178 377.418C72.0334 379.215 70.4514 382.187 67.6375 383.068C64.8237 383.95 61.7161 382.289 60.247 379.78C58.8879 377.164 58.5885 374.124 59.4108 371.293C59.7435 369.331 60.5243 367.472 61.6924 365.861C62.8605 364.25 64.3845 362.93 66.1459 362.004Z" fill="#EBEBEB"/>
<path d="M52.3823 335.437C56.0549 340.681 63.1969 338.952 66.5079 335.742C69.819 332.533 71.2202 327.9 72.4859 323.481C75.4014 313.367 78.3282 302.756 76.1698 292.462C75.6501 289.34 74.2774 286.422 72.2034 284.031C71.1533 282.857 69.8147 281.978 68.3202 281.48C66.8256 280.983 65.227 280.884 63.6828 281.195C60.0779 282.144 57.8404 285.715 56.2244 289.026C51.46 298.924 48.9659 309.762 48.9243 320.747C48.9243 325.866 49.5006 331.222 52.3823 335.437" fill="#EBEBEB"/>
<path d="M42.3022 342.962C46.2913 338.227 47.0484 331.334 45.2742 325.401C43.5001 319.468 39.4884 314.428 34.8665 310.304C29.4304 305.468 23.105 301.738 16.2432 299.32C13.5838 298.245 10.7233 297.759 7.85825 297.896C6.42904 297.977 5.04145 298.407 3.81636 299.148C2.59126 299.888 1.56581 300.917 0.82934 302.145C-1.13695 305.885 0.750236 310.417 2.78433 314.123C6.36637 320.645 10.4546 326.876 15.0115 332.758C18.6841 337.481 22.9218 342.149 28.4704 344.284C34.0189 346.42 39.8726 346.171 42.8333 342.295" fill="#EBEBEB"/>
<path d="M52.1333 414.563C52.3295 413.786 52.4431 412.991 52.4723 412.19C52.6418 410.45 52.8452 408.269 53.1051 405.681C53.429 402.479 53.9156 399.296 54.5629 396.143C55.412 392.289 56.5722 388.51 58.0321 384.843C59.464 381.2 61.4002 377.776 63.7841 374.672C65.733 372.148 68.2138 370.084 71.0503 368.626C72.9794 367.676 75.0464 367.035 77.1752 366.728C77.9765 366.697 78.7721 366.579 79.5483 366.378C78.7484 366.289 77.9412 366.289 77.1413 366.378C74.9307 366.544 72.768 367.107 70.7565 368.039C67.7611 369.452 65.1346 371.541 63.0835 374.141C60.5885 377.286 58.5774 380.787 57.1168 384.526C55.6586 388.237 54.5243 392.067 53.7266 395.974C53.1119 399.166 52.6855 402.393 52.4497 405.636C52.2463 408.404 52.1672 410.642 52.1333 412.19C52.05 412.979 52.05 413.774 52.1333 414.563V414.563Z" fill="#E0E0E0"/>
<path d="M52.5855 409.568C52.6526 409.195 52.6754 408.816 52.6533 408.438C52.6533 407.602 52.6533 406.551 52.6533 405.274C52.6533 402.528 52.6533 398.55 52.7889 393.646C53.0376 383.837 53.919 373.305 55.5124 358.399C57.0605 344.398 59.1285 328.114 61.3208 317.525C61.7841 315.118 62.2588 312.949 62.7108 311.05C63.1628 309.152 63.4905 307.502 63.8408 306.18C64.1911 304.857 64.3833 303.92 64.5867 303.106C64.6972 302.739 64.7618 302.359 64.7788 301.976C64.6085 302.305 64.4795 302.654 64.3946 303.015C64.146 303.818 63.8408 304.812 63.4679 306.044C63.095 307.276 62.643 308.993 62.1684 310.881C61.6937 312.768 61.1513 314.938 60.6428 317.345C57.9281 329.868 55.8873 342.527 54.5292 355.269C52.9019 370.186 52.1674 383.769 52.0996 393.6C52.0996 398.516 52.0996 402.505 52.2691 405.251C52.3482 406.528 52.416 407.579 52.4612 408.404C52.4557 408.796 52.4975 409.186 52.5855 409.568V409.568Z" fill="#E0E0E0"/>
<path d="M52.6536 383.374C52.7397 382.272 52.7397 381.165 52.6536 380.063C52.5293 377.938 52.2355 374.876 51.6366 371.113C50.8974 366.713 49.9089 362.359 48.6758 358.072C47.2507 352.795 45.426 347.635 43.2177 342.635C39.4368 333.423 34.0108 324.976 27.2049 317.706C26.024 316.458 24.7632 315.288 23.4305 314.203C22.8542 313.706 22.3004 313.22 21.8258 312.836L20.4246 311.83C19.5451 311.159 18.6115 310.562 17.6333 310.045C17.4751 310.259 21.5772 312.678 26.7528 318.181C33.3363 325.518 38.618 333.926 42.3701 343.042C44.5404 348.009 46.3715 353.117 47.8509 358.332C49.0935 362.579 50.1232 366.887 50.9359 371.237C51.614 374.955 52.066 378.017 52.2468 380.097C52.2951 381.198 52.4311 382.294 52.6536 383.374V383.374Z" fill="#E0E0E0"/>
<path d="M25.5767 425.592L28.1984 461.562H74.4061L77.0279 425.592H25.5767Z" fill="#EBEBEB"/>
<path d="M82.5315 411.421H21.1133V425.592H82.5315V411.421Z" fill="#EBEBEB"/>
<path d="M21.1133 460.183V464.104H24.0062H81.5258V460.183H21.1133Z" fill="#E0E0E0"/>
<path d="M26.8315 470.591L24.0063 463.675H79.3223L76.0226 470.591H26.8315Z" fill="#E0E0E0"/>
<path d="M76.1701 437.345C76.1124 437.466 76.0403 437.58 75.9553 437.684C75.7745 437.921 75.5372 438.226 75.266 438.599L72.5765 441.989L72.4522 442.148L72.3392 441.989L65.7284 432.847H66.1013L59.5922 442.057L59.3888 442.351L59.1628 442.08L51.4445 432.892H51.8853L51.4671 433.435L44.5625 442.08L44.3252 442.374L44.1218 442.069L37.6014 432.859H37.9856L29.9623 441.989L29.8267 442.159L29.7137 441.967L27.205 437.808C26.9337 437.356 26.7303 436.983 26.5608 436.678C26.4756 436.552 26.4073 436.415 26.3574 436.271C26.4632 436.38 26.5543 436.501 26.6286 436.633L27.3406 437.706L29.9736 441.854H29.725L37.6353 432.61L37.8274 432.373L38.0082 432.621L44.5851 441.797H44.1557L51.0377 433.13C51.1846 432.949 51.3315 432.768 51.4558 432.599L51.6819 432.316L51.9079 432.587L59.6035 441.797H59.1741L65.751 432.633L65.9431 432.361L66.1239 432.633C68.7343 436.35 70.9492 439.503 72.5991 441.876H72.3618L75.1643 438.486C75.4694 438.136 75.718 437.853 75.9101 437.616C75.99 437.519 76.0769 437.429 76.1701 437.345V437.345Z" fill="#F5F5F5"/>
<path d="M77.6735 425.354C77.6735 425.512 66.0905 425.648 51.818 425.648C37.5454 425.648 25.9624 425.512 25.9624 425.354C25.9624 425.196 37.5341 425.072 51.818 425.072C66.1018 425.072 77.6735 425.196 77.6735 425.354Z" fill="#F5F5F5"/>
<path d="M401.728 17.5774L392.258 17.6287L392.513 64.7511L401.983 64.6998L401.728 17.5774Z" fill="#E0E0E0"/>
<path d="M334.741 17.7023L310.219 17.835L310.36 43.8483L334.882 43.7157L334.741 17.7023Z" fill="#EBEBEB"/>
<path d="M359.148 17.5697L334.626 17.7024L334.767 43.7158L359.289 43.5831L359.148 17.5697Z" fill="#F5F5F5"/>
<path d="M310.249 25.0339C326.551 25.1695 342.862 25.0941 359.18 24.8079C359.249 24.8079 359.315 24.7805 359.364 24.7317C359.412 24.683 359.44 24.6169 359.44 24.5479C359.44 24.479 359.412 24.4129 359.364 24.3642C359.315 24.3154 359.249 24.288 359.18 24.288C342.884 24.1976 326.544 24.288 310.249 24.5931C310.199 24.6045 310.154 24.6325 310.122 24.6726C310.09 24.7126 310.073 24.7623 310.073 24.8135C310.073 24.8647 310.09 24.9144 310.122 24.9544C310.154 24.9945 310.199 25.0225 310.249 25.0339V25.0339Z" fill="#E0E0E0"/>
<path d="M339.489 43.2831L294.932 43.5242L295.047 64.7236L339.604 64.4825L339.489 43.2831Z" fill="#EBEBEB"/>
<path d="M383.831 43.0431L339.274 43.2842L339.389 64.4836L383.946 64.2425L383.831 43.0431Z" fill="#F5F5F5"/>
<path d="M294.958 49.443C324.554 49.7707 354.252 49.443 383.86 49.0023C383.928 49.0023 383.995 48.9749 384.043 48.9261C384.092 48.8774 384.119 48.8113 384.119 48.7424C384.119 48.6734 384.092 48.6073 384.043 48.5586C383.995 48.5098 383.928 48.4825 383.86 48.4825C354.263 48.3242 324.554 48.3355 294.958 48.991C294.899 48.991 294.841 49.0148 294.799 49.0572C294.756 49.0996 294.732 49.157 294.732 49.217C294.732 49.2769 294.756 49.3344 294.799 49.3768C294.841 49.4192 294.899 49.443 294.958 49.443V49.443Z" fill="#E0E0E0"/>
<path d="M450.917 64.7434H278.291V72.3373H450.917V64.7434Z" fill="#E0E0E0"/>
<path d="M313.559 68.3945H306.553V94.3066H313.559V68.3945Z" fill="#E0E0E0"/>
<path d="M418.168 68.3945H411.162V94.3066H418.168V68.3945Z" fill="#E0E0E0"/>
<path d="M410.967 -0.000211073L401.498 0.0510254L401.848 64.8585L411.318 64.8072L410.967 -0.000211073Z" fill="#EBEBEB"/>
<path d="M425.757 12.0686L411.044 12.1482L411.329 64.6722L426.042 64.5926L425.757 12.0686Z" fill="#F5F5F5"/>
<path d="M425.661 22.2088C420.77 22.5542 415.861 22.5542 410.97 22.2088C415.862 21.8783 420.77 21.8783 425.661 22.2088V22.2088Z" fill="#E0E0E0"/>
<path d="M425.661 20.0618C423.217 20.3092 420.759 20.3922 418.304 20.3104C415.849 20.3918 413.392 20.3087 410.948 20.0618C415.839 19.7164 420.748 19.7164 425.638 20.0618H425.661Z" fill="#E0E0E0"/>
<path d="M425.661 56.7095C420.77 57.055 415.861 57.055 410.97 56.7095C415.862 56.3791 420.77 56.3791 425.661 56.7095V56.7095Z" fill="#E0E0E0"/>
<path d="M425.661 54.5054C420.77 54.8359 415.862 54.8359 410.97 54.5054C415.861 54.16 420.77 54.16 425.661 54.5054V54.5054Z" fill="#E0E0E0"/>
<path d="M418.54 49.6924C418.405 49.6924 418.292 44.3925 418.292 37.8608C418.292 31.3291 418.405 26.0178 418.54 26.0178C418.676 26.0178 418.8 31.3178 418.8 37.8608C418.8 44.4038 418.687 49.6924 418.54 49.6924Z" fill="#E0E0E0"/>
<path d="M441.843 24.9885H425.83V64.6307H441.843V24.9885Z" fill="#EBEBEB"/>
<path d="M406.087 13.8123C407.591 13.8123 408.81 12.5932 408.81 11.0893C408.81 9.58537 407.591 8.36621 406.087 8.36621C404.583 8.36621 403.364 9.58537 403.364 11.0893C403.364 12.5932 404.583 13.8123 406.087 13.8123Z" fill="#E0E0E0"/>
<path d="M406.935 18.5813H405.251V57.1386H406.935V18.5813Z" fill="#E0E0E0"/>
<path d="M499.182 472.478C499.182 472.648 390.562 472.772 256.617 472.772C122.672 472.772 14.0288 472.648 14.0288 472.478C14.0288 472.309 122.627 472.184 256.617 472.184C390.607 472.184 499.182 472.32 499.182 472.478Z" fill="#263238"/>
<path d="M142.708 57.749C148.037 64.2707 150.923 72.4479 150.867 80.8699C150.811 85.6387 149.929 90.8934 152.709 94.7695C154.811 97.7076 158.653 99.188 160.36 102.375C162.416 106.206 160.665 111.054 161.93 115.212C163.716 121.111 170.632 123.586 174.734 128.185C176.482 130.219 177.706 132.65 178.297 135.267C178.888 137.883 178.829 140.604 178.124 143.192C177.377 145.769 176.025 148.131 174.181 150.081C172.338 152.03 170.056 153.512 167.524 154.402C164.821 155.468 161.806 155.419 159.139 154.267C156.371 152.888 154.619 150.052 153.263 147.283C150.539 141.836 126.616 112.398 125.26 106.454" fill="#263238"/>
<path d="M125.305 50.8101C115.519 49.228 106.094 55.7258 101.992 64.7436C97.8899 73.7614 97.7543 83.9545 97.4718 93.8989C97.1893 103.843 96.4661 114.149 91.4147 122.67C88.2054 128.083 83.2332 132.84 82.4534 139.067C81.7528 144.649 84.6457 150.277 83.6852 155.826C82.849 160.662 79.165 164.866 79.3119 169.759C79.4927 175.658 85.5611 180.099 91.4486 180.257C97.3362 180.416 102.851 177.331 107.473 173.669C115.003 167.69 121.029 160.031 125.068 151.305" fill="#263238"/>
<path d="M109.202 74.1339C108.894 71.6722 109.085 69.1738 109.761 66.787C110.438 64.4003 111.587 62.1738 113.141 60.2397C114.694 58.3056 116.621 56.7033 118.805 55.5279C120.99 54.3526 123.389 53.6281 125.859 53.3974C135.724 52.4482 144.505 59.8048 145.985 69.6137C147.285 78.2133 148.392 86.8921 148.358 90.045C148.234 99.5487 142.708 103.244 140.448 104.363C139.635 104.655 138.794 104.863 137.939 104.984V104.984V105.052L140.041 115.968C141.001 123.122 137.012 129.529 129.87 130.535C122.729 131.54 117.112 126.082 116.016 118.929L109.202 74.1339Z" fill="#FFBE9D"/>
<path d="M144.04 73.7727C143.882 73.9987 142.628 73.3321 141.023 73.5693C139.419 73.8066 138.345 74.7783 138.142 74.6088C137.939 74.4394 138.142 74.1569 138.639 73.7049C139.257 73.103 140.047 72.7081 140.899 72.575C141.735 72.4461 142.591 72.5886 143.34 72.9818C143.905 73.3434 144.119 73.6823 144.04 73.7727Z" fill="#263238"/>
<path d="M129.734 77.2537C129.575 77.4797 128.321 76.8017 126.705 77.039C125.09 77.2763 124.039 78.2593 123.835 78.0898C123.632 77.9203 123.835 77.6266 124.333 77.1859C124.95 76.584 125.74 76.1891 126.592 76.056C127.43 75.9368 128.283 76.083 129.033 76.4741C129.587 76.8243 129.813 77.152 129.734 77.2537Z" fill="#263238"/>
<path d="M135.6 85.8752C136.408 85.4864 137.263 85.2016 138.142 85.0277C138.549 84.926 138.922 84.7904 138.956 84.4965C138.92 84.0837 138.762 83.6907 138.504 83.3665L136.82 80.3606C134.481 76.1568 132.73 72.6762 132.899 72.5745C133.069 72.4728 135.159 75.8291 137.419 80.0328C137.996 81.0725 138.549 82.0669 139.047 83.0049C139.375 83.4644 139.535 84.0233 139.499 84.587C139.461 84.7411 139.389 84.8846 139.287 85.0062C139.185 85.1277 139.056 85.224 138.911 85.2876C138.691 85.384 138.459 85.4523 138.222 85.491C137.368 85.7328 136.487 85.862 135.6 85.8752Z" fill="#263238"/>
<path d="M137.848 104.997C137.848 104.997 131.712 106.409 123.259 102.872C123.259 102.872 126.909 110.726 138.424 107.935L137.848 104.997Z" fill="#EB996E"/>
<path d="M128.909 73.0377C128.819 73.501 127.18 73.5236 125.327 74.032C123.474 74.5405 122.017 75.2636 121.711 74.9134C121.576 74.7439 121.779 74.2919 122.333 73.7835C123.078 73.1458 123.959 72.6863 124.909 72.4396C125.858 72.1929 126.851 72.1656 127.813 72.3598C128.559 72.5293 128.909 72.823 128.909 73.0377Z" fill="#263238"/>
<path d="M142.718 70.2129C142.492 70.6197 141.328 70.405 139.995 70.5745C138.662 70.744 137.566 71.1846 137.249 70.8344C137.114 70.6649 137.249 70.2807 137.679 69.8626C138.271 69.3373 139.015 69.013 139.803 68.9361C140.581 68.8423 141.369 68.9882 142.063 69.3542C142.605 69.6593 142.82 70.0095 142.718 70.2129Z" fill="#263238"/>
<path d="M126.242 79.3327C126.267 79.5075 126.326 79.6757 126.417 79.8275C126.507 79.9792 126.627 80.1115 126.769 80.2166C126.911 80.3217 127.072 80.3976 127.243 80.4398C127.415 80.482 127.593 80.4898 127.768 80.4626C127.937 80.443 128.101 80.39 128.25 80.3064C128.399 80.2229 128.53 80.1105 128.635 79.976C128.74 79.8414 128.818 79.6872 128.863 79.5225C128.908 79.3577 128.92 79.1857 128.898 79.0163C128.845 78.6645 128.654 78.348 128.368 78.1362C128.082 77.9244 127.724 77.8346 127.372 77.8864C127.202 77.9045 127.037 77.9566 126.887 78.0397C126.738 78.1227 126.606 78.2351 126.501 78.37C126.395 78.505 126.318 78.6597 126.274 78.8251C126.229 78.9905 126.219 79.1631 126.242 79.3327V79.3327Z" fill="#263238"/>
<path d="M140.492 76.2477C140.545 76.5996 140.736 76.916 141.021 77.1278C141.307 77.3396 141.666 77.4294 142.018 77.3776C142.187 77.3581 142.351 77.305 142.5 77.2215C142.649 77.1379 142.78 77.0256 142.885 76.891C142.99 76.7564 143.068 76.6023 143.113 76.4375C143.158 76.2728 143.17 76.1007 143.148 75.9314C143.095 75.5795 142.904 75.263 142.618 75.0512C142.332 74.8395 141.974 74.7496 141.622 74.8014C141.452 74.8195 141.287 74.8716 141.137 74.9547C140.988 75.0378 140.856 75.1501 140.751 75.2851C140.645 75.42 140.568 75.5748 140.524 75.7401C140.479 75.9055 140.469 76.0781 140.492 76.2477Z" fill="#263238"/>
<path d="M138.131 88.9946C137.687 88.8566 137.209 88.8782 136.78 89.0557C136.351 89.2332 135.997 89.5554 135.78 89.9663C135.574 90.3437 135.49 90.7762 135.54 91.2036C135.591 91.6309 135.774 92.0318 136.063 92.3504C136.371 92.6529 136.776 92.836 137.207 92.8671C137.637 92.8981 138.065 92.7751 138.413 92.5199C138.849 92.1231 139.113 91.5716 139.148 90.9832C139.224 90.4438 139.095 89.8952 138.786 89.4466C138.627 89.2272 138.401 89.0663 138.141 88.9887C137.882 88.911 137.604 88.9211 137.351 89.0172" fill="#EB996E"/>
<path d="M144.73 61.8726C143.843 58.2922 141.63 55.1822 138.538 53.1712C136.007 51.3429 133 50.2871 129.882 50.1314C126.744 49.9963 123.68 51.1096 121.361 53.2277C119.715 54.8588 118.774 57.0697 118.739 59.3865L118.92 57.8044C118.445 59.0917 118.445 60.5062 118.92 61.7935V61.7935C119.18 62.4828 119.496 63.1834 119.768 63.8728C120.577 65.8648 122.077 67.4979 123.994 68.4721C124.862 68.9377 125.834 69.1749 126.819 69.1614C127.312 69.1515 127.797 69.0341 128.24 68.8175C128.683 68.6008 129.074 68.2901 129.384 67.9071C130.086 66.6821 130.304 65.2389 129.995 63.8615C130.736 65.2226 131.794 66.3854 133.08 67.2516C133.736 67.671 134.517 67.8517 135.29 67.7632C136.064 67.6747 136.784 67.3225 137.329 66.7657C138.255 65.6357 137.894 63.8502 137.329 62.4489C138.203 63.7706 139.428 64.8231 140.866 65.4887C141.244 65.7058 141.663 65.8421 142.097 65.8887C142.531 65.9354 142.97 65.8916 143.386 65.76C143.718 65.5951 144.009 65.3568 144.236 65.0632C144.463 64.7696 144.621 64.4282 144.697 64.0649C144.864 63.3449 144.876 62.5974 144.73 61.8726Z" fill="#263238"/>
<path d="M136.559 64.8793C136.458 64.8793 136.48 63.5345 136.04 61.4892C135.531 58.7712 134.165 56.2878 132.141 54.4037C131.029 53.3922 129.687 52.6669 128.231 52.2905C127.039 51.9979 125.797 51.9671 124.592 52.2001C123.481 52.4598 122.42 52.8987 121.451 53.4997C121.451 53.4997 121.643 53.2172 122.14 52.8556C122.854 52.3564 123.655 51.996 124.502 51.7933C125.769 51.4966 127.088 51.4966 128.355 51.7933C129.917 52.1832 131.355 52.9605 132.536 54.0534C134.656 56.0152 136.039 58.6432 136.458 61.5005C136.592 62.3451 136.66 63.1991 136.661 64.0544C136.675 64.3332 136.641 64.6123 136.559 64.8793V64.8793Z" fill="#455A64"/>
<path d="M240.637 196.632L197.186 179.399C197.186 179.399 174.936 150.21 175.399 149.645L159.771 166.753L182.485 197.48L235.134 209.82L244.174 207.311C242.185 197.717 240.637 196.632 240.637 196.632Z" fill="#FFBE9D"/>
<path d="M145.94 113.359L140.019 111.099L114.457 114.342V118.862L113.722 118.953C108.212 120.124 102.927 122.177 98.0711 125.032C93.5223 127.809 89.9081 131.883 87.6929 136.73C85.4778 141.577 84.763 146.976 85.6405 152.233C86.6802 158.697 88.6917 166.55 92.579 171.093C100.003 179.783 106.784 169.048 106.784 169.048C106.784 169.048 111.44 179.67 111.168 184.699C110.942 188.914 109.089 197.683 108.49 200.418C108.466 200.527 108.463 200.641 108.484 200.751C108.505 200.861 108.547 200.966 108.61 201.059C108.672 201.152 108.753 201.231 108.847 201.292C108.941 201.353 109.046 201.394 109.157 201.413L163.083 211.391L163.343 198.203L161.625 143.961L159.196 122.897C159.196 122.897 159.275 112.839 145.94 113.359Z" fill="#D64D54"/>
<path d="M158.37 119.393L178.937 149.102L162.381 169.262L158.37 119.393Z" fill="#D64D54"/>
<path d="M162.811 181.907C162.737 181.27 162.71 180.627 162.732 179.986C162.732 178.653 162.732 176.901 162.664 174.765C162.564 169.033 162.153 163.31 161.432 157.622C160.584 150.955 159.285 145 158.302 140.672L157.104 135.586C156.93 134.971 156.802 134.344 156.72 133.71C156.977 134.298 157.181 134.906 157.33 135.53C157.68 136.66 158.155 138.434 158.697 140.581C160.156 146.157 161.266 151.818 162.02 157.532C162.746 163.244 163.101 168.996 163.082 174.754C163.082 177.014 163.025 178.754 162.958 179.986C162.963 180.629 162.914 181.272 162.811 181.907V181.907Z" fill="#263238"/>
<path d="M112.185 136.74C112.185 136.83 110.626 136.819 108.128 136.943C104.87 137.12 101.629 137.539 98.4325 138.197C95.237 138.868 92.0947 139.771 89.0304 140.898C86.6799 141.768 85.2674 142.412 85.2222 142.322C85.5118 142.095 85.8312 141.909 86.1714 141.768C86.7929 141.429 87.7196 141 88.8835 140.514C94.9813 137.996 101.498 136.646 108.094 136.536C109.36 136.536 110.354 136.536 111.089 136.604C111.459 136.592 111.829 136.638 112.185 136.74Z" fill="#FAFAFA"/>
<path d="M159.817 150.334C158.99 150.634 158.128 150.824 157.252 150.899C153.073 151.509 148.839 151.653 144.629 151.329C143.75 151.313 142.876 151.184 142.03 150.944C142.902 150.867 143.779 150.867 144.651 150.944C146.256 150.944 148.482 150.944 150.935 150.944C153.387 150.944 155.602 150.696 157.206 150.549C158.068 150.398 158.942 150.326 159.817 150.334Z" fill="#FAFAFA"/>
<path d="M169.252 136.897C168.007 138.337 166.514 139.542 164.845 140.457C163.269 141.522 161.511 142.288 159.658 142.717C159.59 142.559 161.918 141.587 164.54 139.915C167.162 138.242 169.139 136.762 169.252 136.897Z" fill="#FAFAFA"/>
<path d="M160.947 123.122C157.382 126.329 152.839 128.24 148.053 128.546C148.053 128.365 151.161 127.891 154.732 126.365C158.303 124.84 160.834 122.975 160.947 123.122Z" fill="#FAFAFA"/>
<path d="M162.065 173.342C161.733 173.565 161.376 173.751 161.003 173.895C160.291 174.234 159.263 174.653 157.952 175.139C154.546 176.362 151.03 177.255 147.454 177.805C143.877 178.358 140.255 178.558 136.639 178.404C135.249 178.348 134.13 178.246 133.362 178.144C132.96 178.118 132.561 178.046 132.175 177.93C132.175 177.828 133.893 177.93 136.695 177.998C143.88 178.065 151.029 176.965 157.861 174.743C160.438 173.895 162.031 173.251 162.065 173.342Z" fill="#FAFAFA"/>
<path d="M162.483 188.654C162.483 188.654 162.325 188.767 161.998 188.937L160.551 189.57C159.308 190.157 157.466 190.926 155.161 191.83C152.855 192.734 150.064 193.604 146.923 194.463C140.093 196.302 133.083 197.389 126.017 197.706C122.762 197.83 119.835 197.819 117.372 197.706C114.908 197.593 112.931 197.412 111.563 197.22L109.993 197.005C109.808 196.992 109.625 196.954 109.45 196.892C109.634 196.863 109.82 196.863 110.004 196.892L111.586 196.994C112.953 197.107 114.976 197.22 117.383 197.288C119.79 197.356 122.762 197.288 125.994 197.175C129.226 197.062 132.774 196.655 136.47 196.045C140.165 195.435 143.646 194.7 146.787 193.909C149.929 193.118 152.709 192.225 155.014 191.4C157.319 190.575 159.195 189.886 160.461 189.366L161.93 188.79C162.109 188.725 162.295 188.68 162.483 188.654V188.654Z" fill="#FAFAFA"/>
<path d="M63.3667 428.892L57.2531 456.499L46.0995 476.941C45.9098 477.29 45.7938 477.675 45.7585 478.07C45.7233 478.466 45.7696 478.865 45.8946 479.242C46.0195 479.619 46.2206 479.966 46.4852 480.263C46.7498 480.559 47.0724 480.798 47.433 480.964V480.964C47.8516 481.156 48.3101 481.245 48.7702 481.224C49.2303 481.202 49.6785 481.071 50.0773 480.84C55.2529 477.857 74.249 466.748 74.5768 464.703C74.9723 462.341 82.9617 436.011 82.9617 436.011L63.3667 428.892Z" fill="#D64D54"/>
<g opacity="0.6">
<path d="M47.4326 480.964L75.0398 462.883L74.7459 464.013C74.5044 465.022 73.9114 465.911 73.0735 466.522C70.8134 468.138 64.519 472.477 50.1673 480.862C49.7553 481.104 49.2899 481.239 48.8128 481.257C48.3356 481.275 47.8614 481.174 47.4326 480.964V480.964Z" fill="white"/>
</g>
<g opacity="0.6">
<path d="M71.5706 452.611C71.1719 452.777 70.8487 453.085 70.6631 453.475C70.4775 453.865 70.4426 454.31 70.565 454.724C70.7158 455.127 71.0154 455.457 71.4021 455.646C71.7887 455.835 72.2332 455.869 72.644 455.741C73.0708 455.564 73.4164 455.235 73.6128 454.817C73.8093 454.399 73.8426 453.922 73.7061 453.481C73.506 453.081 73.1604 452.772 72.7402 452.619C72.32 452.466 71.8571 452.479 71.4463 452.656" fill="white"/>
</g>
<path d="M56.6533 470.499C56.1974 469.483 55.5577 468.56 54.7664 467.776C53.8549 467.141 52.8311 466.685 51.7495 466.431C51.7495 466.352 52.145 466.228 52.8116 466.296C53.6791 466.408 54.4955 466.769 55.1618 467.335C55.8332 467.88 56.3286 468.611 56.5855 469.437C56.7776 470.081 56.7211 470.499 56.6533 470.499Z" fill="#263238"/>
<path d="M53.7949 473.698C53.6367 473.788 52.9701 472.681 51.6481 471.924C50.8048 471.532 49.9367 471.196 49.0493 470.919C49.5371 470.759 50.0559 470.717 50.5629 470.798C51.0698 470.878 51.5503 471.079 51.9645 471.382C53.4672 472.252 53.9531 473.664 53.7949 473.698Z" fill="#263238"/>
<path d="M61.4451 466.679C60.4842 465.613 59.4415 464.623 58.3265 463.719C57.0981 462.97 55.8137 462.316 54.4849 461.764C56.013 461.733 57.5026 462.246 58.6881 463.211C59.9951 463.997 60.9742 465.229 61.4451 466.679Z" fill="#263238"/>
<path d="M64.0095 458.442C63.8965 458.589 62.5293 457.583 60.6198 457.03C58.7103 456.476 56.9815 456.566 56.9702 456.374C58.2278 456.049 59.5501 456.069 60.7971 456.433C62.0442 456.797 63.1697 457.491 64.0547 458.442H64.0095Z" fill="#263238"/>
<path d="M66.0107 450.385C64.9085 449.703 63.7187 449.175 62.4741 448.814C61.192 448.64 59.892 448.64 58.6099 448.814C58.6099 448.746 58.9601 448.475 59.6833 448.26C60.6338 448.002 61.6316 447.97 62.5968 448.166C63.5621 448.362 64.4681 448.782 65.2424 449.39C65.8186 449.933 66.0559 450.339 66.0107 450.385Z" fill="#263238"/>
<path d="M62.8917 447.288C62.8926 446.929 62.9696 446.574 63.1177 446.248C63.4379 445.315 63.9455 444.457 64.6094 443.728C65.0437 443.15 65.6547 442.729 66.3497 442.53C66.5863 442.491 66.8291 442.524 67.0467 442.625C67.2643 442.726 67.4466 442.89 67.5701 443.095C67.7778 443.516 67.8221 443.999 67.6944 444.451C67.4047 445.357 66.8089 446.135 66.009 446.65C65.2091 447.166 64.2549 447.387 63.3098 447.276C62.3779 447.143 61.506 446.738 60.8042 446.11C60.1024 445.483 59.6019 444.662 59.366 443.75C59.3117 443.519 59.3068 443.278 59.3516 443.045C59.3964 442.811 59.4898 442.59 59.6259 442.394C59.782 442.212 59.9921 442.084 60.2258 442.029C60.4594 441.975 60.7045 441.996 60.9254 442.089C61.5642 442.408 62.1093 442.887 62.5075 443.479C63.1064 444.263 63.5617 445.147 63.8523 446.09C63.9899 446.426 64.0554 446.788 64.0444 447.152C63.5888 445.934 62.9526 444.791 62.1572 443.762C61.7868 443.279 61.3064 442.891 60.7559 442.632C60.6349 442.579 60.5001 442.567 60.3717 442.598C60.2434 442.628 60.1284 442.7 60.044 442.801C59.965 442.934 59.9142 443.082 59.8948 443.236C59.8754 443.389 59.8877 443.545 59.931 443.694C60.1667 444.461 60.6142 445.146 61.222 445.669C61.8297 446.193 62.573 446.535 63.3663 446.655C64.1656 446.747 64.9728 446.567 65.6562 446.142C66.3396 445.717 66.8589 445.073 67.1294 444.315C67.2389 444.009 67.2389 443.673 67.1294 443.366C67.0653 443.25 66.9666 443.158 66.8469 443.101C66.7273 443.044 66.5929 443.026 66.4627 443.05C65.8737 443.212 65.3489 443.551 64.9597 444.022C64.0928 444.987 63.3938 446.091 62.8917 447.288V447.288Z" fill="#263238"/>
<g opacity="0.3">
<path d="M62.6205 431.886L61.2983 438.215L81.2889 441.537L82.9614 436.011L63.3324 428.892L62.6205 431.886Z" fill="black"/>
</g>
<path d="M152.641 439.107L150.991 461.165C150.991 461.165 172.869 470.206 172.959 474.364L130.017 472.703L131.147 438.214L152.641 439.107Z" fill="#D64D54"/>
<g opacity="0.6">
<path d="M137.826 458.792C137.41 458.904 137.048 459.165 136.811 459.525C136.573 459.885 136.476 460.32 136.538 460.747C136.633 461.167 136.885 461.535 137.242 461.777C137.598 462.018 138.034 462.115 138.459 462.046C138.902 461.929 139.286 461.652 139.536 461.268C139.787 460.884 139.886 460.42 139.815 459.967C139.672 459.538 139.369 459.181 138.969 458.971C138.569 458.76 138.103 458.712 137.668 458.838" fill="white"/>
</g>
<g opacity="0.6">
<path d="M130.04 472.703L130.289 469.223L171.366 472.082C171.366 472.082 173.253 472.986 172.982 474.342L130.04 472.703Z" fill="white"/>
</g>
<path d="M151.714 460.973C151.714 461.188 150.652 461.245 149.601 461.877C148.55 462.51 147.962 463.369 147.77 463.278C147.578 463.188 147.94 461.99 149.228 461.245C150.516 460.499 151.77 460.781 151.714 460.973Z" fill="#263238"/>
<path d="M156.143 463.041C156.143 463.256 155.262 463.573 154.516 464.431C153.771 465.29 153.533 466.216 153.319 466.205C153.104 466.194 153.025 464.996 153.974 463.945C154.923 462.895 156.143 462.815 156.143 463.041Z" fill="#263238"/>
<path d="M158.494 468.499C158.302 468.499 158.054 467.471 158.63 466.352C159.206 465.233 160.212 464.804 160.291 464.985C160.37 465.166 159.749 465.753 159.285 466.68C158.822 467.606 158.698 468.487 158.494 468.499Z" fill="#263238"/>
<path d="M151.51 455.91C151.42 456.091 150.471 455.763 149.251 455.797C148.03 455.831 147.126 456.17 146.991 455.989C146.855 455.809 147.804 455.097 149.251 455.074C150.697 455.052 151.646 455.752 151.51 455.91Z" fill="#263238"/>
<g opacity="0.3">
<path d="M152.336 443.48L152.042 447.412L130.966 446.395L131.113 441.853L152.336 443.48Z" fill="black"/>
</g>
<path d="M151.793 451.447C151.083 451.618 150.339 451.587 149.646 451.356C148.862 451.193 148.103 450.931 147.386 450.577C146.968 450.371 146.564 450.137 146.177 449.876C145.941 449.731 145.728 449.552 145.544 449.345C145.42 449.183 145.352 448.984 145.352 448.78C145.352 448.576 145.42 448.377 145.544 448.215C145.654 448.072 145.796 447.958 145.96 447.881C146.123 447.804 146.302 447.768 146.482 447.774C146.754 447.785 147.024 447.831 147.284 447.91C147.736 448.042 148.175 448.216 148.595 448.43C149.308 448.778 149.961 449.24 150.527 449.797C151.488 450.757 151.793 451.56 151.725 451.594C151.657 451.627 151.171 450.983 150.188 450.181C149.611 449.73 148.981 449.35 148.312 449.051C147.914 448.886 147.506 448.743 147.092 448.622C146.64 448.486 146.256 448.475 146.132 448.622C146.007 448.769 146.132 448.735 146.132 448.87C146.267 449.02 146.423 449.149 146.595 449.255C146.957 449.507 147.335 449.737 147.725 449.944C148.376 450.303 149.061 450.598 149.77 450.825C150.458 450.984 151.134 451.192 151.793 451.447V451.447Z" fill="#263238"/>
<path d="M151.511 451.74C151.135 451.106 150.965 450.372 151.025 449.638C151.029 448.843 151.159 448.054 151.409 447.299C151.571 446.857 151.771 446.43 152.008 446.022C152.135 445.743 152.331 445.5 152.579 445.318C152.826 445.136 153.116 445.021 153.42 444.983C153.613 444.995 153.798 445.062 153.955 445.176C154.111 445.29 154.231 445.447 154.301 445.627C154.4 445.88 154.461 446.147 154.482 446.418C154.557 446.897 154.557 447.385 154.482 447.864C154.331 448.662 153.986 449.411 153.477 450.045C152.595 451.175 151.714 451.344 151.691 451.276C151.669 451.208 152.369 450.79 153.059 449.74C153.454 449.14 153.713 448.461 153.816 447.751C153.873 447.339 153.873 446.92 153.816 446.508C153.759 446.056 153.601 445.672 153.431 445.717C153.262 445.762 152.844 446.033 152.652 446.395C152.431 446.756 152.239 447.134 152.076 447.525C151.814 448.207 151.647 448.922 151.578 449.649C151.432 450.915 151.624 451.74 151.511 451.74Z" fill="#263238"/>
<path d="M108.252 201.209C108.252 201.209 101.472 201.514 96.9515 224.702C92.4313 247.891 57.9761 435.785 57.9761 435.785L82.9615 436.011L130.039 257.372L126.909 441.57L152.29 443.514C152.29 443.514 171.331 239.777 171.501 227.923C171.727 213.142 163.24 198.191 163.24 198.191L108.252 201.209Z" fill="#263238"/>
<path d="M142.595 199.231C142.754 199.231 140.155 212.509 136.798 228.816C133.442 245.122 130.594 258.321 130.436 258.287C130.278 258.254 132.866 245.009 136.222 228.703C139.578 212.396 142.471 199.197 142.595 199.231Z" fill="#455A64"/>
<path d="M146.482 202.541C146.482 202.474 147.16 202.27 147.94 202.96C148.161 203.16 148.337 203.407 148.454 203.682C148.571 203.957 148.627 204.254 148.618 204.553C148.59 204.93 148.455 205.292 148.229 205.597C148.003 205.901 147.695 206.134 147.341 206.27C146.996 206.427 146.614 206.483 146.239 206.433C145.863 206.383 145.509 206.229 145.217 205.988C144.998 205.783 144.826 205.534 144.711 205.257C144.596 204.98 144.541 204.683 144.55 204.383C144.55 203.344 145.251 202.982 145.262 203.05C145.072 203.465 144.971 203.915 144.968 204.372C144.983 204.601 145.044 204.825 145.147 205.031C145.25 205.237 145.393 205.42 145.567 205.57C145.79 205.723 146.048 205.818 146.317 205.846C146.587 205.874 146.859 205.834 147.108 205.73C147.358 205.625 147.578 205.459 147.747 205.248C147.916 205.036 148.029 204.785 148.076 204.519C148.092 204.29 148.063 204.06 147.989 203.843C147.915 203.625 147.799 203.425 147.646 203.253C147.093 202.609 146.471 202.632 146.482 202.541Z" fill="#455A64"/>
<path d="M145.408 211.717C145.408 211.65 146.108 211.717 146.538 212.655C146.647 212.923 146.696 213.211 146.683 213.5C146.669 213.789 146.593 214.071 146.459 214.327C146.264 214.632 145.991 214.878 145.667 215.039C145.344 215.199 144.982 215.269 144.622 215.24C144.262 215.211 143.917 215.084 143.623 214.874C143.33 214.663 143.099 214.377 142.956 214.045C142.866 213.773 142.836 213.484 142.869 213.199C142.902 212.914 142.997 212.64 143.148 212.395C143.679 211.548 144.402 211.57 144.38 211.638C144.357 211.706 143.837 211.864 143.509 212.587C143.344 212.993 143.344 213.447 143.509 213.853C143.627 214.077 143.8 214.268 144.012 214.407C144.223 214.547 144.466 214.631 144.719 214.651C144.972 214.671 145.225 214.627 145.456 214.523C145.687 214.419 145.888 214.259 146.04 214.056C146.253 213.67 146.306 213.216 146.187 212.791C145.86 212.022 145.351 211.796 145.408 211.717Z" fill="#455A64"/>
<path d="M121.463 202.767C121.416 203.156 121.318 203.536 121.169 203.897C120.816 204.932 120.374 205.934 119.847 206.892C118.123 210.089 115.632 212.808 112.599 214.806C109.566 216.804 106.084 218.018 102.467 218.339C101.38 218.434 100.287 218.434 99.2009 218.339C98.818 218.327 98.4383 218.267 98.0708 218.159C98.0708 218.046 99.7772 218.238 102.478 217.899C105.998 217.472 109.371 216.234 112.332 214.283C115.293 212.332 117.761 209.721 119.542 206.655C120.864 204.372 121.361 202.733 121.463 202.767Z" fill="#455A64"/>
<path d="M170.077 219.255C170.077 219.255 169.783 219.119 169.32 218.803C168.673 218.337 168.068 217.815 167.512 217.243C165.654 215.362 164.203 213.117 163.253 210.65C162.302 208.182 161.871 205.545 161.986 202.903C162.012 202.107 162.114 201.317 162.291 200.541C162.416 199.987 162.495 199.693 162.54 199.705C162.585 199.716 162.404 200.936 162.404 202.914C162.406 208.105 164.335 213.111 167.817 216.961C169.139 218.418 170.134 219.164 170.077 219.255Z" fill="#455A64"/>
<path d="M257.736 219.911C258.109 219.007 258.007 219.369 252.018 215.391C252.018 215.391 260.606 221.041 259.713 218.352C258.941 217.333 257.996 216.457 256.922 215.764C259.182 217.097 260.493 217.244 260.888 216.702C261.566 215.764 256.651 212.181 254.312 210.565C256.45 212.095 258.693 213.474 261.024 214.69C262.414 215.12 261.747 213.492 260.809 212.306C259.871 211.119 252.594 204.113 250.639 202.022C250.453 201.863 250.303 201.666 250.201 201.443C250.099 201.221 250.045 200.979 250.045 200.734C250.045 200.489 250.099 200.247 250.201 200.025C250.303 199.802 250.453 199.605 250.639 199.446C254.142 197.186 255.679 193.581 255.634 192.394C255.595 192.127 255.472 191.879 255.284 191.686C255.095 191.493 254.85 191.364 254.584 191.319C254.318 191.274 254.044 191.314 253.802 191.434C253.56 191.555 253.363 191.748 253.238 191.987C252.354 193.087 251.323 194.06 250.176 194.88C249.286 195.575 248.284 196.113 247.215 196.474C245.972 196.881 239.858 196.542 238.547 195.875L234.377 210.012C234.377 210.012 249.509 217.086 252.379 218.465C255.905 220.137 257.476 220.6 257.736 219.911Z" fill="#FFBE9D"/>
<path d="M249.293 213.3C249.169 213.469 251.135 214.905 253.678 216.521C256.22 218.137 258.356 219.301 258.458 219.131C258.56 218.961 256.593 217.515 254.062 215.91C251.531 214.306 249.406 213.085 249.293 213.3Z" fill="#EB996E"/>
<path d="M250.718 210.531C250.605 210.701 252.616 212.351 255.238 214.227C257.86 216.102 260.03 217.492 260.143 217.334C260.256 217.176 258.255 215.515 255.622 213.639C252.989 211.763 250.842 210.373 250.718 210.531Z" fill="#EB996E"/>
<path d="M252.221 207.729C252.108 207.887 253.984 209.492 256.414 211.3C258.843 213.108 260.934 214.442 261.024 214.283C261.115 214.125 259.273 212.52 256.843 210.712C254.413 208.904 252.345 207.571 252.221 207.729Z" fill="#EB996E"/>
<path d="M98.3189 156.526L109.416 157.136C110.202 160.234 111.253 163.259 112.558 166.176C121.496 150.672 128.378 129.89 130.141 121.539C129.893 120.718 129.587 119.792 129.226 118.759C128.955 117.199 129.001 115.6 129.361 114.058C129.667 112.205 130.186 109.696 130.333 108.544C130.819 105.018 131.384 104.453 132.593 104.86C134.266 105.402 131.904 114.77 133.271 114.974C134.017 115.076 134.91 111.866 135.181 109.233C135.452 106.6 136.628 98.509 137.498 97.9327C138.775 97.1416 139.882 98.396 139.566 101.018C139.249 103.639 138.831 111.584 140.221 111.685C141.611 111.787 142.741 98.3621 142.741 98.3621C142.741 98.3621 142.527 95.4465 144.131 95.5143C147.035 95.6387 144.775 109.798 144.527 111.143C144.346 112.07 145.86 112.273 145.996 111.233C146.131 110.194 146.832 97.7971 149.781 97.8988C152.042 97.9779 148.03 109.561 149.307 112.25C150.584 114.94 151.465 103.131 153.635 103.289C154.437 103.357 155.036 103.515 153.556 110.194C152.111 115.504 150.38 120.733 148.369 125.856C144.979 144.389 129.847 203.671 106.207 192.823C92.9851 186.755 86.8037 156.661 86.8037 156.661L98.3189 156.526Z" fill="#FFBE9D"/>
<path d="M148.392 125.958C148.411 125.818 148.449 125.682 148.505 125.552C148.606 125.258 148.731 124.874 148.9 124.422C149.273 123.348 149.782 121.856 150.448 119.901C151.115 117.946 151.917 115.573 152.708 112.771C153.115 111.381 153.454 109.867 153.759 108.251C153.918 107.437 154.064 106.601 154.166 105.742C154.194 105.317 154.194 104.89 154.166 104.465C154.166 104.024 154.064 103.663 153.714 103.651C153.364 103.64 153.115 103.855 152.867 104.228C152.641 104.627 152.456 105.047 152.313 105.482C151.996 106.375 151.748 107.324 151.499 108.284C151.251 109.245 151.025 110.251 150.731 111.268C150.603 111.825 150.373 112.354 150.053 112.827C149.972 112.92 149.866 112.987 149.748 113.019C149.673 113.036 149.596 113.035 149.521 113.018C149.447 113 149.378 112.966 149.318 112.918C149.188 112.799 149.081 112.657 149.002 112.5C148.882 112.222 148.803 111.929 148.764 111.629C148.713 109.35 148.941 107.073 149.443 104.849C149.635 103.719 149.838 102.589 149.985 101.459C150.053 100.883 150.121 100.329 150.132 99.7187C150.143 99.1085 150.053 98.4643 149.815 98.3626C149.578 98.2609 149.002 98.5773 148.685 99.052C148.373 99.5533 148.126 100.093 147.951 100.657C147.566 101.837 147.275 103.046 147.081 104.273C146.866 105.516 146.696 106.782 146.55 108.07C146.493 108.714 146.425 109.358 146.369 110.013L146.278 110.997C146.29 111.207 146.256 111.417 146.178 111.612C146.1 111.807 145.98 111.983 145.826 112.127C145.633 112.268 145.399 112.344 145.16 112.344C144.92 112.344 144.686 112.268 144.493 112.127C144.383 112.054 144.29 111.959 144.22 111.848C144.15 111.737 144.104 111.613 144.086 111.483C144.069 111.363 144.069 111.241 144.086 111.121V110.884L144.391 108.906C144.583 107.573 144.741 106.239 144.866 104.883C144.99 103.527 145.092 102.16 145.114 100.792C145.181 99.4385 145.043 98.0824 144.708 96.7693C144.63 96.436 144.428 96.1451 144.143 95.9556C144.006 95.9118 143.86 95.9123 143.724 95.957C143.588 96.0016 143.469 96.0882 143.385 96.2042C143.02 96.8732 142.87 97.639 142.956 98.3965V98.3965C142.707 101.052 142.425 103.663 142.041 106.228C141.849 107.505 141.634 108.782 141.317 110.036C141.227 110.341 141.137 110.658 141.024 110.974C140.916 111.357 140.691 111.697 140.379 111.946C140.242 112.013 140.085 112.032 139.935 112C139.786 111.967 139.651 111.884 139.555 111.765C139.417 111.62 139.312 111.446 139.249 111.257C139.128 110.943 139.04 110.617 138.99 110.285C138.725 107.826 138.702 105.346 138.922 102.883C139.089 101.734 139.153 100.573 139.114 99.4136C139.077 98.9185 138.85 98.4569 138.481 98.1253C138.394 98.0714 138.297 98.0356 138.196 98.02C138.095 98.0045 137.992 98.0096 137.893 98.0349C137.788 98.0706 137.686 98.1159 137.588 98.1705C137.487 98.2609 137.498 98.1705 137.43 98.3626C137.021 99.3789 136.722 100.436 136.537 101.515C136.311 102.646 136.119 103.674 135.95 104.736C135.78 105.798 135.622 106.838 135.486 107.878C135.351 108.917 135.283 109.934 135.08 110.951C134.904 111.945 134.639 112.921 134.289 113.867C134.195 114.108 134.086 114.342 133.961 114.568C133.803 114.782 133.712 115.053 133.283 115.189C133.173 115.209 133.06 115.196 132.957 115.152C132.854 115.108 132.767 115.034 132.706 114.94C132.627 114.81 132.567 114.669 132.526 114.522C132.475 114.277 132.445 114.027 132.435 113.777C132.435 111.844 132.695 110.081 132.797 108.375C132.871 107.559 132.871 106.738 132.797 105.923C132.797 105.561 132.627 105.132 132.424 105.053C132.281 104.983 132.125 104.946 131.966 104.946C131.808 104.946 131.651 104.983 131.509 105.053C131.034 105.562 130.74 106.213 130.672 106.906C130.503 107.595 130.435 108.296 130.311 108.963C129.836 111.629 129.339 113.935 129.102 115.811C128.99 116.636 128.99 117.472 129.102 118.297C129.26 118.975 129.497 119.585 129.621 120.06C129.746 120.534 129.87 120.873 129.949 121.19C129.991 121.311 130.021 121.436 130.04 121.563C129.972 121.453 129.919 121.335 129.881 121.212L129.497 120.082C129.339 119.596 129.102 119.054 128.909 118.308C128.789 117.461 128.789 116.601 128.909 115.754C129.124 113.844 129.576 111.562 130.04 108.883C130.164 108.217 130.232 107.516 130.379 106.793C130.459 106.411 130.561 106.034 130.684 105.663C130.797 105.252 131.043 104.89 131.384 104.634C131.59 104.526 131.819 104.469 132.051 104.469C132.283 104.469 132.512 104.526 132.718 104.634C132.939 104.774 133.12 104.967 133.245 105.197C133.37 105.426 133.433 105.684 133.43 105.945C133.509 106.795 133.509 107.65 133.43 108.499C133.351 110.217 133.079 112.014 133.125 113.844C133.133 114.061 133.159 114.276 133.204 114.488C133.204 114.703 133.362 114.794 133.339 114.748C133.317 114.703 133.554 114.568 133.644 114.387C133.756 114.186 133.854 113.979 133.938 113.765C134.273 112.849 134.519 111.903 134.673 110.94C134.865 109.957 134.933 108.94 135.068 107.889C135.204 106.838 135.339 105.798 135.509 104.725C135.678 103.651 135.871 102.578 136.085 101.482C136.269 100.337 136.588 99.2178 137.035 98.1479C137.125 97.9685 137.261 97.8163 137.43 97.7072C137.58 97.6248 137.74 97.5604 137.905 97.5151C138.094 97.4609 138.293 97.448 138.488 97.4773C138.683 97.5065 138.869 97.5772 139.035 97.6846C139.297 97.8928 139.514 98.1528 139.671 98.4483C139.828 98.7438 139.923 99.0685 139.95 99.4023C140.035 100.017 140.035 100.641 139.95 101.256C139.894 101.832 139.837 102.386 139.803 103.018C139.583 105.425 139.606 107.848 139.871 110.251C139.919 110.536 139.995 110.816 140.097 111.087C140.131 111.196 140.189 111.297 140.267 111.381C140.267 111.381 140.267 111.381 140.323 111.381C140.323 111.641 140.323 111.381 140.323 111.483C140.323 111.584 140.323 111.483 140.323 111.392C140.464 111.203 140.575 110.994 140.651 110.771C140.756 110.492 140.847 110.198 140.922 109.889C141.227 108.691 141.43 107.426 141.623 106.16C142.007 103.617 142.289 101.007 142.527 98.3626V98.4191C142.426 97.4877 142.628 96.5486 143.103 95.7409C143.284 95.5101 143.533 95.3414 143.814 95.2584C144.096 95.1754 144.396 95.1821 144.674 95.2776C144.911 95.4091 145.119 95.5869 145.286 95.8005C145.453 96.014 145.575 96.2589 145.646 96.5207C146.007 97.9102 146.156 99.3467 146.086 100.781C146.086 102.182 145.962 103.561 145.838 104.928C145.713 106.296 145.544 107.64 145.352 108.974C145.25 109.652 145.148 110.307 145.047 110.974C144.956 111.392 144.979 111.403 145.047 111.528C145.125 111.581 145.218 111.609 145.312 111.609C145.407 111.609 145.499 111.581 145.578 111.528C145.713 111.426 145.736 111.234 145.77 110.861L145.849 109.878L146.052 107.923C146.188 106.635 146.369 105.346 146.583 104.092C146.793 102.832 147.095 101.589 147.488 100.374C147.693 99.7599 147.97 99.172 148.312 98.6226C148.499 98.3264 148.745 98.0724 149.036 97.8767C149.197 97.7601 149.383 97.6839 149.58 97.6544C149.777 97.6249 149.978 97.643 150.166 97.7072C150.339 97.814 150.485 97.9593 150.593 98.1318C150.701 98.3042 150.767 98.4992 150.787 98.7016C150.834 99.0196 150.853 99.341 150.844 99.6622C150.844 100.284 150.765 100.883 150.697 101.482C150.539 102.612 150.324 103.809 150.121 104.951C149.635 107.097 149.4 109.293 149.42 111.494C149.452 111.73 149.512 111.962 149.601 112.183C149.642 112.263 149.691 112.339 149.748 112.409C149.748 112.409 149.748 112.409 149.748 112.33C150.001 111.922 150.188 111.475 150.301 111.008C150.595 110.025 150.832 109.03 151.092 108.058C151.325 107.091 151.608 106.137 151.94 105.199C152.096 104.735 152.301 104.288 152.55 103.866C152.685 103.636 152.861 103.433 153.07 103.267C153.184 103.169 153.319 103.099 153.465 103.064C153.611 103.041 153.76 103.041 153.906 103.064C154.06 103.079 154.208 103.135 154.333 103.227C154.458 103.318 154.557 103.441 154.618 103.583C154.713 103.821 154.762 104.074 154.765 104.329C154.774 104.786 154.747 105.244 154.686 105.697C154.584 106.578 154.415 107.414 154.257 108.239C153.929 109.855 153.567 111.392 153.126 112.759C152.279 115.562 151.431 117.935 150.742 119.868C150.053 121.8 149.465 123.258 149.07 124.297C148.877 124.772 148.719 125.145 148.606 125.427C148.556 125.612 148.484 125.79 148.392 125.958Z" fill="#EB996E"/>
<path d="M86.7021 157.803C88.8492 165.386 93.053 177.082 97.5619 189.445C97.7041 189.843 97.9612 190.19 98.3008 190.442C98.6404 190.694 99.0472 190.84 99.4696 190.86C99.892 190.881 100.311 190.775 100.673 190.558C101.036 190.34 101.326 190.019 101.506 189.637L112.558 166.256C112.558 166.256 109.891 147.045 110.117 147.734C110.343 148.424 87.3124 150.221 87.3124 150.221L86.7021 157.803Z" fill="#D64D54"/>
<path d="M111.609 154.04C111.609 154.13 110.23 154.537 108.049 155.373C105.199 156.455 102.453 157.794 99.8447 159.374C97.2404 160.961 94.7823 162.776 92.4994 164.798C90.7478 166.346 89.7421 167.408 89.6743 167.341C89.6065 167.273 89.8664 167.024 90.2958 166.516C90.9012 165.809 91.5424 165.134 92.2169 164.493C94.4444 162.348 96.8999 160.453 99.5396 158.843C102.18 157.252 104.984 155.948 107.902 154.955C108.784 154.651 109.682 154.395 110.592 154.187C110.921 154.084 111.264 154.034 111.609 154.04V154.04Z" fill="#FAFAFA"/>
<path d="M115.993 159.871C115.275 159.147 114.652 158.335 114.14 157.453C112.82 155.395 111.686 153.225 110.75 150.967C109.813 148.702 109.083 146.357 108.569 143.96C108.306 142.98 108.173 141.969 108.173 140.954C108.51 141.902 108.779 142.872 108.976 143.859C109.581 146.199 110.336 148.497 111.236 150.741C112.176 152.972 113.255 155.142 114.468 157.238C115.032 158.083 115.542 158.962 115.993 159.871Z" fill="#263238"/>
<path d="M123.361 56.3361C121.444 59.4959 120.255 63.0435 119.882 66.7205C119.509 70.3976 119.96 74.1116 121.203 77.5923C122.333 80.7 124.141 83.7624 123.813 87.0622C123.485 90.3619 120.909 93.6278 121.813 96.8823C122.355 98.8147 124.005 100.272 124.649 102.148C125.384 104.408 124.649 106.793 124.254 109.109C123.35 115.031 125.248 120.986 125.711 126.953C126.175 132.92 124.581 139.915 119.248 142.514C117.632 143.305 115.518 143.531 114.174 142.322C112.456 140.796 112.931 138.039 113.405 135.779C118.084 113.178 103.63 91.119 106.93 68.2468C107.461 64.5854 109.507 58.3702 112.14 55.8163C114.773 53.2623 122.084 53.5562 124.57 56.2683" fill="#263238"/>
<path d="M101.099 121.901C101.099 121.901 101.788 121.088 102.805 119.483C104.233 117.217 105.232 114.708 105.755 112.081C106.096 110.272 106.214 108.427 106.105 106.589C105.908 104.452 105.828 102.305 105.868 100.159C105.935 98.9841 106.152 97.8221 106.512 96.7014C106.925 95.5468 107.447 94.4344 108.072 93.379C109.337 91.2432 110.931 89.2543 112.4 87.1298C113.908 85.122 114.957 82.8074 115.473 80.3495C115.724 78.0344 115.59 75.6939 115.078 73.4223C114.65 71.3111 114.483 69.1555 114.581 67.0036C114.715 65.124 115.095 63.27 115.711 61.489C116.574 58.9046 117.933 56.5132 119.711 54.4488C120.183 53.8876 120.697 53.3625 121.248 52.878C121.423 52.6919 121.62 52.5287 121.836 52.3921C121.836 52.3921 121.078 53.1266 119.881 54.6522C117.028 58.1936 115.359 62.5419 115.112 67.0827C115.036 69.1994 115.222 71.3173 115.665 73.3884C116.205 75.721 116.35 78.1273 116.095 80.5077C115.559 83.0341 114.479 85.4135 112.931 87.4802C111.45 89.6386 109.857 91.6161 108.614 93.6954C108.003 94.7116 107.495 95.7868 107.1 96.9048C106.742 97.9797 106.526 99.0965 106.456 100.227C106.406 102.35 106.466 104.473 106.636 106.589C106.726 108.465 106.582 110.344 106.207 112.183C105.641 114.846 104.566 117.374 103.043 119.63C102.63 120.24 102.177 120.821 101.687 121.37C101.511 121.568 101.314 121.747 101.099 121.901V121.901Z" fill="#455A64"/>
<path d="M90.3862 123.586C90.4773 123.322 90.5946 123.069 90.7365 122.829C91.0191 122.298 91.3807 121.597 91.8666 120.716C92.8158 118.874 94.2284 116.195 95.6184 112.805C97.3186 108.846 98.2615 104.603 98.3983 100.296C98.3989 99.0546 98.3045 97.8155 98.1158 96.589C97.9237 95.3233 97.6299 94.0464 97.4377 92.7129C97.2027 91.3336 97.2334 89.9221 97.5282 88.5543C97.9103 87.15 98.6961 85.8888 99.7883 84.9268C101.913 82.9945 104.478 81.7288 105.811 79.4574C106.967 77.2051 107.647 74.7397 107.812 72.2138C108.051 69.8982 108.575 67.6209 109.371 65.4335C111.162 60.7375 114.354 56.7057 118.513 53.8844C119.176 53.438 119.867 53.0342 120.581 52.6752C120.822 52.5308 121.08 52.4169 121.35 52.3362C121.35 52.3362 120.333 52.8786 118.649 54.0765C116.276 55.77 114.221 57.8704 112.58 60.2804C111.443 61.9325 110.516 63.7206 109.823 65.603C109.062 67.7955 108.568 70.0722 108.354 72.3833C108.015 74.7903 107.744 77.4798 106.297 79.8642C104.851 82.2486 102.207 83.6047 100.184 85.5145C99.1529 86.409 98.4098 87.5886 98.048 88.9046C97.7733 90.1987 97.7464 91.5331 97.9689 92.8372C98.1497 94.1368 98.4322 95.425 98.6243 96.702C98.8198 97.9579 98.9105 99.2279 98.8955 100.499C98.742 104.885 97.7484 109.201 95.9687 113.212C94.8127 115.923 93.4996 118.564 92.0361 121.122L90.8382 122.897C90.7124 123.142 90.5608 123.373 90.3862 123.586V123.586Z" fill="#455A64"/>
<path d="M464.274 442.904C464.326 442.74 464.394 442.581 464.477 442.43C464.636 442.091 464.85 441.639 465.11 441.062C465.896 439.297 466.528 437.467 466.997 435.593C468.24 430.734 468.681 423.309 466.839 414.495C465.839 409.688 464.529 404.951 462.918 400.313C461.268 395.284 459.336 389.95 457.765 384.176C455.991 378.153 455.134 371.898 455.222 365.62C455.46 359.055 457.403 352.512 459.539 345.98C461.675 339.448 463.878 333.086 464.534 326.645C465.263 320.468 464.021 314.219 460.986 308.79C458.16 303.581 454.601 299.117 451.945 294.506C449.459 290.222 447.627 285.59 446.51 280.765C444.906 273.778 444.787 266.533 446.159 259.497C446.659 256.923 447.416 254.405 448.419 251.982C448.389 252.152 448.344 252.318 448.284 252.48L447.832 253.915C447.448 255.18 446.939 257.079 446.453 259.565C445.19 266.569 445.378 273.758 447.007 280.686C448.14 285.453 449.98 290.023 452.465 294.246C455.121 298.767 458.692 303.287 461.584 308.519C464.694 314.058 465.971 320.438 465.235 326.747C464.568 333.278 462.353 339.708 460.217 346.229C458.081 352.749 456.16 359.224 455.923 365.677C455.822 371.892 456.66 378.087 458.409 384.051C459.957 389.792 461.856 395.126 463.494 400.177C465.09 404.84 466.374 409.605 467.336 414.438C469.133 423.321 468.625 430.824 467.336 435.695C466.832 437.573 466.155 439.4 465.314 441.153L464.613 442.498C464.516 442.646 464.402 442.782 464.274 442.904V442.904Z" fill="#263238"/>
<path d="M455.562 299.061C455.562 299.061 450.161 281.76 459.856 271.634C459.932 271.553 460.028 271.494 460.135 271.464C460.242 271.434 460.354 271.434 460.461 271.465C460.568 271.495 460.664 271.555 460.739 271.636C460.813 271.718 460.864 271.819 460.885 271.928C461.405 274.787 462.049 283.489 455.562 299.061Z" fill="#D64D54"/>
<path d="M458.805 277.397C458.788 278.469 458.667 279.536 458.444 280.584C458.082 282.788 457.664 285.364 457.212 288.212C456.76 291.06 456.342 293.647 455.991 295.84C455.893 296.908 455.704 297.967 455.426 299.004C455.32 297.935 455.343 296.858 455.494 295.794C455.675 293.817 456.025 291.105 456.511 288.121C456.997 285.138 457.528 282.471 457.946 280.516C458.111 279.447 458.399 278.4 458.805 277.397Z" fill="#263238"/>
<path d="M461.912 339.866C461.912 339.866 465.223 322.045 478.535 317.638C478.64 317.601 478.753 317.595 478.862 317.619C478.97 317.643 479.07 317.696 479.15 317.774C479.229 317.851 479.286 317.949 479.313 318.057C479.34 318.165 479.337 318.278 479.304 318.384C478.422 321.13 474.93 329.119 461.912 339.866Z" fill="#D64D54"/>
<path d="M474.909 322.215C474.393 323.156 473.787 324.045 473.101 324.87L468.434 331.029L463.8 337.21C463.217 338.107 462.555 338.951 461.823 339.73C462.235 338.736 462.767 337.795 463.405 336.928C464.535 335.267 466.072 333.029 467.925 330.622C469.778 328.215 471.462 326.102 472.739 324.565C473.374 323.704 474.101 322.916 474.909 322.215V322.215Z" fill="#263238"/>
<path d="M458.319 384.537C458.319 384.537 456.308 366.524 467.767 358.444C467.855 358.375 467.961 358.333 468.073 358.322C468.184 358.312 468.297 358.333 468.396 358.384C468.496 358.435 468.579 358.514 468.636 358.611C468.693 358.707 468.72 358.818 468.716 358.93C468.682 361.835 467.654 370.491 458.319 384.537Z" fill="#D64D54"/>
<path d="M465.664 363.891C465.454 364.943 465.132 365.97 464.703 366.953L462.037 374.208C461.042 376.92 460.149 379.373 459.392 381.463C459.102 382.492 458.724 383.494 458.262 384.458C458.367 383.386 458.602 382.331 458.963 381.316C459.517 379.418 460.375 376.796 461.426 373.971C462.477 371.146 463.506 368.603 464.285 366.784C464.645 365.775 465.107 364.806 465.664 363.891V363.891Z" fill="#263238"/>
<path d="M468.343 429.491C468.343 429.491 466.987 411.41 478.717 403.748C478.808 403.685 478.916 403.649 479.027 403.643C479.139 403.638 479.249 403.664 479.347 403.718C479.444 403.772 479.524 403.852 479.579 403.949C479.633 404.046 479.659 404.157 479.655 404.268C479.519 407.172 478.185 415.794 468.343 429.491Z" fill="#D64D54"/>
<path d="M476.389 409.127C476.136 410.171 475.776 411.185 475.315 412.155C474.479 414.212 473.484 416.676 472.388 419.309C471.292 421.942 470.331 424.394 469.495 426.462C469.161 427.482 468.733 428.469 468.218 429.411C468.368 428.343 468.645 427.296 469.043 426.292C469.665 424.417 470.614 421.84 471.767 419.049C472.919 416.258 474.027 413.749 474.874 411.963C475.277 410.967 475.784 410.016 476.389 409.127V409.127Z" fill="#263238"/>
<path d="M447.787 283.861C447.787 283.861 431.762 275.453 431.412 261.452C431.411 261.342 431.44 261.234 431.495 261.139C431.551 261.045 431.631 260.966 431.727 260.913C431.823 260.86 431.931 260.834 432.041 260.837C432.151 260.84 432.257 260.873 432.35 260.932C434.734 262.582 441.357 268.277 447.787 283.861Z" fill="#D64D54"/>
<path d="M434.746 266.266C435.498 267.035 436.169 267.879 436.746 268.786C438.057 270.583 439.583 272.708 441.266 275.047L445.787 281.285C446.475 282.105 447.088 282.987 447.617 283.918C446.791 283.23 446.051 282.445 445.414 281.579C444.137 280.064 442.464 277.895 440.701 275.442C438.939 272.99 437.39 270.719 436.328 269.058C435.705 268.185 435.175 267.249 434.746 266.266V266.266Z" fill="#263238"/>
<path d="M465.043 321.006C465.043 321.006 448.499 313.604 447.335 299.626C447.325 299.516 447.346 299.406 447.396 299.307C447.445 299.208 447.521 299.125 447.614 299.067C447.708 299.008 447.815 298.977 447.926 298.976C448.036 298.975 448.144 299.004 448.239 299.061C450.714 300.564 457.663 305.83 465.043 321.006Z" fill="#D64D54"/>
<path d="M450.974 304.236C451.771 304.953 452.491 305.752 453.121 306.62L458.026 312.598L462.941 318.553C463.678 319.333 464.343 320.176 464.93 321.073C464.063 320.433 463.274 319.694 462.58 318.87C461.224 317.423 459.416 315.367 457.506 313.027C455.596 310.688 453.924 308.507 452.748 306.914C452.06 306.089 451.465 305.191 450.974 304.236V304.236Z" fill="#263238"/>
<path d="M455.494 362.468C455.494 362.468 444.193 348.342 449.471 335.346C449.513 335.244 449.582 335.156 449.671 335.091C449.759 335.025 449.864 334.986 449.974 334.977C450.084 334.967 450.194 334.988 450.293 335.038C450.392 335.087 450.475 335.163 450.533 335.256C452.104 337.708 455.867 345.573 455.494 362.468Z" fill="#D64D54"/>
<path d="M450.612 341.087C450.999 342.091 451.279 343.132 451.448 344.194C451.923 346.364 452.477 348.918 453.087 351.743C453.697 354.568 454.274 357.111 454.748 359.28C455.051 360.31 455.259 361.366 455.37 362.433C454.874 361.472 454.494 360.456 454.24 359.405C453.686 357.495 453.008 354.885 452.375 351.879C451.742 348.873 451.245 346.228 450.929 344.285C450.707 343.233 450.6 342.161 450.612 341.087V341.087Z" fill="#263238"/>
<path d="M466.795 411.184C466.795 411.184 450.375 403.511 449.449 389.521C449.438 389.409 449.458 389.297 449.508 389.196C449.558 389.096 449.635 389.012 449.73 388.953C449.825 388.894 449.935 388.863 450.047 388.864C450.16 388.864 450.269 388.896 450.364 388.956C452.794 390.504 459.653 395.894 466.795 411.184Z" fill="#D64D54"/>
<path d="M452.974 394.176C453.751 394.917 454.454 395.731 455.076 396.606L459.879 402.651L464.693 408.697C465.417 409.488 466.067 410.343 466.636 411.251C465.795 410.591 465.036 409.832 464.376 408.991C463.032 407.522 461.269 405.431 459.393 403.058C457.517 400.685 455.89 398.482 454.737 396.866C454.047 396.041 453.455 395.138 452.974 394.176V394.176Z" fill="#263238"/>
<path d="M499.465 339.945C499.465 339.945 499.465 340.08 499.465 340.34C499.465 340.6 499.465 341.029 499.465 341.47C499.465 342.6 499.352 344.035 499.273 345.866C499.069 349.731 498.764 355.121 498.414 361.562C497.284 368.117 493.894 375.383 489.374 382.446C486.085 387.644 482.593 392.368 479.655 396.764C476.973 400.621 474.564 404.662 472.445 408.855C471.042 411.689 469.907 414.647 469.055 417.692C468.773 418.766 468.547 419.613 468.422 420.189C468.369 420.49 468.29 420.785 468.185 421.071C468.189 420.766 468.227 420.463 468.298 420.167C468.377 419.579 468.547 418.72 468.807 417.624C469.567 414.526 470.646 411.516 472.027 408.64C474.128 404.414 476.533 400.346 479.226 396.47C482.186 392.04 485.61 387.305 488.888 382.141C493.351 375.112 496.674 367.959 497.928 361.506C498.38 355.076 498.753 349.697 499.058 345.832C499.205 344.001 499.329 342.544 499.42 341.448C499.42 340.996 499.499 340.611 499.533 340.317C499.494 340.197 499.472 340.071 499.465 339.945V339.945Z" fill="#263238"/>
<path d="M489.689 381.147C489.689 381.147 496.639 364.422 487.904 353.449C487.836 353.361 487.745 353.294 487.641 353.255C487.538 353.215 487.425 353.206 487.316 353.227C487.207 353.248 487.106 353.299 487.024 353.374C486.942 353.449 486.883 353.546 486.853 353.653C486.073 356.455 484.638 365.055 489.689 381.147Z" fill="#D64D54"/>
<path d="M488.423 359.292C488.723 360.323 488.909 361.384 488.977 362.456C489.226 364.422 489.497 367.146 489.712 370.163C489.926 373.18 490.028 375.915 490.028 377.904C490.096 378.978 490.031 380.055 489.836 381.113C489.641 380.059 489.546 378.988 489.553 377.915C489.406 375.655 489.226 373.09 489.034 370.208C488.841 367.327 488.661 364.716 488.502 362.501C488.371 361.437 488.344 360.362 488.423 359.292V359.292Z" fill="#263238"/>
<g opacity="0.3">
<path d="M489.689 381.147C489.689 381.147 496.639 364.422 487.904 353.449C487.836 353.361 487.745 353.294 487.641 353.255C487.538 353.215 487.425 353.206 487.316 353.227C487.207 353.248 487.106 353.299 487.024 353.374C486.942 353.449 486.883 353.546 486.853 353.653C486.073 356.455 484.638 365.055 489.689 381.147Z" fill="black"/>
</g>
<path d="M468.162 421.479C468.162 421.479 473.733 404.234 464.128 394.019C464.053 393.937 463.958 393.878 463.852 393.847C463.746 393.817 463.633 393.816 463.527 393.845C463.421 393.875 463.324 393.933 463.249 394.013C463.173 394.093 463.122 394.193 463.099 394.301C462.557 397.149 461.822 405.85 468.162 421.479Z" fill="#D64D54"/>
<path d="M465.123 399.759C465.514 400.763 465.787 401.81 465.936 402.878C466.343 404.81 466.829 407.511 467.292 410.494C467.756 413.478 468.072 416.201 468.242 418.179C468.388 419.246 468.407 420.327 468.298 421.399C468.03 420.361 467.848 419.303 467.756 418.235C467.428 416.032 467.044 413.455 466.626 410.596C466.207 407.737 465.801 405.16 465.495 402.957C465.266 401.906 465.141 400.834 465.123 399.759Z" fill="#263238"/>
<g opacity="0.3">
<path d="M468.162 421.479C468.162 421.479 473.733 404.234 464.128 394.019C464.053 393.937 463.958 393.878 463.852 393.847C463.746 393.817 463.633 393.816 463.527 393.845C463.421 393.875 463.324 393.933 463.249 394.013C463.173 394.093 463.122 394.193 463.099 394.301C462.557 397.149 461.822 405.85 468.162 421.479Z" fill="black"/>
</g>
<path d="M498.549 360.705C498.549 360.705 513.386 350.309 511.895 336.364C511.883 336.254 511.842 336.15 511.775 336.062C511.708 335.975 511.618 335.907 511.515 335.868C511.412 335.828 511.3 335.817 511.192 335.837C511.083 335.857 510.983 335.906 510.9 335.979C508.742 337.923 502.956 344.387 498.549 360.705Z" fill="#D64D54"/>
<g opacity="0.3">
<path d="M498.549 360.705C498.549 360.705 513.386 350.309 511.895 336.364C511.883 336.254 511.842 336.15 511.775 336.062C511.708 335.975 511.618 335.907 511.515 335.868C511.412 335.828 511.3 335.817 511.192 335.837C511.083 335.857 510.983 335.906 510.9 335.979C508.742 337.923 502.956 344.387 498.549 360.705Z" fill="black"/>
</g>
<path d="M509.205 341.572C508.91 342.607 508.497 343.605 507.973 344.544C507.125 346.33 505.894 348.771 504.459 351.438C503.023 354.105 501.645 356.466 500.582 358.139C500.06 359.078 499.426 359.95 498.695 360.738C499.092 359.744 499.584 358.79 500.164 357.89C501.227 355.935 502.481 353.653 503.86 351.11L507.544 344.33C508.006 343.359 508.563 342.435 509.205 341.572Z" fill="#263238"/>
<path d="M474.151 404.381C474.151 404.381 492.051 401.59 496.842 388.413C496.881 388.311 496.891 388.199 496.871 388.091C496.85 387.983 496.801 387.883 496.727 387.801C496.654 387.719 496.559 387.659 496.454 387.628C496.349 387.596 496.237 387.594 496.13 387.622C493.339 388.459 485.248 391.679 474.151 404.381Z" fill="#D64D54"/>
<g opacity="0.3">
<path d="M474.151 404.381C474.151 404.381 492.051 401.59 496.842 388.413C496.881 388.311 496.891 388.199 496.871 388.091C496.85 387.983 496.801 387.883 496.727 387.801C496.654 387.719 496.559 387.659 496.454 387.628C496.349 387.596 496.237 387.594 496.13 387.622C493.339 388.459 485.248 391.679 474.151 404.381Z" fill="black"/>
</g>
<path d="M492.141 391.905C491.416 392.697 490.605 393.406 489.723 394.018C488.175 395.262 485.994 396.911 483.541 398.674C481.089 400.437 478.795 401.94 477.1 402.98C476.216 403.596 475.26 404.101 474.252 404.483C475.054 403.768 475.921 403.129 476.84 402.573L483.146 398.121L489.44 393.6C490.278 392.941 491.183 392.373 492.141 391.905V391.905Z" fill="#263238"/>
<path d="M457.065 437.333L451.844 472.478H484.39L480.175 437.333H457.065Z" fill="#455A64"/>
<path d="M481.485 448.216C481.485 448.408 475.609 448.555 468.365 448.555C461.121 448.555 455.234 448.408 455.234 448.216C459.602 447.881 463.985 447.768 468.365 447.877C472.741 447.768 477.12 447.882 481.485 448.216V448.216Z" fill="#263238"/>
<path d="M482.117 451.018C482.117 451.21 476.049 451.357 468.557 451.357C461.064 451.357 454.996 451.21 454.996 451.018C454.996 450.826 461.064 450.679 468.557 450.679C476.049 450.679 482.117 450.826 482.117 451.018Z" fill="#263238"/>
<path d="M355.563 96.3852C355.563 96.3852 355.258 96.3852 354.67 96.3852C353.812 96.3342 352.952 96.3342 352.094 96.3852C348.775 96.5795 345.514 97.344 342.454 98.6453C337.605 100.678 333.384 103.966 330.227 108.172C328.281 110.797 326.833 113.758 325.956 116.907C323.978 124.407 325.046 132.385 328.928 139.101C329.986 140.96 331.277 142.677 332.77 144.209C334.276 145.832 336.031 147.205 337.968 148.277C339.956 149.396 342.208 149.962 344.489 149.916C346.84 149.887 349.095 148.976 350.806 147.362C351.632 146.495 352.281 145.475 352.713 144.358C353.145 143.241 353.353 142.05 353.326 140.853C353.308 138.365 352.519 135.944 351.065 133.925C348.139 129.801 343.392 127.032 338.341 125.54C333.103 124.069 327.572 123.991 322.294 125.314C319.601 126.015 317.004 127.048 314.565 128.388C312.102 129.778 309.865 131.535 307.931 133.598C307.468 134.129 306.937 134.615 306.519 135.202L305.242 136.92C304.465 138.13 303.771 139.391 303.163 140.694C301.954 143.34 301.128 146.144 300.71 149.023C299.89 154.773 300.672 160.639 302.971 165.974C305.167 171.186 308.993 175.547 313.875 178.404C316.243 179.757 318.885 180.556 321.605 180.743C324.272 180.893 326.924 180.256 329.233 178.913C331.524 177.646 333.335 175.661 334.386 173.263C335.377 170.899 335.446 168.25 334.578 165.838C333.685 163.511 332.224 161.445 330.329 159.826C328.491 158.238 326.371 157.007 324.08 156.199C319.611 154.79 314.83 154.707 310.316 155.961C306.092 157.106 302.212 159.267 299.015 162.256C296.104 165.045 293.886 168.478 292.54 172.279C290.186 178.875 290.295 186.099 292.845 192.62C294.835 197.489 298.036 201.768 302.146 205.051C304.734 207.127 307.617 208.807 310.7 210.034C311.762 210.43 312.587 210.724 313.152 210.882L313.989 211.153C313.989 211.153 313.695 211.097 313.13 210.938C312.295 210.715 311.472 210.447 310.666 210.136C307.543 208.962 304.622 207.308 302.01 205.232C297.831 201.951 294.566 197.651 292.529 192.745C289.933 186.161 289.801 178.862 292.156 172.189C293.504 168.33 295.746 164.845 298.699 162.019C301.941 158.97 305.878 156.759 310.169 155.577C314.778 154.291 319.661 154.37 324.227 155.803C326.585 156.626 328.767 157.887 330.657 159.521C332.626 161.193 334.142 163.334 335.064 165.748C335.993 168.267 335.953 171.042 334.951 173.534C333.836 176.026 331.945 178.092 329.561 179.421C327.166 180.817 324.418 181.484 321.65 181.342C318.864 181.148 316.159 180.321 313.74 178.924C308.746 176.027 304.825 171.591 302.564 166.279C300.216 160.846 299.411 154.872 300.236 149.012C300.667 146.075 301.512 143.214 302.744 140.514C303.365 139.183 304.075 137.896 304.869 136.66L306.18 134.909C306.598 134.31 307.14 133.779 307.615 133.259C309.594 131.156 311.88 129.366 314.395 127.947C316.891 126.581 319.549 125.534 322.306 124.829C327.684 123.481 333.321 123.563 338.657 125.066C343.811 126.603 348.636 129.417 351.676 133.688C353.204 135.791 354.033 138.321 354.049 140.92C354.104 143.479 353.14 145.954 351.371 147.802C349.563 149.5 347.183 150.456 344.703 150.481C342.331 150.535 339.988 149.945 337.923 148.774C335.939 147.68 334.146 146.272 332.612 144.604C331.099 143.038 329.789 141.288 328.713 139.395C324.762 132.554 323.689 124.425 325.73 116.794C326.634 113.609 328.117 110.617 330.103 107.968C333.318 103.731 337.611 100.434 342.534 98.4193C345.618 97.1431 348.905 96.4239 352.241 96.2948C353.106 96.2377 353.974 96.2377 354.84 96.2948L355.563 96.3852Z" fill="#263238"/>
<path d="M393.295 209.459H234.851V331.662H393.295V209.459Z" fill="#D64D54"/>
<path d="M234.851 209.459L264.119 236.761H419.874L393.295 209.459H234.851Z" fill="#D64D54"/>
<path d="M234.851 209.458L393.341 209.176H393.465L393.555 209.255L419.863 236.274L420.134 236.557L420.62 237.054H419.919L264.165 236.93H264.097L234.851 209.458L264.232 236.58H264.108L419.863 236.466L419.66 236.964L419.377 236.681L393.081 209.662L393.284 209.752L234.851 209.458Z" fill="#263238"/>
<path d="M282.448 265.813C281.589 265.845 280.778 266.211 280.187 266.835C279.597 267.458 279.275 268.289 279.29 269.147C279.306 270.006 279.658 270.824 280.27 271.426C280.883 272.028 281.708 272.365 282.566 272.365C283.425 272.365 284.249 272.028 284.862 271.426C285.475 270.824 285.827 270.006 285.842 269.147C285.858 268.289 285.536 267.458 284.945 266.835C284.355 266.211 283.543 265.845 282.685 265.813" fill="#263238"/>
<path d="M319.887 265.813C319.033 265.846 318.225 266.213 317.638 266.834C317.05 267.456 316.73 268.284 316.747 269.139C316.763 269.994 317.114 270.808 317.725 271.407C318.335 272.006 319.156 272.342 320.012 272.342C320.867 272.342 321.688 272.006 322.298 271.407C322.909 270.808 323.26 269.994 323.276 269.139C323.293 268.284 322.973 267.456 322.386 266.834C321.798 266.213 320.99 265.846 320.136 265.813" fill="#263238"/>
<path d="M320.102 295.06C319.449 292.564 318.387 290.193 316.961 288.042C315.374 285.743 313.336 283.79 310.971 282.302C308.118 280.409 304.791 279.355 301.369 279.261C297.946 279.167 294.566 280.037 291.614 281.771C289.175 283.132 287.035 284.969 285.319 287.172C283.774 289.243 282.586 291.558 281.805 294.02C281.813 293.837 281.844 293.655 281.895 293.478C282.003 292.969 282.143 292.467 282.313 291.975C282.932 290.16 283.836 288.455 284.991 286.924C286.695 284.617 288.862 282.692 291.354 281.273C294.382 279.466 297.862 278.557 301.388 278.653C304.914 278.749 308.34 279.846 311.265 281.816C313.671 283.362 315.726 285.394 317.3 287.783C318.373 289.376 319.186 291.131 319.707 292.981C319.846 293.482 319.955 293.992 320.034 294.506C320.073 294.688 320.096 294.874 320.102 295.06V295.06Z" fill="#263238"/>
<path opacity="0.5" d="M235.213 210.803L263.238 246.332H393.296V236.76H264.12L235.213 210.803Z" fill="black"/>
<path d="M362.05 331.391C361.891 331.391 361.756 310.135 361.756 283.929C361.756 257.723 361.891 236.467 362.05 236.467C362.208 236.467 362.355 257.712 362.355 283.929C362.355 310.146 362.219 331.391 362.05 331.391Z" fill="#263238"/>
<path d="M386.934 303.683H372.966V319.47H386.934V303.683Z" fill="#F5F5F5"/>
<path d="M234.851 209.459L202.328 236.761H234.851V209.459Z" fill="#D64D54"/>
<g opacity="0.4">
<path d="M234.851 209.459L202.328 236.761H234.851V209.459Z" fill="black"/>
</g>
<path d="M397.974 331.662H215.799V472.173H397.974V331.662Z" fill="#D64D54"/>
<path opacity="0.3" d="M397.974 331.662H215.799V472.173H397.974V331.662Z" fill="black"/>
<path d="M352.331 471.178C352.173 471.178 352.037 439.865 352.037 401.239C352.037 362.614 352.173 331.289 352.331 331.289C352.489 331.289 352.625 362.603 352.625 401.239C352.625 439.876 352.489 471.178 352.331 471.178Z" fill="#263238"/>
<path d="M382.526 440.192H368.559V455.978H382.526V440.192Z" fill="#F5F5F5"/>
<path d="M292.066 332.035H271.375V362.015H292.066V332.035Z" fill="#263238"/>
<path d="M292.066 441.773H271.375V471.754H292.066V441.773Z" fill="#263238"/>
<path d="M396.392 331.662H395.918H394.55L389.296 331.718L369.938 331.809L306.101 331.956L242.242 331.876L222.896 331.786L217.641 331.729H216.262H215.799H216.262H217.641L222.896 331.673L242.242 331.583L306.101 331.492L369.938 331.583L389.296 331.673L394.55 331.729H395.918L396.392 331.662Z" fill="#263238"/>
<path d="M84.1821 88.3966L64.3384 83.5147H64.4853C59.3615 86.7739 53.4366 88.5533 47.365 88.6565C43.7705 88.6728 40.1938 88.151 36.7539 87.1083C30.706 85.1664 25.3404 81.5337 21.2914 76.6396C17.2423 71.7454 14.6789 65.7944 13.9042 59.4899C13.2958 54.7218 13.7437 49.8782 15.2162 45.3025C16.6887 40.7268 19.1497 36.5311 22.4248 33.0128C24.1464 31.1217 26.076 29.431 28.1768 27.9727C29.239 27.306 30.3013 26.6167 31.4087 26.0404L33.0925 25.2267L33.9287 24.8199L34.8102 24.5035C39.3478 22.7446 44.2155 22.0002 49.0714 22.3225C55.5793 22.745 61.8165 25.0846 66.9969 29.0463C72.1772 33.008 76.0689 38.4145 78.1815 44.5845C79.3552 48.036 79.9731 51.652 80.0122 55.2974C80.0405 61.3557 78.394 67.3039 75.2547 72.4854V72.3046C80.7693 82.2604 83.5493 87.2891 84.1708 88.3966C83.5267 87.2665 80.645 82.3282 74.9383 72.4741V72.3837V72.2933C77.9649 67.162 79.5282 61.2996 79.4585 55.3426C79.406 51.7555 78.7804 48.2 77.6052 44.8105C75.5156 38.7667 71.6895 33.4737 66.6059 29.5942C61.5223 25.7147 55.4072 23.421 49.0262 23.0005C44.2659 22.6903 39.4952 23.423 35.0475 25.1476L34.1886 25.4527L33.3637 25.8595L31.7138 26.6506C30.5838 27.2269 29.5893 27.8936 28.5384 28.5491C26.4781 29.9683 24.5829 31.6133 22.8881 33.4535C19.6729 36.9074 17.2563 41.0259 15.8092 45.5173C14.3622 50.0088 13.9202 54.7634 14.5145 59.4447C15.5621 68.0209 19.9622 75.8337 26.7529 81.1755C29.7889 83.5811 33.2343 85.4187 36.9234 86.5998C40.3016 87.6441 43.8178 88.1736 47.3537 88.1705C53.3525 88.1063 59.2176 86.3898 64.3045 83.2096H64.3723H64.4966L84.1821 88.3966Z" fill="#263238"/>
<path d="M44.1556 40.742L45.1613 57.3538C45.2015 58.009 45.4799 58.6269 45.944 59.0911C46.4082 59.5552 47.0261 59.8336 47.6814 59.8738C48.3708 59.9127 49.049 59.6861 49.5765 59.2406C50.104 58.795 50.4409 58.1643 50.5178 57.4781L52.3598 40.8324C52.3918 40.5346 52.3602 40.2334 52.2671 39.9487C52.1739 39.6641 52.0212 39.4024 51.8193 39.1813C51.6173 38.9601 51.3706 38.7843 51.0956 38.6657C50.8206 38.5471 50.5235 38.4883 50.224 38.4932H46.1897C45.9066 38.5016 45.6281 38.5672 45.371 38.6859C45.1139 38.8047 44.8834 38.9741 44.6935 39.1842C44.5035 39.3942 44.3579 39.6405 44.2655 39.9082C44.1731 40.1759 44.1357 40.4595 44.1556 40.742V40.742Z" fill="#D64D54"/>
<path d="M52.0658 69.1515C51.8129 69.9103 51.3408 70.5772 50.709 71.0678C50.0773 71.5584 49.3143 71.8507 48.5164 71.9077C47.7186 71.9648 46.9218 71.7841 46.2266 71.3885C45.5315 70.9929 44.9692 70.4 44.6108 69.6849C44.2525 68.9698 44.1142 68.1645 44.2134 67.3708C44.3125 66.5771 44.6448 65.8307 45.1681 65.2257C45.6914 64.6208 46.3822 64.1846 47.1534 63.9722C47.9245 63.7598 48.7413 63.7807 49.5006 64.0324C50.0054 64.1997 50.4722 64.4649 50.8745 64.8128C51.2767 65.1608 51.6063 65.5846 51.8446 66.0601C52.0828 66.5355 52.225 67.0533 52.263 67.5837C52.3009 68.1142 52.2339 68.647 52.0658 69.1515Z" fill="#D64D54"/>
</svg>
