<svg width="512" height="512" viewBox="0 0 512 512" fill="none" xmlns="http://www.w3.org/2000/svg">
<path d="M0 256C0 397.385 114.615 512 256 512C397.385 512 512 397.385 512 256C512 114.615 397.385 0 256 0C114.615 0 0 114.615 0 256Z" fill="#1877F2"/>
<path d="M384 256C384 185.6 326.4 128 256 128C185.6 128 128 185.6 128 256C128 320 174.4 372.8 235.2 382.4V292.8H203.2V256H235.2V227.2C235.2 195.2 254.4 177.6 283.2 177.6C297.6 177.6 312 180.8 312 180.8V212.8H296C280 212.8 275.2 222.4 275.2 232V256H310.4L304 292.8H273.6V384C337.6 374.4 384 320 384 256Z" fill="white"/>
</svg>
