<svg width="201" height="192" viewBox="0 0 201 192" fill="none" xmlns="http://www.w3.org/2000/svg">
<path d="M167.099 191.003C155.289 186.324 149.869 173.728 147.471 161.822C147.069 159.835 146.36 157.807 146.888 155.856C147.417 153.905 149.323 152.203 151.283 152.614C152.913 152.957 153.956 154.506 155.108 155.721C156.648 157.34 158.614 158.491 160.78 159.04C162.19 159.397 163.838 159.424 164.913 158.449C166.394 157.094 166.038 154.709 165.559 152.749L162.89 141.802C162.411 139.846 161.932 137.845 162.099 135.835C162.266 133.826 163.206 131.771 164.949 130.818C166.692 129.865 169.249 130.366 170.098 132.209C170.455 132.968 170.486 133.835 170.735 134.634C170.983 135.433 171.575 136.246 172.401 136.292C173.228 136.337 173.891 135.592 174.343 134.878C175.897 132.421 176.665 129.544 177.346 126.703C178.028 123.863 178.661 120.968 179.984 118.375C181.307 115.783 183.444 113.466 186.212 112.639C188.981 111.813 192.386 112.838 193.75 115.426C195.114 118.014 194.17 121.211 192.946 123.863C191.129 127.796 188.753 131.447 185.891 134.702C185.381 135.284 184.821 135.917 184.758 136.703C184.64 138.107 186.189 139.114 187.581 139.236C189.157 139.376 190.71 138.848 192.282 138.667C193.854 138.487 195.669 138.767 196.591 140.072C197.869 141.878 196.69 144.385 195.367 146.151C192.716 149.69 189.476 152.745 185.788 155.183C184.473 156.051 183.078 156.877 182.138 158.164C181.199 159.451 180.932 161.384 181.962 162.599C182.992 163.814 184.902 163.828 186.348 163.191C187.793 162.554 188.949 161.411 190.263 160.526C192.716 158.869 196.238 158.227 198.519 160.147C200.014 161.411 200.624 163.516 200.479 165.481C200.335 167.445 199.549 169.288 198.673 171.031C195.538 177.142 190.977 182.562 185.241 186.175C179.505 189.788 173.851 191.784 167.099 190.989" fill="#F5F5F5"/>
<path d="M168.391 182.873C168.826 175.974 169.656 169.105 170.879 162.301C171.18 160.495 171.49 158.708 171.81 156.94C172.117 155.183 172.424 153.44 172.83 151.751C173.613 148.513 174.575 145.321 175.712 142.19C176.773 139.196 177.893 136.391 178.959 133.776C180.025 131.161 181.073 128.745 182.12 126.581C183.752 123.159 185.655 119.873 187.811 116.754C188.57 115.652 189.188 114.812 189.617 114.252C189.825 113.987 189.988 113.775 190.105 113.615C190.157 113.539 190.218 113.469 190.286 113.407C190.243 113.49 190.193 113.568 190.137 113.642L189.685 114.297C189.279 114.875 188.678 115.724 187.937 116.835C185.838 119.981 183.975 123.278 182.364 126.699C181.339 128.862 180.309 131.278 179.252 133.893C178.196 136.508 177.094 139.313 176.041 142.312C174.918 145.437 173.967 148.621 173.192 151.85C172.79 153.53 172.487 155.26 172.18 157.022C171.873 158.783 171.566 160.571 171.254 162.378C170.032 169.168 169.194 176.021 168.743 182.905" fill="#E0E0E0"/>
<path d="M172.93 151.715C172.769 151.466 172.637 151.199 172.537 150.92C172.306 150.405 171.995 149.646 171.633 148.702C170.893 146.815 169.958 144.186 168.924 141.26C167.889 138.333 166.936 135.722 166.173 133.853C165.789 132.918 165.473 132.164 165.247 131.644C165.113 131.382 165.009 131.104 164.94 130.818C165.118 131.055 165.27 131.311 165.392 131.581C165.658 132.082 166.011 132.823 166.426 133.749C167.257 135.601 168.269 138.215 169.289 141.133C170.31 144.051 171.186 146.62 171.877 148.608L172.677 150.866C172.79 151.139 172.875 151.424 172.93 151.715Z" fill="#E0E0E0"/>
<path d="M197.024 141.011C196.71 141.163 196.382 141.284 196.044 141.372C195.412 141.58 194.495 141.883 193.37 142.276C191.112 143.071 188.055 144.281 184.726 145.767C181.398 147.253 178.444 148.73 176.339 149.859C175.282 150.419 174.438 150.893 173.855 151.214C173.561 151.4 173.252 151.56 172.929 151.692C173.193 151.465 173.477 151.264 173.779 151.092C174.343 150.726 175.17 150.215 176.213 149.628C178.29 148.436 181.235 146.919 184.573 145.424C187.418 144.141 190.327 143.006 193.289 142.023C194.423 141.648 195.358 141.386 195.999 141.219C196.333 141.115 196.676 141.046 197.024 141.011Z" fill="#E0E0E0"/>
<path d="M168.589 182.336C168.498 182.257 168.416 182.167 168.345 182.069L167.7 181.261C167.14 180.552 166.345 179.508 165.405 178.212C163.504 175.611 160.993 171.935 158.274 167.847C155.555 163.76 153.076 160.061 151.233 157.424L149.038 154.307C148.799 153.969 148.586 153.689 148.446 153.458C148.306 153.228 148.248 153.156 148.261 153.147C148.275 153.138 148.352 153.228 148.505 153.413L149.151 154.221C149.711 154.926 150.506 155.969 151.445 157.27C153.347 159.871 155.858 163.543 158.581 167.635C161.304 171.727 163.775 175.421 165.618 178.054L167.813 181.171L168.404 182.024C168.535 182.218 168.603 182.327 168.589 182.336Z" fill="#E0E0E0"/>
<path d="M199.535 163.593C199.444 163.678 199.343 163.751 199.233 163.81L198.329 164.365L195.019 166.379C192.219 168.082 188.384 170.476 184.153 173.127C179.921 175.778 176.055 178.14 173.223 179.784C171.809 180.606 170.653 181.256 169.849 181.694L168.919 182.191C168.813 182.256 168.699 182.306 168.58 182.34C168.671 182.255 168.773 182.182 168.883 182.123L169.786 181.568L173.097 179.554C175.897 177.851 179.731 175.457 183.967 172.806C188.204 170.155 192.061 167.798 194.892 166.154C196.306 165.332 197.458 164.677 198.266 164.239L199.197 163.746C199.302 163.68 199.416 163.628 199.535 163.593Z" fill="#E0E0E0"/>
<path d="M15.1658 53.4582L9.13287 84.5239L55.2237 93.4747L61.2567 62.409L15.1658 53.4582Z" fill="#EBEBEB"/>
<path d="M61.3306 62.8106C61.1723 62.9378 61.0013 63.0483 60.8203 63.1403L59.3208 64.0164L53.7522 67.1779L35.2668 77.4661L35.1177 77.5474L35.0048 77.4164L34.7293 77.0958L20.8822 60.7195L16.7226 55.7289L15.6071 54.374C15.4682 54.2216 15.3456 54.0551 15.2413 53.8772C15.3965 54.0157 15.5401 54.1667 15.6703 54.3289L16.8491 55.6477L21.1125 60.5524L35.0545 76.8384L35.33 77.159L35.0635 77.1093L53.6076 66.934L59.2395 63.899L60.7796 63.0951C60.9538 62.983 61.1383 62.8878 61.3306 62.8106Z" fill="#E0E0E0"/>
<path d="M9.20743 84.9271C9.13066 84.8323 13.4257 81.2508 18.7956 76.9196C24.1656 72.5884 28.578 69.1515 28.6503 69.2418C28.7226 69.3321 24.432 72.9181 19.0621 77.2493C13.6922 81.5805 9.2797 85.0084 9.20743 84.9271Z" fill="#E0E0E0"/>
<path d="M44.0466 71.8297C44.1504 71.7755 46.7564 76.6712 49.8591 82.7547C52.9618 88.8383 55.4007 93.8243 55.2787 93.8785C55.1568 93.9327 52.5689 89.0415 49.4617 82.9489C46.3544 76.8564 43.9427 71.8839 44.0466 71.8297Z" fill="#E0E0E0"/>
<path d="M79.8341 47.2292L50.6991 50.2777L48.3009 30.0354L77.4359 26.9824L79.8341 47.2292Z" fill="#F5F5F5"/>
<path d="M77.5579 27.1992C77.4894 27.3071 77.4091 27.4071 77.3185 27.4973L76.5959 28.3147L73.8861 31.291L64.876 41.0553L64.8037 41.1366L64.7089 41.0734L64.483 40.9289C60.048 38.0023 56.0284 35.3602 53.0928 33.4272L49.6559 31.1239L48.7526 30.4871C48.6413 30.4192 48.5369 30.3405 48.441 30.2522C48.5596 30.3047 48.673 30.3682 48.7797 30.4419L49.7327 31.0381C50.5817 31.5755 51.765 32.3343 53.2148 33.2646L64.6456 40.6985L64.8715 40.8431H64.7043C68.2452 37.0584 71.4382 33.6169 73.7732 31.1374L76.5372 28.2244C76.8533 27.8992 77.1062 27.6373 77.3004 27.4431C77.3798 27.3552 77.4659 27.2737 77.5579 27.1992Z" fill="#E0E0E0"/>
<path d="M50.821 50.5125C50.7578 50.4719 52.6276 47.464 54.9806 43.8012C57.3336 40.1385 59.2982 37.2029 59.3615 37.248C59.4247 37.2932 57.5549 40.292 55.2019 43.9593C52.8489 47.6266 50.8798 50.5532 50.821 50.5125Z" fill="#E0E0E0"/>
<path d="M69.0175 35.9789C69.0717 35.9293 71.5602 38.4539 74.5816 41.6244C77.603 44.7949 80.0012 47.4098 79.9561 47.4595C79.9109 47.5092 77.4134 44.9845 74.3919 41.8141C71.3705 38.6436 68.9633 36.0331 69.0175 35.9789Z" fill="#E0E0E0"/>
<path d="M39.4625 22.6919L23.3617 11.541L30.9672 0.236572L47.068 11.3829L39.4625 22.6919Z" fill="#F5F5F5"/>
<path d="M47.0273 11.5545C46.9451 11.5804 46.8603 11.597 46.7744 11.6042L46.0518 11.7036L43.3871 12.0333L34.5622 13.054H34.4899V12.9862C34.4899 12.9275 34.4583 12.8688 34.4403 12.8101L31.9111 4.0529C31.604 2.94187 31.3511 2.0386 31.1749 1.38825L30.9807 0.665635C30.9535 0.582003 30.9354 0.495701 30.9265 0.408203C30.9638 0.486683 30.994 0.568294 31.0169 0.652086C31.0711 0.83274 31.1478 1.07211 31.2382 1.37019C31.4324 2.01151 31.6898 2.91026 32.033 4.01225C32.6924 6.27042 33.5957 9.35509 34.5893 12.7649L34.639 12.9366L34.5487 12.8733L43.3736 11.9023L46.0473 11.6313L46.7744 11.5681C46.8583 11.5575 46.9428 11.553 47.0273 11.5545Z" fill="#E0E0E0"/>
<path d="M23.3211 11.7126C23.3211 11.6675 25.5792 10.9539 28.3523 10.1274C31.1253 9.30089 33.4196 8.66408 33.4332 8.70925C33.4467 8.75441 31.175 9.47251 28.3974 10.299C25.6199 11.1255 23.3346 11.7623 23.3211 11.7126Z" fill="#E0E0E0"/>
<path d="M38.8798 12.2952C38.9295 12.2952 39.0876 14.6573 39.2411 17.5793C39.3947 20.5014 39.4714 22.877 39.4218 22.8815C39.3721 22.886 39.2095 20.5195 39.0605 17.5974C38.9114 14.6753 38.8301 12.2952 38.8798 12.2952Z" fill="#E0E0E0"/>
<path d="M168.883 37.5281C168.89 34.766 168.259 32.0397 167.039 29.5612C165.82 27.0828 164.046 24.9191 161.854 23.2385C159.662 21.558 157.111 20.4058 154.401 19.8718C151.691 19.3378 148.895 19.4363 146.229 20.1596C143.563 20.883 141.101 22.2117 139.032 24.0423C136.964 25.8729 135.346 28.1561 134.304 30.7141C133.262 33.2722 132.825 36.0362 133.026 38.7909C133.226 41.5457 134.06 44.217 135.462 46.5969L135.512 46.6646C136.198 47.8253 137.061 48.6564 137.932 49.8758L148.352 63.6822C148.655 64.0818 149.046 64.4058 149.495 64.6288C149.944 64.8519 150.438 64.968 150.94 64.968C151.441 64.968 151.935 64.8519 152.384 64.6288C152.833 64.4058 153.225 64.0818 153.527 63.6822L163.78 50.1016C164.712 48.9992 165.582 47.8457 166.385 46.6466L166.417 46.6195C168.038 43.8642 168.889 40.7246 168.883 37.5281ZM150.931 45.3459C149.367 45.3459 147.839 44.8823 146.54 44.0139C145.24 43.1454 144.227 41.911 143.629 40.4668C143.03 39.0226 142.874 37.4335 143.179 35.9003C143.484 34.3672 144.236 32.9589 145.342 31.8536C146.447 30.7482 147.855 29.9955 149.389 29.6905C150.922 29.3856 152.511 29.5421 153.955 30.1403C155.399 30.7385 156.634 31.7515 157.502 33.0513C158.371 34.351 158.834 35.8791 158.834 37.4423C158.834 39.5384 158.001 41.5487 156.519 43.031C155.037 44.5132 153.027 45.3459 150.931 45.3459Z" fill="#F5F5F5"/>
<path d="M182.613 68.3386C182.622 66.8451 182.287 65.3696 181.631 64.0275C180.976 62.6853 180.02 61.5129 178.836 60.6019C177.653 59.6909 176.275 59.066 174.809 58.7761C173.344 58.4862 171.832 58.5391 170.391 58.9307C168.95 59.3222 167.618 60.0419 166.502 61.0334C165.385 62.0248 164.512 63.2612 163.952 64.6458C163.393 66.0305 163.161 67.5258 163.275 69.015C163.389 70.5041 163.846 71.9466 164.61 73.2298L164.637 73.2659C165.008 73.8892 165.473 74.3408 165.943 74.9957L171.566 82.4431C171.728 82.6591 171.938 82.8344 172.18 82.9551C172.422 83.0758 172.689 83.1386 172.959 83.1386C173.229 83.1386 173.496 83.0758 173.737 82.9551C173.979 82.8344 174.19 82.6591 174.352 82.4431L179.88 75.1176C180.384 74.5243 180.855 73.9031 181.289 73.2569V73.2298C182.16 71.7471 182.617 70.058 182.613 68.3386ZM172.929 72.5523C172.087 72.5514 171.264 72.3009 170.565 71.8324C169.865 71.3638 169.32 70.6984 168.998 69.9201C168.676 69.1418 168.593 68.2856 168.757 67.4598C168.922 66.6339 169.328 65.8755 169.924 65.2803C170.52 64.6851 171.279 64.28 172.105 64.116C172.931 63.952 173.787 64.0366 174.565 64.3591C175.343 64.6816 176.008 65.2275 176.475 65.9277C176.943 66.628 177.193 67.4513 177.193 68.2934C177.193 68.8531 177.083 69.4073 176.868 69.9243C176.654 70.4413 176.34 70.911 175.944 71.3065C175.548 71.702 175.078 72.0157 174.561 72.2294C174.043 72.4432 173.489 72.5529 172.929 72.5523Z" fill="#EBEBEB"/>
<path d="M200.457 191.039C200.457 191.106 155.691 191.156 100.483 191.156C45.2751 191.156 0.5 191.106 0.5 191.039C0.5 190.971 45.257 190.921 100.483 190.921C155.709 190.921 200.457 190.975 200.457 191.039Z" fill="#263238"/>
<path d="M73.0867 35.3015L76.0584 77.3938C76.2939 80.7063 77.7762 83.8064 80.2067 86.0692C82.6371 88.3321 85.8351 89.5895 89.1559 89.588C90.9534 89.5883 92.7318 89.2193 94.3809 88.504C96.0299 87.7887 97.5145 86.7423 98.7425 85.4296C99.9705 84.1169 100.916 82.566 101.52 80.8729C102.124 79.1799 102.373 77.3808 102.253 75.5873C101.991 71.5813 101.752 68.3024 101.752 68.3024C101.752 68.3024 111.945 66.7172 112.072 56.5283C112.144 50.6571 111.128 37.2887 110.265 27.0592C109.98 23.7234 108.453 20.6162 105.987 18.3523C103.521 16.0883 100.294 14.8326 96.9466 14.8334H90.7727C88.2547 14.9803 85.7918 15.6308 83.5297 16.7466C81.2676 17.8623 79.2524 19.4206 77.6033 21.3291C75.9542 23.2376 74.7047 25.4575 73.9289 27.8575C73.1531 30.2576 72.8667 32.7888 73.0867 35.3015Z" fill="#B78876"/>
<path d="M101.761 68.176C101.761 68.176 95.3206 68.6999 88.4784 64.4003C88.4784 64.4003 91.6172 71.7349 101.784 70.8181L101.761 68.176Z" fill="#AA6550"/>
<path d="M107.081 39.3933C107.085 39.7729 106.94 40.1389 106.678 40.4131C106.415 40.6874 106.056 40.8482 105.677 40.8611C105.492 40.8759 105.306 40.8535 105.13 40.7952C104.953 40.737 104.791 40.6442 104.651 40.5221C104.511 40.4001 104.397 40.2513 104.316 40.0846C104.235 39.9179 104.188 39.7366 104.177 39.5514C104.173 39.1721 104.317 38.8063 104.579 38.5314C104.84 38.2565 105.198 38.0943 105.577 38.079C105.763 38.0643 105.949 38.0868 106.126 38.1453C106.303 38.2037 106.466 38.2969 106.606 38.4194C106.746 38.5418 106.861 38.6911 106.942 38.8583C107.024 39.0256 107.071 39.2075 107.081 39.3933Z" fill="#263238"/>
<path d="M108.49 37.2977C108.31 37.4874 107.208 36.6745 105.645 36.679C104.082 36.6835 102.935 37.4648 102.759 37.2751C102.678 37.1893 102.863 36.8235 103.36 36.4803C104.038 36.0117 104.844 35.764 105.668 35.7712C106.479 35.7679 107.27 36.0243 107.926 36.5028C108.418 36.8732 108.581 37.2164 108.49 37.2977Z" fill="#263238"/>
<path d="M91.8025 39.3933C91.8063 39.7729 91.6615 40.1389 91.3991 40.4131C91.1366 40.6874 90.7773 40.8482 90.398 40.8611C90.213 40.8758 90.027 40.8534 89.8509 40.7952C89.6748 40.737 89.5121 40.6441 89.3723 40.5221C89.2326 40.4001 89.1187 40.2513 89.0374 40.0846C88.956 39.9179 88.9088 39.7366 88.8985 39.5514C88.8947 39.1713 89.0394 38.8048 89.3017 38.5299C89.5641 38.2549 89.9233 38.0931 90.3031 38.079C90.4883 38.0649 90.6744 38.0879 90.8505 38.1466C91.0267 38.2054 91.1894 38.2987 91.329 38.4211C91.4687 38.5435 91.5825 38.6925 91.6638 38.8594C91.7451 39.0264 91.7923 39.2079 91.8025 39.3933Z" fill="#263238"/>
<path d="M93.1031 37.5868C92.9225 37.7764 91.816 36.959 90.2533 36.9635C88.6907 36.968 87.5435 37.7539 87.3674 37.5597C87.2861 37.4739 87.4667 37.1351 87.968 36.7693C88.6472 36.3031 89.4521 36.0542 90.2759 36.0557C91.0864 36.0586 91.8759 36.3144 92.5341 36.7874C93.0264 37.1622 93.1889 37.5055 93.1031 37.5868Z" fill="#263238"/>
<path d="M98.7848 49.2028C98.7848 49.1125 99.7513 48.9454 101.327 48.7512C101.725 48.706 102.104 48.6293 102.172 48.3538C102.207 47.9413 102.114 47.5283 101.906 47.1705C101.532 46.204 101.138 45.1893 100.722 44.1265C99.0829 39.7908 97.8906 36.2274 98.0667 36.1641C98.2428 36.1009 99.7152 39.5604 101.359 43.8916C101.754 44.9635 102.131 45.9857 102.493 46.9582C102.642 47.4098 102.904 47.9247 102.696 48.5254C102.639 48.6665 102.551 48.7925 102.437 48.8936C102.323 48.9947 102.188 49.068 102.041 49.108C101.821 49.1707 101.593 49.2027 101.364 49.2028C99.7739 49.2841 98.7893 49.2932 98.7848 49.2028Z" fill="#263238"/>
<path d="M94.178 50.2867C94.4309 50.2867 94.4354 51.9713 95.8897 53.1772C97.3439 54.3831 99.1505 54.1979 99.164 54.4327C99.1911 54.5411 98.7621 54.7624 97.9988 54.785C97.0028 54.799 96.0338 54.4616 95.2619 53.8321C94.5209 53.2269 94.0447 52.357 93.9341 51.4068C93.8709 50.6842 94.0606 50.2777 94.178 50.2867Z" fill="#263238"/>
<path d="M93.5051 31.4536C93.3515 31.9052 91.7888 31.6794 89.9507 31.9052C88.1125 32.131 86.6267 32.6278 86.3828 32.2439C86.2744 32.0633 86.5318 31.6613 87.1325 31.2503C87.9311 30.7457 88.8341 30.4294 89.7731 30.3253C90.712 30.2213 91.6623 30.3322 92.5521 30.6497C93.2521 30.9206 93.5728 31.2639 93.5051 31.4536Z" fill="#263238"/>
<path d="M107.917 32.7678C107.641 33.1246 106.562 32.7678 105.266 32.7362C103.97 32.7046 102.872 32.9756 102.619 32.6052C102.506 32.4246 102.678 32.0678 103.161 31.7291C103.806 31.3254 104.556 31.1227 105.316 31.1468C106.076 31.1709 106.811 31.4208 107.429 31.8645C107.885 32.2259 108.039 32.6188 107.917 32.7678Z" fill="#263238"/>
<path d="M76.5418 42.9477C76.3656 42.8709 69.5414 40.8792 69.7672 47.8434C69.993 54.8076 76.9347 53.1501 76.9437 52.9469C76.9527 52.7436 76.5418 42.9477 76.5418 42.9477Z" fill="#B78876"/>
<path d="M74.7081 50.377C74.6765 50.377 74.5907 50.4674 74.3874 50.5667C74.1037 50.698 73.7805 50.7158 73.4842 50.6164C72.739 50.368 72.0841 49.2208 72.0073 47.9653C71.9726 47.3689 72.0697 46.7721 72.2918 46.2175C72.3524 45.9956 72.4665 45.7919 72.6239 45.6242C72.7814 45.4565 72.9775 45.3299 73.1951 45.2555C73.3336 45.2144 73.4822 45.223 73.615 45.2799C73.7478 45.3368 73.8565 45.4384 73.9222 45.5671C74.0216 45.7568 73.981 45.8968 74.0171 45.9104C74.0532 45.9239 74.1661 45.7884 74.0984 45.4994C74.0536 45.3289 73.9516 45.179 73.8093 45.0748C73.7125 45.005 73.6027 44.9551 73.4864 44.928C73.3702 44.9008 73.2496 44.897 73.1319 44.9168C72.848 44.983 72.5857 45.1207 72.37 45.3167C72.1542 45.5127 71.992 45.7606 71.8989 46.0368C71.6242 46.6504 71.5018 47.3213 71.5421 47.9924C71.6324 49.397 72.3912 50.7022 73.4074 50.9461C73.5966 50.9947 73.7943 51 73.9859 50.9617C74.1774 50.9234 74.3579 50.8424 74.5139 50.7248C74.6991 50.5487 74.7352 50.3906 74.7081 50.377Z" fill="#AA6550"/>
<path d="M72.6487 42.7128C73.7101 42.4554 75.5482 43.4354 75.9998 44.429C76.4515 45.4226 76.5508 46.5517 77.0025 47.5498C77.4541 48.548 78.4748 49.4422 79.5407 49.1893C79.9008 49.0766 80.2246 48.8706 80.4793 48.5921C80.7339 48.3137 80.9103 47.9728 80.9904 47.604C81.144 46.8599 81.1517 46.093 81.013 45.3459C80.602 42.0941 79.92 38.8694 79.7891 35.5906C79.6581 32.3117 80.1233 28.9109 81.844 26.1062C83.5647 23.3016 86.7217 21.2602 89.9734 21.5266C92.1368 21.6983 94.1239 22.8274 96.2737 23.1299C97.5546 23.2994 98.8572 23.1747 100.083 22.7654C101.308 22.3561 102.424 21.673 103.346 20.7679C103.581 20.5376 104.665 19.8195 104.665 19.8195C104.665 19.6524 104.507 18.1981 103.933 17.6652C99.6655 13.7224 91.9787 12.6204 86.3423 14.0521C80.7059 15.4838 75.4218 19.4717 72.9965 24.7287C70.5712 29.9858 71.2938 37.3745 72.6306 42.7038" fill="#263238"/>
<path d="M110.36 25.51C110.36 25.51 83.6325 16.929 72.0706 40.0346C72.0706 40.0346 70.3409 34.2492 70.3409 31.1464C70.3409 29.0734 71.5783 16.7348 84.2783 12.8507C84.2783 12.8507 103.405 5.55229 110.36 25.51Z" fill="#ED7801"/>
<path d="M87.381 26.0882C87.8558 26.8538 88.502 27.4987 89.2686 27.9719C90.0352 28.4452 90.9013 28.7339 91.7985 28.8154C92.6958 28.8968 93.5996 28.7688 94.4389 28.4413C95.2782 28.1138 96.03 27.5958 96.635 26.9282C96.9007 27.5927 97.3678 28.1573 97.9706 28.543C98.5735 28.9286 99.282 29.1159 99.9967 29.0785C100.711 29.0412 101.396 28.7811 101.956 28.3347C102.515 27.8883 102.921 27.278 103.116 26.5895C103.841 27.3971 104.727 28.0434 105.717 28.4863C106.734 28.8612 108.021 28.7167 108.685 27.8676C109.348 27.0185 109.168 25.6772 108.499 24.801C107.769 23.9725 106.835 23.3497 105.79 22.9945C102.621 21.601 99.1391 21.0742 95.7001 21.4679C92.2902 21.9196 88.9888 23.5816 86.8571 26.2824" fill="#263238"/>
<g opacity="0.4">
<path d="M110.36 25.51C108.137 23.1669 105.088 21.7818 101.86 21.6486C93.9748 21.3008 79.2199 25.7358 72.0525 40.0346C72.0525 40.0346 70.3227 34.2492 70.3227 31.1464C70.3227 29.0734 71.5602 16.7348 84.2601 12.8507C84.2782 12.8507 103.405 5.55229 110.36 25.51Z" fill="black"/>
</g>
<path d="M73.1862 37.3293C77.147 31.2639 82.6118 26.2507 88.7585 22.4254C94.9053 18.6 105.063 14.7928 112.063 12.9411C114.167 12.381 116.358 11.8933 118.503 12.2636C120.648 12.634 122.744 14.0702 123.272 16.1703C123.941 18.8123 119.253 22.8861 117.053 24.4848C114.854 26.0836 110.36 28.4367 110.36 28.4367C110.36 28.4367 110.423 23.5409 102.583 22.5338C91.9245 21.1382 73.1862 37.3293 73.1862 37.3293Z" fill="#ED7801"/>
<path d="M95.1084 17.3535C95.1084 17.3535 98.9563 15.2218 102.827 14.725C102.18 14.2226 101.475 13.801 100.727 13.4695C98.6259 13.8167 96.5947 14.4999 94.711 15.4928L95.1084 17.3535Z" fill="#E0E0E0"/>
<path d="M116.8 77.0867L108.323 75.217L104.873 74.3543L102 69.9012C102 69.9012 100.645 77.8635 95.5013 82.1495C94.8047 82.7194 93.9883 83.1243 93.1131 83.3339C92.2379 83.5435 91.3266 83.5524 90.4475 83.3599C89.2868 83.116 87.9229 82.818 86.9112 82.547C86.6944 82.4883 86.4596 82.4115 86.2067 82.3212C82.4877 80.9402 79.3892 78.2681 77.4766 74.7924C76.3384 72.7691 75.3765 70.6916 75.7061 69.9012L71.6821 78.2339L47.9713 89.1544L34.508 122.042L60.599 129.756L61.4119 156.854L56.4981 191.016L130.309 191.066L127.689 115.06" fill="#ED7801"/>
<path d="M97.7189 106.511C97.5686 106.523 97.4175 106.523 97.2672 106.511L95.953 106.479L91.2605 106.312H91.1702V106.235C91.0934 104.198 90.9985 101.787 90.8947 99.2078C90.7727 95.4908 90.6643 92.1307 90.5785 89.6602C90.5514 88.4589 90.5288 87.4788 90.5108 86.7652C90.5108 86.4446 90.5108 86.1826 90.5108 85.9794C90.4991 85.8879 90.4991 85.7954 90.5108 85.7039C90.5316 85.7927 90.5422 85.8837 90.5424 85.9749C90.5424 86.1826 90.574 86.4265 90.5921 86.7607C90.6282 87.4743 90.6779 88.4544 90.7366 89.6512C90.8359 92.1216 90.9714 95.4818 91.1205 99.1942C91.2108 101.778 91.2921 104.189 91.3644 106.226L91.265 106.131L95.9575 106.38L97.2672 106.466C97.419 106.464 97.5704 106.479 97.7189 106.511Z" fill="#263238"/>
<path d="M93.7038 95.5315C93.8073 95.4589 93.9297 95.4181 94.0561 95.4141C94.3493 95.3949 94.6418 95.4611 94.8983 95.6045C95.1547 95.748 95.3642 95.9626 95.5013 96.2225C95.6301 96.476 95.676 96.7635 95.6323 97.0445C95.5841 97.3628 95.4445 97.6604 95.2305 97.9009C95.0164 98.1414 94.7371 98.3146 94.4264 98.3994C94.112 98.4653 93.7854 98.4433 93.4826 98.3357C93.1799 98.2282 92.9126 98.0392 92.7102 97.7897C92.5462 97.5886 92.4314 97.352 92.3749 97.0988C92.3185 96.8455 92.3219 96.5826 92.385 96.3309C92.4551 95.9883 92.6248 95.6741 92.8728 95.4276C93.0444 95.2605 93.1709 95.2063 93.1754 95.2199C93.1799 95.2334 93.0851 95.3147 92.9405 95.4908C92.7404 95.7381 92.6053 96.0316 92.5476 96.3444C92.5017 96.5696 92.5071 96.8023 92.5634 97.0251C92.6197 97.2479 92.7255 97.4552 92.8728 97.6316C93.0534 97.8446 93.2876 98.0055 93.5512 98.0976C93.8148 98.1897 94.0983 98.2097 94.3722 98.1555C94.6388 98.0803 94.8785 97.9308 95.0632 97.7245C95.248 97.5182 95.3701 97.2635 95.4155 96.9903C95.453 96.7663 95.4277 96.5363 95.3424 96.3258C95.2571 96.1153 95.1151 95.9326 94.9322 95.798C94.6844 95.6001 94.3777 95.4905 94.0606 95.4863C93.8257 95.5044 93.7038 95.5496 93.7038 95.5315Z" fill="#263238"/>
<path d="M92.9044 85.9884C93.0088 85.8968 93.1374 85.8372 93.2747 85.8168C93.6497 85.7376 94.0406 85.7952 94.3767 85.9794C94.6152 86.101 94.8188 86.2813 94.9684 86.5033C95.142 86.7633 95.229 87.0716 95.2168 87.384C95.2026 87.7402 95.0811 88.0838 94.8684 88.3699C94.6557 88.656 94.3615 88.8712 94.0245 88.9873C93.6798 89.0755 93.3168 89.0599 92.981 88.9426C92.6451 88.8253 92.3514 88.6115 92.1366 88.3279C91.946 88.0832 91.8314 87.788 91.8069 87.4788C91.7928 87.2123 91.836 86.9459 91.9334 86.6975C92.0735 86.344 92.3217 86.0437 92.6424 85.8394C92.7541 85.7558 92.8873 85.7057 93.0263 85.6949C93.0263 85.6949 92.8954 85.7626 92.6966 85.9162C92.4173 86.1311 92.2069 86.4231 92.0915 86.7562C92.0008 86.9948 91.9732 87.2526 92.0111 87.505C92.0491 87.7573 92.1514 87.9956 92.3082 88.1969C92.499 88.4404 92.7562 88.6233 93.0488 88.7235C93.3414 88.8237 93.6568 88.8369 93.9567 88.7615C94.2475 88.6583 94.5015 88.4718 94.687 88.2252C94.8726 87.9787 94.9814 87.683 95 87.375C95.012 87.1218 94.9527 86.8704 94.829 86.6493C94.7052 86.4281 94.522 86.2461 94.3 86.1239C93.9964 85.945 93.6431 85.869 93.2928 85.9071C93.0444 85.9388 92.9134 86.0065 92.9044 85.9884Z" fill="#263238"/>
<path d="M90.5018 122.44C90.5018 122.44 90.5379 122.417 90.6147 122.39L90.9534 122.259C91.256 122.155 91.6851 121.966 92.2316 121.713C93.7576 120.943 95.1585 119.948 96.3866 118.759C98.192 116.981 99.7876 115.002 101.142 112.861C102.836 110.258 104.383 107.562 105.776 104.786C108.281 99.7255 110.478 94.5193 112.356 89.1951C113.093 87.1537 113.666 85.4962 114.068 84.3536L114.52 83.0348C114.569 82.8993 114.615 82.7864 114.646 82.6961C114.659 82.6569 114.676 82.6191 114.696 82.5832C114.693 82.6249 114.683 82.6659 114.669 82.7051C114.642 82.7954 114.606 82.9083 114.565 83.0529C114.461 83.3735 114.321 83.8161 114.145 84.4078C113.77 85.5594 113.219 87.226 112.496 89.2719C110.667 94.6105 108.491 99.8244 105.984 104.88C104.588 107.664 103.031 110.365 101.323 112.969C99.9524 115.122 98.3334 117.106 96.4995 118.881C95.2518 120.068 93.8253 121.051 92.2722 121.794C91.8473 121.989 91.4115 122.159 90.967 122.304L90.6192 122.413C90.5817 122.428 90.5421 122.437 90.5018 122.44Z" fill="#263238"/>
<path d="M106.052 113.421C106.246 113.421 110.74 113.114 110.74 113.114C110.74 113.114 108.883 116.393 106.95 117.63H103.017L106.052 113.421Z" fill="#FAFAFA"/>
<path d="M89.7159 132.371C89.7928 132.298 89.8776 132.232 89.9688 132.177L90.7275 131.653C91.3824 131.202 92.3263 130.524 93.4599 129.653C95.7181 127.923 98.726 125.339 101.942 122.386C103.549 120.909 105.103 119.518 106.431 118.181C107.622 117.009 108.729 115.753 109.741 114.423C110.421 113.526 111.025 112.575 111.548 111.578C111.747 111.23 111.869 110.946 111.963 110.756C112.006 110.656 112.059 110.561 112.121 110.472C112.092 110.575 112.055 110.677 112.009 110.774C111.927 110.968 111.814 111.262 111.629 111.619C111.133 112.638 110.545 113.61 109.872 114.523C108.873 115.875 107.773 117.149 106.58 118.335C105.248 119.689 103.703 121.085 102.095 122.557C98.8795 125.511 95.8671 128.085 93.5593 129.783C92.4076 130.637 91.4456 131.287 90.7772 131.726C90.4385 131.942 90.172 132.1 89.9913 132.213C89.9058 132.276 89.8133 132.329 89.7159 132.371Z" fill="#263238"/>
<path d="M77.052 182.562C77.052 182.562 77.052 182.521 77.1062 182.453C77.1604 182.385 77.2191 182.277 77.2913 182.155C77.4584 181.898 77.7114 181.518 78.0501 181.04C78.7275 180.091 79.7753 178.754 81.1573 177.183C83.9394 174.062 87.837 169.803 92.1275 165.088L103.188 153.034L106.553 149.421L107.456 148.441L107.7 148.192L107.79 148.111C107.79 148.111 107.768 148.147 107.718 148.206L107.492 148.472L106.589 149.484L103.278 153.165L92.3037 165.232L81.2838 177.282C79.8882 178.836 78.8224 180.15 78.1223 181.08C77.7746 181.532 77.5081 181.916 77.332 182.169L77.1287 182.453C77.1061 182.491 77.0804 182.528 77.052 182.562Z" fill="#263238"/>
<path d="M116.213 76.879C116.602 77.4616 125.327 78.4326 127.464 80.5643C129.6 82.6961 150.949 98.991 150.949 98.991L135.733 119.468L125.914 117.305L116.213 76.879Z" fill="#ED7801"/>
<path opacity="0.4" d="M148.361 97.0039L131.302 118.493L135.733 119.468L150.93 98.9685L148.361 97.0039Z" fill="black"/>
<path d="M120.861 98.1961C120.784 97.963 120.725 97.7245 120.684 97.4825C120.635 97.2522 120.576 96.9677 120.535 96.6335C120.495 96.2993 120.427 95.9199 120.404 95.4954C120.382 95.0708 120.337 94.5921 120.337 94.1088C120.337 93.6256 120.337 93.0791 120.377 92.5191C120.465 91.3012 120.654 90.0926 120.942 88.906C121.249 87.7252 121.656 86.5725 122.157 85.46C122.396 84.9542 122.608 84.4664 122.866 84.0329C123.123 83.5993 123.345 83.1973 123.575 82.8405C123.805 82.4838 124.027 82.1766 124.225 81.9011C124.39 81.6649 124.566 81.4372 124.754 81.2192C124.902 81.023 125.066 80.8402 125.246 80.6727C125.123 80.8841 124.982 81.085 124.826 81.2734C124.686 81.4631 124.514 81.6934 124.334 81.9779C124.153 82.2625 123.923 82.565 123.715 82.9309C123.507 83.2967 123.263 83.6851 123.038 84.1277C122.812 84.5703 122.586 85.031 122.356 85.5458C121.88 86.6539 121.49 87.7969 121.19 88.9647C120.909 90.1362 120.717 91.3275 120.617 92.5281C120.585 93.0836 120.544 93.612 120.558 94.1043C120.572 94.5966 120.558 95.0573 120.594 95.4592C120.63 95.8612 120.657 96.2586 120.689 96.5928C120.721 96.927 120.761 97.2116 120.797 97.4419C120.843 97.6907 120.864 97.9433 120.861 98.1961Z" fill="#263238"/>
<path d="M127.689 115.033C126.99 113.677 126.361 112.286 125.806 110.865C125.177 109.476 124.619 108.056 124.135 106.61C124.834 107.965 125.465 109.355 126.023 110.774C126.653 112.163 127.209 113.585 127.689 115.033Z" fill="#263238"/>
<path d="M60.599 100.156C60.5629 100.156 60.197 99.5014 59.506 98.4852C58.6044 97.1616 57.5725 95.9315 56.4259 94.8134C55.2735 93.7038 54.0149 92.7099 52.6683 91.8462C51.6295 91.1868 50.9476 90.8435 50.9656 90.8074C51.1387 90.8552 51.3055 90.9234 51.4624 91.0107C51.9044 91.2206 52.3355 91.4528 52.7541 91.7062C54.1434 92.5341 55.4317 93.5208 56.593 94.6463C57.7504 95.7752 58.7748 97.0329 59.646 98.3949C59.9757 98.9188 60.2241 99.3524 60.3777 99.664C60.4714 99.8184 60.5457 99.9837 60.599 100.156Z" fill="#263238"/>
<path opacity="0.4" d="M34.508 122.029L35.5603 119.468L64.4198 127.327L63.2772 130.538L34.508 122.029Z" fill="black"/>
<path d="M111.552 111.908H122.541V116.424L108.481 116.334C108.481 116.334 110.654 113.719 111.552 111.908Z" fill="#FAFAFA"/>
<g opacity="0.2">
<path d="M72.3596 79.2275C72.757 82.7502 73.1906 86.3859 74.9339 89.4751C76.6772 92.5643 80.0871 94.9986 83.5963 94.4792C85.9357 94.1314 87.9184 92.5688 89.5127 90.8164C91.1069 89.0641 92.4438 87.0814 94.1826 85.4781C95.2341 86.6106 96.4097 87.6211 97.6873 88.4905C98.9779 89.3649 100.528 89.7742 102.082 89.6512C103.613 89.4661 104.457 88.8563 104.941 87.3931C103.306 87.8989 102.407 87.8221 100.776 87.5105C98.9762 87.1654 97.2858 86.3907 95.8491 85.2523C94.8916 84.4981 94.5439 83.3645 93.329 83.4458C92.2044 83.509 91.3237 84.3987 90.583 85.2523C89.3873 86.6212 88.0757 87.8844 86.6629 89.028C85.308 90.0983 83.9982 90.8345 82.273 90.7848C79.4322 90.7216 77.1063 88.4905 75.5391 86.1194C74.0925 83.9333 73.0238 81.5196 72.3777 78.9791" fill="black"/>
</g>
<path d="M105.618 74.8331C105.644 74.9153 105.661 75.0001 105.668 75.086C105.668 75.2531 105.722 75.497 105.754 75.8131C105.821 76.4454 105.889 77.3622 105.916 78.5229C105.977 81.4918 105.694 84.4578 105.072 87.3614V87.4337V87.5059H105.004C103.398 87.8823 101.723 87.8372 100.14 87.375C98.8453 87.029 97.6222 86.4572 96.5267 85.6858C95.7852 85.1819 95.1204 84.5734 94.553 83.8793C94.4004 83.6919 94.2586 83.4958 94.1285 83.2922C94.0779 83.2227 94.034 83.1486 93.9975 83.0709C94.7343 84.0343 95.6183 84.8757 96.617 85.5639C97.7067 86.2999 98.913 86.8466 100.185 87.1807C101.734 87.6183 103.368 87.6571 104.936 87.2937L104.85 87.3795V87.3072C105.465 84.4184 105.768 81.4719 105.754 78.5184C105.754 77.3848 105.704 76.468 105.668 75.8312C105.668 75.5376 105.636 75.2982 105.623 75.104C105.608 75.0144 105.606 74.9231 105.618 74.8331Z" fill="#263238"/>
<path d="M91.8973 83.7438C91.8615 83.8402 91.8129 83.9314 91.7528 84.0148C91.6016 84.2653 91.4357 84.5066 91.256 84.7374C90.5816 85.579 89.8384 86.363 89.034 87.0814C88.5327 87.5331 87.9681 88.0344 87.3584 88.5492C87.0513 88.8067 86.7442 89.0777 86.401 89.3486C86.0475 89.6154 85.6746 89.8554 85.2854 90.0667C84.4495 90.5278 83.5265 90.8093 82.5756 90.8932C81.5381 90.9813 80.4984 90.7513 79.5948 90.2338C78.7152 89.7098 77.9266 89.0463 77.2599 88.2692C76.6278 87.5653 76.0396 86.8232 75.4985 86.0472C74.5865 84.7304 73.8159 83.321 73.1997 81.8425C72.7868 80.8484 72.4486 79.8248 72.188 78.7804C72.0932 78.41 72.0345 78.121 71.9983 77.9223C71.9732 77.8232 71.9581 77.7218 71.9532 77.6197C71.9945 77.7137 72.0248 77.8122 72.0435 77.9132C72.0977 78.1074 72.1699 78.392 72.2738 78.7578C72.5701 79.7865 72.9306 80.7956 73.3532 81.7792C73.986 83.2351 74.7653 84.6227 75.6791 85.9207C76.2178 86.6861 76.803 87.4176 77.4315 88.1111C78.0765 88.8678 78.8389 89.5159 79.6897 90.0306C80.554 90.5241 81.5475 90.7445 82.5395 90.6629C83.463 90.5834 84.3606 90.316 85.177 89.877C85.5603 89.6739 85.9272 89.4414 86.2745 89.1815C86.6042 88.9286 86.9203 88.6531 87.2274 88.4002C87.8417 87.8898 88.4107 87.4111 88.9166 86.9595C89.7238 86.2633 90.4785 85.5085 91.1747 84.7013C91.4141 84.4123 91.5902 84.1729 91.7077 84.0103C91.7631 83.9162 91.8265 83.827 91.8973 83.7438Z" fill="#263238"/>
<path d="M82.1692 135.637L85.6513 130.56C85.6513 130.56 88.0449 122.241 87.7197 121.076C87.3946 119.911 86.3377 115.575 86.5861 115.521C86.8345 115.467 89.4405 114.5 90.8541 117.978C91.7348 120.146 92.0238 123 92.1187 124.843C92.129 125.07 92.1886 125.293 92.2933 125.495C92.3981 125.698 92.5455 125.875 92.7253 126.015C92.9052 126.155 93.1133 126.254 93.3353 126.306C93.5572 126.358 93.7878 126.361 94.011 126.315C96.4182 125.818 100.424 125.064 101.377 125.294C102.759 125.624 103.997 127.385 104.114 127.977C104.232 128.569 103.283 129.901 103.283 129.901C103.283 129.901 104.457 130.502 104.819 131.409C104.868 131.531 104.909 131.653 104.945 131.771C105.055 132.135 105.069 132.521 104.984 132.892C104.899 133.262 104.719 133.604 104.462 133.884L104.092 134.291C104.092 134.291 105.559 134.693 105.74 135.533C105.838 136.146 105.821 136.773 105.69 137.38L104.313 138.803C104.697 139.161 104.948 139.638 105.026 140.158C105.099 140.934 103.035 142.867 103.035 142.867L94.1781 146.029L90.6644 146.932L82.1692 135.637Z" fill="#B78876"/>
<path d="M103.31 129.91C102.298 130.182 101.273 130.404 100.239 130.574C99.223 130.822 98.1949 131.018 97.1588 131.161C97.4361 131.025 97.7288 130.924 98.0305 130.858C98.577 130.705 99.3402 130.515 100.194 130.344C101.047 130.172 101.82 130.045 102.389 129.973C102.692 129.911 103.002 129.89 103.31 129.91Z" fill="#AA6550"/>
<path d="M104.119 134.291C103.366 134.644 102.581 134.924 101.775 135.126C100.992 135.407 100.184 135.613 99.3629 135.741C100.116 135.388 100.901 135.108 101.707 134.905C102.489 134.624 103.297 134.418 104.119 134.291Z" fill="#AA6550"/>
<path d="M104.647 138.613C103.854 139.088 103.021 139.495 102.158 139.828C101.327 140.235 100.463 140.57 99.575 140.83C100.368 140.355 101.201 139.949 102.064 139.616C102.895 139.209 103.759 138.873 104.647 138.613Z" fill="#AA6550"/>
<path d="M61.7642 167.007L94.3361 145.157L86.1164 130.253L56.3898 145.541L59.7635 129.481L39.589 123.51L34.5397 151.015C33.7629 163.245 43.5724 173.118 55.3962 169.907C57.6627 169.294 59.8138 168.314 61.7642 167.007Z" fill="#B78876"/>
<path d="M52.0858 154.185C52.027 154.055 51.9889 153.916 51.9728 153.774C51.9058 153.394 51.8681 153.009 51.8599 152.623C51.8429 151.338 52.1308 150.067 52.7 148.915C53.277 147.765 54.121 146.771 55.1614 146.015C55.4714 145.785 55.8008 145.583 56.1459 145.41C56.2698 145.338 56.4037 145.284 56.5434 145.252C56.5434 145.293 56.015 145.55 55.2607 146.155C54.2731 146.927 53.4703 147.909 52.9108 149.03C52.3514 150.151 52.0494 151.383 52.027 152.636C52.0045 153.585 52.1535 154.181 52.0858 154.185Z" fill="#AA6550"/>
<path d="M135.733 119.468C135.936 119.188 158.929 133.198 158.929 133.198L166.3 166.777L176.909 170.67C176.909 170.67 180.219 133.302 177.699 127.485C175.179 121.668 149.63 100.739 149.63 100.739L135.733 119.468Z" fill="#B78876"/>
<path d="M163.951 130.624C163.439 131.393 162.758 132.036 161.959 132.502C161.202 133.035 160.335 133.39 159.421 133.541C160.246 133.171 161.051 132.758 161.833 132.304C162.57 131.784 163.277 131.223 163.951 130.624Z" fill="#AA6550"/>
<path d="M108.079 119.54L109.881 151.769L146.626 149.285L145.515 125.294L140.163 118.091L108.079 119.54Z" fill="#263238"/>
<path d="M99.7288 152.487C99.8372 153.106 102.958 182.295 102.958 182.295L157.646 178.497L166.9 177.255L162.632 150.075L156.097 148.508L99.7288 152.487Z" fill="#ED7801"/>
<path opacity="0.4" d="M156.097 148.504L99.7288 152.487C99.8372 153.106 102.958 182.295 102.958 182.295L159.896 178.334L156.097 148.504Z" fill="black"/>
<path d="M141.116 149.655L109.881 151.769L108.079 119.54L140.163 118.091L141.116 149.655Z" fill="#455A64"/>
<path d="M119.727 119.016L120.386 128.948L122.057 127.99L122.983 128.948L124.135 127.99L125.914 128.948V118.736L119.727 119.016Z" fill="#263238"/>
<path d="M132.784 150.333L130.647 126.143L151.527 131.897L153.541 148.594L132.784 150.333Z" fill="#ED7801"/>
<path d="M151.513 131.902C151.476 131.964 151.432 132.021 151.382 132.073L150.98 132.548L149.445 134.3L144.111 140.284L144.03 140.374L143.944 140.289L141.126 137.308L133.687 129.449L131.452 127.047L130.851 126.387C130.776 126.314 130.711 126.232 130.657 126.143C130.739 126.206 130.816 126.275 130.887 126.351L131.519 126.983L133.805 129.332L141.293 137.145L144.129 140.13H143.962L149.381 134.2L150.967 132.493L151.396 132.042C151.43 131.991 151.469 131.944 151.513 131.902Z" fill="#263238"/>
<path d="M139.82 136.382C139.879 136.413 138.389 139.268 136.496 142.759C134.604 146.25 133.023 149.055 132.964 149.023C132.906 148.991 134.396 146.137 136.288 142.646C138.181 139.155 139.771 136.35 139.82 136.382Z" fill="#263238"/>
<path d="M153.053 148.594C152.999 148.626 151.554 146.313 149.824 143.432C148.094 140.55 146.735 138.179 146.793 138.143C146.852 138.107 148.293 140.424 150.023 143.31C151.752 146.196 153.112 148.562 153.053 148.594Z" fill="#263238"/>
<path d="M143.998 149.389L142.634 133.984L155.93 137.651L157.213 148.282L143.998 149.389Z" fill="#ED7801"/>
<path opacity="0.4" d="M143.998 149.389L142.634 133.984L155.93 137.651L157.213 148.282L143.998 149.389Z" fill="white"/>
<path d="M155.93 137.651C155.835 137.802 155.725 137.943 155.6 138.071C155.352 138.365 155.027 138.739 154.634 139.196L151.247 143.016L151.165 143.111L151.08 143.021L149.273 141.124C147.417 139.177 145.746 137.403 144.544 136.111L143.135 134.571C142.953 134.39 142.787 134.193 142.638 133.984C142.839 134.143 143.026 134.318 143.199 134.508L144.666 135.993C145.899 137.258 147.588 139.015 149.445 140.961L151.251 142.863H151.061L154.507 139.096L155.528 138.017C155.65 137.882 155.785 137.76 155.93 137.651Z" fill="#263238"/>
<path d="M148.478 140.505C148.532 140.537 147.602 142.362 146.396 144.57C145.704 145.932 144.941 147.257 144.111 148.54C144.732 147.15 145.425 145.793 146.188 144.475C146.881 143.112 147.645 141.787 148.478 140.505Z" fill="#263238"/>
<path d="M156.906 148.282C156.142 147.237 155.442 146.147 154.81 145.017C154.108 143.927 153.476 142.795 152.918 141.625C154.376 143.765 155.707 145.988 156.906 148.282Z" fill="#263238"/>
<path d="M152.471 137.001V138.238L154.413 138.464L154.516 137.52L152.471 137.001Z" fill="white"/>
<path d="M145.615 130.718V132.525L149.282 133.13L149.485 131.748L145.615 130.718Z" fill="white"/>
<path d="M131.302 159.338L131.122 150.333L123.819 150.825L124.6 159.975L131.302 159.338Z" fill="#ED7801"/>
<path d="M155.118 164.07L142.857 165.233L143.886 176.078L156.147 174.915L155.118 164.07Z" fill="#FAFAFA"/>
<path d="M156.129 174.929C156.114 174.86 156.103 174.791 156.097 174.721C156.097 174.572 156.057 174.378 156.029 174.134C155.975 173.61 155.894 172.865 155.795 171.93C155.6 170.024 155.343 167.332 155 164.094L155.108 164.185L142.855 165.363C142.828 165.39 143.054 165.124 142.959 165.237V165.318V165.413V165.594L142.995 165.964L143.063 166.696C143.113 167.179 143.158 167.658 143.203 168.136C143.289 169.089 143.379 170.02 143.465 170.932C143.632 172.738 143.795 174.477 143.939 176.072L143.826 175.981L152.674 175.195L155.185 174.983L155.858 174.933C155.937 174.927 156.018 174.927 156.097 174.933C156.027 174.95 155.956 174.96 155.885 174.965L155.235 175.042L152.751 175.304L143.849 176.207H143.745V176.103C143.587 174.504 143.42 172.779 143.244 170.964C143.159 170.06 143.071 169.128 142.977 168.168C142.932 167.689 142.887 167.21 142.842 166.723C142.819 166.483 142.797 166.239 142.769 165.996L142.738 165.625V165.445V165.35V165.268C142.643 165.381 142.864 165.11 142.846 165.137L155.104 163.995H155.203V164.094C155.492 167.359 155.731 170.078 155.903 172.002C155.98 172.928 156.038 173.664 156.084 174.188C156.084 174.428 156.115 174.617 156.124 174.762C156.13 174.817 156.131 174.873 156.129 174.929Z" fill="#263238"/>
<path d="M154.142 166.682C154.142 166.75 152.005 167.025 149.354 167.305C147.759 167.515 146.153 167.645 144.544 167.694C144.544 167.63 146.681 167.35 149.332 167.07C151.983 166.79 154.137 166.619 154.142 166.682Z" fill="#263238"/>
<path d="M154.069 168.525C153.643 168.678 153.203 168.789 152.755 168.854C151.933 169.017 150.791 169.207 149.521 169.356C148.252 169.505 147.092 169.586 146.256 169.613C145.805 169.654 145.352 169.654 144.901 169.613C145.348 169.525 145.801 169.474 146.256 169.46C147.087 169.383 148.234 169.279 149.499 169.13C150.763 168.981 151.906 168.818 152.733 168.678C153.174 168.594 153.621 168.543 154.069 168.525Z" fill="#263238"/>
<path d="M154.589 172.553C154.161 172.705 153.719 172.816 153.27 172.883C152.448 173.046 151.305 173.235 150.036 173.384C148.767 173.533 147.611 173.615 146.771 173.642C146.32 173.685 145.867 173.685 145.416 173.642C145.863 173.553 146.316 173.502 146.771 173.488C147.602 173.416 148.754 173.307 150.018 173.158C151.283 173.009 152.425 172.847 153.252 172.707C153.693 172.622 154.14 172.571 154.589 172.553Z" fill="#263238"/>
<path d="M153.97 170.489C152.496 170.823 151.005 171.076 149.503 171.248C148.008 171.502 146.501 171.677 144.987 171.772C146.462 171.444 147.953 171.191 149.454 171.013C150.949 170.762 152.457 170.587 153.97 170.489Z" fill="#263238"/>
<path d="M164.796 187.286C164.796 187.286 174.89 180.606 175.667 177.192C176.443 173.777 176.909 170.67 176.909 170.67L166.123 166.203L167.194 170.087C167.194 170.087 163.328 172.386 162.93 175.173C162.668 177.029 157.669 180.209 157.669 180.209C157.253 179.706 156.724 179.309 156.125 179.051C155.526 178.793 154.874 178.68 154.223 178.723L150.023 179.021L152.863 185.42L164.796 187.286Z" fill="#B78876"/>
<path d="M168.738 178.131C168.592 178.221 168.432 178.286 168.264 178.325C167.948 178.429 167.478 178.533 166.909 178.714C166.267 178.942 165.673 179.288 165.157 179.734C164.507 180.288 163.78 180.745 162.998 181.089C161.552 181.705 159.947 181.84 158.419 181.473C158.15 181.421 157.892 181.325 157.655 181.189C157.558 181.134 157.48 181.051 157.43 180.951C157.38 180.852 157.361 180.739 157.375 180.629C157.383 180.56 157.407 180.494 157.447 180.437C157.486 180.381 157.539 180.335 157.601 180.303C157.691 180.272 157.741 180.303 157.741 180.303C157.741 180.303 157.691 180.303 157.624 180.353C157.576 180.387 157.537 180.432 157.51 180.484C157.483 180.535 157.467 180.593 157.466 180.651C157.457 180.744 157.478 180.838 157.525 180.919C157.572 181 157.642 181.064 157.728 181.103C157.958 181.216 158.205 181.294 158.459 181.333C159.954 181.637 161.505 181.48 162.908 180.881C163.672 180.541 164.383 180.094 165.021 179.554C165.562 179.105 166.185 178.764 166.855 178.551C167.433 178.388 167.903 178.312 168.21 178.23C168.383 178.183 168.56 178.15 168.738 178.131Z" fill="#AA6550"/>
<path d="M161.747 183.311C161.747 183.347 161.228 183.049 160.37 182.693C159.251 182.235 158.072 181.942 156.869 181.821C156.517 181.785 156.169 181.776 155.835 181.767H155.772L155.736 181.712C155.213 180.894 154.583 180.15 153.862 179.499C153.315 179.007 152.958 178.754 152.958 178.727C152.958 178.7 153.067 178.763 153.238 178.872C153.482 179.029 153.717 179.2 153.943 179.382C154.713 180.01 155.379 180.755 155.916 181.591L155.822 181.536C156.165 181.536 156.517 181.536 156.878 181.591C158.105 181.709 159.303 182.031 160.424 182.543C160.761 182.697 161.089 182.872 161.404 183.067C161.53 183.13 161.646 183.213 161.747 183.311Z" fill="#AA6550"/>
<path d="M164.475 181.478C164.475 181.541 163.793 181.798 162.998 182.25C162.203 182.702 161.621 183.176 161.576 183.122C162.321 182.252 163.347 181.671 164.475 181.478Z" fill="#AA6550"/>
<path d="M169.944 169.464C169.944 169.536 169.24 169.464 168.436 169.667C167.632 169.871 167.081 170.286 167.018 170.227C167.391 169.848 167.86 169.576 168.376 169.442C168.891 169.308 169.433 169.315 169.944 169.464Z" fill="#AA6550"/>
<path d="M22.6934 165.612C24.0212 167.192 26.2658 166.429 27.2368 165.305C28.2079 164.18 28.524 162.653 28.8085 161.195C29.4498 157.862 30.0912 154.37 29.0976 151.123C28.8412 150.135 28.3178 149.237 27.5846 148.526C27.2135 148.178 26.7574 147.933 26.262 147.817C25.7666 147.7 25.2493 147.716 24.7619 147.862C23.6328 148.269 23.0141 149.466 22.594 150.572C21.3489 153.885 20.8582 157.434 21.1578 160.96C21.2978 162.604 21.6456 164.306 22.6934 165.58" fill="#ED7801"/>
<g opacity="0.2">
<path d="M22.6934 165.612C24.0212 167.192 26.2658 166.429 27.2368 165.305C28.2079 164.18 28.524 162.653 28.8085 161.195C29.4498 157.862 30.0912 154.37 29.0976 151.123C28.8412 150.135 28.3178 149.237 27.5846 148.526C27.2135 148.178 26.7574 147.933 26.262 147.817C25.7666 147.7 25.2493 147.716 24.7619 147.862C23.6328 148.269 23.0141 149.466 22.594 150.572C21.3489 153.885 20.8582 157.434 21.1578 160.96C21.2978 162.604 21.6456 164.306 22.6934 165.58" fill="black"/>
</g>
<path d="M27.8736 173.755C29.7163 172.585 31.979 172.251 34.1514 172.4C35.3211 172.49 36.5495 172.725 37.4122 173.52C38.2748 174.315 38.5548 175.823 37.7238 176.645C37.1786 177.09 36.4945 177.33 35.7908 177.323C34.1107 177.454 32.2229 177.323 30.9764 178.456C30.2628 179.097 29.8382 180.1 28.9485 180.466C28.5008 180.612 28.0178 180.609 27.5723 180.456C27.1267 180.304 26.7427 180.011 26.4781 179.621C25.9655 178.817 25.7827 177.847 25.9677 176.912C26.0223 176.275 26.2226 175.659 26.5531 175.111C26.8835 174.564 27.3353 174.1 27.8736 173.755Z" fill="#ED7801"/>
<path d="M19.6674 168.321C20.8146 166.687 20.8598 164.446 20.1191 162.59C19.3784 160.734 17.9422 159.235 16.3434 158.042C14.4509 156.641 12.3031 155.622 10.0205 155.043C9.13422 154.776 8.20092 154.702 7.28361 154.827C6.83327 154.901 6.40745 155.083 6.04198 155.356C5.67652 155.63 5.3821 155.987 5.18351 156.398C4.66413 157.654 5.39578 159.058 6.15453 160.188C7.48946 162.179 8.97679 164.063 10.6031 165.824C11.9174 167.238 13.4033 168.615 15.2595 169.143C17.1157 169.672 18.9719 169.419 19.8165 168.091" fill="#ED7801"/>
<path d="M24.8838 191.043C24.9227 190.786 24.9348 190.526 24.9199 190.266C24.9199 189.706 24.9199 189.002 24.9199 188.162C24.9317 187.122 24.998 186.083 25.1186 185.05C25.2813 183.792 25.5456 182.549 25.909 181.333C26.2607 180.119 26.7839 178.962 27.4626 177.896C28.015 177.028 28.754 176.293 29.626 175.746C30.2168 175.383 30.8617 175.116 31.5364 174.956C31.7924 174.919 32.0448 174.86 32.2906 174.78C32.0304 174.768 31.7697 174.786 31.5138 174.834C30.8084 174.954 30.1296 175.197 29.5085 175.552C28.588 176.094 27.8045 176.84 27.2187 177.734C26.5116 178.818 25.9669 180 25.6019 181.243C25.2349 182.477 24.975 183.74 24.8251 185.018C24.7196 186.061 24.6758 187.109 24.6941 188.157C24.6941 189.061 24.7483 189.774 24.7799 190.271C24.7848 190.532 24.8197 190.791 24.8838 191.043Z" fill="#263238"/>
<path d="M24.8838 189.422C24.8957 189.303 24.8957 189.184 24.8838 189.065C24.8838 188.799 24.8296 188.46 24.7934 188.049C24.7121 187.168 24.5992 185.89 24.5044 184.309C24.3012 181.148 24.1837 176.776 24.2786 171.948C24.3734 167.12 24.6941 162.753 25.0599 159.609C25.1412 158.819 25.227 158.11 25.3173 157.487C25.4077 156.864 25.4709 156.326 25.5431 155.892C25.6154 155.459 25.6515 155.147 25.6922 154.881C25.7159 154.763 25.7265 154.644 25.7238 154.524C25.6762 154.635 25.6443 154.752 25.629 154.872C25.5748 155.134 25.507 155.463 25.4212 155.87C25.3354 156.276 25.2406 156.841 25.1412 157.464C25.0418 158.087 24.9334 158.792 24.8341 159.582C24.3224 163.684 24.0314 167.811 23.9624 171.944C23.8676 176.781 24.0166 181.166 24.2786 184.327C24.4005 185.908 24.5496 187.186 24.6715 188.062C24.7302 188.473 24.7844 188.808 24.8205 189.074C24.8296 189.192 24.8508 189.308 24.8838 189.422Z" fill="#263238"/>
<path d="M24.1521 181.003C24.1479 180.648 24.1147 180.293 24.0527 179.942C23.9489 179.265 23.7682 178.289 23.4701 177.097C23.1101 175.705 22.6729 174.334 22.1604 172.991C21.5431 171.341 20.8096 169.737 19.9655 168.191C18.4825 165.337 16.4931 162.777 14.0942 160.635C13.6762 160.271 13.2373 159.932 12.7799 159.619C12.5812 159.479 12.4051 159.338 12.2244 159.23L11.7276 158.946C11.4251 158.759 11.1097 158.595 10.7837 158.453C10.7386 158.526 12.1386 159.185 13.9452 160.806C16.2702 162.973 18.2084 165.521 19.6764 168.34C20.5178 169.869 21.2585 171.451 21.8939 173.077C22.4901 174.577 22.9237 175.963 23.2488 177.142C23.574 178.321 23.7863 179.283 23.9263 179.951C23.9727 180.307 24.0482 180.659 24.1521 181.003Z" fill="#263238"/>
</svg>
