<svg width="200" height="194" viewBox="0 0 200 194" fill="none" xmlns="http://www.w3.org/2000/svg">
<path d="M81.2508 16.5651H15.1169V107.774H81.2508V16.5651Z" fill="#E0E0E0"/>
<path d="M77.6067 18.8439H17.9408V105.02H77.6067V18.8439Z" fill="#FAFAFA" stroke="#FAFAFA" stroke-miterlimit="10"/>
<path d="M78.7064 43.5462H17.6612V44.9069H78.7064V43.5462Z" fill="#E0E0E0"/>
<path d="M47.0934 43.5462L47.0934 105.402H48.4541L48.4541 43.5462H47.0934Z" fill="#E0E0E0"/>
<path d="M91.7729 7.98151H4.93486V9.67307H91.7729V7.98151Z" fill="#E0E0E0"/>
<path d="M4.93491 13.7925C4.93491 13.7925 5.7271 105.002 4.95821 105.002H22.1068V13.7925H4.93491Z" fill="#EBEBEB"/>
<path d="M9.22671 15.759C9.10679 14.4968 9.06632 13.2284 9.10555 11.9611C9.06632 10.6939 9.10679 9.42543 9.22671 8.16327C9.34944 9.42525 9.38991 10.6939 9.34787 11.9611C9.38991 13.2284 9.34944 14.497 9.22671 15.759Z" fill="#E0E0E0"/>
<path d="M6.91539 15.759C6.79267 14.497 6.7522 13.2284 6.79423 11.9611C6.7522 10.6939 6.79267 9.42525 6.91539 8.16327C7.03532 9.42543 7.07579 10.6939 7.03655 11.9611C7.07579 13.2284 7.03532 14.4968 6.91539 15.759Z" fill="#E0E0E0"/>
<path d="M11.8876 15.759C11.7648 14.497 11.7244 13.2284 11.7664 11.9611C11.7244 10.6939 11.7648 9.42525 11.8876 8.16327C12.0075 9.42543 12.048 10.6939 12.0087 11.9611C12.048 13.2284 12.0075 14.4968 11.8876 15.759Z" fill="#E0E0E0"/>
<path d="M14.5437 15.759C14.4238 14.4968 14.3833 13.2284 14.4225 11.9611C14.3833 10.6939 14.4238 9.42543 14.5437 8.16327C14.6664 9.42525 14.7069 10.6939 14.6649 11.9611C14.7069 13.2284 14.6664 14.497 14.5437 15.759Z" fill="#E0E0E0"/>
<path d="M17.2045 15.759C17.0846 14.4968 17.0441 13.2284 17.0834 11.9611C17.0441 10.6939 17.0846 9.42543 17.2045 8.16327C17.3245 9.42543 17.3649 10.6939 17.3257 11.9611C17.3649 13.2284 17.3245 14.4968 17.2045 15.759Z" fill="#E0E0E0"/>
<path d="M19.7629 15.759C19.6401 14.497 19.5997 13.2284 19.6417 11.9611C19.5997 10.6939 19.6401 9.42525 19.7629 8.16327C19.8828 9.42543 19.9232 10.6939 19.884 11.9611C19.9232 13.2284 19.8828 14.4968 19.7629 15.759Z" fill="#E0E0E0"/>
<path d="M74.0279 13.7925C74.0279 13.7925 74.8201 105.002 74.0558 105.002H91.2044V13.7925H74.0279Z" fill="#EBEBEB"/>
<path d="M78.3244 15.759C78.2044 14.4968 78.164 13.2284 78.2032 11.9611C78.164 10.6939 78.2044 9.42543 78.3244 8.16327C78.4443 9.42543 78.4848 10.6939 78.4455 11.9611C78.4848 13.2284 78.4443 14.4968 78.3244 15.759Z" fill="#E0E0E0"/>
<path d="M76.0084 15.759C75.8884 14.4968 75.848 13.2284 75.8872 11.9611C75.848 10.6939 75.8884 9.42543 76.0084 8.16327C76.1311 9.42525 76.1716 10.6939 76.1295 11.9611C76.1716 13.2284 76.1311 14.497 76.0084 15.759Z" fill="#E0E0E0"/>
<path d="M80.9851 15.759C80.8624 14.497 80.8219 13.2284 80.864 11.9611C80.8219 10.6939 80.8624 9.42525 80.9851 8.16327C81.1051 9.42543 81.1455 10.6939 81.1063 11.9611C81.1455 13.2284 81.1051 14.4968 80.9851 15.759Z" fill="#E0E0E0"/>
<path d="M83.6414 15.759C83.5214 14.4968 83.481 13.2284 83.5202 11.9611C83.481 10.6939 83.5214 9.42543 83.6414 8.16327C83.7613 9.42543 83.8018 10.6939 83.7625 11.9611C83.8018 13.2284 83.7613 14.4968 83.6414 15.759Z" fill="#E0E0E0"/>
<path d="M86.3021 15.759C86.1794 14.497 86.1389 13.2284 86.181 11.9611C86.1389 10.6939 86.1794 9.42525 86.3021 8.16327C86.422 9.42543 86.4625 10.6939 86.4233 11.9611C86.4625 13.2284 86.422 14.4968 86.3021 15.759Z" fill="#E0E0E0"/>
<path d="M88.8558 15.759C88.7359 14.4968 88.6954 13.2284 88.7346 11.9611C88.6954 10.6939 88.7359 9.42543 88.8558 8.16327C88.9785 9.42525 89.019 10.6939 88.977 11.9611C89.019 13.2284 88.9785 14.497 88.8558 15.759Z" fill="#E0E0E0"/>
<path d="M140.455 178.768V192.464H160.484H182.572V178.768H140.455Z" fill="#EBEBEB"/>
<path d="M138.689 174.943V178.768H184.044V174.943H160.484H138.689Z" fill="#F5F5F5"/>
<path d="M161.369 192.464H182.572V178.768H184.044V174.943H160.484V178.414L161.369 192.464Z" fill="#E0E0E0"/>
<path d="M154.887 180.977H146.346V183.037H154.887V180.977Z" fill="#E0E0E0"/>
<path d="M156.215 185.619H145.246V189.971H156.215V185.619Z" fill="#FAFAFA"/>
<path d="M151.159 159.924L151.099 154.774L169.137 156.317L169.701 161.41L151.159 159.924Z" fill="#EBEBEB"/>
<path d="M155.053 157.117L154.974 158.041L166.256 159.006L166.335 158.082L155.053 157.117Z" fill="#E0E0E0"/>
<path d="M149.006 155.035L149.002 149.886L167.026 151.62L167.483 156.224L149.006 155.035Z" fill="#E0E0E0"/>
<path d="M149.002 150.585L148.992 154.061L166.556 155.352L166.262 152.151L149.002 150.585Z" fill="white"/>
<path d="M165.223 153.484C165.011 153.506 164.797 153.506 164.584 153.484L162.86 153.348C161.402 153.223 159.389 153.036 157.171 152.813C154.952 152.589 152.944 152.37 151.49 152.202L149.771 151.988C149.558 151.972 149.347 151.935 149.141 151.876C149.354 151.856 149.567 151.856 149.78 151.876L151.504 152.011C152.963 152.137 154.971 152.328 157.194 152.552C159.417 152.775 161.425 152.99 162.874 153.162L164.594 153.372C164.807 153.387 165.018 153.425 165.223 153.484Z" fill="#E0E0E0"/>
<path d="M165.186 153.917C164.972 153.94 164.756 153.94 164.543 153.917L162.8 153.833C161.332 153.754 159.3 153.628 157.059 153.47C154.817 153.311 152.786 153.162 151.318 153.036L149.58 152.878C149.365 152.87 149.153 152.839 148.946 152.785C149.16 152.764 149.375 152.764 149.589 152.785L151.332 152.864C152.804 152.943 154.836 153.074 157.077 153.227C159.319 153.381 161.346 153.54 162.814 153.665L164.552 153.824C164.765 153.836 164.978 153.867 165.186 153.917Z" fill="#E0E0E0"/>
<path d="M151.364 164.667L151.299 159.518L169.342 161.047L169.855 165.646L151.364 164.667Z" fill="#E0E0E0"/>
<path d="M153.354 164.775C153.2 163.938 153.127 163.09 153.135 162.24C153.059 161.393 153.067 160.541 153.158 159.695C153.31 160.532 153.383 161.38 153.377 162.23C153.45 163.077 153.443 163.929 153.354 164.775Z" fill="#F5F5F5"/>
<path d="M154.034 159.751C154.171 160.587 154.231 161.434 154.211 162.282C154.27 163.127 154.247 163.976 154.142 164.817C154.005 163.98 153.945 163.133 153.964 162.286C153.906 161.441 153.929 160.592 154.034 159.751Z" fill="#F5F5F5"/>
<path d="M155.675 162.016C158.82 162.365 162.515 162.566 165.712 162.85L155.675 162.016Z" fill="white"/>
<path d="M165.712 162.85C165.22 162.873 164.726 162.861 164.235 162.813C163.326 162.762 162.073 162.682 160.684 162.58C159.295 162.477 158.042 162.361 157.133 162.254C156.641 162.22 156.152 162.14 155.675 162.016C156.168 162.001 156.662 162.023 157.152 162.081L160.703 162.337C162.101 162.44 163.345 162.547 164.249 162.64C164.742 162.666 165.232 162.736 165.712 162.85Z" fill="#F5F5F5"/>
<path d="M167.031 165.497C166.874 164.74 166.796 163.968 166.798 163.195C166.716 162.428 166.716 161.655 166.798 160.888C166.955 161.644 167.034 162.414 167.031 163.186C167.113 163.954 167.113 164.729 167.031 165.497Z" fill="#F5F5F5"/>
<path d="M168.145 165.553C167.946 164.802 167.829 164.032 167.795 163.255C167.679 162.485 167.643 161.704 167.688 160.926C167.884 161.676 168.001 162.444 168.037 163.218C168.154 163.991 168.19 164.773 168.145 165.553Z" fill="#F5F5F5"/>
<path d="M158.354 163.172C160.339 163.307 161.854 163.405 163.438 163.442L158.354 163.172Z" fill="white"/>
<path d="M163.438 163.442C162.59 163.522 161.737 163.522 160.889 163.442C160.038 163.437 159.189 163.351 158.354 163.186C159.202 163.103 160.055 163.103 160.903 163.186C161.754 163.192 162.603 163.278 163.438 163.442Z" fill="#F5F5F5"/>
<path d="M152.576 174.724L152.236 169.584L170.335 170.157L171.09 174.719L152.576 174.724Z" fill="#E0E0E0"/>
<path d="M153.294 174.076L170.903 173.824L170.414 170.628L152.963 170.306L153.294 174.076Z" fill="#FAFAFA"/>
<path d="M153.07 169.686L152.902 164.542L170.969 165.721L171.57 170.301L153.07 169.686Z" fill="#EBEBEB"/>
<path d="M156.9 166.791L156.839 167.716L168.139 168.451L168.199 167.526L156.9 166.791Z" fill="#E0E0E0"/>
<path d="M170.596 171.942C170.367 171.983 170.134 172 169.902 171.993L168.038 172.039C166.444 172.067 164.249 172.091 161.821 172.1C159.393 172.109 157.199 172.1 155.605 172.1L153.741 172.072C153.508 172.079 153.276 172.063 153.047 172.025C153.274 171.987 153.505 171.97 153.736 171.974L155.623 171.928C157.213 171.9 159.412 171.881 161.84 171.872C164.268 171.862 166.467 171.872 168.056 171.872L169.92 171.904C170.146 171.897 170.372 171.91 170.596 171.942Z" fill="#E0E0E0"/>
<path d="M170.801 172.939C170.57 172.976 170.336 172.99 170.102 172.981H168.205C166.602 172.981 164.389 172.981 161.947 172.929C159.505 172.878 157.287 172.855 155.689 172.808L153.783 172.752C153.55 172.757 153.317 172.738 153.088 172.696C153.318 172.662 153.551 172.65 153.783 172.659H155.679C157.282 172.659 159.496 172.659 161.942 172.71C164.389 172.762 166.602 172.79 168.201 172.832L170.097 172.897C170.332 172.893 170.568 172.907 170.801 172.939Z" fill="#E0E0E0"/>
<path d="M18.4161 140.38C16.1514 140.743 15.1542 143.525 15.3406 145.813C15.527 148.101 16.4776 150.329 16.2259 152.608C15.9044 155.506 13.7189 157.952 13.4626 160.851C13.1644 164.271 15.5829 167.31 16.3052 170.665C16.6547 172.3 16.6081 174.029 17.2371 175.586C17.7576 176.908 18.7198 178.01 19.9604 178.703C21.201 179.396 22.6433 179.638 24.0423 179.388C25.4413 179.139 26.7106 178.412 27.6346 177.332C28.5585 176.253 29.0801 174.886 29.1107 173.465C29.1619 170.837 27.5403 168.363 27.7127 165.739C27.8618 163.805 28.9942 161.969 28.7519 160.045C28.4629 157.752 26.338 156.121 25.5878 153.936C24.8375 151.75 25.5598 149.341 25.2988 147.044C24.8329 142.924 22.5495 140.054 18.4161 140.38Z" fill="#F5F5F5"/>
<path d="M6.85481 160.334C6.46804 164.15 8.15959 168.642 10.1168 171.942C12.1064 175.259 15.0994 177.857 18.6631 179.36C19.0639 179.528 19.5625 179.668 19.898 179.393C20.0169 179.262 20.1064 179.106 20.1602 178.937C20.2141 178.769 20.2311 178.59 20.2102 178.414C20.237 174.361 18.9497 170.409 16.5411 167.149C14.1324 163.89 10.7323 161.498 6.85015 160.334" fill="#EBEBEB"/>
<path d="M23.4861 187.343C23.4431 187.275 23.4071 187.203 23.379 187.128C23.3091 186.965 23.2159 186.76 23.1087 186.504C22.8757 185.959 22.5355 185.176 22.0975 184.211C20.9601 181.701 19.694 179.251 18.3043 176.872C16.9112 174.494 15.3979 172.189 13.7702 169.966C13.1457 169.113 12.6331 168.428 12.2697 167.962L11.8596 167.417C11.8075 167.355 11.7622 167.288 11.7245 167.216C11.7869 167.267 11.8432 167.325 11.8922 167.389L12.3349 167.906C12.717 168.372 13.2669 169.029 13.896 169.873C15.5643 172.077 17.1001 174.378 18.4954 176.765C19.8834 179.151 21.1283 181.617 22.2233 184.151C22.6427 185.12 22.9642 185.917 23.1553 186.481C23.2531 186.742 23.3277 186.947 23.3929 187.124C23.4351 187.191 23.4666 187.265 23.4861 187.343Z" fill="#E0E0E0"/>
<path d="M21.0303 150.944C21.0303 150.944 21.0303 151.07 21.0723 151.312C21.1142 151.554 21.1142 151.918 21.1468 152.36C21.2074 153.292 21.2913 154.611 21.3938 156.228C21.6035 159.49 21.8924 164.01 22.2419 168.992C22.5914 173.973 22.9409 178.484 23.1739 181.751C23.2951 183.368 23.3976 184.682 23.4675 185.614C23.5001 186.057 23.5234 186.406 23.542 186.667C23.5533 186.789 23.5533 186.913 23.542 187.035C23.512 186.916 23.4933 186.794 23.4861 186.672L23.3743 185.623C23.2857 184.691 23.1646 183.377 23.0108 181.76C22.7172 178.498 22.3491 173.992 21.9996 169.006C21.6501 164.02 21.3798 159.509 21.2167 156.238C21.1375 154.621 21.0769 153.302 21.035 152.365C21.035 151.922 21.007 151.573 20.9977 151.312C20.9973 151.189 21.0082 151.065 21.0303 150.944Z" fill="#E0E0E0"/>
<path d="M17.5167 181.9H27.0789V188.918C27.0789 190.135 26.5953 191.303 25.7345 192.163C24.8737 193.024 23.7062 193.508 22.4889 193.508C21.314 193.508 20.1835 193.058 19.3305 192.25C18.4775 191.442 17.9667 190.338 17.9035 189.165L17.5167 181.9Z" fill="#E0E0E0"/>
<path d="M156.518 15.568L153.992 38.9982H186.346L189.031 15.568H156.518Z" fill="#EBEBEB"/>
<path d="M157.851 17.2502L155.395 37.7539H184.594L186.957 17.2502H157.851Z" fill="#FAFAFA"/>
<path d="M162.763 20.6985L161.253 34.3056H179.678L180.624 20.6985H162.763Z" fill="#E0E0E0"/>
<path d="M187.875 25.6568L194.557 39.096L186.346 38.9982L187.977 24.7807" fill="#F5F5F5"/>
<path d="M194.669 41.7895H191.757V49.0776H194.669V41.7895Z" fill="#E0E0E0"/>
<path d="M152.045 41.7895H149.132V49.0776H152.045V41.7895Z" fill="#E0E0E0"/>
<path d="M200 39.1426H143.149V42.2181H200V39.1426Z" fill="#E0E0E0"/>
<path d="M191.09 192.608C191.09 192.674 148.303 192.73 95.5614 192.73C42.8202 192.73 0 192.674 0 192.608C0 192.543 42.7783 192.487 95.5614 192.487C148.345 192.487 191.09 192.539 191.09 192.608Z" fill="#263238"/>
<path d="M136.862 125.132C128.824 119.541 126.997 109.093 127.319 99.7218C127.37 98.1607 127.198 96.5111 127.943 95.1364C128.689 93.7617 130.422 92.8297 131.82 93.4868C132.985 94.032 133.489 95.3834 134.15 96.5018C135.018 97.9921 136.29 99.2068 137.818 100.006C138.815 100.523 140.045 100.84 141.028 100.295C142.38 99.554 142.538 97.6901 142.529 96.1336L142.473 87.4335C142.473 85.8818 142.473 84.2927 142.939 82.8155C143.405 81.3383 144.491 79.9683 145.968 79.5536C147.445 79.1388 149.281 79.9916 149.593 81.5154C149.652 82.1583 149.666 82.8045 149.635 83.4493C149.682 84.097 149.98 84.81 150.595 84.9917C151.21 85.1735 151.84 84.7308 152.301 84.2787C153.909 82.7083 154.999 80.6813 156.029 78.6868C157.059 76.6924 158.037 74.614 159.491 72.8992C160.945 71.1843 162.963 69.8283 165.19 69.7025C167.418 69.5766 169.794 70.9513 170.358 73.1368C170.922 75.3223 169.627 77.5451 168.229 79.3159C166.163 81.9498 163.727 84.2711 160.996 86.208C160.467 86.5077 160.046 86.9678 159.794 87.5221C159.454 88.5612 160.437 89.5911 161.462 89.9313C162.623 90.318 163.881 90.1969 165.092 90.3413C166.304 90.4858 167.618 91.017 168.079 92.1634C168.713 93.7524 167.385 95.4253 166.076 96.5111C163.455 98.6982 160.477 100.418 157.273 101.595C156.127 102.014 154.943 102.378 154.011 103.184C153.079 103.99 152.529 105.384 153.079 106.483C153.629 107.583 155.069 107.928 156.266 107.704C157.464 107.481 158.541 106.833 159.682 106.404C161.816 105.598 164.58 105.742 165.95 107.592C166.849 108.804 166.928 110.496 166.472 111.945C165.949 113.37 165.147 114.677 164.114 115.789C160.726 119.859 156.318 122.956 151.341 124.764C146.383 126.484 141.788 126.95 136.862 125.146" fill="#ED7801"/>
<path d="M168.089 70.9933C168.043 71.045 167.993 71.0933 167.94 71.1377L167.474 71.5524C167.068 71.9113 166.467 72.4425 165.712 73.1461C163.575 75.1329 161.589 77.2762 159.771 79.5582C158.61 81.0028 157.408 82.6338 156.15 84.4092C154.892 86.1847 153.564 88.0999 152.24 90.1596C150.838 92.3018 149.556 94.5202 148.4 96.8047C147.799 97.993 147.268 99.2372 146.718 100.509C146.168 101.781 145.628 103.063 145.069 104.363C142.945 109.247 141.095 114.246 139.528 119.335C138.265 123.499 137.396 127.773 136.932 132.099C136.632 135.017 136.583 137.956 136.788 140.883C136.872 141.918 136.951 142.724 137.021 143.264C137.053 143.525 137.077 143.73 137.095 143.884C137.102 143.955 137.102 144.027 137.095 144.098C137.075 144.03 137.059 143.96 137.049 143.889C137.025 143.735 136.993 143.535 136.951 143.274C136.858 142.733 136.76 141.932 136.662 140.892C136.415 137.959 136.434 135.01 136.718 132.08C137.154 127.734 138.006 123.44 139.262 119.256C140.817 114.153 142.664 109.143 144.794 104.251L146.448 100.393C146.993 99.1253 147.534 97.8718 148.135 96.6649C149.301 94.3732 150.593 92.147 152.003 89.9965C153.335 87.9368 154.677 86.0309 155.94 84.2555C157.203 82.48 158.429 80.8537 159.598 79.4184C161.442 77.1477 163.463 75.027 165.642 73.0763C166.406 72.3866 167.04 71.8647 167.441 71.5198L167.907 71.1284C167.963 71.0776 168.024 71.0324 168.089 70.9933Z" fill="#263238"/>
<path d="M148.237 96.6649C148.162 96.4508 148.11 96.2289 148.084 96.0032C148.004 95.5745 147.907 94.9454 147.795 94.1719C147.576 92.6248 147.329 90.4765 147.1 88.1139C146.872 85.7514 146.592 83.6031 146.35 82.056C146.234 81.2871 146.131 80.658 146.052 80.234C145.999 80.0125 145.969 79.786 145.963 79.5583C146.055 79.767 146.121 79.9861 146.159 80.2107C146.271 80.6347 146.406 81.2498 146.55 82.0187C146.844 83.5612 147.138 85.7048 147.385 88.0767C147.632 90.4486 147.851 92.5362 147.995 94.1346C148.074 94.8615 148.14 95.4766 148.195 95.9706C148.235 96.1998 148.249 96.4326 148.237 96.6649Z" fill="#263238"/>
<path d="M168.229 92.9277C167.965 92.9857 167.697 93.0185 167.427 93.0255C166.914 93.0721 166.173 93.1327 165.26 93.2399C163.424 93.4356 160.903 93.7991 158.14 94.3163C155.376 94.8336 152.907 95.444 151.127 95.91C150.232 96.1384 149.514 96.3434 149.016 96.4832C148.763 96.5731 148.503 96.6371 148.237 96.6743C148.477 96.5542 148.727 96.4544 148.983 96.376C149.472 96.2036 150.181 95.9659 151.071 95.7097C152.846 95.1877 155.325 94.5726 158.098 94.0414C160.462 93.5866 162.848 93.2537 165.246 93.0442C166.178 92.9649 166.914 92.9323 167.432 92.923C167.697 92.9013 167.964 92.9028 168.229 92.9277Z" fill="#263238"/>
<path d="M139.523 118.888C139.466 118.815 139.421 118.733 139.388 118.646L139.048 117.924C138.75 117.294 138.349 116.372 137.869 115.225C136.904 112.933 135.669 109.727 134.355 106.171C133.041 102.616 131.844 99.4003 130.926 97.089C130.46 95.9706 130.105 95.0479 129.835 94.3583C129.714 94.06 129.621 93.8177 129.542 93.6173C129.5 93.5319 129.472 93.4408 129.458 93.347C129.515 93.4221 129.561 93.5053 129.593 93.594C129.686 93.7851 129.798 94.0274 129.933 94.3163C130.231 94.9454 130.632 95.8681 131.112 97.0144C132.077 99.3024 133.312 102.508 134.626 106.069C135.94 109.629 137.137 112.84 138.055 115.146L139.146 117.877C139.267 118.175 139.36 118.422 139.439 118.623C139.479 118.707 139.508 118.796 139.523 118.888Z" fill="#263238"/>
<path d="M166.099 110.323C166.017 110.371 165.929 110.409 165.838 110.435L165.064 110.691L162.222 111.623C159.817 112.401 156.509 113.52 152.86 114.755C149.211 115.99 145.87 117.085 143.466 117.807C142.254 118.17 141.275 118.455 140.59 118.641L139.803 118.846C139.626 118.893 139.528 118.911 139.523 118.897C139.607 118.851 139.696 118.815 139.789 118.79L140.562 118.534L143.405 117.602C145.81 116.824 149.113 115.705 152.767 114.47C156.42 113.236 159.757 112.14 162.161 111.418C163.368 111.055 164.351 110.766 165.032 110.584L165.819 110.379C165.91 110.348 166.004 110.329 166.099 110.323Z" fill="#263238"/>
<path d="M143.265 123.203C144.079 123.203 144.879 122.987 145.583 122.578C146.286 122.168 146.869 121.58 147.273 120.873C147.664 120.16 147.908 119.376 147.992 118.567C148.076 117.758 147.998 116.94 147.762 116.162C147.557 115.44 147.184 114.69 146.495 114.391C146.164 114.272 145.807 114.243 145.461 114.307C145.115 114.372 144.793 114.528 144.528 114.759C144.003 115.229 143.611 115.829 143.391 116.498C142.538 118.753 142.133 121.083 143.265 123.208" fill="#455A64"/>
<path d="M142.398 127.532C144.115 127.472 145.821 127.821 147.376 128.55C148.931 129.279 150.29 130.368 151.341 131.726C151.867 132.421 152.315 133.376 151.872 134.126C151.429 134.876 150.367 134.951 149.509 134.802C147.718 134.467 146.066 133.608 144.763 132.334C143.46 131.06 142.564 129.428 142.189 127.644" fill="#455A64"/>
<path d="M163.261 121.502C162.824 120.92 162.274 120.432 161.644 120.067C161.014 119.703 160.316 119.47 159.594 119.382C158.144 119.215 156.676 119.383 155.302 119.871C152.627 120.734 150.176 122.849 148.312 124.969C150.791 126.866 154.407 126.684 156.234 126.479C159.123 126.153 164.156 123.809 163.224 121.502" fill="#455A64"/>
<path d="M136.075 127.779C136.533 127.67 136.984 127.533 137.426 127.369C139.06 126.67 140.591 125.753 141.979 124.643C143.376 123.511 144.441 122.022 145.059 120.333C145.235 119.819 145.347 119.285 145.395 118.744C145.426 118.546 145.426 118.345 145.395 118.147C145.27 118.86 145.091 119.563 144.859 120.249C144.197 121.867 143.139 123.293 141.783 124.396C140.411 125.483 138.919 126.41 137.338 127.16" fill="#263238"/>
<path d="M136.014 127.789L138.601 127.215C140.786 126.726 143.806 126.06 147.147 125.351C150.488 124.643 153.526 124.075 155.726 123.655L158.331 123.152C158.648 123.106 158.96 123.031 159.263 122.928C158.938 122.938 158.614 122.973 158.294 123.031C157.674 123.115 156.779 123.255 155.675 123.436C153.461 123.8 150.418 124.368 147.072 125.044C143.727 125.72 140.707 126.442 138.535 126.982C137.45 127.253 136.574 127.481 135.968 127.649" fill="#263238"/>
<path d="M148.657 131.894C148.577 131.724 148.471 131.567 148.344 131.428C148.218 131.247 148.078 131.075 147.925 130.915C147.732 130.692 147.527 130.481 147.31 130.282C146.753 129.755 146.144 129.287 145.493 128.884C144.692 128.395 143.84 127.995 142.953 127.691C142.058 127.401 141.135 127.207 140.199 127.113C139.436 127.042 138.668 127.05 137.906 127.136C137.613 127.162 137.322 127.207 137.035 127.271C136.817 127.306 136.602 127.358 136.392 127.425C136.042 127.528 135.972 127.658 135.977 127.677C136.62 127.536 137.27 127.428 137.925 127.355C138.673 127.305 139.425 127.321 140.171 127.402C141.999 127.602 143.763 128.191 145.344 129.131C145.988 129.515 146.596 129.956 147.161 130.449C148.13 131.284 148.615 131.931 148.657 131.894Z" fill="#263238"/>
<path d="M127.342 153.409L75.3699 153.167C73.8835 153.16 72.4129 152.86 71.0422 152.285C69.6715 151.71 68.4275 150.871 67.3811 149.815C66.3348 148.759 65.5067 147.508 64.9441 146.132C64.3815 144.756 64.0954 143.283 64.1022 141.796L64.652 11.5091C64.6588 10.022 64.9583 8.55087 65.5336 7.17959C66.1089 5.80831 66.9486 4.56377 68.0049 3.51703C69.0611 2.47029 70.3132 1.64185 71.6897 1.079C73.0661 0.516162 74.5399 0.229942 76.027 0.236689L127.995 0.479006C130.996 0.492572 133.869 1.69749 135.982 3.82883C138.095 5.96016 139.275 8.84341 139.262 11.8446L138.712 142.132C138.707 143.619 138.408 145.091 137.834 146.462C137.259 147.834 136.42 149.079 135.364 150.127C134.308 151.174 133.056 152.003 131.68 152.566C130.303 153.129 128.829 153.416 127.342 153.409Z" fill="#263238"/>
<path d="M127.92 4.97582L117.845 4.92922C117.517 4.93468 117.193 5.00486 116.891 5.13575C116.59 5.26663 116.318 5.45566 116.09 5.69199C115.862 5.92833 115.682 6.20733 115.562 6.51304C115.442 6.81874 115.383 7.14514 115.389 7.47355V9.30025C115.396 9.62888 115.337 9.95551 115.217 10.2615C115.097 10.5675 114.918 10.8468 114.69 11.0835C114.462 11.3202 114.189 11.5096 113.888 11.641C113.587 11.7724 113.262 11.8432 112.934 11.8492L93.292 11.756C92.6287 11.7377 91.9997 11.4572 91.5428 10.9759C91.086 10.4946 90.8386 9.8518 90.8549 9.18841L90.8735 7.37103C90.8898 6.70764 90.6424 6.06485 90.1856 5.58355C89.7287 5.10225 89.0997 4.8217 88.4364 4.8034H84.8948L76.0736 4.76146C75.0297 4.75594 73.9951 4.95676 73.0291 5.3524C72.0631 5.74804 71.1849 6.33069 70.4448 7.06685C69.7047 7.80302 69.1175 8.67819 68.7167 9.64207C68.316 10.6059 68.1097 11.6395 68.1097 12.6834L67.5738 139.802C67.5689 140.843 67.7691 141.874 68.163 142.837C68.5569 143.801 69.1367 144.677 69.8694 145.416C70.602 146.155 71.4731 146.743 72.4329 147.145C73.3927 147.548 74.4224 147.757 75.4631 147.761L127.328 148.003C128.372 148.009 129.407 147.808 130.373 147.412C131.339 147.017 132.217 146.434 132.957 145.698C133.697 144.962 134.284 144.087 134.685 143.123C135.086 142.159 135.292 141.125 135.292 140.082L135.833 12.9117C135.834 11.871 135.631 10.8401 135.235 9.87798C134.838 8.91584 134.255 8.0413 133.521 7.30433C132.786 6.56735 131.913 5.98238 130.952 5.58285C129.991 5.18331 128.961 4.97704 127.92 4.97582Z" fill="#FAFAFA"/>
<path d="M109.411 20.0647H96.032V22.5205H109.411V20.0647Z" fill="#455A64"/>
<path d="M80.2395 40.7502C80.3464 40.7528 80.4526 40.7669 80.5564 40.7922C80.6523 40.7668 80.7508 40.7527 80.85 40.7502H80.2395Z" fill="#455A64"/>
<path d="M83.9069 34.012C83.6614 33.6724 83.3623 33.375 83.0215 33.1312C82.3076 32.6045 81.4436 32.3203 80.5564 32.3203C79.6692 32.3203 78.8052 32.6045 78.0913 33.1312C77.7491 33.3749 77.4485 33.6723 77.2012 34.012C76.9573 34.3308 76.7654 34.6862 76.6327 35.0651C76.3896 35.7225 76.3151 36.4303 76.4161 37.1238C76.517 37.8174 76.7902 38.4746 77.2106 39.0354C77.2618 39.1053 77.3177 39.1659 77.369 39.2264C77.5419 38.67 77.8725 38.1756 78.3209 37.8034C78.7692 37.4312 79.3159 37.1971 79.8947 37.1295C79.5329 36.9714 79.2256 36.7104 79.011 36.3789C78.7964 36.0475 78.684 35.6603 78.6878 35.2655C78.6695 35.0059 78.7049 34.7453 78.7917 34.4999C78.8786 34.2546 79.015 34.0297 79.1924 33.8394C79.3699 33.649 79.5846 33.4972 79.8233 33.3934C80.062 33.2896 80.3194 33.236 80.5797 33.236C80.84 33.236 81.0974 33.2896 81.3361 33.3934C81.5748 33.4972 81.7895 33.649 81.967 33.8394C82.1444 34.0297 82.2808 34.2546 82.3676 34.4999C82.4545 34.7453 82.4899 35.0059 82.4716 35.2655C82.4752 35.6597 82.3633 36.0462 82.1496 36.3775C81.9359 36.7088 81.6299 36.9702 81.2694 37.1295C81.8416 37.1984 82.3813 37.4332 82.8218 37.8049C83.2623 38.1767 83.5844 38.6692 83.7485 39.2218L83.9022 39.0354C84.3226 38.4746 84.5958 37.8174 84.6967 37.1238C84.7977 36.4303 84.7232 35.7225 84.4801 35.0651C84.3439 34.6869 84.1506 34.3317 83.9069 34.012Z" fill="#FAFAFA"/>
<path d="M84.7131 34.9812C84.5751 34.5776 84.3737 34.1985 84.1166 33.8581C83.857 33.5003 83.5424 33.1858 83.1846 32.9262C82.4257 32.3632 81.5059 32.0593 80.5611 32.0593C79.6162 32.0593 78.6964 32.3632 77.9375 32.9262C77.5784 33.1842 77.2636 33.499 77.0055 33.8581C76.7487 34.1994 76.5459 34.5782 76.4044 34.9812C76.1391 35.7283 76.078 36.5326 76.2273 37.3112C76.3557 37.99 76.6431 38.6288 77.0661 39.1751C77.673 39.9623 78.5345 40.5141 79.5033 40.7362C79.7612 40.798 80.0255 40.8293 80.2908 40.8294C80.382 40.8416 80.4745 40.8416 80.5657 40.8294C80.4619 40.8041 80.3557 40.7901 80.2488 40.7875H80.8593C80.7601 40.79 80.6616 40.804 80.5657 40.8294C80.657 40.8416 80.7494 40.8416 80.8407 40.8294C81.1059 40.8293 81.3702 40.798 81.6282 40.7362C82.5956 40.5138 83.4555 39.9619 84.0607 39.1751C84.487 38.6303 84.7763 37.9911 84.9041 37.3112C85.0511 36.5314 84.985 35.7265 84.7131 34.9812ZM84.6711 37.2646C84.5539 37.9164 84.2841 38.5312 83.8836 39.0586L83.7298 39.245C83.5657 38.6925 83.2436 38.2 82.8031 37.8282C82.3626 37.4564 81.823 37.2216 81.2507 37.1527C81.6113 36.9934 81.9173 36.732 82.131 36.4007C82.3446 36.0695 82.4566 35.6829 82.453 35.2887C82.4712 35.0291 82.4358 34.7685 82.349 34.5232C82.2622 34.2778 82.1258 34.053 81.9483 33.8626C81.7709 33.6722 81.5561 33.5204 81.3175 33.4166C81.0788 33.3128 80.8213 33.2593 80.5611 33.2593C80.3008 33.2593 80.0433 33.3128 79.8047 33.4166C79.566 33.5204 79.3512 33.6722 79.1738 33.8626C78.9963 34.053 78.8599 34.2778 78.7731 34.5232C78.6863 34.7685 78.6509 35.0291 78.6691 35.2887C78.6653 35.6836 78.7777 36.0708 78.9923 36.4022C79.2069 36.7336 79.5142 36.9946 79.876 37.1527C79.2973 37.2203 78.7505 37.4544 78.3022 37.8266C77.8539 38.1989 77.5232 38.6932 77.3504 39.2497C77.2991 39.1891 77.2432 39.1285 77.1919 39.0586C76.7715 38.4978 76.4984 37.8406 76.3974 37.1471C76.2965 36.4535 76.371 35.7457 76.6141 35.0884C76.7467 34.7095 76.9386 34.354 77.1826 34.0352C77.4298 33.6956 77.7304 33.3982 78.0726 33.1545C78.7866 32.6277 79.6505 32.3435 80.5378 32.3435C81.425 32.3435 82.2889 32.6277 83.0029 33.1545C83.3437 33.3982 83.6427 33.6957 83.8882 34.0352C84.1319 34.3549 84.3253 34.7101 84.4614 35.0884C84.7225 35.7825 84.7949 36.5334 84.6711 37.2646Z" fill="#455A64"/>
<path d="M130.902 44.6739C130.902 44.6739 131.038 44.6739 131.289 44.6226C131.663 44.5455 132.007 44.3646 132.282 44.1007C132.503 43.887 132.673 43.6269 132.781 43.3392C132.889 43.0515 132.932 42.7434 132.906 42.4371C132.906 41.6962 132.906 40.8434 132.906 39.8881C132.906 37.9682 132.906 35.6243 132.883 32.8982C132.883 32.2179 132.883 31.5002 132.883 30.7826C132.902 30.4209 132.821 30.061 132.649 29.7421C132.477 29.4232 132.221 29.1577 131.909 28.9746C131.266 28.5691 130.427 28.7462 129.621 28.7089H127.114L73.5245 28.7462C73.2191 28.7474 72.9183 28.8211 72.6469 28.9613C72.3755 29.1014 72.1412 29.304 71.9634 29.5524C71.7862 29.8007 71.6726 30.0887 71.6326 30.3912C71.6088 30.7012 71.601 31.0123 71.6093 31.3232V42.6888C71.6228 42.9765 71.701 43.2576 71.8382 43.5109C71.9753 43.7642 72.1679 43.9834 72.4015 44.152C72.6321 44.3204 72.8984 44.4336 73.1797 44.4828C73.4734 44.5175 73.7695 44.5284 74.0651 44.5155H84.6245L108.712 44.5434L124.947 44.5854L129.365 44.6087H130.511C130.772 44.6087 130.902 44.6087 130.902 44.6087H130.511H129.365L124.947 44.6366L108.712 44.6786L84.6245 44.7065H74.0651C73.7539 44.7171 73.4424 44.7046 73.1331 44.6692C72.6477 44.5821 72.2063 44.3327 71.8811 43.9619C71.556 43.5911 71.3665 43.1208 71.3437 42.6282C71.3437 40.1584 71.3437 37.6483 71.3437 35.0977V31.2486C71.3437 30.9224 71.3437 30.6102 71.3437 30.2607C71.3943 29.9247 71.5236 29.6053 71.7211 29.3287C71.9224 29.0419 72.1895 28.8076 72.5 28.6455C72.8106 28.4833 73.1555 28.398 73.5059 28.3967L127.095 28.434H130.823C131.232 28.4186 131.637 28.5222 131.988 28.7322C132.325 28.9317 132.601 29.2195 132.786 29.5645C132.97 29.9095 133.057 30.2986 133.037 30.6894C133.037 31.4164 133.037 32.1247 133.037 32.805C133.037 35.5264 133.037 37.8704 133.013 39.7949C133.013 40.7502 133.013 41.603 133.013 42.3439C133.035 42.6601 132.985 42.9771 132.869 43.272C132.753 43.5669 132.573 43.8325 132.342 44.0495C132.056 44.3135 131.7 44.4898 131.317 44.5574C131.185 44.6165 131.046 44.6557 130.902 44.6739Z" fill="#455A64"/>
<path d="M103.996 32.7957H88.8604V33.9327H103.996V32.7957Z" fill="#455A64"/>
<path d="M115.376 39.2078H88.8604V40.3448H115.376V39.2078Z" fill="#455A64"/>
<path d="M127.286 35.9225H88.8604V37.0595H127.286V35.9225Z" fill="#455A64"/>
<path d="M80.2395 80.9002C80.4446 80.9282 80.5564 80.9282 80.5564 80.9468C80.6523 80.9215 80.7508 80.9074 80.85 80.9049L80.2395 80.9002Z" fill="#455A64"/>
<path d="M83.9069 74.1667C83.6626 73.8261 83.3634 73.5284 83.0215 73.2859C82.3076 72.7592 81.4436 72.4749 80.5564 72.4749C79.6692 72.4749 78.8052 72.7592 78.0913 73.2859C77.4239 73.7715 76.9161 74.4447 76.6327 75.2198C76.3896 75.8772 76.3151 76.585 76.4161 77.2785C76.517 77.9721 76.7902 78.6293 77.2106 79.1901L77.369 79.3811C77.5403 78.8238 77.8705 78.3285 78.3191 77.956C78.7678 77.5835 79.3153 77.35 79.8947 77.2842C79.5329 77.1261 79.2256 76.8651 79.011 76.5336C78.7964 76.2022 78.684 75.815 78.6878 75.4202C78.6695 75.1606 78.7049 74.9 78.7917 74.6546C78.8786 74.4093 79.015 74.1844 79.1924 73.9941C79.3699 73.8037 79.5846 73.6519 79.8233 73.5481C80.062 73.4443 80.3194 73.3907 80.5797 73.3907C80.84 73.3907 81.0974 73.4443 81.3361 73.5481C81.5748 73.6519 81.7895 73.8037 81.967 73.9941C82.1444 74.1844 82.2808 74.4093 82.3676 74.6546C82.4545 74.9 82.4899 75.1606 82.4716 75.4202C82.4746 75.8142 82.3624 76.2006 82.1488 76.5317C81.9352 76.8628 81.6296 77.1244 81.2694 77.2842C81.8413 77.3521 82.3808 77.586 82.8213 77.957C83.2619 78.328 83.5842 78.8198 83.7485 79.3718L83.9022 79.1901C84.3226 78.6293 84.5958 77.9721 84.6967 77.2785C84.7977 76.585 84.7232 75.8772 84.4801 75.2198C84.3439 74.8416 84.1506 74.4864 83.9069 74.1667Z" fill="#FAFAFA"/>
<path d="M84.7131 75.1359C84.5766 74.7302 84.3752 74.3494 84.1167 74.0082C83.8571 73.6504 83.5425 73.3358 83.1847 73.0762C82.4258 72.5133 81.506 72.2094 80.5611 72.2094C79.6163 72.2094 78.6964 72.5133 77.9376 73.0762C77.234 73.599 76.6993 74.3168 76.3998 75.1406C76.1338 75.8875 76.0727 76.692 76.2227 77.4706C76.3509 78.1495 76.6384 78.7883 77.0615 79.3345C77.6699 80.1191 78.531 80.669 79.4986 80.891C79.7561 80.9561 80.0206 80.989 80.2862 80.9888C80.3774 81.001 80.4699 81.001 80.5611 80.9888C80.5611 80.9888 80.4493 80.9888 80.2442 80.9422H80.8547C80.7555 80.9447 80.657 80.9588 80.5611 80.9842C80.6524 80.9963 80.7448 80.9963 80.8361 80.9842C81.1016 80.9843 81.3661 80.9515 81.6236 80.8863C82.5899 80.664 83.4494 80.1141 84.0561 79.3299C84.4816 78.7846 84.7708 78.1455 84.8995 77.4659C85.0489 76.6867 84.9845 75.8815 84.7131 75.1359ZM84.6712 77.4193C84.5561 78.0613 84.2928 78.6676 83.9023 79.1901L83.7485 79.3718C83.5842 78.8198 83.2619 78.328 82.8214 77.957C82.3808 77.586 81.8413 77.3521 81.2694 77.2842C81.6296 77.1244 81.9353 76.8628 82.1489 76.5317C82.3625 76.2006 82.4747 75.8142 82.4717 75.4202C82.4899 75.1606 82.4545 74.9 82.3677 74.6546C82.2809 74.4093 82.1445 74.1844 81.967 73.9941C81.7896 73.8037 81.5748 73.6519 81.3362 73.5481C81.0975 73.4443 80.84 73.3907 80.5798 73.3907C80.3195 73.3907 80.062 73.4443 79.8234 73.5481C79.5847 73.6519 79.3699 73.8037 79.1925 73.9941C79.015 74.1844 78.8786 74.4093 78.7918 74.6546C78.705 74.9 78.6696 75.1606 78.6878 75.4202C78.684 75.815 78.7964 76.2022 79.011 76.5336C79.2256 76.8651 79.5329 77.1261 79.8947 77.2842C79.3154 77.35 78.7678 77.5835 78.3192 77.956C77.8705 78.3285 77.5403 78.8238 77.3691 79.3811L77.2106 79.1901C76.7902 78.6293 76.5171 77.9721 76.4161 77.2785C76.3152 76.585 76.3897 75.8772 76.6328 75.2198C76.9162 74.4447 77.424 73.7715 78.0914 73.2859C78.8053 72.7592 79.6692 72.4749 80.5565 72.4749C81.4437 72.4749 82.3076 72.7592 83.0216 73.2859C83.3634 73.5284 83.6626 73.8261 83.907 74.1667C84.1507 74.4864 84.344 74.8416 84.4801 75.2198C84.7391 75.9228 84.8051 76.6822 84.6712 77.4193Z" fill="#455A64"/>
<path d="M130.902 84.8286C130.902 84.8286 131.038 84.8286 131.289 84.7774C131.663 84.7002 132.007 84.5193 132.282 84.2554C132.503 84.0412 132.674 83.7804 132.782 83.4918C132.89 83.2032 132.933 82.8942 132.906 82.5872C132.906 81.8509 132.906 80.9981 132.906 80.0382C132.906 78.123 132.906 75.7743 132.883 73.0483C132.883 72.3679 132.883 71.6503 132.883 70.9373C132.902 70.575 132.821 70.2145 132.649 69.8949C132.477 69.5753 132.221 69.3089 131.909 69.1246C131.266 68.7192 130.427 68.8963 129.621 68.859H127.114L73.5245 68.9009C73.2189 68.901 72.9177 68.9742 72.6461 69.1145C72.3745 69.2547 72.1404 69.4579 71.9635 69.7071C71.7857 69.9534 71.672 70.2401 71.6326 70.5412C71.6089 70.8513 71.6011 71.1624 71.6093 71.4732V82.8621C71.6235 83.1497 71.702 83.4305 71.8391 83.6838C71.9762 83.937 72.1684 84.1563 72.4015 84.3253C72.6321 84.4938 72.8984 84.607 73.1797 84.6562C73.4736 84.6885 73.7696 84.6994 74.0651 84.6888H84.6245L108.712 84.7168L124.947 84.7634H129.365H130.511C130.772 84.7634 130.902 84.7634 130.902 84.7634C130.902 84.7634 130.772 84.7634 130.511 84.7634H129.365L124.947 84.7867L108.712 84.8333L84.6245 84.8612H74.0651C73.754 84.8734 73.4425 84.8625 73.1331 84.8286C72.6603 84.7438 72.2288 84.5049 71.906 84.1492C71.5831 83.7935 71.3871 83.3409 71.3483 82.8621C71.3483 80.3924 71.3483 77.8822 71.3483 75.3317V71.4825C71.3483 71.1563 71.3483 70.8488 71.3483 70.4946C71.3954 70.1505 71.5249 69.8227 71.7258 69.5393C71.9276 69.2531 72.1948 69.0192 72.5053 68.8571C72.8157 68.695 73.1604 68.6094 73.5106 68.6074L127.1 68.6446H130.828C131.125 68.6331 131.422 68.6839 131.698 68.7937C131.975 68.9035 132.225 69.07 132.434 69.2824C132.642 69.4948 132.804 69.7484 132.909 70.027C133.013 70.3056 133.058 70.603 133.041 70.9001C133.041 71.627 133.041 72.3307 133.041 73.011C133.041 75.7324 133.041 78.081 133.018 80.0009C133.018 80.9609 133.018 81.8136 133.018 82.5499C133.04 82.8661 132.99 83.1832 132.874 83.4782C132.758 83.7732 132.578 84.0386 132.347 84.2554C132.061 84.5205 131.705 84.6983 131.322 84.768C131.186 84.8085 131.044 84.8289 130.902 84.8286Z" fill="#455A64"/>
<path d="M103.996 72.9457H88.8604V74.0828H103.996V72.9457Z" fill="#455A64"/>
<path d="M115.376 79.3625H88.8604V80.4995H115.376V79.3625Z" fill="#455A64"/>
<path d="M127.286 76.0772H88.8604V77.2142H127.286V76.0772Z" fill="#455A64"/>
<path d="M71.6213 50.0142L71.5867 62.4049C71.5838 63.4163 72.4015 64.2386 73.4129 64.2414L131.224 64.4028C132.235 64.4056 133.058 63.588 133.06 62.5766L133.095 50.1858C133.098 49.1744 132.28 48.3522 131.269 48.3494L73.4577 48.1879C72.4463 48.1851 71.6241 49.0027 71.6213 50.0142Z" fill="#ED7801"/>
<path d="M104.149 52.4462L89.0138 52.404L89.0106 53.541L104.146 53.5832L104.149 52.4462Z" fill="#FAFAFA"/>
<path d="M115.511 58.89L88.9958 58.816L88.9926 59.953L115.508 60.027L115.511 58.89Z" fill="#FAFAFA"/>
<path d="M127.431 55.6427L89.005 55.5354L89.0018 56.6724L127.428 56.7797L127.431 55.6427Z" fill="#FAFAFA"/>
<path d="M81.4185 56.7105C81.7758 56.5428 82.0763 56.2745 82.2833 55.9384C82.4902 55.6023 82.5946 55.2131 82.5835 54.8186C82.5971 54.559 82.5571 54.2993 82.4661 54.0558C82.3752 53.8123 82.2351 53.5901 82.0546 53.4029C81.8742 53.2158 81.6572 53.0678 81.4171 52.968C81.177 52.8683 80.919 52.819 80.6591 52.8231C80.3992 52.8273 80.1429 52.8849 79.9061 52.9922C79.6694 53.0996 79.4572 53.2545 79.2828 53.4473C79.1085 53.6401 78.9756 53.8667 78.8925 54.113C78.8093 54.3593 78.7777 54.6201 78.7996 54.8791C78.7989 55.2782 78.9168 55.6684 79.1383 56.0003C79.3599 56.3322 79.675 56.5907 80.0438 56.7431C79.448 56.8271 78.8906 57.0864 78.4425 57.488C77.9944 57.8896 77.6759 58.4154 77.5274 58.9985C78.2231 59.7533 79.1647 60.2356 80.1836 60.3592H81.3486C82.3789 60.203 83.3168 59.6761 83.9861 58.8774C83.8254 58.3 83.4945 57.7845 83.0365 57.398C82.5785 57.0115 82.0146 56.7719 81.4185 56.7105Z" fill="#FAFAFA"/>
<path d="M80.7848 60.3873C80.7848 60.3546 81.1669 60.3873 81.8193 60.1822C82.3858 60.0226 82.9127 59.7464 83.3662 59.3714C83.8198 58.9963 84.1901 58.5307 84.4533 58.0043C84.7165 57.4779 84.8668 56.9023 84.8947 56.3144C84.9226 55.7265 84.8274 55.1393 84.6152 54.5903C84.4733 54.2138 84.2736 53.8616 84.0234 53.5465C83.7678 53.2117 83.4612 52.9192 83.1147 52.6797C82.3852 52.1703 81.5125 51.9061 80.6228 51.9253C79.7332 51.9446 78.8727 52.2463 78.1659 52.7869C77.8297 53.0406 77.5356 53.3457 77.2945 53.6909C77.0577 54.0164 76.8723 54.3763 76.7446 54.758C76.5559 55.3159 76.4853 55.9068 76.5371 56.4934C76.5889 57.0799 76.762 57.6493 77.0455 58.1655C77.3289 58.6816 77.7166 59.1332 78.1838 59.4916C78.651 59.85 79.1876 60.1074 79.7596 60.2475C80.4213 60.4059 80.8081 60.3733 80.8034 60.4059C80.4481 60.4419 80.0892 60.4199 79.7409 60.3407C78.7719 60.1374 77.9027 59.6057 77.2805 58.8355C76.8493 58.3037 76.5492 57.678 76.4044 57.0088C76.2381 56.2345 76.2831 55.4297 76.5349 54.6788C76.8147 53.8508 77.3316 53.1232 78.0214 52.5865C78.766 52.0102 79.6759 51.6883 80.6172 51.6682C81.5585 51.648 82.4814 51.9307 83.2499 52.4747C83.6163 52.732 83.9389 53.0467 84.2052 53.4067C84.4684 53.7417 84.6775 54.116 84.8249 54.5157C85.1108 55.2573 85.1897 56.0627 85.0533 56.8457C84.9119 57.6695 84.5361 58.4352 83.9708 59.0509C83.4055 59.6666 82.6747 60.1063 81.8659 60.3174C81.5121 60.4016 81.1465 60.4253 80.7848 60.3873Z" fill="#FAFAFA"/>
<path d="M98.567 135.827C98.5291 136.083 98.4002 136.318 98.2039 136.487C98.0076 136.657 97.7569 136.75 97.4976 136.75C97.2383 136.75 96.9876 136.657 96.7913 136.487C96.595 136.318 96.4661 136.083 96.4281 135.827C96.4661 135.57 96.595 135.336 96.7913 135.167C96.9876 134.997 97.2383 134.904 97.4976 134.904C97.7569 134.904 98.0076 134.997 98.2039 135.167C98.4002 135.336 98.5291 135.57 98.567 135.827Z" fill="#455A64"/>
<path d="M101.885 135.841C101.915 136.059 101.878 136.282 101.779 136.478C101.679 136.675 101.522 136.836 101.328 136.941C101.135 137.046 100.913 137.089 100.694 137.064C100.475 137.04 100.269 136.949 100.103 136.804C99.9371 136.659 99.8194 136.467 99.7657 136.253C99.712 136.04 99.7249 135.815 99.8027 135.609C99.8804 135.402 100.019 135.225 100.201 135.1C100.382 134.975 100.598 134.908 100.818 134.909C101.083 134.891 101.344 134.979 101.544 135.154C101.745 135.329 101.867 135.576 101.885 135.841Z" fill="#455A64"/>
<path d="M105.198 135.855C105.229 136.073 105.191 136.296 105.092 136.493C104.992 136.689 104.835 136.851 104.641 136.956C104.446 137.06 104.225 137.103 104.006 137.078C103.787 137.053 103.58 136.962 103.414 136.817C103.249 136.671 103.131 136.479 103.078 136.265C103.025 136.051 103.039 135.825 103.117 135.619C103.196 135.413 103.335 135.236 103.517 135.111C103.699 134.987 103.915 134.921 104.136 134.923C104.4 134.906 104.66 134.995 104.859 135.17C105.058 135.344 105.18 135.591 105.198 135.855Z" fill="#455A64"/>
<path d="M80.2395 101.726C80.4446 101.753 80.5564 101.753 80.5564 101.772C80.5564 101.791 80.6589 101.772 80.85 101.73L80.2395 101.726Z" fill="#455A64"/>
<path d="M83.9069 94.9779C83.6612 94.6398 83.3622 94.3439 83.0215 94.1019C82.3076 93.5751 81.4436 93.2909 80.5564 93.2909C79.6692 93.2909 78.8052 93.5751 78.0913 94.1019C77.7492 94.3439 77.4486 94.6397 77.2012 94.9779C76.9572 95.2984 76.7653 95.6554 76.6327 96.0357C76.3896 96.6931 76.3151 97.4009 76.4161 98.0944C76.517 98.788 76.7902 99.4452 77.2106 100.006C77.2618 100.071 77.3177 100.132 77.369 100.192C77.5416 99.6362 77.8723 99.1422 78.3207 98.7707C78.7692 98.3992 79.3161 98.1662 79.8947 98.1001C79.5292 97.9405 79.2193 97.6758 79.0045 97.3398C78.7896 97.0038 78.6794 96.6116 78.6878 96.2128C78.6695 95.9532 78.7049 95.6926 78.7917 95.4472C78.8786 95.2019 79.015 94.977 79.1924 94.7867C79.3699 94.5963 79.5846 94.4445 79.8233 94.3407C80.062 94.2369 80.3194 94.1833 80.5797 94.1833C80.84 94.1833 81.0974 94.2369 81.3361 94.3407C81.5748 94.4445 81.7895 94.5963 81.967 94.7867C82.1444 94.977 82.2808 95.2019 82.3677 95.4472C82.4545 95.6926 82.4899 95.9532 82.4716 96.2128C82.4746 96.6068 82.3624 96.9932 82.1488 97.3243C81.9352 97.6555 81.6296 97.917 81.2694 98.0768C81.8413 98.1447 82.3808 98.3786 82.8213 98.7496C83.2619 99.1206 83.5842 99.6124 83.7485 100.164L83.9022 99.9827C84.3207 99.421 84.5926 98.7638 84.6935 98.0707C84.7944 97.3775 84.7211 96.6701 84.4801 96.0124C84.3418 95.6409 84.1486 95.2922 83.9069 94.9779Z" fill="#FAFAFA"/>
<path d="M84.7131 95.9612C84.5752 95.5562 84.3739 95.1755 84.1167 94.8335C83.8563 94.4763 83.5419 94.1619 83.1847 93.9016C82.4258 93.3386 81.506 93.0347 80.5611 93.0347C79.6163 93.0347 78.6964 93.3386 77.9376 93.9016C77.2314 94.4218 76.6961 95.1404 76.3998 95.9659C76.1338 96.7128 76.0727 97.5173 76.2227 98.2959C76.3519 98.9745 76.6393 99.6131 77.0615 100.16C77.6699 100.944 78.531 101.494 79.4986 101.716C79.7569 101.777 80.0209 101.81 80.2862 101.814C80.3774 101.826 80.4699 101.826 80.5611 101.814C80.5611 101.814 80.4493 101.814 80.2442 101.768H80.8547C80.6636 101.791 80.5611 101.791 80.5611 101.809C80.6524 101.822 80.7448 101.822 80.8361 101.809C81.1013 101.805 81.3653 101.772 81.6236 101.712C82.5899 101.489 83.4494 100.939 84.0561 100.155C84.4816 99.6099 84.7708 98.9708 84.8995 98.2912C85.0489 97.512 84.9845 96.7068 84.7131 95.9612ZM84.6712 98.24C84.5578 98.8839 84.2944 99.4921 83.9023 100.015L83.7485 100.197C83.5842 99.6451 83.2619 99.1533 82.8214 98.7823C82.3808 98.4113 81.8413 98.1774 81.2694 98.1095C81.6296 97.9497 81.9353 97.6882 82.1489 97.357C82.3625 97.0259 82.4747 96.6395 82.4717 96.2455C82.4899 95.9859 82.4545 95.7253 82.3677 95.4799C82.2809 95.2346 82.1445 95.0097 81.967 94.8194C81.7896 94.629 81.5748 94.4772 81.3362 94.3734C81.0975 94.2696 80.84 94.216 80.5798 94.216C80.3195 94.216 80.062 94.2696 79.8234 94.3734C79.5847 94.4772 79.3699 94.629 79.1925 94.8194C79.015 95.0097 78.8786 95.2346 78.7918 95.4799C78.705 95.7253 78.6696 95.9859 78.6878 96.2455C78.6794 96.6443 78.7896 97.0365 79.0045 97.3725C79.2194 97.7085 79.5292 97.9731 79.8947 98.1328C79.3161 98.1989 78.7693 98.4319 78.3208 98.8034C77.8723 99.1749 77.5416 99.6689 77.3691 100.225C77.3178 100.165 77.2619 100.104 77.2106 100.039C76.7902 99.4779 76.5171 98.8207 76.4161 98.1271C76.3152 97.4336 76.3897 96.7258 76.6328 96.0684C76.7654 95.6881 76.9572 95.3311 77.2013 95.0106C77.4487 94.6724 77.7493 94.3766 78.0914 94.1346C78.8053 93.6078 79.6692 93.3236 80.5565 93.3236C81.4437 93.3236 82.3076 93.6078 83.0216 94.1346C83.3622 94.3766 83.6613 94.6725 83.907 95.0106C84.1507 95.332 84.344 95.6887 84.4801 96.0684C84.7341 96.7628 84.8 97.5119 84.6712 98.24Z" fill="#455A64"/>
<path d="M130.902 105.654C130.902 105.654 131.038 105.654 131.289 105.603C131.663 105.525 132.007 105.345 132.282 105.081C132.503 104.867 132.674 104.606 132.782 104.317C132.89 104.028 132.933 103.719 132.906 103.412C132.906 102.672 132.906 101.823 132.906 100.863C132.906 98.9436 132.906 96.5996 132.883 93.8736C132.883 93.1932 132.883 92.4756 132.883 91.7626C132.902 91.4003 132.821 91.0398 132.649 90.7202C132.477 90.4006 132.221 90.1342 131.909 89.9499C131.266 89.5445 130.427 89.7215 129.621 89.6843H127.114L73.5245 89.7262C73.2187 89.7251 72.917 89.7978 72.6453 89.9382C72.3735 90.0785 72.1396 90.2823 71.9634 90.5324C71.785 90.7783 71.6712 91.0651 71.6326 91.3665C71.6089 91.6766 71.6011 91.9876 71.6093 92.2985V103.692C71.6228 103.98 71.701 104.262 71.8381 104.516C71.9752 104.77 72.1678 104.99 72.4015 105.16C72.6321 105.328 72.8984 105.442 73.1797 105.491C73.4738 105.521 73.7695 105.532 74.0651 105.523H84.6245L108.712 105.551L124.947 105.598L129.365 105.621H130.511C130.772 105.621 130.902 105.621 130.902 105.621H130.511H129.365H124.947L108.712 105.663L84.6245 105.696H74.0651C73.7539 105.709 73.4422 105.696 73.1331 105.659C72.8111 105.606 72.5061 105.479 72.243 105.286C71.9763 105.094 71.7567 104.844 71.6008 104.555C71.445 104.266 71.357 103.946 71.3437 103.617C71.3437 101.132 71.3437 98.622 71.3437 96.087V92.2379C71.3437 91.9117 71.3437 91.6042 71.3437 91.25C71.3907 90.9058 71.5202 90.5781 71.7211 90.2947C71.924 90.0096 72.1915 89.7765 72.5017 89.6146C72.8118 89.4526 73.156 89.3663 73.5059 89.3627L127.095 89.4047H130.823C131.232 89.3937 131.635 89.497 131.988 89.7029C132.325 89.9035 132.601 90.1922 132.785 90.5379C132.97 90.8837 133.057 91.2733 133.037 91.6647C133.037 92.3917 133.037 93.0953 133.037 93.7757C133.037 96.4971 133.037 98.8411 133.013 100.766C133.013 101.726 133.013 102.574 133.013 103.315C133.035 103.631 132.986 103.948 132.87 104.243C132.754 104.538 132.574 104.803 132.342 105.02C132.056 105.285 131.701 105.463 131.317 105.533C131.186 105.593 131.046 105.634 130.902 105.654Z" fill="#455A64"/>
<path d="M103.996 93.7711H88.8604V94.9081H103.996V93.7711Z" fill="#455A64"/>
<path d="M115.376 100.188H88.8604V101.325H115.376V100.188Z" fill="#455A64"/>
<path d="M127.286 96.9025H88.8604V98.0395H127.286V96.9025Z" fill="#455A64"/>
<path d="M80.2395 122.136C80.4446 122.159 80.5564 122.164 80.5564 122.183C80.5564 122.201 80.6589 122.159 80.85 122.141L80.2395 122.136Z" fill="#455A64"/>
<path d="M83.9069 115.398C83.6601 115.059 83.3612 114.762 83.0215 114.517C82.305 113.997 81.4421 113.716 80.5564 113.716C79.6707 113.716 78.8078 113.997 78.0913 114.517C77.7501 114.762 77.4498 115.059 77.2012 115.398C76.9572 115.718 76.7653 116.075 76.6327 116.456C76.3896 117.113 76.3151 117.821 76.4161 118.514C76.517 119.208 76.7902 119.865 77.2106 120.426C77.2618 120.491 77.3177 120.552 77.369 120.612C77.5416 120.056 77.8723 119.562 78.3207 119.191C78.7692 118.819 79.3161 118.586 79.8947 118.52C79.5333 118.361 79.2263 118.1 79.0117 117.769C78.7972 117.438 78.6846 117.051 78.6878 116.656C78.6695 116.396 78.7049 116.136 78.7917 115.89C78.8786 115.645 79.015 115.42 79.1924 115.23C79.3699 115.04 79.5846 114.888 79.8233 114.784C80.062 114.68 80.3194 114.627 80.5797 114.627C80.84 114.627 81.0974 114.68 81.3361 114.784C81.5748 114.888 81.7895 115.04 81.967 115.23C82.1444 115.42 82.2808 115.645 82.3676 115.89C82.4545 116.136 82.4899 116.396 82.4716 116.656C82.4746 117.05 82.3624 117.436 82.1488 117.768C81.9352 118.099 81.6296 118.36 81.2694 118.52C81.8415 118.587 82.3813 118.821 82.8219 119.192C83.2626 119.563 83.5847 120.055 83.7485 120.608C83.7997 120.547 83.851 120.491 83.9022 120.421C84.2952 119.9 84.5587 119.293 84.6711 118.65C84.8042 117.915 84.7382 117.157 84.4801 116.456C84.3439 116.076 84.1506 115.719 83.9069 115.398Z" fill="#FAFAFA"/>
<path d="M84.7131 116.367C84.5751 115.963 84.3737 115.584 84.1166 115.244C83.857 114.886 83.5424 114.572 83.1846 114.312C82.4246 113.752 81.5052 113.45 80.5611 113.45C79.6169 113.45 78.6976 113.752 77.9375 114.312C77.5784 114.57 77.2636 114.885 77.0055 115.244C76.7487 115.585 76.5459 115.964 76.4044 116.367C76.1391 117.114 76.078 117.918 76.2273 118.697C76.3548 119.376 76.6423 120.015 77.0661 120.561C77.673 121.348 78.5345 121.9 79.5033 122.122C79.7615 122.183 80.0255 122.215 80.2908 122.22C80.382 122.232 80.4745 122.232 80.5657 122.22C80.5657 122.22 80.4539 122.197 80.2488 122.173H80.8593C80.6682 122.173 80.5657 122.173 80.5657 122.215C80.657 122.227 80.7494 122.227 80.8407 122.215C81.1059 122.211 81.3699 122.178 81.6282 122.117C82.441 121.922 83.1804 121.496 83.7586 120.893C84.3369 120.289 84.7296 119.532 84.8901 118.711C85.0441 117.928 84.9829 117.118 84.7131 116.367ZM84.6711 118.65C84.5587 119.293 84.2952 119.9 83.9022 120.421C83.851 120.491 83.7997 120.547 83.7485 120.608C83.5847 120.055 83.2625 119.563 82.8219 119.192C82.3813 118.821 81.8415 118.587 81.2694 118.52C81.6296 118.36 81.9352 118.099 82.1488 117.768C82.3624 117.436 82.4746 117.05 82.4716 116.656C82.4899 116.396 82.4545 116.136 82.3676 115.89C82.2808 115.645 82.1444 115.42 81.967 115.23C81.7895 115.04 81.5748 114.888 81.3361 114.784C81.0974 114.68 80.84 114.627 80.5797 114.627C80.3194 114.627 80.062 114.68 79.8233 114.784C79.5846 114.888 79.3699 115.04 79.1924 115.23C79.0149 115.42 78.8786 115.645 78.7917 115.89C78.7049 116.136 78.6695 116.396 78.6878 116.656C78.6846 117.051 78.7972 117.438 79.0117 117.769C79.2263 118.1 79.5332 118.361 79.8947 118.52C79.315 118.584 78.7665 118.816 78.3163 119.186C77.8661 119.557 77.5337 120.051 77.3597 120.608C77.3084 120.547 77.2525 120.486 77.2012 120.421C76.7809 119.86 76.5077 119.203 76.4068 118.51C76.3058 117.816 76.3803 117.108 76.6234 116.451C76.756 116.071 76.9478 115.714 77.1919 115.393C77.4404 115.055 77.7408 114.757 78.082 114.512C78.7985 113.992 79.6614 113.711 80.5471 113.711C81.4327 113.711 82.2957 113.992 83.0122 114.512C83.6776 115.002 84.1847 115.676 84.4707 116.451C84.7329 117.153 84.802 117.913 84.6711 118.65Z" fill="#455A64"/>
<path d="M130.902 126.064C130.902 126.064 131.038 126.064 131.289 126.013C131.779 125.908 132.214 125.628 132.512 125.224C132.81 124.821 132.95 124.322 132.906 123.823C132.906 123.082 132.906 122.234 132.906 121.274C132.906 119.354 132.906 117.01 132.883 114.284C132.883 113.604 132.883 112.886 132.883 112.173C132.9 111.807 132.816 111.444 132.639 111.123C132.462 110.802 132.2 110.536 131.881 110.356C131.238 109.95 130.399 110.127 129.593 110.09H127.086L73.4966 110.127C73.1906 110.128 72.8892 110.203 72.6177 110.344C72.3461 110.485 72.1122 110.688 71.9355 110.938C71.757 111.184 71.6432 111.471 71.6046 111.772C71.5808 112.082 71.5731 112.394 71.5813 112.704V124.103C71.5948 124.39 71.6731 124.671 71.8102 124.925C71.9474 125.178 72.1399 125.397 72.3735 125.566C72.6037 125.736 72.87 125.851 73.1517 125.901C73.4458 125.932 73.7417 125.941 74.0371 125.929H84.5965L108.684 125.957L124.919 125.999L129.337 126.027H130.483H130.874C130.874 126.027 130.744 126.027 130.483 126.027H129.337L124.919 126.055L108.684 126.097L84.5965 126.125H74.0651C73.7539 126.136 73.4424 126.123 73.1331 126.088C72.8108 126.034 72.5058 125.904 72.243 125.71C71.9764 125.52 71.7568 125.271 71.6009 124.983C71.445 124.694 71.3571 124.374 71.3437 124.047C71.3437 121.577 71.3437 119.067 71.3437 116.516V112.667C71.3437 112.341 71.3437 112.033 71.3437 111.679C71.3907 111.335 71.5202 111.007 71.7211 110.724C71.9232 110.438 72.1905 110.204 72.5009 110.042C72.8112 109.88 73.1557 109.794 73.5059 109.792L127.095 109.834H130.823C131.232 109.823 131.635 109.926 131.988 110.132C132.325 110.332 132.601 110.621 132.786 110.967C132.971 111.313 133.058 111.702 133.037 112.094C133.037 112.821 133.037 113.525 133.037 114.205C133.037 116.926 133.037 119.27 133.013 121.195C133.013 122.155 133.013 123.003 133.013 123.744C133.035 124.06 132.985 124.377 132.869 124.672C132.753 124.967 132.573 125.232 132.342 125.449C132.057 125.715 131.701 125.892 131.317 125.957C131.185 126.014 131.045 126.05 130.902 126.064Z" fill="#455A64"/>
<path d="M103.996 114.182H88.8604V115.319H103.996V114.182Z" fill="#455A64"/>
<path d="M115.376 120.594H88.8604V121.731H115.376V120.594Z" fill="#455A64"/>
<path d="M127.286 117.308H88.8604V118.445H127.286V117.308Z" fill="#455A64"/>
<path d="M131.084 52.6191C132.798 52.6191 134.188 51.2296 134.188 49.5156C134.188 47.8015 132.798 46.412 131.084 46.412C129.37 46.412 127.981 47.8015 127.981 49.5156C127.981 51.2296 129.37 52.6191 131.084 52.6191Z" fill="#263238"/>
<path d="M129.56 49.2639L130.865 50.4103L132.603 48.6208" stroke="#FAFAFA" stroke-linecap="round" stroke-linejoin="round"/>
<path d="M45.0756 187.697L44.316 192.11L51.1195 192.608L51.1428 188.27L45.0756 187.697Z" fill="#ED7801"/>
<path d="M48.1418 187.757C48.1234 189.106 47.9672 190.448 47.6758 191.765C47.6497 191.09 47.6902 190.414 47.797 189.747C47.8454 189.074 47.961 188.408 48.1418 187.757Z" fill="#263238"/>
<path d="M51.1195 192.128C50.7902 192.134 50.461 192.109 50.1362 192.054L47.7737 191.793C46.8417 191.686 46.0122 191.574 45.4111 191.471C45.083 191.434 44.7597 191.362 44.4465 191.257C44.7758 191.245 45.1053 191.269 45.4297 191.327L47.797 191.593C48.7289 191.695 49.5538 191.812 50.1549 191.914C50.483 191.952 50.8063 192.024 51.1195 192.128Z" fill="#263238"/>
<path d="M69.6335 190.106V186.145L62.2242 186.075L62.145 191.867L62.611 191.9C64.6567 192.031 73.0166 192.431 74.3866 192.031C75.9198 191.583 69.6335 190.106 69.6335 190.106Z" fill="#ED7801"/>
<g opacity="0.38">
<path d="M64.843 191.835C64.7388 191.208 64.4069 190.643 63.911 190.246C63.4247 189.85 62.8081 189.651 62.1822 189.687V191.76L64.843 191.835Z" fill="black"/>
</g>
<g opacity="0.38">
<path d="M72.6997 190.935C72.6997 190.935 74.8992 191.593 74.6196 191.956C74.34 192.319 65.8775 192.231 62.1496 191.867V191.7L72.0193 191.881C72.0193 191.881 72.271 190.973 72.6997 190.935Z" fill="black"/>
</g>
<path d="M62.0517 191.695H62.1775L62.541 191.723L63.8877 191.793C65.0294 191.844 66.5998 191.895 68.338 191.914C70.0761 191.933 71.6466 191.914 72.7882 191.891L74.135 191.849H74.5031C74.5448 191.855 74.5872 191.855 74.6289 191.849H74.135H72.7882C71.6466 191.849 70.0761 191.849 68.338 191.849C66.5998 191.849 65.0294 191.788 63.8924 191.751L62.5457 191.709H62.1775L62.0517 191.695Z" fill="#263238"/>
<path d="M72.0333 191.998C72.0953 191.776 72.1829 191.561 72.2943 191.36C72.4315 191.173 72.5876 191.001 72.7603 190.847C72.5297 190.932 72.3376 191.097 72.2197 191.313C72.0761 191.511 72.0098 191.754 72.0333 191.998Z" fill="#263238"/>
<path d="M69.8571 190.866C69.8571 190.866 69.9829 190.754 70.0948 190.586C70.1744 190.49 70.2303 190.377 70.2579 190.255C70.2579 190.255 70.1274 190.367 70.0202 190.535C69.913 190.702 69.8385 190.852 69.8571 190.866Z" fill="#263238"/>
<path d="M69.2607 190.544C69.2607 190.544 69.3958 190.483 69.5263 190.372C69.6568 190.26 69.7453 190.153 69.7267 190.134C69.7081 190.115 69.5962 190.19 69.4657 190.306C69.3353 190.423 69.2467 190.507 69.2607 190.544Z" fill="#263238"/>
<path d="M68.8879 189.84C69.1427 189.896 69.4066 189.896 69.6614 189.84C69.6614 189.812 69.489 189.789 69.2793 189.784C69.1463 189.775 69.0128 189.794 68.8879 189.84Z" fill="#263238"/>
<path d="M68.7621 189.346C68.8908 189.431 69.0414 189.477 69.1955 189.477C69.3528 189.508 69.5158 189.488 69.6615 189.421C69.5171 189.394 69.3702 189.383 69.2234 189.388C69.0715 189.358 68.9169 189.344 68.7621 189.346Z" fill="#263238"/>
<path d="M70.1181 190.222C70.2725 190.247 70.4298 190.247 70.5841 190.222C70.756 190.2 70.9259 190.165 71.0921 190.115C71.1926 190.088 71.2895 190.049 71.381 189.999C71.4101 189.983 71.4358 189.962 71.4567 189.936C71.4775 189.911 71.4929 189.881 71.5021 189.85C71.5091 189.814 71.5063 189.778 71.494 189.744C71.4816 189.711 71.4603 189.681 71.4322 189.659C71.2518 189.566 71.0444 189.54 70.8467 189.585C70.649 189.63 70.4735 189.744 70.3511 189.906C70.2746 189.996 70.2203 190.103 70.1927 190.218C70.1927 190.302 70.1927 190.348 70.1927 190.348C70.24 190.201 70.3143 190.063 70.4117 189.943C70.5207 189.819 70.663 189.728 70.8218 189.682C71.0101 189.622 71.2142 189.639 71.3903 189.728C71.4649 189.784 71.4322 189.873 71.3484 189.924C71.2628 189.968 71.174 190.006 71.0827 190.036C70.9216 190.09 70.7564 190.13 70.5888 190.157C70.2999 190.208 70.1181 190.208 70.1181 190.222Z" fill="#263238"/>
<path d="M70.2393 190.246C70.2393 190.246 70.3185 190.134 70.2999 189.92C70.2841 189.795 70.2394 189.675 70.1694 189.57C70.1313 189.498 70.0751 189.438 70.0065 189.395C69.9378 189.351 69.859 189.327 69.7779 189.323C69.7537 189.328 69.7306 189.337 69.71 189.35C69.6893 189.364 69.6716 189.381 69.6577 189.401C69.6438 189.422 69.6341 189.445 69.6292 189.469C69.6242 189.493 69.6241 189.518 69.6288 189.542C69.6388 189.617 69.6659 189.689 69.708 189.752C69.7696 189.858 69.8431 189.956 69.9271 190.045C70.0011 190.13 70.0935 190.197 70.1973 190.241C70.1973 190.241 70.1041 190.153 69.9737 190.003C69.9014 189.912 69.836 189.816 69.7779 189.715C69.7127 189.612 69.6708 189.43 69.7779 189.412C69.8851 189.393 70.0156 189.519 70.0901 189.617C70.1562 189.71 70.2007 189.816 70.2206 189.929C70.2368 190.034 70.243 190.14 70.2393 190.246Z" fill="#263238"/>
<path d="M62.2242 189.668C62.2242 189.668 62.4339 189.668 62.7694 189.691C63.2047 189.748 63.616 189.924 63.9577 190.199C64.2973 190.478 64.5523 190.846 64.694 191.262C64.7481 191.435 64.7932 191.61 64.8291 191.788C64.8371 191.739 64.8371 191.688 64.8291 191.639C64.8161 191.503 64.7896 191.369 64.7499 191.238C64.6185 190.803 64.3606 190.417 64.0089 190.129C63.6558 189.841 63.2235 189.668 62.7694 189.631C62.6347 189.616 62.4987 189.616 62.364 189.631C62.3155 189.634 62.2681 189.647 62.2242 189.668Z" fill="#263238"/>
<path d="M63.021 186.592C62.9656 187.097 62.9391 187.604 62.9418 188.112C62.9134 188.619 62.9134 189.128 62.9418 189.635C62.9973 189.131 63.0237 188.624 63.021 188.116C63.0495 187.609 63.0495 187.1 63.021 186.592Z" fill="#263238"/>
<path d="M65.7797 191.122C66.1334 191.207 66.4969 191.247 66.8608 191.238C67.2244 191.261 67.5895 191.236 67.9465 191.164C67.9465 191.136 67.4805 191.164 66.8654 191.164C66.2503 191.164 65.7843 191.094 65.7797 191.122Z" fill="#263238"/>
<path d="M64.3118 191.103C64.3118 191.103 64.3491 191.206 64.3957 191.318C64.4423 191.429 64.4702 191.527 64.4982 191.527C64.5261 191.527 64.5355 191.411 64.4982 191.28C64.4609 191.15 64.3444 191.085 64.3118 191.103Z" fill="#263238"/>
<path d="M63.7899 190.418C63.7899 190.418 63.8179 190.511 63.8924 190.591C63.967 190.67 64.0462 190.716 64.0649 190.702C64.0835 190.689 64.0322 190.605 63.9577 190.525C63.8831 190.446 63.8039 190.4 63.7899 190.418Z" fill="#263238"/>
<path d="M63.007 190.097C63.007 190.12 63.1096 190.12 63.2214 190.162C63.3332 190.204 63.4078 190.26 63.4264 190.241C63.4451 190.222 63.3845 190.125 63.2494 190.078C63.1142 190.031 63.0024 190.073 63.007 190.097Z" fill="#263238"/>
<path d="M62.4478 189.943C62.4478 189.943 62.4804 190.008 62.541 190.031C62.6016 190.055 62.6575 190.031 62.6668 190.031C62.6762 190.031 62.6342 189.971 62.5736 189.948C62.5131 189.924 62.4478 189.92 62.4478 189.943Z" fill="#263238"/>
<path d="M58.3937 69.8422C58.4497 68.6819 58.5755 67.3678 58.5755 67.3678C58.5755 67.3678 61.446 67.0556 61.6184 64.1058C61.7908 61.1561 61.6184 54.3199 61.6184 54.3199L56.39 51.6405L50.6349 56.1793L51.5063 71.0119L56.8 71.3474C57.0042 71.3561 57.2081 71.3238 57.3996 71.2524C57.5911 71.181 57.7663 71.0718 57.9149 70.9315C58.0635 70.7912 58.1824 70.6225 58.2647 70.4354C58.3469 70.2483 58.3908 70.0466 58.3937 69.8422Z" fill="#FFBE9D"/>
<path d="M58.9109 61.7433C58.9109 61.7433 58.9109 61.7945 58.8643 61.8691C58.825 61.917 58.775 61.955 58.7184 61.9801C58.6617 62.0052 58.6 62.0167 58.5381 62.0136C58.2026 62.0136 57.8811 61.6314 57.7646 61.1794C57.7113 60.9636 57.7113 60.7381 57.7646 60.5224C57.7709 60.4241 57.8032 60.3292 57.858 60.2474C57.9128 60.1656 57.9883 60.0997 58.0768 60.0564C58.1113 60.0414 58.1486 60.0336 58.1863 60.0336C58.224 60.0336 58.2612 60.0414 58.2958 60.0564C58.3489 60.0801 58.3907 60.1235 58.4123 60.1775C58.4542 60.2614 58.4123 60.3173 58.4123 60.3127C58.4123 60.308 58.4123 60.2614 58.3564 60.2102C58.3298 60.1714 58.2896 60.1442 58.2438 60.1338C58.198 60.1235 58.15 60.1307 58.1094 60.1542C58.0472 60.1951 57.9957 60.2503 57.9592 60.3152C57.9228 60.38 57.9023 60.4527 57.8997 60.527C57.8635 60.722 57.8715 60.9227 57.923 61.1142C58.0255 61.5196 58.3051 61.8458 58.5521 61.8784C58.6016 61.8849 58.652 61.8812 58.7 61.8676C58.7481 61.8539 58.7929 61.8307 58.8317 61.7992C58.8829 61.7806 58.9016 61.7386 58.9109 61.7433Z" fill="#EB996E"/>
<path d="M58.8923 63.5746C58.9296 63.4674 58.9529 63.3509 58.9855 63.2391C59.0181 63.1272 59.0275 63.0806 59.0554 62.9968C59.1053 62.7529 59.1318 62.5048 59.1346 62.2558C58.8794 62.3548 58.6007 62.3767 58.3331 62.3187C58.0655 62.2607 57.8209 62.1254 57.6295 61.9296C57.4367 61.7255 57.3022 61.4735 57.2399 61.1998C57.1776 60.926 57.1899 60.6406 57.2753 60.3732C57.3978 60.0803 57.5806 59.8164 57.8118 59.5988C58.043 59.3812 58.3175 59.2148 58.6174 59.1104C59.1952 58.8681 59.815 58.7469 60.3835 58.4766C61.5858 57.9081 62.4152 56.7198 62.9838 55.4756C63.3798 54.6042 63.6781 53.6116 63.4078 52.6796C63.0071 51.3143 61.5438 50.6386 60.2344 50.2611C58.2213 49.6926 56.0404 49.441 54.0739 50.1633C52.1075 50.8856 49.7449 52.1624 49.7449 54.3339C48.5845 54.2361 47.9228 55.2659 47.4615 56.5148C47.2345 57.297 47.0632 58.0943 46.9489 58.9007" fill="#263238"/>
<path d="M51.3292 67.9503C49.8785 66.9495 48.712 65.5897 47.9434 64.0037C47.1749 62.4176 46.8306 60.6594 46.9442 58.9006C47.2424 52.675 58.8923 63.5606 58.8923 63.5606C58.8923 63.5606 56.6602 70.8953 51.5669 67.9363" fill="#263238"/>
<path d="M49.6004 61.7433C49.5678 61.7153 49.8008 61.4963 49.9918 61.0443C50.1223 60.7571 50.1909 60.4457 50.1933 60.1303C50.1957 59.8149 50.1318 59.5025 50.0057 59.2134C49.8796 58.9243 49.6941 58.665 49.4614 58.4521C49.2286 58.2393 48.9536 58.0778 48.6544 57.978C48.1884 57.8103 47.8716 57.8336 47.8716 57.7916C48.1446 57.7075 48.4377 57.7157 48.7057 57.8149C49.038 57.9086 49.346 58.0733 49.6083 58.2978C49.8706 58.5223 50.081 58.8012 50.2248 59.1151C50.3609 59.4332 50.4244 59.7778 50.4107 60.1236C50.397 60.4694 50.3064 60.8078 50.1456 61.1142C49.8986 61.5848 49.6144 61.7619 49.6004 61.7433Z" fill="#ED7801"/>
<path d="M47.2005 57.9314C47.0951 57.9448 46.9882 57.9218 46.8976 57.8662C46.6359 57.7378 46.4208 57.5309 46.2825 57.2743C46.0891 56.8902 46.0192 56.4556 46.0821 56.0301C46.1363 55.5158 46.2949 55.0179 46.5481 54.5669C46.807 54.1049 47.2142 53.7437 47.7038 53.5417C48.11 53.376 48.565 53.376 48.9713 53.5417C49.2399 53.6539 49.4677 53.8458 49.6237 54.0916C49.7215 54.2687 49.7355 54.3852 49.7215 54.3852C49.5319 54.0749 49.2453 53.8358 48.9061 53.7048C48.5404 53.5784 48.1402 53.5968 47.7877 53.7561C47.3524 53.9468 46.9909 54.2739 46.7578 54.6881C46.2592 55.5781 46.1194 56.5987 46.4223 57.1905C46.5887 57.5196 46.8636 57.7813 47.2005 57.9314Z" fill="#263238"/>
<path d="M100.114 60.0284C99.9044 59.8141 99.3918 59.9166 99.3918 59.9166C99.4409 59.6172 99.4409 59.3119 99.3918 59.0125C99.2986 58.719 98.6416 58.7749 98.6416 58.7749C98.6104 58.5289 98.6104 58.2799 98.6416 58.034C98.645 57.9801 98.6321 57.9264 98.6047 57.8799C98.5773 57.8334 98.5366 57.7962 98.4878 57.773C98.1773 57.6473 97.8441 57.5871 97.5092 57.5959C97.1038 57.307 98.7301 55.033 99.3359 54.306C99.9417 53.5791 99.8299 53.0152 99.294 53.0152C98.9258 53.0152 97.0293 55.2007 96.4468 55.9323C95.8643 56.6639 94.3172 58.705 94.2659 57.0787C94.2146 55.4523 93.5576 54.2175 93.1475 54.0078C92.7374 53.7981 92.2994 54.292 92.5277 54.744C92.7221 55.2575 92.8444 55.7954 92.8912 56.3424C92.9435 56.7823 92.923 57.2279 92.8306 57.6612C92.6607 58.4554 92.427 59.2345 92.1317 59.9911L92.0897 59.9678C92.0897 59.9678 80.7334 70.8581 79.9133 71.6177C79.177 72.3167 64.419 70.7882 61.4646 70.476C60.4567 70.3326 59.4396 70.2641 58.4216 70.271C57.1402 70.3269 56.9118 70.5086 55.6257 70.5226C52.5718 70.533 49.5238 70.7886 46.5108 71.2868C43.5611 71.7854 41.9394 74.0828 41.0307 76.9393C38.0437 86.2592 29.9727 108.161 28.7658 120.556C27.866 122.19 27.0525 123.87 26.3286 125.589C25.4945 127.868 25.6995 127.947 25.9791 127.998C26.734 128.138 27.6008 124.051 27.927 125.035C28.2532 126.018 26.2867 129.914 27.0835 130.025C28.118 130.174 28.9475 125.878 29.0454 125.519C29.1432 125.16 29.6651 125.291 29.558 125.608C29.4088 126.074 27.9456 130.92 28.9615 131.079C29.5253 131.162 29.5859 130.147 29.5859 130.147C29.5859 130.147 30.6204 125.487 31.1004 125.594C31.5804 125.701 31.0724 128.432 30.8301 129.345C30.5878 130.258 30.928 130.743 31.4126 130.501C31.7481 130.347 32.545 127.565 32.764 126.656C32.983 125.748 33.5236 123.245 34.2598 124.699C34.9961 126.153 36.1238 126.992 36.5898 127.029C36.6971 127.024 36.8001 126.986 36.8841 126.919C36.968 126.852 37.0286 126.76 37.057 126.656C37.0855 126.553 37.0804 126.443 37.0425 126.342C37.0046 126.242 36.9359 126.156 36.8461 126.097C36.4518 125.713 36.1131 125.275 35.8396 124.797C35.6054 124.421 35.4353 124.008 35.3363 123.576C35.1299 122.712 35.0097 121.83 34.9775 120.943L34.8889 120.407C36.0539 114.638 40.0149 94.9733 44.8286 84.1529L46.2266 90.9751L47.0887 93.9994L41.7903 107.094L64.377 106.796L61.0079 93.8223L65.0993 80.3085C69.5309 80.4063 80.9012 80.5741 82.8071 79.7167C85.1883 78.6542 97.5232 63.1086 97.5232 63.1086C98.3353 62.4847 99.1131 61.8174 99.8532 61.1095C99.8532 61.1095 100.566 60.4944 100.114 60.0284Z" fill="#FFBE9D"/>
<path d="M40.8071 97.4664C41.4595 95.2296 44.8239 84.1669 44.8239 84.1669C44.8239 84.1669 46.4782 93.1839 46.0448 94.2697C45.6443 95.2013 45.169 96.0989 44.6236 96.9538C40.8071 102.769 41.3057 105.677 41.3057 105.677L64.3771 104.974C64.433 101.749 62.5131 94.2557 62.1216 93.0488C61.7302 91.8418 63.0536 87.9228 63.0536 87.9228C63.0536 87.9228 65.6632 85.276 65.5607 83.9153C65.5063 82.6929 65.3504 81.4771 65.0947 80.2805L82.1827 80.6067L80.2721 71.3195L63.7946 70.1125L58.3145 69.5999C55.5558 71.9299 51.4224 69.5999 51.4224 69.5999C46.166 70.1125 45.3971 70.956 43.2396 73.1135C40.6766 75.6672 33.7519 95.2063 33.7519 95.2063L40.8071 97.4664Z" fill="#ED7801"/>
<path d="M54.4514 95.2156C54.05 95.2856 53.6415 95.3059 53.2352 95.2762C52.4802 95.2762 51.4457 95.2249 50.3041 95.1131C49.1624 95.0012 48.1372 94.8335 47.4009 94.689C46.9966 94.6387 46.6004 94.5369 46.2219 94.3861C46.6271 94.3845 47.0315 94.4235 47.4289 94.5026C48.1745 94.5958 49.195 94.7263 50.332 94.8428C51.469 94.9593 52.4942 95.0339 53.2398 95.0851C53.6471 95.0871 54.0531 95.1308 54.4514 95.2156Z" fill="#263238"/>
<path d="M56.0265 93.2538C55.6268 93.4491 55.2041 93.5931 54.7683 93.6825C53.7322 93.9568 52.6779 94.1577 51.6135 94.2836C50.5499 94.4114 49.4784 94.4628 48.4075 94.4374C47.9631 94.4506 47.5187 94.41 47.084 94.3162C47.5223 94.254 47.9651 94.2306 48.4075 94.2463C49.223 94.2184 50.346 94.1624 51.5856 94.0133C52.8251 93.8642 53.9155 93.6638 54.7263 93.4961C55.1517 93.3769 55.5868 93.2959 56.0265 93.2538Z" fill="#263238"/>
<path d="M63.79 84.5024C63.7849 84.8988 63.7317 85.2931 63.6315 85.6767C63.4964 86.399 63.2867 87.3869 63.0211 88.4726C62.7554 89.5584 62.4852 90.5323 62.2708 91.236C62.1813 91.6223 62.0452 91.9963 61.8654 92.3497C61.8936 91.9543 61.9671 91.5634 62.0844 91.1847C62.2801 90.3739 62.5085 89.4419 62.7555 88.4121C63.0024 87.3822 63.2447 86.4502 63.4451 85.6161C63.518 85.2331 63.6337 84.8595 63.79 84.5024Z" fill="#263238"/>
<path d="M41.1519 105.836L64.2186 105.132L74.2561 144.331L72.3921 189.295H60.1831L61.7069 145.305L52.7831 117.998L54.1391 189.761L41.8089 189.943L40.5461 122.565C40.4948 120.659 39.8657 116.353 40.0801 114.461L41.1519 105.836Z" fill="#455A64"/>
<path d="M55.8587 118.553C55.48 118.579 55.0995 118.558 54.7263 118.487C54.032 118.404 53.0767 118.259 52.0329 118.049C50.9891 117.84 50.0478 117.583 49.3767 117.411C49.0049 117.331 48.6447 117.204 48.3049 117.033C48.3049 116.959 50.0012 117.364 52.0842 117.784C54.1672 118.203 55.868 118.473 55.8587 118.553Z" fill="#263238"/>
<path d="M72.2943 186.83C72.2943 186.905 69.5309 186.965 66.1198 186.965C62.7088 186.965 60.2809 186.858 60.2809 186.783C60.2809 186.709 62.7088 186.695 66.1198 186.695C69.5309 186.695 72.2943 186.779 72.2943 186.83Z" fill="#263238"/>
<path d="M53.9667 186.965C53.9667 187.04 51.2826 187.1 47.974 187.1C44.6655 187.1 41.986 187.04 41.986 186.965C41.986 186.891 44.6655 186.83 47.974 186.83C51.2826 186.83 53.9667 186.891 53.9667 186.965Z" fill="#263238"/>
<path d="M52.4616 186.965C52.387 186.965 52.0608 171.452 51.7346 152.314C51.4084 133.175 51.2081 117.663 51.2686 117.658C51.3292 117.653 51.6834 133.189 52.0096 152.295C52.3358 171.401 52.5362 186.961 52.4616 186.965Z" fill="#263238"/>
<path d="M70.654 186.83C70.6489 186.759 70.6489 186.687 70.654 186.616C70.654 186.462 70.654 186.257 70.654 185.991C70.654 185.432 70.6913 184.626 70.7239 183.596C70.7938 181.504 70.901 178.498 71.0268 174.789C71.311 167.333 71.7071 157.081 72.1405 145.729C72.1405 145.622 72.1405 145.52 72.1405 145.422V145.459C69.4051 134.513 66.9354 124.615 65.1506 117.439L63.0769 108.958C62.8393 107.965 62.6529 107.192 62.5271 106.628C62.468 106.376 62.4214 106.176 62.3873 106.027C62.3697 105.959 62.3573 105.891 62.35 105.822C62.3795 105.886 62.4014 105.953 62.4152 106.022C62.4525 106.166 62.5084 106.362 62.5783 106.614C62.7181 107.154 62.9232 107.928 63.1795 108.916C63.6967 110.924 64.4376 113.813 65.351 117.378C67.1637 124.55 69.6614 134.438 72.4294 145.38V145.422C72.4294 145.515 72.4294 145.622 72.4294 145.725C71.9634 157.067 71.544 167.333 71.2365 174.779C71.0734 178.507 70.9383 181.494 70.8451 183.587C70.7938 184.617 70.7518 185.418 70.7239 185.982C70.7239 186.243 70.6959 186.448 70.6866 186.602C70.6835 186.679 70.6726 186.755 70.654 186.83Z" fill="#263238"/>
<path d="M66.6744 144.508C65.7966 144.796 64.893 144.997 63.9763 145.11C62.8579 145.301 61.8887 145.431 61.4646 145.459V145.352C61.6044 145.389 61.679 145.422 61.6743 145.44C61.6697 145.459 61.5904 145.44 61.446 145.44H61.1338L61.446 145.347C61.8514 145.226 62.8113 145.03 63.9344 144.835C64.8349 144.637 65.7526 144.527 66.6744 144.508Z" fill="#263238"/>
<path d="M66.4414 146.004C65.6304 146.037 64.8182 145.999 64.0136 145.892C63.2014 145.872 62.3924 145.783 61.5951 145.627C62.4053 145.516 63.2267 145.516 64.0369 145.627C64.8519 145.642 65.6609 145.769 66.4414 146.004Z" fill="#263238"/>
<path d="M41.0494 106.66C41.6039 107.448 42.4008 107.723 43.3234 107.872C44.2534 107.983 45.1941 107.965 46.1194 107.821C52.0748 107.159 58.3844 106.549 64.2139 105.132C56.6648 105.551 48.6963 105.412 41.1472 105.836C41.1472 105.836 41.082 106.353 41.068 106.479" fill="#263238"/>
<path d="M48.8315 117.304L53.0814 133.814L52.7831 117.998L48.8315 117.304Z" fill="#263238"/>
<path d="M47.9741 58.1224C46.3338 57.6844 44.6189 59.4319 44.563 61.1281C44.563 61.5941 44.6142 62.1719 44.2694 62.5261C43.9246 62.8802 43.3095 62.7824 42.7922 62.8243C42.2639 62.8769 41.7694 63.1084 41.3906 63.4805C41.0118 63.8525 40.7714 64.3427 40.7092 64.87C40.6347 65.6249 40.9375 66.4358 40.6207 67.1254C40.3038 67.8151 39.5722 68.0947 39.0643 68.6073C38.7561 68.9562 38.5243 69.3657 38.3839 69.8095C38.2434 70.2533 38.1974 70.7216 38.2488 71.1842C38.359 72.1091 38.6023 73.0131 38.971 73.8684C39.2693 74.6652 39.6607 75.5506 40.4622 75.8349H47.3543L47.8715 73.2346L48.715 75.8349H49.838L49.2322 58.9519C49.2322 58.9519 49.2276 58.4533 47.9741 58.1224Z" fill="#263238"/>
<path d="M38.547 66.1842C38.547 66.1842 38.4725 66.1842 38.3606 66.2215C38.2805 66.2651 38.2195 66.337 38.1894 66.4231C38.1592 66.5092 38.1621 66.6034 38.1975 66.6875C38.284 66.8777 38.4399 67.0278 38.6333 67.107C38.8268 67.1862 39.0431 67.1886 39.2383 67.1137C39.4334 67.0387 39.5925 66.8921 39.6832 66.7037C39.7738 66.5154 39.7891 66.2996 39.726 66.1003C39.6277 65.8767 39.5008 65.6668 39.3485 65.4759C38.9954 65.0051 38.843 64.4137 38.9245 63.8309C38.9662 63.5078 39.0821 63.1987 39.2632 62.9279C39.4443 62.6571 39.6856 62.4318 39.9683 62.2698C40.2708 62.0927 40.6109 61.9899 40.9608 61.9696C41.3108 61.9494 41.6605 62.0123 41.9814 62.1533C42.6152 62.4283 43.165 62.8337 43.7755 62.7498C43.9131 62.7444 44.0471 62.7044 44.1652 62.6336C44.2833 62.5627 44.3816 62.4633 44.4512 62.3444C44.5493 62.0796 44.5813 61.7949 44.5444 61.5149C44.5076 60.9802 44.5854 60.4437 44.7727 59.9414C44.9599 59.4392 45.2523 58.9827 45.6301 58.6025C46.1622 58.1041 46.8678 57.8332 47.5966 57.8476C47.7898 57.853 47.9812 57.886 48.1651 57.9454C48.2312 57.9614 48.2942 57.9882 48.3515 58.0246C48.1025 57.9772 47.8501 57.9491 47.5966 57.9408C46.8978 57.9568 46.2313 58.2384 45.7327 58.7283C45.3803 59.0983 45.1105 59.5388 44.941 60.0208C44.7715 60.5027 44.7062 61.0152 44.7494 61.5243C44.791 61.8394 44.7525 62.1599 44.6376 62.4562C44.5518 62.6109 44.4281 62.7412 44.2781 62.8349C44.1281 62.9287 43.9568 62.9828 43.7801 62.9921C43.4348 63.0251 43.0869 62.9639 42.7736 62.815C42.4567 62.6799 42.1678 62.5075 41.8696 62.3817C41.583 62.2561 41.271 62.1995 40.9585 62.2165C40.6461 62.2335 40.3421 62.3236 40.0708 62.4795C39.8183 62.625 39.6028 62.8269 39.4411 63.0694C39.2795 63.3119 39.176 63.5885 39.1388 63.8775C39.0587 64.4088 39.1928 64.9502 39.5116 65.3827C39.6708 65.5892 39.8009 65.8165 39.8984 66.0584C39.9423 66.1788 39.9616 66.3069 39.9552 66.4349C39.9488 66.563 39.9168 66.6885 39.8611 66.804C39.7647 67.0087 39.5999 67.1735 39.3951 67.27C39.2079 67.3533 38.9989 67.3745 38.7987 67.3305C38.6393 67.3002 38.4912 67.2268 38.3704 67.1184C38.2497 67.01 38.1609 66.8707 38.1136 66.7154C38.0795 66.6157 38.0846 66.5068 38.1279 66.4107C38.1711 66.3147 38.2494 66.2387 38.3466 66.1982C38.4818 66.1329 38.5517 66.1842 38.547 66.1842Z" fill="#263238"/>
<path d="M65.2438 80.1314C65.0676 80.1559 64.8888 80.1559 64.7126 80.1314C64.2277 80.0729 63.7556 79.9359 63.3146 79.726C62.6569 79.4174 62.0699 78.9764 61.5904 78.4305C60.9817 77.7694 60.5715 76.9502 60.4066 76.0667C60.2418 75.1833 60.3291 74.2713 60.6584 73.4351C60.9132 72.7542 61.3067 72.1337 61.8141 71.613C62.1507 71.26 62.5426 70.9641 62.9744 70.737C63.1273 70.6453 63.2942 70.5791 63.4684 70.5413C62.905 70.8626 62.3903 71.2628 61.9399 71.7295C61.4691 72.2467 61.1048 72.8516 60.8681 73.5096C60.5613 74.3084 60.4803 75.1761 60.634 76.0179C60.7877 76.8596 61.1702 77.6427 61.7395 78.2814C62.1948 78.813 62.7486 79.2513 63.3705 79.5722C63.9669 79.8423 64.597 80.0304 65.2438 80.1314Z" fill="#263238"/>
</svg>
