<svg width="201" height="205" viewBox="0 0 201 205" fill="none" xmlns="http://www.w3.org/2000/svg">
<path d="M190.389 52.4532C184.431 55.5378 179.867 60.8447 176.584 66.6865C173.301 72.5284 171.185 78.9465 169.092 85.3093L167.247 118.142C174.163 106.362 179.733 92.5113 181.236 78.9511L176.625 78.5408C179.719 78.0797 182.315 75.8296 183.966 73.1739C185.616 70.5181 186.465 67.4612 187.295 64.4457L181.697 65.2664C186.131 62.2682 189.242 57.6809 190.389 52.4532Z" fill="#E0E0E0"/>
<path d="M166.233 125.833C166.233 125.833 151.193 107.851 151.368 90.6716H157.44C157.44 90.6716 150.842 86.3375 151.368 83.9077C151.894 81.4778 152.06 72.284 152.06 72.284L157.592 73.6672C157.592 73.6672 153.443 71.5878 152.908 68.2911C152.373 64.9944 154.121 49.7283 154.121 49.7283C154.121 49.7283 160.889 56.8426 162.973 64.1276C165.057 71.4126 170.521 79.9148 168.916 102.116C167.312 124.316 166.233 125.833 166.233 125.833Z" fill="#EBEBEB"/>
<path d="M173.859 127.534C173.859 127.534 190.149 116.685 193.768 102.839L188.885 101.511C188.885 101.511 195.138 99.4689 195.253 97.4033C195.368 95.3377 197.235 87.9052 197.235 87.9052L192.468 87.8083C192.468 87.8083 196.272 87.043 197.411 84.5071C198.55 81.9711 200.5 69.3193 200.5 69.3193C200.5 69.3193 193.496 73.5565 190.227 78.9465C186.958 84.3365 180.701 90.0123 177.133 108.202C173.564 126.391 173.859 127.534 173.859 127.534Z" fill="#EBEBEB"/>
<path d="M158.252 65.4186C158.275 65.4798 158.292 65.5431 158.302 65.6077L158.432 66.1609C158.542 66.6589 158.704 67.3782 158.893 68.2957C159.082 69.2132 159.354 70.3613 159.603 71.6846C159.852 73.0079 160.179 74.511 160.483 76.1801C161.124 79.5183 161.802 83.5065 162.503 87.9421C163.204 92.3776 163.854 97.2742 164.458 102.42C165.062 107.565 165.504 112.49 165.841 116.967C166.178 121.444 166.422 125.483 166.56 128.876C166.648 130.573 166.685 132.104 166.731 133.459C166.777 134.815 166.8 135.968 166.809 136.917C166.818 137.867 166.832 138.591 166.837 139.103V139.675C166.837 139.799 166.837 139.868 166.837 139.868C166.829 139.804 166.829 139.739 166.837 139.675C166.837 139.532 166.837 139.347 166.814 139.103C166.814 138.591 166.772 137.858 166.74 136.917C166.708 135.977 166.676 134.81 166.616 133.464C166.556 132.118 166.51 130.578 166.413 128.885C166.256 125.492 165.989 121.458 165.643 116.985C165.297 112.513 164.813 107.593 164.223 102.447C163.632 97.3019 162.955 92.4145 162.286 87.9744C161.618 83.5342 160.94 79.5505 160.322 76.2124C160.027 74.5387 159.727 73.0356 159.474 71.7077C159.22 70.3798 159.012 69.2455 158.805 68.3142C158.598 67.3828 158.478 66.6727 158.376 66.1702C158.33 65.935 158.298 65.7506 158.27 65.6123C158.258 65.5484 158.252 65.4836 158.252 65.4186Z" fill="#E0E0E0"/>
<path d="M164.144 136.848C164.144 136.848 150.386 121.245 146.112 111.812L149.339 110.429C146.997 110.816 144.604 109.811 142.792 108.285C140.98 106.758 139.647 104.767 138.356 102.779L142.603 102.065C138.7 100.95 135.377 98.3763 133.321 94.8766C138.333 95.7019 142.87 98.4545 146.61 101.894C149.634 104.661 152.198 107.916 154.66 111.217C155.864 112.828 156.912 114.549 157.791 116.358C160.087 121.135 164.177 131.117 164.144 136.848Z" fill="#EBEBEB"/>
<path d="M193.98 78.4025C193.965 78.4584 193.943 78.5125 193.916 78.5639C193.86 78.6745 193.791 78.8267 193.704 79.0249C193.505 79.4307 193.22 80.0116 192.86 80.754C192.5 81.4963 192.044 82.4184 191.532 83.4928C191.02 84.5671 190.43 85.7751 189.808 87.1306C188.535 89.8325 187.078 93.0739 185.506 96.6979C183.933 100.322 182.278 104.338 180.646 108.584C179.014 112.831 177.529 116.916 176.243 120.651C174.956 124.385 173.864 127.765 172.988 130.619C172.527 132.039 172.158 133.339 171.812 134.474C171.466 135.608 171.18 136.59 170.95 137.392C170.719 138.195 170.535 138.803 170.41 139.237L170.263 139.698C170.247 139.753 170.227 139.807 170.203 139.859C170.209 139.801 170.222 139.744 170.24 139.688C170.267 139.569 170.309 139.407 170.364 139.204C170.479 138.766 170.645 138.144 170.862 137.36C171.079 136.576 171.351 135.571 171.683 134.432C172.015 133.293 172.379 131.989 172.822 130.564C173.679 127.705 174.767 124.316 176.049 120.572C177.331 116.828 178.816 112.734 180.439 108.492C182.062 104.25 183.754 100.23 185.321 96.6057C186.889 92.9817 188.383 89.7495 189.674 87.0569C190.306 85.7013 190.91 84.4933 191.431 83.4282C191.952 82.3631 192.413 81.4502 192.814 80.7079L193.694 78.9973C193.796 78.8128 193.874 78.6592 193.93 78.5362C193.944 78.4907 193.961 78.4461 193.98 78.4025Z" fill="#E0E0E0"/>
<path d="M165.311 143.538C165.284 143.443 165.264 143.346 165.251 143.248C165.219 143.036 165.173 142.759 165.122 142.423C165.071 142.086 165.002 141.62 164.91 141.113C164.817 140.606 164.73 140.02 164.592 139.384C164.347 138.107 163.992 136.595 163.545 134.935C163.098 133.275 162.508 131.477 161.811 129.619C161.115 127.76 160.34 126.031 159.594 124.482C158.847 122.933 158.1 121.573 157.44 120.452C157.122 119.885 156.804 119.392 156.518 118.949C156.232 118.507 156.011 118.129 155.808 117.824L155.347 117.119C155.289 117.039 155.241 116.952 155.204 116.861C155.273 116.931 155.335 117.009 155.389 117.091L155.873 117.774C156.085 118.069 156.334 118.438 156.615 118.876C156.896 119.314 157.224 119.798 157.537 120.365C158.22 121.481 158.971 122.841 159.746 124.385C160.52 125.93 161.281 127.673 161.991 129.536C162.701 131.398 163.254 133.224 163.711 134.879C164.167 136.535 164.486 138.065 164.711 139.352C164.841 139.993 164.914 140.578 164.993 141.09C165.071 141.602 165.131 142.045 165.168 142.409C165.205 142.773 165.232 143.027 165.251 143.243C165.283 143.339 165.303 143.438 165.311 143.538Z" fill="#E0E0E0"/>
<path d="M183.468 139.868H153.351V146.01H183.468V139.868Z" fill="#E0E0E0"/>
<path d="M156.223 146.005L159.478 166.661H177.677L180.715 146.005H156.223Z" fill="#E0E0E0"/>
<path d="M181.624 146.005C181.624 146.074 175.925 146.125 168.898 146.125C161.871 146.125 156.172 146.074 156.172 146.005C156.172 145.936 161.871 145.885 168.898 145.885C175.925 145.885 181.624 145.941 181.624 146.005Z" fill="#EBEBEB"/>
<path d="M134.373 27.841C133.967 29.3828 133.286 30.8386 132.362 32.1382L134.34 33.9825L142.778 41.5995L142.58 41.6917C142.58 41.6917 149.883 36.5922 151.903 34.9277C153.567 33.5445 158.021 30.7227 158.386 27.9747C158.446 27.4864 158.353 26.9912 158.118 26.5587C157.883 26.1262 157.519 25.7782 157.076 25.5633C156.773 25.4088 156.433 25.3412 156.093 25.368C155.754 25.3949 155.429 25.5152 155.153 25.7155C155.153 25.7155 157.118 23.4101 155.564 21.8978C154.01 20.3855 152.797 21.5704 152.797 21.5704C152.797 21.5704 154.72 18.6426 152.936 17.0196C152.566 16.7362 152.12 16.5712 151.655 16.5465C151.19 16.5219 150.728 16.6386 150.331 16.8813L151.054 16.1067L154.785 12.0907C155.229 11.625 155.477 11.0057 155.477 10.3617C155.477 9.7177 155.229 9.09846 154.785 8.63269C154.556 8.40122 154.283 8.21795 153.982 8.09372C153.682 7.96948 153.359 7.9068 153.034 7.90938C152.708 7.91196 152.387 7.97974 152.088 8.10873C151.789 8.23772 151.519 8.42529 151.294 8.66035L140.8 19.6431L141.335 13.6492C141.469 12.0954 139.371 10.9703 138.439 11.5421C138.439 11.5421 137.006 12.1 136.595 14.5298C136.323 16.3649 134.373 27.841 134.373 27.841Z" fill="#F5F5F5"/>
<path d="M134.373 27.8411C134.373 27.8411 134.373 27.7397 134.41 27.5414C134.447 27.3431 134.483 27.0481 134.543 26.67C134.668 25.8954 134.848 24.7704 135.083 23.318L135.959 18.0064C136.131 16.9705 136.314 15.8624 136.508 14.6821C136.589 14.0632 136.771 13.462 137.047 12.9023C137.334 12.2915 137.811 11.7901 138.407 11.473C138.78 11.2886 139.21 11.2572 139.606 11.3854C139.996 11.5082 140.356 11.7125 140.662 11.9848C140.992 12.2615 141.236 12.626 141.367 13.036C141.4 13.1421 141.409 13.2527 141.432 13.3588C141.455 13.4648 141.432 13.5847 141.432 13.6907L141.376 14.3224C141.229 16.0192 141.075 17.7958 140.915 19.6524L140.722 19.5648L150.28 9.57796C150.497 9.35665 150.709 9.11689 150.925 8.9048C151.136 8.66362 151.371 8.44427 151.626 8.25007C152.183 7.87292 152.863 7.72585 153.526 7.83971C153.861 7.8975 154.181 8.02228 154.467 8.20659C154.753 8.3909 154.999 8.63096 155.19 8.91243C155.381 9.19391 155.514 9.51101 155.579 9.8448C155.645 10.1786 155.643 10.5222 155.573 10.8551C155.506 11.1928 155.376 11.5149 155.19 11.805C154.995 12.0729 154.776 12.3229 154.536 12.5519L153.18 14.0043L150.414 16.9505L150.252 16.7431C150.796 16.4261 151.439 16.3226 152.055 16.4526C152.313 16.5094 152.561 16.6075 152.788 16.7431C152.907 16.8078 153.013 16.8938 153.102 16.9966C153.196 17.0904 153.283 17.1922 153.36 17.301C153.665 17.732 153.826 18.2483 153.821 18.7764C153.769 19.7893 153.451 20.7707 152.899 21.6212L152.696 21.4552C152.948 21.2324 153.254 21.0808 153.584 21.016C153.914 20.9512 154.255 20.9755 154.572 21.0864C154.882 21.2024 155.168 21.3743 155.416 21.5936C155.541 21.6921 155.655 21.8034 155.757 21.9255L155.919 22.11L156.043 22.3221C156.184 22.6069 156.264 22.9172 156.281 23.2343C156.298 23.5513 156.25 23.8684 156.14 24.1663C155.941 24.7511 155.64 25.2959 155.25 25.7755L155.08 25.5865C155.35 25.3924 155.665 25.2696 155.995 25.2294C156.326 25.1891 156.661 25.2326 156.97 25.3559C157.422 25.5354 157.811 25.8442 158.088 26.2436C158.365 26.643 158.518 27.1153 158.528 27.6014C158.521 27.914 158.472 28.2242 158.381 28.5235C158.175 29.0976 157.882 29.6371 157.514 30.1234C156.034 32.0184 154.111 33.3509 152.382 34.665C150.653 35.9791 148.943 37.2701 147.311 38.4458L142.631 41.7425L142.534 41.5765L142.732 41.4843L142.709 41.6457L134.299 34.0333H134.387L134.341 34.0794L134.294 34.0379L132.326 32.1936L132.293 32.1614L132.321 32.1245C133.006 31.1664 133.564 30.1234 133.981 29.0215C134.124 28.648 134.216 28.3529 134.276 28.1546C134.336 27.9564 134.373 27.8596 134.373 27.8596C134.288 28.2608 134.174 28.6553 134.032 29.0399C133.634 30.1586 133.087 31.218 132.404 32.189V32.1199C132.976 32.6501 133.612 33.2357 134.387 33.9642H134.299L134.341 33.9181L134.391 33.9596L142.847 41.5488L142.958 41.6457L142.824 41.7056L142.626 41.7978L142.506 41.5996L147.172 38.2844C148.795 37.1041 150.515 35.8822 152.221 34.499C153.927 33.1158 155.863 31.8432 157.293 29.9897C157.644 29.5262 157.923 29.0115 158.118 28.4636C158.2 28.1879 158.247 27.9027 158.256 27.6152C158.247 27.3279 158.185 27.0449 158.072 26.7806C157.838 26.2421 157.4 25.8178 156.855 25.6003C156.584 25.4933 156.29 25.4562 156.001 25.4925C155.711 25.5287 155.436 25.6372 155.199 25.8078L154.494 26.3288L155.057 25.628C155.424 25.1751 155.707 24.6596 155.891 24.1064C155.994 23.8387 156.041 23.5525 156.027 23.2659C156.014 22.9793 155.941 22.6987 155.813 22.4419C155.508 21.9417 155.043 21.5585 154.494 21.3538C154.223 21.2583 153.931 21.2361 153.649 21.2895C153.366 21.343 153.103 21.4701 152.885 21.6581L152.249 22.2344L152.687 21.5013C153.212 20.6939 153.514 19.7616 153.563 18.7994C153.59 18.3264 153.449 17.8591 153.164 17.4801C152.88 17.1012 152.471 16.8352 152.009 16.7292C151.456 16.6146 150.881 16.7099 150.395 16.9966L149.662 17.4024L150.234 16.7938L153 13.8475C153.458 13.3618 153.91 12.8777 154.356 12.3951C154.578 12.17 154.779 11.9245 154.955 11.662C155.122 11.3999 155.239 11.1092 155.301 10.8044C155.363 10.5033 155.365 10.1928 155.306 9.89113C155.246 9.58944 155.127 9.30268 154.955 9.04773C154.782 8.79843 154.561 8.58579 154.306 8.422C154.05 8.25821 153.765 8.14651 153.466 8.09331C152.87 7.98783 152.256 8.11847 151.755 8.45755C151.514 8.64282 151.292 8.8513 151.091 9.08L150.446 9.75317L140.879 19.717L140.662 19.9291L140.694 19.6155C140.86 17.7713 141.021 15.9823 141.178 14.2901C141.254 13.888 141.254 13.4751 141.178 13.0729C141.059 12.6995 140.837 12.3672 140.537 12.1139C140.25 11.8588 139.91 11.67 139.541 11.5606C139.196 11.4446 138.82 11.4661 138.49 11.6205C137.936 11.9202 137.492 12.3886 137.222 12.9576C136.951 13.499 136.772 14.0818 136.692 14.6821C136.489 15.8578 136.295 16.9874 136.12 18.0064C135.761 20.072 135.452 21.8518 135.198 23.3088C134.945 24.7657 134.737 25.8815 134.608 26.6515C134.539 27.0296 134.488 27.3155 134.447 27.5184C134.405 27.7212 134.373 27.8411 134.373 27.8411Z" fill="#E0E0E0"/>
<path d="M129.616 32.2157L129.71 32.1146C130.065 31.735 130.557 31.5118 131.076 31.4943C131.595 31.4768 132.101 31.6664 132.48 32.0213L142.875 41.738C143.253 42.092 143.476 42.5821 143.493 43.1003C143.511 43.6185 143.322 44.1224 142.968 44.5011L142.873 44.6022C142.518 44.9818 142.027 45.205 141.508 45.2225C140.988 45.24 140.483 45.0504 140.104 44.6955L129.713 34.982C129.334 34.6279 129.111 34.1379 129.094 33.6197C129.076 33.1015 129.265 32.5976 129.619 32.2188L129.616 32.2157Z" fill="#F5F5F5"/>
<path d="M140.099 44.6841C140.099 44.6841 140.21 44.7763 140.445 44.91C140.738 45.0766 141.069 45.1641 141.406 45.1641C141.743 45.1641 142.075 45.0766 142.368 44.91C142.65 44.7322 142.893 44.4984 143.082 44.2231C143.307 43.8893 143.418 43.4923 143.4 43.0905C143.382 42.6887 143.235 42.3034 142.981 41.9915L132.376 32.1106C132.133 31.8839 131.834 31.7269 131.509 31.6563C131.185 31.5857 130.847 31.6041 130.532 31.7095C130.233 31.8196 129.963 31.9965 129.742 32.2266C129.522 32.4566 129.357 32.7339 129.259 33.0374C129.175 33.3332 129.165 33.6456 129.232 33.946C129.299 34.2463 129.44 34.5252 129.642 34.7572C130.08 35.1952 130.564 35.6286 131.002 36.0436L135.747 40.5206L138.928 43.5499L139.786 44.3844C139.889 44.4775 139.985 44.5793 140.071 44.6887C139.957 44.6079 139.849 44.5185 139.749 44.4213L138.859 43.6237L135.631 40.6543L130.85 36.2234C130.389 35.7992 129.928 35.3935 129.467 34.9232C129.232 34.6623 129.066 34.3465 128.986 34.0048C128.905 33.6631 128.912 33.3066 129.006 32.9682C129.116 32.6236 129.303 32.3086 129.553 32.0473C129.803 31.786 130.109 31.5853 130.449 31.4605C130.805 31.3457 131.186 31.3279 131.551 31.409C131.917 31.49 132.254 31.667 132.528 31.9216C136.678 35.7992 140.413 39.2988 143.092 41.8808C143.364 42.2236 143.519 42.6451 143.533 43.0828C143.547 43.5204 143.42 43.951 143.17 44.3107C142.966 44.6008 142.702 44.8431 142.395 45.0207C142.134 45.1647 141.844 45.2483 141.547 45.2651C141.138 45.2894 140.731 45.1846 140.385 44.9654C140.276 44.8869 140.179 44.792 140.099 44.6841Z" fill="#E0E0E0"/>
<path d="M146.434 20.8513C147.006 20.0517 147.646 19.3035 148.348 18.615C148.986 17.8684 149.69 17.1802 150.45 16.5587C149.88 17.358 149.241 18.1062 148.541 18.7949C147.902 19.5422 147.197 20.2305 146.434 20.8513Z" fill="#E0E0E0"/>
<path d="M150.409 24.028C150.704 23.5148 151.073 23.0486 151.506 22.6448C151.876 22.1892 152.309 21.7887 152.792 21.4552C152.499 21.9696 152.129 22.436 151.695 22.8384C151.328 23.2965 150.894 23.6974 150.409 24.028Z" fill="#E0E0E0"/>
<path d="M152.774 28.256C153.069 27.743 153.439 27.2768 153.872 26.8728C154.239 26.4144 154.674 26.0149 155.163 25.6879C154.867 26.2006 154.497 26.6667 154.065 27.0711C153.697 27.5285 153.261 27.9279 152.774 28.256Z" fill="#E0E0E0"/>
<path d="M152.35 6.04145C151.881 5.13661 151.492 4.19241 151.188 3.21968C150.798 2.27811 150.489 1.30473 150.266 0.310303C150.734 1.21573 151.122 2.15982 151.428 3.13208C151.818 4.07364 152.127 5.04702 152.35 6.04145Z" fill="#E0E0E0"/>
<path d="M155.093 6.71005C155.716 5.56154 156.413 4.4556 157.182 3.39954C157.879 2.29496 158.649 1.23828 159.487 0.236572C158.863 1.38503 158.164 2.49094 157.394 3.54708C156.699 4.65215 155.931 5.70889 155.093 6.71005Z" fill="#E0E0E0"/>
<path d="M157.09 9.05686C158.094 8.714 159.124 8.45189 160.17 8.27303C161.197 8.01145 162.244 7.83412 163.301 7.7428C162.3 8.09227 161.271 8.35603 160.225 8.53123C159.196 8.79298 158.148 8.96879 157.09 9.05686Z" fill="#E0E0E0"/>
<path d="M24.8999 106.795L10.0948 166.657H13.9909L29.1602 106.795H24.8999Z" fill="#F5F5F5"/>
<path d="M52.7856 106.795L66.6363 166.657H62.7402L48.5207 106.795H52.7856Z" fill="#F5F5F5"/>
<path d="M41.2126 165.776H36.6756L35.9978 97.0714H40.5348L41.2126 165.776Z" fill="#F5F5F5"/>
<path d="M70.2742 56.7228H6.26324V97.7307H70.2742V56.7228Z" fill="#EBEBEB"/>
<path d="M54.3487 106.168H22.2211V110.129H54.3487V106.168Z" fill="#F5F5F5"/>
<path d="M10.5143 92.3822C10.5539 92.6307 10.5693 92.8823 10.5604 93.1338H10.4728C10.4083 91.1281 10.3576 84.484 10.3576 76.6089C10.3576 71.8598 10.3945 67.558 10.4037 64.395C10.4037 62.8642 10.4406 61.6286 10.4544 60.7064C10.4544 60.2961 10.4544 59.9641 10.4821 59.6967C10.482 59.5791 10.4928 59.4618 10.5143 59.3463C10.5418 59.4609 10.5527 59.5789 10.5466 59.6967C10.5466 59.9641 10.5466 60.2961 10.5789 60.7064C10.5789 61.6286 10.6066 62.8781 10.6296 64.395C10.6296 67.558 10.6573 71.8598 10.6757 76.6089C10.6757 84.484 10.625 91.1281 10.5604 93.1338H10.4728C10.4676 92.8826 10.4815 92.6313 10.5143 92.3822Z" fill="#F5F5F5"/>
<path d="M15.2819 92.3822C15.3147 92.6313 15.3286 92.8826 15.3234 93.1338H15.2496C15.1851 91.1281 15.1343 84.484 15.1343 76.6089C15.1343 71.8598 15.1712 67.558 15.1804 64.395C15.2035 62.8642 15.2219 61.6286 15.2312 60.7064C15.2312 60.2961 15.2312 59.9641 15.2634 59.6967C15.2574 59.5789 15.2682 59.4609 15.2957 59.3463C15.3168 59.4618 15.3261 59.5792 15.3234 59.6967C15.3234 59.9641 15.3234 60.2961 15.3557 60.7064C15.3557 61.6286 15.3833 62.8781 15.4064 64.395C15.4064 67.558 15.434 71.8598 15.4525 76.6089C15.4525 84.484 15.4018 91.1281 15.3372 93.1338H15.2496C15.2362 92.8828 15.247 92.6311 15.2819 92.3822Z" fill="#F5F5F5"/>
<path d="M20.0447 92.3822C20.0776 92.6313 20.0914 92.8826 20.0862 93.1338H19.9986C19.9341 91.1281 19.888 84.484 19.888 76.6089C19.888 71.8598 19.9202 67.558 19.9341 64.395C19.9341 62.8642 19.971 61.6286 19.9848 60.7064C19.9848 60.2961 19.9848 59.9641 20.0125 59.6967C20.0093 59.579 20.0202 59.4614 20.0447 59.3463C20.0693 59.4614 20.0801 59.579 20.077 59.6967C20.077 59.9641 20.077 60.2961 20.1047 60.7064C20.1047 61.6286 20.137 62.8781 20.1554 64.395C20.1554 67.558 20.1831 71.8598 20.2015 76.6089C20.2015 84.484 20.1554 91.1281 20.0862 93.1338H19.9986C19.9929 92.8824 20.0083 92.631 20.0447 92.3822Z" fill="#F5F5F5"/>
<path d="M24.8076 92.3822C24.8441 92.631 24.8595 92.8824 24.8537 93.1338H24.7661C24.697 91.1281 24.6508 84.484 24.6508 76.6089C24.6508 71.8598 24.6831 67.558 24.697 64.395C24.697 62.8642 24.7338 61.6286 24.7477 60.7064C24.7477 60.2961 24.7707 59.9641 24.7753 59.6967C24.7722 59.579 24.783 59.4614 24.8076 59.3463C24.8322 59.4614 24.843 59.579 24.8399 59.6967C24.8399 59.9641 24.8399 60.2961 24.8676 60.7064C24.8676 61.6286 24.8998 62.8781 24.9183 64.395C24.9183 67.558 24.9459 71.8598 24.9644 76.6089C24.9644 84.484 24.9183 91.1281 24.8537 93.1338H24.7661C24.7609 92.8826 24.7748 92.6313 24.8076 92.3822Z" fill="#F5F5F5"/>
<path d="M29.5705 92.3822C29.6101 92.6307 29.6255 92.8823 29.6167 93.1338H29.5429C29.4783 91.1281 29.4276 84.484 29.4276 76.6089C29.4276 71.8598 29.4645 67.558 29.4737 64.395C29.4968 62.8642 29.5106 61.6286 29.5244 60.7064C29.5244 60.2961 29.5244 59.9641 29.5521 59.6967C29.552 59.5791 29.5628 59.4618 29.5844 59.3463C29.6119 59.4609 29.6227 59.5789 29.6167 59.6967C29.6167 59.9641 29.6167 60.2961 29.6489 60.7064C29.6489 61.6286 29.6766 62.8781 29.6996 64.395C29.6996 67.558 29.7273 71.8598 29.7458 76.6089C29.7458 84.484 29.695 91.1281 29.6305 93.1338H29.5429C29.5331 92.8829 29.5423 92.6317 29.5705 92.3822Z" fill="#F5F5F5"/>
<path d="M34.3381 92.3822C34.3709 92.6313 34.3848 92.8826 34.3796 93.1338H34.292C34.2274 91.1281 34.1767 84.484 34.1767 76.6089C34.1767 71.8598 34.2136 67.558 34.2228 64.395C34.2228 62.8642 34.2643 61.6286 34.2736 60.7064C34.2736 60.2961 34.2736 59.9641 34.3058 59.6967C34.2997 59.5789 34.3106 59.4609 34.3381 59.3463C34.3592 59.4618 34.3685 59.5792 34.3658 59.6967C34.3658 59.9641 34.3658 60.2961 34.398 60.7064C34.398 61.6286 34.4257 62.8781 34.4488 64.395C34.4488 67.558 34.4764 71.8598 34.4949 76.6089C34.4949 84.484 34.4441 91.1281 34.3796 93.1338H34.292C34.2832 92.8823 34.2986 92.6307 34.3381 92.3822Z" fill="#F5F5F5"/>
<path d="M39.1009 92.3822C39.1337 92.6313 39.1476 92.8826 39.1424 93.1338H39.0548C38.9902 91.1281 38.9441 84.484 38.9441 76.6089C38.9441 71.8598 38.9764 67.558 38.9902 64.395C38.9902 62.8642 39.0271 61.6286 39.0409 60.7064C39.0409 60.2961 39.0409 59.9641 39.0686 59.6967C39.0655 59.579 39.0763 59.4614 39.1009 59.3463C39.1255 59.4614 39.1363 59.579 39.1332 59.6967C39.1332 59.9641 39.1332 60.2961 39.1608 60.7064C39.1608 61.6286 39.1931 62.8781 39.2115 64.395C39.2115 67.558 39.2392 71.8598 39.2577 76.6089C39.2577 84.484 39.2115 91.1281 39.1424 93.1338H39.0548C39.049 92.8824 39.0644 92.631 39.1009 92.3822Z" fill="#F5F5F5"/>
<path d="M43.8638 92.3822C43.9002 92.631 43.9157 92.8824 43.9099 93.1338H43.8361C43.767 91.1281 43.7209 84.484 43.7209 76.6089C43.7209 71.8598 43.7531 67.558 43.767 64.395C43.767 62.8642 43.8038 61.6286 43.8177 60.7064C43.8177 60.2961 43.8177 59.9641 43.8453 59.6967C43.8422 59.579 43.8531 59.4614 43.8776 59.3463C43.9022 59.4614 43.913 59.579 43.9099 59.6967C43.9099 59.9641 43.9099 60.2961 43.9376 60.7064C43.9376 61.6286 43.9698 62.8781 43.9883 64.395C43.9883 67.558 44.0159 71.8598 44.0344 76.6089C44.0344 84.484 43.9883 91.1281 43.9237 93.1338H43.8361C43.8263 92.8829 43.8356 92.6317 43.8638 92.3822Z" fill="#F5F5F5"/>
<path d="M48.6266 92.3822C48.6662 92.6307 48.6816 92.8823 48.6728 93.1338H48.5851C48.5206 91.1281 48.4699 84.484 48.4699 76.6089C48.4699 71.8598 48.5068 67.558 48.516 64.395C48.516 62.8642 48.5529 61.6286 48.5667 60.7064C48.5667 60.2961 48.5898 59.9641 48.5944 59.6967C48.5943 59.5791 48.6051 59.4618 48.6266 59.3463C48.6541 59.4609 48.665 59.5789 48.6589 59.6967C48.6589 59.9641 48.6589 60.2961 48.6912 60.7064C48.6912 61.6286 48.7189 62.8781 48.7419 64.395C48.7419 67.558 48.7696 71.8598 48.788 76.6089C48.788 84.484 48.7373 91.1281 48.6728 93.1338H48.5851C48.5799 92.8826 48.5938 92.6313 48.6266 92.3822Z" fill="#F5F5F5"/>
<path d="M53.3942 92.3822C53.427 92.6313 53.4409 92.8826 53.4357 93.1338H53.3481C53.2835 91.1281 53.2328 84.484 53.2328 76.6089C53.2328 71.8598 53.2697 67.558 53.2789 64.395C53.3019 62.8642 53.3204 61.6286 53.3296 60.7064C53.3296 60.2961 53.3296 59.9641 53.3619 59.6967C53.3558 59.5789 53.3667 59.4609 53.3942 59.3463C53.4157 59.4618 53.4265 59.5791 53.4264 59.6967C53.4264 59.9641 53.4264 60.2961 53.4541 60.7064C53.4541 61.6286 53.4818 62.8781 53.5048 64.395C53.5048 67.558 53.5325 71.8598 53.5509 76.6089C53.5509 84.484 53.5002 91.1281 53.4357 93.1338H53.3481C53.3392 92.8823 53.3546 92.6307 53.3942 92.3822Z" fill="#F5F5F5"/>
<path d="M58.157 92.3822C58.1899 92.6313 58.2037 92.8826 58.1985 93.1338H58.1294C58.0648 91.1281 58.0187 84.484 58.0187 76.6089C58.0187 71.8598 58.051 67.558 58.0648 64.395C58.0648 62.8642 58.1017 61.6286 58.1155 60.7064C58.1155 60.2961 58.1155 59.9641 58.1432 59.6967C58.1401 59.579 58.1509 59.4614 58.1755 59.3463C58.2 59.4614 58.2109 59.579 58.2077 59.6967C58.2077 59.9641 58.2077 60.2961 58.2354 60.7064C58.2354 61.6286 58.2677 62.8781 58.2861 64.395C58.2861 67.558 58.3138 71.8598 58.3322 76.6089C58.3322 84.484 58.2861 91.1281 58.217 93.1338H58.1294C58.1175 92.8829 58.1267 92.6315 58.157 92.3822Z" fill="#F5F5F5"/>
<path d="M62.92 92.3822C62.9565 92.631 62.9719 92.8824 62.9661 93.1338H62.8785C62.8094 91.1281 62.7632 84.484 62.7632 76.6089C62.7632 71.8598 62.7955 67.558 62.8093 64.395C62.8093 62.8642 62.8462 61.6286 62.8601 60.7064C62.8601 60.2961 62.8831 59.9641 62.8877 59.6967C62.8846 59.579 62.8954 59.4614 62.92 59.3463C62.9446 59.4614 62.9554 59.579 62.9523 59.6967C62.9523 59.9641 62.9523 60.2961 62.9799 60.7064C62.9799 61.6286 63.0122 62.8781 63.0307 64.395C63.0307 67.558 63.0583 71.8598 63.0768 76.6089C63.0768 84.484 63.0307 91.1281 62.9661 93.1338H62.8785C62.8733 92.8826 62.8872 92.6313 62.92 92.3822Z" fill="#F5F5F5"/>
<path d="M67.6829 92.3822C67.7224 92.6307 67.7379 92.8823 67.729 93.1338H67.6414C67.5769 91.1281 67.5262 84.484 67.5262 76.6089C67.5262 71.8598 67.563 67.558 67.5723 64.395C67.5953 62.8642 67.6091 61.6286 67.623 60.7064C67.623 60.2961 67.623 59.9641 67.6506 59.6967C67.6505 59.5791 67.6613 59.4618 67.6829 59.3463C67.7104 59.4609 67.7213 59.5789 67.7152 59.6967C67.7152 59.9641 67.7152 60.2961 67.7475 60.7064C67.7475 61.6286 67.7751 62.8781 67.7982 64.395C67.7982 67.558 67.8259 71.8598 67.8443 76.6089C67.8443 84.484 67.7936 91.1281 67.729 93.1338H67.6414C67.6362 92.8826 67.6501 92.6313 67.6829 92.3822Z" fill="#F5F5F5"/>
<path d="M116.082 27.4307L112.49 59.7935C111.877 65.2988 109.853 73.2569 101.199 71.8967C93.7752 70.1446 92.6594 62.7767 93.2358 57.6403C93.5078 55.2058 93.7291 53.1725 93.743 52.9235C93.743 52.9235 85.5912 51.2314 85.9047 43.0104C86.0568 39.0406 87.0297 30.8796 87.998 23.5116C88.5006 19.6947 90.4222 16.2071 93.3801 13.743C96.3381 11.2789 100.115 10.019 103.96 10.2142L104.753 10.2511C113.274 11.1687 117.244 18.9378 116.082 27.4307Z" fill="#936760"/>
<path d="M93.7429 52.9235C97.5377 53.1035 101.304 52.1914 104.597 50.2954C104.597 50.2954 101.687 56.1649 93.5308 55.0122L93.7429 52.9235Z" fill="#6F4C47"/>
<path d="M101.471 28.565C101.613 28.7495 102.646 28.104 104.011 28.2423C105.376 28.3806 106.316 29.1644 106.478 29.0123C106.561 28.9385 106.427 28.6204 106.017 28.2515C105.468 27.7778 104.784 27.489 104.062 27.4262C103.349 27.3555 102.633 27.5172 102.019 27.8873C101.59 28.187 101.42 28.482 101.471 28.565Z" fill="#263238"/>
<path d="M101.18 31.3869C101.163 31.6762 101.26 31.9607 101.449 32.1801C101.638 32.3996 101.906 32.5367 102.194 32.5626C102.335 32.5806 102.478 32.5702 102.615 32.5322C102.751 32.4942 102.879 32.4293 102.99 32.3412C103.102 32.2532 103.194 32.1438 103.262 32.0195C103.331 31.8952 103.374 31.7585 103.389 31.6174C103.405 31.3285 103.309 31.0446 103.119 30.8259C102.93 30.6072 102.662 30.471 102.374 30.4463C102.234 30.4283 102.091 30.4384 101.955 30.4762C101.818 30.5139 101.691 30.5784 101.58 30.666C101.469 30.7536 101.376 30.8624 101.307 30.9862C101.239 31.11 101.195 31.2462 101.18 31.3869Z" fill="#263238"/>
<path d="M96.9013 37.6252C96.9013 37.5514 96.1359 37.3762 94.8726 37.1641C94.5498 37.1134 94.2501 37.035 94.204 36.8137C94.1976 36.487 94.2891 36.1658 94.4668 35.8916L95.5457 33.4847C97.0442 30.0544 98.1462 27.228 98.0079 27.1726C97.8695 27.1173 96.5416 29.8423 95.0432 33.2727C94.6774 34.1149 94.3316 34.9218 94.0057 35.6933C93.7811 36.0719 93.6994 36.5184 93.7752 36.952C93.8155 37.0686 93.8823 37.1742 93.9703 37.2606C94.0583 37.347 94.1651 37.4118 94.2824 37.45C94.4581 37.509 94.6413 37.5432 94.8264 37.5514C96.099 37.6482 96.8921 37.6944 96.9013 37.6252Z" fill="#263238"/>
<path d="M102.702 23.5117C102.798 23.8298 103.914 23.7376 105.214 23.9728C106.515 24.2079 107.552 24.6229 107.736 24.3508C107.824 24.2171 107.653 23.8898 107.243 23.5901C106.701 23.1853 106.068 22.9194 105.399 22.8155C104.735 22.6964 104.052 22.7456 103.412 22.9584C102.918 23.129 102.665 23.3595 102.702 23.5117Z" fill="#263238"/>
<path d="M89.8883 23.5117C90.0035 23.7745 91.1009 23.6315 92.3919 23.7514C93.6829 23.8713 94.7388 24.171 94.9048 23.9266C94.9785 23.8114 94.7941 23.567 94.3699 23.3134C93.8012 23.0013 93.1724 22.8142 92.5256 22.7647C91.865 22.7029 91.1988 22.7815 90.5707 22.9953C90.0773 23.1566 89.8422 23.3826 89.8883 23.5117Z" fill="#263238"/>
<path d="M115.105 33.4801C115.247 33.4248 120.836 32.0969 120.375 37.7035C119.914 43.3102 114.381 41.6872 114.381 41.5258C114.381 41.3645 115.105 33.4801 115.105 33.4801Z" fill="#936760"/>
<path d="M116.266 39.5432C116.294 39.5432 116.359 39.6216 116.52 39.7092C116.744 39.8282 117.005 39.8547 117.248 39.783C117.857 39.617 118.433 38.7179 118.544 37.7082C118.598 37.229 118.545 36.7438 118.387 36.2881C118.349 36.1084 118.268 35.9407 118.151 35.7993C118.033 35.658 117.884 35.5472 117.714 35.4766C117.604 35.4382 117.484 35.4393 117.375 35.4797C117.265 35.5201 117.173 35.5972 117.115 35.6979C117.027 35.8454 117.055 35.9607 117.022 35.9699C116.99 35.9791 116.912 35.8639 116.976 35.6379C117.018 35.5013 117.106 35.3837 117.225 35.306C117.388 35.2011 117.585 35.1647 117.774 35.2045C118.001 35.2695 118.207 35.3913 118.373 35.5584C118.539 35.7254 118.66 35.9321 118.724 36.1589C118.925 36.6634 118.998 37.21 118.936 37.7497C118.807 38.8793 118.143 39.889 117.313 40.055C117.158 40.0864 116.998 40.0827 116.845 40.0445C116.692 40.0062 116.549 39.9342 116.428 39.8337C116.266 39.6816 116.248 39.5525 116.266 39.5432Z" fill="#6F4C47"/>
<path d="M97.7403 41.6503C97.6988 41.5028 98.8331 41.3091 99.7276 40.3777C100.102 39.9679 100.422 39.5106 100.677 39.0176C100.889 38.6303 101.046 38.3905 101.106 38.4182C101.166 38.4458 101.106 38.7179 100.968 39.1467C100.778 39.7216 100.463 40.2475 100.046 40.6867C99.6213 41.132 99.0819 41.4511 98.4873 41.6088C98.04 41.7241 97.7496 41.701 97.7403 41.6503Z" fill="#263238"/>
<path d="M89.4825 26.7991C89.6254 26.9835 90.6582 26.338 92.023 26.4764C93.3878 26.6147 94.3284 27.3985 94.4898 27.2417C94.5728 27.1726 94.439 26.8544 94.0287 26.4856C93.4812 26.0099 92.7965 25.7209 92.0737 25.6603C91.361 25.5896 90.6445 25.7513 90.0312 26.1213C89.5885 26.421 89.4179 26.7161 89.4825 26.7991Z" fill="#263238"/>
<path d="M89.3903 29.9298C89.3736 30.2191 89.4701 30.5036 89.6594 30.7231C89.8487 30.9425 90.116 31.0797 90.4047 31.1055C90.5437 31.1236 90.6849 31.1141 90.8202 31.0776C90.9555 31.041 91.0823 30.978 91.1932 30.8924C91.3042 30.8067 91.3971 30.7 91.4667 30.5783C91.5363 30.4567 91.5812 30.3225 91.5989 30.1834C91.618 29.8947 91.5228 29.6101 91.3339 29.391C91.145 29.1719 90.8775 29.0358 90.5891 29.0123C90.45 28.9928 90.3084 29.0012 90.1726 29.037C90.0368 29.0727 89.9094 29.1351 89.7979 29.2204C89.6864 29.3058 89.5929 29.4125 89.523 29.5342C89.453 29.656 89.4079 29.7905 89.3903 29.9298Z" fill="#263238"/>
<path d="M119.535 28.4636C119.125 30.0266 118.152 33.5907 116.769 33.2726C114.003 32.6455 114.164 37.0811 112.827 36.5601C111.49 36.039 111.176 32.5118 111.328 31.1055C111.789 26.7115 113.477 23.5578 111.619 18.5413C111.042 17.5459 110.219 16.716 109.228 16.1321C108.236 15.5481 107.111 15.2297 105.961 15.2077C104.802 15.2085 103.663 15.5054 102.651 16.0703C101.639 16.6351 100.788 17.4492 100.18 18.4352C99.8937 16.8999 99.0914 14.5945 97.7036 13.8844C97.009 13.5221 96.223 13.3726 95.4439 13.4546C94.6648 13.5366 93.9272 13.8465 93.3234 14.3455C92.7471 14.8747 92.3827 15.5951 92.2979 16.3728C92.2131 17.1506 92.4136 17.9326 92.8623 18.5735C92.5466 18.6752 92.2068 18.6732 91.8924 18.5678C91.5779 18.4625 91.3055 18.2593 91.1148 17.988C91.0959 18.3488 91.1512 18.7097 91.2773 19.0484C91.4033 19.387 91.5976 19.6962 91.8479 19.9568C91.2791 19.83 90.775 19.5026 90.4278 19.0346L90.8889 20.9342C88.5835 21.0495 86.2366 18.8548 85.545 16.8676C84.4984 13.8522 85.1808 10.7722 86.813 8.0334C88.4452 5.29462 91.4237 3.32122 94.6512 3.27511C97.8788 3.229 100.548 4.68139 101.844 7.59538C103.882 6.08305 108.064 5.47905 110.392 6.47497C111.557 6.98773 112.57 7.78992 113.337 8.80519C114.104 9.82047 114.598 11.0151 114.773 12.2753C116.202 11.6344 117.945 12.0678 119.185 13.0268L119.485 13.2758C120.315 14.0306 120.939 14.9836 121.301 16.0456C121.662 17.1076 121.748 18.2439 121.55 19.3482C121.403 20.2334 121.117 21.1556 120.956 21.8702C120.411 23.9866 119.535 28.4636 119.535 28.4636Z" fill="#263238"/>
<path d="M90.7183 17.8681C90.7183 17.8681 90.6445 17.8266 90.5292 17.7252C90.3589 17.5787 90.2044 17.4149 90.0681 17.2364C89.5409 16.5713 89.2074 15.7736 89.1045 14.9311C89.0115 14.3094 89.0527 13.675 89.2252 13.0706C89.3978 12.4662 89.6978 11.9057 90.105 11.4269C90.6043 10.8371 91.2396 10.3777 91.9562 10.0885C92.6728 9.79928 93.449 9.68895 94.2178 9.76703C95.009 9.86612 95.7673 10.1436 96.4356 10.5785C97.0588 10.9708 97.6173 11.4577 98.0908 12.0217C98.8949 12.9605 99.4877 14.0612 99.8291 15.2492C100.059 16.0509 100.169 16.8821 100.156 17.7159C100.156 18.011 100.129 18.237 100.106 18.3891C100.101 18.4674 100.087 18.5448 100.064 18.6197C100.114 17.4973 99.9805 16.3743 99.6677 15.2953C99.3122 14.1334 98.7169 13.059 97.9202 12.1416C96.9818 10.9904 95.6554 10.2214 94.1901 9.97912C93.4598 9.90797 92.7231 10.0132 92.0419 10.286C91.3607 10.5588 90.755 10.9912 90.2756 11.5468C89.8832 12.0014 89.5913 12.5338 89.4189 13.109C89.2464 13.6843 89.1974 14.2895 89.2751 14.885C89.3574 15.706 89.6531 16.4912 90.1327 17.1627C90.4785 17.6468 90.7321 17.8497 90.7183 17.8681Z" fill="#455A64"/>
<path d="M89.7084 20.321C89.6416 20.2419 89.5844 20.1552 89.5378 20.0628C89.4318 19.8876 89.2796 19.6017 89.0767 19.2882C88.5314 18.3354 88.0805 17.3317 87.7304 16.2912C87.495 15.5642 87.357 14.8091 87.32 14.0458C87.2747 13.1629 87.4144 12.2802 87.7304 11.4546C88.0987 10.5394 88.7291 9.75344 89.5424 9.19529C90.4114 8.59967 91.4204 8.24055 92.4702 8.15326C93.515 8.07278 94.565 8.21581 95.5502 8.57284C96.465 8.90274 97.3246 9.36909 98.0999 9.95606C99.4526 10.9118 100.451 12.2881 100.94 13.8706C101.245 14.9437 101.214 16.0843 100.853 17.1396C100.751 17.4209 100.621 17.6913 100.465 17.9465C100.411 18.0361 100.349 18.1209 100.281 18.2001C100.464 17.8491 100.619 17.4836 100.742 17.1073C101.058 16.0672 101.058 14.9568 100.742 13.9167C100.243 12.3829 99.257 11.0538 97.934 10.1313C96.3868 8.93386 94.4664 8.32148 92.5117 8.40224C91.5025 8.48905 90.5325 8.83356 89.6946 9.40277C88.9178 9.93386 88.3135 10.6808 87.9563 11.5514C87.6456 12.3465 87.5027 13.1974 87.5367 14.0504C87.5655 14.7981 87.691 15.5389 87.9102 16.2543C88.2443 17.29 88.6685 18.2944 89.1782 19.2559L89.5793 20.0536C89.6303 20.1386 89.6735 20.2282 89.7084 20.321Z" fill="#455A64"/>
<path d="M117.539 25.0009C117.511 24.964 118.032 24.5813 118.673 23.779C119.516 22.743 120.084 21.5116 120.326 20.1982C120.568 18.8848 120.475 17.5317 120.056 16.2635C119.738 15.2861 119.388 14.742 119.429 14.7235C119.471 14.7051 119.54 14.8388 119.692 15.0924C119.902 15.4472 120.078 15.8208 120.218 16.2082C120.692 17.4976 120.812 18.8907 120.564 20.242C120.315 21.5934 119.709 22.8532 118.807 23.8897C118.538 24.2013 118.242 24.4883 117.922 24.7473C117.807 24.8498 117.678 24.9353 117.539 25.0009Z" fill="#455A64"/>
<path d="M112.592 24.9549C112.592 24.9318 112.859 24.8258 113.283 24.5214C113.874 24.0958 114.335 23.5149 114.616 22.8431L114.828 22.3175L114.791 22.8846C114.74 23.65 114.68 24.5307 114.62 25.4897L114.44 25.3883C115.204 24.8386 115.852 24.1434 116.347 23.3427C116.841 22.5419 117.173 21.6514 117.322 20.7222C117.447 19.873 117.422 19.0085 117.248 18.1678C117.064 17.3958 116.788 16.6482 116.428 15.9409C116.468 15.9811 116.504 16.026 116.534 16.0746C116.624 16.2052 116.707 16.3407 116.783 16.4803C117.064 17.0003 117.275 17.5554 117.41 18.131C117.734 19.5132 117.637 20.9608 117.131 22.2873C116.624 23.6137 115.732 24.758 114.57 25.5727L114.371 25.711V25.4713L114.588 22.8708L114.768 22.9123C114.463 23.6069 113.961 24.1968 113.325 24.6091C113.153 24.7196 112.97 24.8138 112.781 24.8903C112.72 24.9193 112.657 24.9409 112.592 24.9549Z" fill="#455A64"/>
<path d="M110.821 13.5525C110.493 12.9617 110.053 12.4403 109.526 12.0171C108.944 11.5818 108.268 11.291 107.552 11.1687C106.672 11.0257 105.769 11.1278 104.942 11.4638C104.113 11.7957 103.375 12.3205 102.789 12.9946C102.313 13.5432 101.93 14.1663 101.655 14.8389C101.422 15.477 101.239 16.1321 101.106 16.7984C101.088 16.6137 101.097 16.4272 101.134 16.2452C101.199 15.7445 101.319 15.2527 101.494 14.7789C101.756 14.0707 102.139 13.4126 102.623 12.8332C103.225 12.1234 103.991 11.5711 104.855 11.2241C105.723 10.8731 106.671 10.7725 107.594 10.9336C108.341 11.0772 109.041 11.4035 109.632 11.8834C110.028 12.204 110.359 12.5967 110.609 13.0407C110.675 13.1615 110.734 13.2862 110.784 13.4142C110.805 13.4577 110.817 13.5045 110.821 13.5525Z" fill="#455A64"/>
<path d="M109.456 9.4397C108.966 9.20687 108.453 9.02457 107.926 8.89563C106.662 8.65785 105.355 8.87509 104.237 9.50886C103.128 10.18 102.234 11.1543 101.66 12.3168C101.199 13.2021 101.074 13.8153 101.033 13.8015C101.031 13.6541 101.054 13.5075 101.102 13.3681C101.203 12.9803 101.339 12.6023 101.507 12.2384C102.057 11.025 102.965 10.0084 104.108 9.32443C105.281 8.65211 106.664 8.44788 107.981 8.7527C108.375 8.85075 108.752 9.0061 109.101 9.21378C109.23 9.27185 109.349 9.34792 109.456 9.4397Z" fill="#455A64"/>
<path d="M76.2312 137.148L127.752 137.849C127.752 137.849 142.16 131.818 146.121 131.657C150.081 131.495 157.938 131.998 161.571 137.849C165.329 143.898 165.855 154.567 154.277 162.318C142.999 169.87 91.4375 176.846 84.3692 176.206L71.3485 158.712C71.3485 158.712 71.2147 144.378 71.3485 143.695C71.4822 143.013 73.6538 136.871 73.6538 136.871L76.2312 137.148Z" fill="#263238"/>
<path d="M107.077 161.345L133.778 171.263L121.61 204.539C118.503 203.183 118.415 183.633 118.415 183.633L101.046 177.981L107.077 161.345Z" fill="#ED7801"/>
<g opacity="0.6">
<path d="M120.734 172.817C120.949 172.532 121.261 172.337 121.61 172.268C121.96 172.199 122.323 172.261 122.629 172.443C122.922 172.645 123.126 172.953 123.198 173.302C123.27 173.65 123.205 174.013 123.016 174.315C122.615 174.905 121.555 175.154 121.006 174.702C120.457 174.251 120.291 173.181 120.822 172.706" fill="white"/>
</g>
<path d="M133.778 171.263L131.081 170.239L120.402 202.607C120.402 202.607 120.504 204.326 121.61 204.539L133.778 171.263Z" fill="#263238"/>
<path d="M118.069 184.108C118.235 184.164 118.604 183.38 119.42 182.771C120.236 182.163 121.075 181.987 121.066 181.812C121.057 181.637 120.029 181.54 119.056 182.273C118.083 183.006 117.885 184.072 118.069 184.108Z" fill="#263238"/>
<path d="M118.217 188.129C118.36 188.221 118.89 187.622 119.78 187.322C120.67 187.022 121.453 187.124 121.509 186.962C121.564 186.801 120.679 186.358 119.581 186.75C118.484 187.142 118.069 188.069 118.217 188.129Z" fill="#263238"/>
<path d="M121.665 191.638C121.758 191.504 121.025 190.978 119.983 191.071C118.941 191.163 118.309 191.794 118.419 191.914C118.53 192.034 119.176 191.735 120.033 191.67C120.891 191.605 121.592 191.794 121.665 191.638Z" fill="#263238"/>
<path d="M114.233 182.384C114.404 182.384 114.454 181.54 114.851 180.646C115.247 179.751 115.801 179.138 115.695 179.004C115.589 178.871 114.772 179.345 114.311 180.387C113.85 181.429 114.076 182.416 114.233 182.384Z" fill="#263238"/>
<path d="M110.572 180.148C110.641 180.171 110.973 179.567 111.176 178.479C111.286 177.838 111.32 177.186 111.277 176.538C111.249 176.154 111.196 175.772 111.121 175.394C111.082 175.17 111.011 174.952 110.909 174.749C110.833 174.599 110.71 174.48 110.559 174.408C110.408 174.337 110.237 174.319 110.074 174.357C109.931 174.396 109.799 174.469 109.689 174.569C109.58 174.669 109.495 174.794 109.442 174.933C109.365 175.144 109.317 175.364 109.299 175.588C109.255 175.975 109.248 176.366 109.276 176.754C109.327 177.411 109.483 178.056 109.737 178.663C110.171 179.696 110.66 180.18 110.733 180.138C110.807 180.097 110.438 179.521 110.139 178.52C109.963 177.938 109.864 177.335 109.844 176.727C109.833 176.371 109.851 176.014 109.899 175.661C109.936 175.274 110.042 174.974 110.231 174.942C110.305 174.942 110.328 174.942 110.406 175.048C110.475 175.195 110.527 175.35 110.558 175.509C110.639 175.859 110.699 176.213 110.738 176.57C110.804 177.182 110.813 177.8 110.766 178.414C110.692 179.461 110.484 180.115 110.572 180.148Z" fill="#263238"/>
<path d="M110.886 180.019C110.932 179.973 110.466 179.438 109.433 178.99C108.83 178.729 108.186 178.573 107.529 178.529C107.138 178.51 106.746 178.528 106.358 178.585C106.106 178.594 105.86 178.669 105.645 178.801C105.43 178.934 105.253 179.12 105.131 179.341C105.08 179.489 105.072 179.65 105.109 179.802C105.145 179.955 105.225 180.094 105.339 180.203C105.502 180.361 105.687 180.494 105.888 180.6C106.239 180.793 106.619 180.932 107.013 181.01C107.668 181.149 108.349 181.12 108.991 180.927C110.093 180.595 110.535 180.005 110.484 179.954C110.434 179.903 109.904 180.318 108.894 180.517C108.31 180.628 107.71 180.612 107.132 180.471C106.8 180.386 106.481 180.257 106.183 180.088C105.846 179.903 105.611 179.668 105.694 179.548C105.777 179.429 106.123 179.198 106.455 179.166C106.802 179.107 107.154 179.079 107.506 179.083C108.111 179.096 108.711 179.192 109.29 179.369C110.282 179.705 110.826 180.102 110.886 180.019Z" fill="#263238"/>
<path d="M85.0563 157.232L59.2361 169.22L73.9905 201.44C76.9782 199.845 75.5305 180.346 75.5305 180.346L92.4012 173.347L85.0563 157.232Z" fill="#ED7801"/>
<g opacity="0.6">
<path d="M72.3443 169.741C72.1085 169.474 71.7824 169.303 71.4285 169.262C71.0746 169.22 70.7177 169.31 70.4263 169.515C70.1497 169.741 69.9709 170.064 69.927 170.418C69.8832 170.772 69.9778 171.129 70.1911 171.415C70.6522 171.968 71.708 172.134 72.2198 171.641C72.7316 171.148 72.8146 170.069 72.2475 169.64" fill="white"/>
</g>
<path d="M59.2222 169.216L61.8273 168.008L75.0186 199.416C75.0186 199.416 75.0509 201.136 73.9674 201.436L59.2222 169.216Z" fill="#263238"/>
<path d="M75.9131 180.789C75.7517 180.858 75.3183 180.102 74.4607 179.558C73.6031 179.013 72.7501 178.907 72.7455 178.732C72.7409 178.557 73.7599 178.377 74.7881 179.055C75.8163 179.733 76.0698 180.756 75.9131 180.789Z" fill="#263238"/>
<path d="M76.0607 184.809C75.9224 184.915 75.3461 184.348 74.4331 184.127C73.5202 183.905 72.7502 184.062 72.6857 183.905C72.6211 183.749 73.4649 183.237 74.5899 183.541C75.7149 183.846 76.2083 184.735 76.0607 184.809Z" fill="#263238"/>
<path d="M72.8839 188.581C72.7871 188.452 73.4695 187.871 74.5161 187.88C75.5627 187.889 76.2451 188.47 76.1437 188.599C76.0423 188.728 75.3737 188.479 74.5161 188.484C73.6585 188.489 72.9807 188.728 72.8839 188.581Z" fill="#263238"/>
<path d="M79.5787 178.769C79.4035 178.769 79.2928 177.944 78.8225 177.086C78.3522 176.229 77.7574 175.657 77.8589 175.514C77.9603 175.371 78.8179 175.781 79.3574 176.805C79.8968 177.829 79.7354 178.788 79.5787 178.769Z" fill="#263238"/>
<path d="M83.0506 176.233C82.986 176.265 82.5895 175.685 82.3221 174.615C82.1569 173.985 82.0702 173.338 82.0639 172.688C82.0626 172.304 82.0857 171.92 82.1331 171.539C82.1495 171.311 82.2024 171.087 82.2898 170.876C82.3523 170.72 82.4654 170.589 82.611 170.506C82.7565 170.422 82.926 170.39 83.0921 170.414C83.2387 170.44 83.377 170.501 83.495 170.592C83.613 170.682 83.7073 170.8 83.7699 170.935C83.8636 171.154 83.9242 171.386 83.9497 171.622C84.0234 172.005 84.062 172.394 84.065 172.784C84.0673 173.44 83.9677 174.091 83.7699 174.716C83.4194 175.781 82.9492 176.307 82.8938 176.265C82.8385 176.224 83.1336 175.629 83.3549 174.606C83.4841 174.012 83.5352 173.405 83.5071 172.798C83.4913 172.441 83.445 172.087 83.3687 171.738C83.3042 171.36 83.1751 171.065 82.9814 171.046C82.9077 171.046 82.8846 171.046 82.8154 171.166C82.7593 171.314 82.7221 171.469 82.7048 171.627C82.6509 171.983 82.6186 172.342 82.608 172.701C82.5873 173.318 82.6259 173.936 82.7232 174.546C82.903 175.588 83.1382 176.233 83.0506 176.233Z" fill="#263238"/>
<path d="M82.7324 176.15C82.6817 176.104 83.1012 175.532 84.0926 175.011C85.0288 174.528 86.0802 174.313 87.131 174.389C87.3837 174.378 87.635 174.432 87.8604 174.547C88.0858 174.662 88.2777 174.833 88.4174 175.044C88.4794 175.189 88.4988 175.349 88.4735 175.505C88.4482 175.661 88.3792 175.806 88.2745 175.924C88.1237 176.094 87.9499 176.241 87.7581 176.362C87.4226 176.582 87.0557 176.75 86.67 176.86C86.0268 177.048 85.3473 177.073 84.692 176.934C83.5669 176.685 83.0782 176.118 83.1243 176.076C83.1704 176.035 83.7329 176.399 84.7565 176.538C85.347 176.603 85.9447 176.54 86.5086 176.353C86.8363 176.244 87.1469 176.089 87.4307 175.892C87.7489 175.685 87.9702 175.431 87.8918 175.32C87.7927 175.212 87.6712 175.128 87.5358 175.072C87.4003 175.016 87.2543 174.991 87.108 174.998C86.7553 174.963 86.4002 174.963 86.0475 174.998C85.4463 175.055 84.8563 175.198 84.2954 175.422C83.3041 175.772 82.7923 176.233 82.7324 176.15Z" fill="#263238"/>
<path d="M73.6677 136.876C73.6677 136.876 51.4163 128.577 43.2368 129.637C38.6584 130.241 31.4979 133.736 30.9492 139.605C30.4005 145.475 31.8391 153.327 39.7557 157.149C47.6724 160.972 79.2744 175.154 86.7853 177.335C94.2962 179.516 112.997 184.634 112.997 184.634L120.107 164.347C120.107 164.347 81.3077 150.911 79.2605 149.408C77.2134 147.905 72.0263 145.862 72.0263 145.862L73.6677 136.876Z" fill="#263238"/>
<path d="M151.022 139.629L150.865 139.592L150.404 139.453C150.012 139.338 149.431 139.167 148.675 138.992C146.542 138.451 144.331 138.287 142.142 138.508C140.632 138.637 139.14 138.922 137.688 139.357C136.882 139.601 136.097 139.909 135.341 140.279L132.92 141.464C129.591 143.054 125.871 144.691 121.915 146.245C113.984 149.422 106.372 150.929 100.945 152.165C98.2246 152.765 96.0207 153.262 94.4899 153.622L92.7424 154.037L92.2813 154.139L92.1246 154.166C92.1705 154.141 92.2204 154.124 92.2721 154.115L92.7332 153.991C93.1297 153.885 93.7107 153.719 94.4714 153.53C95.9792 153.143 98.16 152.608 100.894 151.999C106.316 150.722 113.906 149.191 121.809 146.005C125.765 144.442 129.481 142.824 132.81 141.242L135.235 140.071C136.003 139.7 136.801 139.392 137.619 139.149C139.084 138.715 140.591 138.438 142.114 138.324C144.329 138.112 146.565 138.302 148.712 138.886C149.468 139.08 150.045 139.264 150.437 139.398L150.875 139.559L151.022 139.629Z" fill="#455A64"/>
<path d="M149.851 136.696C149.851 136.738 149.173 136.613 148.085 136.498C145.244 136.185 142.372 136.333 139.578 136.936C138.504 137.162 137.849 137.351 137.84 137.314C137.986 137.235 138.14 137.174 138.301 137.134C138.592 137.033 139.02 136.904 139.555 136.77C140.953 136.419 142.381 136.206 143.82 136.134C145.257 136.061 146.697 136.126 148.122 136.327C148.671 136.41 149.109 136.493 149.408 136.562C149.56 136.591 149.709 136.636 149.851 136.696Z" fill="#455A64"/>
<path d="M64.3078 142.759C64.2847 142.792 63.6669 142.298 62.6018 141.657C59.8195 139.927 56.6928 138.825 53.4403 138.43C52.1954 138.273 51.4162 138.259 51.4162 138.218C51.5971 138.185 51.7813 138.174 51.9648 138.185C52.3199 138.185 52.8317 138.185 53.4587 138.259C56.7535 138.572 59.9205 139.692 62.6802 141.519C63.0984 141.791 63.5016 142.085 63.8882 142.4C64.0434 142.5 64.1845 142.621 64.3078 142.759Z" fill="#455A64"/>
<path d="M75.4751 173.006L75.6503 173.07L76.1529 173.282C76.6139 173.467 77.2502 173.771 78.1216 174.108C79.8553 174.795 82.4142 175.735 85.7017 176.819C92.272 178.963 101.719 181.702 113.025 184.546L112.9 184.616L119.78 165.522L119.844 165.675L111.324 162.175L64.188 142.759C62.2699 140.731 60.4994 138.942 58.8488 137.494C57.4458 136.256 55.9489 135.129 54.3717 134.123C53.3794 133.499 52.3543 132.928 51.301 132.413L50.4756 132.025L50.199 131.887L50.4849 132.007L51.3194 132.371C52.3842 132.869 53.4188 133.43 54.4178 134.05C56.0091 135.045 57.5186 136.166 58.9317 137.402C60.6008 138.84 62.376 140.629 64.3033 142.649H64.2756L111.416 161.94L119.936 165.439L120.038 165.481L120.001 165.592L113.085 184.675L113.053 184.768L112.956 184.745C101.65 181.877 92.2075 179.11 85.6418 176.906C82.3589 175.809 79.8046 174.845 78.0755 174.14C77.2087 173.799 76.5632 173.481 76.1206 173.287L75.6226 173.061L75.4751 173.006Z" fill="#455A64"/>
<path d="M130.472 65.9581C130.472 65.9581 136.881 69.6467 138.181 73.9854C138.97 76.6182 144.945 110.304 145.89 116.944C146.836 123.583 144.839 128.507 142.008 130.711C139.177 132.915 130.587 135.848 130.587 135.848L118.53 139.762L115.068 130.947L126.548 114.449L125.446 103.305L130.472 65.9581Z" fill="#ED7801"/>
<path d="M117.88 60.1394L113.067 57.3729C113.067 57.3729 108.682 62.5001 102.702 61.873C96.7215 61.246 93.1712 56.6859 93.1712 56.6859L75.3369 60.3146C74.1427 60.5544 71.9618 61.3105 69.8732 64.2937C67.5447 67.618 56.502 82.3678 56.502 82.3678H48.7929C47.7488 82.3677 46.7245 82.6528 45.8307 83.1924C44.9368 83.7319 44.2074 84.5054 43.721 85.4293C42.4024 87.9422 40.8209 91.2988 40.9546 92.6912C41.2174 95.0473 40.7609 101.507 43.9193 103.522C44.9198 104.163 48.4978 106.081 51.2965 105.952C55.3954 105.758 60.1583 103.623 62.9017 101.705C65.2071 100.078 70.6247 94.4617 72.7042 92.2716V92.3177L74.0413 139.094L120.794 137.766L130.477 65.9674C130.477 65.9674 118.35 60.1394 117.88 60.1394Z" fill="#ED7801"/>
<path d="M72.5335 72.676C72.598 72.676 72.7225 78.4717 72.8055 85.623C72.8885 92.7742 72.907 98.5745 72.8378 98.5745C72.7686 98.5745 72.6488 92.7788 72.5658 85.6276C72.4828 78.4763 72.4689 72.676 72.5335 72.676Z" fill="#263238"/>
<path d="M136.134 110.489C136.134 110.489 135.737 110.553 135.032 110.687C134.035 110.885 133.064 111.195 132.136 111.609C130.763 112.229 129.469 113.01 128.282 113.937C126.827 115.076 125.468 116.333 124.22 117.695C122.883 119.138 121.665 120.563 120.531 121.845C119.524 122.974 118.461 124.051 117.345 125.072C116.59 125.764 115.791 126.404 114.952 126.99C114.657 127.198 114.413 127.336 114.251 127.452C114.173 127.508 114.088 127.554 113.998 127.59C114.067 127.523 114.143 127.462 114.224 127.41C114.376 127.295 114.611 127.143 114.897 126.921C115.713 126.313 116.492 125.657 117.23 124.957C118.175 124.081 119.231 122.965 120.365 121.688C121.499 120.411 122.717 118.982 124.054 117.538C125.313 116.169 126.685 114.909 128.157 113.771C129.363 112.843 130.68 112.069 132.077 111.466C133.02 111.062 134.01 110.774 135.023 110.609C135.382 110.539 135.664 110.539 135.853 110.516C135.945 110.496 136.039 110.486 136.134 110.489Z" fill="#263238"/>
<path d="M137.195 107.321C137.195 107.363 136.484 107.464 135.35 107.782C132.435 108.589 129.79 110.164 127.692 112.342C126.89 113.177 126.461 113.758 126.428 113.725C126.5 113.572 126.59 113.428 126.696 113.297C126.963 112.92 127.254 112.561 127.567 112.222C129.627 109.946 132.322 108.339 135.304 107.612C135.752 107.501 136.206 107.417 136.664 107.358C136.838 107.321 137.017 107.309 137.195 107.321Z" fill="#263238"/>
<g opacity="0.3">
<path d="M50.1759 99.1094C52.6519 99.7825 55.6212 96.223 57.8713 93.996C59.0378 92.8341 60.255 91.5985 60.6884 90.0078C60.9928 88.6709 60.8553 87.2715 60.2965 86.0195C59.8819 84.8905 59.3291 83.8172 58.6505 82.8242C58.858 84.7469 59.3329 87.6885 58.6874 90.1046C58.1479 92.1195 56.8707 93.7194 55.5152 95.2409C54.0858 96.8501 52.3891 98.5376 50.1759 99.1094Z" fill="black"/>
</g>
<path d="M60.7576 97.0714C60.7115 97.0714 60.9973 96.2553 61.2187 94.9136C61.353 94.1288 61.4285 93.3351 61.4446 92.539C61.461 91.5655 61.3962 90.5924 61.2509 89.6297C61.0918 88.6682 60.8543 87.7214 60.5409 86.7987C60.2782 86.0464 59.9607 85.3144 59.5911 84.6086C58.9594 83.4005 58.4384 82.7274 58.4753 82.6997C58.6206 82.8378 58.749 82.9925 58.858 83.1608C59.0034 83.3428 59.1374 83.5338 59.2591 83.7325C59.4066 83.9631 59.5818 84.2213 59.7432 84.5256C60.1364 85.2291 60.4725 85.963 60.7484 86.7203C61.0799 87.6521 61.3268 88.612 61.4861 89.5882C61.6361 90.5658 61.6963 91.5551 61.6659 92.5436C61.6411 93.3509 61.547 94.1546 61.3846 94.9458C61.3293 95.287 61.2417 95.5821 61.1726 95.868C61.1166 96.0942 61.0489 96.3174 60.9697 96.5365C60.9161 96.7211 60.8451 96.9002 60.7576 97.0714Z" fill="#263238"/>
<path d="M95.1261 58.4934C95.1584 58.5533 94.6097 58.8715 94.038 59.3879C93.4662 59.9043 93.0789 60.4068 93.0236 60.3653C93.2244 59.9241 93.5151 59.5297 93.8772 59.2073C94.2392 58.885 94.6646 58.6418 95.1261 58.4934Z" fill="#263238"/>
<path d="M99.9905 61.3197C100.041 61.3705 99.5709 61.873 99.1928 62.62C98.8147 63.3669 98.6718 64.0401 98.6026 64.0032C98.5695 63.4707 98.7015 62.9409 98.9807 62.4862C99.1925 62.0048 99.5444 61.5984 99.9905 61.3197Z" fill="#263238"/>
<path d="M108.322 64.2522C108.099 63.8096 107.92 63.3463 107.787 62.8689C107.584 62.4148 107.429 61.9403 107.326 61.4534C107.652 61.8442 107.891 62.3001 108.027 62.7905C108.231 63.2504 108.331 63.7493 108.322 64.2522Z" fill="#263238"/>
<path d="M113.684 61.7163C113.61 61.7163 113.431 60.9187 112.9 60.0565C112.37 59.1942 111.743 58.6502 111.794 58.5948C112.355 58.9007 112.812 59.3661 113.108 59.932C113.472 60.4566 113.673 61.0776 113.684 61.7163Z" fill="#263238"/>
<path d="M129.075 76.8671C129.144 76.8671 128.351 83.2668 127.309 91.1373C126.267 99.0079 125.368 105.385 125.303 105.375C125.239 105.366 126.027 98.9802 127.069 91.1051C128.111 83.2299 129.011 76.8579 129.075 76.8671Z" fill="#263238"/>
<path d="M59.0148 87.2137C59.033 87.4331 59.033 87.6536 59.0148 87.873C59.0022 88.1318 58.9699 88.3892 58.918 88.643C58.8903 88.7952 58.8673 88.9519 58.835 89.1041C58.8027 89.2562 58.752 89.4453 58.7013 89.6297C58.4739 90.4946 58.1651 91.3359 57.7791 92.1426C57.2946 93.1243 56.7188 94.0582 56.0593 94.9321C55.3807 95.7992 54.6075 96.5879 53.7539 97.2835C53.0513 97.8464 52.2758 98.3117 51.4486 98.6668C51.2688 98.7359 51.1028 98.8143 50.9414 98.8743L50.4803 99.0034L50.0746 99.114C49.9501 99.1417 49.8302 99.1463 49.7242 99.1647C49.5061 99.1993 49.2856 99.2163 49.0648 99.2154C49.8552 99.059 50.6276 98.8226 51.3702 98.51C52.166 98.1439 52.9127 97.6792 53.5926 97.1268C54.4147 96.4382 55.1627 95.6655 55.8242 94.8214C56.4742 93.9618 57.0452 93.0451 57.5301 92.0826C57.92 91.291 58.2409 90.4673 58.4892 89.6205C58.7058 88.8278 58.8813 88.0245 59.0148 87.2137Z" fill="#263238"/>
<g opacity="0.3">
<path d="M127.572 140.684C129.554 139.725 130.006 137.157 130.209 134.962C130.799 128.541 131.391 122.115 131.984 115.685C132.266 112.665 132.399 109.23 130.269 107.054C128.323 105.08 125.23 104.965 122.459 104.974C105.353 105.02 90.2433 105.523 73.1236 105.569L73.995 135.497L127.572 140.684Z" fill="black"/>
</g>
<path d="M65.7603 110.207L67.5816 144.917C67.6193 145.565 67.9043 146.174 68.3779 146.619C68.8514 147.063 69.4773 147.309 70.1267 147.305L125.419 147.402C126.069 147.404 126.696 147.157 127.169 146.711C127.643 146.265 127.927 145.654 127.964 145.005L130.071 110.885C130.145 109.465 129.149 107.579 127.701 107.552H68.3562C68.0076 107.542 67.6609 107.605 67.3378 107.736C67.0146 107.867 66.722 108.063 66.4783 108.313C66.2346 108.562 66.045 108.859 65.9214 109.185C65.7979 109.511 65.743 109.859 65.7603 110.207Z" fill="#E0E0E0"/>
<path d="M65.7602 110.207C65.7602 110.207 65.7602 110.161 65.7602 110.078C65.7481 109.949 65.7481 109.82 65.7602 109.691C65.8354 109.184 66.0639 108.713 66.415 108.34C66.6723 108.064 66.9871 107.849 67.3371 107.708C67.7651 107.555 68.2205 107.492 68.6742 107.524H72.0354L93.4569 107.487L125.23 107.455H127.489C127.889 107.433 128.286 107.535 128.628 107.745C128.964 107.96 129.252 108.242 129.471 108.575C129.924 109.235 130.166 110.016 130.168 110.816C130.122 111.586 130.075 112.365 130.029 113.149C129.836 116.272 129.639 119.458 129.439 122.707C129.043 129.204 128.628 135.926 128.199 142.815L128.12 144.106C128.084 144.534 128.093 144.949 128.014 145.401C127.926 145.843 127.726 146.254 127.434 146.597C127.142 146.94 126.767 147.203 126.345 147.361C125.93 147.508 125.489 147.566 125.05 147.531H121.246H111.319L92.5532 147.49L75.5719 147.448H71.6528H70.7168C70.3986 147.448 70.0851 147.448 69.7531 147.416C69.1061 147.325 68.5161 146.996 68.0979 146.494C67.6898 146.004 67.4707 145.384 67.48 144.746C67.4478 144.142 67.4201 143.548 67.3878 142.957C67.3279 141.773 67.2679 140.62 67.208 139.49C66.7469 130.458 66.3827 123.15 66.1245 118.096C66.0046 115.574 65.9078 113.615 65.8432 112.278C65.8156 111.614 65.7925 111.111 65.7741 110.765C65.7556 110.419 65.7741 110.249 65.7741 110.249C65.7741 110.249 65.7741 110.424 65.8156 110.765C65.857 111.106 65.8663 111.614 65.9032 112.273C65.9815 113.61 66.0922 115.57 66.2351 118.092C66.5072 123.164 66.9037 130.453 67.3924 139.481C67.4524 140.611 67.5169 141.763 67.5815 142.948C67.6091 143.538 67.6414 144.133 67.6737 144.737C67.6646 145.335 67.8708 145.916 68.2546 146.374C68.6444 146.839 69.1935 147.141 69.7946 147.222C70.1012 147.25 70.4091 147.259 70.7168 147.25H75.5903H92.5717L111.337 147.278H121.264H125.068C125.479 147.311 125.892 147.257 126.281 147.121C126.664 146.978 127.005 146.739 127.27 146.428C127.535 146.116 127.717 145.742 127.798 145.341C127.867 144.949 127.867 144.497 127.899 144.078L127.978 142.787C128.406 135.898 128.821 129.176 129.227 122.684C129.427 119.432 129.624 116.244 129.817 113.121C129.868 112.342 129.914 111.568 129.96 110.793C129.957 110.042 129.729 109.31 129.305 108.69C129.123 108.375 128.86 108.114 128.543 107.934C128.226 107.754 127.867 107.662 127.503 107.667H125.248H93.4754L72.0539 107.635H68.6927C68.2476 107.6 67.8001 107.658 67.3786 107.805C66.9706 107.963 66.6106 108.223 66.3341 108.562C66.0576 108.901 65.8741 109.306 65.8017 109.737C65.78 109.893 65.7662 110.05 65.7602 110.207Z" fill="#263238"/>
<path d="M98.3259 130.393C100.124 130.393 101.581 128.936 101.581 127.138C101.581 125.34 100.124 123.883 98.3259 123.883C96.5281 123.883 95.0707 125.34 95.0707 127.138C95.0707 128.936 96.5281 130.393 98.3259 130.393Z" fill="white"/>
<path d="M101.581 127.138C101.558 127.138 101.581 126.848 101.434 126.354C101.243 125.658 100.824 125.046 100.244 124.616C99.8508 124.319 99.3925 124.12 98.907 124.035C98.3533 123.938 97.784 123.989 97.2563 124.183C96.6716 124.394 96.1639 124.776 95.7993 125.28C95.4275 125.788 95.2168 126.397 95.1944 127.026C95.1719 127.656 95.3388 128.278 95.6734 128.811C96.008 129.345 96.495 129.766 97.0715 130.02C97.6479 130.274 98.2873 130.35 98.907 130.236C99.3925 130.152 99.8508 129.953 100.244 129.656C100.823 129.227 101.242 128.616 101.434 127.922C101.567 127.429 101.558 127.133 101.581 127.138C101.593 127.207 101.593 127.277 101.581 127.346C101.584 127.547 101.561 127.749 101.512 127.945C101.344 128.677 100.929 129.328 100.336 129.789C99.8933 130.135 99.3701 130.362 98.8154 130.451C98.2608 130.539 97.6927 130.486 97.1641 130.296C96.6705 130.12 96.225 129.831 95.8634 129.451C95.5018 129.072 95.2341 128.613 95.0817 128.111C94.9293 127.61 94.8965 127.08 94.9859 126.563C95.0753 126.047 95.2844 125.558 95.5965 125.137C95.9893 124.599 96.5358 124.192 97.1641 123.97C97.73 123.768 98.3401 123.722 98.93 123.837C99.4352 123.938 99.9091 124.158 100.313 124.478C100.908 124.937 101.324 125.589 101.489 126.322C101.538 126.516 101.561 126.716 101.558 126.917C101.579 126.989 101.587 127.064 101.581 127.138Z" fill="#263238"/>
<path d="M67.6231 114.048C67.6876 114.048 67.9643 119.881 68.2317 127.078C68.4991 134.275 68.6651 140.113 68.6006 140.113C68.536 140.113 68.2732 134.275 67.992 127.083C67.7107 119.89 67.5585 114.053 67.6231 114.048Z" fill="#263238"/>
<path d="M51.006 68.7615C50.6786 68.4848 52.0988 63.0349 52.0988 63.0349C52.0988 63.0349 48.3456 56.9165 48.2488 54.9431C48.152 52.9697 49.7288 48.9214 49.7288 48.9214L60.4857 46.155C60.4857 46.155 63.9437 52.5731 64.6354 54.8416C65.327 57.1101 63.4504 64.8101 63.4504 64.8101L61.6061 68.7615C61.6061 68.7615 56.1285 73.1048 51.006 68.7615Z" fill="#936760"/>
<path d="M48.2671 56.1234C47.8459 55.3469 47.4673 54.5481 47.1328 53.7305C46.455 52.1167 45.6159 50.5306 47.1328 49.6269C47.3695 49.4711 47.6368 49.3679 47.9168 49.3241C48.1968 49.2804 48.4829 49.2972 48.7558 49.3733C48.7558 49.3733 48.5253 47.9901 49.3367 47.5014C49.5728 47.3539 49.8405 47.2645 50.1178 47.2404C50.3951 47.2164 50.6741 47.2584 50.9321 47.363C50.9321 47.363 50.6739 45.445 51.8542 44.6335C52.2935 44.3434 52.8049 44.1816 53.331 44.1661C53.8572 44.1506 54.3772 44.2821 54.8328 44.5459C54.8328 44.5459 53.9106 36.1497 53.8276 35.7071C53.5325 34.0749 54.1365 32.6271 55.7595 33.0329C56.3543 33.1804 56.6817 33.8075 57.3825 36.5416C58.0833 39.2758 59.2037 43.9419 59.2037 43.9419C59.2037 43.9419 61.0941 47.2247 61.9702 49.0137C62.8462 50.8026 64.6306 54.8509 64.7781 55.9298C65.1562 58.6962 63.5286 62.3848 63.5286 62.3848L52.094 63.0488L48.2671 56.1234Z" fill="#936760"/>
<path d="M48.9818 49.7329C49.3078 50.1218 49.6037 50.5348 49.8671 50.9686L50.7892 52.3518C50.976 52.6242 51.141 52.911 51.2826 53.2094C51.4434 53.5498 51.4903 53.933 51.4163 54.3022C51.3815 54.495 51.2962 54.6751 51.169 54.8242C51.0418 54.9733 50.8773 55.0859 50.6924 55.1505C50.347 55.2369 49.9819 55.1908 49.6688 55.0214C49.3996 54.8924 49.1433 54.738 48.9034 54.5604C48.6821 54.399 48.4746 54.2422 48.2902 54.0993C47.9167 53.8088 47.6308 53.5598 47.4372 53.38C47.2435 53.2002 47.1421 53.0988 47.1513 53.0849C47.1606 53.0711 47.6124 53.4215 48.3916 53.961C48.8271 54.2889 49.2899 54.5789 49.7748 54.8278C50.0397 54.9671 50.3463 55.0049 50.6371 54.9338C50.7822 54.8812 50.9106 54.7905 51.0087 54.6713C51.1069 54.552 51.1712 54.4086 51.195 54.256C51.2536 53.9442 51.2133 53.6217 51.0797 53.3339C50.9472 53.046 50.793 52.7686 50.6186 52.504L49.7564 51.1207C49.4598 50.6806 49.2007 50.2164 48.9818 49.7329Z" fill="#6F4C47"/>
<path d="M58.36 50.7334C58.2616 50.1328 58.3026 49.5175 58.4799 48.9353C58.5834 48.3346 58.8284 47.7672 59.1946 47.28C59.2591 47.3123 58.941 48.0454 58.7335 48.9906C58.526 49.9358 58.4338 50.7334 58.36 50.7334Z" fill="#6F4C47"/>
<path d="M62.897 53.1864C61.8415 52.1645 60.5121 51.471 59.0701 51.19C57.6346 50.9134 56.1653 50.8574 54.7129 51.024C53.551 51.13 52.2185 51.4297 51.6929 52.4717C51.1673 53.5138 51.8035 54.9247 52.8317 55.5379C53.8599 56.1511 55.1371 56.1788 56.3405 56.0727C57.5439 55.9667 58.7427 55.7408 59.9323 55.9252" fill="#936760"/>
<path d="M59.9323 55.9252C59.9323 55.9252 59.6096 55.8929 59.0102 55.9252C58.1907 55.9607 57.3736 56.0377 56.5619 56.1557C55.9917 56.2285 55.4164 56.2532 54.8421 56.2295C54.1726 56.2066 53.5156 56.0416 52.9148 55.7453C52.2442 55.3922 51.7332 54.7971 51.4855 54.0809C51.354 53.6985 51.3253 53.2882 51.4025 52.8913C51.5008 52.482 51.7211 52.1122 52.0341 51.8308C52.6693 51.3397 53.4333 51.0434 54.2335 50.9778C54.9543 50.8931 55.6794 50.85 56.4051 50.8487C57.6399 50.8262 58.8698 51.0117 60.043 51.3974C60.8324 51.6626 61.5701 52.0619 62.2239 52.5778C62.4024 52.719 62.5704 52.8731 62.7265 53.0388C62.7849 53.0918 62.8361 53.1522 62.8786 53.2186C62.8786 53.2186 62.6388 53.0019 62.1686 52.6607C61.5042 52.183 60.7681 51.8141 59.9877 51.568C58.8296 51.2114 57.621 51.0463 56.4097 51.0793C55.693 51.0872 54.9772 51.1349 54.2657 51.2222C53.5131 51.2824 52.794 51.5594 52.1955 52.0199C51.9201 52.2633 51.7255 52.585 51.6376 52.942C51.5656 53.2969 51.5895 53.6645 51.7068 54.0071C51.9335 54.6697 52.4031 55.2217 53.0208 55.5517C53.5957 55.8352 54.2245 55.9924 54.8651 56.0128C55.4279 56.0438 55.9922 56.0299 56.5527 55.9713C57.3721 55.8643 58.1976 55.8104 59.024 55.8099C59.2478 55.8199 59.471 55.8415 59.6926 55.8744C59.7746 55.8793 59.8554 55.8964 59.9323 55.9252Z" fill="#6F4C47"/>
<path d="M49.0648 49.8667C50.2682 51.711 51.3287 53.7028 52.3431 55.6393C52.5853 56.2322 52.9836 56.7485 53.4957 57.1332C53.9292 57.4006 55.0035 56.9165 55.4876 56.7505L52.1817 49.235" fill="#936760"/>
<path d="M52.1817 49.235C52.2973 49.4113 52.3961 49.5981 52.4768 49.7929L53.2053 51.3698C53.8185 52.7069 54.6576 54.5973 55.5936 56.7044L55.649 56.8197L55.5245 56.8658C55.1694 56.9903 54.7868 57.1516 54.3718 57.2577C54.2056 57.299 54.0357 57.3237 53.8646 57.3314C53.7746 57.3357 53.6844 57.3264 53.5972 57.3038C53.506 57.2813 53.4209 57.2388 53.3482 57.1793C53.082 56.9875 52.8551 56.7465 52.6796 56.4692C52.3431 55.9344 52.1033 55.3995 51.8313 54.9062C51.3149 53.9057 50.84 53.0112 50.425 52.2642C50.01 51.5173 49.6688 50.9225 49.4245 50.5122C49.2898 50.3056 49.1696 50.0899 49.0648 49.8667C49.2306 50.0512 49.3774 50.252 49.5028 50.4661C49.7703 50.858 50.1437 51.4435 50.5725 52.1812C51.0013 52.919 51.4947 53.8042 52.0295 54.8002C52.3016 55.2935 52.5552 55.8376 52.8779 56.3401C53.0382 56.5903 53.2429 56.8091 53.4819 56.9856C53.6092 57.0518 53.7495 57.0893 53.8928 57.0957C54.0361 57.1021 54.1791 57.0771 54.3118 57.0225C54.7038 56.9257 55.0772 56.7689 55.4461 56.6398L55.3631 56.815C54.4409 54.6895 53.6202 52.8037 53.0577 51.4481L52.3938 49.8436C52.3053 49.6474 52.2343 49.4437 52.1817 49.235Z" fill="#6F4C47"/>
<path d="M51.2918 46.9988C52.3522 49.6638 53.4143 52.3273 54.4778 54.9892C54.6714 55.5685 54.9614 56.1109 55.3354 56.5938C55.5243 56.8335 55.7698 57.0227 56.0499 57.1442C56.3299 57.2657 56.6358 57.3158 56.9399 57.29C57.7699 57.1701 58.3232 56.2894 58.3554 55.4457C58.33 54.6039 58.1257 53.7772 57.756 53.0204C56.8032 50.5903 56.0401 48.0899 55.4737 45.5418" fill="#936760"/>
<path d="M55.4738 45.5464C55.506 45.6258 55.5322 45.7075 55.5522 45.7908C55.6029 45.9752 55.6629 46.2103 55.7413 46.4962C55.9072 47.1094 56.147 47.9947 56.4836 49.0782C56.8202 50.1617 57.2536 51.4389 57.8022 52.8314C58.1421 53.5609 58.3676 54.3385 58.4708 55.1367C58.5014 55.5749 58.4171 56.0136 58.2264 56.4093C58.0316 56.8229 57.6921 57.1509 57.272 57.3314C57.0537 57.4113 56.8207 57.4427 56.589 57.4236C56.3573 57.4045 56.1326 57.3353 55.9303 57.2208C55.5519 57.01 55.2342 56.705 55.0081 56.3355C54.6271 55.6397 54.3048 54.9133 54.0445 54.1639C53.5004 52.7806 53.0117 51.5173 52.5921 50.4522C52.1725 49.3871 51.8728 48.5618 51.6331 47.9394L51.3795 47.2524C51.3466 47.1724 51.3234 47.0888 51.3103 47.0034C51.357 47.0758 51.3956 47.1531 51.4256 47.2339L51.7207 47.9025C51.9743 48.5203 52.3247 49.3641 52.7489 50.3877C53.1731 51.4112 53.671 52.693 54.252 54.0763C54.5116 54.8081 54.8308 55.5175 55.2064 56.1972C55.4155 56.5348 55.7096 56.8115 56.0594 56.9995C56.232 57.0965 56.4233 57.1554 56.6206 57.1721C56.8179 57.1888 57.0164 57.1629 57.2029 57.0963C57.5706 56.9359 57.8662 56.6452 58.0328 56.2802C58.2062 55.922 58.2825 55.5245 58.2541 55.1275C58.1518 54.3605 57.9358 53.6131 57.6132 52.9097C57.0738 51.5265 56.6542 50.2125 56.3406 49.1243C56.0271 48.0362 55.8058 47.1325 55.6675 46.5146C55.6029 46.2011 55.5522 45.9614 55.5245 45.7954C55.4947 45.7155 55.4776 45.6315 55.4738 45.5464Z" fill="#6F4C47"/>
<path d="M51.5454 65.7322C51.5454 65.7322 44.2512 87.2459 43.9607 88.2972C43.6703 89.3484 45.4039 97.0345 48.5715 98.8558C51.7391 100.677 57.8852 93.097 58.6506 90.3121C59.416 87.5272 58.6506 82.8242 58.6506 82.8242L63.5702 64.2937" fill="#936760"/>
<path d="M58.6506 62.3894C58.4178 62.4189 58.1814 62.3888 57.9636 62.3018C57.4252 62.1341 56.9307 61.8491 56.5158 61.4673C56.0956 61.0846 55.7677 60.6117 55.5568 60.084C55.4492 59.8749 55.3984 59.6412 55.4092 59.4062C55.7132 60.1043 56.143 60.7404 56.6772 61.2828C57.2601 61.7716 57.9295 62.1469 58.6506 62.3894Z" fill="#6F4C47"/>
<path d="M189.683 166.652C189.683 166.721 149.058 166.777 98.9531 166.777C48.8481 166.777 8.21368 166.721 8.21368 166.652C8.21368 166.583 48.8343 166.532 98.9531 166.532C149.072 166.532 189.683 166.587 189.683 166.652Z" fill="#263238"/>
<path d="M70.7815 12.432H19.0351C17.6881 12.432 16.596 13.524 16.596 14.8711V29.2197C16.596 30.5668 17.6881 31.6588 19.0351 31.6588H70.7815C72.1285 31.6588 73.2205 30.5668 73.2205 29.2197V14.8711C73.2205 13.524 72.1285 12.432 70.7815 12.432Z" fill="#ED7801"/>
<path d="M73.5848 31.6542H23.8211C23.1358 31.6469 22.481 31.3699 21.9985 30.8831C21.5161 30.3964 21.2449 29.7391 21.2437 29.0537V14.9633C21.2449 14.274 21.5193 13.6133 22.0067 13.1259C22.4941 12.6384 23.1548 12.3641 23.8441 12.3629H73.5848C74.2741 12.3641 74.9348 12.6384 75.4223 13.1259C75.9097 13.6133 76.1841 14.274 76.1853 14.9633V29.0537C76.1841 29.743 75.9097 30.4038 75.4223 30.8912C74.9348 31.3786 74.2741 31.653 73.5848 31.6542ZM23.8211 12.8239C23.2581 12.8312 22.7205 13.0597 22.3245 13.4599C21.9285 13.8602 21.7059 14.4003 21.7048 14.9633V29.0537C21.7048 29.6211 21.9302 30.1653 22.3314 30.5665C22.7326 30.9677 23.2767 31.1931 23.8441 31.1931H73.5848C74.1522 31.1931 74.6964 30.9677 75.0976 30.5665C75.4988 30.1653 75.7242 29.6211 75.7242 29.0537V14.9633C75.723 14.3963 75.4972 13.8528 75.0962 13.4519C74.6953 13.0509 74.1518 12.8251 73.5848 12.8239H23.8211Z" fill="#ED7801"/>
<path d="M27.007 21.7734C27.0315 21.3389 27.1832 20.9212 27.4433 20.5723C27.7034 20.2234 28.0604 19.9587 28.4699 19.8112C28.8793 19.6638 29.3231 19.6401 29.7459 19.743C30.1687 19.8459 30.552 20.071 30.8478 20.3902L30.2484 20.9434C30.1256 20.7956 29.9711 20.6773 29.7962 20.5975C29.6214 20.5176 29.4308 20.4783 29.2386 20.4824C28.8975 20.4824 28.5703 20.6179 28.329 20.8591C28.0878 21.1004 27.9523 21.4276 27.9523 21.7688C27.9523 22.1099 28.0878 22.4371 28.329 22.6784C28.5703 22.9196 28.8975 23.0552 29.2386 23.0552C29.4308 23.0589 29.6212 23.0194 29.796 22.9396C29.9708 22.8598 30.1254 22.7417 30.2484 22.5941L30.8478 23.1566C30.5529 23.4779 30.1696 23.7049 29.7461 23.8091C29.3226 23.9133 28.8777 23.8901 28.4674 23.7423C28.0571 23.5945 27.6995 23.3288 27.4397 22.9785C27.1799 22.6282 27.0294 22.2089 27.007 21.7734Z" fill="white"/>
<path d="M31.4703 19.7584H32.3924V23.0274H34.4119V23.7836H31.4611L31.4703 19.7584Z" fill="white"/>
<path d="M34.9422 19.7584H35.8644V23.7836H34.9422V19.7584Z" fill="white"/>
<path d="M36.5744 21.7734C36.5976 21.3388 36.7485 20.9208 37.008 20.5715C37.2676 20.2221 37.6243 19.9571 38.0337 19.8095C38.4431 19.6619 38.8869 19.6382 39.3097 19.7415C39.7324 19.8448 40.1154 20.0704 40.4106 20.3902L39.8158 20.9435C39.6921 20.7955 39.5367 20.6772 39.3611 20.5974C39.1855 20.5176 38.9942 20.4783 38.8014 20.4824C38.6325 20.4824 38.4652 20.5157 38.3091 20.5803C38.1531 20.645 38.0113 20.7397 37.8918 20.8592C37.7723 20.9786 37.6776 21.1204 37.6129 21.2765C37.5483 21.4326 37.515 21.5999 37.515 21.7688C37.515 21.9377 37.5483 22.105 37.6129 22.2611C37.6776 22.4172 37.7723 22.559 37.8918 22.6784C38.0113 22.7979 38.1531 22.8926 38.3091 22.9573C38.4652 23.0219 38.6325 23.0552 38.8014 23.0552C38.9942 23.059 39.1854 23.0195 39.3609 22.9397C39.5364 22.8599 39.6919 22.7418 39.8158 22.5941L40.4106 23.1566C40.1163 23.4786 39.7333 23.7062 39.3099 23.8107C38.8865 23.9153 38.4415 23.8922 38.0313 23.7442C37.621 23.5963 37.2637 23.3302 37.0044 22.9794C36.7451 22.6287 36.5955 22.2091 36.5744 21.7734Z" fill="white"/>
<path d="M42.5038 22.2021L41.9597 22.7646V23.7836H41.0375V19.7584H41.9597V21.6396L43.744 19.7584H44.7584L43.0939 21.552L44.8598 23.7836H43.7901L42.5038 22.2021Z" fill="white"/>
<path d="M50.6048 19.7584V23.7836H49.6827V22.133H47.8384V23.7836H46.9162V19.7584H47.8384V21.3491H49.6827V19.7584H50.6048Z" fill="white"/>
<path d="M54.6716 23.0367V23.7836H51.5547V19.7584H54.5978V20.51H52.4815V21.3814H54.3488V22.1053H52.4815V23.0274L54.6716 23.0367Z" fill="white"/>
<path d="M57.9729 23.7836L57.2075 22.6632H56.3499V23.7836H55.4278V19.7584H57.1706C58.2449 19.7584 58.9181 20.3163 58.9181 21.22C58.9293 21.4921 58.8553 21.7609 58.7066 21.989C58.5578 22.2171 58.3416 22.3931 58.0882 22.4926L59.0103 23.7836H57.9729ZM57.1015 20.5192H56.3407V21.9024H57.1015C57.6686 21.9024 57.9544 21.6396 57.9544 21.2016C57.9544 20.7636 57.6686 20.5192 57.1015 20.5192Z" fill="white"/>
<path d="M62.7403 23.0367V23.7836H59.6235V19.7584H62.662V20.51H60.5502V21.3814H62.3945V22.1053H60.5502V23.0274L62.7403 23.0367Z" fill="white"/>
<path d="M74.0874 31.23C73.7042 30.8798 73.3776 30.4723 73.1192 30.022C72.7934 29.6174 72.5321 29.1648 72.3446 28.6803C72.7285 29.0311 73.0566 29.4384 73.3174 29.8883C73.6429 30.2924 73.9028 30.7452 74.0874 31.23Z" fill="#ED7801"/>
<path d="M75.9548 16.3696C75.3835 15.7893 74.8722 15.1528 74.4286 14.47C73.9214 13.834 73.4753 13.1517 73.0961 12.432C73.6674 13.0123 74.1787 13.6488 74.6223 14.3316C75.1314 14.9662 75.5777 15.6487 75.9548 16.3696Z" fill="#ED7801"/>
<path d="M75.7564 28.6895C75.6872 28.7402 74.9956 27.7673 74.2395 26.4671C73.8568 25.8308 73.5202 25.2499 73.2851 24.8257C73.1386 24.6051 73.018 24.3684 72.9254 24.1203C72.9946 24.0741 73.6862 25.0701 74.4424 26.3426C74.825 26.9789 75.1616 27.5599 75.4014 27.9841C75.5478 28.204 75.667 28.4409 75.7564 28.6895Z" fill="#ED7801"/>
<path d="M75.9685 24.6597C75.8993 24.7104 75.1616 23.6361 74.3455 22.2667C73.9352 21.5797 73.5709 20.9573 73.3127 20.5008C73.1578 20.2628 73.028 20.0094 72.9254 19.7447C72.9946 19.6985 73.7323 20.7729 74.553 22.1422C74.9634 22.8246 75.323 23.4517 75.5812 23.9035C75.7373 24.1408 75.8672 24.3944 75.9685 24.6597Z" fill="#ED7801"/>
<path d="M75.9639 20.6806C75.8947 20.7313 75.1524 19.6478 74.3317 18.2738C73.9167 17.5868 73.5525 16.9551 73.2943 16.4986C73.1364 16.2601 73.005 16.005 72.9024 15.7379C72.9715 15.6918 73.7139 16.7707 74.5346 18.1493C74.9495 18.8363 75.3138 19.4634 75.572 19.9244C75.7314 20.1605 75.8629 20.4142 75.9639 20.6806Z" fill="#ED7801"/>
<path d="M15.199 15.4105C14.2073 15.2766 13.2281 15.0622 12.2711 14.7697C11.2935 14.554 10.3345 14.2611 9.40326 13.8936C10.3949 14.0276 11.3741 14.2419 12.3311 14.5345C13.309 14.7492 14.268 15.0422 15.199 15.4105Z" fill="#263238"/>
<path d="M15.7568 11.9479C14.6743 10.8197 13.6509 9.63619 12.6907 8.40222C11.6677 7.22393 10.7074 5.9927 9.8136 4.71362C10.8949 5.84459 11.9182 7.02953 12.8797 8.26389C13.9001 9.44278 14.8603 10.6723 15.7568 11.9479Z" fill="#263238"/>
<path d="M20.031 10.2788C19.6984 9.50557 19.4854 8.68624 19.3993 7.84894C19.2326 7.02354 19.1984 6.17687 19.2979 5.3407C19.367 5.3407 19.4316 6.4565 19.6345 7.81667C19.8373 9.17683 20.1002 10.2465 20.031 10.2788Z" fill="#263238"/>
</svg>
