<svg width="181" height="197" viewBox="0 0 181 197" fill="none" xmlns="http://www.w3.org/2000/svg">
<path d="M56.6291 194.959C55.3739 188.83 53.5346 182.835 51.1363 177.057C48.4769 170.521 44.9662 163.595 41.0663 156.482L38.146 151.223C37.1802 149.497 36.2281 147.79 35.1891 146.188C33.1924 143.092 31.0239 140.111 28.6939 137.257C26.4923 134.511 24.3043 131.994 22.2354 129.65C20.1665 127.306 18.1936 125.169 16.3124 123.292C13.3443 120.307 10.1422 117.564 6.73671 115.09C5.54203 114.211 4.58996 113.565 3.93999 113.135L3.19847 112.645C3.11653 112.587 3.02916 112.536 2.93756 112.494C3.01305 112.562 3.09253 112.624 3.17558 112.682L3.89421 113.204C4.53046 113.662 5.46422 114.325 6.64058 115.218C9.98015 117.734 13.126 120.497 16.0515 123.484C17.9144 125.37 19.8689 127.522 21.9241 129.865C23.9793 132.209 26.1535 134.744 28.3323 137.482C30.6428 140.333 32.7958 143.308 34.7817 146.394C35.8116 148 36.7591 149.698 37.7203 151.429L40.6406 156.688C44.5588 163.796 48.0696 170.699 50.7427 177.208C53.1556 182.957 55.0222 188.92 56.3178 195.018" fill="#E0E0E0"/>
<path d="M35.0105 146.174C35.0847 145.856 35.1246 145.53 35.1296 145.204C35.1845 144.581 35.2303 143.675 35.2714 142.553C35.3584 140.31 35.3721 137.216 35.3721 133.802C35.3721 130.387 35.4317 127.297 35.5507 125.064C35.6056 123.947 35.6605 123.045 35.7063 122.418C35.7485 122.095 35.7577 121.768 35.7338 121.443C35.6353 121.755 35.5739 122.078 35.5507 122.404C35.4545 123.022 35.3538 123.924 35.2623 125.041C35.0655 127.279 34.9648 130.378 34.9648 133.797C34.9648 137.216 34.9648 140.205 34.9648 142.544C34.9648 143.597 34.9648 144.485 34.9648 145.199C34.9455 145.525 34.9609 145.852 35.0105 146.174Z" fill="#E0E0E0"/>
<path d="M5.95398 143.785C6.33771 143.819 6.72373 143.819 7.10745 143.785C7.8444 143.785 8.9109 143.753 10.2337 143.785C12.8703 143.785 16.5183 143.945 20.5326 144.279C24.5469 144.613 28.1721 145.089 30.7812 145.501C32.0903 145.698 33.143 145.886 33.8708 146.009C34.2451 146.097 34.6266 146.15 35.0106 146.169C34.6531 146.025 34.282 145.918 33.9029 145.849C33.1797 145.675 32.1315 145.446 30.8269 145.208C28.2225 144.723 24.5972 144.21 20.5647 143.862C17.1279 143.566 13.6782 143.445 10.2292 143.501C8.90632 143.524 7.83524 143.588 7.0983 143.647C6.71343 143.658 6.33034 143.703 5.95398 143.785Z" fill="#E0E0E0"/>
<path d="M50.6786 176.567C50.7495 176.453 50.8035 176.33 50.8388 176.201C50.9395 175.908 51.0676 175.551 51.2187 175.121C51.5437 174.178 51.9831 172.805 52.5003 171.102C53.5394 167.692 54.8256 162.94 56.1621 157.677C57.4987 152.413 58.7529 147.657 59.7187 144.233C60.1764 142.567 60.5838 141.198 60.8722 140.178C60.9958 139.72 61.0965 139.372 61.1788 139.075C61.2249 138.948 61.2527 138.815 61.2612 138.681C61.1903 138.794 61.1363 138.918 61.101 139.047C61.0003 139.34 60.8722 139.697 60.7211 140.127C60.3961 141.07 59.9567 142.443 59.4395 144.146C58.4004 147.556 57.1142 152.307 55.7777 157.571C54.4411 162.835 53.1869 167.591 52.2211 171.019C51.7634 172.681 51.356 174.054 51.0676 175.07C50.944 175.528 50.8433 175.876 50.7609 176.173C50.7149 176.3 50.6871 176.433 50.6786 176.567Z" fill="#E0E0E0"/>
<path d="M11.5566 168.269C11.6801 168.325 11.8111 168.364 11.9456 168.383L13.0854 168.639L17.2782 169.555C20.8164 170.31 25.6958 171.413 31.0833 172.64C36.4707 173.867 41.3638 174.929 44.9204 175.606C46.6964 175.949 48.1245 176.215 49.1361 176.375L50.2895 176.553C50.4227 176.586 50.5603 176.597 50.6969 176.585C50.5706 176.532 50.4385 176.494 50.3033 176.471L49.1681 176.215L44.9753 175.322C41.4371 174.562 36.5577 173.459 31.1702 172.232C25.7828 171.006 20.8897 169.944 17.3331 169.266C15.5571 168.923 14.129 168.662 13.1129 168.497L11.964 168.319C11.8313 168.283 11.6941 168.266 11.5566 168.269Z" fill="#E0E0E0"/>
<path d="M44.5313 83.9138C44.358 83.9141 44.1881 83.8653 44.0415 83.7729C43.8948 83.6805 43.7774 83.5484 43.7028 83.3919L41.7163 79.2724C41.6538 79.1443 41.6221 79.0033 41.6236 78.8608C41.6252 78.7182 41.6601 78.578 41.7254 78.4513C41.7908 78.3246 41.8848 78.2149 42.0001 78.131C42.1153 78.0471 42.2485 77.9912 42.3892 77.9679C42.7752 77.8935 43.1416 77.7401 43.4654 77.5171C43.7892 77.2942 44.0633 77.0066 44.2704 76.6725C44.4697 76.383 44.6075 76.0558 44.6752 75.7109C44.7429 75.3661 44.7391 75.011 44.6641 74.6676C44.567 74.3278 44.4028 74.011 44.1811 73.7358C43.9594 73.4606 43.6847 73.2327 43.3733 73.0656C43.0378 72.8679 42.6662 72.7389 42.2804 72.6863C41.8945 72.6336 41.502 72.6583 41.1258 72.7589C40.3937 73.0263 39.7737 73.5339 39.3672 74.1989C38.9607 74.864 38.7916 75.6472 38.8875 76.4207C38.9044 76.541 38.8974 76.6633 38.8669 76.7808C38.8364 76.8983 38.7831 77.0087 38.71 77.1056C38.6369 77.2025 38.5454 77.2841 38.4408 77.3456C38.3362 77.4072 38.2205 77.4475 38.1002 77.4644C37.98 77.4812 37.8577 77.4742 37.7402 77.4437C37.6226 77.4133 37.5123 77.36 37.4154 77.2869C37.3185 77.2138 37.2369 77.1223 37.1754 77.0176C37.1138 76.913 37.0735 76.7973 37.0566 76.6771C36.9039 75.4654 37.1738 74.2382 37.8209 73.2025C38.468 72.1668 39.4527 71.3861 40.6086 70.9921C41.2228 70.8173 41.8659 70.7677 42.4997 70.8463C43.1335 70.9249 43.745 71.1302 44.2979 71.4498C44.8237 71.7393 45.286 72.1317 45.6572 72.6035C46.0283 73.0753 46.3008 73.6169 46.4584 74.1962C46.5937 74.7844 46.6071 75.3941 46.4977 75.9877C46.3883 76.5813 46.1584 77.1462 45.8221 77.6475C45.3335 78.4163 44.6367 79.0305 43.8127 79.4189L45.3415 82.623C45.3943 82.7317 45.4251 82.8498 45.432 82.9704C45.4389 83.0911 45.4219 83.2119 45.3819 83.3259C45.3419 83.44 45.2797 83.545 45.1989 83.6349C45.1182 83.7248 45.0204 83.7978 44.9112 83.8497C44.7908 83.8986 44.6611 83.9205 44.5313 83.9138Z" fill="#E0E0E0"/>
<path d="M46.5087 85.1038C46.5834 85.2796 46.5888 85.4772 46.5236 85.6568C46.4585 85.8363 46.3278 85.9846 46.1578 86.0716C45.9878 86.1586 45.7911 86.178 45.6073 86.1259C45.4236 86.0737 45.2665 85.9538 45.1675 85.7904C45.1138 85.7017 45.079 85.6029 45.0651 85.5001C45.0513 85.3973 45.0588 85.2928 45.0871 85.193C45.1154 85.0933 45.164 85.0004 45.2298 84.9203C45.2956 84.8401 45.3771 84.7743 45.4695 84.727C45.5618 84.6798 45.6628 84.652 45.7663 84.6456C45.8698 84.6391 45.9736 84.654 46.0711 84.6893C46.1686 84.7247 46.2577 84.7797 46.333 84.851C46.4083 84.9223 46.4681 85.0084 46.5087 85.1038Z" fill="#E0E0E0"/>
<path d="M19.3746 70.0721C19.2529 70.0725 19.1336 70.0383 19.0307 69.9735C18.9277 69.9086 18.8454 69.8158 18.7932 69.7059L17.4201 66.8222C17.3761 66.7333 17.3532 66.6354 17.3532 66.5361C17.3532 66.4369 17.3761 66.339 17.4201 66.2501C17.4645 66.1617 17.5291 66.085 17.6086 66.0262C17.6881 65.9674 17.7803 65.928 17.8778 65.9113C18.1472 65.8569 18.4025 65.7475 18.6277 65.59C18.8529 65.4325 19.0433 65.2302 19.1869 64.9959C19.3241 64.7927 19.4191 64.564 19.4663 64.3234C19.5135 64.0828 19.5119 63.8352 19.4615 63.5952C19.3926 63.3567 19.2759 63.1347 19.1186 62.9427C18.9612 62.7507 18.7664 62.5928 18.5461 62.4784C18.3118 62.3399 18.0523 62.2496 17.7827 62.2127C17.5132 62.1757 17.2389 62.1929 16.9761 62.2633C16.4655 62.4551 16.0349 62.8144 15.7548 63.2824C15.4746 63.7504 15.3614 64.2996 15.4335 64.8403C15.4572 65.009 15.4129 65.1802 15.3103 65.3163C15.2077 65.4523 15.0553 65.5421 14.8865 65.5658C14.7178 65.5894 14.5466 65.5451 14.4105 65.4425C14.2744 65.3399 14.1847 65.1875 14.161 65.0188C14.0545 64.1734 14.242 63.3172 14.6921 62.5938C15.1422 61.8703 15.8274 61.3237 16.6328 61.0457C17.062 60.9261 17.511 60.894 17.9529 60.9514C18.3949 61.0088 18.8207 61.1545 19.2052 61.3798C19.5747 61.5822 19.8994 61.8572 20.1598 62.1884C20.4202 62.5196 20.6108 62.9001 20.7203 63.3069C20.8125 63.7182 20.8195 64.144 20.7407 64.5581C20.662 64.9722 20.4993 65.3658 20.2625 65.7145C19.9255 66.2378 19.4502 66.6576 18.8894 66.9275L19.9559 69.1521C19.9931 69.2277 20.015 69.31 20.0202 69.3941C20.0254 69.4783 20.0139 69.5626 19.9862 69.6423C19.9585 69.7219 19.9153 69.7953 19.859 69.8581C19.8027 69.9208 19.7345 69.9718 19.6583 70.008C19.5694 70.0494 19.4726 70.0713 19.3746 70.0721Z" fill="#F5F5F5"/>
<path d="M20.7569 70.9005C20.7924 71.0177 20.7859 71.1435 20.7387 71.2565C20.6914 71.3694 20.6062 71.4623 20.4978 71.5192C20.3894 71.5761 20.2646 71.5934 20.1448 71.5682C20.025 71.543 19.9178 71.4769 19.8415 71.3811C19.7932 71.3205 19.7588 71.25 19.7409 71.1745C19.7231 71.0991 19.7221 71.0206 19.738 70.9448C19.754 70.8689 19.7865 70.7975 19.8332 70.7357C19.88 70.6738 19.9398 70.6231 20.0085 70.587C20.0771 70.551 20.1528 70.5306 20.2303 70.5272C20.3077 70.5238 20.385 70.5376 20.4565 70.5676C20.528 70.5975 20.592 70.6429 20.6439 70.7005C20.6959 70.758 20.7345 70.8263 20.7569 70.9005Z" fill="#F5F5F5"/>
<path d="M133.587 71.6376C133.639 71.7473 133.659 71.8698 133.645 71.9905C133.63 72.1113 133.582 72.2254 133.505 72.3196L131.49 74.805C131.427 74.8817 131.347 74.943 131.257 74.9842C131.167 75.0255 131.068 75.0456 130.969 75.0431C130.87 75.0404 130.772 75.0146 130.685 74.9677C130.597 74.9208 130.522 74.8542 130.465 74.773C130.304 74.5517 130.099 74.3663 129.863 74.2284C129.626 74.0905 129.364 74.0032 129.092 73.972C128.851 73.9335 128.606 73.9445 128.37 74.0043C128.133 74.0641 127.912 74.1715 127.719 74.3198C127.532 74.4822 127.38 74.6807 127.273 74.9033C127.165 75.126 127.103 75.3681 127.092 75.6152C127.065 75.8847 127.092 76.1569 127.17 76.416C127.249 76.6752 127.378 76.9164 127.549 77.1257C127.938 77.507 128.444 77.746 128.986 77.8041C129.528 77.8623 130.073 77.7361 130.534 77.4461C130.602 77.3861 130.683 77.3415 130.77 77.3151C130.858 77.2888 130.95 77.2814 131.04 77.2934C131.13 77.3054 131.217 77.3366 131.295 77.3849C131.372 77.4331 131.438 77.4973 131.489 77.5732C131.539 77.649 131.573 77.7348 131.588 77.8248C131.603 77.9148 131.598 78.0069 131.574 78.0949C131.551 78.183 131.509 78.265 131.451 78.3354C131.393 78.4059 131.321 78.4632 131.239 78.5035C130.521 78.962 129.668 79.1595 128.822 79.0628C127.975 78.9661 127.188 78.5811 126.593 77.9725C126.301 77.6347 126.08 77.2421 125.943 76.8176C125.805 76.3931 125.754 75.9454 125.792 75.5008C125.818 75.0813 125.928 74.6715 126.116 74.2956C126.304 73.9197 126.566 73.5855 126.886 73.3128C127.217 73.0515 127.598 72.861 128.006 72.7532C128.414 72.6453 128.84 72.6224 129.257 72.6858C129.876 72.7652 130.459 73.0175 130.941 73.4135L132.493 71.4957C132.546 71.4281 132.612 71.3719 132.687 71.3303C132.762 71.2887 132.845 71.2627 132.93 71.2537C133.016 71.2448 133.102 71.2531 133.184 71.2781C133.266 71.3032 133.343 71.3444 133.408 71.3995C133.485 71.4647 133.546 71.546 133.587 71.6376Z" fill="#F5F5F5"/>
<path d="M133.747 70.0263C133.81 69.9436 133.897 69.8816 133.996 69.8481C134.094 69.8146 134.201 69.8112 134.301 69.8382C134.402 69.8652 134.492 69.9214 134.561 69.9998C134.63 70.0782 134.673 70.1752 134.687 70.2785C134.7 70.3818 134.683 70.4868 134.637 70.5802C134.59 70.6735 134.517 70.7511 134.427 70.803C134.337 70.8549 134.233 70.8788 134.129 70.8718C134.025 70.8647 133.926 70.8269 133.843 70.7633C133.788 70.7215 133.742 70.6692 133.707 70.6094C133.672 70.5496 133.65 70.4835 133.641 70.4149C133.632 70.3463 133.637 70.2767 133.655 70.21C133.673 70.1433 133.705 70.0808 133.747 70.0263Z" fill="#F5F5F5"/>
<path d="M126.877 11.9177C126.928 12.0277 126.947 12.1499 126.933 12.2704C126.918 12.391 126.87 12.505 126.794 12.5997L124.78 15.0851C124.718 15.1621 124.638 15.2236 124.548 15.2647C124.457 15.3059 124.359 15.3257 124.26 15.3227C124.16 15.3196 124.063 15.2936 123.976 15.2469C123.888 15.2001 123.813 15.1338 123.755 15.0531C123.593 14.8326 123.388 14.6478 123.152 14.51C122.915 14.3722 122.653 14.2844 122.382 14.2521C122.141 14.215 121.895 14.2271 121.659 14.2877C121.423 14.3483 121.202 14.4561 121.009 14.6045C120.822 14.7664 120.671 14.9641 120.563 15.1859C120.455 15.4077 120.394 15.649 120.381 15.8953C120.354 16.1648 120.381 16.437 120.46 16.6963C120.538 16.9555 120.667 17.1966 120.839 17.4058C121.226 17.7889 121.732 18.0293 122.273 18.0875C122.814 18.1457 123.359 18.0183 123.819 17.7262C123.961 17.6438 124.13 17.619 124.29 17.6568C124.451 17.6946 124.59 17.7922 124.681 17.9296C124.771 18.067 124.806 18.2338 124.778 18.396C124.75 18.5581 124.66 18.7034 124.528 18.8019C123.811 19.2607 122.957 19.4579 122.11 19.3604C121.264 19.2628 120.477 18.8764 119.883 18.2664C119.589 17.9299 119.367 17.5373 119.229 17.1125C119.091 16.6877 119.041 16.2394 119.081 15.7946C119.108 15.3753 119.219 14.9656 119.407 14.5897C119.595 14.2139 119.856 13.8796 120.175 13.6067C120.506 13.3464 120.887 13.1566 121.294 13.0488C121.701 12.9409 122.126 12.9174 122.542 12.9796C123.16 13.063 123.742 13.3148 124.226 13.7074L125.778 11.7895C125.831 11.7225 125.898 11.6667 125.973 11.6255C126.048 11.5843 126.13 11.5585 126.216 11.5495C126.301 11.5406 126.387 11.5487 126.469 11.5734C126.551 11.5981 126.627 11.6389 126.694 11.6934C126.77 11.7544 126.832 11.8308 126.877 11.9177Z" fill="#F5F5F5"/>
<path d="M127.037 10.302C127.1 10.2193 127.187 10.1573 127.285 10.1238C127.384 10.0903 127.49 10.0868 127.591 10.1138C127.692 10.1408 127.782 10.1971 127.851 10.2755C127.919 10.3538 127.963 10.4508 127.977 10.5541C127.99 10.6574 127.973 10.7624 127.926 10.8558C127.88 10.9492 127.807 11.0267 127.717 11.0786C127.627 11.1305 127.523 11.1545 127.419 11.1474C127.315 11.1403 127.215 11.1026 127.133 11.0389C127.023 10.9538 126.951 10.8284 126.933 10.6903C126.915 10.5522 126.952 10.4125 127.037 10.302Z" fill="#F5F5F5"/>
<path d="M76.0596 21.0998C76.2155 21.0987 76.3687 21.1409 76.5021 21.2217C76.6354 21.3025 76.7437 21.4188 76.8149 21.5575L78.6 25.32C78.6577 25.4359 78.6877 25.5636 78.6877 25.6931C78.6877 25.8225 78.6577 25.9502 78.6 26.0661C78.5434 26.1844 78.4596 26.2876 78.3553 26.3672C78.2511 26.4467 78.1294 26.5004 78.0004 26.5238C77.6561 26.5903 77.3288 26.726 77.0385 26.9227C76.7482 27.1194 76.5008 27.373 76.3114 27.6682C76.1287 27.9322 76.0023 28.231 75.94 28.546C75.8778 28.861 75.8811 29.1854 75.9498 29.4991C76.0375 29.8079 76.1865 30.0959 76.3878 30.3459C76.5891 30.596 76.8386 30.803 77.1216 30.9546C77.4264 31.134 77.7637 31.2514 78.114 31.3001C78.4643 31.3488 78.8208 31.3278 79.163 31.2384C79.8277 30.9947 80.3903 30.5331 80.7594 29.9289C81.1284 29.3247 81.282 28.6134 81.1953 27.9107C81.1803 27.8023 81.1868 27.6919 81.2144 27.5859C81.2421 27.4799 81.2903 27.3804 81.3564 27.293C81.4225 27.2057 81.5051 27.1322 81.5996 27.0768C81.6941 27.0214 81.7986 26.9851 81.9071 26.9701C82.0156 26.9551 82.126 26.9616 82.232 26.9892C82.338 27.0169 82.4375 27.0651 82.5248 27.1312C82.6122 27.1973 82.6856 27.2799 82.7411 27.3744C82.7965 27.4689 82.8327 27.5734 82.8477 27.6819C82.9872 28.7789 82.7449 29.8905 82.1614 30.8299C81.5779 31.7693 80.6888 32.4793 79.6436 32.8405C79.0854 32.9969 78.5012 33.0391 77.9263 32.9643C77.3513 32.8896 76.7974 32.6996 76.2976 32.4056C75.8191 32.1414 75.3986 31.7836 75.0613 31.3534C74.7239 30.9233 74.4766 30.4296 74.334 29.9019C74.2111 29.37 74.1985 28.8187 74.2969 28.2818C74.3953 27.7449 74.6026 27.2338 74.9061 26.7802C75.3459 26.1001 75.9653 25.5551 76.6959 25.2056L75.3227 22.3173C75.2745 22.2188 75.2464 22.1118 75.24 22.0024C75.2335 21.893 75.2488 21.7834 75.285 21.6799C75.3212 21.5765 75.3775 21.4812 75.4508 21.3997C75.524 21.3182 75.6127 21.252 75.7117 21.205C75.8181 21.1437 75.9371 21.1077 76.0596 21.0998Z" fill="#E0E0E0"/>
<path d="M74.2653 20.0195C74.1862 19.8582 74.173 19.6723 74.2285 19.5015C74.2841 19.3306 74.404 19.188 74.5628 19.104C74.7238 19.0225 74.9104 19.008 75.082 19.0637C75.2536 19.1195 75.3961 19.241 75.4783 19.4016C75.5192 19.4815 75.5439 19.5687 75.5511 19.6582C75.5582 19.7477 75.5477 19.8378 75.5201 19.9232C75.4925 20.0086 75.4483 20.0878 75.3901 20.1561C75.3318 20.2245 75.2607 20.2807 75.1808 20.3216C75.1008 20.3625 75.0136 20.3872 74.9241 20.3944C74.8346 20.4015 74.7446 20.391 74.6591 20.3634C74.5737 20.3357 74.4946 20.2916 74.4262 20.2333C74.3578 20.1751 74.3016 20.104 74.2607 20.0241L74.2653 20.0195Z" fill="#E0E0E0"/>
<path d="M138.155 95.1601C138.311 95.159 138.464 95.2012 138.597 95.282C138.731 95.3629 138.839 95.4791 138.91 95.6178L140.709 99.3666C140.767 99.4825 140.797 99.6102 140.797 99.7397C140.797 99.8691 140.767 99.9968 140.709 100.113C140.653 100.231 140.569 100.334 140.464 100.414C140.36 100.493 140.239 100.547 140.11 100.57C139.762 100.637 139.432 100.775 139.14 100.975C138.847 101.175 138.6 101.433 138.411 101.733C138.229 101.997 138.102 102.296 138.04 102.611C137.978 102.926 137.981 103.25 138.05 103.564C138.137 103.873 138.286 104.161 138.488 104.411C138.689 104.661 138.939 104.868 139.222 105.02C139.526 105.199 139.864 105.316 140.214 105.365C140.564 105.414 140.921 105.393 141.263 105.303C141.928 105.06 142.49 104.598 142.859 103.994C143.228 103.39 143.382 102.678 143.295 101.976C143.265 101.757 143.323 101.534 143.456 101.358C143.59 101.182 143.788 101.065 144.007 101.035C144.226 101.005 144.448 101.063 144.625 101.196C144.801 101.33 144.917 101.528 144.948 101.747C145.087 102.844 144.845 103.955 144.261 104.895C143.678 105.834 142.789 106.544 141.744 106.905C141.185 107.062 140.601 107.104 140.026 107.029C139.451 106.955 138.897 106.765 138.398 106.471C137.919 106.206 137.499 105.848 137.161 105.418C136.824 104.988 136.577 104.495 136.434 103.967C136.311 103.433 136.299 102.88 136.399 102.341C136.499 101.802 136.709 101.29 137.015 100.836C137.455 100.156 138.074 99.6109 138.805 99.2614L137.432 96.3731C137.384 96.2746 137.356 96.1676 137.349 96.0582C137.343 95.9488 137.358 95.8392 137.394 95.7357C137.43 95.6323 137.487 95.537 137.56 95.4555C137.633 95.374 137.722 95.3078 137.821 95.2608C137.923 95.2031 138.038 95.1687 138.155 95.1601Z" fill="#E0E0E0"/>
<path d="M136.361 94.0662C136.282 93.9049 136.268 93.7191 136.324 93.5482C136.379 93.3773 136.499 93.2348 136.658 93.1508C136.819 93.0692 137.006 93.0547 137.177 93.1105C137.349 93.1662 137.491 93.2877 137.574 93.4483C137.656 93.6098 137.671 93.7974 137.615 93.9699C137.56 94.1425 137.438 94.2858 137.276 94.3683C137.115 94.4509 136.927 94.4659 136.755 94.4101C136.582 94.3543 136.439 94.2323 136.356 94.0708L136.361 94.0662Z" fill="#E0E0E0"/>
<path d="M150.651 119.388C150.651 119.388 147.131 116.683 142 125.196C136.869 133.71 134.795 138.681 134.795 138.681C134.795 138.681 133.472 140.448 132.287 139.139C131.101 137.83 129.609 134.282 127.403 134.744C125.114 135.225 124.199 137.674 124.364 141.382C124.528 145.089 124.593 153.218 124.597 153.955C124.602 154.692 124.112 155.704 123.164 154.949C122.217 154.193 116.926 147.396 113.845 150.097C110.765 152.797 112.93 163.046 113.136 164.172C113.342 165.298 113.099 165.756 112.554 166.003C112.01 166.25 110.453 163.783 108.87 161.911C107.286 160.039 105.121 158.144 103.478 159.851C101.834 161.558 100.809 169.056 107.107 181.822L110.412 187.539L117.045 187.644C131.234 187.003 137.331 182.486 138.031 180.22C138.732 177.954 136.027 176.974 133.624 176.494C131.22 176.013 128.314 175.83 128.259 175.24C128.204 174.649 128.479 174.21 129.568 173.867C130.657 173.523 140.673 170.452 141.556 166.451C142.439 162.451 133.921 161.11 132.8 160.643C131.678 160.176 132.342 159.27 132.978 158.908C133.614 158.546 140.76 154.683 144.106 153.04C147.451 151.397 149.141 149.41 148.449 147.176C147.79 145.02 143.954 145.428 142.243 145.016C140.531 144.604 141.446 142.585 141.446 142.585C141.446 142.585 144.801 138.37 149.777 129.769C154.752 121.168 150.573 119.365 150.573 119.365" fill="#EBEBEB"/>
<path d="M146.042 127.023L145.946 127.21C145.872 127.334 145.776 127.512 145.648 127.741L144.485 129.769C143.474 131.54 141.995 134.099 140.155 137.248C136.493 143.556 131.317 152.221 125.59 161.773C119.864 171.326 114.687 179.986 110.975 186.271L106.586 193.718C106.073 194.592 105.67 195.274 105.391 195.741L105.08 196.268L104.965 196.442C104.994 196.379 105.026 196.318 105.061 196.259L105.359 195.723L106.517 193.677C107.528 191.906 109.007 189.351 110.852 186.198C114.513 179.895 119.686 171.225 125.416 161.668C131.147 152.111 136.315 143.46 140.027 137.175L144.417 129.728C144.934 128.853 145.332 128.171 145.611 127.705C145.749 127.48 145.849 127.306 145.927 127.178L146.042 127.023Z" fill="#E0E0E0"/>
<path d="M129.293 139.812C129.357 139.958 129.403 140.112 129.431 140.269C129.504 140.571 129.6 141.002 129.71 141.542C129.934 142.613 130.204 144.105 130.474 145.757C130.744 147.41 130.969 148.861 131.147 149.991C131.23 150.495 131.303 150.907 131.358 151.268C131.393 151.419 131.413 151.572 131.417 151.726C131.357 151.578 131.311 151.425 131.28 151.268C131.207 150.971 131.111 150.536 131.005 149.996C130.79 148.92 130.548 147.424 130.273 145.771C129.998 144.119 129.756 142.672 129.568 141.551C129.481 141.043 129.412 140.635 129.353 140.269C129.317 140.119 129.297 139.966 129.293 139.812Z" fill="#E0E0E0"/>
<path d="M132.017 151.905C132.017 151.85 135.056 151.154 138.828 150.358C142.6 149.561 145.694 148.952 145.694 148.984C145.694 149.016 142.654 149.735 138.878 150.531C135.102 151.328 132.026 151.96 132.017 151.905Z" fill="#E0E0E0"/>
<path d="M122.542 166.181C122.703 166.164 122.866 166.164 123.027 166.181L124.35 166.282C125.467 166.364 127.009 166.47 128.712 166.525C130.415 166.579 131.962 166.584 133.083 166.575H134.406C134.569 166.553 134.733 166.553 134.896 166.575C134.737 166.61 134.574 166.63 134.411 166.634C134.1 166.657 133.646 166.685 133.083 166.708C131.967 166.753 130.415 166.776 128.708 166.708C127 166.639 125.453 166.525 124.336 166.406C123.778 166.341 123.329 166.287 123.018 166.241C122.858 166.238 122.698 166.218 122.542 166.181Z" fill="#E0E0E0"/>
<path d="M117.69 155.786C117.784 155.904 117.862 156.033 117.923 156.171C118.074 156.468 118.267 156.83 118.486 157.26C118.944 158.176 119.585 159.466 120.276 160.885C120.967 162.304 121.576 163.6 122.006 164.547C122.208 165.005 122.377 165.362 122.51 165.664C122.582 165.797 122.636 165.938 122.67 166.085C122.582 165.964 122.506 165.836 122.441 165.701L121.878 164.611C121.42 163.696 120.775 162.405 120.089 160.986C119.402 159.567 118.789 158.272 118.354 157.324L117.85 156.207C117.783 156.073 117.729 155.932 117.69 155.786Z" fill="#E0E0E0"/>
<path d="M107.744 167.326C107.854 167.483 107.951 167.65 108.032 167.824L108.76 169.198C109.369 170.379 110.188 172.017 111.09 173.83C111.991 175.642 112.792 177.286 113.378 178.485L114.047 179.904C114.133 180.077 114.207 180.256 114.266 180.439C114.153 180.283 114.055 180.116 113.973 179.941L113.245 178.567C112.641 177.386 111.817 175.752 110.92 173.94C110.023 172.127 109.217 170.479 108.632 169.285L107.963 167.861C107.871 167.691 107.798 167.511 107.744 167.326Z" fill="#E0E0E0"/>
<path d="M114.184 180.119C114.389 180.101 114.596 180.101 114.802 180.119L116.482 180.183C117.901 180.238 119.86 180.302 122.025 180.316C124.19 180.33 126.144 180.293 127.572 180.252L129.252 180.211C129.458 180.192 129.665 180.192 129.87 180.211C129.668 180.25 129.463 180.273 129.257 180.279C128.863 180.316 128.286 180.353 127.577 180.389C126.158 180.462 124.194 180.526 122.025 180.508C119.855 180.49 117.905 180.407 116.477 180.32C115.767 180.27 115.191 180.229 114.797 180.188C114.591 180.182 114.386 180.159 114.184 180.119Z" fill="#E0E0E0"/>
<path d="M172.274 194.931C172.274 195 135.161 195.05 89.3932 195.05C43.625 195.05 6.50323 195 6.50323 194.931C6.50323 194.863 43.6067 194.812 89.3932 194.812C135.18 194.812 172.274 194.867 172.274 194.931Z" fill="#263238"/>
<path d="M132.099 166.639L125.128 133.39C125.128 133.39 121.041 117.369 106.97 111.84L106 111.542L104.626 111.126C104.059 110.906 101.752 110.174 101.143 109.982C82.1749 103.409 77.1399 105.12 57.3752 111.863C57.3752 111.863 48.5914 114.229 44.3345 125.682C40.0776 137.134 31.9346 155.054 31.9346 155.054L51.6536 162.021L55.4344 156.404V194.821H109.675L108.178 177.135L107.918 155.352" fill="#ED7801"/>
<path d="M76.888 113.904C76.7538 114.063 76.6 114.205 76.4303 114.325C76.2491 114.489 76.058 114.642 75.8582 114.783C75.6037 114.978 75.3394 115.16 75.0663 115.328C74.3608 115.775 73.618 116.161 72.8463 116.481C71.8975 116.866 70.9154 117.164 69.9123 117.369C68.9052 117.555 67.8834 117.65 66.8592 117.653C66.0241 117.646 65.1911 117.568 64.3692 117.42C64.0122 117.369 63.7055 117.278 63.4308 117.214C63.1929 117.163 62.9589 117.096 62.7305 117.012C62.5304 116.962 62.3369 116.888 62.1538 116.793C62.1538 116.747 63.0006 117.04 64.3966 117.25C65.2119 117.371 66.0351 117.43 66.8592 117.429C67.8685 117.415 68.8746 117.314 69.8665 117.127C70.8547 116.926 71.8241 116.641 72.7639 116.275C73.5284 115.966 74.2689 115.6 74.9793 115.181C76.1969 114.449 76.8606 113.868 76.888 113.904Z" fill="#FAFAFA"/>
<g opacity="0.3">
<path d="M55.4526 171.024L59.8972 176.16H64.2685V181.749L109.469 192.203L109.103 187.85L66.5754 173.249H59.4486L56.0156 170.502L55.4526 171.024Z" fill="black"/>
</g>
<path d="M68.7634 166.452L64.9917 165.756C64.9917 165.756 56.0568 155.979 54.3815 155.86C53.0084 155.745 45.3963 155.818 42.7507 155.86C42.5079 155.86 42.275 155.956 42.1033 156.128C41.9317 156.299 41.8352 156.532 41.8352 156.775C41.8351 157.013 41.9278 157.242 42.0936 157.413C42.2593 157.584 42.4852 157.683 42.7232 157.691L51.7038 158.038L51.745 158.762L42.7507 158.881C41.8352 158.949 41.2493 160.4 44.1834 160.661L51.7038 160.931V161.389L44.0781 162.456C43.689 162.51 42.6774 162.707 42.6683 163.096C42.6683 163.096 42.2105 164.053 44.3802 164.323C45.1263 164.415 51.745 164.195 51.745 164.195L51.4933 164.79L44.6273 166.268C44.3865 166.32 44.1742 166.462 44.0332 166.664C43.8923 166.866 43.8331 167.114 43.8675 167.358C43.9018 167.606 44.0303 167.831 44.2263 167.987C44.4223 168.143 44.6708 168.218 44.9203 168.195L52.2439 167.513L59.4486 173.253H69.0609L68.7634 166.452Z" fill="#FFBE9D"/>
<path d="M132.099 166.639L110.16 170.956L107.936 155.352" fill="#ED7801"/>
<path d="M107.24 167.234L66.5754 165.93V179.982L93.554 185.342L112.504 188.358C124.277 188.358 133.692 177.551 131.87 165.93H131.82L107.24 167.234Z" fill="#ED7801"/>
<path d="M118.422 166.978C118.248 167.003 118.072 167.015 117.896 167.014L116.385 167.056L110.824 167.156C106.132 167.225 99.6463 167.303 92.4783 167.234C85.3103 167.166 78.8243 166.905 74.1371 166.589C71.7936 166.433 69.8986 166.282 68.594 166.131L67.0881 165.975C66.9126 165.964 66.7381 165.94 66.5663 165.902C66.743 165.888 66.9206 165.888 67.0973 165.902L68.6032 165.998C69.9123 166.09 71.8073 166.209 74.1509 166.337C78.838 166.593 85.3194 166.818 92.4829 166.891C99.6463 166.964 106.128 166.891 110.824 166.891H116.385H117.896C118.074 166.902 118.25 166.931 118.422 166.978Z" fill="#263238"/>
<path d="M66.58 166.049C66.5861 166.131 66.5861 166.214 66.58 166.296C66.58 166.473 66.58 166.715 66.58 167.024C66.58 167.678 66.58 168.612 66.6075 169.797C66.6075 172.201 66.635 175.615 66.6578 179.73L66.5755 179.629C71.1527 180.614 76.6729 181.836 82.5959 183.076C90.716 184.797 98.1129 186.152 103.487 186.985C106.178 187.397 108.357 187.699 109.867 187.901L111.602 188.129L112.06 188.194C112.112 188.197 112.163 188.207 112.211 188.226H112.055L111.598 188.184L109.854 188.001C108.343 187.827 106.155 187.544 103.445 187.159C98.058 186.372 90.652 185.04 82.5273 183.319C76.5997 182.078 71.0841 180.842 66.5068 179.835H66.429V179.758C66.429 175.638 66.4565 172.228 66.4656 169.825C66.4656 168.639 66.4656 167.706 66.4931 167.051C66.4931 166.746 66.4931 166.503 66.4931 166.323C66.5074 166.228 66.5367 166.135 66.58 166.049Z" fill="#263238"/>
<path d="M63.1059 127.609C63.0937 127.379 63.1029 127.15 63.1334 126.922C63.1654 126.464 63.2066 125.846 63.2249 125.059C63.2787 123.01 63.1361 120.961 62.7992 118.939C62.3827 116.587 61.8563 114.44 61.037 113.103C60.7269 112.57 60.3147 112.104 59.824 111.73C59.467 111.478 59.2381 111.382 59.2472 111.364C59.2564 111.346 59.3113 111.364 59.4212 111.419C59.5809 111.482 59.7341 111.56 59.8789 111.652C60.4064 112.012 60.8512 112.48 61.1834 113.025C61.6688 113.824 62.0386 114.687 62.282 115.589C63.1745 118.668 63.5518 121.875 63.3988 125.077C63.3576 125.865 63.289 126.506 63.2341 126.94C63.2131 127.167 63.1702 127.391 63.1059 127.609Z" fill="#263238"/>
<path d="M107.821 115.255C107.89 115.255 107.94 124.597 107.94 136.122C107.94 147.648 107.89 156.99 107.821 156.99C107.753 156.99 107.702 147.648 107.702 136.122C107.702 124.597 107.757 115.255 107.821 115.255Z" fill="#263238"/>
<path d="M121.855 162.19C121.855 162.231 121.164 162.213 120.066 162.346C119.422 162.429 118.785 162.553 118.157 162.716C117.394 162.927 116.647 163.193 115.923 163.513C115.202 163.846 114.508 164.233 113.845 164.671C113.308 165.032 112.796 165.428 112.312 165.856C111.483 166.593 111.044 167.124 111.007 167.097C111.088 166.956 111.183 166.824 111.291 166.703C111.574 166.36 111.88 166.036 112.206 165.733C112.681 165.279 113.191 164.862 113.731 164.488C114.398 164.035 115.1 163.637 115.832 163.298C116.571 162.97 117.337 162.705 118.12 162.506C118.759 162.346 119.41 162.238 120.066 162.181C120.505 162.136 120.947 162.122 121.388 162.14C121.546 162.137 121.702 162.154 121.855 162.19Z" fill="#263238"/>
<g opacity="0.3">
<path d="M63.4949 164.135C70.3608 160.043 74.6269 153.269 78.8059 146.467C82.985 139.665 86.8802 132.529 92.6751 127.046C95.3345 124.524 98.447 122.4 99.4312 118.866L89.0133 127.146L59.9933 160.519L63.4949 164.135Z" fill="black"/>
</g>
<path d="M44.6732 146.247C44.6732 146.334 43.0345 146.27 41.1624 146.911C40.3675 147.197 39.5935 147.538 38.8463 147.932C38.5448 148.118 38.2241 148.272 37.8896 148.39C38.1551 148.153 38.4487 147.95 38.7639 147.785C39.4972 147.34 40.275 146.971 41.0846 146.687C41.9003 146.41 42.7508 146.248 43.6112 146.206C43.9652 146.166 44.3233 146.18 44.6732 146.247Z" fill="#263238"/>
<path d="M44.6732 146.247C44.6732 146.334 43.0345 146.27 41.1624 146.911C40.3675 147.197 39.5935 147.538 38.8463 147.932C38.5448 148.118 38.2241 148.272 37.8896 148.39C38.1551 148.153 38.4487 147.95 38.7639 147.785C39.4972 147.34 40.275 146.971 41.0846 146.687C41.9003 146.41 42.7508 146.248 43.6112 146.206C43.9652 146.166 44.3233 146.18 44.6732 146.247Z" fill="#263238"/>
<path d="M107.647 161.188C107.159 160.869 106.627 160.624 106.068 160.46C104.993 160.126 103.322 160.13 101.386 160.753C99.4495 161.375 97.4355 162.698 94.9454 163.733C93.6486 164.301 92.241 164.571 90.8259 164.524C89.309 164.38 87.8374 163.928 86.5004 163.197C85.1272 162.501 83.8226 161.723 82.509 161.114C81.2513 160.507 79.8977 160.123 78.5084 159.979C76.1494 159.758 73.7748 160.187 71.6425 161.22C70.2014 161.899 68.9051 162.85 67.8251 164.021L67.3261 164.584L66.9966 165.042L66.7906 165.307L66.7128 165.394C66.7253 165.358 66.7439 165.324 66.7677 165.293C66.818 165.22 66.8821 165.129 66.9554 165.014L67.2712 164.557L67.7564 163.98C68.8207 162.769 70.1172 161.783 71.5693 161.082C72.5634 160.585 73.6193 160.221 74.7093 160.002C75.9601 159.735 77.2441 159.66 78.5176 159.778C79.9264 159.916 81.3003 160.298 82.5776 160.908C83.9096 161.526 85.205 162.304 86.5782 162.991C87.8868 163.709 89.327 164.154 90.8122 164.3C92.1983 164.353 93.5784 164.092 94.8493 163.536C97.3119 162.529 99.3488 161.16 101.322 160.602C103.294 160.043 104.983 160.011 106.077 160.377C106.497 160.504 106.897 160.688 107.267 160.922L107.547 161.124C107.62 161.16 107.652 161.183 107.647 161.188Z" fill="#FAFAFA"/>
<path d="M127.531 144.256C127.263 144.176 126.987 144.124 126.707 144.101C125.942 144.112 125.196 144.341 124.556 144.76C123.709 145.217 122.894 146.096 121.741 146.742C121.135 147.099 120.439 147.273 119.736 147.245C118.996 147.169 118.279 146.942 117.631 146.577C116.958 146.238 116.335 145.858 115.69 145.602C115.071 145.347 114.424 145.166 113.763 145.062C113.165 144.965 112.559 144.933 111.955 144.966C111.426 144.983 110.9 145.052 110.385 145.172C109.635 145.336 108.909 145.594 108.224 145.941C107.734 146.188 107.487 146.357 107.474 146.339C107.46 146.321 107.528 146.284 107.643 146.202C107.814 146.077 107.993 145.964 108.178 145.863C109.332 145.215 110.62 144.841 111.941 144.769C113.25 144.683 114.561 144.894 115.777 145.387C116.445 145.648 117.077 146.028 117.736 146.362C118.357 146.712 119.042 146.933 119.75 147.012C120.409 147.043 121.064 146.884 121.636 146.554C122.752 145.941 123.59 145.089 124.469 144.618C125.14 144.199 125.921 143.989 126.712 144.014C126.926 144.03 127.136 144.08 127.334 144.16C127.404 144.184 127.47 144.216 127.531 144.256Z" fill="#FAFAFA"/>
<path d="M107.4 138.008C107.295 138 107.191 137.981 107.089 137.953C106.988 137.953 106.865 137.898 106.714 137.875L106.201 137.807C105.102 137.713 103.995 137.827 102.937 138.141C101.374 138.625 99.8771 139.3 98.4791 140.15C96.7782 141.239 95.0023 142.205 93.1649 143.043C92.1965 143.459 91.1753 143.74 90.1302 143.876C89.1497 143.996 88.1556 143.927 87.2007 143.675C86.3503 143.426 85.5257 143.097 84.7381 142.691C83.9966 142.325 83.3192 141.963 82.6875 141.665C81.7098 141.155 80.6445 140.833 79.5475 140.718C79.2421 140.7 78.9357 140.709 78.632 140.745C78.5285 140.756 78.4243 140.756 78.3208 140.745C78.4198 140.71 78.5228 140.687 78.6274 140.677C78.9295 140.623 79.2361 140.598 79.5429 140.603C80.6597 140.685 81.7491 140.988 82.747 141.496C83.3924 141.784 84.0744 142.137 84.8159 142.494C85.594 142.887 86.4079 143.204 87.2465 143.441C88.1756 143.681 89.1414 143.743 90.0935 143.624C91.1184 143.49 92.1196 143.214 93.0688 142.805C95.037 141.995 96.7306 140.869 98.3601 139.949C99.779 139.098 101.3 138.43 102.887 137.962C103.964 137.658 105.09 137.57 106.201 137.701L106.718 137.793C106.869 137.825 106.988 137.866 107.089 137.894C107.196 137.921 107.301 137.959 107.4 138.008Z" fill="#FAFAFA"/>
<path d="M121.576 123.91C121.425 124.025 121.261 124.12 121.086 124.194C120.761 124.363 120.294 124.601 119.713 124.862C119.013 125.175 118.287 125.426 117.544 125.613C116.626 125.844 115.674 125.909 114.733 125.805C113.735 125.7 112.815 125.489 111.987 125.375C111.243 125.255 110.487 125.241 109.739 125.334C109.052 125.431 108.393 125.675 107.808 126.048C107.808 126.048 107.84 126.002 107.908 125.938C108.017 125.848 108.132 125.765 108.252 125.691C108.703 125.426 109.2 125.247 109.716 125.164C110.475 125.052 111.246 125.052 112.005 125.164C112.866 125.27 113.79 125.476 114.751 125.576C116.715 125.81 118.454 125.183 119.645 124.716C120.244 124.478 120.725 124.258 121.059 124.121C121.224 124.033 121.397 123.963 121.576 123.91Z" fill="#FAFAFA"/>
<path d="M62.3918 131.531C62.1335 131.425 61.8601 131.36 61.5816 131.339C60.8138 131.355 60.0737 131.629 59.4806 132.117C59.087 132.396 58.675 132.744 58.1853 133.065C57.6576 133.407 57.0684 133.643 56.4505 133.761C55.0314 133.962 53.5843 133.788 52.2531 133.257C50.8342 132.744 49.5663 132.094 48.3487 131.664C47.7783 131.462 47.1919 131.309 46.5956 131.206C46.076 131.115 45.5478 131.083 45.021 131.11C44.2536 131.135 43.502 131.336 42.8239 131.696C42.3662 131.962 42.1328 132.177 42.119 132.154C42.1053 132.131 42.1648 132.094 42.2701 131.994C42.4264 131.849 42.5966 131.72 42.7781 131.609C43.4563 131.209 44.221 130.978 45.0073 130.936C45.5483 130.899 46.0917 130.922 46.6276 131.005C47.2382 131.104 47.8386 131.257 48.4219 131.463C49.6578 131.884 50.9349 132.534 52.3355 133.037C53.627 133.555 55.0303 133.73 56.4093 133.545C57.003 133.441 57.5706 133.222 58.08 132.9C58.5606 132.598 58.9955 132.259 59.3845 131.985C60.0099 131.49 60.7891 131.231 61.5862 131.252C61.8011 131.265 62.0112 131.321 62.2041 131.417C62.2731 131.443 62.3367 131.482 62.3918 131.531Z" fill="#FAFAFA"/>
<path d="M88.1756 166.593C88.1756 166.593 88.2306 166.63 88.3221 166.717C88.4552 166.848 88.5762 166.99 88.6837 167.143C89.1772 167.848 89.4535 168.682 89.4788 169.543C89.504 170.403 89.2769 171.252 88.8256 171.985C88.2168 172.97 87.1778 173.752 86.5965 174.883C86.3253 175.435 86.2448 176.061 86.3676 176.663C86.4955 177.233 86.6955 177.783 86.9627 178.302C87.4616 179.3 87.9239 180.27 87.9056 181.167C87.9105 181.517 87.8361 181.864 87.6878 182.181C87.5396 182.498 87.3214 182.778 87.0496 182.998C86.8993 183.111 86.7282 183.194 86.5461 183.241C86.418 183.264 86.3539 183.268 86.3493 183.241C86.5816 183.166 86.7997 183.053 86.9947 182.907C87.2377 182.685 87.4301 182.414 87.5588 182.112C87.6876 181.809 87.7496 181.482 87.7408 181.154C87.7408 180.311 87.2831 179.387 86.7658 178.384C86.4835 177.851 86.2727 177.284 86.1387 176.695C86.0028 176.042 86.0882 175.363 86.3813 174.764C86.692 174.198 87.0768 173.676 87.5257 173.212C87.9329 172.785 88.3049 172.326 88.6379 171.839C89.1708 171.007 89.3928 170.013 89.265 169.033C89.1867 168.369 88.9616 167.731 88.6059 167.166C88.3496 166.795 88.1573 166.607 88.1756 166.593Z" fill="#FAFAFA"/>
<path d="M107.364 186.688C107.3 186.645 107.241 186.594 107.19 186.537C107.041 186.376 106.921 186.19 106.837 185.987C106.563 185.216 106.604 184.367 106.952 183.626C107.167 183.11 107.469 182.635 107.844 182.22C108.233 181.763 108.691 181.332 109.158 180.847C109.652 180.373 110.08 179.834 110.43 179.245C110.774 178.6 110.981 177.891 111.039 177.162C111.195 175.656 110.92 174.21 110.847 172.878C110.718 171.69 110.875 170.487 111.305 169.372C111.61 168.624 112.135 167.985 112.811 167.541C112.995 167.424 113.194 167.33 113.401 167.262C113.471 167.234 113.545 167.217 113.621 167.211C113.357 167.327 113.103 167.463 112.861 167.619C112.226 168.08 111.74 168.716 111.46 169.45C111.068 170.546 110.938 171.718 111.08 172.874C111.167 174.187 111.451 175.643 111.295 177.199C111.232 177.959 111.012 178.698 110.65 179.369C110.286 179.985 109.836 180.546 109.314 181.035C108.361 181.95 107.483 182.779 107.107 183.708C106.832 184.172 106.709 184.71 106.754 185.248C106.8 185.786 107.013 186.296 107.364 186.706V186.688Z" fill="#FAFAFA"/>
<path d="M109.725 192.757C109.567 192.884 109.395 192.993 109.213 193.082C108.695 193.344 108.13 193.5 107.551 193.54C106.635 193.616 105.714 193.514 104.837 193.238C103.682 192.867 102.577 192.356 101.546 191.718C100.316 190.94 99.0109 190.286 97.6506 189.768C96.058 189.274 94.3621 189.216 92.7392 189.599C90.9453 190.041 89.1956 190.646 87.5119 191.407C85.694 192.253 83.7976 192.918 81.8498 193.393C80.8495 193.602 79.8233 193.659 78.8059 193.563C77.8139 193.456 76.8493 193.171 75.9589 192.721C74.2104 191.846 72.8097 190.578 71.3816 189.544C70.6974 189.023 69.9683 188.563 69.2028 188.171L68.6444 187.905C68.4567 187.823 68.2645 187.763 68.0768 187.69C67.7048 187.552 67.3241 187.439 66.9371 187.351C65.5209 187.02 64.0548 186.959 62.6161 187.173C61.4288 187.343 60.2734 187.688 59.1877 188.198C58.9451 188.304 58.73 188.441 58.5057 188.551C58.2948 188.657 58.0914 188.778 57.8969 188.912C57.7093 189.04 57.5262 189.155 57.3568 189.274L56.8991 189.636C56.6376 189.839 56.3899 190.059 56.1576 190.295C55.9765 190.455 55.8082 190.63 55.654 190.816L55.352 191.151C55.2833 191.224 55.2467 191.26 55.2421 191.256L55.3336 191.132L55.6174 190.784C55.7667 190.592 55.9305 190.412 56.1072 190.244C56.3367 190.003 56.5813 189.777 56.8396 189.567L57.2973 189.187L57.842 188.816C58.0373 188.681 58.2406 188.557 58.4508 188.445C58.6705 188.326 58.9085 188.189 59.1328 188.079C60.2196 187.542 61.3818 187.173 62.5795 186.985C64.0372 186.752 65.5263 186.804 66.9645 187.136C67.3592 187.223 67.7476 187.336 68.1271 187.475C68.324 187.548 68.5208 187.608 68.713 187.69L69.2806 187.96C70.0579 188.352 70.7992 188.812 71.496 189.333C72.9379 190.372 74.3339 191.622 76.0458 192.478C76.9042 192.914 77.8349 193.19 78.7922 193.293C79.7868 193.389 80.7902 193.332 81.7674 193.123C83.6962 192.663 85.5756 192.016 87.3792 191.192C89.0743 190.418 90.8381 189.805 92.6476 189.361C94.3134 188.975 96.0522 189.043 97.6827 189.558C99.0522 190.088 100.365 190.755 101.601 191.549C102.615 192.191 103.703 192.708 104.842 193.087C105.703 193.368 106.61 193.483 107.515 193.425C108.086 193.39 108.645 193.246 109.162 193C109.538 192.872 109.725 192.743 109.725 192.757Z" fill="#FAFAFA"/>
<path d="M84.2483 116.408C86.7065 116.529 89.1159 115.693 90.9712 114.076C92.8265 112.459 93.9834 110.186 94.1993 107.734C94.4648 104.713 94.6571 102.132 94.6571 102.132C94.6571 102.132 102.438 101.935 103.542 94.3044C104.645 86.6741 105.606 68.9508 105.606 68.9508C101.503 66.5189 96.8254 65.2266 92.0561 65.2073C87.2867 65.1879 82.5987 66.4424 78.4764 68.841L77.2268 69.5688L75.2219 106.384C75.1534 107.635 75.3329 108.888 75.7499 110.07C76.167 111.252 76.8134 112.34 77.6522 113.272C78.4909 114.203 79.5054 114.96 80.6373 115.498C81.7693 116.036 82.9965 116.345 84.2483 116.408Z" fill="#FFBE9D"/>
<path d="M95.7556 89.0313C95.7556 88.9444 96.4239 88.8986 97.5041 88.8894C97.7833 88.8894 98.0076 88.862 98.0442 88.7155C98.0901 88.4407 98.0584 88.1585 97.9527 87.9007L97.3942 85.6533C96.639 82.4492 96.1584 79.8356 96.3232 79.7989C96.4879 79.7623 97.2386 82.321 97.9847 85.516C98.1586 86.2941 98.328 87.0402 98.4928 87.7726C98.6239 88.1506 98.6239 88.5618 98.4928 88.9398C98.4394 89.0392 98.3637 89.1249 98.2715 89.19C98.1794 89.2552 98.0734 89.298 97.9618 89.3151C97.81 89.3364 97.6559 89.3364 97.5041 89.3151C96.4101 89.2144 95.751 89.1137 95.7556 89.0313Z" fill="#263238"/>
<path d="M94.7028 102.026C91.1609 101.637 87.8148 100.203 85.0905 97.9067C85.0905 97.9067 86.7338 103.715 94.4465 104.017L94.7028 102.026Z" fill="#EB996E"/>
<path d="M105.505 70.8916C105.505 70.8916 100.699 72.901 94.7715 69.5184C90.8808 67.303 86.276 66.0717 85.2004 66.8178C84.1247 67.5639 83.6853 71.6743 79.6573 72.6584C79.6573 72.6584 79.4971 80.5359 76.3754 80.0828C73.2537 79.6296 75.8902 67.5593 75.8902 67.5593L83.7631 64.2362L92.2174 63.1194L100.045 64.6665L106.064 66.6759L105.505 70.8916Z" fill="#263238"/>
<path d="M77.1398 77.5881C77.0162 77.5149 72.1048 75.3544 71.5784 80.6C71.0521 85.8456 76.4395 85.278 76.4624 85.1315C76.4853 84.985 77.1398 77.5881 77.1398 77.5881Z" fill="#FFBE9D"/>
<path d="M75.0525 83.003C75.0525 83.003 74.9564 83.0579 74.7962 83.1129C74.5695 83.1861 74.3232 83.168 74.1096 83.0625C73.5741 82.8062 73.1942 81.877 73.2628 80.9295C73.2916 80.4792 73.4214 80.0411 73.6427 79.6479C73.708 79.4888 73.8108 79.3479 73.9423 79.2371C74.0738 79.1263 74.2301 79.0489 74.398 79.0116C74.5061 78.9914 74.6179 79.0108 74.7129 79.0663C74.8079 79.1218 74.8797 79.2096 74.9152 79.3137C74.9702 79.4694 74.9152 79.5701 74.9564 79.5838C74.9976 79.5975 75.0754 79.506 75.0525 79.2863C75.0384 79.1518 74.9767 79.0268 74.8786 78.9338C74.7454 78.8114 74.5697 78.7458 74.3888 78.7507C74.1692 78.7735 73.9589 78.8518 73.7779 78.9783C73.597 79.1049 73.4512 79.2754 73.3544 79.4739C73.0871 79.907 72.93 80.3989 72.8966 80.9066C72.8234 81.964 73.272 83.0076 74.0089 83.3005C74.1453 83.3548 74.292 83.378 74.4385 83.3685C74.585 83.359 74.7275 83.3171 74.8557 83.2456C75.0297 83.1312 75.0709 83.0168 75.0525 83.003Z" fill="#EB996E"/>
<path d="M83.1453 67.6646C82.1204 68.8526 80.9466 69.9034 79.6528 70.7909C78.3383 71.6797 76.7287 72.0197 75.1671 71.7384C73.6428 71.3859 72.2925 70.0677 72.2284 68.4977C72.1644 66.9277 73.6978 65.408 75.2266 65.7513C74.9661 65.7551 74.7086 65.6967 74.4753 65.5808C74.2421 65.4649 74.0399 65.2949 73.8857 65.0851C73.7315 64.8752 73.6296 64.6315 73.5887 64.3743C73.5477 64.1171 73.5689 63.8538 73.6503 63.6065C73.7317 63.3591 73.8711 63.1347 74.0568 62.9521C74.2426 62.7696 74.4692 62.634 74.718 62.5568C74.9667 62.4796 75.2303 62.4629 75.4868 62.5082C75.7432 62.5535 75.9852 62.6595 76.1924 62.8173C74.8604 62.5655 74.7139 60.4554 75.7713 59.6132C76.8286 58.7709 78.3849 58.954 79.6345 59.4621C80.8841 59.9702 82.0421 60.7575 83.365 61.0413C85.4385 61.499 87.5669 60.6247 89.4024 59.5582C91.2379 58.4917 92.9773 57.1918 95.0233 56.6242C97.5317 55.933 100.246 56.4411 102.644 57.4481C104.675 58.225 106.462 59.5284 107.821 61.2244C109.117 62.9546 109.758 65.2524 109.195 67.335C108.632 69.4177 106.682 71.1479 104.517 71.1571C104.517 71.1571 99.6601 71.6423 95.7053 68.7082C91.7506 65.7742 83.4016 66.1449 83.4016 66.1449L83.1453 67.6646Z" fill="#263238"/>
<path d="M75.8536 61.5676C75.8536 61.5676 75.9497 61.6683 76.1557 61.8102C76.3617 61.9521 76.6821 62.1489 77.0986 62.3869C78.2961 63.0375 79.5669 63.543 80.884 63.8929C82.8446 64.4174 84.8789 64.6107 86.9032 64.465C89.1918 64.314 91.6132 63.5496 94.1261 62.9591C96.6391 62.3686 99.1154 62.0436 101.267 62.5654C103.418 63.0873 105.102 64.3597 105.844 65.829C106.454 67.0023 106.596 68.3633 106.242 69.6374C106.078 70.0965 105.874 70.5406 105.633 70.9648C105.633 70.9648 105.743 70.8869 105.908 70.6901C106.135 70.3903 106.317 70.0587 106.448 69.706C106.678 69.0482 106.774 68.3512 106.732 67.6557C106.689 66.9602 106.509 66.2801 106.201 65.6551C105.441 64.0348 103.642 62.6112 101.386 62.0619C99.1291 61.5127 96.5246 61.7873 93.9888 62.4144C91.453 63.0415 89.082 63.7876 86.8574 63.9478C84.8849 64.1058 82.8999 63.9513 80.9756 63.4901C77.6571 62.6936 75.8811 61.444 75.8536 61.5676Z" fill="#455A64"/>
<path d="M73.4734 69.6649C73.4185 69.6923 73.5879 70.205 74.1555 70.8595C74.9097 71.7087 75.9149 72.2955 77.0251 72.535C78.1353 72.7745 79.293 72.6542 80.3302 72.1915C81.1175 71.8345 81.4837 71.4363 81.4425 71.3859C81.4013 71.3356 80.9527 71.5828 80.1883 71.8437C79.2059 72.1696 78.1541 72.2265 77.1423 72.0083C76.1305 71.7902 75.1955 71.305 74.4347 70.6032C73.8396 70.0448 73.565 69.6191 73.4734 69.6649Z" fill="#455A64"/>
<path d="M75.1121 67.0604C74.9793 67.1245 75.3821 68.0765 76.3983 68.7769C77.4144 69.4772 78.4443 69.523 78.4535 69.3719C78.4626 69.2209 77.6113 68.9416 76.7141 68.3146C75.817 67.6875 75.2494 66.9871 75.1121 67.0604Z" fill="#455A64"/>
<path d="M108.082 74.384C108.151 74.384 108.302 74.1414 108.339 73.67C108.378 73.0479 108.215 72.4297 107.876 71.9071C107.536 71.3844 107.037 70.985 106.453 70.768C105.995 70.6124 105.711 70.6444 105.698 70.7131C105.652 70.8641 106.732 71.1708 107.405 72.2144C108.078 73.258 107.927 74.384 108.082 74.384Z" fill="#263238"/>
<path d="M110.801 66.8682C110.645 66.8041 110.069 68.191 108.696 69.3353C107.322 70.4796 105.881 70.855 105.922 71.0198C105.963 71.1845 107.574 71.0198 109.062 69.7656C110.549 68.5114 110.948 66.8865 110.801 66.8682Z" fill="#455A64"/>
<path d="M102.86 80.577C102.824 80.8829 102.67 81.1626 102.43 81.356C102.19 81.5494 101.884 81.6411 101.578 81.6115C101.427 81.604 101.28 81.5664 101.144 81.501C101.008 81.4356 100.887 81.3437 100.787 81.2307C100.687 81.1177 100.611 80.9858 100.563 80.8429C100.515 80.7 100.496 80.5489 100.507 80.3985C100.544 80.0932 100.698 79.8142 100.938 79.621C101.177 79.4278 101.482 79.3356 101.788 79.3641C101.939 79.3716 102.087 79.4092 102.223 79.4746C102.358 79.54 102.48 79.6319 102.58 79.7449C102.679 79.8579 102.756 79.9898 102.804 80.1327C102.852 80.2756 102.871 80.4267 102.86 80.577Z" fill="#263238"/>
<path d="M103.775 80.4764C103.61 80.6092 102.809 79.8356 101.55 79.6754C100.292 79.5152 99.2847 80.0233 99.1657 79.8539C99.1107 79.7761 99.2938 79.5198 99.7333 79.2772C100.328 78.9721 101.002 78.857 101.665 78.9476C102.322 79.0282 102.935 79.3188 103.413 79.7761C103.775 80.124 103.857 80.4169 103.775 80.4764Z" fill="#263238"/>
<path d="M91.3798 78.9842C91.344 79.29 91.1898 79.5697 90.9502 79.7631C90.7106 79.9565 90.4046 80.0483 90.0981 80.0186C89.9475 80.0111 89.8 79.9735 89.6641 79.9081C89.5282 79.8427 89.4068 79.7508 89.307 79.6378C89.2072 79.5248 89.131 79.3929 89.083 79.25C89.0349 79.1071 89.0159 78.956 89.027 78.8056C89.065 78.4999 89.2205 78.2209 89.4605 78.0278C89.7006 77.8347 90.0065 77.7427 90.3133 77.7712C90.4637 77.7787 90.611 77.8163 90.7467 77.8817C90.8823 77.9472 91.0034 78.0392 91.1028 78.1523C91.2023 78.2654 91.278 78.3973 91.3256 78.5402C91.3732 78.683 91.3916 78.834 91.3798 78.9842Z" fill="#263238"/>
<path d="M92.2037 78.9613C92.0389 79.094 91.2333 78.3251 89.9745 78.1603C88.7158 77.9955 87.7088 78.5127 87.5898 78.3388C87.5348 78.261 87.7179 78.0046 88.1574 77.7666C88.751 77.4577 89.4265 77.3425 90.089 77.4371C90.7447 77.5182 91.3574 77.8069 91.8375 78.261C92.1854 78.5997 92.2815 78.8926 92.2037 78.9613Z" fill="#263238"/>
<path d="M91.7185 75.487C91.4667 75.7067 90.5238 75.0293 89.2468 74.9011C87.9697 74.773 86.9078 75.2215 86.7109 74.9561C86.6194 74.8279 86.7888 74.4983 87.2602 74.1917C87.8936 73.805 88.6366 73.6376 89.3746 73.7154C90.1125 73.7931 90.8043 74.1117 91.3432 74.6219C91.7368 75.0247 91.8329 75.3818 91.7185 75.487Z" fill="#263238"/>
<path d="M103.697 77.5881C103.752 77.7392 103.532 77.9909 103.075 78.1877C102.467 78.4209 101.809 78.4904 101.167 78.3892C100.524 78.2879 99.9192 78.0196 99.4129 77.611C99.0376 77.2814 98.9094 76.9793 99.0055 76.8512C99.2252 76.5948 100.164 77.0388 101.354 77.2082C102.544 77.3775 103.569 77.2631 103.697 77.5881Z" fill="#263238"/>
<path d="M94.7898 91.1277C94.918 91.1277 95.0095 91.3702 94.9958 91.654C94.9821 91.9378 94.8585 92.1621 94.7257 92.1575C94.593 92.153 94.5014 91.9104 94.5198 91.6266C94.5381 91.3428 94.6571 91.1185 94.7898 91.1277Z" fill="#263238"/>
<path d="M76.2061 87.1455C76.1943 87.2557 76.155 87.3612 76.0917 87.4522C75.9315 87.7135 75.6995 87.9233 75.4234 88.0564C75.219 88.1615 74.995 88.2227 74.7656 88.2361C74.5362 88.2495 74.3065 88.2148 74.0914 88.1342C73.8253 88.0371 73.5841 87.882 73.3854 87.6801C73.1867 87.4782 73.0354 87.2346 72.9425 86.967C72.847 86.6517 72.827 86.3184 72.8841 85.994C72.9412 85.6696 73.0738 85.3631 73.2712 85.0994C73.4685 84.8356 73.7251 84.622 74.0203 84.4757C74.3154 84.3294 74.6408 84.2546 74.9702 84.2573C75.081 84.2469 75.1927 84.2642 75.2952 84.3076C74.9067 84.339 74.5262 84.4349 74.1692 84.5914C73.7965 84.7759 73.4919 85.074 73.2995 85.4428C73.1831 85.6632 73.1115 85.9045 73.0887 86.1527C73.0659 86.401 73.0924 86.6513 73.1668 86.8892C73.25 87.1239 73.3825 87.3381 73.5554 87.5173C73.7283 87.6965 73.9376 87.8367 74.1692 87.9282C74.3581 88.0046 74.5606 88.0419 74.7643 88.038C74.968 88.034 75.1689 87.9889 75.3547 87.9053C75.7032 87.7355 75.9978 87.4725 76.2061 87.1455Z" fill="#455A64"/>
<path d="M81.2685 118.491C81.2685 118.491 83.8226 114.884 85.4293 112.856C87.3746 110.403 88.5327 108.279 88.5327 107.139V101.06C88.5327 101.06 90.9541 100.488 91.279 103.239C91.604 105.99 91.279 106.681 91.279 106.681C91.279 106.681 101.445 99.8154 102.132 100.333C103.345 101.202 101.047 103.033 101.047 103.033L94.8539 108.631L98.3784 107.514C98.7894 107.382 99.236 107.416 99.6221 107.61C100.008 107.803 100.303 108.14 100.443 108.549C100.558 108.889 100.56 109.257 100.447 109.597C100.333 109.938 100.112 110.232 99.8157 110.435L97.7284 112.243L98.7766 111.822C99.1515 111.67 99.5696 111.664 99.9484 111.806C100.327 111.947 100.639 112.226 100.823 112.586C100.975 112.881 101.031 113.216 100.983 113.544C100.935 113.872 100.787 114.177 100.557 114.417L98.6576 116.445L99.5456 115.987C99.682 115.914 99.8316 115.869 99.9856 115.855C100.14 115.841 100.295 115.857 100.442 115.904C100.59 115.95 100.726 116.026 100.844 116.126C100.962 116.226 101.059 116.348 101.129 116.486C101.246 116.722 101.279 116.991 101.221 117.249C101.164 117.506 101.02 117.736 100.814 117.9L89.4344 126.895L81.2685 118.491Z" fill="#FFBE9D"/>
<path d="M89.4527 126.863L89.3108 126.73C89.2147 126.629 89.0728 126.492 88.8943 126.318C88.5235 125.938 87.9788 125.402 87.2785 124.688L81.2182 118.546L81.1724 118.5L81.209 118.45C81.9505 117.391 82.7607 116.265 83.6395 115.072C84.079 114.461 84.5367 113.851 85.0127 113.241C85.4979 112.618 85.9968 111.991 86.4637 111.309C86.9498 110.622 87.3887 109.904 87.7774 109.158C88.225 108.407 88.4504 107.546 88.4274 106.672C88.4274 104.869 88.4274 102.998 88.4274 101.06V100.969H88.5098C89.1364 100.836 89.7898 100.944 90.3407 101.271C90.6109 101.453 90.8375 101.692 91.0044 101.971C91.1635 102.257 91.2763 102.566 91.3385 102.887C91.4508 103.514 91.5197 104.149 91.5445 104.786C91.5445 105.107 91.5445 105.432 91.5445 105.757C91.5423 106.095 91.4898 106.431 91.3889 106.755L91.2195 106.608C92.7895 105.555 94.4236 104.489 96.0989 103.404C96.9366 102.873 97.7925 102.342 98.6622 101.825C99.5385 101.29 100.445 100.805 101.377 100.374C101.504 100.317 101.636 100.27 101.77 100.232C101.842 100.21 101.915 100.197 101.99 100.191C102.037 100.182 102.085 100.182 102.132 100.191C102.18 100.204 102.223 100.231 102.255 100.269C102.379 100.36 102.475 100.483 102.536 100.625C102.596 100.767 102.618 100.922 102.599 101.074C102.476 101.62 102.192 102.115 101.784 102.498C101.413 102.896 100.992 103.221 100.617 103.578L99.4541 104.626L94.95 108.714L94.8356 108.517L96.8999 107.867L97.9207 107.546C98.09 107.492 98.2502 107.437 98.4288 107.386C98.609 107.337 98.796 107.317 98.9826 107.327C99.3535 107.338 99.7112 107.467 100.004 107.694C100.297 107.922 100.51 108.237 100.612 108.594C100.714 108.951 100.699 109.331 100.571 109.679C100.443 110.027 100.207 110.325 99.8981 110.531L97.8245 112.321L97.7147 112.147L98.74 111.735C99.0972 111.587 99.4928 111.562 99.866 111.661C100.135 111.733 100.383 111.87 100.587 112.06C100.791 112.25 100.945 112.488 101.036 112.751C101.126 113.015 101.15 113.297 101.106 113.573C101.062 113.848 100.95 114.108 100.781 114.33C100.548 114.605 100.324 114.829 100.095 115.076C99.6371 115.557 99.1794 116.028 98.7629 116.49L98.6485 116.344L99.6051 115.845C99.7744 115.767 99.959 115.727 100.145 115.73C100.332 115.733 100.515 115.777 100.682 115.86C100.849 115.943 100.996 116.063 101.11 116.21C101.225 116.357 101.305 116.528 101.344 116.71C101.382 116.886 101.381 117.067 101.341 117.242C101.3 117.417 101.222 117.581 101.111 117.722C101 117.85 100.874 117.966 100.736 118.065L100.356 118.363L99.6143 118.948L98.1953 120.061L93.4899 123.723L90.5009 126.071L89.7273 126.666C89.5534 126.803 89.4619 126.863 89.4619 126.863L89.7273 126.638L90.5009 126.016L93.4624 123.64L98.1129 119.933L99.5136 118.816L100.251 118.23L100.626 117.932C100.753 117.843 100.868 117.739 100.969 117.621C101.114 117.432 101.191 117.199 101.189 116.961C101.186 116.722 101.103 116.492 100.954 116.306C100.805 116.12 100.598 115.989 100.366 115.935C100.134 115.88 99.8901 115.905 99.6738 116.005L98.74 116.495L98.2502 116.756L98.6302 116.349L99.9576 114.93C100.177 114.692 100.415 114.444 100.626 114.202C100.775 114.006 100.873 113.777 100.913 113.534C100.952 113.292 100.931 113.043 100.852 112.81C100.773 112.577 100.638 112.368 100.459 112.199C100.28 112.031 100.062 111.909 99.8248 111.845C99.4952 111.757 99.146 111.781 98.8316 111.913L97.8062 112.325L97.2249 112.563L97.6827 112.147L99.7653 110.339C100.032 110.158 100.234 109.897 100.344 109.594C100.453 109.292 100.464 108.962 100.376 108.653C100.287 108.343 100.102 108.07 99.8491 107.871C99.5957 107.672 99.286 107.559 98.9643 107.546C98.6257 107.552 98.2914 107.624 97.9802 107.757L96.9594 108.082L94.8951 108.737L94.3916 108.897L94.7852 108.54L99.303 104.452L100.466 103.399C100.85 103.038 101.262 102.717 101.615 102.342C101.985 101.996 102.246 101.549 102.365 101.056C102.382 100.942 102.367 100.826 102.322 100.72C102.277 100.614 102.203 100.523 102.109 100.456C102.081 100.388 101.962 100.429 101.839 100.456C101.714 100.493 101.592 100.537 101.473 100.589C100.551 101.014 99.6551 101.494 98.7903 102.026C97.9207 102.543 97.0693 103.07 96.2271 103.601C94.5472 104.658 92.9223 105.72 91.3523 106.773L91.0639 106.965L91.1875 106.622C91.2726 106.324 91.3173 106.016 91.3202 105.706C91.3363 105.389 91.3363 105.071 91.3202 104.754C91.2948 104.13 91.2291 103.507 91.1234 102.891C91.0619 102.599 90.9586 102.317 90.8167 102.054C90.6652 101.805 90.4623 101.591 90.2217 101.427C89.7199 101.131 89.1264 101.031 88.5556 101.147L88.6425 101.042C88.6425 102.977 88.6425 104.847 88.6425 106.654C88.6425 106.883 88.6425 107.112 88.6425 107.34C88.6149 107.567 88.5659 107.791 88.496 108.009C88.3565 108.429 88.1836 108.838 87.9788 109.231C87.5845 109.984 87.1379 110.709 86.6423 111.401C86.1845 112.083 85.6627 112.719 85.1821 113.332C84.7015 113.945 84.2438 114.559 83.8089 115.163C82.9301 116.353 82.1153 117.479 81.3646 118.527V118.431L87.2968 124.611L88.8943 126.272L89.3108 126.707L89.4527 126.863Z" fill="#EB996E"/>
<path d="M89.4527 126.863L58.2677 168.058C53.5302 174.306 44.9936 176.595 37.9125 173.203C32.731 170.722 28.9319 165.513 32.1085 154.793L61.9844 134.346L80.1471 116.82L89.4527 126.863Z" fill="#ED7801"/>
<path d="M37.9125 173.185L38.2467 173.354L39.2262 173.871C40.5167 174.452 41.8922 174.821 43.3 174.965C44.3182 175.058 45.3434 175.039 46.3576 174.91C46.9363 174.838 47.5108 174.736 48.0787 174.604C48.3762 174.54 48.6692 174.439 48.9942 174.356C49.3045 174.274 49.6101 174.175 49.9096 174.059C51.226 173.596 52.4841 172.982 53.6584 172.228C54.9874 171.399 56.1743 170.362 57.1738 169.157C59.3022 166.639 61.5039 163.765 63.8841 160.698C66.2642 157.631 68.736 154.303 71.3725 150.825C76.6364 143.858 82.39 136.177 88.4 128.085L89.3566 126.799V126.95L80.051 116.88H80.2112C73.8534 122.13 67.967 127.137 62.6344 131.6C57.3019 136.063 52.5278 139.99 48.4906 143.185C44.4535 146.38 41.167 148.875 38.8784 150.545C37.7386 151.392 36.8415 152.015 36.2418 152.45L35.5553 152.935L35.3172 153.09L35.5415 152.917L36.219 152.413C36.8094 151.955 37.6974 151.333 38.828 150.481C41.1166 148.788 44.3665 146.284 48.3899 143.071C52.4134 139.858 57.1783 135.926 62.5017 131.444C67.8251 126.963 73.7023 121.956 80.0556 116.701L80.1426 116.632L80.2158 116.71L89.526 126.78L89.5946 126.853L89.5351 126.936L88.5785 128.227C82.5639 136.31 76.8057 143.995 71.5327 150.953C68.8916 154.432 66.3832 157.736 64.0031 160.803C61.6229 163.87 59.4258 166.754 57.2653 169.253C56.2515 170.467 55.0491 171.51 53.7042 172.342C52.5184 173.099 51.2479 173.713 49.9188 174.173C49.6192 174.289 49.3136 174.388 49.0033 174.471C48.6966 174.553 48.3991 174.649 48.0878 174.718C47.5155 174.848 46.9364 174.946 46.3531 175.011C45.3309 175.139 44.2975 175.151 43.2725 175.048C41.8565 174.893 40.4756 174.506 39.185 173.903C38.7548 173.674 38.4344 173.487 38.2192 173.368C38.0041 173.249 37.9125 173.185 37.9125 173.185Z" fill="#263238"/>
<path d="M61.5588 162.455C61.2111 162.222 60.847 162.014 60.4694 161.833C59.4069 161.402 58.2506 161.256 57.1142 161.407C56.3296 161.493 55.5554 161.655 54.8027 161.892C53.9879 162.14 53.1411 162.487 52.244 162.84C51.3089 163.228 50.3522 163.561 49.3786 163.838C48.3224 164.142 47.2194 164.251 46.1242 164.158C45.0378 164.02 43.9771 163.726 42.975 163.284C42 162.881 41.0983 162.419 40.2286 162.025C38.4938 161.215 36.8048 160.693 35.3584 160.771C34.2122 160.8 33.1068 161.202 32.2092 161.915C31.8958 162.184 31.6174 162.492 31.3807 162.831C31.4205 162.728 31.4712 162.63 31.5318 162.538C31.7075 162.275 31.9151 162.035 32.1497 161.824C33.0469 161.06 34.1763 160.623 35.3538 160.583C36.8414 160.473 38.5579 161 40.3202 161.801C41.2036 162.195 42.1099 162.648 43.0665 163.046C44.0492 163.475 45.088 163.762 46.1516 163.897C47.2173 163.988 48.2907 163.884 49.3191 163.591C50.2859 163.318 51.2364 162.991 52.1662 162.611C53.0816 162.263 53.9147 161.92 54.7478 161.696C55.5145 161.464 56.3028 161.31 57.1005 161.238C58.2603 161.097 59.4365 161.271 60.506 161.741C60.895 161.918 61.2511 162.159 61.5588 162.455Z" fill="#FAFAFA"/>
<path d="M72.5808 148.65C72.6853 148.392 72.7261 148.113 72.6998 147.836C72.6271 147.465 72.4636 147.118 72.224 146.825C71.9844 146.533 71.6761 146.305 71.3266 146.16C70.8392 145.955 70.3314 145.801 69.8116 145.703C69.2014 145.582 68.6071 145.391 68.0402 145.135C66.775 144.477 65.6435 143.589 64.7033 142.517C63.6734 141.423 62.758 140.334 61.7784 139.491C60.9379 138.723 59.9373 138.151 58.849 137.816C58.108 137.59 57.3251 137.537 56.5603 137.66C56.0248 137.757 55.7502 137.889 55.741 137.866C55.7318 137.844 55.8051 137.825 55.9378 137.766C56.132 137.68 56.3344 137.614 56.542 137.569C57.3158 137.41 58.1166 137.44 58.8764 137.656C60.0012 137.973 61.0379 138.545 61.9066 139.327C62.9471 140.28 63.9328 141.292 64.8589 142.357C65.7805 143.406 66.8847 144.279 68.118 144.934C69.2623 145.501 70.4798 145.547 71.3816 146.009C71.7502 146.172 72.0716 146.425 72.3157 146.745C72.5599 147.065 72.7188 147.442 72.7776 147.84C72.8013 148.057 72.7682 148.276 72.6815 148.477C72.6588 148.54 72.6246 148.599 72.5808 148.65Z" fill="#FAFAFA"/>
<path d="M160.172 40.2055L158.798 40.2924L156.102 44.6409L156.281 47.3598C156.281 47.3598 154.185 47.6298 154.194 44.0504C154.203 40.4709 153.997 41.3956 153.997 41.3956C153.997 41.3956 149.52 41.6748 149.122 41.3086C148.834 41.0477 148.417 36.6077 148.207 34.2001C148.14 33.621 148.268 33.0362 148.572 32.5386C148.875 32.041 149.336 31.6591 149.882 31.4537C150.03 31.4031 150.184 31.3708 150.34 31.3576C151.457 31.2843 157.206 31.8153 157.206 31.8153L159.558 31.6597L160.172 40.2055Z" fill="#455A64"/>
<path d="M164.127 40.6905L162.666 31.4215L160.332 31.5771L160.941 40.7134L164.127 40.6905Z" fill="#455A64"/>
<path d="M128.241 48.5315C128.307 48.5365 128.372 48.5519 128.433 48.5773C128.512 48.599 128.589 48.6297 128.662 48.6689C128.766 48.7108 128.865 48.7629 128.959 48.8245C129.478 49.1479 129.9 49.6041 130.182 50.1458C130.465 50.6875 130.597 51.2949 130.566 51.905C130.522 52.4845 130.312 53.0391 129.962 53.5025C129.573 54.0105 129.054 54.4042 128.46 54.6422C127.821 54.9052 127.114 54.9597 126.442 54.7978C125.777 54.6086 125.191 54.2126 124.766 53.6673C124.363 53.169 124.106 52.5683 124.025 51.9325C123.947 51.3576 124.037 50.7723 124.286 50.248C124.56 49.701 124.975 49.2373 125.488 48.9049C126.002 48.5725 126.595 48.3835 127.206 48.3576C127.317 48.3479 127.429 48.3479 127.54 48.3576C127.622 48.3606 127.704 48.3729 127.783 48.3942C127.85 48.4014 127.915 48.42 127.975 48.4491C127.975 48.4766 127.701 48.4034 127.211 48.4491C126.519 48.5121 125.863 48.7834 125.329 49.2273C124.964 49.5277 124.669 49.9041 124.464 50.3304C124.241 50.823 124.163 51.3695 124.24 51.905C124.301 52.5263 124.55 53.1142 124.954 53.5898C125.358 54.0653 125.899 54.4057 126.502 54.5652C127.106 54.7247 127.744 54.6956 128.33 54.4819C128.917 54.2682 129.424 53.8801 129.783 53.3697C130.118 52.9445 130.322 52.4306 130.369 51.8913C130.401 51.424 130.33 50.9555 130.163 50.5181C129.918 49.8686 129.481 49.3096 128.909 48.916C128.492 48.6277 128.231 48.5544 128.241 48.5315Z" fill="#263238"/>
<path d="M118.711 56.6836C118.875 56.7013 119.032 56.7595 119.168 56.853C119.501 57.0566 119.773 57.3458 119.956 57.6904C120.139 58.035 120.225 58.4224 120.207 58.812C120.182 59.1839 120.048 59.5402 119.823 59.8374C119.577 60.1903 119.229 60.4592 118.825 60.6075C118.422 60.7558 117.982 60.7763 117.566 60.6664C117.151 60.5565 116.779 60.3214 116.501 59.9929C116.224 59.6645 116.054 59.2586 116.015 58.8304C115.966 58.4615 116.024 58.0863 116.184 57.7501C116.327 57.4633 116.534 57.2128 116.788 57.0177C117.148 56.7273 117.594 56.5661 118.056 56.56C118.222 56.5463 118.389 56.5747 118.541 56.6424C118.541 56.6424 118.363 56.6424 118.084 56.6424C117.654 56.686 117.247 56.8583 116.916 57.1368C116.672 57.3316 116.482 57.5869 116.365 57.8774C116.249 58.1679 116.21 58.4837 116.253 58.7937C116.288 59.178 116.44 59.5423 116.688 59.8374C116.937 60.1325 117.27 60.3443 117.643 60.4441C118.016 60.5439 118.41 60.5269 118.773 60.3955C119.136 60.2641 119.45 60.0245 119.672 59.7092C119.861 59.4606 119.983 59.167 120.025 58.8572C120.066 58.5475 120.027 58.2322 119.91 57.9424C119.762 57.5361 119.494 57.1848 119.141 56.9354C118.88 56.7568 118.702 56.7065 118.711 56.6836Z" fill="#263238"/>
<path d="M132.584 34.5617C132.584 34.5617 132.584 34.4335 132.639 34.1818L132.818 33.0649L132.955 32.241C133.019 31.9389 133.12 31.6185 133.211 31.266L133.527 30.1217C133.582 29.9114 133.651 29.7049 133.733 29.5038L133.985 28.863C134.788 26.7056 135.918 24.6847 137.336 22.8713C139.195 20.447 141.506 18.406 144.142 16.8613L145.259 16.2205C145.643 16.0283 146.051 15.8589 146.449 15.6712C146.847 15.4836 147.255 15.2776 147.685 15.1403L148.985 14.6825L149.644 14.4628L150.331 14.298L151.704 13.9731C152.161 13.8769 152.66 13.8357 153.146 13.7671C153.631 13.6829 154.122 13.6309 154.615 13.6115C155.627 13.5406 156.642 13.5406 157.654 13.6115C158.167 13.6526 158.684 13.6664 159.206 13.735L160.762 14.0051C161.023 14.0554 161.289 14.0829 161.545 14.1516L162.323 14.3667C162.84 14.5178 163.367 14.6413 163.884 14.8244C164.931 15.1994 165.952 15.6428 166.941 16.1518L167.692 16.5318C167.82 16.6004 167.948 16.6599 168.072 16.7286L168.429 16.9574L169.871 17.8729C170.329 18.2025 170.786 18.5778 171.244 18.9303C171.468 19.1133 171.702 19.2781 171.922 19.4841L172.558 20.0883C173.417 20.9058 174.222 21.7773 174.97 22.6974C175.313 23.1871 175.661 23.6769 176.014 24.1712L176.275 24.542L176.503 24.9356L176.961 25.7275L177.419 26.5194L177.803 27.357L178.183 28.2038L178.376 28.6249C178.43 28.7668 178.476 28.9179 178.527 29.0827L179.131 30.8495C179.273 31.4583 179.415 32.0716 179.561 32.6804C180.596 37.7329 179.954 42.9853 177.73 47.639L176.874 49.3143L175.863 50.8888L175.611 51.2779L175.322 51.6441L174.75 52.3719L174.178 53.0905L173.542 53.7542L172.91 54.4133L172.594 54.7429L172.251 55.0404L170.878 56.2168C169.935 56.9349 168.944 57.5879 167.912 58.1713L167.147 58.629C166.896 58.7755 166.621 58.8762 166.36 58.9998C165.829 59.2332 165.307 59.4896 164.776 59.7001L163.156 60.2494L162.753 60.3867L162.341 60.4874L161.517 60.6796C160.439 60.9293 159.346 61.1082 158.245 61.2152C157.7 61.261 157.155 61.2564 156.62 61.2747L155.814 61.3022C155.549 61.3022 155.283 61.2701 155.018 61.2518L153.438 61.142C152.921 61.0825 152.413 60.9726 151.905 60.8902C150.906 60.7188 149.919 60.4787 148.953 60.1716C148.485 60.0339 148.026 59.8657 147.58 59.6681C147.122 59.485 146.664 59.3294 146.229 59.1234L144.971 58.4505L144.348 58.1255L143.758 57.7548L142.581 56.9904C142.192 56.7523 141.863 56.4457 141.51 56.1802C141.158 55.9147 140.814 55.6401 140.485 55.3608L139.569 54.4683C137.38 52.3372 135.625 49.8019 134.402 47.0027C133.458 44.9025 132.84 42.6706 132.571 40.384C132.539 40.146 132.511 39.9262 132.484 39.6974C132.448 39.4841 132.429 39.2683 132.429 39.052C132.429 38.6355 132.429 38.2418 132.401 37.8756C132.374 37.5094 132.374 37.1799 132.401 36.8732C132.429 36.5665 132.447 36.2873 132.465 36.0401C132.507 35.5504 132.539 35.175 132.557 34.9141C132.575 34.6532 132.598 34.5296 132.598 34.5296C132.598 34.5296 132.598 34.6624 132.598 34.9141C132.598 35.1659 132.561 35.5504 132.534 36.0447C132.534 36.2919 132.497 36.5665 132.479 36.8732C132.461 37.1799 132.479 37.514 132.507 37.8756C132.534 38.2372 132.534 38.6309 132.548 39.0474C132.55 39.2623 132.57 39.4766 132.607 39.6882C132.635 39.9125 132.667 40.146 132.699 40.3702C132.973 42.6442 133.59 44.8635 134.53 46.9524C135.758 49.7276 137.511 52.2393 139.693 54.3493L140.608 55.2281C140.938 55.5073 141.286 55.7682 141.634 56.0429C141.982 56.3175 142.311 56.6104 142.696 56.8439L143.845 57.5763L144.43 57.947L145.053 58.2628L146.316 58.9082C146.747 59.1096 147.204 59.2653 147.653 59.4484C148.101 59.6394 148.559 59.8044 149.026 59.9427C149.985 60.2447 150.964 60.4803 151.955 60.6476C152.459 60.7254 152.962 60.8399 153.475 60.8948L155.041 61.0046C155.301 61.0046 155.567 61.0504 155.832 61.0504L156.629 61.0229C157.164 61.0229 157.7 61.0229 158.24 60.9589C159.331 60.8518 160.413 60.6729 161.481 60.4233L162.296 60.2311C162.433 60.199 162.57 60.1716 162.703 60.135L163.101 59.9976L164.708 59.4484C165.239 59.2424 165.751 58.9906 166.278 58.7572C166.534 58.629 166.809 58.5329 167.06 58.3864L167.811 57.9287C168.833 57.3482 169.815 56.6999 170.75 55.9879L172.123 54.8207L172.462 54.5278L172.778 54.2028L173.4 53.5482L174.027 52.8937L174.595 52.1796L175.162 51.4564L175.446 51.0994L175.698 50.7103L176.696 49.1541C176.975 48.6002 177.259 48.0463 177.542 47.4925C178.607 45.1923 179.32 42.7451 179.657 40.2329C179.933 37.7141 179.828 35.168 179.346 32.6804C179.204 32.0762 179.062 31.4674 178.92 30.8495C178.778 30.2316 178.522 29.6777 178.325 29.0964C178.275 28.9499 178.229 28.8035 178.174 28.6387L177.986 28.2176L177.607 27.3845L177.231 26.556L176.773 25.7687L176.316 24.9814L176.087 24.5924L175.826 24.2262L174.796 22.766C174.056 21.8535 173.258 20.9897 172.407 20.1799L171.78 19.5802C171.574 19.3788 171.322 19.214 171.111 19.031C170.654 18.6831 170.219 18.3123 169.738 17.9828L168.315 17.168L167.958 16.9391C167.839 16.8705 167.71 16.811 167.587 16.7469L166.845 16.3624C165.868 15.8653 164.858 15.4326 163.824 15.067C163.312 14.8931 162.79 14.7649 162.277 14.6093L161.508 14.3942C161.252 14.3255 160.986 14.2935 160.73 14.2477L159.192 13.9639C158.679 13.8907 158.162 13.8815 157.654 13.8357C156.651 13.7672 155.645 13.7672 154.642 13.8357C154.153 13.8559 153.665 13.9063 153.182 13.9868C152.702 14.0554 152.221 14.0921 151.754 14.1882L150.381 14.5086L149.699 14.6688C149.479 14.7329 149.264 14.8153 149.044 14.8839L147.753 15.3417C147.323 15.4744 146.934 15.6941 146.527 15.8635C146.119 16.0328 145.726 16.2159 145.341 16.4082L144.234 17.0398C141.611 18.5702 139.306 20.5903 137.445 22.9903C136.028 24.7917 134.892 26.7981 134.077 28.9408L133.82 29.5816C133.737 29.7796 133.666 29.983 133.61 30.1904C133.495 30.5932 133.39 30.9685 133.289 31.3164C133.189 31.6643 133.092 31.9847 133.024 32.2868C132.955 32.5889 132.919 32.8589 132.877 33.1061C132.786 33.5638 132.717 33.9575 132.671 34.2138C132.626 34.4701 132.584 34.5617 132.584 34.5617Z" fill="#263238"/>
<path d="M60.6982 42.3796C60.6982 42.4071 60.4236 42.4437 59.9842 42.6634C59.3708 42.9867 58.8709 43.4898 58.5515 44.1053C58.3263 44.5296 58.1981 44.9986 58.1762 45.4784C58.1591 46.0192 58.299 46.5534 58.5789 47.0164C58.8729 47.5674 59.3287 48.015 59.885 48.2988C60.4412 48.5827 61.0711 48.6891 61.6897 48.6038C62.3084 48.5185 62.886 48.2455 63.3446 47.8217C63.8033 47.3979 64.1209 46.8437 64.2548 46.2337C64.3975 45.7125 64.388 45.1613 64.2273 44.6454C64.0744 44.1977 63.8261 43.7885 63.4995 43.4461C63.025 42.9402 62.4067 42.5919 61.7281 42.4483C61.2704 42.3522 60.9683 42.3933 60.9683 42.3659C61.0316 42.3443 61.0982 42.3335 61.1651 42.3338C61.2472 42.3244 61.3302 42.3244 61.4123 42.3338C61.5243 42.3328 61.6361 42.342 61.7464 42.3613C62.4601 42.4745 63.1182 42.8148 63.6231 43.3317C63.9766 43.6878 64.247 44.1176 64.415 44.5904C64.5989 45.1405 64.618 45.7324 64.4699 46.2932C64.3112 46.9137 63.9831 47.4778 63.5224 47.9227C63.0371 48.4137 62.4061 48.7348 61.7235 48.8382C61.0359 48.9192 60.3403 48.7798 59.737 48.4399C59.1739 48.1355 58.7065 47.6807 58.3867 47.1263C58.0946 46.6262 57.9532 46.0524 57.9793 45.4739C58.0219 44.8641 58.2263 44.2767 58.5715 43.7723C58.9166 43.2678 59.3901 42.8645 59.943 42.6039C60.045 42.556 60.1506 42.5162 60.2588 42.4849C60.3359 42.457 60.4157 42.437 60.4968 42.4254C60.5608 42.3987 60.629 42.3832 60.6982 42.3796Z" fill="#263238"/>
<path d="M69.3859 49.7719C69.3859 49.7719 69.2166 49.8222 68.9282 49.9641C68.549 50.1744 68.2414 50.4932 68.0448 50.8796C67.8936 51.1538 67.8166 51.4627 67.8214 51.7758C67.8262 52.0889 67.9127 52.3953 68.0722 52.6647C68.2536 53.0041 68.5347 53.2797 68.8776 53.4543C69.2205 53.629 69.6088 53.6942 69.9899 53.6414C70.3711 53.5885 70.7269 53.42 71.0093 53.1586C71.2917 52.8972 71.4871 52.5555 71.5693 52.1795C71.6503 51.8777 71.6507 51.5599 71.5704 51.2578C71.49 50.9558 71.3318 50.6802 71.1116 50.4585C70.8191 50.1413 70.4379 49.9196 70.0176 49.8222C69.7155 49.7581 69.5599 49.7765 69.5599 49.7581C69.7176 49.7046 69.8869 49.6951 70.0496 49.7307C70.4356 49.7895 70.7984 49.9516 71.0998 50.1998C71.4012 50.4479 71.6298 50.773 71.7615 51.1405C71.881 51.4934 71.8953 51.8735 71.8027 52.2345C71.7128 52.6556 71.4953 53.0388 71.1799 53.332C70.8645 53.6252 70.4664 53.8142 70.0398 53.8732C69.6133 53.9322 69.1789 53.8584 68.7957 53.6618C68.4125 53.4653 68.0992 53.1555 67.8983 52.7746C67.7098 52.452 67.6207 52.081 67.642 51.7081C67.6691 51.3177 67.8007 50.9418 68.023 50.6197C68.2452 50.2976 68.55 50.0411 68.9053 49.8772C69.0533 49.7999 69.2192 49.7636 69.3859 49.7719Z" fill="#263238"/>
<path d="M35.6101 24.6472H34.1316L30.9275 20.1477V17.1999C30.9275 17.1999 28.6389 17.058 28.909 20.9213C29.179 24.7845 28.8861 23.8004 28.8861 23.8004C28.8861 23.8004 24.0341 23.8004 23.6313 24.2581C23.3384 24.5648 23.2057 29.3847 23.1736 31.9983C23.1422 32.6291 23.3224 33.2523 23.6856 33.7689C24.0488 34.2856 24.5743 34.6661 25.1785 34.8499C25.3488 34.895 25.5241 34.918 25.7003 34.9186C26.9133 34.9186 33.0926 33.9345 33.0926 33.9345H35.6467L35.6101 24.6472Z" fill="#ED7801"/>
<path d="M39.8442 23.837L38.9333 33.9437H36.402V24.0384L39.8442 23.837Z" fill="#ED7801"/>
<path d="M58.0755 26.0479C58.0755 26.0479 58.0755 25.9105 58.0389 25.6359C58.0022 25.3613 57.9977 24.9447 57.9656 24.4138C57.9656 24.1437 57.9336 23.8462 57.9153 23.4983C57.897 23.1504 57.8146 22.8117 57.7551 22.4227C57.6956 22.0336 57.6315 21.6171 57.5582 21.1685C57.5283 20.9375 57.4793 20.7094 57.4118 20.4865C57.3523 20.253 57.2882 20.0287 57.2241 19.7678C56.6281 17.3627 55.6712 15.0617 54.3862 12.9431C52.7011 10.1238 50.4898 7.65453 47.8727 5.66981L46.765 4.8459C46.3759 4.58957 45.964 4.35613 45.5612 4.10438L44.9478 3.73362C44.745 3.60017 44.5323 3.48235 44.3116 3.38117L42.9842 2.74492C42.7599 2.63965 42.5265 2.52521 42.3067 2.42451L41.5973 2.16361L40.1508 1.65553C39.6611 1.49533 39.1484 1.39005 38.6449 1.25273L37.8622 1.05591C37.734 1.02387 37.6059 0.987247 37.4731 0.959784L37.0795 0.900279C36.0105 0.702411 34.9293 0.577013 33.8433 0.524942C33.2895 0.524942 32.7356 0.451705 32.1726 0.46086L30.479 0.547828C30.1953 0.547828 29.9115 0.547829 29.6231 0.602756L28.7717 0.735496C28.2041 0.827042 27.6228 0.895701 27.0507 1.01471C25.9044 1.27435 24.776 1.60765 23.6726 2.01256L22.8258 2.32381C22.6839 2.37874 22.5375 2.42451 22.4001 2.48402L21.9882 2.68084L20.3358 3.48187C19.7957 3.77481 19.2784 4.11353 18.7429 4.43394C18.482 4.59872 18.2028 4.74062 17.951 4.93287L17.182 5.49587C16.159 6.25217 15.1879 7.07642 14.2755 7.96303L12.9755 9.38656L12.6505 9.74359C12.5498 9.87175 12.4537 10.0045 12.3576 10.1327L11.7717 10.9291L11.1812 11.7164L10.664 12.554L10.1513 13.4054L9.89501 13.8265C9.81719 13.973 9.74853 14.1286 9.6753 14.2843L8.80561 16.0877C8.57675 16.7194 8.34788 17.351 8.10987 17.9827C7.2692 20.5899 6.82483 23.3086 6.79161 26.0479C6.82644 28.784 7.27078 31.4994 8.10987 34.1039L8.80561 35.9989L9.67072 37.8023L9.89043 38.2601L10.1513 38.6857L10.664 39.5325L11.1812 40.3748L11.7717 41.1712L12.3576 41.9539L12.6505 42.343L12.9801 42.7046L14.28 44.1373C15.1919 45.0227 16.1614 45.8469 17.182 46.6044L17.9373 47.1674C18.1845 47.3551 18.4683 47.5016 18.7292 47.6664C19.2647 47.9868 19.7819 48.3255 20.3221 48.6185L21.9745 49.4149L22.3864 49.6163L22.8121 49.7765L23.6589 50.0878C24.7742 50.4942 25.9149 50.8275 27.0735 51.0856C27.6457 51.2046 28.227 51.2733 28.7946 51.3648L29.6506 51.4976C29.9343 51.5342 30.2181 51.5342 30.5019 51.5525L32.2001 51.6395C32.7585 51.6395 33.317 51.5937 33.8662 51.5754C34.9522 51.5233 36.0333 51.3979 37.1024 51.2L37.5006 51.1405L37.8622 51.0398L38.6312 50.843C39.1393 50.7057 39.6519 50.6004 40.1371 50.4356L41.579 49.9138L42.2884 49.6529L42.9659 49.3325L44.2933 48.6963C44.5131 48.5933 44.7257 48.4756 44.9295 48.3438L45.5429 47.9731C45.9503 47.7213 46.3576 47.4879 46.7467 47.2315L47.8544 46.4076C50.4787 44.4272 52.6965 41.9592 54.3862 39.1389C54.5739 38.8276 54.7615 38.5301 54.9355 38.2234C55.1094 37.9168 55.2376 37.6009 55.3932 37.308L55.8235 36.4154C55.8921 36.2689 55.9699 36.127 56.0294 35.9577L56.1942 35.5C56.4094 34.9186 56.6107 34.3602 56.8076 33.8292C57.0044 33.2983 57.0959 32.7673 57.2333 32.2775C57.2973 32.0304 57.3614 31.7924 57.4209 31.5589C57.4793 31.3428 57.5206 31.1224 57.5445 30.8998C57.6178 30.4421 57.6818 30.0393 57.7413 29.6502C57.8008 29.2611 57.8695 28.9041 57.9015 28.5745C57.9336 28.245 57.9382 27.9474 57.9519 27.6591C57.9839 27.1281 58.0114 26.7436 58.0251 26.4369C58.0389 26.1303 58.0617 26.0204 58.0617 26.0204C58.0617 26.0204 58.0617 26.1623 58.0617 26.4369C58.0617 26.7116 58.0343 27.1281 58.0114 27.6636C58.0114 27.9291 57.9839 28.2312 57.9702 28.5791C57.9565 28.927 57.8741 29.2657 57.8237 29.6548C57.7734 30.0438 57.7001 30.4649 57.6361 30.9135C57.6055 31.1455 57.5581 31.375 57.4942 31.6001C57.4347 31.8336 57.3752 32.0578 57.3111 32.3233C57.1783 32.8131 57.0731 33.3486 56.8945 33.8842C56.716 34.4197 56.4963 34.9781 56.2858 35.564L56.121 36.0218C56.0661 36.1682 55.9882 36.3101 55.9196 36.4795C55.7823 36.7724 55.6358 37.07 55.4893 37.395C55.3428 37.7199 55.1964 38.0083 55.0316 38.3104C54.8668 38.6125 54.6654 38.9192 54.4823 39.2259C52.7997 42.0641 50.585 44.5509 47.9597 46.5495L46.8657 47.378C46.4721 47.6389 46.0601 47.8724 45.6527 48.1287L45.0348 48.504C44.832 48.6375 44.6193 48.7553 44.3986 48.8565L43.062 49.5064C42.8331 49.6117 42.6043 49.7262 42.38 49.8269L41.6659 50.0923L40.2149 50.6233C39.7206 50.7881 39.2079 50.8934 38.6953 51.0353L37.9217 51.2367C37.7935 51.2687 37.6654 51.3053 37.5326 51.3328L37.1344 51.3923C36.0582 51.5955 34.9693 51.7239 33.8754 51.7768C33.317 51.7768 32.7585 51.8546 32.1909 51.8454L30.4836 51.763C30.1998 51.7402 29.9069 51.763 29.6231 51.7081L28.7626 51.5754C28.1858 51.4838 27.6045 51.4152 27.0232 51.2962C25.8549 51.0386 24.705 50.7037 23.5811 50.2937L22.7251 49.9779C22.5832 49.9275 22.4368 49.8772 22.2949 49.8177L21.8783 49.6209L20.2122 48.8153C19.6675 48.5223 19.1411 48.179 18.601 47.8586C18.3401 47.6893 18.0563 47.5474 17.8046 47.3551L17.0447 46.7875C16.0114 46.025 15.0311 45.193 14.1107 44.2975L12.797 42.8556L12.4674 42.494L12.1699 42.1004L11.5794 41.3085L10.9844 40.5121L10.4626 39.6653L9.94078 38.8093L9.67987 38.3791L9.46016 37.9213L8.58133 36.0904L7.881 34.1771C7.03381 31.5492 6.58634 28.8088 6.55359 26.0479C6.58598 23.2805 7.03502 20.5339 7.88558 17.9003C8.11902 17.2595 8.34331 16.6232 8.5859 15.987C8.8285 15.3508 9.17637 14.7694 9.46474 14.1561C9.53798 14.0096 9.60664 13.854 9.68445 13.6984L9.94536 13.2681L10.4672 12.4121L10.989 11.5653L11.5794 10.7689L12.1745 9.98161C12.2706 9.84887 12.3667 9.71612 12.472 9.58796L12.8016 9.22636L14.1153 7.77994C15.0364 6.8883 16.0149 6.05803 17.0447 5.29447L17.8046 4.72689C18.0563 4.53464 18.3401 4.39275 18.6056 4.22339C19.1457 3.90298 19.6675 3.55968 20.2122 3.26673L21.8829 2.46113L22.2949 2.26431C22.4368 2.2048 22.5832 2.15445 22.7251 2.1041L23.5811 1.78827C24.705 1.37826 25.8549 1.04338 27.0232 0.785846C27.5999 0.666837 28.1858 0.598178 28.7626 0.506632L29.6231 0.373892C29.9069 0.337274 30.1953 0.34185 30.4836 0.318963L32.1909 0.236572C32.754 0.236572 33.317 0.282346 33.8708 0.305232C34.9663 0.357808 36.0567 0.48628 37.1344 0.689724L37.5326 0.749229C37.6654 0.776693 37.7935 0.813311 37.9217 0.845352L38.6953 1.04675C39.2033 1.18407 39.7206 1.29393 40.2149 1.45871L41.6659 1.98967L42.38 2.25058L43.0574 2.57556L44.3986 3.22096C44.6185 3.32548 44.831 3.44476 45.0348 3.57799L45.6527 3.95333C46.0601 4.20508 46.4721 4.44309 46.8611 4.69942L47.9734 5.53707C50.6004 7.53528 52.8167 10.022 54.5006 12.8607C55.7828 14.9928 56.7321 17.3081 57.3157 19.7266C57.3797 19.9738 57.4392 20.2164 57.4987 20.4499C57.5626 20.675 57.6101 20.9044 57.6406 21.1364C57.7047 21.5942 57.7688 22.0061 57.8283 22.3952C57.8878 22.7843 57.9473 23.1413 57.9748 23.4709C58.0022 23.8004 58.0022 24.1025 58.016 24.3863C58.0389 24.9219 58.0526 25.3292 58.0663 25.6084C58.0801 25.8877 58.0755 26.0479 58.0755 26.0479Z" fill="#263238"/>
<path d="M99.1704 34.9781C99.0802 34.9758 98.9914 34.9556 98.909 34.9189C98.8266 34.8822 98.7522 34.8296 98.6902 34.7642C98.6281 34.6987 98.5795 34.6216 98.5473 34.5374C98.515 34.4532 98.4996 34.3634 98.5021 34.2732L98.6394 28.1534C98.6415 28.0475 98.6683 27.9436 98.7175 27.8498C98.7668 27.7561 98.8372 27.6751 98.9232 27.6133C99.0098 27.552 99.1093 27.5114 99.2141 27.4947C99.3188 27.4781 99.4261 27.4857 99.5274 27.5172C100.099 27.6834 100.698 27.7309 101.288 27.6569C101.879 27.5829 102.448 27.389 102.96 27.0869C103.437 26.8266 103.855 26.472 104.189 26.0446C104.524 25.6173 104.767 25.1262 104.906 24.6014C105.014 24.0682 105.014 23.5186 104.906 22.9854C104.797 22.4523 104.582 21.9464 104.274 21.498C103.959 20.9953 103.546 20.5614 103.059 20.2224C102.572 19.8834 102.022 19.6462 101.441 19.5252C99.1932 19.1087 96.7307 20.6055 95.948 22.8666C95.8873 23.039 95.7606 23.1802 95.5957 23.2592C95.4309 23.3382 95.2415 23.3485 95.0691 23.2878C94.8967 23.2271 94.7555 23.1004 94.6765 22.9356C94.5976 22.7707 94.5873 22.5813 94.648 22.4089C95.6459 19.5344 98.8042 17.6302 101.692 18.1658C102.455 18.3217 103.179 18.6299 103.82 19.0719C104.461 19.5139 105.006 20.0806 105.423 20.7382C105.849 21.3344 106.143 22.0149 106.285 22.7341C106.426 23.4532 106.412 24.1943 106.243 24.9076C106.075 25.6209 105.755 26.2898 105.307 26.8693C104.858 27.4489 104.291 27.9258 103.642 28.2678C102.536 28.9106 101.249 29.1712 99.9805 29.0094L99.8478 34.2915C99.8478 34.4721 99.7767 34.6453 99.65 34.7738C99.5232 34.9023 99.3509 34.9757 99.1704 34.9781Z" fill="#263238"/>
<path d="M100.232 37.9991C100.232 38.1984 100.173 38.3933 100.062 38.559C99.9514 38.7247 99.7938 38.8538 99.6096 38.9299C99.4253 39.0059 99.2226 39.0256 99.0271 38.9864C98.8317 38.9472 98.6522 38.8508 98.5116 38.7095C98.3709 38.5682 98.2754 38.3884 98.2371 38.1927C98.1987 37.9971 98.2193 37.7945 98.2962 37.6105C98.3732 37.4266 98.5029 37.2697 98.6691 37.1596C98.8353 37.0495 99.0305 36.9912 99.2298 36.9921C99.3619 36.9921 99.4926 37.0182 99.6145 37.0688C99.7364 37.1195 99.8471 37.1937 99.9403 37.2873C100.033 37.3809 100.107 37.4919 100.157 37.6141C100.207 37.7362 100.233 37.8671 100.232 37.9991Z" fill="#263238"/>
<path d="M24.0389 105.427C23.0116 105.438 22.0083 105.117 21.1781 104.512C20.6926 104.134 20.2874 103.664 19.9864 103.128C19.6853 102.592 19.4944 102.001 19.425 101.39C19.3352 100.814 19.3689 100.225 19.5237 99.6623C19.6786 99.1 19.9511 98.5769 20.3232 98.1278C20.6954 97.6786 21.1586 97.3136 21.6824 97.0569C22.2062 96.8002 22.7785 96.6576 23.3614 96.6386C24.3134 96.5775 25.261 96.8108 26.0758 97.3069L27.9067 93.8785C27.9488 93.7986 28.0062 93.7277 28.0756 93.6699C28.1451 93.6122 28.2253 93.5687 28.3115 93.5419C28.3978 93.5151 28.4885 93.5056 28.5785 93.5139C28.6685 93.5222 28.7559 93.5481 28.8359 93.5902C28.9158 93.6322 28.9867 93.6896 29.0444 93.7591C29.1022 93.8286 29.1457 93.9087 29.1725 93.995C29.1993 94.0813 29.2088 94.172 29.2005 94.262C29.1922 94.3519 29.1663 94.4394 29.1242 94.5193L26.9134 98.6435C26.8631 98.7372 26.7919 98.8181 26.7054 98.88C26.6189 98.9418 26.5194 98.9831 26.4145 99.0005C26.31 99.0183 26.2028 99.0109 26.1017 98.9791C26.0007 98.9472 25.9086 98.8918 25.8332 98.8174C25.5119 98.5244 25.1345 98.2999 24.7237 98.1575C24.3129 98.015 23.8775 97.9577 23.4438 97.9889C23.0499 98.0046 22.6633 98.1003 22.3076 98.2703C21.9519 98.4402 21.6345 98.6809 21.3749 98.9776C21.1332 99.2912 20.9568 99.65 20.8562 100.033C20.7556 100.416 20.7327 100.815 20.789 101.207C20.8317 101.637 20.9612 102.055 21.1697 102.434C21.3782 102.813 21.6613 103.146 22.002 103.413C22.7166 103.888 23.5712 104.106 24.4259 104.032C25.2807 103.958 26.085 103.596 26.7074 103.006C26.8387 102.885 27.0115 102.821 27.1895 102.825C27.3675 102.83 27.5367 102.904 27.6614 103.031C27.7861 103.158 27.8566 103.328 27.858 103.507C27.8593 103.685 27.7914 103.856 27.6687 103.985C26.6921 104.919 25.3902 105.436 24.0389 105.427Z" fill="#263238"/>
<path d="M29.0235 91.2695C29.0909 91.1331 29.1972 91.0198 29.3291 90.9439C29.4609 90.868 29.6123 90.8329 29.7641 90.8431C29.9158 90.8532 30.0612 90.9082 30.1818 91.0009C30.3023 91.0937 30.3926 91.2202 30.4413 91.3643C30.49 91.5084 30.4948 91.6637 30.4552 91.8106C30.4156 91.9575 30.3333 92.0893 30.2188 92.1894C30.1043 92.2895 29.9626 92.3534 29.8118 92.3729C29.6609 92.3925 29.5076 92.3669 29.3713 92.2994C29.1887 92.2089 29.0495 92.0496 28.9842 91.8564C28.919 91.6633 28.9331 91.4522 29.0235 91.2695Z" fill="#263238"/>
<path d="M162.611 93.874C162.502 93.8751 162.395 93.8499 162.297 93.8005C162.2 93.7511 162.116 93.6789 162.053 93.5902L159.307 89.791C159.244 89.7053 159.202 89.6059 159.184 89.5009C159.167 89.396 159.174 89.2884 159.206 89.1868C159.235 89.0829 159.289 88.9874 159.362 88.9079C159.435 88.8284 159.526 88.7672 159.627 88.7291C160.035 88.5771 160.408 88.3426 160.721 88.0401C161.035 87.7377 161.282 87.3739 161.449 86.9714C161.611 86.6126 161.698 86.2242 161.703 85.8304C161.709 85.4367 161.633 85.046 161.481 84.6828C161.309 84.3254 161.067 84.0065 160.769 83.7453C160.471 83.4842 160.123 83.2861 159.746 83.1631C159.341 83.0116 158.909 82.9433 158.476 82.9621C158.044 82.981 157.619 83.0867 157.229 83.273C156.487 83.7011 155.913 84.3675 155.599 85.1638C155.285 85.96 155.249 86.8391 155.498 87.658C155.555 87.831 155.541 88.0196 155.459 88.1822C155.377 88.3449 155.234 88.4683 155.061 88.5254C154.888 88.5825 154.7 88.5684 154.537 88.4865C154.374 88.4045 154.251 88.2613 154.194 88.0883C153.838 86.9564 153.882 85.7364 154.32 84.6335C154.757 83.5306 155.561 82.6121 156.597 82.0325C157.154 81.7638 157.76 81.6098 158.378 81.58C158.996 81.5501 159.614 81.6448 160.195 81.8586C160.746 82.0435 161.255 82.3379 161.689 82.7241C162.124 83.1103 162.477 83.5803 162.726 84.106C162.957 84.6408 163.076 85.2171 163.076 85.7996C163.076 86.3821 162.957 86.9585 162.726 87.4932C162.357 88.3719 161.73 89.1175 160.927 89.6308L163.216 92.7708C163.269 92.8441 163.307 92.9271 163.328 93.0151C163.349 93.1032 163.352 93.1945 163.338 93.2838C163.323 93.3731 163.291 93.4587 163.244 93.5356C163.196 93.6126 163.134 93.6793 163.06 93.7321C162.932 93.8314 162.773 93.8818 162.611 93.874Z" fill="#263238"/>
<path d="M164.983 94.9542C165.074 95.0753 165.128 95.2209 165.137 95.3725C165.146 95.5242 165.11 95.6751 165.034 95.8063C164.957 95.9375 164.843 96.0431 164.707 96.1097C164.57 96.1762 164.417 96.2009 164.266 96.1805C164.116 96.1601 163.974 96.0955 163.861 95.995C163.747 95.8944 163.665 95.7624 163.626 95.6155C163.587 95.4686 163.593 95.3135 163.642 95.1698C163.691 95.026 163.782 94.9 163.902 94.8077C164.065 94.6846 164.27 94.6309 164.473 94.6583C164.675 94.6858 164.858 94.7921 164.983 94.9542Z" fill="#263238"/>
</svg>
