<svg width="488" height="500" viewBox="0 0 488 500" fill="none" xmlns="http://www.w3.org/2000/svg">
<path d="M369.071 172.721C362.698 181.27 353.934 187.738 343.886 191.307C333.839 194.875 322.959 195.385 312.621 192.772C302.284 190.158 292.953 184.539 285.809 176.624C278.665 168.708 274.028 158.853 272.484 148.302C270.94 137.752 272.558 126.981 277.135 117.35C281.711 107.72 289.04 99.6623 298.195 94.1961C307.35 88.73 317.92 86.1007 328.569 86.6406C339.218 87.1806 349.467 90.8655 358.022 97.2296H358.082C363.763 101.463 368.554 106.775 372.18 112.861C375.807 118.947 378.199 125.688 379.22 132.699C380.24 139.709 379.869 146.852 378.128 153.72C376.386 160.587 373.309 167.044 369.071 172.721Z" fill="#F0F0F0"/>
<path d="M358.777 165.04C353.919 171.562 347.235 176.496 339.572 179.219C331.909 181.941 323.611 182.33 315.727 180.336C307.842 178.342 300.727 174.054 295.28 168.015C289.833 161.977 286.299 154.458 285.125 146.411C283.952 138.364 285.191 130.149 288.687 122.806C292.182 115.463 297.777 109.322 304.763 105.16C311.75 100.997 319.813 98.9994 327.935 99.42C336.056 99.8407 343.871 102.661 350.389 107.523C354.719 110.747 358.372 114.793 361.137 119.429C363.902 124.065 365.727 129.201 366.506 134.543C367.285 139.885 367.003 145.328 365.677 150.561C364.351 155.794 362.006 160.714 358.777 165.04Z" fill="#F5F5F5"/>
<path d="M359.544 163.986C359.341 163.854 360.275 162.296 361.629 159.384C363.538 155.294 364.803 150.932 365.38 146.455C365.751 143.384 365.787 140.283 365.488 137.204C365.135 133.688 364.33 130.232 363.091 126.923C361.738 123.27 359.843 119.84 357.471 116.75C356.235 115.104 354.869 113.562 353.385 112.136C351.852 110.677 350.218 109.328 348.496 108.098C346.746 106.904 344.916 105.831 343.02 104.887C341.173 103.983 339.258 103.226 337.292 102.622C335.398 102.023 333.458 101.579 331.492 101.292C329.61 100.99 327.707 100.838 325.801 100.836C322.268 100.779 318.744 101.181 315.316 102.035C312.321 102.804 309.419 103.901 306.664 105.306C302.656 107.382 298.994 110.066 295.808 113.263C293.531 115.539 292.405 116.953 292.213 116.857C292.021 116.762 292.848 115.096 294.909 112.496C297.884 108.829 301.512 105.746 305.61 103.401C311.755 99.866 318.711 97.9834 325.801 97.9365C329.995 97.8889 334.172 98.4747 338.191 99.674C340.32 100.309 342.395 101.11 344.398 102.071C346.448 103.076 348.423 104.229 350.305 105.522C352.164 106.853 353.926 108.315 355.578 109.895C357.168 111.441 358.631 113.112 359.952 114.892C361.239 116.604 362.381 118.419 363.367 120.32C367.677 128.429 369.173 137.739 367.621 146.79C366.822 151.446 365.173 155.914 362.756 159.972C360.982 162.787 359.688 164.106 359.544 163.986Z" fill="#E0E0E0"/>
<path d="M314.896 162.859L310.69 168.647L305.562 164.897L309.648 159.253C304.759 155.226 300.996 150.062 299.774 145.772L307.191 141.518C308.658 145.748 311.202 149.523 314.573 152.47L320.84 143.831C316.107 138.271 311.074 131.692 316.442 124.299C320.42 118.811 327.826 116.989 336.681 121.986L340.851 116.246L346.028 119.997L341.882 125.641C345.437 128.534 348.254 132.23 350.102 136.425L342.912 140.919C341.486 137.756 339.45 134.905 336.921 132.531L330.546 141.219C335.339 146.731 340.24 153.201 334.944 160.523C331.049 165.963 323.728 167.76 314.896 162.859ZM326.304 136.222L331.636 128.876C328.449 127.498 326.268 128.217 325.034 129.931C323.8 131.644 324.554 133.849 326.304 136.222ZM326.16 155.155C327.478 153.345 326.687 151.272 325.034 148.876L319.845 156.065C322.853 157.335 324.962 156.796 326.16 155.155Z" fill="#E0E0E0"/>
<path d="M176.04 252.467C177.83 264.647 175.967 277.085 170.688 288.207C165.408 299.329 156.949 308.635 146.38 314.948C135.811 321.262 123.607 324.299 111.311 323.676C99.016 323.053 87.1815 318.797 77.3051 311.447C67.4286 304.097 59.9538 293.983 55.826 282.384C51.6983 270.786 51.1031 258.224 54.1158 246.287C57.1284 234.35 63.6136 223.574 72.7509 215.324C81.8883 207.073 93.2673 201.717 105.449 199.934H105.569C113.647 198.751 121.879 199.171 129.795 201.17C137.711 203.169 145.155 206.707 151.704 211.583C158.252 216.459 163.776 222.577 167.96 229.588C172.143 236.598 174.905 244.365 176.087 252.443L176.04 252.467Z" fill="#F0F0F0"/>
<path d="M161.385 254.588C162.756 263.868 161.344 273.345 157.329 281.823C153.313 290.3 146.874 297.397 138.825 302.214C130.777 307.032 121.48 309.355 112.111 308.889C102.743 308.424 93.7222 305.19 86.1911 299.598C78.6599 294.006 72.9562 286.306 69.8011 277.472C66.6461 268.638 66.1814 259.067 68.4659 249.969C70.7504 240.871 75.6814 232.655 82.6355 226.36C89.5895 220.064 98.2542 215.972 107.534 214.601H107.642C120.07 212.781 132.713 215.97 142.791 223.468C152.869 230.967 159.557 242.16 161.385 254.588Z" fill="#F5F5F5"/>
<path d="M161.157 253.126C160.869 253.126 160.378 251.149 159.096 247.662C157.31 242.769 154.78 238.182 151.595 234.061C149.393 231.255 146.894 228.696 144.141 226.428C140.975 223.86 137.491 221.709 133.776 220.03C131.773 219.118 129.707 218.353 127.593 217.741C125.397 217.091 123.153 216.615 120.883 216.315C118.532 215.993 116.16 215.857 113.789 215.907C111.347 215.965 108.912 216.197 106.503 216.602C104.103 217.055 101.737 217.672 99.4214 218.448C97.175 219.226 94.9916 220.175 92.8908 221.288C90.8645 222.336 88.9216 223.537 87.0791 224.883C85.3043 226.18 83.6299 227.61 82.0703 229.16C79.1595 232.018 76.6301 235.24 74.5451 238.747C72.7322 241.814 71.2653 245.074 70.1714 248.465C68.5918 253.429 67.7835 258.606 67.7748 263.815C67.7748 267.529 68.0145 269.602 67.7748 269.65C67.5351 269.698 66.8521 267.697 66.4088 263.887C65.8457 258.472 66.2885 253 67.7149 247.746C69.8395 239.849 73.9669 232.634 79.6977 226.8C81.3409 225.101 83.1159 223.534 85.0061 222.115C88.9996 219.066 93.4476 216.664 98.1872 214.997C100.68 214.132 103.236 213.463 105.832 212.996C108.431 212.553 111.058 212.3 113.693 212.241C116.254 212.217 118.814 212.385 121.35 212.744C123.785 213.101 126.189 213.646 128.54 214.374C130.801 215.058 133.004 215.919 135.13 216.95C139.067 218.847 142.73 221.266 146.023 224.14C148.875 226.621 151.417 229.438 153.596 232.528C156.753 236.964 159.057 241.95 160.39 247.23C161.337 250.969 161.361 253.09 161.157 253.126Z" fill="#E0E0E0"/>
<path d="M123.818 288.607L125.125 296.768L117.851 297.966L116.581 290.033C109.295 290.752 102.01 289.602 97.5041 287.109L100.092 277.583C104.741 279.82 109.888 280.819 115.035 280.483L113.082 268.308C104.694 267.649 95.2274 266.391 93.5618 255.978C92.3635 248.261 96.8691 240.736 108.169 237.584L106.875 229.496L114.16 228.298L115.43 236.23C120.684 235.681 125.994 236.383 130.924 238.279L128.719 247.866C124.975 246.417 120.978 245.733 116.964 245.853L118.953 258.243C127.341 258.842 136.652 260.112 138.294 270.381C139.528 277.978 135.034 285.42 123.818 288.607ZM111.44 257.608L109.775 247.267C106.06 248.752 104.862 251.113 105.245 253.522C105.628 255.93 108.013 257.104 111.44 257.608ZM126.778 273.185C126.359 270.633 124.034 269.591 120.787 268.991L122.392 279.045C125.82 277.631 127.102 275.45 126.73 273.161L126.778 273.185Z" fill="#E0E0E0"/>
<path d="M302.039 36.2971C300.941 42.2785 298.095 47.8001 293.859 52.1637C289.624 56.5274 284.189 59.5371 278.243 60.8122C272.297 62.0874 266.106 61.5707 260.454 59.3276C254.802 57.0845 249.941 53.2156 246.488 48.2102C243.034 43.2049 241.142 37.2878 241.051 31.2072C240.96 25.1267 242.675 19.1557 245.977 14.0494C249.28 8.94309 254.022 4.93076 259.605 2.51978C265.188 0.108792 271.361 -0.592561 277.342 0.5044H277.414C281.379 1.23393 285.162 2.73773 288.546 4.92985C291.93 7.12197 294.849 9.95944 297.136 13.2801C299.423 16.6008 301.033 20.3395 301.874 24.2827C302.715 28.2259 302.771 32.2963 302.039 36.2611V36.2971Z" fill="#F0F0F0"/>
<path d="M294.849 34.955C294.012 39.5119 291.843 43.7184 288.615 47.0426C285.388 50.3667 281.247 52.6591 276.717 53.63C272.187 54.6009 267.47 54.2067 263.164 52.4971C258.858 50.7876 255.155 47.8395 252.524 44.0257C249.894 40.2119 248.453 35.7036 248.384 31.0709C248.315 26.4383 249.622 21.8893 252.139 17.9992C254.655 14.1091 258.269 11.0526 262.523 9.21615C266.776 7.37973 271.479 6.84587 276.036 7.68209C279.063 8.23591 281.951 9.38093 284.535 11.0517C287.119 12.7224 289.348 14.8861 291.096 17.419C292.843 19.952 294.074 22.8045 294.718 25.8134C295.362 28.8224 295.406 31.9288 294.849 34.955Z" fill="#F5F5F5"/>
<path d="M294.969 34.236C294.845 33.2785 294.817 32.3111 294.885 31.3481C294.836 28.7761 294.395 26.2265 293.579 23.7869C293.001 22.1116 292.241 20.5043 291.314 18.9938C290.238 17.2915 288.95 15.7332 287.48 14.3565C286.692 13.6045 285.847 12.9154 284.951 12.2954C284.014 11.6493 283.024 11.0841 281.992 10.6058C280.945 10.0787 279.86 9.63401 278.744 9.27576C277.591 8.91568 276.414 8.63936 275.221 8.44894C274.031 8.27136 272.83 8.18324 271.626 8.18532C270.454 8.1853 269.284 8.28149 268.127 8.47291C267.01 8.64298 265.908 8.90346 264.832 9.25179C263.792 9.57303 262.779 9.97363 261.8 10.4501C258.378 12.1013 255.414 14.5707 253.173 17.6398C251.626 19.7068 250.413 22.0034 249.578 24.446C249.349 25.382 249.028 26.2931 248.619 27.1661C248.498 26.1862 248.597 25.1916 248.907 24.2543C249.495 21.6283 250.573 19.1364 252.082 16.9088C253.108 15.3608 254.315 13.9408 255.677 12.6789C257.274 11.2491 259.055 10.0401 260.974 9.08403C262.012 8.55132 263.09 8.09865 264.197 7.72997C265.371 7.34451 266.573 7.0481 267.792 6.84325C269.039 6.6295 270.301 6.5173 271.566 6.50773C274.179 6.48517 276.778 6.88993 279.259 7.70601C280.472 8.05803 281.654 8.50683 282.794 9.04808C284.919 10.1402 286.869 11.5415 288.582 13.2061C291.468 16.0378 293.598 19.5479 294.777 23.4155C295.546 25.9931 295.83 28.6908 295.616 31.3721C295.607 32.3619 295.386 33.3383 294.969 34.236Z" fill="#E0E0E0"/>
<path d="M271.866 44.9008L271.171 48.951L267.576 48.3398L268.247 44.4215C265.071 43.7761 262.14 42.2525 259.787 40.0238L262.507 35.9736C264.327 37.767 266.581 39.0555 269.05 39.7122L270.069 33.7208C266.246 32.0672 262.016 29.9822 262.879 24.8415C263.526 21.031 266.845 18.239 272.633 18.5625L273.316 14.5723L276.911 15.1834L276.24 19.1018C278.789 19.6966 281.16 20.8921 283.154 22.5888L280.602 26.6989C279.103 25.3902 277.354 24.3995 275.461 23.787L274.406 29.9223C278.241 31.5399 282.387 33.613 281.524 38.6817C280.901 42.4203 277.618 45.1884 271.866 44.9008ZM270.979 28.4124L271.854 23.3077C269.877 23.4156 268.942 24.3263 268.739 25.5126C268.535 26.6989 269.493 27.6455 270.979 28.4124ZM275.689 38.1664C275.892 36.9681 274.97 36.0455 273.52 35.2426L272.669 40.1915C274.538 40.0717 275.485 39.2808 275.689 38.1664Z" fill="#E0E0E0"/>
<path d="M488 498.857C488 499.037 333.23 499.169 230.166 499.169C127.102 499.169 0 499.037 0 498.857C0 498.678 127.018 498.546 230.166 498.546C333.314 498.546 488 498.69 488 498.857Z" fill="#263238"/>
<path d="M89.6075 449.896C110.17 435.516 114.843 408.855 114.028 384.877C113.897 380.875 114.328 376.657 112.435 373.134C110.541 369.611 106.084 367.226 102.501 368.916C99.5292 370.318 98.2351 373.769 96.5695 376.633C94.3394 380.442 91.0843 383.547 87.175 385.596C84.6346 386.914 81.4831 387.729 78.9667 386.339C75.5157 384.434 75.1083 379.665 75.1322 375.686C75.1802 368.265 75.2241 360.844 75.264 353.422C75.264 349.444 75.264 345.382 74.0658 341.607C72.8675 337.833 70.0875 334.31 66.3009 333.219C62.5143 332.129 57.829 334.346 57.0382 338.24C56.8846 339.885 56.8445 341.538 56.9184 343.189C56.8105 344.843 56.0436 346.676 54.5218 347.131C53 347.587 51.3344 346.472 50.1481 345.31C46.038 341.284 43.246 336.107 40.6457 330.93C38.0454 325.754 35.5051 320.505 31.7784 316.12C28.0518 311.734 22.8992 308.259 17.1953 307.935C11.4915 307.612 5.41623 311.135 4.01424 316.731C2.61225 322.327 5.84761 328.043 9.40651 332.584C14.6936 339.323 20.9249 345.263 27.908 350.223C29.2697 350.967 30.3542 352.131 30.9995 353.542C31.8623 356.202 29.3579 358.838 26.7337 359.713C23.7619 360.696 20.5505 360.384 17.447 360.756C14.3434 361.127 10.9763 362.493 9.80194 365.417C8.17228 369.491 11.5754 373.805 14.9186 376.549C21.6264 382.143 29.2468 386.541 37.4463 389.55C40.3821 390.629 43.4377 391.564 45.8343 393.625C48.2308 395.686 49.6208 399.256 48.2308 402.013C46.8408 404.769 43.1381 405.715 40.0705 405.152C37.0029 404.589 34.2589 402.911 31.3351 401.809C25.8709 399.748 18.801 400.119 15.3021 404.852C12.9894 407.956 12.7976 412.294 13.96 415.996C15.2806 419.643 17.3178 422.988 19.9514 425.834C28.6268 436.245 39.9059 444.171 52.6405 448.805C65.3303 453.203 77.0854 454.389 89.7033 449.776" fill="#D64D54"/>
<path d="M9.68211 311.375C9.79136 311.52 9.92044 311.649 10.0656 311.758L11.2638 312.812C12.3063 313.735 13.8401 315.089 15.7694 316.899C21.2445 321.98 26.3277 327.468 30.9756 333.315C33.9473 337.006 36.967 341.176 40.2383 345.717C43.5096 350.259 46.8648 355.16 50.2559 360.432C53.8319 365.923 57.108 371.603 60.0698 377.448C61.6036 380.491 62.9817 383.667 64.3717 386.914L68.6016 396.788C74.0413 409.294 78.774 422.096 82.7773 435.133C86.01 445.789 88.2327 456.726 89.4157 467.798C90.1924 475.266 90.3167 482.788 89.7872 490.278C89.5835 492.938 89.3798 494.987 89.1881 496.377C89.1162 497.048 89.0563 497.575 89.0083 497.959C88.9963 498.142 88.9963 498.327 89.0083 498.51C89.0558 498.333 89.0918 498.153 89.1162 497.971C89.1735 497.443 89.2615 496.919 89.3798 496.401C89.6075 495.011 89.8591 492.962 90.1107 490.302C90.7519 482.796 90.7037 475.247 89.9669 467.75C88.8577 456.63 86.6787 445.643 83.4603 434.941C79.4691 421.85 74.7281 408.999 69.2607 396.452L65.0307 386.579C63.6287 383.331 62.2507 380.12 60.7049 377.064C57.7219 371.207 54.4176 365.518 50.8071 360.025C47.392 354.74 43.9649 349.863 40.7296 345.322C37.4942 340.78 34.3667 336.622 31.371 332.944C26.6694 327.112 21.5126 321.663 15.9491 316.647C13.9839 314.873 12.4262 313.543 11.3477 312.669L10.1494 311.662L9.68211 311.375Z" fill="#263238"/>
<path d="M60.4893 377.052C60.6799 376.5 60.8125 375.93 60.8847 375.351C61.0884 374.248 61.34 372.655 61.6156 370.665C62.1788 366.711 62.8139 361.211 63.4011 355.088C63.9882 348.965 64.6952 343.548 65.3183 339.606C65.6179 337.629 65.8815 336.011 66.0852 334.933C66.2232 334.368 66.2956 333.789 66.3009 333.207C66.083 333.745 65.9185 334.303 65.8096 334.873C65.522 335.963 65.1745 337.545 64.815 339.51C64.0481 343.452 63.3052 348.941 62.6701 355.016C62.035 361.091 61.4718 366.412 61.1004 370.594C60.9086 372.463 60.7409 374.033 60.5971 375.303C60.5012 375.881 60.465 376.467 60.4893 377.052Z" fill="#263238"/>
<path d="M9.31065 367.49C9.98133 367.629 10.663 367.71 11.3477 367.73C12.6658 367.849 14.5711 368.005 16.9078 368.281C21.593 368.784 28.0518 369.707 35.1216 371.037C42.1915 372.367 48.5424 373.877 53.0958 375.087C55.3846 375.674 57.2179 376.201 58.5001 376.561C59.1472 376.784 59.8129 376.948 60.4892 377.052C59.882 376.732 59.2436 376.475 58.584 376.285C57.3857 375.842 55.5164 375.243 53.2396 374.584C48.6982 373.242 42.3473 371.66 35.2654 370.318C29.2147 369.147 23.1072 368.291 16.9677 367.754C14.5711 367.55 12.7018 367.466 11.3837 367.442C10.6931 367.38 9.99766 367.396 9.31065 367.49Z" fill="#263238"/>
<path d="M82.7892 433.923C82.9355 433.734 83.0527 433.524 83.1367 433.3L84.0115 431.454C84.7664 429.837 85.7969 427.476 87.0312 424.552C89.4996 418.681 92.6511 410.472 96.0183 401.377C99.3855 392.282 102.453 384.038 104.79 378.143L107.594 371.145C107.893 370.39 108.133 369.755 108.337 369.24C108.444 369.025 108.517 368.794 108.552 368.557C108.406 368.746 108.289 368.956 108.205 369.18L107.33 371.037C106.575 372.643 105.545 375.003 104.31 377.939C101.842 383.799 98.6904 392.007 95.3233 401.114C91.9561 410.221 88.8885 418.441 86.5519 424.348L83.7479 431.334L83.0049 433.24C82.8975 433.455 82.8247 433.685 82.7892 433.923Z" fill="#263238"/>
<path d="M14.7748 412.03C14.9852 412.151 15.2109 412.244 15.4458 412.306L17.423 412.965L24.7086 415.361C30.8557 417.363 39.3156 420.154 48.6742 423.378C58.0328 426.601 66.5166 429.369 72.7117 431.191C75.8152 432.125 78.3197 432.856 80.0691 433.324L82.0823 433.851C82.3155 433.925 82.557 433.969 82.8012 433.983C82.5866 433.861 82.357 433.769 82.1182 433.707L80.153 433.048L72.8675 430.651C66.7203 428.65 58.2604 425.858 48.9019 422.635C39.5433 419.412 31.0594 416.644 24.9362 414.834C21.8327 413.899 19.3283 413.169 17.5788 412.689L15.5777 412.162C15.3174 412.081 15.0472 412.037 14.7748 412.03Z" fill="#263238"/>
<path d="M284.999 439.039L151.99 438.428C148.187 438.411 144.424 437.645 140.917 436.173C137.409 434.702 134.226 432.554 131.549 429.852C128.872 427.151 126.753 423.948 125.313 420.427C123.874 416.907 123.142 413.137 123.159 409.334L124.621 75.9002C124.659 68.2167 127.746 60.8626 133.204 55.4543C138.662 50.0459 146.044 47.0258 153.728 47.0576L286.737 47.6687C294.419 47.7036 301.773 50.7881 307.182 56.244C312.591 61.7 315.611 69.0806 315.579 76.763L314.165 410.197C314.151 414.001 313.388 417.764 311.918 421.273C310.449 424.782 308.302 427.966 305.601 430.645C302.9 433.323 299.698 435.443 296.178 436.884C292.657 438.324 288.887 439.057 285.083 439.039H284.999Z" fill="#263238"/>
<path d="M286.485 59.1842L260.71 59.0644C259.87 59.0785 259.04 59.2579 258.269 59.5925C257.498 59.9271 256.801 60.4104 256.217 61.0146C255.633 61.6188 255.173 62.3322 254.865 63.114C254.556 63.8958 254.405 64.7307 254.419 65.5711V70.2563C254.448 71.9546 253.802 73.595 252.622 74.8172C251.443 76.0393 249.826 76.7435 248.128 76.775L197.872 76.5353C196.175 76.4883 194.565 75.771 193.395 74.5405C192.226 73.31 191.59 71.6662 191.629 69.9688V65.2835C191.671 63.5871 191.039 61.9434 189.871 60.7125C188.703 59.4816 187.094 58.764 185.398 58.7169H176.327L153.763 58.5372C151.099 58.5261 148.459 59.0399 145.994 60.0493C143.528 61.0586 141.285 62.5437 139.394 64.4197C137.502 66.2957 135.999 68.526 134.969 70.9831C133.939 73.4402 133.404 76.0761 133.393 78.7402L132.015 404.193C132.014 409.565 134.136 414.719 137.917 418.535C141.699 422.35 146.834 424.517 152.206 424.564L284.939 425.175C290.319 425.194 295.486 423.077 299.305 419.289C303.125 415.501 305.285 410.352 305.31 404.972L306.688 79.5191C306.701 74.1448 304.581 68.9852 300.793 65.1727C297.005 61.3602 291.859 59.2064 286.485 59.1842Z" fill="white"/>
<path d="M256.336 220.137H170.851V302.483H256.336V220.137Z" fill="#D64D54"/>
<path d="M194.421 197.19L170.839 220.137H256.324L272.669 197.19H194.421Z" fill="#D64D54"/>
<path opacity="0.1" d="M194.421 197.19L170.839 220.137H256.324L272.669 197.19H194.421Z" fill="black"/>
<path d="M256.324 302.471L272.669 279.225V197.19L256.324 220.137V302.471Z" fill="#D64D54"/>
<path opacity="0.3" d="M256.324 302.471L272.669 279.225V197.19L256.324 220.137V302.471Z" fill="black"/>
<path d="M233.964 254.324H189.34V259.381H233.964V254.324Z" fill="#D64D54"/>
<path opacity="0.2" d="M233.964 254.324H189.34V259.381H233.964V254.324Z" fill="black"/>
<path d="M225.9 263.168H197.417V267.937H225.9V263.168Z" fill="#D64D54"/>
<path opacity="0.2" d="M225.9 263.168H197.417V267.937H225.9V263.168Z" fill="black"/>
<path d="M188.274 193.943C188.163 192.903 187.991 191.871 187.759 190.851C187.016 188.087 185.366 185.652 183.073 183.937C181.517 182.754 179.702 181.957 177.777 181.613C175.572 181.22 173.302 181.418 171.198 182.188C170.06 182.588 168.992 183.167 168.035 183.901C167.02 184.642 166.13 185.54 165.399 186.562C163.818 188.7 162.964 191.29 162.964 193.949C162.964 196.609 163.818 199.198 165.399 201.336C166.859 203.334 168.877 204.855 171.198 205.71C173.17 206.43 175.29 206.646 177.366 206.339C179.442 206.031 181.408 205.209 183.085 203.949C185.371 202.235 187.017 199.805 187.759 197.047C187.991 196.023 188.163 194.987 188.274 193.943C188.357 195.006 188.264 196.074 187.998 197.106C187.329 199.966 185.69 202.507 183.361 204.296C180.857 206.22 177.742 207.174 174.59 206.981C171.438 206.788 168.463 205.463 166.212 203.248C163.961 201.034 162.586 198.08 162.342 194.932C162.098 191.784 163.001 188.653 164.884 186.118C166.346 184.129 168.343 182.596 170.642 181.697C172.942 180.798 175.449 180.569 177.873 181.038C180.315 181.507 182.569 182.672 184.365 184.392C186.161 186.111 187.423 188.313 187.998 190.732C188.269 191.779 188.363 192.865 188.274 193.943Z" fill="#263238"/>
<path d="M169.725 192.17C169.725 190.372 170.731 189.174 172.217 189.174C173.703 189.174 174.709 190.372 174.709 192.17C174.709 193.967 173.679 195.165 172.217 195.165C171.852 195.145 171.495 195.05 171.168 194.886C170.841 194.721 170.552 194.492 170.318 194.21C170.084 193.929 169.911 193.603 169.809 193.252C169.707 192.901 169.678 192.532 169.725 192.17ZM173.919 192.17C173.919 190.732 173.236 189.881 172.217 189.881C171.198 189.881 170.515 190.744 170.515 192.17C170.515 193.595 171.174 194.446 172.217 194.446C173.26 194.446 173.919 193.595 173.919 192.17ZM178.891 189.246H179.826L172.289 200.282H171.354L178.891 189.246ZM176.495 197.37C176.495 195.573 177.525 194.374 178.987 194.374C180.449 194.374 181.48 195.573 181.48 197.37C181.48 199.167 180.473 200.366 178.987 200.366C177.501 200.366 176.483 199.167 176.483 197.37H176.495ZM180.689 197.37C180.689 195.944 180.03 195.081 178.987 195.081C177.945 195.081 177.286 195.932 177.286 197.37C177.286 198.808 177.969 199.647 178.987 199.647C180.006 199.647 180.677 198.736 180.677 197.37H180.689Z" fill="#263238"/>
<path d="M242.904 330.331C242.904 332.728 241.166 334.765 237.332 334.765C235.525 334.8 233.749 334.299 232.227 333.327L233.425 330.93C234.538 331.721 235.871 332.14 237.236 332.129C238.782 332.129 239.74 331.482 239.74 330.391C239.74 329.301 239.057 328.642 236.625 328.642H233.198L233.893 321.116H242.053V323.597H236.469L236.265 326.137H237.356C241.334 326.173 242.904 327.959 242.904 330.331Z" fill="#263238"/>
<path d="M244.162 327.839C244.162 323.417 246.618 320.913 249.902 320.913C253.185 320.913 255.641 323.417 255.641 327.839C255.641 332.26 253.245 334.765 249.902 334.765C246.558 334.765 244.162 332.26 244.162 327.839ZM252.55 327.839C252.55 324.795 251.483 323.537 249.926 323.537C248.368 323.537 247.325 324.795 247.325 327.839C247.325 330.882 248.404 332.141 249.926 332.141C251.447 332.141 252.526 330.882 252.526 327.839H252.55Z" fill="#263238"/>
<path d="M263.622 324.076C263.699 324.774 263.497 325.474 263.059 326.022C262.62 326.57 261.983 326.922 261.285 327C261.138 327.012 260.989 327.012 260.842 327C260.315 327.011 259.794 326.883 259.332 326.629L259.799 325.706C260.107 325.899 260.467 325.991 260.83 325.97C261.213 325.993 261.589 325.863 261.876 325.609C262.164 325.355 262.339 324.998 262.364 324.616C262.376 324.54 262.376 324.463 262.364 324.388C261.991 324.725 261.5 324.902 260.998 324.879C260.772 324.899 260.544 324.874 260.328 324.806C260.112 324.738 259.911 324.627 259.738 324.482C259.564 324.336 259.421 324.157 259.316 323.956C259.212 323.755 259.148 323.535 259.128 323.309V323.178C259.135 322.932 259.189 322.69 259.289 322.466C259.388 322.241 259.531 322.039 259.71 321.87C259.888 321.701 260.097 321.568 260.326 321.48C260.556 321.392 260.8 321.35 261.046 321.356H261.225C262.735 321.38 263.622 322.315 263.622 324.076ZM262.22 323.13C262.214 322.908 262.121 322.698 261.962 322.544C261.803 322.389 261.591 322.303 261.369 322.303H261.225C261.117 322.281 261.005 322.281 260.896 322.303C260.788 322.325 260.685 322.369 260.593 322.432C260.502 322.495 260.424 322.575 260.365 322.668C260.305 322.762 260.265 322.866 260.246 322.975C260.228 323.085 260.232 323.197 260.257 323.304C260.283 323.412 260.33 323.514 260.395 323.603C260.461 323.692 260.544 323.767 260.639 323.824C260.734 323.881 260.84 323.918 260.95 323.933H261.225C261.334 323.951 261.445 323.949 261.553 323.925C261.66 323.901 261.762 323.856 261.852 323.792C261.942 323.729 262.019 323.648 262.078 323.555C262.137 323.462 262.177 323.358 262.196 323.25C262.202 323.206 262.202 323.161 262.196 323.118L262.22 323.13Z" fill="#263238"/>
<path d="M268.619 324.076C268.696 324.774 268.494 325.473 268.055 326.022C267.617 326.57 266.979 326.922 266.282 327C266.135 327.012 265.986 327.012 265.839 327C265.312 327.011 264.791 326.883 264.329 326.629L264.82 325.754C265.123 325.948 265.48 326.04 265.839 326.017C266.027 326.032 266.216 326.009 266.396 325.95C266.575 325.891 266.741 325.797 266.884 325.673C267.026 325.549 267.143 325.399 267.227 325.229C267.311 325.06 267.36 324.876 267.373 324.687C267.384 324.604 267.384 324.519 267.373 324.436C267.192 324.606 266.979 324.737 266.746 324.822C266.514 324.906 266.266 324.942 266.018 324.927C265.791 324.947 265.562 324.921 265.344 324.853C265.127 324.784 264.925 324.673 264.75 324.526C264.575 324.379 264.431 324.199 264.326 323.997C264.221 323.794 264.157 323.573 264.137 323.345V323.225C264.143 322.98 264.198 322.738 264.298 322.514C264.397 322.289 264.54 322.087 264.718 321.917C264.896 321.748 265.106 321.616 265.335 321.528C265.565 321.44 265.809 321.398 266.054 321.404H266.21C267.696 321.38 268.619 322.315 268.619 324.076ZM267.205 323.13C267.199 322.908 267.106 322.698 266.947 322.543C266.788 322.389 266.576 322.303 266.354 322.303H266.258C266.042 322.303 265.835 322.389 265.682 322.541C265.529 322.694 265.443 322.901 265.443 323.118C265.443 323.334 265.529 323.541 265.682 323.694C265.835 323.847 266.042 323.932 266.258 323.932C266.367 323.949 266.478 323.944 266.585 323.918C266.691 323.891 266.792 323.844 266.88 323.778C266.968 323.712 267.042 323.629 267.098 323.534C267.154 323.44 267.19 323.335 267.205 323.225C267.211 323.19 267.211 323.153 267.205 323.118V323.13Z" fill="#263238"/>
<path d="M268.571 328.881H259.009V330.092H268.571V328.881Z" fill="#263238"/>
<path d="M214.193 325.071H164.824V326.605H214.193V325.071Z" fill="#263238"/>
<path d="M194.793 329.96H164.824V331.494H194.793V329.96Z" fill="#263238"/>
<path d="M271.039 393.193L172.337 392.738C171.318 392.738 170.491 391.611 170.503 390.245L170.611 364.422C170.611 363.056 171.45 361.954 172.469 361.954L271.171 362.421C272.19 362.421 273.016 363.536 273.016 364.902L272.909 390.725C272.897 392.091 272.07 393.193 271.039 393.193Z" fill="#D64D54"/>
<path d="M217.668 378.73C217.668 380.048 216.733 380.791 214.888 380.779H211.485V373.05H214.684C216.326 373.05 217.272 373.793 217.272 375.051C217.286 375.433 217.177 375.808 216.961 376.123C216.745 376.438 216.435 376.675 216.074 376.801C216.535 376.861 216.955 377.093 217.251 377.451C217.547 377.809 217.696 378.266 217.668 378.73ZM216.889 378.658C216.889 377.651 216.194 377.208 214.888 377.208H212.276V380.108H214.888C216.182 380.12 216.889 379.677 216.889 378.658ZM212.288 373.685V376.489H214.684C215.882 376.489 216.553 376.022 216.565 375.099C216.577 374.176 215.882 373.697 214.696 373.685H212.288Z" fill="white"/>
<path d="M219.405 377.496V373.074H220.184V377.472C220.184 379.305 220.999 380.144 222.437 380.156C223.875 380.168 224.714 379.329 224.714 377.496V373.098H225.469V377.532C225.469 379.748 224.27 380.887 222.425 380.887C220.58 380.887 219.393 379.677 219.405 377.496Z" fill="white"/>
<path d="M230.262 378.179V380.875H229.495V378.203L226.559 373.134H227.386L229.914 377.484L232.467 373.158H233.245L230.262 378.179Z" fill="white"/>
<path d="M189.4 131.453H152.086V150.505H189.4V131.453Z" fill="#D64D54"/>
<path d="M160.138 124.778L152.086 131.453H189.4L194.9 124.778H160.138Z" fill="#D64D54"/>
<path opacity="0.2" d="M160.138 124.778L152.086 131.453H189.4L194.9 124.778H160.138Z" fill="black"/>
<path d="M189.4 150.505L194.9 143.244V124.778L189.4 131.453V150.505Z" fill="#D64D54"/>
<path opacity="0.1" d="M189.4 150.505L194.9 143.244V124.778L189.4 131.453V150.505Z" fill="black"/>
<path d="M183.049 137.648H157.61V139.613H183.049V137.648Z" fill="#D64D54"/>
<path opacity="0.1" d="M183.049 137.648H157.61V139.613H183.049V137.648Z" fill="black"/>
<path d="M178.436 141.195H162.643V143.16H178.436V141.195Z" fill="#D64D54"/>
<path opacity="0.1" d="M178.436 141.195H162.643V143.16H178.436V141.195Z" fill="black"/>
<path d="M179.646 160.774H162.643V163.375H179.646V160.774Z" fill="#263238"/>
<path d="M152.086 131.452C152.685 131.365 153.29 131.324 153.895 131.333L158.82 131.225C162.978 131.225 168.73 131.141 175.069 131.141L189.448 131.213L189.257 131.297L193.355 126.504C193.838 125.89 194.371 125.317 194.948 124.79C194.545 125.46 194.084 126.094 193.57 126.683L189.592 131.632L189.52 131.716H189.4L175.021 131.788C168.682 131.788 162.93 131.788 158.772 131.692L153.847 131.596C153.257 131.608 152.667 131.56 152.086 131.452Z" fill="#D64D54"/>
<g opacity="0.2">
<path d="M152.086 131.452C152.685 131.365 153.29 131.324 153.895 131.333L158.82 131.225C162.978 131.225 168.73 131.141 175.069 131.141L189.448 131.213L189.257 131.297L193.355 126.504C193.838 125.89 194.371 125.317 194.948 124.79C194.545 125.46 194.084 126.094 193.57 126.683L189.592 131.632L189.52 131.716H189.4L175.021 131.788C168.682 131.788 162.93 131.788 158.772 131.692L153.847 131.596C153.257 131.608 152.667 131.56 152.086 131.452Z" fill="black"/>
</g>
<path d="M189.4 150.505C189.087 147.34 188.983 144.158 189.089 140.979C188.977 137.78 189.081 134.577 189.4 131.393C189.724 134.577 189.832 137.78 189.724 140.979C189.832 144.158 189.724 147.341 189.4 150.505Z" fill="#D64D54"/>
<g opacity="0.2">
<path d="M189.4 150.505C189.087 147.34 188.983 144.158 189.089 140.979C188.977 137.78 189.081 134.577 189.4 131.393C189.724 134.577 189.832 137.78 189.724 140.979C189.832 144.158 189.724 147.341 189.4 150.505Z" fill="black"/>
</g>
<path d="M232.874 160.774H215.87V163.375H232.874V160.774Z" fill="#263238"/>
<path d="M210.471 120.886L210.224 150.387L236.981 150.611L237.228 121.11L210.471 120.886Z" fill="#D64D54"/>
<path d="M218.267 114.94L210.37 121.004H237.128L242.628 114.94H218.267Z" fill="#D64D54"/>
<path d="M237.128 150.505L242.628 143.244V114.94L237.128 121.004V150.505Z" fill="#D64D54"/>
<path d="M229.699 132.927H216.17V134.892H229.699V132.927Z" fill="#D64D54"/>
<path opacity="0.2" d="M229.699 132.927H216.17V134.892H229.699V132.927Z" fill="black"/>
<path d="M227.254 136.485H218.854V138.451H227.254V136.485Z" fill="#D64D54"/>
<path opacity="0.2" d="M227.254 136.485H218.854V138.451H227.254V136.485Z" fill="black"/>
<path d="M210.37 121.004C210.824 120.916 211.286 120.876 211.748 120.884L215.487 120.776C218.65 120.716 223.012 120.68 227.841 120.68H237.128L236.924 120.764C238.602 118.955 240.004 117.469 240.998 116.438C241.488 115.865 242.034 115.343 242.628 114.88C242.219 115.512 241.754 116.106 241.238 116.654C240.303 117.744 238.961 119.278 237.332 121.123L237.248 121.219H227.841C223.048 121.219 218.65 121.219 215.487 121.123L211.748 121.028C211.29 121.073 210.827 121.065 210.37 121.004Z" fill="#D64D54"/>
<g opacity="0.3">
<path d="M210.37 121.004C210.824 120.916 211.286 120.876 211.748 120.884L215.487 120.776C218.65 120.716 223.012 120.68 227.841 120.68H237.128L236.924 120.764C238.602 118.955 240.004 117.469 240.998 116.438C241.488 115.865 242.034 115.343 242.628 114.88C242.219 115.512 241.754 116.106 241.238 116.654C240.303 117.744 238.961 119.278 237.332 121.123L237.248 121.219H227.841C223.048 121.219 218.65 121.219 215.487 121.123L211.748 121.028C211.29 121.073 210.827 121.065 210.37 121.004Z" fill="black"/>
</g>
<path d="M237.128 150.505C236.948 150.505 236.804 143.903 236.804 135.754C236.804 127.606 236.948 121.004 237.128 121.004C237.308 121.004 237.451 127.606 237.451 135.754C237.451 143.903 237.26 150.505 237.128 150.505Z" fill="#D64D54"/>
<g opacity="0.3">
<path d="M237.128 150.505C236.948 150.505 236.804 143.903 236.804 135.754C236.804 127.606 236.948 121.004 237.128 121.004C237.308 121.004 237.451 127.606 237.451 135.754C237.451 143.903 237.26 150.505 237.128 150.505Z" fill="black"/>
</g>
<path d="M280.254 160.774H263.25V163.375H280.254V160.774Z" fill="#263238"/>
<path d="M259.608 131.944C260.997 131.748 262.4 131.672 263.802 131.716C266.402 131.716 269.985 131.62 273.951 131.62C277.462 131.62 280.685 131.62 283.13 131.692L282.95 131.776C284.041 130.578 284.927 129.691 285.562 129.056C285.862 128.699 286.208 128.384 286.593 128.121C286.367 128.527 286.089 128.902 285.766 129.236C285.203 129.931 284.364 130.913 283.37 132.1L283.298 132.184H283.178C280.781 132.184 277.51 132.256 273.999 132.256C270.033 132.256 266.45 132.256 263.85 132.16C262.432 132.196 261.014 132.124 259.608 131.944Z" fill="#D64D54"/>
<path d="M283.142 131.944H259.608V150.517H283.142V131.944Z" fill="#D64D54"/>
<path opacity="0.2" d="M283.142 131.944H259.608V150.517H283.142V131.944Z" fill="black"/>
<path d="M264.58 128.121L259.608 131.932H283.142L286.593 128.121H264.58Z" fill="#D64D54"/>
<path d="M283.142 150.505L286.593 145.94V128.121L283.142 131.932V150.505Z" fill="#D64D54"/>
<path opacity="0.1" d="M283.142 150.505L286.593 145.94V128.121L283.142 131.932V150.505Z" fill="black"/>
<path d="M277.043 139.026H266.27V140.464H277.043V139.026Z" fill="#D64D54"/>
<path d="M275.089 141.638H268.403V143.076H275.089V141.638Z" fill="#D64D54"/>
<path d="M283.142 150.505C282.81 147.422 282.694 144.318 282.794 141.219C282.686 138.123 282.795 135.024 283.118 131.944C283.425 135.025 283.529 138.123 283.429 141.219C283.537 144.317 283.441 147.419 283.142 150.505Z" fill="#D64D54"/>
<path d="M316.73 42.4562L314.285 46.9138L309.828 49.3463L314.285 51.7908L316.73 56.2364L319.162 51.7908L323.62 49.3463L319.162 46.9138L316.73 42.4562Z" fill="#D64D54"/>
<path d="M108.265 157.12L105.82 161.577L101.363 164.01L105.82 166.442L108.265 170.9L110.697 166.442L115.155 164.01L110.697 161.577L108.265 157.12Z" fill="#D64D54"/>
<path d="M334.488 61.3651L332.99 64.0972L330.258 65.595L332.99 67.0929L334.488 69.837L335.998 67.0929L338.73 65.595L335.998 64.0972L334.488 61.3651Z" fill="#D64D54"/>
<path d="M94.8919 131.5L93.394 134.232L90.6619 135.73L93.394 137.228L94.8919 139.972L96.3897 137.228L99.1218 135.73L96.3897 134.232L94.8919 131.5Z" fill="#D64D54"/>
<path d="M433.406 443.186L424.587 436.248L437.468 419.651L450.47 429.657L449.739 430.735C446.444 435.529 432.627 454.797 429.368 457.098C425.629 459.794 433.406 443.186 433.406 443.186Z" fill="#D64D54"/>
<path d="M428.206 456.942C428.05 456.822 432.783 450.543 438.775 442.922C444.766 435.301 449.751 429.226 449.907 429.345C450.062 429.465 445.329 435.744 439.338 443.365C433.346 450.986 428.362 457.062 428.206 456.942Z" fill="#263238"/>
<path d="M434.976 444.935C434.976 445.127 434.365 445.199 433.694 445.199C433.023 445.199 432.436 445.103 432.412 444.911C432.388 444.719 432.951 444.468 433.694 444.48C434.437 444.492 434.976 444.743 434.976 444.935Z" fill="#263238"/>
<path d="M434.724 446.445C434.665 446.637 434.029 446.625 433.286 446.517C432.544 446.409 431.92 446.265 431.92 446.073C431.92 445.882 432.58 445.702 433.382 445.81C434.185 445.918 434.784 446.253 434.724 446.445Z" fill="#263238"/>
<path d="M445.928 434.27C445.833 434.27 445.629 433.923 445.389 433.276C445.067 432.41 444.908 431.491 444.922 430.568C444.934 429.602 445.281 428.67 445.904 427.931C446.396 427.38 446.851 427.248 446.899 427.332C446.947 427.416 446.635 427.692 446.312 428.231C445.889 428.96 445.658 429.785 445.641 430.627C445.643 431.484 445.723 432.338 445.88 433.18C445.988 433.815 446.024 434.246 445.928 434.27Z" fill="#263238"/>
<path d="M433.275 443.677C433.203 443.497 433.562 443.173 434.029 442.874C434.497 442.574 434.952 442.383 435.084 442.526C435.216 442.67 434.952 443.138 434.425 443.485C433.898 443.833 433.346 443.868 433.275 443.677Z" fill="#263238"/>
<path d="M432.579 442.754C432.436 442.61 432.663 442.071 433.083 441.556C433.502 441.041 433.993 440.681 434.161 440.801C434.329 440.921 434.089 441.448 433.646 441.999C433.203 442.55 432.771 442.886 432.579 442.754Z" fill="#263238"/>
<path d="M374.978 300.59C374.978 300.59 348.616 370.498 352.211 383.559C355.806 396.62 426.72 448.482 426.72 448.482L445.976 420.754C445.976 420.754 390.64 376.957 390.46 374.548C390.28 372.139 412.436 314.047 412.436 314.047L374.978 300.59Z" fill="#263238"/>
<path d="M425.498 427.164L425.246 427.033C425.066 426.901 424.839 426.757 424.551 426.577L421.915 424.768C419.65 423.174 416.367 420.849 412.329 417.902C404.348 412.006 393.504 403.594 382 393.744C379.124 391.276 376.332 388.843 373.612 386.483L369.694 382.972C368.356 381.897 367.213 380.6 366.315 379.137C365.575 377.631 365.401 375.909 365.823 374.284C366.123 372.738 366.518 371.289 366.89 369.863C367.645 367.047 368.4 364.434 369.083 362.05L372.366 350.774C372.725 349.48 373.013 348.449 373.229 347.694L373.444 346.892C373.407 346.88 373.376 346.856 373.356 346.822C373.336 346.789 373.329 346.75 373.337 346.712C373.346 346.674 373.37 346.641 373.404 346.621C373.438 346.6 373.478 346.594 373.516 346.604C373.554 346.613 373.587 346.638 373.607 346.671C373.628 346.705 373.634 346.746 373.624 346.784C373.618 346.81 373.605 346.834 373.586 346.853C373.567 346.872 373.543 346.885 373.516 346.892C373.485 347.168 373.428 347.44 373.349 347.706C373.193 348.413 372.953 349.468 372.606 350.81C371.923 353.506 370.856 357.376 369.526 362.158C368.867 364.554 368.136 367.154 367.405 369.982C367.046 371.384 366.662 372.858 366.375 374.356C365.993 375.858 366.158 377.447 366.842 378.838C367.715 380.231 368.817 381.466 370.101 382.492L374.032 385.979C376.704 388.376 379.496 390.773 382.42 393.229C393.911 403.067 404.696 411.527 412.604 417.506L422.023 424.54L424.587 426.445L425.246 426.949C425.39 427.092 425.51 427.164 425.498 427.164Z" fill="#455A64"/>
<path d="M419.075 435.612C418.931 435.504 422.586 430.46 427.235 424.348C431.885 418.237 435.779 413.36 435.923 413.468C436.067 413.576 432.4 418.621 427.75 424.744C423.101 430.867 419.219 435.72 419.075 435.612Z" fill="#455A64"/>
<path d="M421.447 167.653C423.844 172.35 425.042 176.424 429.692 178.845C431.789 179.947 434.353 180.57 435.683 182.559C437.061 184.74 436.414 187.892 438.151 189.749C440.692 192.517 445.868 190.276 448.708 192.709C451.249 194.89 450.434 199.563 453.178 201.48C454.712 202.571 456.773 202.331 458.57 203.002C461.446 204.116 462.812 207.436 463.184 210.491C463.58 212.944 463.268 215.459 462.285 217.741C461.782 218.873 461.003 219.86 460.019 220.612C459.035 221.364 457.877 221.856 456.653 222.043C453.382 222.39 449.691 220.137 447.067 222.043C446.214 222.833 445.472 223.736 444.862 224.727C444.193 225.577 443.364 226.287 442.421 226.816C441.478 227.345 440.439 227.684 439.366 227.812C438.292 227.94 437.203 227.855 436.162 227.562C435.121 227.269 434.148 226.774 433.298 226.105C432.532 225.491 431.882 224.744 431.381 223.9C429.56 220.856 429.68 216.71 427.007 214.314C425.492 213.249 423.794 212.469 421.999 212.013C420.261 211.366 418.464 210.288 417.948 208.514C417.35 206.945 416.5 205.484 415.432 204.188C414.102 202.199 412.328 204.632 410.555 203.649C408.782 202.666 409.465 200.749 409.357 198.736" fill="#263238"/>
<path d="M390.448 235.571L367.681 227.962C367.681 227.962 357.627 256.913 354.499 257.2C337.436 258.758 319.174 253.09 312.775 250.861C312.116 250.13 311.373 249.256 310.547 248.177C309.842 247.253 309.299 246.215 308.941 245.11C308.447 243.752 308.14 242.332 308.03 240.892C308.064 240.539 307.956 240.188 307.732 239.914C307.508 239.64 307.184 239.466 306.832 239.43C306.631 239.414 306.43 239.442 306.241 239.513C306.053 239.583 305.882 239.694 305.741 239.837C305.01 240.796 304.819 244.451 306.496 248.393C308.174 252.335 302.218 249.196 300.026 248.093C297.833 246.991 290.895 243.899 290.02 244.307C288.738 244.906 289.145 246.38 291.362 247.434C293.579 248.489 300.002 252.096 299.355 253.222C298.708 254.348 287.647 248.573 287.647 248.573C287.647 248.573 285.466 246.967 284.688 248.249C283.286 250.562 295.472 255.81 296.67 256.278C297.497 256.613 296.85 257.859 295.987 257.476C295.125 257.092 285.203 251.484 283.717 253.881C282.591 255.678 293.735 258.303 295.173 260.615C296.61 262.928 286.928 257.775 285.934 259.537C285.562 260.184 285.371 260.735 291.362 262.892C295.753 264.259 300.213 265.395 304.723 266.295V266.355C304.723 266.355 364.565 293.125 377.483 267.326C391.143 239.861 390.448 235.571 390.448 235.571Z" fill="#E5BAAB"/>
<path d="M412.94 211.594L422.873 211.774L430.758 234.385L424.335 260.292C422.454 267.853 430.986 282.999 430.758 291.351L375.062 300.374L373.864 263.168V261.969L354.583 252.383L360.946 236.806C370.736 213.87 387.836 212.48 387.836 212.48L412.94 211.594Z" fill="#D64D54"/>
<g opacity="0.2">
<path d="M412.94 211.594L422.873 211.774L430.758 234.385L424.335 260.292C422.454 267.853 430.986 282.999 430.758 291.351L375.062 300.374L373.864 263.168V261.969L354.583 252.383L360.946 236.806C370.736 213.87 387.836 212.48 387.836 212.48L412.94 211.594Z" fill="white"/>
</g>
<path d="M423.281 211.833C423.164 211.85 423.053 211.896 422.957 211.965C422.639 212.074 422.315 212.166 421.987 212.241C420.713 212.47 419.422 212.599 418.128 212.624L418.248 212.396L422.047 218.568L422.31 218.975L421.819 218.891C419.619 218.508 417.376 218.436 415.156 218.675L415.384 218.388C415.467 220.92 415.829 223.436 416.463 225.889L416.63 226.392L416.103 226.273C413.573 225.732 411.133 224.836 408.854 223.612L409.321 223.409C408.865 225.637 408.398 227.974 407.919 230.359L407.811 230.874L407.404 230.55C406.399 229.749 405.443 228.889 404.54 227.974C403.649 227.083 402.812 226.138 402.035 225.146L402.491 225.206L396.116 230.227L395.72 230.538L395.613 230.047C395.157 227.83 394.726 225.673 394.306 223.612L394.69 223.828L387.872 226.225L387.404 226.392L387.536 225.913C388.255 223.193 388.914 220.725 389.513 218.532L389.681 218.795L383.762 217.777H383.522L383.654 217.573L386.242 213.786L386.937 212.816C387.093 212.6 387.189 212.492 387.201 212.504C387.213 212.516 387.081 212.744 387.009 212.864L386.386 213.87L383.929 217.741L383.821 217.501L389.753 218.4H389.993V218.639L388.099 226.045L387.764 225.721L394.546 223.325L394.87 223.205L394.941 223.54L396.284 229.975L395.78 229.795L402.143 224.751L402.395 224.547L402.599 224.799C403.343 225.744 404.143 226.644 404.995 227.495C405.881 228.39 406.817 229.235 407.799 230.023L407.296 230.215C407.775 227.818 408.254 225.494 408.71 223.265L408.794 222.833L409.177 223.061C411.4 224.258 413.78 225.138 416.247 225.673L415.899 226.045C415.269 223.552 414.923 220.995 414.869 218.424V218.16H415.133C417.404 217.93 419.696 218.031 421.939 218.46L421.711 218.795C420.261 216.399 419.027 214.242 418.02 212.552L417.901 212.337H418.14C419.426 212.347 420.712 212.266 421.987 212.097C422.413 211.987 422.845 211.899 423.281 211.833Z" fill="#455A64"/>
<path d="M434.281 221.336C433.892 221.171 433.492 221.034 433.083 220.928C431.933 220.609 430.72 220.589 429.56 220.868L429.656 220.737C429.883 222.055 430.243 223.636 430.734 225.446C431.225 227.255 431.825 229.304 432.364 231.617L432.448 231.952L432.1 231.857C429.26 231.03 425.917 230.407 422.406 229.22L422.73 228.957C423.101 232.372 423.077 236.146 423.281 240.221V240.568H422.921C419.721 240.013 416.573 239.183 413.515 238.088C413.131 237.98 412.688 237.824 412.58 237.992C412.34 238.281 412.161 238.615 412.053 238.974L411.058 241.371C410.399 242.989 409.716 244.63 409.033 246.284L408.83 246.787L408.494 246.368L402.119 238.459L401.64 237.872H402.071L391.838 244.918L391.502 245.146L391.359 244.762C390.16 241.431 389.082 238.22 388.003 235.104L388.459 235.26C384.879 237.586 381.053 239.511 377.051 241L376.632 241.167V240.676C377.363 235.487 378.022 230.826 378.585 226.8L378.885 227.028C375.972 228.178 372.844 228.681 369.718 228.501H369.514L369.586 228.31L371.731 222.534C371.982 221.923 372.162 221.432 372.306 221.06C372.365 220.889 372.441 220.724 372.534 220.569C372.499 220.744 372.45 220.916 372.39 221.084C372.258 221.468 372.09 221.959 371.887 222.594C371.407 223.96 370.688 225.913 369.861 228.418L369.73 228.214C372.803 228.337 375.867 227.802 378.717 226.644L379.064 226.5V226.872C378.525 230.91 377.866 235.559 377.219 240.76L376.847 240.472C380.799 238.973 384.576 237.048 388.111 234.732L388.435 234.529L388.567 234.888L391.946 244.475L391.466 244.331L401.712 237.273L401.963 237.105L402.143 237.333L402.622 237.92L408.985 245.841L408.446 245.912L410.483 241L411.478 238.603C411.621 238.15 411.872 237.739 412.209 237.405C412.33 237.297 412.48 237.226 412.64 237.201H413.048C413.27 237.248 413.491 237.308 413.707 237.381C416.736 238.467 419.85 239.301 423.017 239.873L422.682 240.173C422.502 236.123 422.538 232.324 422.202 228.933V228.537L422.574 228.669C426.049 229.867 429.368 230.527 432.232 231.389L431.968 231.629C431.465 229.34 430.878 227.291 430.423 225.458C429.967 223.624 429.632 222.043 429.428 220.665V220.557H429.536C430.727 220.289 431.969 220.347 433.131 220.725C433.538 220.879 433.925 221.084 434.281 221.336Z" fill="#455A64"/>
<path d="M374.175 261.646C373.737 261.517 373.33 261.301 372.977 261.011C371.956 260.302 371.081 259.403 370.401 258.363C369.39 256.782 368.93 254.911 369.095 253.042C369.173 251.006 369.777 249.024 370.848 247.289C371.919 245.555 373.42 244.127 375.206 243.145L375.038 243.384C375.493 239.969 375.913 237.033 376.236 234.996C376.355 233.884 376.56 232.782 376.847 231.701C376.857 232.824 376.777 233.946 376.608 235.056C376.404 237.141 376.057 240.089 375.637 243.516V243.66L375.481 243.744C373.811 244.701 372.407 246.061 371.396 247.7C370.385 249.339 369.8 251.204 369.694 253.126C369.512 254.882 369.899 256.651 370.796 258.171C371.434 259.201 372.244 260.113 373.193 260.867C373.533 261.11 373.861 261.37 374.175 261.646Z" fill="#455A64"/>
<path d="M376.26 236.542C376.104 236.626 375.553 235.823 375.062 234.768C374.571 233.714 374.247 232.791 374.415 232.707C374.583 232.623 375.122 233.426 375.613 234.493C376.104 235.559 376.44 236.47 376.26 236.542Z" fill="#455A64"/>
<path d="M412.269 211.917L413.982 172.769L398.405 160.99L384.277 167.892C384.277 167.892 383.797 185.639 384.277 193.344C384.756 201.049 392.509 201.852 392.509 201.852C392.509 201.852 392.329 206.369 392.15 211.102C392.046 213.754 392.996 216.339 394.792 218.293C396.588 220.246 399.085 221.409 401.736 221.527H402.239C404.826 221.524 407.312 220.523 409.18 218.733C411.048 216.943 412.155 214.502 412.269 211.917Z" fill="#E5BAAB"/>
<path d="M385.847 180.834C385.844 181.03 385.9 181.223 386.007 181.388C386.115 181.553 386.269 181.682 386.449 181.76C386.63 181.837 386.83 181.859 387.023 181.823C387.217 181.787 387.395 181.695 387.536 181.557C387.677 181.42 387.773 181.244 387.814 181.051C387.855 180.859 387.837 180.659 387.764 180.476C387.691 180.294 387.566 180.137 387.404 180.025C387.241 179.914 387.05 179.854 386.853 179.851C386.592 179.851 386.343 179.955 386.158 180.139C385.974 180.323 385.87 180.573 385.87 180.834H385.847Z" fill="#263238"/>
<path d="M384.888 179.755C385.008 179.887 385.739 179.264 386.793 179.204C387.848 179.144 388.65 179.659 388.77 179.516C388.89 179.372 388.686 179.228 388.339 178.988C387.87 178.684 387.316 178.537 386.758 178.569C386.199 178.602 385.666 178.811 385.235 179.168C384.924 179.456 384.816 179.707 384.888 179.755Z" fill="#263238"/>
<path d="M397.254 180.834C397.254 181.028 397.312 181.218 397.42 181.38C397.528 181.541 397.681 181.667 397.861 181.742C398.04 181.816 398.238 181.835 398.428 181.797C398.619 181.76 398.794 181.666 398.931 181.529C399.069 181.391 399.163 181.216 399.2 181.025C399.238 180.835 399.219 180.637 399.145 180.458C399.07 180.278 398.944 180.125 398.783 180.017C398.621 179.909 398.431 179.851 398.237 179.851C397.976 179.851 397.726 179.955 397.542 180.139C397.358 180.323 397.254 180.573 397.254 180.834Z" fill="#263238"/>
<path d="M396.631 179.755C396.751 179.887 397.482 179.264 398.548 179.204C399.615 179.144 400.394 179.659 400.514 179.516C400.633 179.372 400.43 179.228 400.082 178.988C399.613 178.684 399.059 178.537 398.501 178.569C397.943 178.602 397.409 178.811 396.979 179.168C396.879 179.233 396.796 179.319 396.736 179.421C396.676 179.523 396.64 179.637 396.631 179.755Z" fill="#263238"/>
<path d="M396.319 189.713C394.701 190.541 392.975 191.138 391.191 191.486C391.582 192.019 392.14 192.406 392.776 192.586C393.412 192.766 394.089 192.729 394.702 192.481C394.984 192.416 395.252 192.296 395.488 192.128C395.724 191.959 395.925 191.746 396.078 191.5C396.232 191.254 396.335 190.98 396.383 190.694C396.43 190.408 396.421 190.115 396.355 189.833L396.319 189.713Z" fill="white"/>
<path d="M392.521 201.852C396.179 201.702 399.717 200.509 402.718 198.413C402.718 198.413 400.406 204.068 392.689 203.745L392.521 201.852Z" fill="#D78776"/>
<path d="M436.378 194.89C435.408 194.927 434.445 194.708 433.586 194.255C432.317 193.574 431.263 192.553 430.542 191.307C429.646 189.749 428.885 188.117 428.266 186.43C426.828 182.835 425.749 179.54 425.006 177.119C424.898 176.736 424.791 176.388 424.695 176.053C424.599 175.717 424.563 175.274 424.491 174.998C420.285 158.953 406.217 155.958 403.389 155.958C400.561 155.958 395.169 154.316 387.536 162.236C386.383 163.425 385.407 164.773 384.636 166.239C382.95 168.355 381.784 170.839 381.233 173.488C380.898 174.735 380.837 176.039 381.053 177.311C381.197 177.311 381.221 175.849 381.82 173.62C382.184 172.31 382.682 171.041 383.306 169.834C382.637 172.798 382.909 175.898 384.085 178.701L386.817 177.946L396.619 174.615C395.732 171.571 397.038 167.809 397.817 166.047L397.889 165.987C398.441 169.187 399.993 172.129 402.323 174.39C404.653 176.651 407.64 178.114 410.855 178.569L412.664 203.733C425.689 200.953 425.39 183.518 425.306 179.971C425.905 181.972 426.672 184.261 427.631 186.669C428.271 188.395 429.073 190.056 430.027 191.63C430.838 192.956 432.016 194.017 433.418 194.686C434.363 195.13 435.418 195.284 436.45 195.129C436.832 195.091 437.196 194.951 437.504 194.722C437.135 194.811 436.758 194.867 436.378 194.89Z" fill="#263238"/>
<path d="M392.809 188.719C392.245 188.575 391.665 188.502 391.083 188.503C390.807 188.503 390.544 188.443 390.484 188.251C390.45 187.955 390.504 187.654 390.64 187.388L391.359 185.196C391.874 183.626 392.305 182.2 392.557 181.169C392.759 180.621 392.892 180.049 392.952 179.468C392.654 179.97 392.424 180.51 392.269 181.073C391.91 182.092 391.431 183.47 390.915 185.064C390.676 185.831 390.448 186.574 390.22 187.269C390.064 187.614 390.03 188.003 390.124 188.371C390.161 188.466 390.221 188.551 390.298 188.618C390.375 188.685 390.468 188.732 390.568 188.754C390.723 188.778 390.88 188.778 391.035 188.754C391.625 188.814 392.221 188.802 392.809 188.719Z" fill="#263238"/>
<path d="M414.797 188.395C414.677 187.113 414.82 185.821 415.216 184.596C415.421 183.985 415.785 183.441 416.272 183.019C416.759 182.598 417.351 182.315 417.984 182.2C418.723 182.169 419.447 182.409 420.02 182.875C420.594 183.34 420.978 183.999 421.1 184.728C421.19 185.464 421.057 186.209 420.72 186.869C420.383 187.529 419.856 188.073 419.207 188.431C418.55 188.775 417.823 188.964 417.082 188.985C416.34 189.006 415.604 188.857 414.929 188.551" fill="#E5BAAB"/>
<path d="M417.002 187.269C417.002 187.185 417.421 187.376 417.972 187.209C418.317 187.096 418.618 186.878 418.833 186.586C419.048 186.294 419.166 185.942 419.171 185.579C419.199 185.398 419.189 185.212 419.142 185.035C419.094 184.857 419.01 184.692 418.895 184.549C418.657 184.362 418.358 184.272 418.056 184.297C417.481 184.357 417.074 184.501 417.038 184.405C417.002 184.309 417.301 184.045 417.984 183.854C418.205 183.796 418.436 183.788 418.66 183.832C418.884 183.875 419.096 183.969 419.279 184.105C419.482 184.296 419.636 184.532 419.728 184.795C419.819 185.058 419.846 185.339 419.806 185.615C419.779 186.145 419.576 186.65 419.231 187.053C418.945 187.389 418.542 187.604 418.104 187.652C417.325 187.736 417.002 187.317 417.002 187.269Z" fill="#D78776"/>
<path d="M405.247 493.298V482.082L426.265 481.95L426.432 498.354L425.138 498.45C419.339 498.81 395.636 499.864 391.754 498.714C387.428 497.432 405.247 493.298 405.247 493.298Z" fill="#D64D54"/>
<path d="M391.263 497.683C391.263 497.492 399.123 497.324 408.818 497.324C418.512 497.324 426.36 497.492 426.36 497.683C426.36 497.875 418.512 498.043 408.818 498.043C399.123 498.043 391.263 497.887 391.263 497.683Z" fill="#263238"/>
<path d="M404.887 495.586C404.707 495.682 404.3 495.275 403.881 494.735C403.461 494.196 403.186 493.705 403.317 493.537C403.449 493.369 404 493.693 404.456 494.28C404.911 494.867 405.019 495.49 404.887 495.586Z" fill="#263238"/>
<path d="M403.545 496.329C403.353 496.401 402.982 495.886 402.598 495.239C402.215 494.592 401.951 494.041 402.107 493.885C402.263 493.729 402.802 494.172 403.21 494.879C403.617 495.586 403.725 496.257 403.545 496.329Z" fill="#263238"/>
<path d="M420.033 497.611C419.962 497.551 420.129 497.156 420.489 496.569C420.967 495.777 421.594 495.086 422.334 494.532C423.1 493.947 424.043 493.643 425.006 493.669C425.749 493.669 426.133 493.993 426.097 494.076C426.061 494.16 425.641 494.076 425.018 494.172C424.196 494.286 423.416 494.607 422.754 495.107C422.077 495.635 421.455 496.229 420.896 496.88C420.429 497.372 420.117 497.671 420.033 497.611Z" fill="#263238"/>
<path d="M404.815 493.513C404.923 493.346 405.391 493.43 405.918 493.609C406.445 493.789 406.876 494.029 406.84 494.22C406.804 494.412 406.277 494.496 405.642 494.292C405.007 494.089 404.719 493.645 404.815 493.513Z" fill="#263238"/>
<path d="M405.151 492.387C405.151 492.195 405.726 492.039 406.409 492.051C407.092 492.063 407.607 492.231 407.607 492.423C407.607 492.614 407.056 492.782 406.349 492.77C405.642 492.758 405.127 492.591 405.151 492.387Z" fill="#263238"/>
<path d="M386.482 298.673L374.978 300.602L381.605 308.75C383.51 347.095 383.043 384.302 384.804 402.839C385.068 405.655 396.955 493.909 395.768 491.884L430.77 493.346L420.321 404.673L425.27 325.91C430.637 316.603 432.208 305.585 429.656 295.15L428.793 291.615" fill="#455A64"/>
<path d="M410.603 160.08C409.73 159.744 408.95 159.206 408.325 158.51C407.7 157.815 407.249 156.981 407.008 156.077C406.79 155.167 406.822 154.215 407.103 153.322C407.384 152.429 407.902 151.63 408.602 151.009C409.319 150.41 410.201 150.042 411.132 149.954C412.062 149.867 412.998 150.063 413.814 150.517C415.065 151.382 415.98 152.651 416.403 154.112C416.798 155.054 416.906 156.092 416.714 157.096C416.474 157.818 416.051 158.466 415.486 158.976C414.921 159.486 414.234 159.842 413.491 160.008C411.999 160.305 410.467 160.345 408.961 160.127" fill="#263238"/>
<path d="M441.483 181.433C441.614 180.92 441.639 180.386 441.555 179.863C441.418 179.271 441.134 178.722 440.728 178.269C440.166 177.685 439.452 177.27 438.667 177.071C437.699 176.836 436.698 176.767 435.707 176.867C434.617 176.939 433.454 177.131 432.184 177.155C430.823 177.239 429.468 176.918 428.29 176.232C427.11 175.348 426.282 174.074 425.953 172.638C425.162 170.105 423.856 167.764 422.118 165.759C420.694 164.125 419.019 162.725 417.158 161.613C415.397 160.654 413.542 159.879 411.622 159.301H412.041C412.448 159.333 412.851 159.413 413.239 159.54C414.691 159.909 416.089 160.465 417.397 161.194C419.34 162.28 421.09 163.681 422.574 165.34C424.393 167.375 425.761 169.772 426.588 172.374C426.868 173.677 427.598 174.839 428.649 175.657C429.737 176.292 430.987 176.592 432.244 176.52C433.442 176.52 434.641 176.34 435.743 176.292C436.791 176.212 437.845 176.313 438.858 176.592C439.713 176.832 440.479 177.315 441.063 177.982C441.491 178.497 441.772 179.118 441.878 179.779C441.939 180.182 441.902 180.593 441.77 180.978C441.603 181.325 441.495 181.445 441.483 181.433Z" fill="#263238"/>
<path d="M419.398 188.323C419.398 188.263 419.974 188.718 419.974 189.749C419.967 190.052 419.898 190.351 419.773 190.627C419.647 190.903 419.467 191.15 419.243 191.355C418.972 191.618 418.644 191.814 418.284 191.926C417.923 192.039 417.542 192.065 417.17 192.002C416.799 191.937 416.448 191.79 416.143 191.57C415.837 191.35 415.586 191.063 415.408 190.731C415.266 190.466 415.177 190.174 415.149 189.874C415.12 189.573 415.151 189.27 415.24 188.982C415.302 188.719 415.424 188.474 415.597 188.266C415.77 188.058 415.988 187.893 416.235 187.784C415.947 188.158 415.757 188.599 415.684 189.066C415.599 189.531 415.684 190.012 415.923 190.42C416.073 190.659 416.271 190.864 416.504 191.022C416.737 191.181 417 191.29 417.277 191.343C417.556 191.383 417.839 191.364 418.11 191.288C418.38 191.212 418.631 191.079 418.847 190.899C419.209 190.594 419.447 190.168 419.518 189.701C419.59 188.874 419.255 188.371 419.398 188.323Z" fill="#E0E0E0"/>
<path d="M416.247 161.589C413.681 159.033 410.409 157.301 406.852 156.616C408.718 156.544 410.569 156.966 412.219 157.839C413.868 158.713 415.258 160.006 416.247 161.589Z" fill="#D64D54"/>
<path d="M420.717 186.849C420.717 186.765 421.064 186.741 421.28 187.137C421.333 187.256 421.36 187.384 421.36 187.514C421.36 187.644 421.333 187.773 421.28 187.892C421.201 188.041 421.084 188.166 420.941 188.254C420.797 188.342 420.633 188.391 420.465 188.395C420.209 188.411 419.958 188.326 419.764 188.158C419.571 187.99 419.453 187.752 419.434 187.496C419.422 187.433 419.422 187.368 419.434 187.305C419.434 186.897 419.722 186.765 419.782 186.813C419.842 186.861 419.782 187.053 419.89 187.293C419.908 187.424 419.974 187.544 420.076 187.628C420.178 187.712 420.309 187.755 420.441 187.748C420.491 187.751 420.542 187.744 420.59 187.728C420.637 187.712 420.681 187.686 420.719 187.653C420.757 187.619 420.788 187.579 420.81 187.534C420.832 187.488 420.845 187.439 420.848 187.388C420.848 187.388 420.848 187.329 420.848 187.293C420.836 187.065 420.693 186.945 420.717 186.849Z" fill="#E0E0E0"/>
<path d="M412.52 210.719C412.643 211.139 412.687 211.577 412.652 212.013C412.626 213.207 412.391 214.387 411.957 215.5C411.398 216.937 410.527 218.232 409.407 219.293C408.287 220.353 406.946 221.152 405.48 221.632C404.015 222.112 402.461 222.261 400.931 222.069C399.401 221.877 397.932 221.348 396.631 220.521C395.123 219.553 393.886 218.217 393.036 216.639C392.47 215.586 392.092 214.442 391.922 213.259C391.838 212.832 391.838 212.392 391.922 211.965C392.175 213.526 392.689 215.033 393.444 216.423C394.308 217.882 395.507 219.114 396.943 220.018C398.723 221.088 400.785 221.593 402.858 221.467C404.931 221.341 406.917 220.589 408.554 219.311C409.874 218.239 410.917 216.866 411.598 215.308C412.154 213.839 412.466 212.289 412.52 210.719Z" fill="#455A64"/>
<path d="M410.004 485.329C409.969 485.224 409.944 485.115 409.932 485.005C409.932 484.754 409.848 484.442 409.8 484.047C409.68 483.16 409.513 481.926 409.309 480.368C408.901 477.169 408.362 472.543 407.727 466.804C406.445 455.348 404.875 439.507 403.461 421.976C402.047 404.445 401.065 388.532 400.513 377.016C400.214 371.265 400.022 366.603 399.914 363.38C399.866 361.782 399.83 360.548 399.806 359.677V358.707C399.794 358.599 399.794 358.491 399.806 358.383C399.818 358.491 399.818 358.599 399.806 358.707C399.799 359.028 399.823 359.349 399.878 359.665C399.938 360.564 400.01 361.798 400.118 363.368C400.31 366.639 400.573 371.277 400.909 376.992C401.604 388.496 402.658 404.385 404.06 421.916C405.462 439.447 406.972 455.3 408.123 466.756C408.71 472.459 409.177 477.085 409.513 480.344C409.668 481.902 409.788 483.136 409.872 484.035C409.882 484.356 409.91 484.676 409.956 484.993C409.989 485.102 410.006 485.215 410.004 485.329Z" fill="#263238"/>
<path d="M429.56 485.413C429.122 485.53 428.671 485.595 428.218 485.605C427.355 485.677 426.097 485.76 424.551 485.832C421.447 485.988 417.158 486.06 412.424 485.988C407.691 485.916 403.401 485.772 400.31 485.653L396.643 485.473C396.187 485.485 395.732 485.437 395.289 485.329C395.734 485.233 396.189 485.197 396.643 485.221H400.322C403.413 485.221 407.703 485.293 412.436 485.365C417.17 485.437 421.435 485.437 424.539 485.365H428.206C428.657 485.327 429.112 485.343 429.56 485.413Z" fill="#263238"/>
<path d="M423.281 211.833C421.63 212.439 419.886 212.752 418.128 212.756L418.356 212.324L420.669 216.075L422.13 218.472L422.478 219.059L421.807 218.927C419.592 218.602 417.359 218.414 415.12 218.364C415.735 218.162 416.379 218.061 417.026 218.064C418.66 217.96 420.301 218.049 421.915 218.328L421.603 218.783L420.117 216.387L417.877 212.6L417.625 212.181H418.104C419.638 212.109 420.944 212.013 421.843 211.929C422.318 211.849 422.799 211.817 423.281 211.833Z" fill="#455A64"/>
<path d="M434.281 221.336C434.281 221.443 432.544 221.024 429.56 220.952L429.763 220.724C430.47 223.528 431.405 227.267 432.496 231.581L432.615 232.084L432.124 231.952L424.503 229.891L422.43 229.316L422.837 228.993C423.005 233.127 423.161 236.961 423.293 240.256V240.616L422.957 240.52L415.636 238.471L413.611 237.872C413.368 237.81 413.134 237.718 412.916 237.596C413.168 237.6 413.418 237.64 413.659 237.716L415.72 238.183L423.065 240.005L422.742 240.28C422.574 236.985 422.382 233.151 422.178 229.029V228.585L422.61 228.705L424.683 229.28L432.28 231.401L431.908 231.773C430.902 227.423 430.039 223.66 429.38 220.832L429.32 220.593H429.584C430.756 220.65 431.922 220.799 433.071 221.036C433.483 221.095 433.889 221.195 434.281 221.336Z" fill="#455A64"/>
<path d="M435.791 251.724C435.453 251.477 435.161 251.173 434.928 250.825C434.425 250.19 433.874 249.136 433.083 247.914H433.406C431.467 251.701 429.197 255.309 426.624 258.698L426.384 259.022L426.133 258.698C424.934 257.204 423.736 255.607 422.538 253.905L419.782 250.31H420.237L415.804 254.217L413.814 255.93L412.892 256.733L412.448 257.116L412.341 257.212H412.209C412.209 257.32 411.813 257.068 411.897 256.961V256.889C411.897 256.889 411.981 257.092 412.017 257.08L411.813 257.14L411.741 256.913C411.034 254.516 410.543 252.623 410.244 251.257C410.039 250.561 409.958 249.835 410.004 249.112C410.132 249.815 410.296 250.511 410.495 251.197C410.867 252.527 411.43 254.432 412.209 256.769L411.933 256.601C412.019 256.577 412.11 256.577 412.197 256.601C412.257 256.621 412.309 256.66 412.345 256.712C412.382 256.763 412.401 256.825 412.4 256.889C412.412 256.944 412.412 257.001 412.4 257.056H412.341L412.173 256.985C412.161 256.939 412.136 256.897 412.101 256.865L412.029 256.793L412.125 256.697L412.568 256.302L413.479 255.487C414.102 254.924 414.749 254.288 415.432 253.737L419.806 249.843L420.057 249.615L420.273 249.891L423.029 253.486C424.299 255.139 425.522 256.745 426.624 258.279H426.133C428.706 254.926 431.025 251.385 433.071 247.686L433.239 247.398L433.406 247.674C434.173 248.956 434.605 250.07 435.096 250.682C435.587 251.293 435.827 251.688 435.791 251.724Z" fill="#455A64"/>
<path d="M414.605 234.684C414.598 235.092 414.529 235.496 414.402 235.883C414.222 236.626 413.946 237.68 413.563 238.986C412.808 241.587 411.634 245.157 410.124 249.004C408.614 252.85 407.032 256.265 405.81 258.686C405.199 259.884 404.684 260.867 404.3 261.526C404.133 261.884 403.919 262.218 403.665 262.521C404.165 261.146 404.745 259.801 405.403 258.494C406.517 256.026 408.015 252.611 409.525 248.776C411.034 244.942 412.269 241.407 413.119 238.842C413.525 237.426 414.021 236.037 414.605 234.684Z" fill="#455A64"/>
<path d="M423.281 211.833C421.63 212.439 419.886 212.752 418.128 212.756L418.356 212.324L420.669 216.075L422.13 218.472L422.478 219.059L421.807 218.927C419.592 218.602 417.359 218.414 415.12 218.364C415.735 218.162 416.379 218.061 417.026 218.064C418.66 217.96 420.301 218.049 421.915 218.328L421.603 218.783L420.117 216.387L417.877 212.6L417.625 212.181H418.104C419.638 212.109 420.944 212.013 421.843 211.929C422.318 211.849 422.799 211.817 423.281 211.833Z" fill="#455A64"/>
<path d="M414.605 234.684C414.598 235.092 414.529 235.496 414.402 235.883C414.222 236.626 413.946 237.68 413.563 238.986C412.808 241.587 411.634 245.157 410.124 249.004C408.614 252.85 407.032 256.265 405.81 258.686C405.199 259.884 404.684 260.867 404.3 261.526C404.133 261.884 403.919 262.218 403.665 262.521C404.165 261.146 404.745 259.801 405.403 258.494C406.517 256.026 408.015 252.611 409.525 248.776C411.034 244.942 412.269 241.407 413.119 238.842C413.525 237.426 414.021 236.037 414.605 234.684Z" fill="#455A64"/>
<path d="M303.6 219.446L275.745 315.011C274.308 319.941 277.14 325.103 282.071 326.54L438.63 372.173C443.56 373.61 448.722 370.778 450.159 365.848L478.014 270.283C479.451 265.353 476.619 260.191 471.688 258.754L315.129 213.121C310.199 211.684 305.037 214.516 303.6 219.446Z" fill="#D64D54"/>
<g opacity="0.3">
<path d="M303.6 219.446L275.745 315.011C274.308 319.941 277.14 325.103 282.071 326.54L438.63 372.173C443.56 373.61 448.722 370.778 450.159 365.848L478.014 270.283C479.451 265.353 476.619 260.191 471.688 258.754L315.129 213.121C310.199 211.684 305.037 214.516 303.6 219.446Z" fill="black"/>
</g>
<path d="M298.108 287.529L295.28 297.211L294.286 296.923L296.85 288.128L294.562 287.457L294.825 286.57L298.108 287.529Z" fill="white"/>
<path d="M307.958 299.224L307.695 300.111L300.852 298.193L301.056 297.486L306.233 294.718C307.647 293.963 308.042 293.364 308.234 292.705C308.557 291.579 307.97 290.668 306.496 290.237C306.012 290.062 305.495 289.998 304.982 290.05C304.47 290.102 303.976 290.268 303.537 290.536L303.009 289.722C303.583 289.383 304.222 289.174 304.884 289.108C305.547 289.042 306.215 289.12 306.844 289.338C308.809 289.913 309.756 291.279 309.24 292.933C308.977 293.856 308.438 294.599 306.772 295.497L302.53 297.774L307.958 299.224Z" fill="white"/>
<path d="M318.587 300.59L316.646 300.027L315.903 302.567L314.908 302.28L315.651 299.727L310.187 298.193L310.391 297.474L317.401 292.562L318.503 292.885L311.733 297.678L315.939 298.876L316.586 296.636L317.556 296.923L316.909 299.164L318.839 299.727L318.587 300.59Z" fill="white"/>
<path d="M333.422 304.868L331.48 304.293L330.738 306.845L329.743 306.557L330.486 304.005L325.022 302.411L325.237 301.692L332.235 296.767L333.338 297.091L326.568 301.884L330.773 303.082L331.421 300.842L332.391 301.117L331.744 303.37L333.673 303.933L333.422 304.868Z" fill="white"/>
<path d="M341.977 307.025C341.486 308.666 339.964 309.625 337.604 308.93C336.313 308.61 335.196 307.803 334.488 306.677L335.207 306.03C335.506 306.524 335.898 306.953 336.363 307.294C336.828 307.636 337.355 307.882 337.915 308.019C339.557 308.499 340.671 307.948 341.007 306.821C341.342 305.695 340.827 304.568 338.359 303.861L336.298 303.25L338.215 298.541L343.511 300.087L343.26 300.974L338.826 299.679L337.628 302.675L338.826 303.035C341.702 303.837 342.469 305.311 341.977 307.025Z" fill="white"/>
<path d="M351.552 309.769C351.311 310.565 350.765 311.233 350.033 311.628C349.301 312.023 348.443 312.113 347.645 311.878L347.382 311.782C344.805 311.039 343.931 308.846 344.817 305.791C345.776 302.507 348.077 301.309 350.701 302.076C351.513 302.268 352.256 302.683 352.846 303.274L352.211 303.957C351.741 303.455 351.132 303.104 350.461 302.951C348.376 302.34 346.639 303.298 345.884 305.922C345.812 306.186 345.74 306.45 345.692 306.725C346.127 306.274 346.683 305.958 347.293 305.815C347.903 305.673 348.542 305.71 349.131 305.922C349.527 305.99 349.906 306.136 350.245 306.351C350.585 306.565 350.879 306.845 351.11 307.173C351.342 307.501 351.506 307.872 351.595 308.264C351.683 308.656 351.692 309.061 351.624 309.457L351.552 309.769ZM350.557 309.517C350.64 309.239 350.666 308.948 350.635 308.66C350.605 308.372 350.517 308.093 350.378 307.839C350.239 307.585 350.05 307.361 349.824 307.18C349.598 306.999 349.338 306.865 349.059 306.785C348.954 306.75 348.846 306.726 348.736 306.713C348.473 306.584 348.187 306.508 347.895 306.49C347.603 306.471 347.31 306.51 347.033 306.605C346.756 306.699 346.5 306.847 346.28 307.041C346.061 307.234 345.881 307.469 345.752 307.732C345.623 307.995 345.547 308.28 345.528 308.572C345.51 308.865 345.549 309.158 345.643 309.435C345.738 309.712 345.886 309.967 346.08 310.187C346.273 310.407 346.508 310.586 346.771 310.716C347.011 310.834 347.271 310.908 347.537 310.931C348.071 311.169 348.678 311.186 349.224 310.977C349.77 310.768 350.211 310.351 350.449 309.817C350.498 309.722 350.534 309.621 350.557 309.517Z" fill="white"/>
<path d="M364.769 313.771C364.301 315.389 362.756 316.288 360.419 315.604C359.128 315.277 358.011 314.472 357.291 313.352L358.01 312.693C358.604 313.684 359.564 314.403 360.683 314.694C362.288 315.161 363.391 314.694 363.75 313.496C364.11 312.297 363.487 311.327 361.689 310.811L360.994 310.608L361.21 309.877L364.877 307.288L359.928 305.85L360.179 304.964L366.41 306.773L366.207 307.48L362.456 310.176C364.505 310.799 365.224 312.189 364.769 313.771Z" fill="white"/>
<path d="M374.511 316.467C374.389 316.863 374.19 317.231 373.926 317.55C373.662 317.869 373.338 318.133 372.972 318.327C372.606 318.521 372.205 318.64 371.793 318.679C371.38 318.718 370.964 318.675 370.568 318.552L370.329 318.468C367.764 317.725 366.89 315.533 367.776 312.477C368.735 309.182 371.036 307.995 373.66 308.75C374.468 308.953 375.208 309.367 375.805 309.949L375.17 310.632C374.692 310.14 374.086 309.791 373.42 309.625C371.335 309.026 369.598 309.973 368.831 312.597C368.759 312.86 368.699 313.124 368.651 313.4C369.082 312.942 369.639 312.623 370.251 312.483C370.863 312.342 371.503 312.386 372.09 312.609C372.489 312.677 372.869 312.823 373.211 313.039C373.552 313.255 373.847 313.537 374.079 313.868C374.311 314.199 374.475 314.573 374.561 314.967C374.648 315.362 374.655 315.77 374.583 316.168C374.569 316.27 374.545 316.37 374.511 316.467ZM373.516 316.204C373.596 315.922 373.62 315.627 373.585 315.336C373.551 315.046 373.459 314.765 373.315 314.509C373.172 314.254 372.979 314.03 372.748 313.85C372.517 313.67 372.253 313.537 371.97 313.46L371.695 313.4C371.432 313.271 371.146 313.195 370.854 313.176C370.562 313.157 370.269 313.196 369.992 313.291C369.715 313.386 369.459 313.534 369.239 313.727C369.02 313.921 368.84 314.155 368.711 314.418C368.582 314.681 368.506 314.967 368.487 315.259C368.469 315.551 368.508 315.844 368.602 316.121C368.697 316.398 368.845 316.654 369.039 316.874C369.232 317.093 369.467 317.273 369.73 317.402C369.97 317.521 370.23 317.594 370.497 317.618C370.762 317.735 371.047 317.799 371.337 317.806C371.627 317.813 371.916 317.763 372.186 317.659C372.457 317.554 372.704 317.397 372.914 317.197C373.123 316.996 373.291 316.757 373.408 316.491C373.408 316.383 373.492 316.276 373.516 316.168V316.204Z" fill="white"/>
<path d="M385.391 312.261L385.188 312.968L378.525 320.769L377.447 320.457L383.989 312.812L379.004 311.375L378.477 313.184L377.495 312.896L378.285 310.2L385.391 312.261Z" fill="white"/>
<path d="M399.231 316.299L399.028 317.006L392.365 324.795L391.287 324.484L397.829 316.851L392.844 315.401L392.317 317.21L391.335 316.923L392.126 314.226L399.231 316.299Z" fill="white"/>
<path d="M406.733 326.065C406.229 327.779 404.468 328.462 402.155 327.743C399.842 327.024 398.728 325.586 399.231 323.873C399.382 323.318 399.72 322.833 400.187 322.499C400.654 322.165 401.222 322.003 401.796 322.039C401.386 321.766 401.077 321.366 400.915 320.902C400.753 320.437 400.746 319.932 400.897 319.463C401.352 317.893 402.982 317.294 405.031 317.893C407.08 318.492 408.159 319.87 407.691 321.488C407.563 321.966 407.281 322.389 406.889 322.692C406.498 322.995 406.018 323.162 405.522 323.166C406.02 323.443 406.41 323.88 406.63 324.406C406.849 324.932 406.885 325.516 406.733 326.065ZM405.714 325.754C406.062 324.556 405.247 323.513 403.533 323.01C401.82 322.507 400.585 323.01 400.238 324.208C399.89 325.406 400.681 326.449 402.407 326.952C404.132 327.455 405.355 326.952 405.714 325.754ZM403.821 322.219C405.331 322.662 406.433 322.219 406.733 321.2C407.032 320.182 406.289 319.163 404.839 318.744C403.389 318.325 402.251 318.744 401.939 319.786C401.628 320.829 402.251 321.788 403.821 322.219Z" fill="white"/>
<path d="M416.786 326.569C415.828 329.864 413.527 331.062 410.891 330.295C410.085 330.095 409.348 329.681 408.758 329.097L409.393 328.414C409.86 328.914 410.464 329.264 411.13 329.421C413.227 330.032 414.953 329.073 415.72 326.449C415.792 326.185 415.863 325.922 415.911 325.646C415.481 326.103 414.924 326.423 414.312 326.563C413.7 326.704 413.059 326.66 412.472 326.437C412.078 326.369 411.702 326.224 411.364 326.01C411.026 325.795 410.734 325.517 410.505 325.189C410.276 324.862 410.113 324.492 410.027 324.102C409.941 323.711 409.933 323.308 410.004 322.914C410.016 322.804 410.04 322.696 410.076 322.591C410.312 321.797 410.853 321.129 411.581 320.733C412.309 320.338 413.164 320.247 413.958 320.482L414.246 320.577C416.798 321.32 417.673 323.513 416.786 326.569ZM415.971 324.256C416.095 323.633 415.966 322.987 415.613 322.459C415.26 321.931 414.713 321.565 414.09 321.44H414.018C413.48 321.239 412.885 321.256 412.359 321.487C411.833 321.719 411.418 322.146 411.203 322.678C410.987 323.211 410.988 323.807 411.205 324.338C411.422 324.87 411.838 325.297 412.364 325.526C412.511 325.587 412.664 325.631 412.82 325.658C413.112 325.777 413.424 325.838 413.739 325.836C414.055 325.834 414.367 325.77 414.657 325.648C414.948 325.526 415.211 325.347 415.433 325.123C415.654 324.898 415.829 324.632 415.947 324.34C415.948 324.31 415.956 324.281 415.971 324.256Z" fill="white"/>
<path d="M427.99 324.675L425.162 334.358L424.168 334.07L426.732 325.275L424.443 324.604L424.707 323.717L427.99 324.675Z" fill="white"/>
<path d="M433.406 336.371L433.143 337.257L426.348 335.34L426.552 334.633L431.729 331.865C433.143 331.11 433.538 330.511 433.73 329.852C434.053 328.738 433.466 327.815 431.992 327.384C431.508 327.209 430.991 327.145 430.478 327.197C429.966 327.249 429.472 327.415 429.033 327.683L428.505 326.868C429.079 326.532 429.72 326.325 430.382 326.261C431.044 326.197 431.712 326.277 432.34 326.497C434.305 327.06 435.252 328.426 434.736 330.092C434.461 331.014 433.934 331.757 432.268 332.656L428.026 334.933L433.406 336.371Z" fill="white"/>
<path d="M442.166 337.018C441.686 338.635 440.153 339.534 437.816 338.851C436.532 338.502 435.43 337.674 434.736 336.538L435.455 335.891C435.747 336.384 436.133 336.815 436.592 337.159C437.05 337.502 437.572 337.751 438.127 337.893C439.733 338.36 440.836 337.893 441.183 336.694C441.531 335.496 440.931 334.525 439.134 334.01L438.439 333.806L438.655 333.063L442.309 330.487L437.361 329.049L437.624 328.162L443.843 329.972L443.64 330.679L439.901 333.327C441.938 334.07 442.657 335.46 442.166 337.018Z" fill="white"/>
<path d="M367.326 325.327L366.103 329.526L443.656 352.116L444.879 347.917L367.326 325.327Z" fill="white"/>
<path d="M402.666 344.705L401.439 348.915L441.223 360.503L442.449 356.293L402.666 344.705Z" fill="white"/>
<path d="M300.012 258.912L296.253 271.808C295.335 274.96 297.145 278.259 300.296 279.177L321.429 285.337C324.581 286.256 327.88 284.446 328.798 281.294L332.557 268.398C333.476 265.247 331.666 261.948 328.514 261.029L307.381 254.869C304.23 253.951 300.931 255.761 300.012 258.912Z" fill="#263238"/>
<path d="M296.575 270.777L297.03 269.219L313.806 274.108C314.737 274.38 315.738 274.27 316.589 273.804C317.439 273.338 318.07 272.553 318.341 271.622C318.613 270.69 318.504 269.689 318.037 268.839C317.571 267.988 316.786 267.358 315.855 267.086L299.079 262.209L299.534 260.651L316.31 265.528C317.596 265.968 318.663 266.886 319.289 268.092C319.916 269.298 320.053 270.699 319.674 272.004C319.295 273.308 318.427 274.417 317.252 275.099C316.076 275.781 314.684 275.984 313.363 275.666L296.575 270.777Z" fill="white"/>
<path d="M319.305 271.037L318.848 272.601L330.349 275.964L330.806 274.4L319.305 271.037Z" fill="white"/>
<path d="M311.367 234.321L309.274 241.5L392.967 265.894L395.059 258.716L311.367 234.321Z" fill="white"/>
<path d="M436.378 251.353L415.804 237.836C415.804 237.836 405.75 266.786 402.622 267.074C385.559 268.632 367.297 262.964 360.898 260.735C360.251 260.004 359.508 259.129 358.682 258.051C357.977 257.126 357.434 256.089 357.076 254.983C356.576 253.627 356.27 252.207 356.165 250.765C356.199 250.413 356.091 250.062 355.867 249.788C355.643 249.514 355.319 249.34 354.967 249.303C354.766 249.288 354.565 249.316 354.376 249.386C354.188 249.457 354.017 249.568 353.876 249.711C353.133 250.67 352.942 254.324 354.631 258.267C356.321 262.209 350.353 259.069 348.161 257.967C345.968 256.865 339.018 253.773 338.143 254.18C336.873 254.78 337.268 256.254 339.485 257.308C341.702 258.362 348.125 261.969 347.49 263.096C346.854 264.222 335.77 258.446 335.77 258.446C335.77 258.446 333.601 256.841 332.823 258.123C331.409 260.436 343.607 265.684 344.805 266.151C345.62 266.487 344.973 267.733 344.11 267.35C343.248 266.966 333.182 261.358 331.732 263.683C330.618 265.48 341.762 268.105 343.2 270.417C344.638 272.73 334.944 267.577 333.949 269.327C333.578 269.986 333.398 270.525 339.389 272.694C343.776 274.061 348.232 275.197 352.738 276.097V276.157C352.738 276.157 413.922 303.55 425.498 277.128C437.888 248.968 436.378 251.353 436.378 251.353Z" fill="#E5BAAB"/>
<path d="M422.873 211.773C422.873 211.773 441.567 213.978 439.649 236.218C438.398 249.968 434.535 263.353 428.266 275.654L403.749 262.784C409.269 251.772 413.422 240.126 416.115 228.106L422.993 211.773H422.873Z" fill="#D64D54"/>
<g opacity="0.2">
<path d="M422.873 211.773C422.873 211.773 441.567 213.978 439.649 236.218C438.398 249.968 434.535 263.353 428.266 275.654L403.749 262.784C409.269 251.772 413.422 240.126 416.115 228.106L422.993 211.773H422.873Z" fill="white"/>
</g>
<path d="M434.281 221.336C434.281 221.443 432.544 221.024 429.56 220.952L429.763 220.724C430.47 223.528 431.405 227.267 432.496 231.581L432.615 232.084L432.124 231.952L424.503 229.891L422.43 229.316L422.837 228.993C423.005 233.127 423.161 236.961 423.293 240.256V240.616L422.957 240.52L415.636 238.471L413.611 237.872C413.368 237.81 413.134 237.718 412.916 237.596C413.168 237.6 413.418 237.64 413.659 237.716L415.72 238.183L423.065 240.005L422.742 240.28C422.574 236.985 422.382 233.151 422.178 229.029V228.585L422.61 228.705L424.683 229.28L432.28 231.401L431.908 231.773C430.902 227.423 430.039 223.66 429.38 220.832L429.32 220.593H429.584C430.756 220.65 431.922 220.799 433.071 221.036C433.483 221.095 433.889 221.195 434.281 221.336Z" fill="#455A64"/>
<path d="M435.791 251.724C435.453 251.477 435.161 251.173 434.928 250.825C434.425 250.19 433.874 249.136 433.083 247.914H433.406C431.467 251.701 429.197 255.309 426.624 258.698L426.384 259.022L426.133 258.698C424.934 257.204 423.736 255.607 422.538 253.905L419.782 250.31H420.237L415.804 254.217L413.814 255.93L412.892 256.733L412.448 257.116L412.341 257.212H412.209C412.209 257.32 411.813 257.068 411.897 256.961V256.889C411.897 256.889 411.981 257.092 412.017 257.08L411.813 257.14L411.741 256.913C411.034 254.516 410.543 252.623 410.244 251.257C410.039 250.561 409.958 249.835 410.004 249.112C410.132 249.815 410.296 250.511 410.495 251.197C410.867 252.527 411.43 254.432 412.209 256.769L411.933 256.601C412.019 256.577 412.11 256.577 412.197 256.601C412.257 256.621 412.309 256.66 412.345 256.712C412.382 256.763 412.401 256.825 412.4 256.889C412.412 256.944 412.412 257.001 412.4 257.056H412.341L412.173 256.985C412.161 256.939 412.136 256.897 412.101 256.865L412.029 256.793L412.125 256.697L412.568 256.302L413.479 255.487C414.102 254.924 414.749 254.288 415.432 253.737L419.806 249.843L420.057 249.615L420.273 249.891L423.029 253.486C424.299 255.139 425.522 256.745 426.624 258.279H426.133C428.706 254.926 431.025 251.385 433.071 247.686L433.239 247.398L433.406 247.674C434.173 248.956 434.605 250.07 435.096 250.682C435.587 251.293 435.827 251.688 435.791 251.724Z" fill="#455A64"/>
</svg>
