<svg width="512" height="512" viewBox="0 0 512 512" fill="none" xmlns="http://www.w3.org/2000/svg">
<path d="M0 256C0 397.385 114.615 512 256 512C397.385 512 512 397.385 512 256C512 114.615 397.385 0 256 0C114.615 0 0 114.615 0 256Z" fill="#F00073"/>
<path d="M256 147.2C291.2 147.2 296 147.2 310.4 147.2C323.2 147.2 329.6 150.4 334.4 152C340.8 155.2 345.6 156.8 350.4 161.6C355.2 166.4 358.4 171.2 360 177.6C361.6 182.4 363.2 188.8 364.8 201.6C364.8 216 364.8 219.2 364.8 256C364.8 292.8 364.8 296 364.8 310.4C364.8 323.2 361.6 329.6 360 334.4C356.8 340.8 355.2 345.6 350.4 350.4C345.6 355.2 340.8 358.4 334.4 360C329.6 361.6 323.2 363.2 310.4 364.8C296 364.8 292.8 364.8 256 364.8C219.2 364.8 216 364.8 201.6 364.8C188.8 364.8 182.4 361.6 177.6 360C171.2 356.8 166.4 355.2 161.6 350.4C156.8 345.6 153.6 340.8 152 334.4C150.4 329.6 148.8 323.2 147.2 310.4C147.2 296 147.2 292.8 147.2 256C147.2 219.2 147.2 216 147.2 201.6C147.2 188.8 150.4 182.4 152 177.6C155.2 171.2 156.8 166.4 161.6 161.6C166.4 156.8 171.2 153.6 177.6 152C182.4 150.4 188.8 148.8 201.6 147.2C216 147.2 220.8 147.2 256 147.2ZM256 123.2C219.2 123.2 216 123.2 201.6 123.2C187.2 123.2 177.6 126.4 169.6 129.6C161.6 132.8 153.6 137.6 145.6 145.6C137.6 153.6 134.4 160 129.6 169.6C126.4 177.6 124.8 187.2 123.2 201.6C123.2 216 123.2 220.8 123.2 256C123.2 292.8 123.2 296 123.2 310.4C123.2 324.8 126.4 334.4 129.6 342.4C132.8 350.4 137.6 358.4 145.6 366.4C153.6 374.4 160 377.6 169.6 382.4C177.6 385.6 187.2 387.2 201.6 388.8C216 388.8 220.8 388.8 256 388.8C291.2 388.8 296 388.8 310.4 388.8C324.8 388.8 334.4 385.6 342.4 382.4C350.4 379.2 358.4 374.4 366.4 366.4C374.4 358.4 377.6 352 382.4 342.4C385.6 334.4 387.2 324.8 388.8 310.4C388.8 296 388.8 291.2 388.8 256C388.8 220.8 388.8 216 388.8 201.6C388.8 187.2 385.6 177.6 382.4 169.6C379.2 161.6 374.4 153.6 366.4 145.6C358.4 137.6 352 134.4 342.4 129.6C334.4 126.4 324.8 124.8 310.4 123.2C296 123.2 292.8 123.2 256 123.2Z" fill="white"/>
<path d="M256 187.2C217.6 187.2 187.2 217.6 187.2 256C187.2 294.4 217.6 324.8 256 324.8C294.4 324.8 324.8 294.4 324.8 256C324.8 217.6 294.4 187.2 256 187.2ZM256 300.8C232 300.8 211.2 281.6 211.2 256C211.2 232 230.4 211.2 256 211.2C280 211.2 300.8 230.4 300.8 256C300.8 280 280 300.8 256 300.8Z" fill="white"/>
<path d="M326.4 201.6C335.237 201.6 342.4 194.437 342.4 185.6C342.4 176.764 335.237 169.6 326.4 169.6C317.563 169.6 310.4 176.764 310.4 185.6C310.4 194.437 317.563 201.6 326.4 201.6Z" fill="white"/>
</svg>
