<svg width="110" height="62" viewBox="0 0 110 62" fill="none" xmlns="http://www.w3.org/2000/svg">
<path d="M89.7626 54.7504L85.1815 47.3747V54.7504H80.5734V31.4255H85.1815V44.3172L89.7356 37.1622H95.4216L89.1697 45.9878L95.4755 54.7504H89.7626Z" fill="#ED7801"/>
<path d="M69.1746 54.8134C67.396 54.8134 65.7612 54.3301 64.2701 53.3635C62.797 52.3969 61.6203 51.052 60.74 49.3289C59.8776 47.5848 59.4465 45.6306 59.4465 43.4662C59.4465 41.3018 59.8776 39.3581 60.74 37.635C61.6203 35.9119 62.797 34.567 64.2701 33.6004C65.7612 32.6338 67.396 32.1505 69.1746 32.1505C70.9531 32.1505 72.579 32.6338 74.0521 33.6004C75.5432 34.567 76.7109 35.9119 77.5553 37.635C78.4176 39.3581 78.8488 41.3018 78.8488 43.4662C78.8488 45.6306 78.4176 47.5848 77.5553 49.3289C76.693 51.052 75.5252 52.3969 74.0521 53.3635C72.579 54.3301 70.9531 54.8134 69.1746 54.8134ZM69.1746 49.8963C70.6836 49.8963 71.8873 49.3079 72.7856 48.1312C73.7018 46.9544 74.1599 45.3994 74.1599 43.4662C74.1599 41.5119 73.7018 39.957 72.7856 38.8012C71.8873 37.6245 70.6836 37.0361 69.1746 37.0361C67.6476 37.0361 66.4259 37.614 65.5097 38.7697C64.6115 39.9254 64.1623 41.4909 64.1623 43.4662C64.1623 45.4204 64.6115 46.9859 65.5097 48.1627C66.4259 49.3184 67.6476 49.8963 69.1746 49.8963Z" fill="#ED7801"/>
<path d="M19.3215 32.0874C21.1898 32.0874 22.6719 32.7494 23.7678 34.0732C24.8817 35.397 25.4386 37.2357 25.4386 39.5892V49.8648H20.8575V40.3142C20.8575 39.1795 20.597 38.3074 20.076 37.698C19.573 37.0676 18.8723 36.7524 17.9741 36.7524C17.0758 36.7524 16.3662 37.0676 15.8452 37.698C15.3422 38.3074 15.0907 39.1795 15.0907 40.3142V49.8648H10.5096V40.3142C10.5096 39.1795 10.2491 38.3074 9.7281 37.698C9.22507 37.0676 8.52444 36.7524 7.62618 36.7524C6.72793 36.7524 6.01831 37.0676 5.49732 37.698C4.9943 38.3074 4.74278 39.1795 4.74278 40.3142V49.8648H0.134738V32.2766H4.74278V34.483C5.20988 33.7475 5.82069 33.1696 6.57522 32.7494C7.32976 32.3081 8.1831 32.0874 9.13525 32.0874C10.267 32.0874 11.2731 32.3711 12.1534 32.9385C13.0516 33.5058 13.7523 34.3149 14.2553 35.3655C14.7763 34.3989 15.4859 33.6109 16.3842 33.0015C17.2824 32.3921 18.2615 32.0874 19.3215 32.0874Z" fill="#352A2B"/>
<path d="M7.38365 22.6629C6.00034 22.6629 4.76075 22.4003 3.66488 21.8749C2.56901 21.3496 1.68872 20.5721 1.02401 19.5424C0.377267 18.5128 0.0359302 17.273 0 15.8231H4.90447C4.97633 16.6426 5.21886 17.273 5.63206 17.7143C6.04525 18.1346 6.58421 18.3447 7.24891 18.3447C7.93159 18.3447 8.47054 18.1661 8.86577 17.8088C9.261 17.4306 9.45862 16.9158 9.45862 16.2644C9.45862 15.718 9.29694 15.2662 8.97356 14.909C8.66816 14.5518 8.28191 14.2576 7.81481 14.0264C7.36569 13.7953 6.71894 13.5326 5.87458 13.2384C4.65296 12.7972 3.6559 12.3559 2.8834 11.9146C2.1109 11.4733 1.44619 10.8219 0.889272 9.96035C0.332354 9.0988 0.0538953 7.97458 0.0538953 6.5877C0.0538953 4.52839 0.691656 2.92086 1.96718 1.76512C3.2427 0.588375 4.90447 0 6.95249 0C9.03644 0 10.7162 0.588375 11.9917 1.76512C13.2672 2.92086 13.9499 4.53889 14.0397 6.61922H9.05441C9.01848 5.90476 8.79391 5.34791 8.38071 4.94865C7.96752 4.52838 7.43755 4.31825 6.7908 4.31825C6.23389 4.31825 5.78476 4.49686 5.44342 4.85409C5.10209 5.19031 4.93142 5.68412 4.93142 6.33554C4.93142 7.04999 5.21886 7.60685 5.79374 8.0061C6.36862 8.40535 7.26688 8.83613 8.48851 9.29842C9.71013 9.78173 10.6982 10.244 11.4527 10.6853C12.2252 11.1266 12.89 11.7675 13.4469 12.608C14.0038 13.4486 14.2822 14.5308 14.2822 15.8546C14.2822 17.1154 14.0038 18.2606 13.4469 19.2903C12.9079 20.3199 12.1175 21.1395 11.0755 21.7489C10.0335 22.3582 8.80289 22.6629 7.38365 22.6629Z" fill="#ED7801"/>
<path d="M21.8545 7.88002V30.0071H17.2465V7.88002H21.8545Z" fill="#ED7801"/>
<path d="M44.3828 12.2298C46.2511 12.2298 47.7332 12.8917 48.8291 14.2156C49.943 15.5394 50.4999 17.3781 50.4999 19.7316V30.0071H45.9188V20.4565C45.9188 19.3218 45.6583 18.4498 45.1373 17.8404C44.6343 17.21 43.9336 16.8948 43.0354 16.8948C42.1371 16.8948 41.4275 17.21 40.9065 17.8404C40.4035 18.4498 40.152 19.3218 40.152 20.4565V30.0071H35.5709V20.4565C35.5709 19.3218 35.3104 18.4498 34.7894 17.8404C34.2864 17.21 33.5857 16.8948 32.6875 16.8948C31.7892 16.8948 31.0796 17.21 30.5586 17.8404C30.0556 18.4498 29.8041 19.3218 29.8041 20.4565V30.0071H25.196V12.4189H29.8041V14.6253C30.2712 13.8898 30.882 13.312 31.6365 12.8917C32.3911 12.4504 33.2444 12.2298 34.1965 12.2298C35.3284 12.2298 36.3344 12.5135 37.2147 13.0808C38.1129 13.6482 38.8136 14.4572 39.3166 15.5079C39.8376 14.5413 40.5472 13.7533 41.4455 13.1439C42.3437 12.5345 43.3228 12.2298 44.3828 12.2298Z" fill="#352A2B"/>
<path d="M57.6949 14.7514C58.144 13.9319 58.7638 13.27 59.5543 12.7656C60.3447 12.2613 61.2699 12.0092 62.3299 12.0092C63.5695 12.0092 64.6923 12.3769 65.6983 13.1124C66.7044 13.8478 67.4948 14.8985 68.0697 16.2644C68.6626 17.6302 68.959 19.2167 68.959 21.0239C68.959 22.831 68.6626 24.4281 68.0697 25.8149C67.4948 27.1808 66.7044 28.242 65.6983 28.9985C64.6923 29.7339 63.5695 30.1017 62.3299 30.1017C61.2879 30.1017 60.3627 29.8495 59.5543 29.3452C58.7638 28.8409 58.144 28.1895 57.6949 27.391V38.2339H53.0868V12.2613H57.6949V14.7514ZM64.2701 21.0239C64.2701 19.679 63.9467 18.6284 63.3 17.8719C62.6712 17.0944 61.8897 16.7056 60.9556 16.7056C60.0393 16.7056 59.2579 17.0944 58.6111 17.8719C57.9823 18.6494 57.6679 19.7106 57.6679 21.0554C57.6679 22.4003 57.9823 23.4614 58.6111 24.2389C59.2579 25.0164 60.0393 25.4052 60.9556 25.4052C61.8718 25.4052 62.6533 25.0164 63.3 24.2389C63.9467 23.4404 64.2701 22.3688 64.2701 21.0239Z" fill="#352A2B"/>
<path d="M85.8552 20.6141C85.8552 21.1185 85.8282 21.6438 85.7743 22.1901H75.3456C75.4174 23.2828 75.7139 24.1234 76.2349 24.7117C76.7738 25.2791 77.4295 25.5628 78.202 25.5628C79.3518 25.5628 80.1513 24.9954 80.6004 23.8607H85.5049C85.2533 25.0164 84.7952 26.0566 84.1305 26.9812C83.4838 27.9058 82.6664 28.6307 81.6783 29.1561C80.6902 29.6814 79.5854 29.9441 78.3637 29.9441C76.8906 29.9441 75.5791 29.5763 74.4294 28.8409C73.2796 28.1054 72.3814 27.0547 71.7346 25.6889C71.0879 24.323 70.7645 22.726 70.7645 20.8978C70.7645 19.0696 71.0789 17.4726 71.7077 16.1068C72.3544 14.7409 73.2527 13.6902 74.4024 12.9548C75.5522 12.2193 76.8726 11.8516 78.3637 11.8516C79.8189 11.8516 81.1124 12.2088 82.2442 12.9232C83.376 13.6377 84.2563 14.6568 84.885 15.9807C85.5318 17.3045 85.8552 18.849 85.8552 20.6141ZM81.1393 19.1957C81.1393 18.2711 80.8699 17.5357 80.3309 16.9893C79.7919 16.443 79.1183 16.1698 78.3098 16.1698C77.5373 16.1698 76.8816 16.4325 76.3427 16.9578C75.8217 17.4831 75.4983 18.2291 75.3725 19.1957H81.1393Z" fill="#352A2B"/>
<path d="M92.3226 6.68226V30.0071H87.7146V6.68226H92.3226Z" fill="#352A2B"/>
<path d="M51.8742 32.0874C53.6348 32.0874 55.0361 32.7599 56.078 34.1047C57.138 35.4286 57.6679 37.2567 57.6679 39.5892V49.8648H53.0868V40.3142C53.0868 39.1374 52.8264 38.2234 52.3054 37.5719C51.7844 36.9205 51.0837 36.5948 50.2034 36.5948C49.3232 36.5948 48.6225 36.9205 48.1015 37.5719C47.5805 38.2234 47.32 39.1374 47.32 40.3142V49.8648H42.712V32.2766H47.32V34.609C47.7871 33.8316 48.4159 33.2222 49.2064 32.7809C49.9968 32.3186 50.8861 32.0874 51.8742 32.0874Z" fill="#352A2B"/>
<path d="M108.469 40.6309C108.701 41.0563 108.919 41.5163 109.125 42.011L100.329 48.5645C100.892 49.441 101.528 49.9636 102.237 50.1325C102.952 50.2723 103.636 50.0995 104.287 49.6141C105.257 48.8915 105.671 47.9106 105.528 46.6713L109.665 43.5893C109.984 44.7221 110.075 45.8873 109.939 47.0848C109.818 48.2711 109.462 49.3962 108.87 50.4602C108.278 51.5242 107.466 52.44 106.436 53.2077C105.194 54.1335 103.919 54.6475 102.611 54.7497C101.304 54.8519 100.063 54.5302 98.8905 53.7846C97.7176 53.0391 96.7114 51.8953 95.8717 50.3534C95.0319 48.8115 94.5636 47.267 94.4665 45.7198C94.3846 44.1614 94.6596 42.7108 95.2916 41.3679C95.9235 40.0251 96.8683 38.8852 98.1259 37.9481C99.3532 37.0337 100.608 36.5221 101.891 36.4135C103.174 36.3048 104.384 36.6112 105.523 37.3326C106.676 38.0428 107.658 39.1422 108.469 40.6309ZM103.84 42.3981C103.416 41.6183 102.85 41.1673 102.145 41.0452C101.439 40.9231 100.746 41.1161 100.064 41.6241C99.4123 42.1096 98.9799 42.7432 98.7667 43.5249C98.5686 44.2954 98.6385 45.1278 98.9764 46.0221L103.84 42.3981Z" fill="#ED7801"/>
<path d="M41.661 40.6294C41.661 41.1337 41.6341 41.659 41.5802 42.2054H31.1515C31.2233 43.2981 31.5198 44.1386 32.0407 44.727C32.5797 45.2944 33.2354 45.578 34.0079 45.578C35.1577 45.578 35.9571 45.0107 36.4063 43.8759H41.3107C41.0592 45.0317 40.6011 46.0719 39.9364 46.9964C39.2896 47.921 38.4722 48.646 37.4842 49.1713C36.4961 49.6967 35.3912 49.9593 34.1696 49.9593C32.6965 49.9593 31.385 49.5916 30.2352 48.8561C29.0855 48.1207 28.1872 47.07 27.5405 45.7041C26.8937 44.3382 26.5704 42.7412 26.5704 40.9131C26.5704 39.0849 26.8848 37.4879 27.5135 36.122C28.1603 34.7561 29.0585 33.7055 30.2083 32.97C31.3581 32.2345 32.6785 31.8668 34.1696 31.8668C35.6248 31.8668 36.9183 32.224 38.0501 32.9385C39.1819 33.6529 40.0621 34.6721 40.6909 35.9959C41.3377 37.3198 41.661 38.8643 41.661 40.6294ZM36.9452 39.211C36.9452 38.2864 36.6757 37.5509 36.1368 37.0046C35.5978 36.4582 34.9241 36.1851 34.1157 36.1851C33.3432 36.1851 32.6875 36.4477 32.1485 36.9731C31.6275 37.4984 31.3042 38.2444 31.1784 39.211H36.9452Z" fill="#352A2B"/>
<path fill-rule="evenodd" clip-rule="evenodd" d="M21.7693 1.24559C21.8103 1.26474 21.8455 1.29784 21.8703 1.34061C21.8951 1.38338 21.9084 1.43386 21.9084 1.48553V4.47176C21.9084 4.52344 21.8951 4.57392 21.8703 4.61669C21.8455 4.65946 21.8103 4.69256 21.7693 4.71171L19.6324 5.71149C19.5798 5.73614 19.521 5.73614 19.4683 5.71149L17.3314 4.71171C17.2904 4.6925 17.2553 4.65938 17.2306 4.61662C17.2058 4.57385 17.1926 4.5234 17.1926 4.47176V1.48553C17.1926 1.43389 17.2058 1.38344 17.2306 1.34068C17.2553 1.29791 17.2904 1.26479 17.3314 1.24559L19.3863 0.284075L19.3875 0.28373L19.4683 0.245808C19.5211 0.221066 19.58 0.221066 19.6327 0.245808L19.7135 0.28373L19.7147 0.284075L21.7693 1.24559ZM21.3643 1.42727L19.5505 2.27605L17.7367 1.42727L17.4873 1.54414V1.68204L19.4031 2.57839V5.30951L19.5505 5.37846L19.6979 5.30951V2.57874L21.6137 1.68238V1.54448L21.3643 1.42761V1.42727Z" fill="#ED7801"/>
<path d="M56.6709 38.2339H57.6949V49.8648H56.6709V38.2339Z" fill="#352A2B"/>
<path d="M59.5004 57.272H78.768V62H59.5004V57.272Z" fill="#ED7801"/>
<path d="M0.0808561 25.2791H14.2284V30.0071H0.0808561V25.2791Z" fill="#ED7801"/>
</svg>
