<svg width="512" height="247" viewBox="0 0 512 247" fill="none" xmlns="http://www.w3.org/2000/svg">
<path d="M417.804 217.371L396.481 188.088V217.371H375.033V124.766H396.481V175.949L417.679 147.542H444.144L415.045 182.582L444.395 217.371H417.804Z" fill="#ED7801"/>
<path d="M321.976 217.622C313.698 217.622 306.089 215.703 299.148 211.865C292.291 208.027 286.814 202.688 282.717 195.847C278.703 188.922 276.696 181.164 276.696 172.57C276.696 163.977 278.703 156.26 282.717 149.419C286.814 142.578 292.291 137.239 299.148 133.401C306.089 129.563 313.698 127.645 321.976 127.645C330.255 127.645 337.822 129.563 344.679 133.401C351.619 137.239 357.055 142.578 360.985 149.419C364.998 156.26 367.005 163.977 367.005 172.57C367.005 181.164 364.998 188.922 360.985 195.847C356.971 202.688 351.536 208.027 344.679 211.865C337.822 215.703 330.255 217.622 321.976 217.622ZM321.976 198.099C329 198.099 334.603 195.763 338.784 191.091C343.048 186.42 345.181 180.246 345.181 172.57C345.181 164.812 343.048 158.638 338.784 154.05C334.603 149.378 329 147.042 321.976 147.042C314.869 147.042 309.182 149.336 304.918 153.924C300.737 158.513 298.646 164.728 298.646 172.57C298.646 180.329 300.737 186.545 304.918 191.217C309.182 195.805 314.869 198.099 321.976 198.099Z" fill="#ED7801"/>
<path d="M89.9326 127.394C98.629 127.394 105.528 130.022 110.628 135.278C115.813 140.534 118.405 147.834 118.405 157.178V197.974H97.082V160.056C97.082 155.551 95.8696 152.089 93.4446 149.67C91.1033 147.167 87.8421 145.915 83.6611 145.915C79.4802 145.915 76.1772 147.167 73.7522 149.67C71.4109 152.089 70.2402 155.551 70.2402 160.056V197.974H48.9173V160.056C48.9173 155.551 47.7048 152.089 45.2799 149.67C42.9385 147.167 39.6774 145.915 35.4964 145.915C31.3154 145.915 28.0125 147.167 25.5875 149.67C23.2462 152.089 22.0755 155.551 22.0755 160.056V197.974H0.627145V128.145H22.0755V136.905C24.2496 133.985 27.0927 131.691 30.6047 130.022C34.1167 128.27 38.0886 127.394 42.5204 127.394C47.7884 127.394 52.4711 128.521 56.5685 130.773C60.7494 133.026 64.0106 136.238 66.3519 140.409C68.7769 136.571 72.0799 133.443 76.2608 131.023C80.4418 128.604 84.999 127.394 89.9326 127.394Z" fill="#352A2B"/>
<path d="M34.3675 89.9769C27.9289 89.9769 22.1591 88.9341 17.0583 86.8484C11.9576 84.7627 7.86022 81.6759 4.7663 77.5879C1.75601 73.4999 0.167239 68.5777 0 62.8212H22.8281C23.1626 66.0749 24.2914 68.5777 26.2147 70.3297C28.1379 71.9982 30.6465 72.8325 33.7404 72.8325C36.9179 72.8325 39.4265 72.1234 41.2661 70.7051C43.1058 69.2034 44.0256 67.1594 44.0256 64.5731C44.0256 62.404 43.273 60.6103 41.7679 59.1921C40.3463 57.7738 38.5485 56.6058 36.3744 55.6881C34.2839 54.7704 31.2736 53.7275 27.3435 52.5595C21.6574 50.8076 17.0165 49.0556 13.4209 47.3036C9.82527 45.5516 6.73136 42.9653 4.13916 39.5448C1.54696 36.1243 0.250858 31.6609 0.250858 26.1546C0.250858 17.9787 3.21934 11.5965 9.15632 7.00794C15.0933 2.33598 22.8281 0 32.3607 0C42.0605 0 49.8789 2.33598 55.8159 7.00794C61.7529 11.5965 64.9304 18.0204 65.3485 26.2798H42.1441C41.9769 23.4432 40.9317 21.2324 39.0084 19.6473C37.0852 17.9787 34.6184 17.1444 31.6081 17.1444C29.0159 17.1444 26.9254 17.8536 25.3367 19.2718C23.7479 20.6067 22.9535 22.5672 22.9535 25.1535C22.9535 27.99 24.2914 30.2009 26.9672 31.786C29.6431 33.3711 33.824 35.0814 39.5101 36.9168C45.1962 38.8357 49.7953 40.6711 53.3073 42.4231C56.903 44.175 59.9969 46.7196 62.5891 50.0567C65.1813 53.3938 66.4774 57.6904 66.4774 62.9463C66.4774 67.952 65.1813 72.4988 62.5891 76.5868C60.0805 80.6747 56.4012 83.9284 51.5513 86.3478C46.7014 88.7672 40.9735 89.9769 34.3675 89.9769Z" fill="#ED7801"/>
<path d="M101.723 31.2854V119.135H80.2746V31.2854H101.723Z" fill="#ED7801"/>
<path d="M206.582 48.555C215.278 48.555 222.177 51.183 227.277 56.4389C232.462 61.6949 235.054 68.9948 235.054 78.3387V119.135H213.731V81.217C213.731 76.7119 212.519 73.2496 210.094 70.8302C207.752 68.3274 204.491 67.076 200.31 67.076C196.129 67.076 192.826 68.3274 190.401 70.8302C188.06 73.2496 186.889 76.7119 186.889 81.217V119.135H165.566V81.217C165.566 76.7119 164.354 73.2496 161.929 70.8302C159.587 68.3274 156.326 67.076 152.145 67.076C147.964 67.076 144.661 68.3274 142.236 70.8302C139.895 73.2496 138.724 76.7119 138.724 81.217V119.135H117.276V49.3059H138.724V58.0658C140.899 55.1458 143.742 52.8515 147.254 51.183C150.766 49.431 154.738 48.555 159.169 48.555C164.437 48.555 169.12 49.6813 173.217 51.9338C177.398 54.1864 180.66 57.3984 183.001 61.5697C185.426 57.7321 188.729 54.6035 192.91 52.1841C197.091 49.7647 201.648 48.555 206.582 48.555Z" fill="#352A2B"/>
<path d="M268.543 58.5663C270.634 55.3127 273.519 52.6847 277.198 50.6824C280.877 48.6801 285.184 47.679 290.117 47.679C295.887 47.679 301.113 49.139 305.796 52.059C310.479 54.9789 314.158 59.1503 316.834 64.5731C319.593 69.996 320.973 76.2948 320.973 83.4696C320.973 90.6444 319.593 96.9849 316.834 102.491C314.158 107.914 310.479 112.127 305.796 115.13C301.113 118.05 295.887 119.51 290.117 119.51C285.267 119.51 280.961 118.509 277.198 116.507C273.519 114.505 270.634 111.918 268.543 108.748V151.797H247.095V48.6801H268.543V58.5663ZM299.148 83.4696C299.148 78.1302 297.643 73.9588 294.633 70.9554C291.706 67.8685 288.069 66.3251 283.72 66.3251C279.456 66.3251 275.818 67.8685 272.808 70.9554C269.881 74.0422 268.418 78.2553 268.418 83.5947C268.418 88.9341 269.881 93.1472 272.808 96.234C275.818 99.3208 279.456 100.864 283.72 100.864C287.985 100.864 291.622 99.3208 294.633 96.234C297.643 93.0638 299.148 88.8089 299.148 83.4696Z" fill="#352A2B"/>
<path d="M399.617 81.8427C399.617 83.845 399.491 85.9307 399.24 88.0998H350.699C351.034 92.4381 352.414 95.7752 354.839 98.1111C357.347 100.364 360.399 101.49 363.995 101.49C369.347 101.49 373.068 99.2374 375.158 94.7323H397.986C396.816 99.3209 394.683 103.451 391.589 107.121C388.579 110.792 384.774 113.67 380.175 115.756C375.576 117.842 370.434 118.885 364.747 118.885C357.891 118.885 351.787 117.425 346.435 114.505C341.083 111.585 336.902 107.413 333.892 101.991C330.882 96.5677 329.377 90.2272 329.377 82.969C329.377 75.7108 330.84 69.3702 333.767 63.9474C336.777 58.5246 340.958 54.3532 346.309 51.4333C351.661 48.5133 357.807 47.0533 364.747 47.0533C371.521 47.0533 377.541 48.4716 382.809 51.3081C388.077 54.1447 392.175 58.1909 395.101 63.4469C398.112 68.7028 399.617 74.8348 399.617 81.8427ZM377.667 76.2113C377.667 72.5405 376.412 69.6205 373.904 67.4514C371.395 65.2823 368.26 64.1977 364.497 64.1977C360.901 64.1977 357.849 65.2406 355.34 67.3263C352.915 69.412 351.41 72.3737 350.825 76.2113H377.667Z" fill="#352A2B"/>
<path d="M429.72 26.5301V119.135H408.271V26.5301H429.72Z" fill="#352A2B"/>
<path d="M241.451 127.394C249.645 127.394 256.168 130.064 261.018 135.403C265.951 140.659 268.418 147.918 268.418 157.178V197.974H247.095V160.056C247.095 155.384 245.883 151.755 243.458 149.169C241.033 146.583 237.772 145.29 233.674 145.29C229.577 145.29 226.316 146.583 223.891 149.169C221.466 151.755 220.253 155.384 220.253 160.056V197.974H198.805V128.145H220.253V137.406C222.427 134.319 225.354 131.899 229.033 130.147C232.713 128.312 236.852 127.394 241.451 127.394Z" fill="#352A2B"/>
<path d="M504.874 161.314C505.953 163.003 506.97 164.829 507.926 166.793L466.986 192.812C469.604 196.292 472.565 198.367 475.868 199.037C479.197 199.592 482.377 198.906 485.41 196.979C489.924 194.11 491.849 190.216 491.186 185.296L510.44 173.059C511.924 177.557 512.349 182.183 511.716 186.937C511.154 191.647 509.495 196.114 506.739 200.338C503.983 204.563 500.207 208.199 495.412 211.247C489.629 214.922 483.694 216.963 477.608 217.368C471.522 217.774 465.749 216.497 460.29 213.537C454.831 210.577 450.147 206.036 446.239 199.914C442.33 193.793 440.15 187.66 439.699 181.518C439.318 175.331 440.598 169.571 443.539 164.24C446.48 158.909 450.878 154.383 456.731 150.663C462.444 147.032 468.286 145.001 474.256 144.57C480.227 144.138 485.861 145.355 491.16 148.219C496.529 151.038 501.101 155.403 504.874 161.314ZM483.329 168.33C481.352 165.234 478.722 163.444 475.438 162.959C472.154 162.474 468.926 163.24 465.752 165.257C462.719 167.184 460.707 169.7 459.714 172.804C458.792 175.863 459.117 179.167 460.69 182.718L483.329 168.33Z" fill="#ED7801"/>
<path d="M193.913 161.308C193.913 163.31 193.788 165.396 193.537 167.565H144.996C145.33 171.903 146.71 175.24 149.135 177.576C151.644 179.829 154.696 180.955 158.291 180.955C163.643 180.955 167.364 178.702 169.455 174.197H192.283C191.112 178.786 188.98 182.916 185.886 186.586C182.875 190.257 179.071 193.135 174.472 195.221C169.873 197.307 164.73 198.35 159.044 198.35C152.187 198.35 146.083 196.89 140.731 193.97C135.38 191.05 131.199 186.878 128.188 181.456C125.178 176.033 123.673 169.692 123.673 162.434C123.673 155.176 125.136 148.835 128.063 143.412C131.073 137.99 135.254 133.818 140.606 130.898C145.958 127.978 152.104 126.518 159.044 126.518C165.817 126.518 171.838 127.937 177.106 130.773C182.374 133.61 186.471 137.656 189.398 142.912C192.408 148.168 193.913 154.3 193.913 161.308ZM171.963 155.676C171.963 152.006 170.709 149.086 168.2 146.916C165.692 144.747 162.556 143.663 158.793 143.663C155.197 143.663 152.145 144.706 149.637 146.791C147.212 148.877 145.707 151.839 145.121 155.676H171.963Z" fill="#352A2B"/>
<path fill-rule="evenodd" clip-rule="evenodd" d="M101.326 4.94525C101.517 5.0213 101.681 5.1527 101.796 5.32251C101.912 5.49231 101.974 5.69273 101.974 5.89789V17.7539C101.974 17.9591 101.912 18.1595 101.796 18.3293C101.681 18.4991 101.517 18.6305 101.326 18.7065L91.3801 22.6759C91.1348 22.7737 90.8612 22.7737 90.616 22.6759L80.6698 18.7065C80.4791 18.6303 80.3156 18.4988 80.2005 18.329C80.0853 18.1592 80.0237 17.9589 80.0237 17.7539V5.89789C80.0237 5.69288 80.0853 5.49258 80.2005 5.3228C80.3156 5.15301 80.4791 5.02152 80.6698 4.94525L90.2346 1.12784L90.2401 1.12647L90.616 0.975912C90.8616 0.877681 91.1358 0.877681 91.3815 0.975912L91.7574 1.12647L91.7629 1.12784L101.326 4.94525ZM99.4413 5.66658L90.9987 9.03641L82.5562 5.66658L81.3956 6.13058V6.67807L90.3128 10.2368V21.0799L90.9987 21.3537L91.6847 21.0799V10.2382L100.602 6.67944V6.13195L99.4413 5.66795V5.66658Z" fill="#ED7801"/>
<path d="M263.777 151.797H268.543V197.974H263.777V151.797Z" fill="#352A2B"/>
<path d="M276.947 227.383H366.629V246.154H276.947V227.383Z" fill="#ED7801"/>
<path d="M0.376348 100.364H66.2266V119.135H0.376348V100.364Z" fill="#ED7801"/>
</svg>
