<svg width="250" height="251" viewBox="0 0 250 251" fill="none" xmlns="http://www.w3.org/2000/svg">
<path d="M182.33 160.125H222.075V130.109H182.33V160.125Z" fill="#EBEBEB"/>
<path d="M185.168 157.502H189.959V152.204H185.168V157.502Z" fill="white"/>
<path d="M209.952 130.184H205.437V136.587H209.952V130.184Z" fill="#FAFAFA"/>
<path d="M209.952 153.63H205.437V160.033H209.952V153.63Z" fill="#FAFAFA"/>
<path d="M192.247 160.329C192.175 160.329 192.12 153.727 192.12 145.585C192.12 137.443 192.175 130.841 192.247 130.841C192.318 130.841 192.373 137.443 192.373 145.585C192.373 153.727 192.318 160.329 192.247 160.329Z" fill="#E0E0E0"/>
<path d="M166.12 211.81H234.698V160.022H166.12V211.81Z" fill="#EBEBEB"/>
<path d="M171.021 207.292H179.283V198.148H171.021V207.292Z" fill="white"/>
<path d="M213.775 160.157H205.987V171.207H213.775V160.157Z" fill="#FAFAFA"/>
<path d="M213.775 200.603H205.987V211.653H213.775V200.603Z" fill="#FAFAFA"/>
<path d="M183.237 212.165C183.116 212.165 183.017 200.776 183.017 186.726C183.017 172.677 183.116 161.288 183.237 161.288C183.358 161.288 183.452 172.677 183.452 186.726C183.452 200.776 183.358 212.165 183.237 212.165Z" fill="#E0E0E0"/>
<path d="M232.52 52.3126L236.194 59.5985L244.406 60.767L238.466 66.4427L239.868 74.4502L232.52 70.6699L225.172 74.4502L226.574 66.4427L220.634 60.767L228.846 59.5985L232.52 52.3126Z" fill="#EBEBEB"/>
<path d="M13.7673 146.42L16.083 151.013L21.2587 151.746L17.513 155.321L18.3986 160.372L13.7673 157.987L9.13607 160.372L10.0216 155.321L6.27591 151.746L11.4517 151.013L13.7673 146.42Z" fill="#EBEBEB"/>
<path d="M16.6384 106.405L21.7812 116.604L33.2769 118.241L24.9604 126.178L26.924 137.39L16.6384 132.096L6.35836 137.39L8.32197 126.178L0 118.241L11.4956 116.604L16.6384 106.405Z" fill="#EBEBEB"/>
<path d="M229.247 85.2201L231.464 89.6196L236.42 90.325L232.834 93.7445L233.681 98.5748L229.247 96.2969L224.814 98.5748L225.661 93.7445L222.075 90.325L227.031 89.6196L229.247 85.2201Z" fill="#EBEBEB"/>
<path d="M156.522 14.004L158.739 18.3981L163.695 19.1036L160.108 22.5284L160.955 27.3587L156.522 25.0755L152.089 27.3587L152.936 22.5284L149.35 19.1036L154.306 18.3981L156.522 14.004Z" fill="#EBEBEB"/>
<path d="M207.219 61.0363L208.671 63.9118L211.916 64.3749L209.567 66.6151L210.123 69.776L207.219 68.2844L204.32 69.776L204.875 66.6151L202.527 64.3749L205.772 63.9118L207.219 61.0363Z" fill="#EBEBEB"/>
<path d="M73.3961 206.268L76.2232 211.869L82.5376 212.768L77.9668 217.13L79.0504 223.29L73.3961 220.382L67.7472 223.29L68.8253 217.13L64.2545 212.768L70.5744 211.869L73.3961 206.268Z" fill="#EBEBEB"/>
<path d="M80.8546 200.695L82.0207 203.01L84.6333 203.382L82.7412 205.186L83.1867 207.733L80.8546 206.527L78.5225 207.733L78.968 205.186L77.0759 203.382L79.6885 203.01L80.8546 200.695Z" fill="#EBEBEB"/>
<path d="M185.168 179.241L187.654 184.169L193.209 184.96L189.189 188.794L190.14 194.212L185.168 191.654L180.201 194.212L181.153 188.794L177.132 184.96L182.687 184.169L185.168 179.241Z" fill="#D64D54"/>
<path d="M197.021 174.874L198.193 177.195L200.805 177.567L198.913 179.376L199.359 181.928L197.021 180.722L194.678 181.928L195.129 179.376L193.231 177.567L195.85 177.195L197.021 174.874Z" fill="#D64D54"/>
<path d="M181.488 46.6315L183.446 40.6757C181.58 36.9964 181.014 32.815 181.835 28.7866C182.656 24.7582 184.82 21.1103 187.986 18.4146C191.152 15.7188 195.142 14.1274 199.331 13.8898C203.52 13.6521 207.671 14.7815 211.134 17.1012C214.597 19.4208 217.176 22.7995 218.467 26.7081C219.758 30.6166 219.689 34.8341 218.269 38.6999C216.85 42.5656 214.161 45.8611 210.623 48.0702C207.086 50.2792 202.899 51.277 198.721 50.9071C194.643 50.6352 190.785 49.0003 187.792 46.2761L181.488 46.6315Z" fill="#FAFAFA"/>
<path d="M181.488 46.6315L181.906 46.5992L183.122 46.513L187.791 46.2007C190.106 48.2966 192.957 49.7405 196.042 50.3794C196.994 50.5866 197.962 50.7216 198.935 50.7833L200.475 50.8425C200.992 50.8425 201.526 50.7833 202.059 50.7563C206.884 50.3277 211.356 48.0965 214.545 44.5259C216.342 42.5426 217.677 40.1996 218.456 37.6601C219.254 34.9465 219.415 32.0915 218.929 29.3081C218.808 28.5925 218.639 27.8856 218.423 27.1918C218.325 26.8404 218.206 26.4951 218.065 26.1579C217.928 25.8132 217.807 25.4686 217.658 25.1294C217.045 23.7598 216.27 22.4657 215.348 21.2737C214.888 20.6796 214.391 20.1148 213.857 19.5829C213.599 19.3116 213.323 19.0562 213.032 18.8182C212.752 18.5759 212.482 18.312 212.185 18.0912L211.283 17.4343L210.832 17.1112L210.348 16.8311L209.397 16.2926C209.072 16.1149 208.731 15.9803 208.401 15.8188C205.873 14.6475 203.109 14.0463 200.312 14.0593C197.516 14.0724 194.758 14.6994 192.241 15.8942C187.881 17.9444 184.495 21.5604 182.786 25.9909C182.693 26.2387 182.605 26.4864 182.517 26.7287C182.417 26.9678 182.338 27.2145 182.28 27.4664C182.154 27.9618 182.033 28.4519 181.912 28.9311C181.745 29.8702 181.631 30.8176 181.571 31.769C181.447 34.8466 182.109 37.9057 183.496 40.6703L182.022 45.0752L181.631 46.2168C181.543 46.4753 181.494 46.6099 181.494 46.6099C181.494 46.6099 181.527 46.4861 181.609 46.233L181.961 45.1021L183.375 40.638V40.6811C181.951 37.9114 181.263 34.8354 181.373 31.7367C181.424 30.7746 181.533 29.8163 181.697 28.8665C181.818 28.3819 181.945 27.8864 182.066 27.3856C182.124 27.131 182.201 26.8809 182.297 26.6371C182.39 26.3894 182.478 26.1417 182.572 25.8886C183.49 23.473 184.911 21.2704 186.744 19.4202C188.578 17.57 190.783 16.1126 193.221 15.1402C195.66 14.1678 198.278 13.7017 200.91 13.7712C203.541 13.8407 206.13 14.4444 208.511 15.5441C208.847 15.7003 209.193 15.8403 209.523 16.0234L210.491 16.5888L210.975 16.8742L211.437 17.2027L212.35 17.8651C212.653 18.0966 212.928 18.3605 213.214 18.6028C213.507 18.8459 213.786 19.1048 214.05 19.3782C214.591 19.921 215.096 20.4966 215.563 21.1014C216.502 22.3002 217.294 23.6034 217.922 24.984C218.071 25.3286 218.192 25.684 218.329 26.0286C218.475 26.3797 218.598 26.7394 218.698 27.1056C218.915 27.8118 219.084 28.5314 219.204 29.2596C219.701 32.0843 219.535 34.9826 218.72 37.7355C217.939 40.3234 216.589 42.7126 214.765 44.736C211.527 48.3404 206.998 50.5884 202.114 51.0148C201.564 51.0148 201.014 51.0902 200.508 51.0902L198.952 51.0256C197.969 50.9583 196.992 50.8179 196.031 50.6056C192.935 49.9418 190.082 48.4635 187.78 46.3299H187.824L183.111 46.5722L181.912 46.6261C181.62 46.6315 181.488 46.6315 181.488 46.6315Z" fill="#263238"/>
<path d="M189.667 31.7367L192.786 29.0873L198.039 34.3699L209.82 24.7632L212.312 27.8057L197.219 39.8357L189.667 31.7367Z" fill="#D64D54"/>
<path d="M148.855 179.01L43.3811 202.025C42.7707 202.162 42.1386 202.179 41.5214 202.075C40.9041 201.972 40.314 201.75 39.7848 201.422C39.2556 201.094 38.798 200.667 38.4381 200.165C38.0783 199.663 37.8235 199.097 37.6883 198.498L3.4819 48.1233C3.34563 47.5274 3.33077 46.9111 3.43817 46.3097C3.54557 45.7082 3.77312 45.1334 4.10778 44.6182C4.44245 44.103 4.87765 43.6574 5.38846 43.3071C5.89927 42.9568 6.47566 42.7086 7.0846 42.5768L112.559 19.5615C113.167 19.428 113.797 19.4134 114.412 19.5185C115.027 19.6236 115.614 19.8463 116.141 20.1739C116.668 20.5015 117.123 20.9275 117.482 21.4277C117.84 21.9278 118.094 22.4922 118.229 23.0886L152.458 173.463C152.594 174.059 152.609 174.676 152.501 175.277C152.394 175.878 152.167 176.453 151.832 176.968C151.497 177.484 151.062 177.929 150.551 178.28C150.04 178.63 149.464 178.878 148.855 179.01Z" fill="#E0E0E0"/>
<path d="M148.855 179.01L149.207 178.913C149.549 178.804 149.879 178.661 150.191 178.488C150.704 178.192 151.157 177.807 151.528 177.351C152.033 176.726 152.364 175.984 152.49 175.197C152.57 174.721 152.57 174.236 152.49 173.76C152.402 173.259 152.265 172.731 152.144 172.182C151.891 171.105 151.594 169.877 151.319 168.574C150.721 165.964 150.034 162.961 149.256 159.565C146.16 146.011 141.682 126.399 136.149 102.161C133.399 90.0451 130.363 76.7712 127.112 62.5172C125.491 55.3947 123.814 48.0353 122.079 40.4389C121.218 36.6407 120.341 32.7905 119.45 28.8882C118.999 26.9388 118.554 24.9733 118.097 22.9971C117.849 22.012 117.27 21.1372 116.453 20.5131C115.636 19.889 114.629 19.552 113.592 19.5561C113.076 19.5673 112.562 19.6396 112.063 19.7715L110.523 20.1053L107.426 20.7838L101.178 22.1462L88.4614 24.9249L62.2579 30.6598L7.12285 42.679C5.95741 42.9319 4.93626 43.6146 4.27151 44.5853C3.60676 45.556 3.34949 46.7401 3.55315 47.8917C4.05368 50.1803 4.59271 52.4743 5.10424 54.7575C6.14563 59.3168 7.17785 63.8491 8.20091 68.3545L14.2513 94.9615C18.2225 112.403 22.0507 129.204 25.6974 145.252C29.3441 161.299 32.8038 176.484 36.049 190.76C36.4523 192.555 36.8539 194.321 37.2535 196.059C37.4571 196.931 37.6386 197.814 37.8531 198.67C38.0841 199.514 38.5576 200.274 39.2171 200.862C39.8725 201.441 40.6804 201.829 41.5493 201.982C41.9802 202.051 42.4185 202.064 42.8529 202.02C43.2819 201.966 43.7164 201.864 44.1454 201.767L49.2662 200.652L68.6988 196.419L127.343 183.662L143.294 180.205L147.441 179.311L148.855 179.01L147.447 179.333L143.299 180.248L127.349 183.743L68.7153 196.576L49.3047 200.824L44.1839 201.944C43.7549 202.036 43.3259 202.144 42.8749 202.203C42.4239 202.248 41.9688 202.233 41.5218 202.16C40.6118 202.005 39.7659 201.599 39.0838 200.989C38.4016 200.38 37.9117 199.592 37.6716 198.719C37.4516 197.852 37.27 196.979 37.0665 196.107C36.6668 194.359 36.2635 192.592 35.8565 190.808C32.6113 176.554 29.1406 161.326 25.4884 145.3C21.8362 129.274 18.008 112.452 14.0312 95.01L7.9809 68.4083C6.95784 63.9065 5.92562 59.3706 4.88423 54.8006C4.3672 52.5174 3.83367 50.2341 3.32764 47.924C3.1159 46.7176 3.38694 45.4778 4.08447 44.462C4.78199 43.4462 5.85239 42.7324 7.07335 42.469L62.2139 30.4337L88.4339 24.7364L101.145 21.9631L107.393 20.6007L110.496 19.8899L112.036 19.5561C112.544 19.427 113.067 19.3583 113.592 19.3514C114.666 19.3539 115.708 19.7061 116.555 20.3525C117.401 20.999 118.004 21.9028 118.268 22.9217C118.719 24.9033 119.17 26.8634 119.615 28.8182C120.514 32.7241 121.397 36.5689 122.266 40.3528C123.986 47.9455 125.66 55.305 127.288 62.431C130.528 76.685 133.542 89.9589 136.298 102.08C141.798 126.313 146.253 145.941 149.333 159.5C150.098 162.887 150.78 165.903 151.374 168.509C151.665 169.818 151.924 171.019 152.188 172.123C152.309 172.661 152.447 173.199 152.529 173.7C152.611 174.182 152.611 174.673 152.529 175.154C152.404 175.956 152.066 176.712 151.55 177.346C151.174 177.801 150.718 178.186 150.202 178.482C149.886 178.657 149.55 178.796 149.201 178.897L148.855 179.01Z" fill="#263238"/>
<g opacity="0.3">
<path d="M48.7274 196.699L144.829 175.192L141.793 156.754L136.342 146.42L44.4097 181.772L48.7274 196.699Z" fill="black"/>
</g>
<g opacity="0.3">
<path d="M88.8521 25.0757L92.4878 30.9507L93.1919 34.0686L90.7277 34.607L88.8521 25.0757Z" fill="black"/>
</g>
<path d="M8.95465 48.9956L42.2975 195.466L146.809 172.666L140.847 146.474L113.466 26.1903L8.95465 48.9956Z" fill="white"/>
<path d="M8.95457 48.9957L113.46 26.1042H113.548V26.1958C122.822 66.9006 134.389 117.697 146.908 172.666V172.78H146.798L42.2919 195.574H42.1929V195.472C22.5623 108.979 9.15258 49.8734 8.94907 49.0011C9.15258 49.895 22.6503 108.984 42.3964 195.472L42.2699 195.396L146.776 172.58L146.688 172.715C134.186 117.756 122.629 66.9599 113.372 26.2443L113.482 26.3143L8.95457 48.9957Z" fill="#263238"/>
<path d="M38.384 31.5676L84.4741 21.5144C85.3754 21.3178 86.3196 21.4797 87.0989 21.9647C87.8782 22.4496 88.4288 23.2178 88.6296 24.1002L91.2922 35.8002L38.3946 47.3383L35.7344 35.6488C35.6332 35.2104 35.6215 34.7567 35.7 34.3139C35.7785 33.8711 35.9457 33.4478 36.192 33.0685C36.4383 32.6892 36.7587 32.3613 37.1349 32.1037C37.5111 31.8461 37.9356 31.6639 38.384 31.5676Z" fill="#263238"/>
<path d="M66.8784 19.4323L53.4192 22.367L57.5609 33.32L67.698 31.1068L66.8784 19.4323Z" fill="#263238"/>
<path d="M84.4739 21.5054C84.4739 21.5646 74.1828 23.864 61.4606 26.6426C48.7383 29.4213 38.4033 31.6345 38.3868 31.5752C38.3703 31.516 48.6778 29.2166 61.4111 26.438C74.1443 23.6594 84.4408 21.4623 84.4739 21.5054Z" fill="#455A64"/>
<path d="M39.0413 44.6606C38.9808 44.6606 38.4472 42.5605 37.8532 39.9434C37.2592 37.3263 36.8192 35.1885 36.8852 35.1723C36.9512 35.1562 37.4792 37.2725 38.0732 39.8949C38.6673 42.5174 39.1018 44.6606 39.0413 44.6606Z" fill="#455A64"/>
<path d="M88.7696 32.6198C88.3276 31.2033 87.9605 29.7654 87.6695 28.3119C87.3055 26.8912 87.0154 25.4534 86.8004 24.0039C87.2414 25.4116 87.6086 26.8405 87.9005 28.2849C88.2654 29.7145 88.5555 31.1613 88.7696 32.6198Z" fill="#455A64"/>
<path d="M86.6739 35.1778C86.6739 35.237 76.1078 37.5956 63.0501 40.4443C49.9923 43.2929 39.3987 45.56 39.3712 45.4953C39.3437 45.4307 49.9318 43.0775 63.0226 40.2289C76.1133 37.3802 86.6409 35.1185 86.6739 35.1778Z" fill="#455A64"/>
<path d="M58.8369 77.7837C58.8369 77.8483 51.714 79.453 42.886 81.3808C34.058 83.3086 26.9351 84.811 26.8966 84.7518C26.8581 84.6926 34.047 83.0825 42.8475 81.16C51.648 79.2376 58.8204 77.7244 58.8369 77.7837Z" fill="#263238"/>
<path d="M112.03 71.9193C112.03 71.984 93.4009 76.1035 70.3931 81.1222C47.3853 86.141 28.7118 90.1636 28.7007 90.1043C28.6897 90.0451 47.3248 85.9202 70.3436 80.9015C93.3624 75.8827 112.019 71.8601 112.03 71.9193Z" fill="#263238"/>
<path d="M113.18 76.9704C113.18 77.0296 94.5449 81.1491 71.5371 86.1733C48.5293 91.1974 29.8613 95.2146 29.8448 95.15C29.8283 95.0854 48.4743 90.9713 71.4876 85.9525C94.5009 80.9337 113.163 76.895 113.18 76.9704Z" fill="#263238"/>
<path d="M114.324 81.9892C114.324 82.0484 95.6945 86.1679 72.6867 91.1867C49.6789 96.2054 31.0053 100.233 30.9888 100.169C30.9723 100.104 49.6184 95.99 72.6372 90.9659C95.656 85.9417 114.308 81.9299 114.324 81.9892Z" fill="#263238"/>
<path d="M115.468 87.0242C115.468 87.0834 96.8385 91.2029 73.8307 96.2217C50.8229 101.24 32.1494 105.263 32.1384 105.204C32.1274 105.145 50.7624 101.025 73.7812 96.0009C96.8 90.9768 115.457 86.9596 115.468 87.0242Z" fill="#263238"/>
<path d="M116.618 92.0483C116.618 92.1129 97.9826 96.2324 74.9748 101.251C51.967 106.27 33.288 110.298 33.288 110.239C33.288 110.179 51.9175 106.06 74.9308 101.036C97.9441 96.0116 116.601 91.9944 116.618 92.0483Z" fill="#263238"/>
<path d="M49.4424 127.487C49.4201 127.433 49.4035 127.377 49.3929 127.32L49.2719 126.84C49.1674 126.404 49.0189 125.796 48.8374 125.036C48.4689 123.48 47.9519 121.294 47.3358 118.677L47.4568 118.752L38.4363 120.734C38.4363 120.734 38.6013 120.481 38.5243 120.599V120.637V120.712L38.5573 120.863L38.6288 121.165L38.7608 121.762C38.8543 122.161 38.9424 122.554 39.0304 122.947C39.2064 123.723 39.3824 124.487 39.5474 125.23C39.8829 126.711 40.1964 128.111 40.4879 129.398L40.3669 129.323L46.8848 127.95L48.7384 127.573L49.2334 127.481L49.4094 127.449C49.4094 127.449 49.3654 127.449 49.2554 127.497L48.7879 127.61L46.9728 128.031L40.4384 129.554H40.3394V129.458L39.3824 125.295C39.2119 124.552 39.0359 123.787 38.8323 123.012C38.7443 122.619 38.6508 122.226 38.5628 121.827C38.5133 121.633 38.4693 121.429 38.4253 121.229L38.3538 120.928L38.3208 120.777V120.702V120.664V120.637C38.2438 120.761 38.4253 120.475 38.4088 120.502L47.4348 118.548H47.5338V118.645L48.9529 125.106C49.1124 125.86 49.2389 126.463 49.3324 126.894C49.3709 127.088 49.3984 127.239 49.4259 127.363C49.4369 127.403 49.4425 127.445 49.4424 127.487Z" fill="#263238"/>
<path d="M116.492 105.715L53.56 119.442L54.7298 124.583L117.661 110.856L116.492 105.715Z" fill="#E0E0E0"/>
<path d="M52.9295 142.812C52.9088 142.756 52.8923 142.698 52.88 142.64C52.847 142.516 52.8085 142.355 52.759 142.161C52.6545 141.725 52.506 141.121 52.3245 140.362C51.956 138.8 51.439 136.593 50.8229 133.997L50.9439 134.073L41.9234 136.054C41.9234 136.086 42.0884 135.801 42.0114 135.925V135.952V135.99V136.065L42.0444 136.216L42.1159 136.517C42.1599 136.722 42.204 136.921 42.2535 137.12L42.5175 138.3C42.6935 139.081 42.8695 139.84 43.0345 140.583C43.37 142.064 43.6835 143.464 43.975 144.751L43.854 144.675L50.3774 143.308L52.2255 142.931L52.7205 142.834C52.7779 142.818 52.837 142.809 52.8965 142.807L52.748 142.85L52.275 142.963L50.4599 143.388L43.898 144.869H43.799V144.772L42.842 140.61C42.6715 139.867 42.4955 139.102 42.292 138.327C42.2039 137.939 42.1104 137.54 42.0224 137.147C41.9784 136.948 41.9289 136.749 41.8849 136.544L41.8134 136.243L41.7804 136.092V136.016V135.952L41.8684 135.812L50.8889 133.884H50.9879V133.976C51.571 136.63 52.088 138.822 52.407 140.438C52.5665 141.191 52.693 141.795 52.7865 142.225C52.825 142.419 52.8525 142.57 52.88 142.694C52.9017 142.731 52.9183 142.771 52.9295 142.812Z" fill="#263238"/>
<path d="M119.976 121.041L57.0446 134.768L58.2144 139.908L121.146 126.182L119.976 121.041Z" fill="#E0E0E0"/>
<path d="M56.4168 158.132C56.4168 158.132 56.4168 158.068 56.3673 157.96C56.3178 157.852 56.2957 157.675 56.2462 157.481C56.1417 157.045 55.9932 156.442 55.8117 155.682C55.4432 154.126 54.9262 151.913 54.3101 149.317L54.4311 149.393L45.3886 151.374C45.3886 151.407 45.5536 151.121 45.4766 151.245V151.283V151.32V151.396L45.5096 151.547L45.5811 151.848C45.6251 152.053 45.6691 152.252 45.7187 152.451L45.9827 153.631C46.1587 154.411 46.3347 155.171 46.4997 155.914L47.4403 160.082L47.3192 160.012L53.8426 158.639L55.6907 158.262L56.1857 158.165C56.2442 158.158 56.3033 158.158 56.3617 158.165L56.2132 158.208L55.7402 158.321L53.9251 158.746L47.3632 160.227H47.2642V160.13C46.9727 158.849 46.6482 157.438 46.3072 155.968C46.1367 155.225 45.9607 154.465 45.7572 153.684C45.6691 153.297 45.5756 152.904 45.4876 152.505C45.4436 152.306 45.3941 152.107 45.3501 151.907L45.2841 151.606L45.2456 151.455V151.374V151.283C45.1686 151.401 45.3501 151.116 45.3336 151.148L54.3596 149.193H54.4586V149.29L55.8777 155.752C56.0372 156.506 56.1637 157.109 56.2572 157.545C56.2957 157.734 56.3287 157.885 56.3507 158.009C56.3785 158.047 56.4007 158.088 56.4168 158.132Z" fill="#263238"/>
<path d="M123.467 136.367L60.5358 150.094L61.7056 155.234L124.637 141.507L123.467 136.367Z" fill="#E0E0E0"/>
<path d="M40.7739 124.326L41.72 122.866L44.5306 124.396L48.1498 119.054L49.5469 120.002L44.8827 126.733L40.7739 124.326Z" fill="#D64D54"/>
<path d="M44.1456 139.134L45.0916 137.675L47.9023 139.204L51.516 133.862L52.9186 134.81L48.2488 141.536L44.1456 139.134Z" fill="#D64D54"/>
<path d="M47.6053 154.314L48.5513 152.861L51.3565 154.39L54.9757 149.048L56.3728 149.99L51.7085 156.722L47.6053 154.314Z" fill="#D64D54"/>
<path d="M76.4104 173.361C76.4104 173.426 71.1082 174.637 64.5408 176.053C57.9734 177.47 52.6381 178.595 52.6271 178.536C52.6161 178.477 57.9239 177.265 64.4913 175.843C71.0587 174.422 76.3939 173.307 76.4104 173.361Z" fill="#263238"/>
<path d="M88.258 170.593C86.8224 171.026 85.3646 171.386 83.8908 171.67C82.4394 172.024 80.9708 172.306 79.4905 172.516C80.9247 172.084 82.3805 171.724 83.8523 171.439C86.2669 170.916 88.247 170.534 88.258 170.593Z" fill="#263238"/>
<path d="M127.497 158.504C127.497 158.563 122.729 159.662 116.821 160.949C110.914 162.236 106.107 163.232 106.096 163.173C106.085 163.113 110.859 162.02 116.772 160.728C122.685 159.436 127.486 158.445 127.497 158.504Z" fill="#263238"/>
<path d="M122.393 172.677C122.393 172.677 122.443 172.532 122.498 172.252C122.57 171.837 122.548 171.412 122.432 171.008C122.236 170.367 121.982 169.746 121.672 169.15C121.234 168.359 120.977 167.485 120.919 166.587C120.932 166.034 121.063 165.491 121.304 164.991C121.544 164.491 121.889 164.046 122.316 163.684C122.816 163.278 123.415 163.003 124.054 162.887C124.693 162.771 125.352 162.818 125.968 163.022C126.644 163.223 127.248 163.61 127.706 164.137C127.951 164.42 128.095 164.773 128.119 165.144C128.125 165.343 128.066 165.538 127.95 165.702C127.834 165.866 127.668 165.989 127.475 166.054C127.116 166.168 126.748 166.256 126.375 166.317L125.275 166.538C124.538 166.684 123.79 166.813 123.02 166.91C121.529 167.12 120.015 167.13 118.521 166.937C117.846 166.795 117.141 166.906 116.546 167.249C116.074 167.715 115.673 168.247 115.358 168.827C115.167 169.112 114.901 169.343 114.588 169.495C114.27 169.632 113.911 169.647 113.582 169.538C113.016 169.291 112.477 168.988 111.975 168.633C111.742 168.481 111.477 168.384 111.2 168.348C110.94 168.319 110.679 168.382 110.463 168.525C110.082 168.866 109.768 169.271 109.533 169.721C109.283 170.107 108.941 170.427 108.537 170.656C108.133 170.885 107.679 171.015 107.212 171.035C106.507 171.062 105.817 170.823 105.287 170.367C104.954 170.085 104.692 169.731 104.523 169.333C104.463 169.197 104.421 169.054 104.396 168.908C104.396 168.908 104.445 169.053 104.567 169.317C104.745 169.697 105.01 170.033 105.342 170.297C105.859 170.726 106.524 170.945 107.201 170.911C107.646 170.888 108.079 170.761 108.462 170.538C108.845 170.316 109.168 170.006 109.401 169.635C109.643 169.164 109.971 168.74 110.369 168.385C110.62 168.215 110.924 168.137 111.227 168.165C111.528 168.208 111.817 168.313 112.074 168.471C112.568 168.814 113.095 169.108 113.648 169.349C113.93 169.442 114.238 169.429 114.511 169.312C114.791 169.175 115.025 168.964 115.188 168.703C115.515 168.108 115.93 167.563 116.42 167.088C116.724 166.875 117.081 166.745 117.454 166.711C117.819 166.673 118.188 166.673 118.554 166.711C120.032 166.898 121.528 166.889 123.004 166.684C123.763 166.587 124.505 166.452 125.242 166.312L126.342 166.097C126.695 166.033 127.044 165.948 127.387 165.844C127.538 165.797 127.669 165.703 127.76 165.577C127.852 165.45 127.898 165.298 127.893 165.144C127.868 164.821 127.741 164.514 127.53 164.266C127.096 163.76 126.524 163.387 125.88 163.189C125.297 162.995 124.673 162.949 124.066 163.057C123.46 163.164 122.892 163.421 122.415 163.803C122.005 164.144 121.673 164.566 121.44 165.041C121.207 165.516 121.078 166.033 121.062 166.56C121.111 167.437 121.351 168.295 121.766 169.075C122.07 169.679 122.315 170.31 122.498 170.959C122.605 171.375 122.615 171.81 122.525 172.23C122.499 172.384 122.455 172.534 122.393 172.677Z" fill="#263238"/>
<path d="M133.762 165.784C133.669 165.821 133.574 165.85 133.476 165.871L132.64 166.064L129.571 166.759C126.986 167.351 123.41 168.181 119.478 169.155C115.545 170.13 111.997 171.072 109.44 171.762L106.404 172.58L105.573 172.796C105.478 172.825 105.38 172.846 105.281 172.86C105.37 172.813 105.464 172.777 105.562 172.753L106.376 172.499C107.086 172.279 108.114 171.961 109.39 171.611C111.948 170.879 115.485 169.915 119.423 168.918C123.361 167.922 126.936 167.136 129.538 166.592C130.836 166.318 131.892 166.102 132.623 165.962L133.465 165.806C133.563 165.79 133.663 165.783 133.762 165.784Z" fill="#263238"/>
<path d="M88.6473 47.6263L45.9287 56.9441L47.7169 64.8019L90.4355 55.4841L88.6473 47.6263Z" fill="#E0E0E0"/>
<path d="M129.059 175.143L142.859 246.526L155.472 223.71L179.376 237.447L154.003 167.938L129.059 175.143Z" fill="#D64D54"/>
<g opacity="0.3">
<path d="M133.701 199.15C135.015 199.392 136.369 199.318 137.648 198.934C138.926 198.551 140.09 197.869 141.039 196.947C142.298 195.676 143.134 193.942 144.719 193.092C146.143 192.327 147.898 192.435 149.465 192.86C151.033 193.285 152.507 193.991 154.075 194.389C155.621 194.775 157.231 194.856 158.81 194.627C160.389 194.397 161.905 193.863 163.271 193.054L159.289 182.23L140.808 179.968L132.007 190.334L133.701 199.15Z" fill="black"/>
</g>
<path d="M154.575 220.878C154.498 220.878 152.441 213.479 149.982 204.319C147.524 195.159 145.582 187.707 145.67 187.69C145.758 187.674 147.799 195.079 150.257 204.249C152.716 213.42 154.652 220.856 154.575 220.878Z" fill="#263238"/>
<path d="M131.078 178.854L117.277 250.237L104.665 227.426L80.7609 241.158L106.134 171.649L131.078 178.854Z" fill="#D64D54"/>
<g opacity="0.3">
<path d="M98.5435 192.44C98.5435 192.44 102.471 195.601 107.151 194.147C111.832 192.693 114.742 192.381 117.278 194.147C119.813 195.913 126.672 201.659 126.672 201.659L128.262 193.425L119.049 181.04L109.434 182.941L102.592 183.592L100.045 188.315L98.5435 192.44Z" fill="black"/>
</g>
<path d="M211.993 114.417C211.993 119.538 205.31 123.949 204.331 128.79C203.324 133.776 207.758 140.351 205.816 144.945C203.874 149.538 195.915 151.186 193.094 155.338C190.272 159.489 191.757 167.265 188.144 170.809C184.53 174.352 176.593 172.86 172.341 175.655C168.089 178.45 166.494 186.172 161.726 188.11C157.039 190.011 150.323 185.671 145.225 186.657C140.274 187.615 135.775 194.158 130.544 194.158C125.314 194.158 120.803 187.615 115.859 186.657C110.765 185.671 104.049 190.011 99.3576 188.11C94.6658 186.21 92.9882 178.418 88.7475 175.655C84.5068 172.893 76.5643 174.347 72.9396 170.809C69.3149 167.271 70.844 159.5 67.9893 155.338C65.1347 151.175 57.2472 149.613 55.2726 144.945C53.298 140.276 57.7643 133.782 56.7577 128.79C55.7786 123.943 49.0903 119.538 49.0903 114.417C49.0903 109.296 55.7786 104.881 56.7577 100.04C57.7643 95.0531 53.3255 88.4781 55.2726 83.8847C57.2197 79.2913 65.1732 77.6436 67.9893 73.4971C70.8055 69.3507 69.3259 61.5695 72.9396 58.0208C76.5533 54.4721 84.4903 55.9691 88.7475 53.1743C93.0047 50.3795 94.5888 42.6575 99.3576 40.7243C104.126 38.7911 110.76 43.1637 115.859 42.1783C120.809 41.2197 125.314 34.6716 130.544 34.6716C135.775 34.6716 140.28 41.2197 145.225 42.1783C150.318 43.1637 157.034 38.818 161.726 40.7243C166.494 42.6575 168.1 50.4172 172.341 53.1743C176.582 55.9314 184.524 54.4829 188.144 58.0208C191.763 61.5587 190.239 69.3292 193.094 73.4971C195.949 77.6651 203.836 79.216 205.816 83.8847C207.796 88.5535 203.324 95.0477 204.331 100.04C205.31 104.881 211.993 109.28 211.993 114.417Z" fill="#D64D54"/>
<path d="M111.486 69.7169C111.486 69.7169 111.425 69.6469 111.337 69.4961C111.249 69.3453 111.112 69.103 110.963 68.8391C110.639 68.2683 110.193 67.4283 109.665 66.3836C108.604 64.2942 107.228 61.354 105.903 58.0369C104.577 54.7198 103.56 51.6396 102.894 49.421C102.564 48.2955 102.311 47.3855 102.152 46.7285C102.08 46.4377 102.02 46.19 101.976 45.9962C101.947 45.9128 101.932 45.8256 101.932 45.7377C101.974 45.8162 102.008 45.8993 102.031 45.9854L102.256 46.7016C102.471 47.3639 102.751 48.2578 103.087 49.3402C103.802 51.5642 104.852 54.6175 106.167 57.9561C107.481 61.2948 108.835 64.2081 109.847 66.319L111.062 68.8122L111.387 69.4907C111.427 69.563 111.46 69.6387 111.486 69.7169Z" fill="#263238"/>
<path d="M118.735 67.0189C118.639 66.8309 118.567 66.632 118.521 66.4266C118.405 66.0389 118.251 65.4734 118.07 64.7734C117.707 63.3787 117.256 61.4293 116.848 59.2646C116.441 57.0998 116.155 55.1236 115.99 53.6912C115.902 52.975 115.847 52.3934 115.814 51.9895C115.789 51.782 115.789 51.5724 115.814 51.3649C115.878 51.5648 115.92 51.7705 115.941 51.9788L116.205 53.6642C116.425 55.0913 116.755 57.0568 117.146 59.2161C117.536 61.3755 117.971 63.3249 118.279 64.7303C118.427 65.3873 118.548 65.9473 118.647 66.3997C118.697 66.6027 118.727 66.8102 118.735 67.0189Z" fill="#263238"/>
<path d="M131.523 65.775C131.441 65.775 131.237 59.7331 131.067 52.2857C130.896 44.8383 130.819 38.791 130.896 38.7856C130.973 38.7803 131.182 44.8222 131.353 52.2803C131.523 59.7385 131.6 65.775 131.523 65.775Z" fill="#263238"/>
<path d="M144.394 53.3628C144.471 53.3628 143.58 56.4053 142.408 60.1101C141.237 63.815 140.208 66.7929 140.153 66.7713C140.098 66.7498 140.967 63.7288 142.139 60.024C143.31 56.3191 144.312 53.3412 144.394 53.3628Z" fill="#263238"/>
<path d="M149.641 68.9737C149.652 68.8846 149.676 68.7975 149.713 68.7153L149.96 68.0044C150.18 67.3906 150.51 66.5074 150.95 65.4197C151.814 63.2657 153.046 60.2555 154.454 56.9707C155.862 53.6859 157.171 50.7295 158.134 48.5971C158.607 47.5632 158.997 46.7123 159.294 46.0769L159.619 45.3984C159.701 45.2476 159.745 45.1669 159.756 45.1722C159.736 45.257 159.709 45.3399 159.674 45.42L159.393 46.12L158.321 48.6779C157.38 50.8641 156.121 53.8151 154.718 57.0838C153.316 60.3524 152.072 63.3034 151.137 65.4951L150.065 68.0475L149.762 68.7368C149.732 68.8204 149.691 68.8999 149.641 68.9737Z" fill="#263238"/>
<path d="M156.495 72.4847C156.578 72.2943 156.683 72.1136 156.808 71.9462C157.028 71.6016 157.358 71.1116 157.765 70.5138C158.59 69.3238 159.778 67.6975 161.159 65.9635C162.54 64.2296 163.865 62.7326 164.844 61.6556C165.334 61.1171 165.741 60.6917 166.027 60.4009C166.164 60.2396 166.321 60.0949 166.494 59.9701C166.388 60.1538 166.259 60.3238 166.109 60.4763C165.812 60.8317 165.438 61.2679 165.009 61.7848C164.069 62.8941 162.776 64.4288 161.395 66.1628C160.015 67.8967 158.81 69.4961 157.941 70.6592L156.913 72.0324C156.79 72.197 156.65 72.3486 156.495 72.4847Z" fill="#263238"/>
<path d="M166.516 80.5084C166.461 80.4545 170.818 76.405 176.235 71.467C181.653 66.529 186.097 62.5711 186.136 62.6249C186.174 62.6788 181.84 66.7337 176.417 71.6717C170.994 76.6097 166.571 80.5676 166.516 80.5084Z" fill="#263238"/>
<path d="M183.996 82.1831C183.466 82.5115 182.915 82.8065 182.346 83.0662C181.312 83.6047 179.91 84.3532 178.358 85.2202C176.807 86.0872 175.377 86.8088 174.316 87.2934C173.766 87.5357 173.359 87.7242 173.051 87.8319C172.9 87.9086 172.739 87.9631 172.572 87.9935C173.102 87.6651 173.654 87.3701 174.222 87.1103C175.256 86.5718 176.659 85.8233 178.21 84.9564C179.761 84.0894 181.191 83.3409 182.253 82.8832C182.803 82.6408 183.21 82.4524 183.518 82.3447C183.667 82.2657 183.829 82.2111 183.996 82.1831Z" fill="#263238"/>
<path d="M200.162 88.7472C200.189 88.8226 195.008 90.675 188.611 92.8882C182.214 95.1014 176.972 96.83 176.95 96.76C176.928 96.69 182.099 94.8322 188.501 92.619C194.903 90.4057 200.134 88.6772 200.162 88.7472Z" fill="#263238"/>
<path d="M205.31 117.541C205.31 117.616 199.672 117.158 192.736 116.512C185.8 115.866 180.179 115.279 180.19 115.198C180.201 115.117 185.822 115.586 192.764 116.232C199.705 116.878 205.315 117.465 205.31 117.541Z" fill="#263238"/>
<path d="M201.168 143.367C201.135 143.437 195.871 141.068 189.414 138.084C182.957 135.101 177.748 132.619 177.781 132.549C177.814 132.479 183.078 134.843 189.535 137.831C195.992 140.82 201.201 143.297 201.168 143.367Z" fill="#263238"/>
<path d="M183.853 167.938C183.793 167.987 180.003 163.673 175.377 158.31C170.752 152.947 167.055 148.547 167.127 148.499C167.198 148.45 170.977 152.758 175.603 158.127C180.229 163.496 183.914 167.885 183.853 167.938Z" fill="#263238"/>
<path d="M169.398 171.207C169.227 171.02 169.075 170.818 168.942 170.604C168.661 170.205 168.265 169.618 167.792 168.892C166.835 167.432 165.554 165.391 164.201 163.103C162.848 160.814 161.692 158.703 160.9 157.179C160.499 156.409 160.174 155.785 159.965 155.348C159.841 155.127 159.738 154.894 159.657 154.654C159.813 154.855 159.949 155.069 160.064 155.294C160.328 155.768 160.669 156.371 161.082 157.088C161.935 158.601 163.123 160.69 164.47 162.979C165.818 165.267 167.072 167.319 167.985 168.8C168.414 169.511 168.777 170.098 169.057 170.561C169.195 170.763 169.309 170.98 169.398 171.207Z" fill="#263238"/>
<path d="M160.422 183.539C160.422 183.539 160.367 183.469 160.279 183.318L159.921 182.661C159.608 182.085 159.184 181.245 158.678 180.2C157.666 178.105 156.363 175.165 155.125 171.837C153.888 168.509 152.953 165.44 152.375 163.221C152.072 162.101 151.825 161.186 151.704 160.556C151.643 160.265 151.594 160.017 151.55 159.823C151.528 159.739 151.515 159.652 151.511 159.565C151.556 159.642 151.588 159.725 151.605 159.813L151.814 160.529C152.006 161.196 152.259 162.085 152.567 163.167C153.217 165.391 154.179 168.45 155.417 171.783C156.654 175.117 157.919 178.041 158.887 180.157L160.042 182.65C160.163 182.919 160.268 183.146 160.356 183.329C160.387 183.396 160.409 183.466 160.422 183.539Z" fill="#263238"/>
<path d="M142.238 174.874C142.119 174.255 142.04 173.629 142.001 173C141.875 171.842 141.671 170.243 141.374 168.493C141.077 166.743 140.731 165.17 140.467 164.034C140.294 163.426 140.162 162.807 140.071 162.182C140.153 162.332 140.215 162.491 140.258 162.656C140.368 162.968 140.505 163.42 140.665 163.986C140.978 165.111 141.352 166.678 141.655 168.45C141.918 169.951 142.102 171.464 142.205 172.984C142.243 173.566 142.265 174.061 142.265 174.368C142.28 174.537 142.27 174.707 142.238 174.874Z" fill="#263238"/>
<path d="M130.341 190.377C130.328 190.286 130.328 190.194 130.341 190.103C130.341 189.887 130.341 189.624 130.341 189.311C130.341 188.622 130.341 187.626 130.341 186.398C130.385 183.937 130.5 180.545 130.698 176.802C130.896 173.059 131.144 169.667 131.347 167.217C131.446 165.989 131.54 164.998 131.611 164.314C131.65 164.002 131.677 163.738 131.699 163.528C131.706 163.435 131.724 163.342 131.754 163.253C131.767 163.346 131.767 163.441 131.754 163.533C131.754 163.743 131.754 164.007 131.716 164.325C131.672 165.052 131.617 166.032 131.545 167.227C131.397 169.721 131.199 173.092 130.995 176.813C130.792 180.534 130.649 183.948 130.555 186.403C130.511 187.599 130.473 188.557 130.445 189.311C130.445 189.629 130.412 189.887 130.401 190.103C130.395 190.197 130.375 190.289 130.341 190.377Z" fill="#263238"/>
<path d="M120.671 163.253C120.667 163.717 120.612 164.18 120.506 164.632C120.363 165.472 120.132 166.63 119.83 167.895C119.527 169.161 119.208 170.302 118.955 171.126C118.845 171.577 118.685 172.014 118.477 172.429C118.526 171.969 118.619 171.515 118.757 171.072L119.549 167.841C119.835 166.63 120.099 165.531 120.308 164.61C120.384 164.148 120.506 163.693 120.671 163.253Z" fill="#263238"/>
<path d="M103.186 155.052C102.465 156.219 101.662 157.334 100.782 158.391C99.9749 159.503 99.0949 160.562 98.1474 161.563C98.8665 160.395 99.6698 159.279 100.551 158.224C101.354 157.109 102.235 156.05 103.186 155.052Z" fill="#263238"/>
<path d="M94.0167 149C94.0717 149.048 90.6615 152.974 86.3933 157.761C82.125 162.548 78.6103 166.377 78.5498 166.339C78.4893 166.301 81.905 162.365 86.1733 157.578C90.4415 152.791 93.9562 148.946 94.0167 149Z" fill="#263238"/>
<path d="M89.424 142.317C88.0751 143.59 86.6596 144.795 85.1832 145.925C82.7906 147.852 80.8105 149.371 80.783 149.312C82.1328 148.041 83.5482 146.838 85.0237 145.709C86.4314 144.507 87.9 143.375 89.424 142.317Z" fill="#263238"/>
<path d="M84.0557 132.242C84.0887 132.312 79.3364 134.627 73.4346 137.406C67.5328 140.184 62.731 142.387 62.6925 142.317C62.654 142.247 67.4118 139.937 73.3136 137.153C79.2154 134.369 84.0227 132.172 84.0557 132.242Z" fill="#263238"/>
<path d="M81.8995 127.217C81.7416 127.285 81.5751 127.332 81.4045 127.357C81.08 127.433 80.6124 127.53 80.0349 127.632C78.8743 127.847 77.2572 128.084 75.4641 128.262C73.671 128.44 72.0375 128.515 70.8549 128.531C70.2664 128.531 69.7878 128.531 69.4578 128.531C69.2858 128.542 69.113 128.526 68.9463 128.483C69.5772 128.398 70.2127 128.349 70.8494 128.337C72.0265 128.267 73.6491 128.16 75.4367 127.982C77.2243 127.804 78.8358 127.6 80.0019 127.444C80.6282 127.324 81.2623 127.249 81.8995 127.217Z" fill="#263238"/>
<path d="M80.156 115.613C79.8357 115.639 79.5137 115.639 79.1934 115.613L76.5753 115.484C74.3752 115.376 71.317 115.279 67.9453 115.295C64.5736 115.311 61.5154 115.446 59.3098 115.575L56.6972 115.731C56.3777 115.767 56.0558 115.778 55.7346 115.764C56.0471 115.69 56.3655 115.643 56.6862 115.624C57.3022 115.554 58.1933 115.467 59.2933 115.376C61.4934 115.198 64.5626 115.037 67.9398 115.015C71.317 114.994 74.3807 115.128 76.5918 115.284C77.6918 115.365 78.5884 115.441 79.2044 115.505C79.5238 115.519 79.8418 115.555 80.156 115.613Z" fill="#263238"/>
<path d="M81.234 105.424C81.234 105.5 77.6533 104.59 73.2805 103.394C68.9078 102.199 65.3821 101.176 65.4041 101.1C65.4261 101.025 68.9848 101.93 73.3575 103.125C77.7303 104.321 81.256 105.349 81.234 105.424Z" fill="#263238"/>
<path d="M83.5386 96.8948C83.4501 96.8897 83.363 96.8715 83.2801 96.8409L82.5485 96.6255C81.9215 96.4317 81.014 96.1301 79.9084 95.737C77.0196 94.6985 74.1886 93.5122 71.4269 92.1829C68.6663 90.8522 65.9802 89.3782 63.38 87.7673C62.3844 87.148 61.5869 86.631 61.0478 86.2595L60.4318 85.8233C60.2943 85.721 60.2228 85.6671 60.2283 85.6564C60.3115 85.6892 60.3908 85.7307 60.4648 85.7802L61.1138 86.1679C61.6639 86.5126 62.4779 87.0026 63.4845 87.6003C65.5031 88.7958 68.3303 90.3736 71.5534 91.9083C74.7766 93.443 77.7798 94.6923 79.9799 95.5324C81.08 95.947 81.9655 96.2755 82.587 96.5017L83.2966 96.7655C83.3808 96.8019 83.4618 96.8452 83.5386 96.8948Z" fill="#263238"/>
<path d="M88.7145 88.2788C88.6705 88.338 85.8873 86.4964 82.4991 84.1593C79.1109 81.8222 76.3993 79.8783 76.4488 79.8137C76.4983 79.749 79.2759 81.5961 82.6696 83.9331C86.0633 86.2702 88.7585 88.2303 88.7145 88.2788Z" fill="#263238"/>
<path d="M77.7744 62.1187C77.7744 62.1187 77.8514 62.1617 77.9834 62.264L78.5334 62.7379L80.563 64.4934L87.2239 70.3145L93.9123 76.1034L95.9364 77.8643L96.4864 78.3543C96.5528 78.4077 96.612 78.4692 96.6624 78.5374C96.6624 78.5374 96.5854 78.4997 96.4479 78.3974L95.8979 77.9504C95.3973 77.5573 94.6878 76.9757 93.8132 76.2542C92.0641 74.811 89.677 72.7916 87.0644 70.5246C84.4517 68.2575 82.1141 66.1681 80.464 64.6388C79.628 63.8742 78.9569 63.2549 78.4949 62.8133L77.9724 62.3071C77.8404 62.1887 77.7634 62.124 77.7744 62.1187Z" fill="#263238"/>
<path d="M94.9298 62.6086C94.9298 62.6086 95.0783 62.7271 95.3038 62.9802C95.5293 63.2333 95.8538 63.6049 96.2333 64.0572C96.9979 64.9942 98.0155 66.3189 99.0715 67.8267C100.128 69.3344 101.013 70.7453 101.624 71.7846C101.932 72.3231 102.174 72.727 102.328 73.0231C102.423 73.1705 102.497 73.3299 102.548 73.497C102.145 72.9832 101.777 72.4435 101.448 71.8815C100.793 70.8692 99.8801 69.4852 98.8295 67.9774C97.7789 66.4697 96.7889 65.1396 96.0793 64.1757C95.6647 63.6762 95.2808 63.1529 94.9298 62.6086Z" fill="#263238"/>
<g opacity="0.2">
<path d="M72.9451 58.0262L96.8769 78.5375L102.823 73.8795L88.94 53.0505C88.94 53.0505 87.8729 53.8152 85.0898 54.5906C82.4331 55.3391 74.5402 55.5384 72.9451 58.0262Z" fill="black"/>
</g>
<g opacity="0.2">
<path d="M99.583 40.6757L111.266 69.3075L118.735 67.0189L116.243 42.1835C116.243 42.1835 114.962 42.4797 112.107 42.1243C109.341 41.7797 102.636 39.211 99.583 40.6757Z" fill="black"/>
</g>
<g opacity="0.3">
<path d="M130.737 34.6824L131.523 65.7751L138.52 66.1036L145.604 42.2375C144.132 41.9513 142.732 41.3841 141.484 40.5681C139.064 39.0496 134.125 34.4293 130.737 34.6824Z" fill="black"/>
</g>
<g opacity="0.2">
<path d="M161.253 40.5574L149.641 69.2215L155.945 72.1778L171.923 52.8674C170.722 51.8748 169.698 50.6938 168.892 49.3725C167.385 46.987 164.789 41.5105 161.253 40.5574Z" fill="black"/>
</g>
<g opacity="0.2">
<path d="M188.523 58.4408L166.896 80.5191L171.714 86.8787L192.846 73.0717C192.15 71.8169 191.68 70.4545 191.455 69.0438C190.949 66.3513 190.877 61.4618 188.523 58.4408Z" fill="black"/>
</g>
<g opacity="0.2">
<path d="M205.596 83.3516L176.472 95.0854L178.886 102.371L204.226 99.6787C204.226 99.6787 204.067 98.9141 204.402 96.1193C204.721 93.4106 207.648 87.358 205.596 83.3516Z" fill="black"/>
</g>
<g opacity="0.2">
<path d="M212.048 114.417L180.295 115.494L180.031 122.349L204.232 129.285C204.392 128.298 204.716 127.344 205.189 126.458C206.993 123.163 212.048 118.51 212.048 114.417Z" fill="black"/>
</g>
<g opacity="0.2">
<path d="M206.19 143.808L176.956 132.656L174.002 138.897L193.897 154.314C194.943 153.334 196.1 152.474 197.346 151.751C199.766 150.238 205.519 147.788 206.19 143.808Z" fill="black"/>
</g>
<g opacity="0.2">
<path d="M163.194 143.367L155.956 149.29C156.506 149.829 166.148 165.897 172.094 175.816C172.171 175.751 172.252 175.69 172.336 175.633C176.246 173.07 183.21 174.099 187.137 171.562L163.194 143.367Z" fill="black"/>
<path d="M149.894 154.611L139.092 158.219L144.207 186.931C144.539 186.816 144.879 186.725 145.225 186.656C150.318 185.671 157.034 190.011 161.726 188.11C162.368 187.841 162.965 187.478 163.497 187.033L149.894 154.611Z" fill="black"/>
<path d="M130.17 194.147L131.892 156.635L122.541 154.314L115.595 186.624L115.848 186.667C120.688 187.588 125.094 193.824 130.17 194.147Z" fill="black"/>
<path d="M106.684 150.265C106.684 150.265 94.3414 166.452 87.884 175.165C88.1829 175.312 88.473 175.476 88.7531 175.655C92.9938 178.434 94.5944 186.172 99.3632 188.11C99.5832 188.197 99.8087 188.266 100.034 188.331L117.278 156.377L106.684 150.265Z" fill="black"/>
<path d="M94.0169 137.233L67.6924 154.944C67.7914 155.074 67.9014 155.198 67.9894 155.332C70.8496 159.511 69.326 167.26 72.9397 170.803C73.2732 171.124 73.6422 171.408 74.0397 171.649C83.3408 161.385 100.04 142.958 100.645 142.317L94.0169 137.233Z" fill="black"/>
<path d="M87.9831 124.584L56.8568 129.506C57.3573 134.395 53.4191 140.567 55.2727 144.939C55.3844 145.206 55.5187 145.464 55.6742 145.709C66.5649 140.4 89.3196 129.355 90.2657 129.296L87.9831 124.584Z" fill="black"/>
<path d="M86.2834 107.611L56.8623 99.3018C56.8348 99.5495 56.8018 99.7972 56.7578 100.039C55.7787 104.886 49.0903 109.296 49.0903 114.417C49.0918 114.758 49.1213 115.099 49.1783 115.435H85.0898L86.2834 107.611Z" fill="black"/>
<path d="M55.3937 83.6638C66.3943 89.4311 87.884 101.1 87.884 101.1L93.1753 91.262L68.3249 72.9531C68.2149 73.1416 68.1104 73.3355 67.9894 73.4916C65.1897 77.5788 57.5278 79.1727 55.3937 83.6638Z" fill="black"/>
</g>
<path d="M211.993 114.417L211.96 114.073C211.947 113.735 211.899 113.399 211.817 113.071C211.497 111.78 210.937 110.557 210.167 109.463C209.221 107.977 207.791 106.313 206.317 104.208C205.484 103.087 204.845 101.841 204.424 100.519C204.066 98.975 204.066 97.3723 204.424 95.8285C204.732 94.1861 205.233 92.4953 205.667 90.7021C206.102 88.9089 206.509 86.9703 206.102 84.9886C205.872 83.9856 205.402 83.0501 204.732 82.2585C204.014 81.4524 203.193 80.7395 202.29 80.1368C200.464 78.8659 198.363 77.8536 196.355 76.5289C195.317 75.8732 194.373 75.0835 193.55 74.181C192.742 73.2015 192.156 72.0654 191.829 70.8477C191.125 68.3976 190.965 65.7805 190.432 63.1634C190.199 61.8309 189.739 60.5459 189.073 59.3616C188.35 58.1694 187.252 57.2382 185.943 56.7069C184.593 56.1756 183.179 55.8137 181.736 55.6299C180.278 55.3929 178.782 55.226 177.286 54.9675C175.753 54.7511 174.267 54.2909 172.886 53.6051C171.516 52.7992 170.356 51.6932 169.497 50.3742C168.584 49.0925 167.798 47.714 166.962 46.3516C166.161 44.9576 165.201 43.657 164.102 42.4744C162.968 41.2782 161.422 40.5357 159.762 40.3905C158.066 40.329 156.37 40.5234 154.735 40.9666C153.085 41.3597 151.39 41.839 149.658 42.1567C147.906 42.5608 146.079 42.5275 144.345 42.0598C142.653 41.4103 141.072 40.5153 139.653 39.405C138.184 38.328 136.754 37.251 135.187 36.2925C133.619 35.334 131.842 34.6393 129.994 34.844H129.648C129.532 34.844 129.422 34.8924 129.312 34.914C129.087 34.9678 128.856 35.0055 128.636 35.0701C128.193 35.2081 127.759 35.3736 127.338 35.5655C126.487 35.9617 125.67 36.4245 124.895 36.9495C123.333 38.0265 121.854 39.2004 120.248 40.2666C119.448 40.8146 118.602 41.2939 117.718 41.699C116.812 42.0958 115.842 42.3345 114.852 42.4044C112.867 42.4169 110.892 42.1429 108.989 41.5913C107.072 41.0557 105.118 40.6615 103.142 40.412C102.155 40.3169 101.159 40.3824 100.194 40.6059C99.2323 40.8675 98.3457 41.343 97.6029 41.9952C96.0848 43.2929 95.0288 45.0377 93.9727 46.7501C92.9757 48.5432 91.8101 50.2414 90.491 51.8227C89.7927 52.606 88.9538 53.2576 88.0159 53.7451C87.0583 54.1883 86.0527 54.5243 85.0182 54.7467C82.9501 55.1937 80.838 55.3822 78.7534 55.7483C76.6688 56.1145 74.5401 56.6907 73.033 58.1231C72.3056 58.8817 71.7441 59.7778 71.3829 60.7563C71.0188 61.7433 70.7517 62.7621 70.5854 63.7988C70.2004 65.8774 70.0354 68.0099 69.4853 70.1046C69.249 71.1677 68.8542 72.1911 68.3138 73.1417C67.7444 74.0836 66.9978 74.9113 66.1137 75.5811C64.3756 76.9489 62.401 77.9613 60.5088 79.0921C59.5609 79.6506 58.6514 80.2694 57.7862 80.9445C56.9255 81.6179 56.2015 82.4436 55.6521 83.3785C55.1282 84.3308 54.863 85.3988 54.882 86.4803C54.9015 87.5673 55.0323 88.6497 55.2726 89.7112C55.7346 91.8652 56.4331 93.9815 56.8071 96.1732C57.0289 97.2979 57.0734 98.4493 56.9391 99.5872C56.783 100.722 56.4098 101.818 55.8391 102.818C54.6895 104.784 53.1934 106.512 51.8679 108.343C51.1871 109.245 50.5942 110.208 50.0968 111.219C49.5518 112.204 49.2664 113.307 49.2664 114.428C49.2664 115.549 49.5518 116.652 50.0968 117.638C50.5933 118.649 51.1863 119.611 51.8679 120.513C53.1934 122.344 54.6895 124.073 55.8391 126.038C56.3993 127.019 56.7721 128.092 56.9391 129.204C57.0789 130.327 57.0418 131.464 56.8291 132.575C56.4606 134.789 55.7621 136.91 55.2945 139.064C55.0563 140.126 54.9255 141.208 54.904 142.295C54.8824 143.378 55.1456 144.448 55.6686 145.402C56.2138 146.34 56.9362 147.168 57.7972 147.842C58.6624 148.517 59.5719 149.136 60.5198 149.694C62.4119 150.825 64.3701 151.848 66.1302 153.205C67.0129 153.876 67.7592 154.704 68.3303 155.645C68.8748 156.592 69.2698 157.614 69.5018 158.676C70.0189 160.776 70.1949 162.909 70.6019 164.987C70.7727 166.024 71.0415 167.042 71.405 168.03C71.7576 169.008 72.3096 169.906 73.0275 170.669C74.5511 172.117 76.6963 172.693 78.7534 173.06C80.8105 173.426 82.9501 173.598 85.0182 174.061C86.0543 174.284 87.0616 174.62 88.0214 175.063C88.9581 175.552 89.7967 176.203 90.4965 176.985C91.8024 178.569 92.9568 180.267 93.9452 182.058C95.0013 183.77 96.0573 185.515 97.5754 186.813C98.3169 187.464 99.2015 187.939 100.161 188.202C101.134 188.443 102.141 188.523 103.142 188.439C105.114 188.179 107.065 187.778 108.978 187.238C110.882 186.682 112.859 186.406 114.846 186.42C115.836 186.493 116.806 186.733 117.712 187.13C118.595 187.537 119.442 188.016 120.242 188.563C121.848 189.64 123.322 190.83 124.89 191.875C125.661 192.403 126.476 192.868 127.327 193.264C127.748 193.455 128.182 193.62 128.625 193.759C128.85 193.819 129.076 193.862 129.301 193.915L129.642 193.985H129.983C131.837 194.19 133.619 193.447 135.181 192.537C136.743 191.627 138.179 190.48 139.642 189.424C141.063 188.314 142.646 187.419 144.339 186.77C146.074 186.305 147.901 186.271 149.652 186.673C151.385 186.996 153.057 187.475 154.729 187.868C156.368 188.306 158.064 188.501 159.762 188.444C161.42 188.293 162.963 187.55 164.096 186.355C165.193 185.168 166.152 183.866 166.956 182.472C167.787 181.115 168.573 179.737 169.486 178.45C170.35 177.133 171.511 176.028 172.88 175.219C174.261 174.532 175.747 174.074 177.28 173.862C178.782 173.598 180.273 173.431 181.73 173.2C183.175 173.007 184.589 172.636 185.938 172.096C187.245 171.562 188.342 170.632 189.068 169.441C189.73 168.255 190.187 166.971 190.421 165.639C190.971 163.022 191.114 160.399 191.823 157.949C192.147 156.732 192.734 155.597 193.545 154.621C194.365 153.716 195.309 152.926 196.35 152.274C198.358 150.949 200.459 149.937 202.279 148.666C203.186 148.064 204.009 147.349 204.727 146.539C205.396 145.749 205.864 144.815 206.091 143.814C206.283 142.847 206.311 141.855 206.174 140.879C206.06 139.943 205.887 139.015 205.656 138.1C205.216 136.307 204.721 134.616 204.413 132.974C204.055 131.43 204.055 129.827 204.413 128.284C204.836 126.962 205.475 125.716 206.306 124.595C207.796 122.489 209.232 120.825 210.156 119.339C210.927 118.246 211.487 117.023 211.806 115.731C211.888 115.403 211.936 115.067 211.949 114.73L211.982 114.39C211.982 114.39 211.982 114.504 211.982 114.73C211.971 115.069 211.927 115.406 211.85 115.737C211.537 117.039 210.977 118.272 210.2 119.372C209.259 120.869 207.835 122.538 206.35 124.643C205.524 125.756 204.894 126.995 204.485 128.311C204.127 129.838 204.127 131.425 204.485 132.952C204.793 134.568 205.293 136.275 205.739 138.068C205.979 138.99 206.162 139.925 206.289 140.868C206.426 141.857 206.398 142.861 206.207 143.841C205.977 144.865 205.502 145.821 204.82 146.63C204.096 147.45 203.266 148.174 202.351 148.784C200.514 150.066 198.418 151.084 196.421 152.403C195.402 153.051 194.477 153.832 193.671 154.724C192.877 155.684 192.303 156.801 191.988 157.998C191.29 160.421 191.136 163.038 190.597 165.671C190.364 167.024 189.901 168.329 189.227 169.532C188.484 170.758 187.358 171.717 186.015 172.268C184.652 172.816 183.223 173.192 181.763 173.388C180.3 173.625 178.804 173.792 177.313 174.056C175.8 174.267 174.332 174.72 172.968 175.397C171.638 176.187 170.509 177.265 169.668 178.547C168.766 179.823 167.979 181.196 167.143 182.564C166.334 183.971 165.368 185.286 164.261 186.484C163.092 187.719 161.497 188.486 159.784 188.638C158.062 188.704 156.341 188.51 154.68 188.062C153.002 187.669 151.33 187.195 149.614 186.877C147.9 186.485 146.114 186.516 144.416 186.969C142.749 187.612 141.19 188.496 139.79 189.591C138.333 190.641 136.897 191.772 135.313 192.72C134.901 192.935 134.51 193.188 134.081 193.366C133.866 193.463 133.657 193.565 133.443 193.652L132.777 193.883C131.875 194.187 130.916 194.297 129.967 194.206L129.609 194.179C129.494 194.179 129.378 194.131 129.257 194.109C129.026 194.055 128.79 194.012 128.564 193.948C128.107 193.81 127.661 193.64 127.228 193.442C126.364 193.041 125.537 192.571 124.752 192.036C123.174 190.959 121.694 189.785 120.105 188.724C119.315 188.188 118.482 187.716 117.613 187.313C116.734 186.931 115.795 186.699 114.835 186.63C112.874 186.621 110.923 186.895 109.044 187.443C107.111 187.999 105.138 188.412 103.142 188.676C102.122 188.773 101.092 188.706 100.095 188.477C99.0952 188.204 98.1731 187.71 97.3994 187.033C95.8373 185.693 94.7703 183.932 93.7142 182.214C92.7356 180.437 91.5903 178.753 90.293 177.184C89.6172 176.426 88.8042 175.796 87.8949 175.327C86.9575 174.891 85.972 174.562 84.9577 174.347C82.9116 173.905 80.805 173.716 78.7039 173.345C77.6453 173.173 76.6051 172.906 75.5962 172.548C74.5729 172.181 73.6371 171.613 72.846 170.879C72.0952 170.094 71.5201 169.164 71.1574 168.148C70.7861 167.145 70.5117 166.111 70.3379 165.057C69.9529 162.963 69.7879 160.83 69.2378 158.762C69.0094 157.727 68.6238 156.73 68.0938 155.806C67.5371 154.893 66.8093 154.091 65.9487 153.442C64.2436 152.101 62.2744 151.089 60.3768 149.953C59.4195 149.387 58.5008 148.761 57.6267 148.079C56.7369 147.38 55.9904 146.524 55.4266 145.553C54.8834 144.561 54.6106 143.448 54.6345 142.322C54.6476 141.208 54.7803 140.098 55.0305 139.01C55.4981 136.856 56.1966 134.702 56.5596 132.549C56.7672 131.464 56.8025 130.354 56.6641 129.258C56.4975 128.17 56.1244 127.122 55.5641 126.167C54.464 124.229 52.9459 122.511 51.6093 120.664C50.9128 119.744 50.3034 118.763 49.7887 117.735C49.2293 116.711 48.9366 115.568 48.9366 114.407C48.9366 113.246 49.2293 112.102 49.7887 111.079C50.2964 110.053 50.9003 109.076 51.5928 108.16C52.9294 106.313 54.42 104.595 55.5421 102.662C56.1019 101.706 56.4749 100.656 56.6421 99.5657C56.7705 98.4696 56.7334 97.361 56.5321 96.2755C56.1636 94.1215 55.4651 91.9675 54.9975 89.8135C54.7519 88.7275 54.621 87.6195 54.607 86.5072C54.5851 85.381 54.8597 84.2683 55.4046 83.2762C55.9721 82.3099 56.7181 81.4554 57.6047 80.7561C58.4775 80.0718 59.3963 79.4457 60.3548 78.8821C62.2524 77.7459 64.205 76.7281 65.9266 75.3926C66.7857 74.7437 67.5116 73.9416 68.0663 73.0286C68.5937 72.1021 68.9774 71.104 69.2048 70.0669C69.7164 67.9991 69.8924 65.872 70.3049 63.7773C70.4768 62.7243 70.7494 61.6894 71.1189 60.6863C71.4506 59.6596 72.0279 58.7252 72.8028 57.9609C73.5778 57.1966 74.5279 56.6245 75.5742 56.2922C76.5831 55.9344 77.6233 55.6676 78.6819 55.4952C80.783 55.1237 82.8896 54.9567 84.9357 54.499C85.9481 54.2773 86.9329 53.9487 87.8729 53.519C88.7795 53.0455 89.5903 52.4141 90.2655 51.6558C91.5628 50.0868 92.7081 48.403 93.6867 46.6262C94.7428 44.9084 95.8098 43.1476 97.3774 41.8121C98.1549 41.1254 99.0853 40.6257 100.095 40.3528C101.093 40.1256 102.122 40.0583 103.142 40.1535C105.126 40.4132 107.087 40.8164 109.011 41.3597C110.889 41.9119 112.841 42.1878 114.802 42.1783C115.753 42.1041 116.683 41.871 117.553 41.489C118.424 41.0916 119.258 40.6195 120.044 40.0781C121.639 39.0011 123.119 37.8218 124.697 36.7718C125.48 36.2354 126.308 35.7652 127.173 35.3663C127.605 35.1689 128.05 34.9981 128.504 34.8547C128.735 34.7901 128.971 34.7524 129.202 34.6986L129.549 34.6232H129.906C130.856 34.5354 131.814 34.6455 132.717 34.9463L133.382 35.1778C133.597 35.264 133.806 35.3663 134.02 35.4632C134.455 35.6463 134.846 35.894 135.253 36.1094C136.842 37.0572 138.272 38.188 139.735 39.2381C141.134 40.3323 142.691 41.2161 144.356 41.8606C146.053 42.316 147.84 42.3475 149.553 41.9521C151.269 41.6398 152.942 41.1659 154.619 40.7728C156.28 40.3255 158.002 40.1294 159.723 40.1912C161.436 40.3452 163.03 41.1122 164.201 42.3452C165.308 43.5453 166.277 44.8619 167.088 46.2708C167.924 47.6332 168.705 49.0118 169.607 50.2826C170.447 51.5676 171.576 52.6471 172.908 53.4382C174.271 54.1169 175.739 54.57 177.253 54.779C178.743 55.0429 180.24 55.2098 181.703 55.4468C183.162 55.6449 184.59 56.0212 185.954 56.5669C187.297 57.1171 188.425 58.0739 189.172 59.297C189.844 60.5009 190.307 61.8057 190.542 63.158C191.092 65.7913 191.235 68.4084 191.928 70.8316C192.246 72.0271 192.82 73.143 193.611 74.1056C194.415 75.0003 195.34 75.783 196.361 76.4319C198.358 77.7513 200.459 78.769 202.29 80.0506C203.205 80.6611 204.035 81.3851 204.76 82.2046C205.442 83.012 205.919 83.9661 206.152 84.9886C206.343 85.9704 206.371 86.976 206.234 87.9665C206.108 88.908 205.924 89.8413 205.684 90.7613C205.244 92.5599 204.738 94.2454 204.43 95.8824C204.072 97.4098 204.072 98.9968 204.43 100.524C204.839 101.839 205.469 103.079 206.295 104.191C207.774 106.302 209.199 107.961 210.145 109.463C210.921 110.564 211.48 111.797 211.795 113.098C211.872 113.429 211.916 113.766 211.927 114.105C211.993 114.299 211.993 114.417 211.993 114.417Z" fill="#263238"/>
<path d="M115.242 188.439C115.319 188.439 113.29 196.516 110.71 206.435C108.131 216.354 105.974 224.383 105.897 224.367C105.82 224.351 107.85 216.29 110.43 206.365C113.009 196.441 115.187 188.396 115.242 188.439Z" fill="#263238"/>
<path d="M130.544 163.302C158.121 163.302 180.476 141.416 180.476 114.417C180.476 87.4192 158.121 65.5328 130.544 65.5328C102.968 65.5328 80.6125 87.4192 80.6125 114.417C80.6125 141.416 102.968 163.302 130.544 163.302Z" fill="white"/>
<path d="M99.7975 97.4763C99.1099 98.1494 95.3257 104.891 94.9792 110.454C94.6327 116.017 95.4522 147.239 95.4522 147.239L95.6007 149.312C104.588 159.603 137.26 174.917 166.687 149.258L168.337 130.05L163.48 89.3881L146.594 85.344L142.639 79.0706L116.282 85.1125L113.928 90.5513L99.7975 97.4763Z" fill="#455A64"/>
<path d="M140.83 62.7217C141.99 58.4945 143.129 54.2404 143.53 49.884C143.932 45.5275 143.563 41.0257 141.792 37.0085C141.523 36.4 139.295 32.3344 138.624 32.4367C138.146 32.5067 139.587 36.33 139.367 36.7447C137.249 40.7672 136.864 45.4898 137.475 49.9755C138.105 54.3316 139.23 58.6051 140.83 62.7163" fill="#263238"/>
<path d="M140.39 46.0284C140.181 35.0592 133.481 26.0394 122.288 26.551L121.254 26.6587C116.248 27.1754 111.624 29.5182 108.301 33.2209C104.979 36.9237 103.202 41.7151 103.323 46.6423C103.565 56.1467 103.95 66.6474 104.561 71.6985C105.82 82.1506 116.662 82.6784 116.662 82.6784L117.162 89.555L121.755 94.4391L143.046 81.5152L140.39 46.0284Z" fill="#FFBF9D"/>
<path d="M116.689 82.7592C116.689 82.7592 123.471 82.4522 130.176 77.2935C130.176 77.2935 127.932 86.7764 117.162 86.9325L116.689 82.7592Z" fill="#FF9A6C"/>
<path d="M109.478 55.1667C109.516 55.5598 109.71 55.9225 110.019 56.1765C110.328 56.4304 110.726 56.5552 111.128 56.5237C111.324 56.5189 111.517 56.4758 111.695 56.397C111.874 56.3182 112.034 56.2052 112.168 56.0647C112.301 55.9242 112.404 55.7591 112.471 55.579C112.538 55.3988 112.568 55.2074 112.558 55.0159C112.519 54.6234 112.325 54.2615 112.016 54.0078C111.708 53.7541 111.31 53.6289 110.908 53.6589C110.712 53.663 110.519 53.7056 110.34 53.7841C110.161 53.8627 110 53.9757 109.867 54.1163C109.734 54.257 109.63 54.4224 109.564 54.6029C109.497 54.7833 109.468 54.9751 109.478 55.1667Z" fill="#263238"/>
<path d="M106.079 50.7511C106.288 50.9234 107.355 49.9703 109 49.8034C110.644 49.6364 111.931 50.3418 112.091 50.0995C112.168 50.008 111.937 49.6741 111.37 49.351C110.608 48.9441 109.736 48.7768 108.873 48.8718C108.019 48.958 107.214 49.3067 106.574 49.868C106.106 50.3042 105.974 50.6703 106.079 50.7511Z" fill="#263238"/>
<path d="M123.993 53.9605C124.031 54.3536 124.225 54.7163 124.534 54.9703C124.843 55.2242 125.241 55.349 125.643 55.3175C125.839 55.3127 126.032 55.2696 126.211 55.1908C126.389 55.112 126.55 54.999 126.683 54.8585C126.816 54.718 126.919 54.5529 126.986 54.3728C127.054 54.1926 127.083 54.0012 127.074 53.8097C127.036 53.4162 126.842 53.053 126.533 52.7982C126.224 52.5434 125.826 52.4174 125.423 52.4473C125.227 52.4528 125.035 52.4966 124.856 52.576C124.677 52.6554 124.517 52.7689 124.384 52.9098C124.251 53.0507 124.147 53.2162 124.08 53.3966C124.013 53.5771 123.984 53.7688 123.993 53.9605Z" fill="#263238"/>
<path d="M122.244 49.7386C122.453 49.9163 123.526 48.9578 125.165 48.7909C126.804 48.624 128.102 49.3294 128.256 49.0925C128.333 48.9955 128.108 48.6617 127.541 48.3439C126.777 47.9349 125.903 47.7675 125.038 47.8647C124.183 47.9472 123.377 48.2964 122.739 48.8609C122.277 49.2917 122.145 49.6633 122.244 49.7386Z" fill="#263238"/>
<path d="M117.679 62.7111C117.679 62.6196 116.64 62.5496 114.962 62.5119C114.538 62.5119 114.131 62.4742 114.032 62.1996C113.949 61.7799 114.001 61.3453 114.181 60.9556L115.083 57.7247C116.326 53.0936 117.179 49.3026 116.992 49.2541C116.805 49.2057 115.633 52.9213 114.39 57.5577L113.543 60.8156C113.336 61.3325 113.32 61.9041 113.499 62.4311C113.574 62.5714 113.681 62.6929 113.812 62.7862C113.942 62.8796 114.093 62.9423 114.252 62.9696C114.492 62.9983 114.734 62.9983 114.973 62.9696C116.651 62.8996 117.685 62.8027 117.679 62.7111Z" fill="#263238"/>
<path d="M122.635 63.3249C122.365 63.3249 122.552 65.0804 121.161 66.4805C119.769 67.8806 117.861 67.8806 117.861 68.1283C117.861 68.236 118.317 68.4245 119.126 68.3598C120.167 68.2641 121.141 67.8123 121.876 67.0836C122.577 66.3786 122.972 65.4345 122.976 64.4504C123.003 63.7126 122.756 63.3034 122.635 63.3249Z" fill="#263238"/>
<path d="M121.634 43.2013C121.843 43.6213 123.46 43.2444 125.413 43.2767C127.365 43.309 128.982 43.659 129.191 43.239C129.285 43.0397 128.971 42.6574 128.295 42.2966C127.397 41.8706 126.413 41.6493 125.415 41.6493C124.418 41.6493 123.433 41.8706 122.536 42.2966C121.843 42.6197 121.54 43.002 121.634 43.2013Z" fill="#263238"/>
<path d="M106.183 45.3338C106.508 45.6676 107.602 45.1722 108.961 45.0107C110.32 44.8491 111.502 45.0107 111.711 44.5906C111.81 44.3914 111.59 44.0521 111.051 43.7506C110.329 43.4058 109.519 43.2785 108.723 43.3849C107.927 43.4913 107.181 43.8266 106.579 44.3483C106.15 44.7737 106.035 45.1668 106.183 45.3338Z" fill="#263238"/>
<path d="M140.351 53.8744C140.527 53.7775 147.469 50.9881 148.008 58.1824C148.547 65.3767 141.094 64.3966 141.044 64.192C140.995 63.9874 140.351 53.8744 140.351 53.8744Z" fill="#FFBF9D"/>
<path d="M143.079 61.311C143.112 61.311 143.211 61.3864 143.437 61.4671C143.75 61.5733 144.094 61.5559 144.394 61.4187C145.148 61.0848 145.709 59.8355 145.648 58.5377C145.623 57.9204 145.455 57.3167 145.159 56.7715C145.073 56.5524 144.934 56.3571 144.753 56.2024C144.573 56.0476 144.357 55.938 144.125 55.8829C143.976 55.8541 143.821 55.8777 143.688 55.9496C143.555 56.0216 143.453 56.1372 143.398 56.276C143.31 56.4861 143.371 56.6261 143.332 56.6422C143.294 56.6584 143.167 56.5291 143.2 56.233C143.229 56.0509 143.32 55.8838 143.459 55.7591C143.65 55.596 143.899 55.5129 144.152 55.5275C144.457 55.5629 144.748 55.6752 144.996 55.8536C145.244 56.032 145.44 56.2704 145.566 56.5453C145.927 57.1441 146.131 57.8213 146.16 58.5162C146.22 59.9647 145.566 61.3756 144.51 61.7471C144.317 61.818 144.111 61.8457 143.906 61.828C143.702 61.8102 143.504 61.7477 143.327 61.6448C143.107 61.4833 143.057 61.3217 143.079 61.311Z" fill="#FF9A6C"/>
<path d="M107.289 34.4293C106.062 33.8585 109.379 29.8682 112.239 28.3873C116.524 26.1526 123.179 24.521 127.321 25.3933C132.31 26.4703 136.534 28.5704 139.279 32.7815C142.023 36.9925 143.283 42.0167 143.47 47.0085C143.525 48.5324 143.47 50.1264 142.722 51.4619C141.803 53.115 139.9 54.2405 140.131 56.4268C140.186 56.8215 140.16 57.2231 140.054 57.6078C139.949 57.9925 139.765 58.3526 139.515 58.6669C138.261 60.1532 136.534 58.9416 135.693 57.6707C133.894 54.9782 133.492 51.6126 133.14 48.3924C132.887 46.1092 132.64 43.7722 133.14 41.532C133.415 40.3096 133.922 39.1411 134.131 37.9079C134.34 36.6748 134.213 35.3016 133.377 34.3539C133.182 34.1551 132.968 33.9748 132.739 33.8154C131.657 33.0022 130.373 32.4867 129.019 32.3219C127.665 32.1572 126.291 32.3493 125.039 32.8784C120.996 34.5693 114.082 37.154 112.146 35.894C109.368 34.0846 108.642 32.8138 108.642 32.8138L107.289 34.4293Z" fill="#263238"/>
<path d="M99.7976 97.4763C99.3741 98.0525 93.3623 100.007 91.0796 103.728C88.797 107.449 86.5419 124.153 86.5419 124.153L85.0898 135.128C87.9499 139.554 91.7892 145.419 95.8594 149.554L99.7976 97.4763Z" fill="#455A64"/>
<g opacity="0.3">
<path d="M144.972 113.588C145.134 115.84 145.569 118.066 146.27 120.217C147.056 122.333 148.437 124.326 150.455 125.419C151.297 125.871 152.248 126.173 152.958 126.819C153.668 127.465 154.097 128.51 154.784 129.269C155.644 130.104 156.705 130.713 157.87 131.041C161.146 132.217 164.623 132.765 168.111 132.656C168.221 131.504 168.227 127.271 168.337 126.113L144.972 113.588Z" fill="black"/>
</g>
<path d="M163.48 89.3881C163.48 89.3881 171.06 91.5851 173.282 94.7461C175.504 97.9071 179.437 110.163 180.245 112.436C181.054 114.708 180.344 119.975 178.832 123.744C177.319 127.514 174.69 130.793 170.152 131.283C165.614 131.773 158.442 129.21 156.825 127.514C155.208 125.817 154.542 122.064 154.542 122.064C156.557 121.718 158.544 121.23 160.488 120.605" fill="#455A64"/>
<path d="M160.488 120.642L160.394 120.68L160.108 120.782C159.855 120.868 159.476 120.992 158.975 121.138C157.529 121.561 156.06 121.906 154.575 122.172L154.636 122.091C154.82 123.016 155.079 123.925 155.411 124.81C155.592 125.312 155.811 125.8 156.066 126.27C156.327 126.772 156.671 127.228 157.083 127.621C157.549 128.012 158.063 128.345 158.612 128.612C159.193 128.91 159.79 129.178 160.4 129.414C161.709 129.927 163.055 130.344 164.426 130.664C165.906 131.019 167.423 131.209 168.947 131.229C169.344 131.233 169.741 131.215 170.135 131.175C170.534 131.131 170.928 131.062 171.318 130.971C172.117 130.795 172.885 130.502 173.595 130.104C175.075 129.266 176.317 128.079 177.209 126.652C178.152 125.169 178.874 123.563 179.354 121.881C179.745 120.588 180.038 119.269 180.229 117.934C180.433 116.641 180.5 115.331 180.427 114.024C180.383 113.396 180.252 112.776 180.036 112.182C179.827 111.579 179.624 110.982 179.426 110.389L178.243 106.927C177.462 104.676 176.692 102.549 175.922 100.573C175.246 98.7336 174.431 96.9462 173.485 95.2253C173.048 94.4938 172.464 93.8564 171.769 93.3513C171.163 92.8794 170.519 92.4562 169.844 92.0859C168.759 91.4798 167.637 90.9403 166.483 90.4704C165.537 90.088 164.789 89.8188 164.283 89.6411L163.706 89.4418C163.637 89.4239 163.571 89.3986 163.508 89.3665C163.577 89.3753 163.645 89.3915 163.711 89.4149L164.3 89.5872C164.817 89.7488 165.576 90.0019 166.533 90.3681C167.696 90.8176 168.829 91.3373 169.926 91.9243C170.614 92.2947 171.271 92.7178 171.89 93.1898C172.606 93.7039 173.208 94.3541 173.661 95.1014C174.629 96.8318 175.46 98.632 176.147 100.486C176.934 102.457 177.709 104.59 178.496 106.841C178.886 107.966 179.283 109.124 179.69 110.303C179.893 110.89 180.097 111.488 180.3 112.091C180.526 112.705 180.665 113.346 180.713 113.997C180.791 115.323 180.726 116.653 180.52 117.966C180.326 119.316 180.03 120.649 179.635 121.956C179.143 123.667 178.402 125.299 177.434 126.803C176.517 128.268 175.239 129.485 173.716 130.341C172.983 130.749 172.191 131.048 171.368 131.229C170.967 131.322 170.561 131.393 170.152 131.439C169.745 131.439 169.338 131.509 168.942 131.493C167.397 131.465 165.86 131.267 164.36 130.901C162.976 130.576 161.619 130.149 160.301 129.624C159.687 129.381 159.087 129.106 158.502 128.8C157.936 128.523 157.408 128.177 156.929 127.772C156.504 127.359 156.15 126.881 155.884 126.356C155.629 125.879 155.41 125.384 155.23 124.875C154.907 123.974 154.655 123.051 154.476 122.112V122.042H154.548C156.484 121.714 157.969 121.342 158.975 121.073L160.119 120.755L160.411 120.675C160.455 120.642 160.488 120.637 160.488 120.642Z" fill="#263238"/>
<path d="M174.398 116.674C174.343 116.674 174.167 115.758 173.535 114.39C172.704 112.612 171.544 111 170.114 109.635C169.321 108.897 168.424 108.273 167.451 107.783L166.786 107.492C166.566 107.395 166.335 107.352 166.126 107.282C165.73 107.16 165.323 107.077 164.91 107.035L164.635 106.997H163.887C163.629 106.993 163.371 107.015 163.117 107.061C162.896 107.105 162.671 107.128 162.446 107.131C162.654 107.047 162.872 106.987 163.095 106.954C163.351 106.883 163.616 106.845 163.882 106.841H164.377H164.646L164.932 106.873C165.359 106.902 165.781 106.974 166.192 107.088C166.423 107.145 166.65 107.213 166.874 107.293L167.567 107.584C168.576 108.072 169.503 108.707 170.317 109.469C171.779 110.851 172.937 112.512 173.722 114.347C173.862 114.66 173.983 114.98 174.085 115.306C174.17 115.551 174.239 115.801 174.294 116.054C174.349 116.257 174.384 116.464 174.398 116.674Z" fill="#263238"/>
<path d="M178.535 110.013C178.222 109.229 177.839 108.474 177.39 107.756C176.251 106.053 174.545 104.788 172.561 104.175C170.235 103.481 167.974 103.696 166.395 103.841L164.509 104.062C164.28 104.103 164.048 104.122 163.816 104.121C164.033 104.038 164.26 103.982 164.492 103.954C164.932 103.868 165.592 103.755 166.373 103.647C168.458 103.291 170.597 103.379 172.644 103.906C173.764 104.236 174.805 104.785 175.702 105.521C176.436 106.132 177.064 106.856 177.561 107.665C177.901 108.195 178.173 108.765 178.369 109.361C178.45 109.571 178.505 109.79 178.535 110.013Z" fill="#263238"/>
<path d="M172.82 102.048C169.855 101.364 166.755 101.483 163.854 102.393C164.235 102.15 164.652 101.968 165.092 101.854C166.133 101.541 167.21 101.36 168.298 101.316C169.386 101.278 170.475 101.376 171.538 101.607C171.985 101.69 172.417 101.839 172.82 102.048Z" fill="#263238"/>
<path d="M160.554 91.2405C160.598 91.2405 160.488 91.9998 160.4 93.2168C160.169 96.334 160.444 99.4673 161.214 102.5L161.016 102.565C160.79 101.946 160.614 101.44 160.499 101.084C160.427 100.911 160.375 100.73 160.345 100.546C160.457 100.713 160.546 100.894 160.609 101.084C160.757 101.423 160.961 101.919 161.214 102.533L161.016 102.592C160.581 101.102 160.291 99.5747 160.152 98.0309C160.008 96.4339 160.023 94.8271 160.196 93.2329C160.268 92.6244 160.35 92.1559 160.416 91.7951C160.435 91.6048 160.481 91.418 160.554 91.2405Z" fill="#263238"/>
<path d="M149.834 77.428C149.834 77.428 145.901 77.428 145.406 82.0537C145.027 85.6077 145.406 89.0541 145.406 90.6157C145.406 92.1774 144.708 97.7077 144.708 97.7077C144.708 97.7077 142.023 100.039 142.067 102.84C142.111 105.64 144.158 106.512 144.158 106.512C143.814 107.38 143.739 108.327 143.94 109.236C144.142 110.146 144.611 110.977 145.291 111.628C145.291 111.628 144.152 114.207 145.087 115.936C145.626 116.796 146.467 117.433 147.452 117.729C147.291 118.069 147.206 118.439 147.203 118.815C147.2 119.19 147.28 119.561 147.436 119.904C147.593 120.246 147.822 120.552 148.11 120.8C148.397 121.048 148.736 121.233 149.102 121.342C150.424 121.743 151.808 121.909 153.189 121.832L156.126 121.778L158.711 123.179C158.711 123.179 163.145 121.288 163.255 118.731L163.37 116.173C163.37 116.173 162.1 111.972 161.995 110.626C161.891 109.28 163.018 106.065 162.336 104.622C161.654 103.179 159.272 102.328 159.498 100.314C159.723 98.3001 159.272 97.18 158.249 96.0653C157.226 94.9506 152.711 92.732 152.711 92.732C152.711 92.732 151.55 89.501 151.55 87.2878C151.55 85.0746 153.811 78.2734 149.834 77.428Z" fill="#FFBF9D"/>
<path d="M152.485 93.5723C152.147 93.8431 151.778 94.0745 151.385 94.2615C150.692 94.66 149.735 95.1877 148.635 95.7586C147.535 96.3294 146.578 96.8355 145.885 97.1856C145.51 97.4073 145.112 97.5878 144.697 97.7241C145.033 97.4501 145.403 97.2169 145.797 97.0294C146.49 96.6309 147.447 96.1032 148.547 95.5324C149.647 94.9616 150.604 94.4554 151.297 94.1054C151.671 93.8837 152.069 93.7048 152.485 93.5723Z" fill="#FF9A6C"/>
<path d="M155.07 102.28C155.07 102.28 154.96 102.404 154.724 102.581C154.395 102.834 154.054 103.069 153.701 103.287C152.539 104.015 151.304 104.625 150.015 105.107C148.727 105.596 147.391 105.957 146.028 106.184C145.478 106.265 145.076 106.313 144.785 106.329C144.632 106.357 144.475 106.357 144.323 106.329C144.323 106.286 144.961 106.2 145.973 105.99C147.307 105.715 148.618 105.341 149.894 104.87C151.167 104.388 152.4 103.808 153.58 103.136C154.061 102.826 154.559 102.54 155.07 102.28Z" fill="#FF9A6C"/>
<path d="M158.447 99.5063C158.519 99.5333 158.37 100.045 157.897 100.438C157.424 100.831 156.918 100.949 156.902 100.879C156.885 100.809 157.292 100.605 157.705 100.228C158.117 99.851 158.37 99.474 158.447 99.5063Z" fill="#FF9A6C"/>
<path d="M156.825 109.899C156.296 110.151 155.744 110.349 155.175 110.492C153.821 110.886 152.443 111.194 151.049 111.413C149.656 111.635 148.248 111.765 146.836 111.8C146.251 111.844 145.663 111.826 145.082 111.746C145.659 111.666 146.242 111.619 146.825 111.606C147.925 111.531 149.383 111.391 151.005 111.138C152.628 110.885 154.075 110.556 155.12 110.298C155.68 110.133 156.249 110 156.825 109.899Z" fill="#FF9A6C"/>
<path d="M160.422 109.28C160.505 109 160.606 108.724 160.724 108.456C160.943 107.798 161.016 107.103 160.939 106.415C160.851 105.728 160.611 105.068 160.235 104.482C160.057 104.248 159.893 104.003 159.745 103.75C159.745 103.723 160.059 103.922 160.405 104.369C160.85 104.96 161.131 105.653 161.219 106.382C161.308 107.111 161.202 107.85 160.911 108.526C160.686 109.016 160.449 109.28 160.422 109.28Z" fill="#FF9A6C"/>
<path d="M157.045 117.697C156.594 117.859 156.125 117.968 155.648 118.02C154.505 118.196 153.35 118.285 152.193 118.284C151.034 118.282 149.877 118.186 148.734 117.998C148.256 117.945 147.787 117.835 147.337 117.67C147.814 117.678 148.291 117.723 148.761 117.804C149.901 117.931 151.047 117.997 152.193 118.004C153.338 118.001 154.482 117.94 155.62 117.821C156.091 117.742 156.567 117.701 157.045 117.697Z" fill="#FF9A6C"/>
<path d="M150.048 87.3419C150.048 87.3742 149.867 87.5196 149.498 87.6488C149.013 87.8075 148.498 87.8589 147.99 87.7993C147.482 87.7397 146.994 87.5706 146.561 87.3042C146.231 87.0942 146.077 86.9111 146.099 86.8842C146.707 87.1832 147.355 87.3971 148.024 87.5196C148.704 87.555 149.386 87.4952 150.048 87.3419Z" fill="#FF9A6C"/>
<path d="M161.236 109.587C161.286 109.72 161.308 109.861 161.302 110.002C161.302 110.384 161.256 110.766 161.165 111.138C161.06 111.606 160.878 112.15 160.702 112.753C160.489 113.384 160.42 114.053 160.499 114.714C160.592 115.397 161.115 115.947 161.198 116.641C161.254 117.228 161.1 117.817 160.763 118.305C160.558 118.629 160.32 118.932 160.053 119.21C159.866 119.409 159.751 119.506 159.734 119.495C159.718 119.485 160.114 119.021 160.587 118.208C160.871 117.75 160.993 117.212 160.934 116.679C160.868 116.092 160.339 115.543 160.213 114.762C160.129 114.061 160.21 113.35 160.449 112.683C160.642 112.075 160.84 111.542 160.967 111.068C161.093 110.581 161.183 110.086 161.236 109.587Z" fill="#FF9A6C"/>
<path d="M162.716 112.969C162.805 113.127 162.868 113.297 162.903 113.475C163.002 113.803 163.134 114.288 163.255 114.891C163.404 115.601 163.492 116.321 163.519 117.045C163.566 117.95 163.396 118.854 163.024 119.684C162.591 120.478 162.017 121.191 161.329 121.789C160.782 122.277 160.2 122.725 159.586 123.13C159.063 123.48 158.623 123.739 158.315 123.906C158.164 124.006 157.999 124.086 157.826 124.143C157.798 124.105 158.458 123.696 159.476 122.969C160.066 122.548 160.628 122.091 161.159 121.601C161.813 121.016 162.36 120.325 162.776 119.56C163.129 118.768 163.296 117.909 163.266 117.045C163.253 116.332 163.187 115.621 163.068 114.918C162.853 113.717 162.672 112.98 162.716 112.969Z" fill="#263238"/>
<path d="M121.216 95.0423C120.987 94.9105 120.773 94.7552 120.578 94.5792L118.928 93.2276L117.784 92.2852C117.588 92.1061 117.37 91.9522 117.135 91.8275C117.02 91.7703 116.894 91.7405 116.766 91.7405C116.638 91.7405 116.512 91.7703 116.397 91.8275C115.924 92.0698 115.605 92.6621 115.204 93.1576C114.802 93.653 114.406 94.2345 113.988 94.773C113.328 95.6454 112.685 96.4801 112.096 97.2555L111.739 97.7186L111.854 97.1478C112.17 95.5464 112.628 93.9751 113.224 92.4521C113.444 91.9136 113.642 91.4505 113.774 91.1543C113.836 90.9953 113.919 90.845 114.021 90.7074C113.984 90.8717 113.93 91.0321 113.862 91.1867C113.746 91.4936 113.576 91.9406 113.378 92.5114C112.84 94.0421 112.419 95.6099 112.118 97.2017L111.871 97.094L113.757 94.6061L114.973 92.9906L115.556 92.2313C115.741 91.9616 115.99 91.7399 116.282 91.5851C116.435 91.5195 116.601 91.4888 116.768 91.4954C116.934 91.5019 117.098 91.5455 117.245 91.6228C117.494 91.7606 117.725 91.9289 117.932 92.1236L119.032 93.0929L120.638 94.5092C120.845 94.6717 121.038 94.85 121.216 95.0423Z" fill="#263238"/>
<path d="M144.438 90.492C144.374 90.5627 144.302 90.626 144.224 90.6804L143.575 91.1758L141.149 92.9583L133.058 98.7902L132.937 98.8763L132.854 98.7525C132.788 98.6555 132.722 98.5478 132.651 98.4455L128.592 92.1667L128.74 92.2151C127.176 92.8234 125.667 93.5602 124.23 94.4176C123.713 94.7245 123.311 94.9561 123.036 95.1553C122.903 95.254 122.759 95.3388 122.607 95.4084C122.724 95.2896 122.853 95.1831 122.992 95.0907C123.256 94.9022 123.647 94.6276 124.158 94.2991C125.577 93.3948 127.08 92.6232 128.647 91.9943L128.74 91.9567L128.795 92.0374C129.989 93.8522 131.391 96.0008 132.893 98.2947C132.964 98.3971 133.03 98.5048 133.096 98.6017L132.887 98.564L141.033 92.8021L143.509 91.0843L144.191 90.632C144.35 90.5296 144.433 90.4812 144.438 90.492Z" fill="#263238"/>
<path d="M95.0727 111.908C95.0978 112.032 95.1089 112.158 95.1057 112.285C95.1057 112.565 95.1057 112.926 95.1332 113.362C95.1332 114.337 95.1827 115.699 95.2102 117.368C95.2762 120.75 95.4137 125.446 95.5952 130.588C95.7767 135.731 95.8813 140.427 95.8923 143.814C95.8923 145.51 95.8923 146.878 95.8923 147.826C95.8923 148.273 95.8923 148.639 95.8648 148.903C95.8707 149.031 95.8615 149.159 95.8373 149.285C95.8293 149.158 95.8293 149.03 95.8373 148.903C95.8373 148.628 95.8373 148.262 95.8043 147.826C95.8043 146.846 95.7602 145.483 95.7272 143.819C95.6667 140.432 95.5237 135.742 95.3477 130.594C95.1717 125.446 95.0617 120.755 95.0507 117.368C95.0507 115.677 95.0507 114.304 95.0507 113.362C95.0507 112.91 95.0507 112.549 95.0507 112.285C95.0498 112.159 95.0571 112.033 95.0727 111.908Z" fill="#263238"/>
<path d="M121.397 160.545C121.379 160.496 121.368 160.446 121.364 160.394C121.364 160.276 121.364 160.125 121.315 159.936C121.271 159.511 121.21 158.924 121.139 158.175C120.985 156.646 120.809 154.406 120.633 151.687C120.457 148.967 120.308 145.672 120.215 142.042C120.121 138.413 120.11 134.412 120.215 130.195C120.319 125.979 120.512 122.01 120.765 118.386C121.018 114.762 121.315 111.499 121.612 108.769C121.909 106.038 122.162 103.825 122.404 102.307C122.514 101.558 122.596 100.977 122.657 100.557C122.69 100.368 122.712 100.217 122.734 100.099C122.737 100.047 122.748 99.9962 122.767 99.948C122.775 99.9997 122.775 100.052 122.767 100.104C122.767 100.223 122.739 100.373 122.723 100.562C122.673 100.982 122.607 101.569 122.519 102.317C122.332 103.847 122.09 106.055 121.821 108.779C121.551 111.504 121.271 114.773 121.034 118.397C120.798 122.021 120.616 126.011 120.517 130.201C120.418 134.39 120.446 138.38 120.517 142.01C120.589 145.639 120.726 148.903 120.88 151.644C121.034 154.384 121.172 156.608 121.293 158.138C121.342 158.886 121.386 159.479 121.414 159.904C121.414 160.093 121.414 160.243 121.441 160.362C121.432 160.424 121.417 160.485 121.397 160.545Z" fill="#263238"/>
<path d="M105.006 72.4039L104.423 72.7809L102.707 73.8579C101.948 74.3371 101.057 75.021 100.012 75.7749C99.462 76.1626 98.9559 76.6311 98.3619 77.105L97.4654 77.8427C97.1573 78.1012 96.8658 78.3812 96.5523 78.6774C93.5102 81.4557 90.838 84.5984 88.5989 88.0311L87.6198 89.5712C87.2733 90.0827 87.0093 90.6482 86.6903 91.1867C86.3712 91.7252 86.0577 92.3067 85.7717 92.8991C85.4857 93.4914 85.2217 94.0999 84.9247 94.7138C84.7872 95.0207 84.6331 95.3223 84.5011 95.64C84.3691 95.9577 84.2536 96.2808 84.1271 96.6093C83.8796 97.2555 83.6156 97.9071 83.3736 98.5802C82.9665 99.9426 82.4495 101.321 82.1415 102.791C80.5735 109.152 80.3117 115.754 81.3715 122.215C82.7504 130.534 86.3087 138.362 91.6992 144.933C97.0896 151.505 104.128 156.596 112.128 159.71C120.127 162.824 128.815 163.855 137.343 162.702C145.87 161.548 153.947 158.25 160.785 153.13C162.511 151.831 164.153 150.428 165.702 148.929L166.802 147.788C167.176 147.411 167.539 147.029 167.902 146.625L168.947 145.445C169.277 145.036 169.602 144.627 169.932 144.223C174.907 137.949 178.226 130.571 179.596 122.742C179.918 120.925 180.136 119.091 180.251 117.25C180.306 116.34 180.306 115.44 180.339 114.557C180.372 113.674 180.273 112.775 180.24 111.897C180.24 111.461 180.201 111.019 180.185 110.583C180.168 110.147 180.085 109.722 180.041 109.291C179.931 108.435 179.827 107.584 179.722 106.744C179.618 105.904 179.392 105.085 179.227 104.267C179.09 103.455 178.906 102.651 178.677 101.86L177.995 99.528C177.888 99.1455 177.758 98.7696 177.605 98.4025C177.462 98.0309 177.319 97.6594 177.181 97.2932C176.89 96.5662 176.631 95.8231 176.318 95.1392C176.004 94.4553 175.663 93.7607 175.339 93.0875C172.947 88.219 169.738 83.7777 165.845 79.9483C162.896 77.0794 159.605 74.5681 156.044 72.4686L153.943 71.2893C153.625 71.1072 153.299 70.9419 152.963 70.7938L152.039 70.363L150.389 69.5984C149.894 69.3507 149.405 69.2107 148.992 69.0599L147.078 68.3383L146.429 68.0798L147.089 68.3114L149.009 69.0114C149.427 69.173 149.916 69.313 150.417 69.5499L152.067 70.3038L152.996 70.7346C153.333 70.8789 153.662 71.0406 153.981 71.2193L156.088 72.3932C159.673 74.4795 162.984 76.9858 165.95 79.8567C169.865 83.6834 173.097 88.1267 175.509 93.0014C175.834 93.6853 176.164 94.3692 176.499 95.0692C176.835 95.7693 177.049 96.507 177.368 97.2232L177.797 98.3325C177.951 98.7015 178.081 99.0791 178.188 99.4633C178.419 100.239 178.65 101.014 178.881 101.806C179.119 102.601 179.312 103.408 179.458 104.224C179.623 105.042 179.821 105.839 179.964 106.706C180.107 107.573 180.173 108.408 180.284 109.269C180.333 109.7 180.405 110.131 180.432 110.567C180.46 111.003 180.471 111.445 180.487 111.886C180.52 112.77 180.57 113.658 180.592 114.579C180.614 115.5 180.564 116.383 180.504 117.271C179.942 127.129 176.329 136.585 170.146 144.385L169.145 145.612L168.089 146.802C167.748 147.206 167.38 147.594 166.989 147.971L165.889 149.123C164.331 150.631 162.678 152.041 160.939 153.345C154.068 158.487 145.954 161.799 137.387 162.956C128.819 164.114 120.092 163.079 112.055 159.952C104.018 156.825 96.9463 151.712 91.5284 145.113C86.1104 138.513 82.5315 130.652 81.1404 122.296C80.5823 118.927 80.3979 115.509 80.5904 112.102C80.7291 108.959 81.1916 105.838 81.971 102.786C82.279 101.31 82.8015 99.9318 83.2086 98.5587C83.4561 97.8909 83.7256 97.234 83.9786 96.5824C84.1051 96.2593 84.2316 95.9362 84.3526 95.6131C84.4736 95.29 84.6441 94.9938 84.7816 94.6815C85.0732 94.0676 85.3317 93.4645 85.6342 92.8668C85.9367 92.269 86.2612 91.7144 86.5637 91.149C86.8663 90.5835 87.1523 90.0235 87.4988 89.5066L88.4889 87.9665C90.7397 84.5285 93.4332 81.3884 96.5028 78.6236C96.8163 78.3382 97.1078 78.0474 97.4159 77.7889L98.3179 77.0512C98.9119 76.5827 99.418 76.1196 99.968 75.7318C101.041 74.978 101.921 74.3048 102.685 73.831L104.418 72.754C104.792 72.517 105.006 72.4039 105.006 72.4039Z" fill="#263238"/>
</svg>
