<svg width="250" height="251" viewBox="0 0 250 251" fill="none" xmlns="http://www.w3.org/2000/svg">
<path d="M183.604 65.1627C183.604 65.1627 178.08 55.6846 175.315 56.2262C173.42 56.6861 171.647 57.5449 170.117 58.7441L177.148 66.9258L183.604 65.1627Z" fill="#FFBE9D"/>
<path d="M177.211 44.3368L148.842 44.4202L148.896 62.4651L177.265 62.3817L177.211 44.3368Z" fill="#D64D54"/>
<path d="M168.781 62.6902C168.699 62.6902 168.617 58.643 168.6 53.6128C168.582 48.5826 168.64 44.5354 168.728 44.5354C168.816 44.5354 168.892 48.5826 168.903 53.6128C168.915 58.643 168.845 62.6902 168.781 62.6902Z" fill="#263238"/>
<path d="M177.595 54.4916C177.595 54.5784 171.105 54.6477 163.103 54.6477C155.101 54.6477 148.612 54.5784 148.612 54.4916C148.612 54.4049 155.095 54.3413 163.103 54.3413C171.111 54.3413 177.595 54.4107 177.595 54.4916Z" fill="#FAFAFA"/>
<path d="M157.724 62.4301C157.642 62.4301 157.572 58.3828 157.572 53.4105C157.572 48.4381 157.642 44.3909 157.724 44.3909C157.806 44.3909 157.876 48.4381 157.876 53.4105C157.876 58.3828 157.806 62.4301 157.724 62.4301Z" fill="#FAFAFA"/>
<path d="M172.963 62.5689C172.881 62.5689 172.811 58.5216 172.811 53.4799C172.811 48.4382 172.869 44.4025 172.963 44.4025C173.056 44.4025 173.115 48.4497 173.115 53.4914C173.115 58.5332 173.05 62.5689 172.963 62.5689Z" fill="#FAFAFA"/>
<path d="M157.309 54.5206C157.116 54.5529 156.918 54.5529 156.725 54.5206C156.207 54.4681 155.698 54.3555 155.206 54.1853C154.47 53.9381 153.778 53.5771 153.156 53.1156C152.758 52.8545 152.433 52.4987 152.21 52.0807C152.093 51.8356 152.062 51.5588 152.122 51.2944C152.195 51.0252 152.355 50.7874 152.578 50.6179C152.79 50.4587 153.037 50.3516 153.299 50.3054C153.561 50.2592 153.83 50.2751 154.085 50.3519C154.545 50.4792 154.974 50.6976 155.347 50.9937C155.968 51.4672 156.49 52.0565 156.883 52.7282C157.143 53.1753 157.34 53.6559 157.467 54.1563C157.53 54.3425 157.56 54.5382 157.554 54.7345C157.326 54.0845 157.033 53.4589 156.678 52.867C156.276 52.2404 155.759 51.6934 155.154 51.2539C154.807 50.9868 154.41 50.7903 153.986 50.6757C153.775 50.6147 153.553 50.6028 153.337 50.6409C153.122 50.679 152.918 50.7662 152.741 50.8954C152.57 51.0183 152.449 51.197 152.397 51.4C152.346 51.603 152.369 51.8174 152.461 52.0055C152.662 52.3783 152.95 52.6976 153.302 52.9364C153.897 53.393 154.556 53.7611 155.259 54.0291C155.93 54.239 156.615 54.4032 157.309 54.5206Z" fill="#FAFAFA"/>
<path d="M157.578 54.9541C157.55 54.7837 157.55 54.6099 157.578 54.4395C157.648 53.9768 157.776 53.5244 157.957 53.0924C158.386 52.0567 159.081 51.1498 159.972 50.4617C160.158 50.3137 160.373 50.2072 160.603 50.1494C160.734 50.1185 160.871 50.1175 161.003 50.1466C161.134 50.1756 161.257 50.234 161.363 50.3171C161.459 50.4079 161.535 50.5187 161.583 50.6417C161.632 50.7646 161.652 50.8966 161.643 51.0283C161.634 51.258 161.587 51.4847 161.503 51.699C161.363 52.0968 161.167 52.4726 160.919 52.8148C160.533 53.3877 160.027 53.871 159.435 54.2314C159.026 54.4705 158.58 54.6405 158.115 54.7344C157.947 54.7834 157.769 54.7972 157.595 54.7749C158.209 54.6097 158.798 54.3647 159.348 54.0464C159.915 53.6852 160.401 53.2106 160.773 52.653C160.99 52.3241 161.163 51.9684 161.287 51.5949C161.415 51.2306 161.491 50.7565 161.228 50.531C161.157 50.4798 161.075 50.4445 160.988 50.4275C160.901 50.4106 160.812 50.4123 160.726 50.4328C160.539 50.482 160.364 50.5685 160.212 50.6872C159.896 50.9278 159.602 51.1969 159.336 51.4908C158.881 51.9914 158.505 52.5566 158.22 53.1675C157.968 53.749 157.754 54.3457 157.578 54.9541Z" fill="#FAFAFA"/>
<path d="M131.902 20.4578L109.057 27.2434L113.462 41.7748L136.307 34.9892L131.902 20.4578Z" fill="#455A64"/>
<path d="M129.543 37.2473C129.477 37.2667 128.433 34.0239 127.203 29.9738C125.973 25.9236 125.042 22.6477 125.113 22.6269C125.183 22.6062 126.223 25.8503 127.448 29.9018C128.673 33.9534 129.595 37.2321 129.543 37.2473Z" fill="#263238"/>
<path d="M134.665 28.5519C134.686 28.6218 129.473 30.2145 123.023 32.1095C116.573 34.0046 111.326 35.4855 111.305 35.4156C111.284 35.3457 116.495 33.759 122.949 31.8626C129.403 29.9661 134.646 28.4866 134.665 28.5519Z" fill="#FAFAFA"/>
<path d="M120.568 39.656C120.502 39.6754 119.468 36.4299 118.266 32.4222C117.064 28.4144 116.142 25.1357 116.208 25.1164C116.274 25.097 117.309 28.3425 118.511 32.3502C119.712 36.3579 120.634 39.6366 120.568 39.656Z" fill="#FAFAFA"/>
<path d="M132.884 36.1589C132.818 36.1783 131.784 32.9328 130.565 28.8692C129.347 24.8055 128.418 21.5389 128.494 21.5168C128.569 21.4946 129.594 24.7429 130.813 28.8066C132.031 32.8702 132.955 36.1382 132.884 36.1589Z" fill="#FAFAFA"/>
<path d="M118.322 33.3791C118.174 33.451 118.015 33.4977 117.851 33.5174C117.421 33.5977 116.983 33.6277 116.546 33.6068C115.893 33.582 115.248 33.4549 114.635 33.2302C114.251 33.114 113.903 32.9042 113.623 32.6201C113.469 32.4503 113.377 32.2345 113.362 32.0071C113.355 31.7731 113.427 31.5434 113.566 31.354C113.698 31.1755 113.871 31.0306 114.071 30.9313C114.271 30.832 114.492 30.7811 114.716 30.7827C115.118 30.7764 115.516 30.8507 115.888 31.0012C116.503 31.2357 117.066 31.5871 117.545 32.0354C117.863 32.3342 118.138 32.675 118.361 33.0482C118.457 33.1833 118.528 33.334 118.572 33.4934C118.231 33.0236 117.843 32.5888 117.414 32.1957C116.938 31.786 116.389 31.4676 115.795 31.2566C115.451 31.1235 115.084 31.0592 114.714 31.0672C114.53 31.0679 114.348 31.1108 114.183 31.1927C114.019 31.2745 113.875 31.393 113.764 31.5389C113.656 31.6785 113.601 31.8514 113.609 32.0271C113.617 32.2029 113.687 32.3703 113.807 32.5001C114.059 32.753 114.368 32.942 114.71 33.0512C115.3 33.2783 115.92 33.4189 116.551 33.4685C117.143 33.4787 117.734 33.4488 118.322 33.3791Z" fill="#FAFAFA"/>
<path d="M118.644 33.6651C118.58 33.5344 118.538 33.3943 118.519 33.2503C118.464 32.8607 118.457 32.4658 118.5 32.0746C118.595 31.1383 118.935 30.2429 119.488 29.477C119.601 29.314 119.749 29.1771 119.921 29.076C120.019 29.02 120.129 28.9868 120.242 28.9791C120.355 28.9714 120.468 28.9892 120.573 29.0313C120.673 29.0816 120.761 29.153 120.83 29.2407C120.898 29.3283 120.947 29.4298 120.971 29.5381C121.02 29.7253 121.036 29.9192 121.02 30.1119C121.004 30.4655 120.936 30.8151 120.819 31.1496C120.647 31.7025 120.356 32.2119 119.966 32.6427C119.694 32.9322 119.376 33.1749 119.024 33.3607C118.899 33.4402 118.76 33.4932 118.614 33.5165C119.069 33.2379 119.485 32.9009 119.851 32.5143C120.221 32.0887 120.498 31.5912 120.662 31.0537C120.758 30.7371 120.812 30.4095 120.821 30.0792C120.837 29.7551 120.783 29.355 120.517 29.2355C120.447 29.2112 120.372 29.2021 120.298 29.209C120.224 29.2159 120.153 29.2385 120.088 29.2753C119.949 29.3592 119.829 29.4704 119.735 29.602C119.539 29.8709 119.367 30.1572 119.224 30.4573C118.978 30.9684 118.812 31.513 118.73 32.0729C118.667 32.6013 118.638 33.1331 118.644 33.6651Z" fill="#FAFAFA"/>
<path d="M126.658 1.31015L123.025 3.72741C122.134 4.32036 121.897 5.51608 122.496 6.39814L124.938 9.99404C125.537 10.8761 126.745 11.1105 127.636 10.5175L131.269 8.10028C132.16 7.50733 132.397 6.3116 131.798 5.42954L129.356 1.83364C128.757 0.951583 127.549 0.717206 126.658 1.31015Z" fill="#F5F5F5"/>
<path d="M19.8685 58.7632L16.2358 61.1804C15.3447 61.7734 15.108 62.9691 15.707 63.8511L18.1489 67.447C18.748 68.3291 19.9559 68.5635 20.847 67.9705L24.4796 65.5533C25.3707 64.9603 25.6075 63.7646 25.0085 62.8825L22.5665 59.2866C21.9675 58.4046 20.7596 58.1702 19.8685 58.7632Z" fill="#F5F5F5"/>
<path d="M168.045 21.1141L169.337 21.3907L172.969 18.2908L173.511 15.8594C173.511 15.8594 175.53 16.1763 174.587 19.3164C173.644 22.4566 174.081 21.6961 174.081 21.6961C174.081 21.6961 178.301 22.6295 178.58 23.0558C178.778 23.3612 177.998 27.3656 177.573 29.5321C177.476 30.0666 177.198 30.5528 176.786 30.9116C176.374 31.2703 175.851 31.4806 175.303 31.5083C175.147 31.5104 174.991 31.495 174.838 31.4623C173.784 31.2375 168.575 29.2497 168.575 29.2497L166.345 28.7657L168.045 21.1141Z" fill="#E0E0E0"/>
<path d="M164.506 19.639L163.447 28.1607L165.653 28.6389L167.469 20.463L164.506 19.639Z" fill="#E0E0E0"/>
<path d="M193.051 41.5453L194.692 43.2162C194.782 43.3063 194.892 43.3738 195.014 43.4129C195.135 43.452 195.264 43.4616 195.39 43.4409L197.719 43.0491C197.866 43.0227 198.018 43.0383 198.157 43.0941C198.296 43.15 198.416 43.2437 198.503 43.3644C198.591 43.4852 198.641 43.6279 198.65 43.7761C198.658 43.9243 198.624 44.0718 198.551 44.2014L197.451 46.2584C197.391 46.3701 197.359 46.4948 197.359 46.6214C197.359 46.748 197.391 46.8726 197.451 46.9844L198.545 49.0528C198.621 49.1822 198.657 49.3304 198.65 49.4796C198.643 49.6289 198.592 49.7729 198.504 49.8945C198.416 50.016 198.295 50.11 198.155 50.1651C198.014 50.2202 197.861 50.2341 197.713 50.2052L195.385 49.8076C195.259 49.7854 195.129 49.7943 195.007 49.8335C194.885 49.8727 194.775 49.941 194.686 50.0323L193.045 51.6975C192.942 51.8027 192.812 51.8773 192.669 51.9127C192.526 51.9482 192.376 51.9431 192.236 51.898C192.096 51.853 191.971 51.7697 191.876 51.6578C191.781 51.546 191.72 51.4099 191.7 51.2654L191.363 48.9607C191.343 48.8375 191.293 48.7208 191.218 48.6205C191.143 48.5202 191.045 48.4393 190.932 48.3845L188.825 47.3531C188.692 47.2894 188.58 47.19 188.501 47.0662C188.423 46.9423 188.381 46.7992 188.381 46.6531C188.381 46.5069 188.423 46.3638 188.501 46.24C188.58 46.1161 188.692 46.0167 188.825 45.953L190.938 44.9216C191.052 44.8681 191.151 44.7874 191.226 44.6869C191.301 44.5864 191.35 44.4692 191.368 44.3455L191.712 42.0408C191.722 41.8921 191.776 41.7496 191.866 41.6302C191.956 41.5108 192.079 41.4196 192.22 41.3674C192.361 41.3152 192.515 41.3042 192.662 41.3357C192.809 41.3673 192.944 41.44 193.051 41.5453Z" fill="#EBEBEB"/>
<path d="M53.0517 3.88063L54.2158 5.06755C54.28 5.13064 54.3581 5.17806 54.444 5.20606C54.5298 5.23406 54.6211 5.24188 54.7106 5.22888L56.352 4.95232C56.4519 4.94432 56.5523 4.96201 56.6433 5.00368C56.7343 5.04535 56.8128 5.10957 56.8714 5.19014C56.93 5.2707 56.9665 5.36487 56.9775 5.46352C56.9885 5.56217 56.9735 5.66195 56.9341 5.7532L56.1657 7.20517C56.1229 7.28399 56.1006 7.37208 56.1006 7.46157C56.1006 7.55105 56.1229 7.63914 56.1657 7.71797L56.9515 9.19298C56.991 9.28423 57.0059 9.38402 56.9949 9.48267C56.984 9.58131 56.9474 9.67548 56.8889 9.75605C56.8303 9.83661 56.7517 9.90084 56.6607 9.9425C56.5697 9.98417 56.4694 10.0019 56.3695 9.99387L54.728 9.71154C54.6386 9.69854 54.5473 9.70636 54.4614 9.73436C54.3755 9.76236 54.2974 9.80979 54.2333 9.87287L53.0692 11.0252C52.9929 11.0904 52.9009 11.1349 52.8022 11.1543C52.7034 11.1738 52.6012 11.1675 52.5056 11.1362C52.41 11.1048 52.3242 11.0494 52.2567 10.9755C52.1892 10.9015 52.1422 10.8114 52.1204 10.7141L51.8817 9.08351C51.8672 8.99437 51.8317 8.90987 51.7781 8.83681C51.7245 8.76375 51.6544 8.70418 51.5732 8.6629L50.0773 7.93115C49.9905 7.88014 49.9185 7.80763 49.8685 7.72075C49.8186 7.63387 49.7923 7.53562 49.7923 7.43564C49.7923 7.33567 49.8186 7.23741 49.8685 7.15053C49.9185 7.06366 49.9905 6.99115 50.0773 6.94013L51.5732 6.20838C51.6536 6.16767 51.7234 6.10899 51.7769 6.03699C51.8305 5.96498 51.8663 5.88164 51.8817 5.79354L52.1204 4.15719C52.148 4.06578 52.1982 3.9826 52.2663 3.91511C52.3344 3.84762 52.4184 3.79793 52.5108 3.77052C52.6031 3.7431 52.7008 3.73881 52.7953 3.75803C52.8897 3.77724 52.9778 3.81937 53.0517 3.88063Z" fill="#EBEBEB"/>
<path d="M14.4024 31.7444C15.2867 31.6563 16.1121 31.2651 16.7359 30.6386C17.3598 30.012 17.7429 29.1894 17.8191 28.3129C17.8952 27.4364 17.6597 26.5611 17.1531 25.8382C16.6465 25.1154 15.9007 24.5905 15.0447 24.3542C14.1886 24.1178 13.276 24.185 12.4647 24.544C11.6533 24.903 10.9941 25.5314 10.6011 26.3204C10.2081 27.1094 10.1058 28.0096 10.3121 28.8653C10.5184 29.721 11.0202 30.4785 11.7307 31.0069C5.8635 30.2463 4.49564 36.083 4.49564 36.083L17.825 39.8282C17.825 39.8282 19.7691 34.0837 14.4024 31.7444Z" fill="#E0E0E0"/>
<path d="M99.8674 250.237C111.807 250.237 121.485 249.512 121.485 248.618C121.485 247.723 111.807 246.998 99.8674 246.998C87.9281 246.998 78.2494 247.723 78.2494 248.618C78.2494 249.512 87.9281 250.237 99.8674 250.237Z" fill="#E0E0E0"/>
<path d="M191.217 178.612C165.164 202.08 136.45 205.571 103.983 201.377C71.5149 197.182 48.8026 185.82 28.6456 160.284C14.2743 142.042 0.124273 119.15 0.0020393 96.0228C-0.120195 72.895 5.21736 48.6898 25.5199 37.1663C33.1799 32.8277 52.1378 31.3642 60.6593 33.6401C74.2738 37.27 81.8058 51.2884 87.7487 63.9355C93.6916 76.5825 100.688 95.4235 114.279 99.1111C124.757 101.946 143.226 97.1405 154 96.017C172.311 94.0983 189.343 100.477 200.839 114.72C212.334 128.963 210.833 146.346 204.913 163.608C204.89 163.614 196.578 173.784 191.217 178.612Z" fill="#EBEBEB"/>
<path d="M250 242.925C250 243.011 195.513 243.075 128.348 243.075C61.1832 243.075 6.65508 243.011 6.65508 242.925C6.65508 242.839 61.125 242.775 128.348 242.775C195.571 242.775 250 242.862 250 242.925Z" fill="#263238"/>
<path d="M83.3657 154.603C83.3657 154.603 37.3824 105.852 31.9575 99.4684C29.6293 96.6912 26.0961 89.4717 25.6479 87.0575C25.3141 85.2929 25.5506 83.469 26.3238 81.8451C27.0971 80.2211 28.3677 78.8797 29.9552 78.0116C37.2194 74.0647 55.4265 68.7927 100.816 68.7927C139.058 68.7927 156.299 73.1659 164.058 77.2856C166.095 78.3766 167.712 80.1018 168.659 82.1943C169.606 84.2868 169.83 86.6298 169.296 88.861C168.469 92.3397 166.747 95.5474 164.296 98.172L111.619 154.637L106.91 194.123H90.2923L83.3657 154.603Z" fill="#455A64"/>
<path d="M159.902 81.1287C160.343 81.3075 160.726 81.6031 161.009 81.9832C161.292 82.3633 161.463 82.8131 161.505 83.2834C161.546 83.7536 161.456 84.2261 161.244 84.6489C161.032 85.0718 160.707 85.4287 160.303 85.6805C149.43 92.5946 135.758 94.4384 122.708 95.2854C93.4238 97.181 47.6908 96.0286 34.1112 84.3841C33.902 84.2083 33.7437 83.9808 33.6521 83.7248C33.5606 83.4687 33.5391 83.1933 33.59 82.9264C33.6408 82.6595 33.7622 82.4107 33.9416 82.2052C34.1211 81.9998 34.3523 81.8451 34.6118 81.7567C39.344 80.1319 53.3718 74.7043 96.7824 75.027C134.727 75.3093 152.713 78.242 159.902 81.1287Z" fill="#263238"/>
<path d="M112.475 154.055C112.392 154.119 112.302 154.173 112.207 154.217L111.421 154.626C111.009 154.841 110.586 155.033 110.153 155.202C109.646 155.409 109.082 155.674 108.406 155.888L107.382 156.251C107.027 156.372 106.643 156.464 106.253 156.579C105.479 156.821 104.623 156.994 103.732 157.19C101.782 157.557 99.8036 157.763 97.8185 157.806C95.8317 157.815 93.8477 157.659 91.8872 157.34C90.9909 157.167 90.141 157.017 89.3494 156.792C88.9536 156.689 88.5695 156.608 88.1853 156.493L87.155 156.158C86.4915 155.963 85.921 155.709 85.4088 155.513C84.9694 155.345 84.5399 155.153 84.1225 154.937L83.325 154.545C83.2283 154.507 83.138 154.455 83.0573 154.39C83.1592 154.415 83.2586 154.45 83.3541 154.493L84.169 154.833C84.5241 154.989 84.9548 155.167 85.4729 155.346C85.9909 155.525 86.5613 155.761 87.2191 155.922L88.2493 156.233C88.6044 156.343 88.9885 156.418 89.3785 156.516C90.1585 156.729 91.0141 156.867 91.9047 157.034C95.7966 157.668 99.771 157.618 103.645 156.884C104.536 156.694 105.391 156.533 106.154 156.308C106.544 156.199 106.928 156.107 107.283 155.991L108.302 155.657C108.959 155.456 109.53 155.202 110.048 155.012C110.566 154.822 110.991 154.626 111.34 154.465L112.149 154.102C112.255 154.071 112.365 154.055 112.475 154.055Z" fill="#263238"/>
<path d="M164.227 82.5979C164.227 82.5979 164.139 82.6786 163.953 82.8226L163.132 83.4506L161.782 84.4647L159.849 85.7208C158.052 86.8247 156.186 87.8139 154.262 88.6823C151.708 89.8242 149.076 90.7868 146.386 91.5632C143.135 92.5008 139.831 93.2473 136.491 93.7988C132.882 94.375 129 94.8532 124.908 95.2046C116.712 95.8788 107.685 96.357 98.1969 96.3109C93.453 96.3109 88.8197 96.1784 84.3553 95.9191C79.8908 95.6598 75.5835 95.3429 71.5032 94.8532C64.2693 94.0672 57.0809 92.9133 49.9667 91.3961C45.1165 90.5281 40.4732 88.7693 36.2765 86.2105C35.134 85.5172 34.0822 84.687 33.145 83.7387C32.9076 83.4858 32.6916 83.2141 32.4989 82.9263C32.3708 82.7304 32.3126 82.6267 32.3126 82.6267C32.5827 83.0017 32.8763 83.3597 33.1916 83.6984C34.1392 84.6232 35.1943 85.4336 36.3347 86.1126C40.5408 88.6215 45.1776 90.3423 50.0133 91.1887C57.1299 92.6803 64.3179 93.8168 71.5498 94.5939C75.6243 95.0548 79.9258 95.3948 84.3902 95.6425C88.8547 95.8903 93.4763 96.0228 98.2143 96.0286C107.69 96.0286 116.718 95.608 124.896 94.9454C128.971 94.6054 132.865 94.156 136.468 93.5683C139.807 93.0306 143.111 92.2996 146.363 91.3788C149.045 90.6161 151.673 89.6748 154.227 88.5613C156.149 87.7046 158.017 86.7329 159.82 85.6516L161.724 84.4129L163.086 83.4218L163.93 82.8168L164.227 82.5979Z" fill="#263238"/>
<path d="M163.394 99.1169L163.08 99.2725L162.143 99.7046L158.534 101.341L155.926 102.493C154.96 102.902 153.889 103.288 152.754 103.732C150.461 104.585 147.9 105.685 144.948 106.567L140.35 108.053C139.553 108.33 138.72 108.532 137.876 108.756L135.298 109.436L132.62 110.168L131.252 110.525L129.844 110.819L124.023 112.029C115.333 113.608 106.53 114.506 97.6962 114.714C88.8524 114.798 80.0165 114.168 71.2762 112.83L65.4148 111.764L64.0003 111.511C63.5347 111.413 63.0807 111.292 62.6267 111.182L59.9375 110.531L57.3473 109.903C56.4975 109.69 55.6535 109.517 54.8561 109.252L50.2345 107.84C47.2659 107.016 44.6932 105.933 42.394 105.103C41.2299 104.666 40.1763 104.297 39.2101 103.893L36.5966 102.741L32.9587 101.122L32.0216 100.696L31.7072 100.54L32.0332 100.667L32.982 101.07L36.6199 102.632L39.245 103.784C40.2113 104.182 41.2881 104.545 42.4347 104.971C44.763 105.783 47.3067 106.849 50.2752 107.662L54.8968 109.05C55.6942 109.315 56.5382 109.488 57.3822 109.696L59.9783 110.312L62.6558 110.957C63.1156 111.061 63.5696 111.182 64.0353 111.28L65.4439 111.534L71.2645 112.582C80.0112 113.894 88.8503 114.507 97.6962 114.414C106.521 114.208 115.315 113.32 124 111.758L129.821 110.56L131.223 110.272L132.591 109.914L135.257 109.217L137.841 108.549C138.68 108.324 139.518 108.128 140.309 107.852L144.908 106.388C147.859 105.524 150.426 104.435 152.719 103.6C153.883 103.162 154.931 102.787 155.897 102.384L158.516 101.232L162.149 99.6528L163.092 99.2495C163.278 99.1573 163.394 99.1169 163.394 99.1169Z" fill="#263238"/>
<path d="M92.6905 194.088C92.6671 194.029 92.6514 193.967 92.6439 193.904C92.6439 193.771 92.5915 193.593 92.545 193.368C92.4635 192.878 92.3413 192.175 92.1841 191.265C91.8756 189.415 91.4274 186.742 90.8628 183.371C89.7569 176.601 88.1911 167.054 86.3634 155.888L86.3983 155.963C82.0619 151.284 77.3297 146.133 72.5219 140.642C67.1028 134.454 62.1203 128.404 57.8072 122.734C55.6477 119.905 53.6687 117.157 51.8352 114.576C50.0017 111.995 48.3428 109.569 47.004 107.212C45.7579 105.116 44.9447 102.795 44.6117 100.385C44.3985 98.5536 44.6299 96.6988 45.2869 94.9742C45.7033 93.8958 46.3415 92.9147 47.1612 92.0934L47.5453 91.7361L47.848 91.5057C48.0052 91.3789 48.0925 91.3213 48.0925 91.3213C48.0206 91.3944 47.9448 91.4636 47.8655 91.5287C47.784 91.5921 47.685 91.6728 47.5744 91.7707L47.2077 92.1395C46.4124 92.9677 45.7964 93.948 45.3975 95.0203C44.7693 96.7277 44.5579 98.5579 44.7805 100.361C45.1253 102.746 45.9443 105.039 47.1903 107.109C48.5058 109.442 50.2461 111.833 52.0447 114.432C53.8433 117.03 55.8631 119.744 58.0342 122.567C62.3531 128.22 67.3473 134.264 72.7489 140.429C77.5567 145.92 82.2831 151.071 86.6079 155.755H86.637V155.859C88.4239 167.031 89.949 176.601 91.0316 183.36C91.5613 186.73 91.9804 189.41 92.2714 191.265C92.4053 192.175 92.5159 192.878 92.5857 193.368C92.6206 193.598 92.6439 193.783 92.6672 193.915L92.6905 194.088Z" fill="#263238"/>
<path d="M155.222 73.6845C155.222 73.719 154.919 73.6845 154.401 73.7824C153.672 73.8994 152.992 74.2191 152.44 74.7043C151.639 75.4534 150.996 76.3523 150.548 77.3489C149.98 78.5699 149.511 79.8338 149.145 81.1287C148.33 83.8828 147.865 86.4525 147.498 88.3021C147.341 89.1836 147.207 89.9211 147.108 90.4973C147.075 90.77 147.012 91.0385 146.922 91.2982C146.921 91.024 146.945 90.7502 146.992 90.48C147.056 89.9557 147.149 89.2009 147.288 88.2617C147.661 85.8277 148.184 83.4186 148.854 81.048C149.222 79.7356 149.705 78.4574 150.298 77.2279C150.771 76.206 151.453 75.2919 152.3 74.543C152.891 74.0485 153.62 73.7431 154.39 73.6672C154.595 73.6477 154.801 73.6477 155.007 73.6672C155.146 73.6614 155.222 73.6729 155.222 73.6845Z" fill="#263238"/>
<path d="M216.997 90.117L195.844 80.7196L183.51 62.1494L175.92 66.0444L190.268 91.3558L213.859 100.212L216.997 90.117Z" fill="#D64D54"/>
<path d="M187.678 240.073L188.26 234.847L197.887 235.803L197.41 243.484H196.793C194.046 243.363 182.824 242.677 181.077 241.945C179.087 241.133 187.678 240.073 187.678 240.073Z" fill="#455A64"/>
<path d="M197.556 243.271C197.498 243.277 197.439 243.277 197.381 243.271H196.892L195.088 243.173C193.563 243.075 191.456 242.913 189.139 242.689C186.822 242.464 184.721 242.21 183.208 242.003L181.421 241.755L180.932 241.675C180.876 241.672 180.821 241.66 180.769 241.64H180.938L181.427 241.698L183.219 241.911C184.739 242.089 186.834 242.331 189.151 242.556C191.467 242.781 193.569 242.959 195.094 243.075L196.892 243.213L197.387 243.253L197.556 243.271Z" fill="#263238"/>
<path d="M184.197 242.222C184.151 241.919 184.067 241.623 183.947 241.34C183.797 241.072 183.615 240.823 183.406 240.597C183.7 240.742 183.932 240.987 184.058 241.289C184.22 241.571 184.27 241.905 184.197 242.222Z" fill="#263238"/>
<path d="M187.265 241.047C187.236 241.047 187.113 240.879 186.991 240.637C186.9 240.501 186.844 240.345 186.828 240.182C186.857 240.182 186.98 240.349 187.102 240.586C187.224 240.822 187.294 241.029 187.265 241.047Z" fill="#263238"/>
<path d="M188.109 240.707C188.109 240.707 187.94 240.609 187.783 240.442C187.626 240.274 187.527 240.119 187.55 240.096C187.573 240.073 187.719 240.194 187.876 240.361C188.033 240.528 188.132 240.684 188.109 240.707Z" fill="#263238"/>
<path d="M188.708 239.831C188.708 239.865 188.475 239.871 188.184 239.831C188.01 239.831 187.838 239.796 187.678 239.727C187.848 239.687 188.026 239.687 188.196 239.727C188.372 239.724 188.547 239.76 188.708 239.831Z" fill="#263238"/>
<path d="M188.947 239.197C188.769 239.293 188.566 239.331 188.365 239.306C188.161 239.32 187.958 239.272 187.783 239.168C187.976 239.15 188.171 239.15 188.365 239.168C188.559 239.161 188.754 239.17 188.947 239.197Z" fill="#263238"/>
<path d="M187.02 240.159C186.804 240.172 186.588 240.148 186.38 240.09C186.154 240.041 185.934 239.97 185.722 239.877C185.59 239.828 185.465 239.762 185.35 239.681C185.278 239.629 185.229 239.553 185.21 239.468C185.205 239.42 185.214 239.372 185.236 239.329C185.257 239.287 185.291 239.251 185.332 239.226C185.587 239.131 185.868 239.127 186.125 239.215C186.383 239.304 186.6 239.479 186.741 239.71C186.829 239.841 186.885 239.991 186.904 240.148C186.919 240.204 186.919 240.264 186.904 240.321C186.861 240.116 186.782 239.921 186.671 239.744C186.543 239.564 186.365 239.424 186.159 239.341C186.038 239.291 185.908 239.265 185.778 239.265C185.647 239.265 185.517 239.291 185.396 239.341C185.292 239.404 185.321 239.525 185.425 239.6C185.53 239.676 185.644 239.74 185.763 239.791C185.97 239.883 186.184 239.96 186.403 240.021C186.753 240.113 187.02 240.142 187.02 240.159Z" fill="#263238"/>
<path d="M186.852 240.177C186.786 240.035 186.776 239.875 186.822 239.727C186.858 239.566 186.931 239.416 187.038 239.289C187.102 239.197 187.189 239.123 187.292 239.075C187.394 239.028 187.507 239.008 187.62 239.018C187.682 239.04 187.735 239.083 187.766 239.141C187.797 239.199 187.805 239.266 187.789 239.33C187.761 239.428 187.714 239.52 187.649 239.6C187.551 239.731 187.438 239.849 187.311 239.952C187.201 240.054 187.067 240.129 186.921 240.171C186.921 240.171 187.061 240.067 187.253 239.888C187.367 239.781 187.47 239.664 187.562 239.537C187.661 239.41 187.742 239.18 187.562 239.134C187.381 239.088 187.23 239.243 187.119 239.358C187.017 239.471 186.941 239.605 186.898 239.75C186.866 239.89 186.85 240.033 186.852 240.177Z" fill="#263238"/>
<path d="M197.625 240.557C197.625 240.557 197.34 240.499 196.892 240.511C196.302 240.513 195.725 240.683 195.229 240.999C194.733 241.316 194.339 241.766 194.092 242.297C193.9 242.7 193.854 242.983 193.836 242.977C193.819 242.971 193.836 242.908 193.836 242.781C193.871 242.602 193.925 242.428 193.999 242.262C194.234 241.704 194.635 241.229 195.149 240.901C195.662 240.573 196.264 240.407 196.875 240.424C197.057 240.426 197.239 240.449 197.416 240.493C197.489 240.501 197.56 240.523 197.625 240.557Z" fill="#263238"/>
<path d="M197.009 236.397C197.012 237.071 196.973 237.744 196.892 238.413C196.854 239.088 196.774 239.759 196.653 240.424C196.657 239.75 196.696 239.077 196.77 238.408C196.809 237.733 196.888 237.062 197.009 236.397Z" fill="#263238"/>
<path d="M192.666 241.974C192.181 242.035 191.69 242.035 191.205 241.974C190.719 241.95 190.238 241.865 189.773 241.721C189.773 241.686 190.42 241.79 191.217 241.859C192.014 241.928 192.666 241.94 192.666 241.974Z" fill="#263238"/>
<path d="M194.605 242.159C194.605 242.187 194.541 242.291 194.459 242.429C194.378 242.568 194.325 242.7 194.296 242.694C194.267 242.689 194.255 242.533 194.354 242.372C194.453 242.21 194.587 242.136 194.605 242.159Z" fill="#263238"/>
<path d="M195.425 241.335C195.425 241.335 195.373 241.456 195.262 241.548C195.152 241.64 195.041 241.692 195.018 241.669C194.995 241.646 195.07 241.548 195.181 241.456C195.291 241.363 195.402 241.306 195.425 241.335Z" fill="#263238"/>
<path d="M196.514 241.023C196.514 241.058 196.374 241.023 196.223 241.081C196.071 241.139 195.961 241.185 195.932 241.156C195.903 241.127 196.007 241.006 196.194 240.966C196.38 240.926 196.525 240.995 196.514 241.023Z" fill="#263238"/>
<path d="M197.276 240.903C197.276 240.937 197.224 240.983 197.137 241.006C197.049 241.029 196.979 241.006 196.968 241.006C196.956 241.006 197.02 240.931 197.108 240.908C197.195 240.885 197.27 240.874 197.276 240.903Z" fill="#263238"/>
<path d="M201.974 174.78L197.719 239.168L187.824 238.085C187.824 238.085 189.599 175.282 190.065 175.282C190.53 175.282 201.974 174.78 201.974 174.78Z" fill="#FFBE9D"/>
<path d="M223.44 172.931L234.546 236.766L225.769 238.085L210.396 175.967L223.44 172.931Z" fill="#FFBE9D"/>
<path d="M209.086 63.3421L209.36 87.311C209.376 88.5651 208.9 89.7763 208.031 90.6891C207.162 91.6018 205.969 92.1446 204.703 92.2028C204.062 92.233 203.42 92.1377 202.816 91.9224C202.211 91.707 201.655 91.3758 201.18 90.9477C200.705 90.5197 200.32 90.0031 200.046 89.4275C199.773 88.8519 199.617 88.2287 199.587 87.5934L199.284 81.4801C199.284 81.4801 194.89 82.1888 194.011 79.0602C193.429 77.0551 194.011 62.7313 194.011 62.7313L209.086 63.3421Z" fill="#FFBE9D"/>
<path d="M219.145 136.136L229.663 187.825L211.549 189.548L206.566 153.468L204.616 190.216L186.7 188.689L189.704 133.716L219.145 136.136Z" fill="#263238"/>
<path d="M234.744 235.256L235.378 242.994L225.262 242.694L225.512 235.671L234.744 235.256Z" fill="#455A64"/>
<path d="M230.099 235.124C230.011 236.133 230.024 237.148 230.14 238.154C230.151 239.168 230.266 240.177 230.483 241.168C230.572 240.159 230.561 239.144 230.448 238.137C230.437 237.123 230.32 236.113 230.099 235.124Z" fill="#263238"/>
<path d="M225.262 241.467C225.761 241.496 226.262 241.483 226.758 241.427L230.361 241.208C231.77 241.116 233.044 241.006 233.964 240.897C234.465 240.868 234.961 240.783 235.443 240.643C234.944 240.607 234.443 240.62 233.947 240.684L230.344 240.902C228.935 240.995 227.66 241.104 226.741 241.214C226.24 241.243 225.744 241.328 225.262 241.467Z" fill="#263238"/>
<path d="M218.557 116.869V129.62L219.965 140.21L189.25 137.421L190.565 116.247C190.769 111.292 190.862 106.129 190.984 101.56C188.895 100.776 169.448 93.4934 168.126 93.3033C166.805 93.1131 153.994 69.8125 153.994 69.8125C153.592 67.0181 161.246 65.2031 161.246 65.2031C161.246 65.2031 173.132 82.9494 174.139 83.9462C175.146 84.9429 193.737 88.1695 193.737 88.1695C198.549 87.2039 203.439 86.6659 208.347 86.562C211.322 86.5168 214.203 87.592 216.408 89.5698C218.612 91.5476 219.975 94.2805 220.221 97.2155C220.617 101.635 220.367 107.967 218.557 116.869Z" fill="#D64D54"/>
<path d="M192.253 59.5277C191.089 59.6487 190.379 61.0719 190.652 62.2185C190.926 63.3651 191.851 64.2409 192.812 64.9323C192.73 65.435 192.781 65.9501 192.96 66.4276C193.139 66.905 193.439 67.3285 193.833 67.6568C194.226 67.9851 194.698 68.2071 195.204 68.3011C195.709 68.3952 196.231 68.3581 196.718 68.1935C196.624 68.2836 196.551 68.3918 196.503 68.5114C196.454 68.6309 196.431 68.7591 196.435 68.8879C196.438 69.0168 196.469 69.1434 196.525 69.2599C196.581 69.3764 196.66 69.4802 196.758 69.5647C196.966 69.7263 197.207 69.8405 197.465 69.8993C197.723 69.958 197.99 69.9599 198.248 69.9047C198.772 69.8298 199.273 69.6397 199.791 69.5475C200.377 69.4279 200.985 69.4899 201.534 69.725C202.083 69.96 202.545 70.3567 202.858 70.8611C203.405 71.9098 202.788 73.4655 201.607 73.6153C201.341 73.621 201.076 73.6499 200.815 73.7017C200.661 73.7754 200.524 73.881 200.414 74.0115C200.304 74.1421 200.224 74.2944 200.179 74.4583C200.133 74.6221 200.124 74.7937 200.152 74.9614C200.179 75.1291 200.243 75.2889 200.338 75.4302C200.545 75.705 200.812 75.9293 201.12 76.0861C201.427 76.2429 201.767 76.328 202.113 76.3348C201.741 76.8211 201.574 77.4321 201.649 78.0379C201.725 78.6437 202.036 79.1966 202.516 79.5791C202.996 79.9617 203.609 80.1438 204.222 80.0867C204.836 80.0296 205.404 79.7378 205.804 79.2733C205.933 79.679 206.148 80.0528 206.434 80.3703C206.72 80.6877 207.071 80.9414 207.463 81.1148C207.855 81.2881 208.28 81.3771 208.71 81.3758C209.14 81.3746 209.564 81.2831 209.956 81.1074C210.347 80.9318 210.696 80.676 210.981 80.3569C211.265 80.0378 211.477 79.6626 211.604 79.2563C211.731 78.8499 211.769 78.4215 211.717 77.9993C211.664 77.5772 211.521 77.1709 211.298 76.8073C211.878 76.5524 212.384 76.1559 212.767 75.6549C213.15 75.1539 213.398 74.5648 213.488 73.9429C213.578 73.321 213.507 72.6867 213.282 72.0993C213.057 71.5119 212.685 70.9907 212.201 70.5846C212.925 70.0266 213.568 69.3711 214.11 68.6371C214.378 68.2667 214.565 67.844 214.656 67.397C214.747 66.95 214.742 66.489 214.639 66.0443C214.521 65.6039 214.252 65.2176 213.879 64.9509C213.505 64.6842 213.05 64.5535 212.591 64.5808C212.828 64.2527 212.97 63.8665 213.001 63.4641C213.032 63.0617 212.951 62.6585 212.767 62.2985C212.583 61.9385 212.302 61.6354 211.956 61.4222C211.61 61.209 211.211 61.0938 210.804 61.0892C210.734 60.3133 210.409 59.5815 209.878 59.0063C209.347 58.4312 208.64 58.0445 207.866 57.9057C207.092 57.7669 206.293 57.8838 205.592 58.2382C204.891 58.5927 204.328 59.1652 203.988 59.8677C203.9 58.8018 202.678 58.0815 201.619 58.2544C201.093 58.3797 200.604 58.6253 200.192 58.9716C199.779 59.3178 199.454 59.755 199.244 60.248C199.303 59.9358 199.299 59.6149 199.229 59.3046C199.16 58.9943 199.028 58.7011 198.842 58.4427C198.655 58.1843 198.417 57.9661 198.143 57.8012C197.868 57.6363 197.563 57.5282 197.245 57.4834C196.928 57.4385 196.604 57.4579 196.294 57.5404C195.984 57.6229 195.694 57.7667 195.442 57.9631C195.19 58.1596 194.98 58.4046 194.826 58.6835C194.672 58.9623 194.577 59.2691 194.546 59.5854C194.605 59.4424 194.625 59.2872 194.606 59.1343C194.587 58.9814 194.529 58.8358 194.438 58.711C194.346 58.5863 194.224 58.4866 194.083 58.4212C193.943 58.3559 193.787 58.3269 193.632 58.3372C193.477 58.3475 193.326 58.3966 193.195 58.48C193.065 58.5634 192.957 58.6783 192.883 58.814C192.81 58.9496 192.772 59.1016 192.774 59.2557C192.775 59.4097 192.817 59.5608 192.893 59.6948" fill="#263238"/>
<path d="M200.233 72.5494C200.233 72.5033 200.402 72.5494 200.612 72.4341C200.749 72.3924 200.87 72.3108 200.96 72.1999C201.049 72.0891 201.103 71.9541 201.115 71.8125C201.126 71.6709 201.094 71.5292 201.023 71.4058C200.952 71.2824 200.845 71.183 200.716 71.1205C200.524 70.9995 200.367 70.9995 200.361 70.9534C200.355 70.9073 200.53 70.8324 200.809 70.9534C201.005 71.0116 201.175 71.1344 201.291 71.3013C201.406 71.4682 201.461 71.6692 201.445 71.871C201.43 72.0727 201.345 72.2632 201.205 72.4107C201.065 72.5582 200.878 72.6539 200.676 72.6819C200.379 72.6934 200.216 72.5782 200.233 72.5494Z" fill="#EB996E"/>
<path d="M197.585 69.634L197.707 73.0911C197.7 73.2381 197.73 73.3845 197.794 73.5174C197.868 73.619 197.975 73.6919 198.097 73.7235C198.22 73.7551 198.349 73.7433 198.464 73.6903C198.579 73.6327 198.681 73.5515 198.762 73.4522C198.843 73.3529 198.902 73.2377 198.935 73.1141C199.003 72.8737 199.042 72.6261 199.052 72.3766C199.146 71.183 199.393 70.006 199.785 68.8734C199.374 68.7353 198.925 68.7538 198.527 68.9253C198.129 69.0968 197.81 69.4091 197.631 69.8011" fill="#263238"/>
<path d="M199.255 104.533C199.226 104.608 196.671 103.744 193.545 102.597C190.42 101.45 187.905 100.459 187.934 100.384C189.872 100.929 191.78 101.574 193.65 102.315C195.556 102.959 197.426 103.699 199.255 104.533Z" fill="#263238"/>
<path d="M200.227 90.2957C200.433 90.357 200.629 90.4462 200.809 90.5607C201.341 90.8544 201.834 91.2125 202.276 91.6266C202.936 92.2428 203.485 92.9656 203.9 93.7642C204.41 94.7474 204.696 95.829 204.738 96.9332C204.781 98.0344 204.594 99.1326 204.191 100.16C203.866 101.008 203.384 101.79 202.771 102.465C202.365 102.929 201.828 103.262 201.229 103.421C201.067 103.461 200.9 103.476 200.734 103.467C200.617 103.467 200.559 103.456 200.559 103.432C200.775 103.407 200.989 103.366 201.199 103.311C201.754 103.116 202.243 102.773 202.614 102.32C203.18 101.656 203.625 100.9 203.929 100.085C204.304 99.089 204.476 98.0297 204.436 96.9678C204.393 95.9065 204.126 94.866 203.65 93.914C203.258 93.1352 202.743 92.4233 202.125 91.8052C201.541 91.2446 200.906 90.7392 200.227 90.2957Z" fill="#263238"/>
<path d="M199.814 90.4915C199.475 90.4525 199.14 90.3851 198.813 90.2898L196.118 89.6387L187.236 87.4262L178.336 85.2482L175.641 84.5856C175.309 84.5159 174.982 84.4235 174.663 84.3091C175.003 84.3371 175.34 84.393 175.67 84.4762C176.31 84.5972 177.242 84.7931 178.388 85.0523C180.676 85.5479 183.836 86.2796 187.306 87.1381C190.775 87.9966 193.912 88.8205 196.17 89.4428L198.848 90.1918C199.177 90.2697 199.499 90.3698 199.814 90.4915Z" fill="#263238"/>
<path d="M195.879 137.023C195.858 136.917 195.848 136.809 195.85 136.701C195.85 136.459 195.85 136.159 195.85 135.79C195.85 134.995 195.85 133.849 195.85 132.431C195.879 129.597 195.972 125.679 196.165 121.357C196.357 117.036 196.607 113.124 196.822 110.3C196.933 108.883 197.026 107.742 197.107 106.953C197.142 106.584 197.177 106.284 197.201 106.048C197.203 105.942 197.213 105.836 197.23 105.731C197.246 105.836 197.246 105.943 197.23 106.048C197.23 106.29 197.23 106.596 197.189 106.964C197.142 107.794 197.078 108.929 197.003 110.312C196.84 113.141 196.624 117.053 196.421 121.375C196.217 125.696 196.101 129.602 196.013 132.437C195.972 133.82 195.938 134.955 195.908 135.79C195.908 136.159 195.879 136.459 195.868 136.701C195.886 136.807 195.89 136.916 195.879 137.023Z" fill="#263238"/>
<path d="M204.028 86.804C203.022 87.1529 202.049 87.5866 201.118 88.1004C200.24 88.7006 199.416 89.3753 198.656 90.117C199.24 89.1974 200.028 88.4213 200.96 87.8474C201.891 87.2735 202.943 86.9166 204.034 86.804H204.028Z" fill="#263238"/>
<path d="M210.216 86.7174C209.498 86.8113 208.775 86.8614 208.05 86.8672C206.717 86.9364 204.878 87.0516 202.853 87.259C200.827 87.4665 198.999 87.7257 197.678 87.9274C196.968 88.0677 196.251 88.1677 195.53 88.227C195.715 88.1429 195.911 88.0847 196.112 88.0542C196.479 87.962 197.009 87.8467 197.666 87.72C198.976 87.4607 200.809 87.1726 202.841 86.9594C204.872 86.7462 206.729 86.6656 208.079 86.6541C208.749 86.6541 209.29 86.6541 209.669 86.6541C209.853 86.6563 210.036 86.6775 210.216 86.7174Z" fill="#263238"/>
<path d="M216.141 150.5C216.141 150.581 212.759 151.307 208.574 152.131C204.389 152.955 200.943 153.548 200.926 153.468C200.908 153.387 204.308 152.655 208.493 151.837C212.678 151.019 216.124 150.414 216.141 150.5Z" fill="#455A64"/>
<path d="M188.499 188.701C188.417 188.701 189.442 177.344 190.792 163.349C192.142 149.354 193.301 138.032 193.382 138.038C193.464 138.043 192.445 149.388 191.095 163.389C189.744 177.39 188.58 188.701 188.499 188.701Z" fill="#455A64"/>
<path d="M190.21 188.914C190.123 188.914 191.048 177.425 192.265 163.268C193.481 149.112 194.546 137.64 194.628 137.646C194.709 137.652 193.79 149.135 192.567 163.292C191.345 177.448 190.291 188.92 190.21 188.914Z" fill="#455A64"/>
<path d="M153.703 65.9406C152.296 64.3568 150.976 62.6988 149.75 60.9739C148.33 58.7614 148.528 58.6289 148.813 58.5021C149.582 58.1622 151.462 62.2934 151.572 61.1641C151.683 60.0348 148.662 56.3818 149.5 56.0591C150.565 55.6385 152.451 60.006 152.638 60.3632C152.824 60.7204 153.348 60.4496 153.161 60.1385C152.894 59.6891 150.205 54.8895 151.241 54.4631C151.823 54.2269 152.125 55.3101 152.125 55.3101C152.125 55.3101 154.314 59.9887 154.797 59.7755C155.28 59.5623 154.099 56.7621 153.633 55.846C153.167 54.9298 153.412 54.3479 153.982 54.4689C154.366 54.5496 155.868 57.3094 156.31 58.2198C156.753 59.1302 157.923 61.6769 158.353 59.9483C158.784 58.2198 159.768 57.0329 160.245 56.8946C160.722 56.7563 161.083 57.3844 160.74 57.8223C160.414 58.3322 160.158 58.8824 159.977 59.4586C159.82 59.9189 159.739 60.4015 159.739 60.8875C159.739 61.3024 159.739 61.6769 159.774 62.0399L159.943 65.5891L155.839 68.3721L153.703 65.9406Z" fill="#FFBE9D"/>
<path d="M131.762 62.5269L124.706 52.1361C124.107 51.254 122.899 51.0196 122.008 51.6126L111.511 58.5975C110.62 59.1905 110.383 60.3862 110.982 61.2683L118.038 71.6591C118.637 72.5411 119.845 72.7755 120.736 72.1826L131.233 65.1976C132.124 64.6046 132.361 63.4089 131.762 62.5269Z" fill="#D64D54"/>
<path d="M74.13 29.3356L69.4268 26.6478C68.497 26.1163 67.308 26.4317 66.7712 27.3522L64.0558 32.0077C63.519 32.9281 63.8375 34.1051 64.7674 34.6365L69.4705 37.3244C70.4004 37.8558 71.5894 37.5404 72.1262 36.62L74.8416 31.9644C75.3784 31.044 75.0598 29.867 74.13 29.3356Z" fill="#D64D54"/>
<path d="M105.641 45.8493C104.92 43.9248 103.546 40.3871 103.238 40.2373C102.813 40.0357 99.0059 41.3436 99.0059 41.3436C99.0059 41.3436 99.035 42.1502 98.2317 39.2117C97.4285 36.2732 95.6706 36.9992 95.6706 36.9992L96.4448 39.1829L95.1002 43.4005L93.9361 43.7981L96.3749 50.6776L98.3772 49.9862C98.3772 49.9862 103.476 49.0355 104.425 48.7071C104.562 48.6558 104.692 48.5901 104.815 48.5112C105.237 48.2255 105.548 47.8067 105.698 47.3232C105.848 46.8397 105.828 46.3201 105.641 45.8493Z" fill="#263238"/>
<path d="M90.4145 44.3512L93.7847 51.6053L95.7696 50.9139L93.1619 43.5676L90.4145 44.3512Z" fill="#263238"/>
<path d="M42.2077 40.6233L40.5372 38.2437L40.7875 37.4889L36.2066 35.9851L35.7701 37.293C35.7701 37.293 34.2276 40.2949 34.0239 40.9114C33.9946 41.003 33.977 41.0978 33.9715 41.1937C33.952 41.5245 34.0468 41.8519 34.2404 42.1221C34.4341 42.3923 34.7149 42.5892 35.0367 42.6803C36.3347 43.0778 38.7386 43.7923 38.9423 43.6886C39.146 43.5849 40.0599 41.0728 40.0599 41.0728C40.0599 41.0728 39.6233 40.7674 41.486 41.5279C43.3486 42.2885 43.6687 41.1016 43.6687 41.1016L42.2077 40.6233Z" fill="#455A64"/>
<path d="M41.9167 35.4436L36.7596 34.2682L36.3289 35.5646L41.224 37.1721L41.9167 35.4436Z" fill="#455A64"/>
<path d="M96.5961 2.62443C96.4034 2.46479 96.185 2.33821 95.95 2.24992C95.6083 2.14133 95.24 2.14741 94.9022 2.26722C94.5643 2.38703 94.2759 2.61386 94.0816 2.91252C93.8653 3.3838 93.7466 3.89316 93.7323 4.41058C93.6509 4.98676 93.5636 5.59751 93.4704 6.26587C93.3773 6.93424 93.2725 7.64293 93.1619 8.39196C93.0952 8.80717 92.8779 9.18407 92.5508 9.45213C92.3799 9.57933 92.1943 9.68572 91.9978 9.76903L91.4157 10.0514L89.0118 11.2037L87.7429 11.8375C87.5399 11.943 87.3643 12.0937 87.23 12.2776C87.0957 12.4615 87.0063 12.6738 86.9687 12.8977C86.9283 13.128 86.9425 13.3645 87.0102 13.5884C87.0779 13.8124 87.1972 14.0178 87.3587 14.1883C87.526 14.3571 87.7233 14.4938 87.9408 14.5916L88.6509 14.9373L91.6602 16.4239C91.9163 16.5564 92.1608 16.6486 92.4343 16.8157C92.6836 16.9945 92.8837 17.2322 93.0164 17.5071C93.1393 17.7864 93.2122 18.0847 93.2318 18.3886C93.2725 18.671 93.3133 18.9648 93.3598 19.2471L93.8779 22.7906C93.9078 23.0709 94.0179 23.3368 94.1953 23.5573C94.3726 23.7777 94.6098 23.9435 94.879 24.0352C95.1508 24.131 95.4449 24.1461 95.7252 24.0785C96.0055 24.011 96.2596 23.8637 96.4564 23.6549L99.1514 20.9238L99.8324 20.2382C100.072 19.9809 100.381 19.797 100.723 19.7081C101.058 19.6337 101.406 19.6337 101.742 19.7081L102.679 19.8694L106.369 20.5032C106.645 20.5423 106.926 20.5035 107.18 20.3914C107.435 20.2793 107.652 20.0983 107.807 19.8694C107.962 19.6465 108.052 19.386 108.069 19.1159C108.085 18.8458 108.027 18.5764 107.9 18.3368L106.317 15.2715C106.061 14.7645 105.787 14.3093 105.548 13.7792C105.45 13.5022 105.422 13.2053 105.467 12.915C105.522 12.6376 105.626 12.3722 105.775 12.1314C106.282 11.1979 106.765 10.2876 107.236 9.4118C107.708 8.53601 108.4 7.68327 108.051 6.84781C107.979 6.65023 107.867 6.46923 107.722 6.31574C107.577 6.16224 107.402 6.03944 107.207 5.95474C107.022 5.88038 106.825 5.8394 106.625 5.83374C106.416 5.85002 106.208 5.87694 106.002 5.9144L101.451 6.65767C101.107 6.69958 100.758 6.63942 100.449 6.48482C100.182 6.33589 99.9433 6.14076 99.7451 5.90864L98.645 4.75629L97.1142 3.1718L96.73 2.75695C96.6824 2.71133 96.6395 2.66115 96.6019 2.60715C96.6565 2.64434 96.7072 2.6868 96.7533 2.73391C96.8522 2.83762 96.9919 2.97014 97.1607 3.13147L98.7148 4.67562L99.8324 5.79341C100.018 6.02672 100.247 6.22237 100.508 6.36958C100.785 6.51155 101.101 6.56394 101.41 6.51939L105.95 5.73579C106.167 5.69097 106.387 5.66209 106.608 5.64936C106.845 5.64845 107.079 5.69145 107.3 5.77612C107.535 5.86703 107.747 6.00705 107.921 6.18658C108.096 6.36611 108.229 6.58091 108.312 6.81624C108.395 7.05158 108.426 7.30188 108.402 7.54999C108.378 7.7981 108.3 8.03815 108.173 8.25368L107.487 9.55008L106.043 12.2754C105.898 12.4822 105.804 12.7194 105.768 12.9683C105.731 13.2173 105.754 13.4712 105.834 13.7101C106.049 14.171 106.34 14.6723 106.59 15.162L108.173 18.2043C108.326 18.4903 108.396 18.812 108.378 19.1348C108.359 19.4576 108.253 19.7693 108.069 20.0365C107.883 20.3162 107.619 20.5364 107.309 20.6704C106.999 20.8044 106.656 20.8464 106.322 20.7913L102.621 20.1633L101.683 20.0077C101.391 19.9333 101.085 19.9333 100.793 20.0077C100.504 20.0786 100.242 20.233 100.042 20.4513L99.3609 21.1428L96.666 23.8738C96.4278 24.121 96.1226 24.2949 95.787 24.3746C95.4515 24.4544 95.0998 24.4365 94.7742 24.3233C94.4606 24.2024 94.1868 23.998 93.9834 23.7325C93.7799 23.4671 93.6548 23.151 93.6218 22.8194C93.453 21.6152 93.2783 20.4341 93.1095 19.2759C93.0707 18.9802 93.03 18.6921 92.9873 18.4117C92.9722 18.138 92.9091 17.8689 92.801 17.6166C92.6858 17.3841 92.5113 17.1855 92.2946 17.0404C92.0851 16.9021 91.7941 16.7869 91.5554 16.6601L88.5985 15.2024L87.8884 14.8509C87.6331 14.7429 87.4017 14.5863 87.2074 14.39C87.0173 14.1914 86.8776 13.951 86.7997 13.6886C86.7218 13.4262 86.7079 13.1492 86.7592 12.8804C86.8053 12.6214 86.9106 12.3762 87.0669 12.1635C87.2233 11.9508 87.4266 11.7763 87.6614 11.6531L88.9419 11.0251L91.3517 9.87274C91.7273 9.70902 92.0892 9.51637 92.4343 9.29656C92.7368 9.06858 92.944 8.73839 93.0164 8.36892C93.127 7.61989 93.2376 6.91119 93.3424 6.24283C93.4471 5.57446 93.5403 4.96371 93.6276 4.3933C93.6563 3.86042 93.7887 3.33805 94.0176 2.8549C94.2624 2.4911 94.6399 2.2351 95.0711 2.14044C95.3824 2.06823 95.7083 2.08827 96.0082 2.19806C96.1902 2.26471 96.358 2.36436 96.503 2.49191C96.5368 2.5341 96.5679 2.57836 96.5961 2.62443Z" fill="#263238"/>
<path d="M44.146 56.3529L45.7875 58.0238C45.8772 58.1139 45.9874 58.1814 46.109 58.2205C46.2306 58.2596 46.3598 58.2692 46.4859 58.2485L48.8142 57.8567C48.9619 57.8292 49.1144 57.8441 49.2538 57.8998C49.3931 57.9555 49.5134 58.0495 49.6004 58.1708C49.6874 58.2921 49.7374 58.4355 49.7446 58.5841C49.7517 58.7326 49.7157 58.8801 49.6407 59.0091L48.5406 61.0718C48.482 61.184 48.4513 61.3084 48.4513 61.4348C48.4513 61.5611 48.482 61.6856 48.5406 61.7978L49.6349 63.8605C49.7079 63.9901 49.7421 64.1376 49.7337 64.2858C49.7252 64.434 49.6745 64.5767 49.5873 64.6975C49.5001 64.8182 49.38 64.9119 49.2411 64.9678C49.1022 65.0236 48.9501 65.0392 48.8026 65.0128L46.4743 64.6153C46.3482 64.5936 46.2186 64.6027 46.0969 64.6419C45.9752 64.681 45.865 64.749 45.7758 64.84L44.146 66.4648C44.0425 66.5679 43.912 66.6405 43.7691 66.6744C43.6263 66.7083 43.4767 66.7022 43.3372 66.6567C43.1976 66.6113 43.0736 66.5283 42.979 66.4171C42.8844 66.3058 42.8229 66.1707 42.8015 66.0269L42.4639 63.7222C42.444 63.599 42.3945 63.4823 42.3195 63.3821C42.2446 63.2818 42.1463 63.2008 42.0331 63.146L39.926 62.1147C39.795 62.0494 39.6848 61.9494 39.6078 61.8258C39.5309 61.7022 39.4901 61.5598 39.4901 61.4146C39.4901 61.2694 39.5309 61.127 39.6078 61.0034C39.6848 60.8798 39.795 60.7798 39.926 60.7145L42.0389 59.6832C42.153 59.6296 42.252 59.549 42.3272 59.4485C42.4023 59.348 42.4513 59.2307 42.4697 59.107L42.8131 56.8023C42.8323 56.6586 42.8917 56.5232 42.9846 56.4111C43.0775 56.2991 43.2001 56.215 43.3387 56.1682C43.4773 56.1215 43.6263 56.1141 43.7689 56.1467C43.9116 56.1793 44.0422 56.2507 44.146 56.3529Z" fill="#263238"/>
<path d="M110.892 79.9762L111.253 82.2809C111.273 82.4054 111.324 82.523 111.401 82.6235C111.478 82.7239 111.579 82.8041 111.695 82.8571L113.814 83.8654C113.945 83.9297 114.055 84.0291 114.133 84.1523C114.21 84.2754 114.251 84.4176 114.251 84.5626C114.251 84.7076 114.21 84.8497 114.133 84.9729C114.055 85.0961 113.945 85.1955 113.814 85.2598L111.712 86.3199C111.601 86.3754 111.504 86.4567 111.431 86.5571C111.358 86.6574 111.311 86.7737 111.293 86.8961L110.979 89.2008C110.959 89.3445 110.898 89.4797 110.805 89.5914C110.711 89.7031 110.588 89.7869 110.449 89.8335C110.311 89.8801 110.161 89.8876 110.019 89.8552C109.876 89.8229 109.745 89.7519 109.64 89.6502L107.976 87.9966C107.885 87.9081 107.774 87.8425 107.653 87.8054C107.531 87.7683 107.402 87.7608 107.277 87.7834L104.949 88.204C104.8 88.2331 104.647 88.2195 104.506 88.1648C104.365 88.1101 104.243 88.0165 104.154 87.8953C104.065 87.774 104.013 87.6301 104.005 87.4806C103.996 87.3311 104.031 87.1823 104.105 87.0517L105.176 84.9774C105.236 84.8657 105.267 84.741 105.267 84.6144C105.267 84.4878 105.236 84.3632 105.176 84.2514L104.099 82.2521C104.025 82.1241 103.99 81.978 103.996 81.8307C104.003 81.6835 104.052 81.5412 104.138 81.4204C104.223 81.2996 104.341 81.2054 104.479 81.1486C104.616 81.0919 104.767 81.0749 104.914 81.0998L107.242 81.4685C107.368 81.488 107.496 81.4772 107.617 81.4371C107.738 81.397 107.847 81.3287 107.935 81.238L109.559 79.5498C109.662 79.4501 109.791 79.3802 109.931 79.3476C110.071 79.315 110.218 79.321 110.355 79.3649C110.492 79.4088 110.615 79.4889 110.709 79.5966C110.804 79.7044 110.867 79.8356 110.892 79.9762Z" fill="#455A64"/>
<path d="M63.6462 222.48L70.1562 216.84L63.6462 211.23H69.0162L75.5862 216.87L69.0162 222.48H63.6462ZM63.7362 224.34H75.2262V227.55H63.7362V224.34ZM80.5409 223.89C82.4609 222.29 83.9909 220.96 85.1309 219.9C86.2709 218.82 87.2209 217.7 87.9809 216.54C88.7409 215.38 89.1209 214.24 89.1209 213.12C89.1209 212.1 88.8809 211.3 88.4009 210.72C87.9209 210.14 87.1809 209.85 86.1809 209.85C85.1809 209.85 84.4109 210.19 83.8709 210.87C83.3309 211.53 83.0509 212.44 83.0309 213.6H78.9509C79.0309 211.2 79.7409 209.38 81.0809 208.14C82.4409 206.9 84.1609 206.28 86.2409 206.28C88.5209 206.28 90.2709 206.89 91.4909 208.11C92.7109 209.31 93.3209 210.9 93.3209 212.88C93.3209 214.44 92.9009 215.93 92.0609 217.35C91.2209 218.77 90.2609 220.01 89.1809 221.07C88.1009 222.11 86.6909 223.37 84.9509 224.85H93.8009V228.33H78.9809V225.21L80.5409 223.89ZM96.4474 217.41C96.4474 213.95 97.0674 211.24 98.3074 209.28C99.5674 207.32 101.647 206.34 104.547 206.34C107.447 206.34 109.517 207.32 110.757 209.28C112.017 211.24 112.647 213.95 112.647 217.41C112.647 220.89 112.017 223.62 110.757 225.6C109.517 227.58 107.447 228.57 104.547 228.57C101.647 228.57 99.5674 227.58 98.3074 225.6C97.0674 223.62 96.4474 220.89 96.4474 217.41ZM108.507 217.41C108.507 215.93 108.407 214.69 108.207 213.69C108.027 212.67 107.647 211.84 107.067 211.2C106.507 210.56 105.667 210.24 104.547 210.24C103.427 210.24 102.577 210.56 101.997 211.2C101.437 211.84 101.057 212.67 100.857 213.69C100.677 214.69 100.587 215.93 100.587 217.41C100.587 218.93 100.677 220.21 100.857 221.25C101.037 222.27 101.417 223.1 101.997 223.74C102.577 224.36 103.427 224.67 104.547 224.67C105.667 224.67 106.517 224.36 107.097 223.74C107.677 223.1 108.057 222.27 108.237 221.25C108.417 220.21 108.507 218.93 108.507 217.41ZM115.842 217.41C115.842 213.95 116.462 211.24 117.702 209.28C118.962 207.32 121.042 206.34 123.942 206.34C126.842 206.34 128.912 207.32 130.152 209.28C131.412 211.24 132.042 213.95 132.042 217.41C132.042 220.89 131.412 223.62 130.152 225.6C128.912 227.58 126.842 228.57 123.942 228.57C121.042 228.57 118.962 227.58 117.702 225.6C116.462 223.62 115.842 220.89 115.842 217.41ZM127.902 217.41C127.902 215.93 127.802 214.69 127.602 213.69C127.422 212.67 127.042 211.84 126.462 211.2C125.902 210.56 125.062 210.24 123.942 210.24C122.822 210.24 121.972 210.56 121.392 211.2C120.832 211.84 120.452 212.67 120.252 213.69C120.072 214.69 119.982 215.93 119.982 217.41C119.982 218.93 120.072 220.21 120.252 221.25C120.432 222.27 120.812 223.1 121.392 223.74C121.972 224.36 122.822 224.67 123.942 224.67C125.062 224.67 125.912 224.36 126.492 223.74C127.072 223.1 127.452 222.27 127.632 221.25C127.812 220.21 127.902 218.93 127.902 217.41Z" fill="#263238"/>
<path d="M94.3105 78.2675L68.7529 66.0786L60.8405 82.3352L86.3982 94.5241L94.3105 78.2675Z" fill="#D64D54"/>
<path d="M78.6292 91.1336C78.5556 91.0983 80.2676 87.422 82.4711 82.8893C84.6745 78.3566 86.5126 74.7409 86.5914 74.7788C86.6702 74.8167 84.953 78.4904 82.7443 83.0206C80.5356 87.5508 78.687 91.1614 78.6292 91.1336Z" fill="#263238"/>
<path d="M90.1753 87.5684C90.137 87.6465 84.2687 84.9036 77.07 81.4444C69.8714 77.9851 64.0643 75.1174 64.1025 75.0394C64.1408 74.9614 70.0013 77.7069 77.2052 81.1687C84.4091 84.6305 90.211 87.4956 90.1753 87.5684Z" fill="#FAFAFA"/>
<path d="M68.7972 86.1199C68.7237 86.0845 70.4462 82.4133 72.6399 77.9402C74.8336 73.4671 76.6822 69.8565 76.7558 69.8918C76.8293 69.9272 75.1068 73.5984 72.9131 78.0715C70.7194 82.5446 68.8708 86.1552 68.7972 86.1199Z" fill="#FAFAFA"/>
<path d="M82.4449 92.8322C82.3714 92.7969 84.0939 89.1257 86.3182 84.5901C88.5425 80.0546 90.3755 76.4493 90.4596 76.4897C90.5436 76.5301 88.8106 80.1963 86.5863 84.7318C84.362 89.2673 82.5237 92.8701 82.4449 92.8322Z" fill="#FAFAFA"/>
<path d="M71.9137 78.8251C71.7255 78.7706 71.5479 78.6853 71.3882 78.5726C70.9456 78.3016 70.5368 77.98 70.17 77.6144C69.6168 77.0739 69.1536 76.45 68.7976 75.7659C68.5547 75.359 68.4191 74.8982 68.403 74.4258C68.4058 74.1547 68.5001 73.8924 68.671 73.6806C68.8547 73.4697 69.1038 73.325 69.3794 73.269C69.6403 73.2175 69.9099 73.2279 70.166 73.2996C70.422 73.3713 70.6573 73.502 70.8524 73.6812C71.21 73.9946 71.4998 74.3765 71.7042 74.8039C72.0542 75.4985 72.2637 76.2542 72.3209 77.0284C72.3578 77.5431 72.3226 78.0604 72.2163 78.5656C72.191 78.7604 72.1313 78.9492 72.04 79.1236C72.1216 78.4403 72.1335 77.7505 72.0757 77.0648C71.9899 76.327 71.7661 75.6115 71.416 74.9546C71.2216 74.5643 70.9511 74.216 70.6202 73.9295C70.4578 73.7837 70.2635 73.6771 70.0525 73.618C69.8415 73.559 69.6195 73.5492 69.404 73.5893C69.1959 73.626 69.0075 73.734 68.8718 73.8945C68.7361 74.0549 68.6619 74.2575 68.6621 74.4668C68.6781 74.8888 68.7968 75.3008 69.008 75.6678C69.3419 76.3358 69.7725 76.9519 70.2862 77.4967C70.7975 77.9757 71.3412 78.4195 71.9137 78.8251Z" fill="#FAFAFA"/>
<path d="M71.9641 79.3314C72.0138 79.1659 72.0905 79.0095 72.1911 78.8685C72.4586 78.4826 72.7729 78.1308 73.1269 77.8207C73.9695 77.0743 74.9945 76.5588 76.1004 76.3252C76.3321 76.2721 76.5727 76.2693 76.8056 76.317C76.9372 76.3459 77.0605 76.404 77.166 76.487C77.2715 76.57 77.3566 76.6757 77.4147 76.7961C77.4617 76.9196 77.4805 77.0519 77.4699 77.1834C77.4592 77.3149 77.4194 77.4426 77.3532 77.5571C77.244 77.76 77.1014 77.9434 76.9312 78.0998C76.6302 78.3974 76.2874 78.6505 75.9134 78.8512C75.3141 79.1999 74.6456 79.4159 73.9538 79.4842C73.4806 79.5226 73.0043 79.4827 72.5444 79.366C72.3711 79.3372 72.2058 79.2731 72.0589 79.1777C72.6841 79.2945 73.3223 79.3289 73.9566 79.2798C74.6268 79.2004 75.2729 78.9833 75.8535 78.6424C76.1942 78.4406 76.5066 78.1953 76.7827 77.9128C77.059 77.6407 77.3364 77.247 77.1995 76.9305C77.1576 76.8534 77.0995 76.7862 77.029 76.7335C76.9584 76.6808 76.8773 76.6437 76.791 76.6249C76.601 76.5883 76.4054 76.5906 76.2163 76.6316C75.8255 76.7113 75.443 76.8266 75.0736 76.9758C74.4439 77.2297 73.8562 77.5755 73.3302 78.0019C72.8469 78.416 72.3906 78.8601 71.9641 79.3314Z" fill="#FAFAFA"/>
<path d="M79.6389 46.4771L61.6041 43.2362L59.5003 54.7077L77.5351 57.9485L79.6389 46.4771Z" fill="#455A64"/>
<path d="M72.1076 57.1593C72.0556 57.1498 72.4832 54.5688 73.0681 51.3708C73.653 48.1727 74.1697 45.608 74.2253 45.6182C74.281 45.6284 73.8497 48.2087 73.2611 51.406C72.6725 54.6034 72.1484 57.1668 72.1076 57.1593Z" fill="#263238"/>
<path d="M78.6791 52.9735C78.6689 53.0286 74.5376 52.3192 69.4533 51.3902C64.3691 50.4611 60.2542 49.6636 60.2645 49.6085C60.2748 49.5534 64.4017 50.2657 69.4896 51.1955C74.5776 52.1252 78.6887 52.9221 78.6791 52.9735Z" fill="#FAFAFA"/>
<path d="M65.1132 55.7101C65.0613 55.7006 65.4963 53.121 66.0855 49.9617C66.6747 46.8025 67.1988 44.2391 67.2507 44.2486C67.3027 44.2581 66.8676 46.8377 66.2785 49.997C65.6893 53.1563 65.1652 55.7196 65.1132 55.7101Z" fill="#FAFAFA"/>
<path d="M74.7791 57.5678C74.7271 57.5583 75.1622 54.9787 75.7596 51.7753C76.357 48.572 76.8723 46.0146 76.9317 46.0254C76.991 46.0363 76.5486 48.6146 75.9512 51.8179C75.3538 55.0213 74.8348 57.578 74.7791 57.5678Z" fill="#FAFAFA"/>
<path d="M65.7869 50.6366C65.6602 50.6347 65.5348 50.6118 65.4158 50.5688C65.093 50.4754 64.7825 50.3447 64.4906 50.1794C64.0522 49.9369 63.6553 49.6272 63.3147 49.2618C63.0928 49.0497 62.9282 48.7858 62.8362 48.4944C62.7908 48.325 62.804 48.1456 62.8737 47.9846C62.9514 47.822 63.0814 47.6894 63.2433 47.6077C63.3969 47.5312 63.5666 47.4918 63.7385 47.4928C63.9104 47.4939 64.0797 47.5353 64.2323 47.6137C64.5095 47.748 64.7563 47.9365 64.9578 48.1679C65.2965 48.5409 65.5583 48.9759 65.7283 49.4483C65.8407 49.7626 65.9087 50.0908 65.9302 50.4235C65.9483 50.5491 65.944 50.6769 65.9174 50.801C65.8495 50.3616 65.7371 49.93 65.582 49.5128C65.4004 49.0679 65.1367 48.6603 64.8045 48.3108C64.6157 48.1009 64.3867 47.9299 64.1308 47.8078C64.0044 47.7447 63.8648 47.7113 63.7232 47.7105C63.5815 47.7096 63.4415 47.7413 63.3143 47.803C63.1911 47.8612 63.0925 47.9606 63.0359 48.0836C62.9792 48.2066 62.9682 48.3455 63.0047 48.4758C63.088 48.7359 63.2334 48.9723 63.4288 49.1649C63.7527 49.5241 64.1279 49.8345 64.5425 50.0863C64.9441 50.2976 65.3599 50.4815 65.7869 50.6366Z" fill="#FAFAFA"/>
<path d="M65.9062 50.9433C65.9085 50.8318 65.9291 50.7214 65.9672 50.6164C66.0668 50.3306 66.2014 50.0579 66.368 49.8045C66.7631 49.1962 67.312 48.7007 67.9601 48.367C68.0952 48.2945 68.2446 48.2518 68.3979 48.2419C68.4849 48.2375 68.5717 48.2527 68.6519 48.2864C68.732 48.3202 68.8034 48.3715 68.8605 48.4366C68.9112 48.5055 68.9459 48.5847 68.9621 48.6684C68.9783 48.7521 68.9757 48.8384 68.9544 48.921C68.9216 49.0659 68.8647 49.2045 68.7858 49.3308C68.6501 49.5674 68.4805 49.7834 68.2825 49.972C67.9698 50.2912 67.591 50.5396 67.172 50.6998C66.884 50.8043 66.5804 50.8605 66.2737 50.8661C66.1608 50.8777 66.0467 50.8659 65.9386 50.8315C66.3483 50.7978 66.7517 50.7106 67.1383 50.5721C67.5419 50.4085 67.9065 50.1633 68.2089 49.8522C68.386 49.6685 68.538 49.4626 68.6608 49.2396C68.7856 49.0231 68.8901 48.7307 68.7498 48.5569C68.7103 48.516 68.6624 48.4841 68.6094 48.4632C68.5563 48.4424 68.4993 48.4331 68.4423 48.4361C68.3176 48.4457 68.1962 48.4804 68.0856 48.5381C67.856 48.6543 67.6378 48.7912 67.4337 48.947C67.0856 49.2123 66.7797 49.5277 66.5261 49.8828C66.2971 50.223 66.09 50.5772 65.9062 50.9433Z" fill="#FAFAFA"/>
<path d="M66.6376 0.381847L50.0554 8.11328L55.0743 18.6608L71.6564 10.9293L66.6376 0.381847Z" fill="#E0E0E0"/>
<path d="M66.7753 13.4075C66.7274 13.4297 65.561 11.0829 64.1605 8.14333C62.7601 5.20379 61.6757 2.81902 61.727 2.7953C61.7782 2.77157 62.9413 5.11996 64.3383 8.06108C65.7354 11.0022 66.8129 13.3901 66.7753 13.4075Z" fill="#263238"/>
<path d="M69.6684 6.22175C69.6924 6.27251 65.9133 8.07047 61.2295 10.2375C56.5457 12.4045 52.7282 14.1213 52.7042 14.0705C52.6802 14.0198 56.4576 12.2268 61.1448 10.0581C65.832 7.88952 69.6461 6.17437 69.6684 6.22175Z" fill="#FAFAFA"/>
<path d="M60.2316 16.2496C60.1837 16.2718 59.0241 13.9218 57.6499 11.0113C56.2756 8.10089 55.1981 5.71295 55.246 5.69081C55.2938 5.66866 56.4534 8.01863 57.8277 10.9291C59.2019 13.8395 60.2794 16.2275 60.2316 16.2496Z" fill="#FAFAFA"/>
<path d="M69.1897 12.204C69.1418 12.2261 67.9822 9.87612 66.5888 6.92507C65.1954 3.97402 64.1142 1.59601 64.1689 1.5707C64.2236 1.54539 65.3764 3.89853 66.7698 6.84959C68.1632 9.80064 69.2409 12.1802 69.1897 12.204Z" fill="#FAFAFA"/>
<path d="M57.8028 11.7323C57.6986 11.8036 57.583 11.8571 57.4609 11.8905C57.1434 12 56.8139 12.0722 56.4793 12.1055C55.9801 12.1602 55.4753 12.1363 54.9837 12.0346C54.6786 11.9896 54.3898 11.8694 54.1438 11.6851C54.0076 11.5733 53.913 11.4197 53.8752 11.2486C53.8431 11.0715 53.8711 10.8889 53.9549 10.7292C54.035 10.5786 54.1501 10.449 54.2907 10.351C54.4312 10.253 54.5933 10.1894 54.7635 10.1655C55.0679 10.1154 55.3795 10.1269 55.6793 10.1994C56.1739 10.3083 56.6422 10.5119 57.0579 10.7987C57.3338 10.9899 57.5816 11.218 57.7944 11.4764C57.8829 11.5683 57.9543 11.6748 58.0055 11.7911C57.6924 11.4724 57.3476 11.1857 56.9766 10.9353C56.5676 10.6776 56.1139 10.4974 55.6384 10.4039C55.3614 10.3416 55.0747 10.3341 54.7948 10.3819C54.6548 10.4032 54.5217 10.4563 54.4059 10.537C54.2901 10.6178 54.1947 10.724 54.1273 10.8474C54.0612 10.9657 54.0393 11.1032 54.0653 11.2359C54.0914 11.3686 54.1639 11.488 54.2701 11.5731C54.4905 11.7369 54.7476 11.8457 55.0196 11.8902C55.4941 11.9963 55.9817 12.0332 56.4669 11.9999C56.9179 11.9409 57.3642 11.8515 57.8028 11.7323Z" fill="#FAFAFA"/>
<path d="M58.0799 11.9132C58.0163 11.8212 57.9683 11.7194 57.9377 11.612C57.8511 11.3221 57.8006 11.0228 57.7876 10.7207C57.7523 9.99838 57.9082 9.27946 58.24 8.63517C58.3075 8.49847 58.404 8.37784 58.523 8.28158C58.5912 8.22796 58.6708 8.19041 58.7559 8.17179C58.8409 8.15317 58.9291 8.15396 59.0138 8.1741C59.0955 8.20104 59.1702 8.24551 59.2325 8.30435C59.2949 8.36318 59.3433 8.43491 59.3744 8.51442C59.4328 8.65124 59.4677 8.79676 59.4777 8.94496C59.5061 9.2156 59.4948 9.48885 59.4442 9.7563C59.3771 10.1959 59.2144 10.6159 58.9674 10.9872C58.7942 11.2379 58.5801 11.4582 58.3337 11.6391C58.2486 11.7135 58.1488 11.7695 58.0406 11.8036C58.3544 11.5406 58.6316 11.2377 58.8649 10.9026C59.0975 10.5374 59.2505 10.1282 59.314 9.70108C59.3504 9.44971 59.3533 9.19468 59.3225 8.94258C59.297 8.69457 59.2104 8.3965 58.9943 8.33569C58.9382 8.3251 58.8804 8.32663 58.825 8.34018C58.7696 8.35373 58.7177 8.37897 58.6731 8.41419C58.5772 8.49365 58.4987 8.5917 58.4425 8.70229C58.3239 8.92884 58.2266 9.16574 58.1518 9.40997C58.0242 9.82603 57.9602 10.2587 57.9622 10.6935C57.9754 11.1021 58.0147 11.5095 58.0799 11.9132Z" fill="#FAFAFA"/>
</svg>
