<svg width="1080" height="1061" viewBox="0 0 1080 1061" fill="none" xmlns="http://www.w3.org/2000/svg">
<path d="M1080 713.284H665.681V473.525H1080V713.284ZM668.209 710.756H1077.47V476.053H668.209V710.756Z" fill="#E0E0E0"/>
<path d="M994.527 601.368H721.171V609.382H994.527V601.368Z" fill="#F0F0F0"/>
<path d="M1013.36 631.249H721.171V639.996H1013.36V631.249Z" fill="#F0F0F0"/>
<path d="M1013.36 661.485H721.171V670.232H1013.36V661.485Z" fill="#F0F0F0"/>
<path d="M816.705 557.962H721.171V578.767H816.705V557.962Z" fill="#F0F0F0"/>
<path d="M1078.74 474.789H667.021V512.963H1078.74V474.789Z" fill="#E0E0E0"/>
<path d="M1047.06 507.249C1046.53 506.744 1051.84 500.348 1058.89 492.966C1065.94 485.584 1072.14 479.997 1072.64 480.477C1073.15 480.958 1067.87 487.379 1060.81 494.786C1053.76 502.193 1047.57 507.755 1047.06 507.249Z" fill="white"/>
<path d="M1072.69 507.25C1072.19 507.755 1066.02 502.194 1058.94 494.786C1051.86 487.379 1046.58 480.983 1047.11 480.478C1047.64 479.972 1053.78 485.534 1060.86 492.966C1067.94 500.399 1073.17 506.744 1072.69 507.25Z" fill="white"/>
<path d="M570.172 0H158.457V237.256H570.172V0Z" fill="#E6E6E6"/>
<path d="M485.988 126.604H212.633V134.618H485.988V126.604Z" fill="#F0F0F0"/>
<path d="M504.822 156.485H212.633V165.232H504.822V156.485Z" fill="#F0F0F0"/>
<path d="M504.822 186.72H212.633V195.467H504.822V186.72Z" fill="#F0F0F0"/>
<path d="M308.167 83.1973H212.633V104.003H308.167V83.1973Z" fill="#F0F0F0"/>
<path d="M570.172 0H158.457V38.1733H570.172V0Z" fill="#E0E0E0"/>
<path d="M537.105 32.283C536.575 31.8027 541.883 25.3815 548.937 17.9996C555.99 10.6178 562.184 5.03082 562.689 5.53642C563.195 6.04203 557.911 12.4379 550.858 19.8198C543.805 27.2016 537.611 32.738 537.105 32.283Z" fill="white"/>
<path d="M562.689 32.2831C562.183 32.7887 556.015 27.227 548.936 19.8199C541.858 12.4128 536.574 6.04216 537.105 5.53655C537.636 5.03095 543.779 10.5926 550.858 17.9997C557.936 25.4069 563.22 31.8028 562.689 32.2831Z" fill="white"/>
<path d="M414.243 440.737H0V200.953H414.243V440.737ZM2.52803 438.209H411.715V203.481H2.52803V438.209Z" fill="#E0E0E0"/>
<path d="M328.796 328.821H55.4397V336.835H328.796V328.821Z" fill="#F0F0F0"/>
<path d="M347.629 358.702H55.4397V367.449H347.629V358.702Z" fill="#F0F0F0"/>
<path d="M347.629 388.938H55.4397V397.685H347.629V388.938Z" fill="#F0F0F0"/>
<path d="M150.974 285.415H55.4397V306.22H150.974V285.415Z" fill="#F0F0F0"/>
<path d="M412.979 202.217H1.26392V240.391H412.979V202.217Z" fill="#E0E0E0"/>
<path d="M892.319 495.671H406.178V930.897H892.319V495.671Z" fill="#E6E6E6"/>
<path d="M430.625 358.576H49.802V754.238H430.625V358.576Z" fill="#F0F0F0"/>
<path d="M430.625 358.576H49.802V401.679H430.625V358.576Z" fill="#E0E0E0"/>
<path d="M81.2508 379.685C81.1815 381.248 80.6547 382.757 79.7358 384.023C78.817 385.289 77.5465 386.258 76.082 386.809C74.6176 387.359 73.0237 387.468 71.498 387.121C69.9724 386.774 68.5823 385.986 67.5002 384.856C66.4181 383.726 65.6917 382.303 65.4111 380.764C65.1304 379.225 65.308 377.637 65.9216 376.198C66.5353 374.759 67.558 373.532 68.863 372.668C70.1679 371.805 71.6977 371.344 73.2622 371.343C75.4258 371.396 77.4805 372.303 78.9773 373.866C80.4742 375.429 81.2915 377.521 81.2508 379.685V379.685Z" fill="white"/>
<path d="M113.686 379.685C113.621 381.255 113.096 382.772 112.176 384.047C111.256 385.321 109.982 386.297 108.512 386.852C107.041 387.408 105.44 387.519 103.907 387.172C102.374 386.824 100.977 386.034 99.8903 384.899C98.8032 383.763 98.074 382.334 97.7933 380.787C97.5127 379.241 97.693 377.646 98.3119 376.201C98.9307 374.756 99.9608 373.525 101.274 372.661C102.587 371.797 104.125 371.339 105.697 371.342C107.861 371.395 109.915 372.303 111.412 373.866C112.909 375.429 113.726 377.521 113.686 379.685V379.685Z" fill="white"/>
<path d="M146.12 379.685C146.056 381.255 145.531 382.772 144.611 384.047C143.691 385.321 142.417 386.297 140.946 386.852C139.476 387.408 137.875 387.519 136.342 387.172C134.809 386.824 133.412 386.034 132.325 384.899C131.238 383.763 130.509 382.334 130.228 380.787C129.948 379.241 130.128 377.646 130.747 376.201C131.366 374.756 132.396 373.525 133.709 372.661C135.022 371.797 136.56 371.339 138.132 371.342C140.295 371.395 142.35 372.303 143.847 373.866C145.344 375.429 146.161 377.521 146.12 379.685V379.685Z" fill="white"/>
<path d="M1025.62 86.5347H539.481V571.057H1025.62V86.5347Z" fill="#F0F0F0"/>
<path d="M1025.62 86.5347H539.481V143.289H1025.62V86.5347Z" fill="#E0E0E0"/>
<path d="M580.891 114.343C580.802 116.406 580.109 118.398 578.897 120.071C577.686 121.743 576.01 123.023 574.078 123.752C572.145 124.48 570.042 124.625 568.028 124.169C566.013 123.712 564.178 122.674 562.749 121.183C561.32 119.692 560.36 117.814 559.989 115.783C559.617 113.751 559.851 111.655 560.661 109.755C561.47 107.856 562.82 106.235 564.542 105.096C566.265 103.956 568.284 103.348 570.349 103.346C573.203 103.412 575.915 104.607 577.891 106.668C579.866 108.729 580.945 111.488 580.891 114.343V114.343Z" fill="white"/>
<path d="M620.505 106.91C621.907 108.432 622.829 110.333 623.158 112.376C623.487 114.418 623.207 116.513 622.354 118.398C621.501 120.282 620.113 121.875 618.361 122.976C616.609 124.077 614.573 124.639 612.504 124.59C610.436 124.542 608.427 123.886 606.729 122.705C605.031 121.523 603.718 119.868 602.954 117.945C602.189 116.022 602.008 113.917 602.432 111.892C602.856 109.867 603.866 108.011 605.337 106.556C607.397 104.596 610.151 103.532 612.994 103.598C615.837 103.665 618.538 104.856 620.505 106.91V106.91Z" fill="white"/>
<path d="M666.288 114.343C666.199 116.406 665.505 118.398 664.294 120.071C663.083 121.743 661.407 123.023 659.475 123.752C657.542 124.48 655.439 124.625 653.424 124.169C651.41 123.712 649.575 122.674 648.146 121.183C646.717 119.692 645.757 117.814 645.386 115.783C645.014 113.751 645.248 111.655 646.058 109.755C646.867 107.856 648.217 106.235 649.939 105.096C651.662 103.956 653.681 103.348 655.746 103.346C658.6 103.412 661.312 104.607 663.288 106.668C665.263 108.729 666.342 111.488 666.288 114.343V114.343Z" fill="white"/>
<path d="M920.608 1059.45C920.608 1059.8 745.061 1060.1 528.586 1060.1C312.111 1060.1 136.489 1059.8 136.489 1059.45C136.489 1059.09 312.01 1058.79 528.586 1058.79C745.163 1058.79 920.608 1059.12 920.608 1059.45Z" fill="#263238"/>
<path d="M749.561 749.965C710.503 722.688 701.655 672.052 703.197 626.522C703.45 618.938 702.616 610.899 706.231 604.25C709.846 597.601 718.29 593.025 725.09 596.211C730.728 598.865 733.18 605.438 736.34 610.873C740.556 618.113 746.735 624.011 754.162 627.887C758.991 630.415 764.982 631.932 769.76 629.303C776.333 625.688 777.092 616.662 777.041 609.078C777.041 594.972 776.957 580.882 776.788 566.81C776.334 559.253 777.102 551.673 779.063 544.361C781.415 537.181 786.648 530.532 793.802 528.51C800.956 526.488 809.88 530.659 811.498 538.041C811.777 541.167 811.853 544.309 811.726 547.445C811.928 550.605 813.394 554.068 816.352 555.029C819.31 555.99 822.394 553.79 824.669 551.566C832.456 543.982 837.764 534.097 842.694 524.339C847.624 514.581 852.452 504.544 859.531 496.227C866.609 487.91 876.393 481.312 887.339 480.68C898.285 480.048 909.687 486.772 912.417 497.39C915.147 508.008 908.954 518.853 902.305 527.474C892.272 540.27 880.445 551.551 867.191 560.97C864.603 562.383 862.538 564.589 861.3 567.265C859.657 572.321 864.435 577.377 869.415 578.97C875.053 580.84 881.171 580.259 887.111 580.967C893.052 581.674 899.372 584.253 901.622 589.815C904.707 597.55 898.235 605.64 891.89 610.949C879.148 621.567 864.68 629.921 849.115 635.648C843.554 637.67 837.714 639.465 833.214 643.358C828.714 647.252 826.034 654.052 828.739 659.386C831.444 664.72 838.396 666.414 844.236 665.327C850.076 664.24 855.258 661.105 860.82 659.007C871.21 655.089 884.609 655.796 891.156 664.771C893.185 667.862 894.469 671.382 894.907 675.054C895.346 678.725 894.927 682.448 893.684 685.93C891.154 692.861 887.26 699.213 882.232 704.613C865.675 724.395 844.161 739.427 819.891 748.171C795.799 756.513 773.477 758.788 749.536 750.016" fill="#ED7801"/>
<path d="M901.294 486.924C901.294 486.924 901.066 487.177 900.561 487.632L898.311 489.629C896.339 491.399 893.432 493.977 889.766 497.39C879.373 507.04 869.722 517.46 860.896 528.561C855.258 535.563 849.418 543.501 843.2 552.122C836.981 560.743 830.559 570.046 824.189 579.93C817.397 590.354 811.177 601.139 805.557 612.239C802.625 618.028 800.046 624.07 797.392 630.238L789.555 649.072C779.225 672.795 770.228 697.077 762.606 721.803C756.467 742.035 752.235 762.796 749.966 783.816C748.495 798.002 748.259 812.288 749.258 826.514C749.662 831.57 750.042 835.438 750.396 838.068C750.547 839.332 750.648 840.343 750.749 841.076V842.112C750.641 841.784 750.564 841.445 750.522 841.101C750.396 840.368 750.244 839.382 750.042 838.118C749.587 835.59 749.106 831.596 748.651 826.54C747.431 812.287 747.516 797.952 748.904 783.715C751.032 762.605 755.172 741.747 761.266 721.424C768.824 696.628 777.796 672.285 788.139 648.516L796.178 629.758C798.833 623.615 801.436 617.522 804.394 611.708C810.053 600.575 816.324 589.764 823.177 579.324C829.649 569.211 836.172 560.06 842.315 551.515C848.458 542.971 854.399 534.982 860.011 528.005C868.927 516.933 878.707 506.586 889.26 497.061C893.002 493.699 895.985 491.171 898.007 489.477L900.358 487.581C900.646 487.33 900.96 487.11 901.294 486.924V486.924Z" fill="#263238"/>
<path d="M804.723 611.657C804.366 610.615 804.12 609.539 803.989 608.446C803.585 606.348 803.13 603.39 802.599 599.547C801.512 591.963 800.4 581.573 799.212 570.071C798.023 558.568 796.683 548.153 795.571 540.644C794.99 536.903 794.484 533.894 794.13 531.796C793.854 530.722 793.71 529.619 793.7 528.51C794.136 529.523 794.45 530.583 794.636 531.67C795.192 533.743 795.824 536.726 796.532 540.493C797.973 548.077 799.388 558.391 800.577 569.919C801.765 581.447 802.776 591.559 803.56 599.421C803.939 602.96 804.268 605.969 804.52 608.37C804.717 609.454 804.785 610.557 804.723 611.657V611.657Z" fill="#263238"/>
<path d="M902.001 593.505C900.771 593.773 899.518 593.926 898.26 593.96C895.732 594.188 892.142 594.491 887.693 594.997C878.794 595.958 866.558 597.727 853.134 600.255C839.711 602.783 827.652 605.64 818.981 607.839C814.658 608.952 811.169 609.963 808.869 610.645C807.64 611.082 806.369 611.387 805.077 611.556C806.245 610.968 807.463 610.486 808.717 610.115C811.093 609.28 814.531 608.117 818.829 606.879C827.45 604.351 839.508 601.342 852.983 598.764C864.397 596.581 875.914 594.978 887.49 593.96C891.965 593.581 895.58 593.43 898.108 593.379C899.407 593.291 900.711 593.333 902.001 593.505Z" fill="#263238"/>
<path d="M762.505 719.654C762.235 719.288 762.014 718.889 761.847 718.466L760.179 714.952C758.738 711.893 756.791 707.368 754.466 701.832C749.763 690.708 743.772 675.136 737.401 657.844C731.031 640.552 725.166 624.979 720.716 613.73C718.542 608.269 716.747 603.795 715.408 600.458L713.992 596.842C713.796 596.426 713.659 595.983 713.587 595.528C713.857 595.894 714.078 596.293 714.245 596.716L715.913 600.23C717.329 603.289 719.301 607.814 721.627 613.35C726.329 624.474 732.32 640.046 738.691 657.338C745.061 674.63 750.926 690.203 755.376 701.452C757.55 706.913 759.345 711.387 760.659 714.724C761.241 716.165 761.721 717.253 762.1 718.34C762.297 718.756 762.433 719.199 762.505 719.654V719.654Z" fill="#263238"/>
<path d="M891.637 678.018C891.232 678.25 890.798 678.428 890.347 678.548L886.606 679.812L872.777 684.287C861.098 688.079 844.969 693.489 827.273 699.455C809.577 705.421 793.372 710.73 781.617 714.27C775.752 716.064 770.974 717.43 767.662 718.34L763.845 719.326C763.401 719.467 762.943 719.56 762.479 719.604C762.884 719.371 763.318 719.193 763.769 719.073L767.51 717.809L781.339 713.334C793.018 709.542 809.147 704.132 826.843 698.166C844.539 692.2 860.719 686.891 872.474 683.352C878.364 681.557 883.117 680.192 886.454 679.282L890.271 678.296C890.715 678.155 891.173 678.061 891.637 678.018V678.018Z" fill="#263238"/>
<path d="M838.952 64.7935L825.933 69.4451L820.346 52.4315C810.082 21.0586 777.37 4.39889 747.311 14.9913C717.253 25.5838 701.251 59.9903 711.514 91.3632L717.101 108.377L704.031 113.054C699.048 114.987 695 118.766 692.731 123.606C690.462 128.446 690.145 133.974 691.846 139.042L728.073 249.744C728.825 252.253 730.074 254.585 731.744 256.601C733.415 258.618 735.475 260.278 737.8 261.483C740.125 262.688 742.669 263.414 745.28 263.616C747.891 263.819 750.516 263.494 752.999 262.663L887.92 214.402C892.97 212.473 897.075 208.66 899.371 203.766C901.667 198.872 901.975 193.278 900.232 188.161L863.98 77.459C863.208 74.9574 861.941 72.6368 860.253 70.6358C858.565 68.6348 856.491 66.9943 854.155 65.8122C851.82 64.6302 849.27 63.9308 846.658 63.7557C844.046 63.5807 841.425 63.9337 838.952 64.7935V64.7935ZM736.112 82.4898C733.345 74.3323 733.841 65.4205 737.498 57.6212C741.155 49.8219 747.689 43.7404 755.73 40.6509C759.7 39.2924 763.904 38.7476 768.089 39.0491C772.275 39.3505 776.357 40.492 780.092 42.4055C783.827 44.3189 787.138 46.9651 789.828 50.1861C792.518 53.4072 794.531 57.137 795.748 61.1532L801.31 78.1668L741.674 99.5034L736.112 82.4898ZM811.953 180.729L821.206 208.992C821.376 209.559 821.321 210.17 821.052 210.697C820.784 211.224 820.323 211.628 819.765 211.824L806.796 216.45C806.28 216.593 805.728 216.531 805.257 216.277C804.786 216.022 804.431 215.595 804.268 215.085L794.939 186.948C789.796 186.668 784.86 184.823 780.794 181.66C776.728 178.498 773.725 174.168 772.187 169.252C769.988 162.752 770.389 155.654 773.306 149.443C776.223 143.232 781.43 138.391 787.836 135.932C790.999 134.852 794.347 134.419 797.68 134.66C801.014 134.9 804.265 135.81 807.24 137.334C810.215 138.858 812.852 140.965 814.995 143.53C817.138 146.095 818.743 149.065 819.714 152.263C821.341 157.258 821.475 162.618 820.101 167.687C818.727 172.757 815.904 177.316 811.978 180.805L811.953 180.729Z" fill="#ED7801"/>
<path d="M825.352 69.1418C825.352 69.4957 801.209 78.5714 771.176 89.3661C741.143 100.161 716.647 108.832 716.52 108.579C716.394 108.326 740.663 99.1748 770.721 88.3548C800.78 77.5349 825.226 68.8132 825.352 69.1418Z" fill="#263238"/>
<path d="M854.019 73.7935C854.131 74.0128 854.224 74.2412 854.298 74.476C854.5 74.9816 854.727 75.6389 855.031 76.4479C855.688 78.2933 856.598 80.8467 857.736 84.032L867.443 112.295C871.488 124.278 876.317 138.486 881.676 154.261C884.204 162.173 887.187 170.415 889.968 179.086C891.457 183.554 892.099 188.261 891.864 192.965C891.65 195.411 890.954 197.791 889.816 199.967C888.601 202.137 886.979 204.051 885.038 205.605C881.133 208.456 876.798 210.666 872.196 212.153L859.177 216.829L834.528 225.652L792.791 240.517L764.603 250.427L757.019 252.955L754.997 253.612C754.78 253.708 754.55 253.768 754.314 253.789C754.314 253.789 754.516 253.789 754.946 253.486L756.918 252.702L764.502 249.845L792.538 239.531L834.2 224.363L858.798 215.464L871.817 210.762C876.288 209.336 880.497 207.193 884.28 204.417C886.086 202.975 887.596 201.198 888.729 199.184C889.8 197.171 890.445 194.959 890.625 192.687C890.858 188.154 890.241 183.619 888.805 179.313C886.075 170.718 883.193 162.401 880.589 154.488C875.331 138.688 870.477 124.43 866.634 112.447C862.792 100.464 859.556 90.8324 857.331 84.0573C856.269 80.7455 855.46 78.167 854.803 76.2962L854.196 74.2738C854.12 74.1206 854.061 73.9595 854.019 73.7935V73.7935Z" fill="#263238"/>
<path d="M782.831 38.9315C782.831 38.9315 781.491 38.2743 779.013 37.263C775.482 35.9062 771.747 35.1541 767.966 35.0384C762.361 34.8462 756.783 35.8995 751.635 38.1226C745.374 40.8907 740.02 45.3681 736.188 51.0408C732.331 56.6973 730.261 63.382 730.248 70.2286C730.3 75.8401 731.151 81.4155 732.776 86.7871C734.09 91.3882 735.455 95.0538 736.365 97.6071C736.902 98.904 737.342 100.239 737.68 101.601C736.962 100.389 736.361 99.1106 735.885 97.7841C734.848 95.2561 733.357 91.6663 731.891 87.04C730.091 81.612 729.111 75.9458 728.983 70.2286C728.916 63.1233 731.034 56.1691 735.051 50.3077C739.016 44.4277 744.589 39.8119 751.104 37.0102C756.413 34.775 762.165 33.789 767.915 34.1283C771.778 34.3252 775.574 35.2247 779.114 36.7827C780.061 37.2194 780.974 37.7265 781.845 38.2995C782.204 38.4575 782.537 38.6708 782.831 38.9315V38.9315Z" fill="#263238"/>
<path d="M783.993 137.854C784.397 137.609 784.82 137.398 785.257 137.222C786.523 136.651 787.833 136.186 789.176 135.831C791.306 135.202 793.504 134.829 795.723 134.719C798.742 134.557 801.761 135.013 804.597 136.059C811.069 138.334 817.009 144.932 819.942 153.755C821.348 158.49 821.348 163.531 819.942 168.266C818.382 173.405 815.588 178.083 811.802 181.892L811.953 181.209C815.316 190.437 818.981 200.448 822.773 210.889L823.001 211.521L822.369 211.748L816.58 213.669L803.939 217.891L803.307 218.093L803.105 217.461C799.642 206.995 795.85 197.237 792.993 187.656L793.549 188.086C788.607 187.675 783.895 185.82 779.999 182.752C776.474 180.037 773.584 176.586 771.53 172.639C769.677 169.14 768.754 165.222 768.85 161.263C768.967 157.217 769.978 153.247 771.809 149.637C773.64 146.027 776.247 142.866 779.443 140.382C780.758 139.314 782.234 138.461 783.816 137.854C782.388 138.701 781.004 139.621 779.67 140.609C776.16 143.579 773.47 147.401 771.859 151.707C770.476 154.955 769.829 158.469 769.964 161.996C770.1 165.523 771.014 168.977 772.642 172.109C774.662 175.905 777.483 179.217 780.909 181.816C784.626 184.733 789.118 186.491 793.827 186.872H794.257L794.383 187.251C797.164 196.656 800.982 206.49 804.496 217.006L803.661 216.602L816.301 212.38L822.065 210.434L821.661 211.293C817.894 200.852 814.254 190.816 810.917 181.589V181.209L811.22 180.906C814.895 177.255 817.636 172.772 819.209 167.836C820.55 163.307 820.55 158.486 819.209 153.957C816.453 145.463 810.765 139.017 804.597 136.741C801.866 135.689 798.951 135.198 796.027 135.3C793.843 135.35 791.672 135.647 789.555 136.185C785.788 137.121 784.019 137.98 783.993 137.854Z" fill="#263238"/>
<path d="M705.852 867.797L453.327 866.634C438.744 866.554 424.789 860.689 414.527 850.327C404.264 839.966 398.534 825.955 398.595 811.372L401.275 178.327C401.304 171.102 402.758 163.954 405.552 157.291C408.346 150.628 412.426 144.581 417.558 139.496C422.69 134.411 428.774 130.387 435.463 127.654C442.151 124.921 449.312 123.534 456.537 123.57L709.037 124.733C723.62 124.807 737.578 130.665 747.845 141.022C758.112 151.379 763.848 165.387 763.794 179.971L761.114 812.99C761.085 820.217 759.632 827.368 756.838 834.033C754.045 840.699 749.966 846.749 744.834 851.839C739.703 856.928 733.619 860.957 726.93 863.695C720.242 866.433 713.079 867.827 705.852 867.797V867.797Z" fill="#455A64"/>
<path d="M708.658 146.499H659.715C658.118 146.529 656.543 146.873 655.079 147.511C653.615 148.15 652.291 149.071 651.183 150.221C650.075 151.371 649.204 152.729 648.621 154.216C648.037 155.703 647.753 157.29 647.783 158.887V167.76C647.813 169.356 647.528 170.942 646.944 172.427C646.361 173.913 645.49 175.268 644.381 176.417C643.273 177.565 641.949 178.483 640.485 179.119C639.021 179.755 637.446 180.096 635.85 180.122L540.443 179.692C537.215 179.606 534.153 178.243 531.93 175.901C529.707 173.56 528.505 170.432 528.586 167.204V158.331C528.668 155.107 527.468 151.983 525.251 149.642C523.033 147.301 519.978 145.935 516.755 145.842H499.539L456.689 145.64C446.497 145.579 436.696 149.56 429.432 156.709C422.169 163.859 418.034 173.596 417.934 183.788L415.406 801.689C415.383 806.745 416.356 811.756 418.269 816.437C420.183 821.117 422.999 825.374 426.558 828.966C430.117 832.558 434.348 835.413 439.01 837.37C443.673 839.326 448.675 840.345 453.731 840.368L705.725 841.531C710.785 841.554 715.799 840.581 720.482 838.666C725.166 836.751 729.426 833.933 733.02 830.372C736.614 826.811 739.471 822.576 741.429 817.911C743.387 813.245 744.406 808.24 744.429 803.181L746.957 185.279C747.018 175.059 743.018 165.233 735.836 157.961C728.654 150.689 718.878 146.566 708.658 146.499V146.499Z" fill="white"/>
<path d="M674.756 759.092L487.379 758.283C485.432 758.283 483.865 756.159 483.89 753.581L484.092 704.562C484.092 702.034 485.685 699.86 487.632 699.86L675.009 700.719C676.088 700.906 677.053 701.502 677.703 702.382C678.353 703.263 678.638 704.361 678.498 705.447L678.321 754.415C678.321 757.019 676.703 759.117 674.756 759.092Z" fill="#ED7801"/>
<path d="M542.193 717.989C542.158 717.696 542.018 717.469 541.771 717.308C541.525 717.146 541.223 717.065 540.865 717.065C540.603 717.065 540.374 717.107 540.178 717.192C539.983 717.277 539.831 717.393 539.721 717.542C539.614 717.69 539.56 717.858 539.56 718.047C539.56 718.205 539.597 718.34 539.672 718.454C539.749 718.566 539.847 718.659 539.967 718.734C540.086 718.807 540.211 718.868 540.342 718.916C540.473 718.962 540.593 719 540.703 719.029L541.304 719.19C541.458 719.231 541.629 719.287 541.818 719.358C542.008 719.429 542.19 719.526 542.363 719.649C542.539 719.771 542.683 719.927 542.797 720.117C542.91 720.308 542.967 720.542 542.967 720.819C542.967 721.138 542.883 721.427 542.716 721.685C542.55 721.943 542.308 722.148 541.988 722.3C541.67 722.452 541.284 722.528 540.83 722.528C540.407 722.528 540.04 722.46 539.73 722.323C539.422 722.187 539.179 721.996 539.002 721.752C538.827 721.507 538.728 721.223 538.705 720.9H539.444C539.463 721.123 539.538 721.308 539.669 721.454C539.802 721.598 539.97 721.706 540.172 721.778C540.376 721.847 540.595 721.881 540.83 721.881C541.104 721.881 541.349 721.837 541.566 721.749C541.784 721.658 541.956 721.533 542.083 721.373C542.21 721.212 542.274 721.023 542.274 720.807C542.274 720.611 542.219 720.451 542.109 720.328C542 720.205 541.855 720.105 541.676 720.028C541.497 719.951 541.304 719.883 541.096 719.826L540.368 719.618C539.906 719.485 539.54 719.295 539.271 719.049C539.001 718.802 538.867 718.48 538.867 718.081C538.867 717.75 538.956 717.462 539.135 717.215C539.316 716.967 539.559 716.774 539.863 716.638C540.169 716.499 540.511 716.43 540.888 716.43C541.269 716.43 541.608 716.498 541.904 716.635C542.201 716.77 542.436 716.954 542.609 717.189C542.784 717.424 542.876 717.691 542.886 717.989H542.193ZM544.86 716.511V722.424H544.144V716.511H544.86ZM550.986 716.511V722.424H550.293L547.07 717.781H547.012V722.424H546.296V716.511H546.989L550.223 721.165H550.281V716.511H550.986ZM556.461 718.359C556.398 718.164 556.314 717.99 556.21 717.836C556.108 717.68 555.986 717.547 555.843 717.438C555.703 717.328 555.543 717.244 555.364 717.186C555.185 717.129 554.988 717.1 554.775 717.1C554.424 717.1 554.106 717.19 553.819 717.371C553.532 717.552 553.304 717.819 553.135 718.171C552.965 718.523 552.881 718.955 552.881 719.467C552.881 719.98 552.966 720.412 553.138 720.764C553.309 721.116 553.541 721.383 553.833 721.564C554.126 721.745 554.455 721.835 554.821 721.835C555.16 721.835 555.458 721.763 555.716 721.619C555.976 721.472 556.178 721.266 556.322 721.001C556.469 720.733 556.542 720.418 556.542 720.057L556.761 720.103H554.983V719.467H557.235V720.103C557.235 720.59 557.131 721.013 556.923 721.373C556.717 721.733 556.432 722.012 556.068 722.211C555.706 722.407 555.291 722.505 554.821 722.505C554.297 722.505 553.837 722.382 553.441 722.136C553.046 721.889 552.738 721.539 552.517 721.085C552.297 720.63 552.188 720.091 552.188 719.467C552.188 719 552.25 718.579 552.375 718.206C552.502 717.83 552.681 717.511 552.912 717.247C553.143 716.983 553.417 716.781 553.732 716.641C554.048 716.5 554.396 716.43 554.775 716.43C555.087 716.43 555.377 716.477 555.647 716.571C555.918 716.664 556.16 716.796 556.372 716.967C556.585 717.136 556.763 717.339 556.906 717.576C557.048 717.811 557.146 718.072 557.2 718.359H556.461ZM564.629 716.511H565.345V720.426C565.345 720.83 565.25 721.191 565.059 721.509C564.871 721.825 564.604 722.074 564.26 722.257C563.915 722.438 563.511 722.528 563.047 722.528C562.583 722.528 562.179 722.438 561.834 722.257C561.489 722.074 561.222 721.825 561.031 721.509C560.843 721.191 560.748 720.83 560.748 720.426V716.511H561.464V720.368C561.464 720.657 561.528 720.914 561.655 721.139C561.782 721.363 561.963 721.539 562.198 721.668C562.435 721.795 562.718 721.858 563.047 721.858C563.376 721.858 563.659 721.795 563.896 721.668C564.133 721.539 564.313 721.363 564.439 721.139C564.566 720.914 564.629 720.657 564.629 720.368V716.511ZM566.775 722.424V716.511H568.774C569.237 716.511 569.617 716.594 569.911 716.762C570.208 716.927 570.427 717.152 570.57 717.435C570.712 717.718 570.783 718.033 570.783 718.382C570.783 718.73 570.712 719.047 570.57 719.332C570.429 719.617 570.211 719.844 569.917 720.013C569.622 720.181 569.245 720.264 568.785 720.264H567.353V719.629H568.762C569.08 719.629 569.335 719.574 569.527 719.465C569.72 719.355 569.859 719.207 569.946 719.02C570.034 718.831 570.079 718.619 570.079 718.382C570.079 718.145 570.034 717.933 569.946 717.747C569.859 717.56 569.719 717.413 569.524 717.308C569.33 717.2 569.072 717.146 568.75 717.146H567.491V722.424H566.775Z" fill="#E8E8E3"/>
<path d="M524.754 328.139L459.733 327.844L459.679 339.776L524.7 340.071L524.754 328.139Z" fill="#ED7801"/>
<path opacity="0.1" d="M524.754 328.139L459.733 327.844L459.679 339.776L524.7 340.071L524.754 328.139Z" fill="black"/>
<path d="M715.357 401.4C715.867 401.349 716.369 401.23 716.848 401.047C717.548 400.773 718.156 400.308 718.603 399.704C719.051 399.1 719.318 398.383 719.376 397.634C719.376 393.614 719.376 387.749 719.376 380.216C719.376 376.449 719.376 372.227 719.376 367.575C719.376 366.438 719.376 365.25 719.376 364.061C719.541 362.908 719.29 361.735 718.668 360.75C718.32 360.278 717.868 359.892 717.346 359.625C716.824 359.357 716.247 359.214 715.66 359.208H711.716H675.186L463.742 358.424C463.201 358.415 462.665 358.536 462.181 358.778C461.697 359.02 461.278 359.376 460.961 359.814C460.35 360.803 460.117 361.979 460.304 363.126C460.304 365.654 460.304 368.182 460.304 370.71C460.304 375.766 460.304 380.822 460.304 385.878C460.304 388.406 460.304 390.934 460.304 393.462C460.199 394.64 460.199 395.824 460.304 397.002C460.436 397.506 460.683 397.974 461.025 398.368C461.367 398.763 461.795 399.074 462.276 399.277C462.774 399.475 463.307 399.57 463.843 399.555H476.711L532.858 399.858L627.912 400.44L691.998 400.945L709.416 401.148H713.941C714.977 401.148 715.483 401.148 715.483 401.148H713.941H709.416H691.998H627.912L532.858 400.844L476.711 400.617H463.843C463.135 400.645 462.428 400.525 461.77 400.263C461.104 399.979 460.512 399.546 460.039 398.999C459.566 398.451 459.224 397.803 459.04 397.103C458.893 396.439 458.842 395.758 458.888 395.08V393.21C458.888 390.682 458.888 388.154 458.888 385.626C458.888 380.569 458.888 375.513 458.888 370.457C458.888 367.929 458.888 365.401 458.888 362.873C458.84 362.2 458.84 361.524 458.888 360.851C458.983 360.107 459.27 359.401 459.722 358.803C460.158 358.193 460.736 357.697 461.405 357.358C462.074 357.019 462.815 356.847 463.565 356.857L675.009 358.019L711.539 358.272H715.483C716.178 358.273 716.862 358.441 717.478 358.762C718.095 359.083 718.624 359.548 719.022 360.118C719.735 361.217 720.023 362.538 719.831 363.834C719.831 365.022 719.831 366.21 719.831 367.348C719.831 371.949 719.831 376.171 719.831 379.988C719.831 387.572 719.654 393.387 719.604 397.431C719.542 398.209 719.259 398.953 718.789 399.576C718.319 400.198 717.681 400.673 716.949 400.945C716.471 401.242 715.919 401.399 715.357 401.4V401.4Z" fill="#E0E0E0"/>
<path d="M598.183 371.115H479.264V382.264H598.183V371.115Z" fill="#ED7801"/>
<path opacity="0.2" d="M598.183 371.115H479.264V382.264H598.183V371.115Z" fill="white"/>
<path d="M524.31 436.993L459.29 436.698L459.236 448.63L524.256 448.925L524.31 436.993Z" fill="#ED7801"/>
<path opacity="0.1" d="M524.31 436.993L459.29 436.698L459.236 448.63L524.256 448.925L524.31 436.993Z" fill="black"/>
<path d="M713.714 510.258C714.225 510.195 714.731 510.102 715.231 509.98C715.937 509.755 716.587 509.381 717.136 508.884C717.686 508.387 718.122 507.778 718.416 507.098C718.814 506.077 718.97 504.978 718.871 503.887C718.871 502.674 718.871 501.359 718.871 499.893C718.871 496.96 718.871 493.623 718.871 489.781V473.728C718.992 472.565 718.735 471.395 718.138 470.391C717.514 469.36 716.534 468.596 715.382 468.242C714.123 468.017 712.841 467.949 711.565 468.04H675.187L464.475 467.256C463.342 467.259 462.248 467.673 461.397 468.421C460.546 469.17 459.996 470.202 459.849 471.326C459.849 473.728 459.849 476.382 459.849 478.91C459.849 483.966 459.849 489.022 459.849 494.078C459.849 496.606 459.849 499.134 459.849 501.662C459.755 502.844 459.806 504.033 460.001 505.202C460.316 506.227 460.966 507.117 461.846 507.73C462.78 508.322 463.877 508.605 464.981 508.539H468.495H475.801L531.746 508.817L626.472 509.398L690.33 509.904L707.697 510.106H712.222H713.739H712.222H707.697H690.33H626.472L531.696 510.005L475.75 509.803H464.753C463.386 509.884 462.029 509.52 460.886 508.766C459.735 507.969 458.896 506.799 458.509 505.455C458.283 504.17 458.215 502.862 458.307 501.561C458.307 499.033 458.307 496.505 458.307 493.977C458.307 488.921 458.307 483.865 458.307 478.809C458.307 476.281 458.307 473.753 458.307 471.225C458.491 469.779 459.196 468.451 460.29 467.487C461.383 466.524 462.791 465.993 464.248 465.992L674.959 467.155L711.338 467.433C712.692 467.35 714.052 467.443 715.382 467.711C716.696 468.14 717.804 469.041 718.492 470.239C719.146 471.353 719.429 472.645 719.301 473.93C719.301 475.118 719.301 476.281 719.301 477.444C719.301 482.02 719.301 486.216 719.301 490.084C719.301 493.952 719.301 497.213 719.301 500.196C719.301 501.637 719.301 502.977 719.301 504.216C719.393 505.346 719.211 506.482 718.77 507.527C718.442 508.225 717.967 508.844 717.378 509.341C716.789 509.838 716.1 510.203 715.357 510.409C714.805 510.455 714.249 510.404 713.714 510.258V510.258Z" fill="#E0E0E0"/>
<path d="M523.821 550.574L458.8 550.279L458.746 562.211L523.766 562.506L523.821 550.574Z" fill="#ED7801"/>
<path opacity="0.1" d="M523.821 550.574L458.8 550.279L458.746 562.211L523.766 562.506L523.821 550.574Z" fill="black"/>
<path d="M713.208 623.792C713.719 623.731 714.226 623.639 714.725 623.514C715.428 623.29 716.075 622.92 716.624 622.428C717.174 621.935 717.612 621.332 717.91 620.657C718.307 619.636 718.462 618.537 718.365 617.446C718.365 616.208 718.365 614.918 718.365 613.427C718.365 610.52 718.365 607.157 718.365 603.315V587.262C718.486 586.099 718.229 584.929 717.632 583.925C716.994 582.913 716.017 582.161 714.877 581.801C713.618 581.567 712.336 581.491 711.059 581.574H674.681L463.97 580.79C462.836 580.793 461.742 581.207 460.891 581.955C460.04 582.704 459.49 583.736 459.343 584.86C459.343 587.388 459.343 589.916 459.343 592.444C459.343 597.5 459.343 602.556 459.343 607.612C459.343 610.14 459.343 612.668 459.343 615.196C459.249 616.369 459.3 617.55 459.495 618.71C459.798 619.742 460.45 620.636 461.34 621.238C462.268 621.844 463.37 622.129 464.475 622.047H475.472L531.417 622.351L626.143 622.932L690.001 623.438L707.368 623.64H711.893C712.905 623.64 713.41 623.64 713.41 623.64C713.41 623.64 712.905 623.64 711.893 623.64H707.368H690.001H626.143L531.417 623.362L475.472 623.134H464.475C463.107 623.227 461.746 622.862 460.607 622.098C459.457 621.301 458.617 620.131 458.231 618.786C458.004 617.502 457.936 616.194 458.029 614.893C458.029 612.365 458.029 609.837 458.029 607.309C458.029 602.253 458.029 597.197 458.029 592.141C458.029 589.613 458.029 587.085 458.029 584.43C458.207 582.987 458.907 581.658 459.997 580.695C461.086 579.731 462.49 579.199 463.944 579.197L674.656 580.36L711.034 580.638C712.389 580.555 713.748 580.649 715.079 580.916C716.392 581.345 717.5 582.246 718.188 583.444C718.842 584.558 719.126 585.85 718.997 587.135C718.997 588.323 718.997 589.512 718.997 590.649C718.997 595.225 718.997 599.422 718.997 603.289C718.997 607.157 718.997 610.418 718.997 613.402C718.997 614.842 718.997 616.182 718.997 617.421C719.094 618.552 718.912 619.689 718.466 620.733C718.138 621.43 717.664 622.049 717.075 622.546C716.486 623.044 715.796 623.408 715.054 623.615C714.461 623.818 713.829 623.878 713.208 623.792V623.792Z" fill="#E0E0E0"/>
<path d="M595.644 483.124L476.727 482.584L476.676 493.732L595.594 494.272L595.644 483.124Z" fill="#ED7801"/>
<path opacity="0.2" d="M595.644 483.124L476.727 482.584L476.676 493.732L595.594 494.272L595.644 483.124Z" fill="white"/>
<path d="M487.48 603.163C487.406 604.18 487.034 605.152 486.412 605.96C485.79 606.768 484.944 607.375 483.98 607.707C483.015 608.038 481.975 608.079 480.988 607.825C480 607.571 479.109 607.032 478.425 606.276C477.741 605.52 477.294 604.58 477.139 603.572C476.984 602.564 477.129 601.533 477.555 600.607C477.98 599.68 478.669 598.899 479.534 598.36C480.4 597.822 481.405 597.549 482.424 597.576C483.832 597.654 485.153 598.285 486.1 599.331C487.046 600.377 487.542 601.754 487.48 603.163V603.163Z" fill="#ED7801"/>
<path d="M503.584 603.239C503.634 603.952 503.536 604.667 503.297 605.34C503.059 606.014 502.684 606.631 502.197 607.153C501.71 607.676 501.12 608.092 500.465 608.377C499.81 608.662 499.103 608.809 498.389 608.809C497.674 608.809 496.967 608.662 496.312 608.377C495.657 608.092 495.067 607.676 494.58 607.153C494.093 606.631 493.718 606.014 493.48 605.34C493.241 604.667 493.144 603.952 493.194 603.239C493.144 602.526 493.241 601.811 493.48 601.137C493.718 600.464 494.093 599.847 494.58 599.324C495.067 598.802 495.657 598.385 496.312 598.1C496.967 597.815 497.674 597.668 498.389 597.668C499.103 597.668 499.81 597.815 500.465 598.1C501.12 598.385 501.71 598.802 502.197 599.324C502.684 599.847 503.059 600.464 503.297 601.137C503.536 601.811 503.634 602.526 503.584 603.239V603.239Z" fill="#ED7801"/>
<path d="M519.713 603.315C519.638 604.332 519.267 605.304 518.644 606.112C518.022 606.92 517.177 607.527 516.212 607.858C515.248 608.19 514.208 608.231 513.22 607.977C512.233 607.723 511.342 607.184 510.658 606.428C509.974 605.672 509.526 604.732 509.372 603.724C509.217 602.716 509.361 601.685 509.787 600.759C510.213 599.832 510.901 599.051 511.767 598.512C512.633 597.974 513.637 597.701 514.657 597.728C516.063 597.813 517.38 598.445 518.325 599.489C519.27 600.534 519.768 601.907 519.713 603.315Z" fill="#ED7801"/>
<path d="M535.816 603.39C535.742 604.407 535.37 605.38 534.748 606.188C534.126 606.995 533.28 607.603 532.316 607.934C531.352 608.266 530.311 608.307 529.324 608.052C528.336 607.798 527.445 607.26 526.761 606.504C526.077 605.748 525.63 604.808 525.475 603.8C525.32 602.792 525.465 601.761 525.891 600.834C526.317 599.908 527.005 599.127 527.871 598.588C528.736 598.049 529.741 597.776 530.76 597.803C532.166 597.888 533.483 598.521 534.428 599.565C535.373 600.61 535.872 601.983 535.816 603.39Z" fill="#ED7801"/>
<path d="M551.92 603.441C551.85 604.459 551.483 605.435 550.863 606.246C550.244 607.057 549.399 607.669 548.435 608.004C547.471 608.339 546.43 608.384 545.44 608.132C544.451 607.88 543.558 607.344 542.871 606.588C542.184 605.833 541.735 604.893 541.578 603.884C541.422 602.875 541.565 601.843 541.99 600.915C542.416 599.987 543.105 599.205 543.971 598.665C544.838 598.125 545.843 597.852 546.864 597.879C548.265 597.964 549.578 598.593 550.523 599.632C551.467 600.671 551.969 602.038 551.92 603.441Z" fill="#ED7801"/>
<path d="M568.048 603.517C567.979 604.53 567.616 605.501 567.002 606.31C566.388 607.119 565.552 607.731 564.595 608.071C563.638 608.411 562.602 608.463 561.616 608.222C560.629 607.981 559.735 607.456 559.043 606.713C558.35 605.97 557.89 605.041 557.719 604.04C557.548 603.039 557.674 602.01 558.08 601.08C558.486 600.149 559.156 599.357 560.006 598.802C560.856 598.247 561.851 597.953 562.866 597.955C564.29 598.008 565.635 598.623 566.606 599.666C567.578 600.708 568.096 602.093 568.048 603.517V603.517Z" fill="#ED7801"/>
<path d="M584.152 603.592C584.202 604.305 584.105 605.02 583.866 605.694C583.628 606.367 583.253 606.984 582.766 607.507C582.278 608.029 581.689 608.446 581.034 608.731C580.378 609.016 579.672 609.163 578.957 609.163C578.243 609.163 577.536 609.016 576.881 608.731C576.226 608.446 575.636 608.029 575.149 607.507C574.661 606.984 574.287 606.367 574.048 605.694C573.81 605.02 573.712 604.305 573.762 603.592C573.712 602.88 573.81 602.164 574.048 601.491C574.287 600.817 574.661 600.2 575.149 599.678C575.636 599.155 576.226 598.739 576.881 598.454C577.536 598.169 578.243 598.022 578.957 598.022C579.672 598.022 580.378 598.169 581.034 598.454C581.689 598.739 582.278 599.155 582.766 599.678C583.253 600.2 583.628 600.817 583.866 601.491C584.105 602.164 584.202 602.88 584.152 603.592Z" fill="#ED7801"/>
<path d="M600.256 603.668C600.187 604.681 599.823 605.652 599.209 606.461C598.596 607.271 597.759 607.883 596.802 608.222C595.845 608.562 594.809 608.614 593.823 608.373C592.837 608.132 591.942 607.608 591.25 606.865C590.558 606.122 590.098 605.193 589.927 604.192C589.756 603.191 589.881 602.162 590.287 601.231C590.694 600.3 591.363 599.509 592.213 598.953C593.064 598.398 594.058 598.104 595.073 598.107C596.497 598.159 597.842 598.774 598.814 599.817C599.785 600.859 600.304 602.244 600.256 603.668V603.668Z" fill="#ED7801"/>
<path d="M616.359 603.744C616.289 604.763 615.922 605.738 615.302 606.549C614.683 607.36 613.838 607.972 612.874 608.307C611.91 608.642 610.869 608.687 609.88 608.435C608.89 608.184 607.997 607.647 607.31 606.891C606.623 606.136 606.174 605.196 606.017 604.187C605.861 603.178 606.004 602.146 606.43 601.218C606.855 600.29 607.544 599.508 608.41 598.968C609.277 598.428 610.283 598.155 611.303 598.183C612.705 598.267 614.018 598.896 614.962 599.935C615.907 600.974 616.408 602.341 616.359 603.744V603.744Z" fill="#ED7801"/>
<g opacity="0.2">
<path d="M487.48 603.163C487.406 604.18 487.034 605.152 486.412 605.96C485.79 606.768 484.944 607.375 483.98 607.707C483.015 608.038 481.975 608.079 480.988 607.825C480 607.571 479.109 607.032 478.425 606.276C477.741 605.52 477.294 604.58 477.139 603.572C476.984 602.564 477.129 601.533 477.555 600.607C477.98 599.68 478.669 598.899 479.534 598.36C480.4 597.822 481.405 597.549 482.424 597.576C483.832 597.654 485.153 598.285 486.1 599.331C487.046 600.377 487.542 601.754 487.48 603.163V603.163Z" fill="white"/>
<path d="M503.584 603.239C503.634 603.952 503.536 604.667 503.297 605.34C503.059 606.014 502.684 606.631 502.197 607.153C501.71 607.676 501.12 608.092 500.465 608.377C499.81 608.662 499.103 608.809 498.389 608.809C497.674 608.809 496.967 608.662 496.312 608.377C495.657 608.092 495.067 607.676 494.58 607.153C494.093 606.631 493.718 606.014 493.48 605.34C493.241 604.667 493.144 603.952 493.194 603.239C493.144 602.526 493.241 601.811 493.48 601.137C493.718 600.464 494.093 599.847 494.58 599.324C495.067 598.802 495.657 598.385 496.312 598.1C496.967 597.815 497.674 597.668 498.389 597.668C499.103 597.668 499.81 597.815 500.465 598.1C501.12 598.385 501.71 598.802 502.197 599.324C502.684 599.847 503.059 600.464 503.297 601.137C503.536 601.811 503.634 602.526 503.584 603.239V603.239Z" fill="white"/>
<path d="M519.713 603.315C519.638 604.332 519.267 605.304 518.644 606.112C518.022 606.92 517.177 607.527 516.212 607.858C515.248 608.19 514.208 608.231 513.22 607.977C512.233 607.723 511.342 607.184 510.658 606.428C509.974 605.672 509.526 604.732 509.372 603.724C509.217 602.716 509.361 601.685 509.787 600.759C510.213 599.832 510.901 599.051 511.767 598.512C512.633 597.974 513.637 597.701 514.657 597.728C516.063 597.813 517.38 598.445 518.325 599.489C519.27 600.534 519.768 601.907 519.713 603.315Z" fill="white"/>
<path d="M535.816 603.39C535.742 604.407 535.37 605.38 534.748 606.188C534.126 606.995 533.28 607.603 532.316 607.934C531.352 608.266 530.311 608.307 529.324 608.052C528.336 607.798 527.445 607.26 526.761 606.504C526.077 605.748 525.63 604.808 525.475 603.8C525.32 602.792 525.465 601.761 525.891 600.834C526.317 599.908 527.005 599.127 527.871 598.588C528.736 598.049 529.741 597.776 530.76 597.803C532.166 597.888 533.483 598.521 534.428 599.565C535.373 600.61 535.872 601.983 535.816 603.39Z" fill="white"/>
<path d="M551.92 603.441C551.85 604.459 551.483 605.435 550.863 606.246C550.244 607.057 549.399 607.668 548.435 608.004C547.471 608.339 546.43 608.384 545.44 608.132C544.451 607.88 543.558 607.343 542.871 606.588C542.184 605.833 541.735 604.892 541.578 603.884C541.422 602.875 541.565 601.842 541.99 600.915C542.416 599.987 543.105 599.204 543.971 598.665C544.838 598.125 545.843 597.852 546.864 597.879C548.265 597.964 549.578 598.593 550.523 599.632C551.467 600.671 551.969 602.038 551.92 603.441Z" fill="white"/>
<path d="M568.049 603.517C567.98 604.53 567.616 605.501 567.003 606.31C566.389 607.119 565.552 607.731 564.595 608.071C563.638 608.411 562.603 608.463 561.616 608.222C560.63 607.981 559.736 607.456 559.043 606.713C558.351 605.97 557.891 605.041 557.72 604.04C557.549 603.039 557.674 602.01 558.081 601.08C558.487 600.149 559.156 599.357 560.007 598.802C560.857 598.247 561.851 597.953 562.866 597.955C564.29 598.008 565.635 598.623 566.607 599.666C567.578 600.708 568.097 602.093 568.049 603.517V603.517Z" fill="white"/>
<path d="M584.152 603.592C584.202 604.305 584.105 605.02 583.866 605.694C583.628 606.367 583.253 606.984 582.766 607.507C582.278 608.029 581.689 608.446 581.034 608.731C580.378 609.016 579.672 609.163 578.957 609.163C578.243 609.163 577.536 609.016 576.881 608.731C576.226 608.446 575.636 608.029 575.149 607.507C574.661 606.984 574.287 606.367 574.048 605.694C573.81 605.02 573.712 604.305 573.762 603.592C573.712 602.88 573.81 602.164 574.048 601.491C574.287 600.817 574.661 600.2 575.149 599.678C575.636 599.155 576.226 598.739 576.881 598.454C577.536 598.169 578.243 598.022 578.957 598.022C579.672 598.022 580.378 598.169 581.034 598.454C581.689 598.739 582.278 599.155 582.766 599.678C583.253 600.2 583.628 600.817 583.866 601.491C584.105 602.164 584.202 602.88 584.152 603.592Z" fill="white"/>
<path d="M600.256 603.668C600.187 604.681 599.823 605.652 599.209 606.461C598.596 607.271 597.759 607.883 596.802 608.222C595.845 608.562 594.809 608.614 593.823 608.373C592.837 608.132 591.942 607.608 591.25 606.865C590.558 606.122 590.098 605.193 589.927 604.192C589.756 603.191 589.881 602.162 590.287 601.231C590.694 600.3 591.363 599.509 592.213 598.953C593.064 598.398 594.058 598.104 595.073 598.107C596.497 598.159 597.842 598.774 598.814 599.817C599.785 600.859 600.304 602.244 600.256 603.668V603.668Z" fill="white"/>
<path d="M616.359 603.744C616.289 604.763 615.922 605.738 615.302 606.549C614.683 607.36 613.838 607.972 612.874 608.307C611.91 608.642 610.869 608.687 609.88 608.435C608.89 608.184 607.997 607.647 607.31 606.891C606.623 606.136 606.174 605.196 606.017 604.187C605.861 603.178 606.004 602.146 606.43 601.218C606.855 600.29 607.544 599.508 608.41 598.968C609.277 598.428 610.283 598.155 611.303 598.183C612.705 598.267 614.018 598.896 614.962 599.935C615.907 600.974 616.408 602.341 616.359 603.744V603.744Z" fill="white"/>
</g>
<path d="M593.481 238.798C595.237 238.025 596.727 236.752 597.765 235.138C598.803 233.524 599.344 231.641 599.32 229.722C599.386 228.475 599.197 227.227 598.764 226.056C598.332 224.884 597.666 223.812 596.806 222.906C595.946 222 594.911 221.278 593.763 220.785C592.616 220.292 591.38 220.038 590.131 220.038C588.882 220.038 587.646 220.292 586.498 220.785C585.351 221.278 584.315 222 583.456 222.906C582.596 223.812 581.93 224.884 581.497 226.056C581.065 227.227 580.876 228.475 580.942 229.722C580.903 231.66 581.44 233.566 582.483 235.199C583.527 236.833 585.032 238.12 586.806 238.899C572.65 241.023 573.282 256.393 573.282 256.393L606.753 256.545C606.753 256.545 607.536 240.896 593.481 238.798Z" fill="#ED7801"/>
<path opacity="0.1" d="M593.481 238.798C595.237 238.025 596.727 236.752 597.765 235.138C598.803 233.524 599.344 231.641 599.32 229.722C599.386 228.475 599.197 227.227 598.764 226.056C598.332 224.884 597.666 223.812 596.806 222.906C595.946 222 594.911 221.278 593.763 220.785C592.616 220.292 591.38 220.038 590.131 220.038C588.882 220.038 587.646 220.292 586.498 220.785C585.351 221.278 584.315 222 583.456 222.906C582.596 223.812 581.93 224.884 581.497 226.056C581.065 227.227 580.876 228.475 580.942 229.722C580.903 231.66 581.44 233.566 582.483 235.199C583.527 236.833 585.032 238.12 586.806 238.899C572.65 241.023 573.282 256.393 573.282 256.393L606.753 256.545C606.753 256.545 607.536 240.896 593.481 238.798Z" fill="black"/>
<path d="M647.87 266.458L528.573 265.917L528.509 280.175L647.805 280.716L647.87 266.458Z" fill="#ED7801"/>
<path opacity="0.2" d="M647.87 266.458L528.573 265.917L528.509 280.175L647.805 280.716L647.87 266.458Z" fill="white"/>
<path d="M209.296 340.349H208.108L204.67 340.602C202.809 340.713 200.959 340.958 199.133 341.335C197.951 341.501 196.778 341.729 195.619 342.017L191.701 343.104C185.031 345.151 178.739 348.267 173.069 352.332C165.578 357.769 159.323 364.73 154.716 372.758C152.007 377.386 149.852 382.316 148.294 387.446C146.658 393.022 145.715 398.779 145.488 404.586C145.338 407.637 145.388 410.694 145.64 413.738C145.64 415.28 146.07 416.822 146.272 418.389C146.442 419.969 146.738 421.533 147.157 423.066C149.43 433.21 154.043 442.683 160.626 450.729C167.21 458.774 175.583 465.169 185.077 469.405C191.949 472.37 199.314 474.025 206.793 474.284C214.518 474.709 222.251 473.6 229.545 471.023L231.77 470.188H232.073L232.326 470.34L264.205 486.52L263.269 487.329C259.856 476.761 256.57 466.523 253.385 456.689V456.31L253.663 456.032C261.396 448.242 267.137 438.703 270.398 428.223C273.352 418.642 274.214 408.538 272.926 398.595C271.781 389.758 268.939 381.226 264.559 373.466C260.782 366.8 255.911 360.818 250.149 355.77C245.395 351.774 240.133 348.425 234.5 345.809C230.238 343.971 225.8 342.574 221.253 341.638L216.197 340.804L212.532 340.526L210.307 340.374H209.549C209.801 340.346 210.055 340.346 210.307 340.374H212.557L216.223 340.526L221.279 341.259C225.882 342.126 230.381 343.473 234.703 345.278C240.432 347.863 245.789 351.204 250.629 355.214C256.497 360.24 261.472 366.223 265.342 372.91C269.847 380.753 272.776 389.401 273.963 398.367C275.358 408.464 274.556 418.743 271.612 428.501C268.329 439.199 262.499 448.941 254.623 456.891L254.775 456.234C257.96 466.068 261.272 476.306 264.71 486.848L265.191 488.39L263.75 487.657L231.871 471.503H232.427L230.152 472.337C222.717 474.954 214.841 476.087 206.97 475.674C199.33 475.383 191.81 473.669 184.799 470.618C171.425 464.891 160.298 454.936 153.123 442.279C149.821 436.434 147.41 430.129 145.969 423.572C145.574 421.999 145.278 420.403 145.084 418.794C144.882 417.201 144.553 415.634 144.477 414.066C143.793 405.071 144.744 396.026 147.283 387.37C148.88 382.169 151.095 377.178 153.881 372.505C158.599 364.405 164.984 357.399 172.614 351.952C178.377 347.877 184.775 344.785 191.549 342.801L195.518 341.79C196.686 341.519 197.868 341.308 199.057 341.158C200.902 340.816 202.769 340.613 204.644 340.551L208.108 340.425C208.501 340.372 208.898 340.346 209.296 340.349Z" fill="#ED7801"/>
<path d="M223.706 399.303H219.029L208.917 385.095V375.767C208.917 375.767 201.686 375.312 202.546 387.522C203.406 399.732 202.546 396.623 202.546 396.623C202.546 396.623 187.201 396.623 185.937 398.013C184.673 399.404 184.597 414.218 184.42 422.485C184.323 424.477 184.895 426.445 186.045 428.076C187.194 429.707 188.856 430.906 190.765 431.484C191.301 431.633 191.853 431.709 192.409 431.712C196.251 431.712 215.793 428.602 215.793 428.602H223.857L223.706 399.303Z" fill="#ED7801"/>
<path d="M237.079 396.8L234.197 428.754H226.209V397.457L237.079 396.8Z" fill="#ED7801"/>
<path d="M332.361 1047.34V1025.72L293.606 1025.44L293.277 1058.13L295.679 1058.31C306.373 1058.99 350.082 1060 357.262 1057.78C365.25 1055.3 332.361 1047.34 332.361 1047.34Z" fill="#ED7801"/>
<path d="M358.172 1055.76C358.172 1056.11 343.661 1056.41 325.788 1056.41C307.914 1056.41 293.404 1056.11 293.404 1055.76C293.404 1055.4 307.914 1055.1 325.788 1055.1C343.661 1055.1 358.172 1055.4 358.172 1055.76Z" fill="#263238"/>
<path d="M333.043 1051.76C332.714 1051.58 333.043 1050.45 333.827 1049.23C334.61 1048.02 335.672 1047.51 335.925 1047.77C336.178 1048.02 335.647 1048.98 334.889 1050.02C334.13 1051.05 333.372 1051.94 333.043 1051.76Z" fill="#263238"/>
<path d="M335.521 1053.18C335.167 1053.18 335.344 1051.76 336.102 1050.42C336.86 1049.08 337.872 1048.27 338.15 1048.48C338.428 1048.68 337.973 1049.82 337.265 1051C336.557 1052.19 335.849 1053.3 335.521 1053.18Z" fill="#263238"/>
<path d="M305.083 1055.65C304.931 1055.65 304.35 1055.2 303.515 1054.24C302.497 1053 301.363 1051.87 300.128 1050.85C298.914 1049.88 297.467 1049.25 295.931 1049.01C294.743 1048.85 293.985 1049.01 293.909 1048.85C293.833 1048.7 294.566 1048.17 295.957 1048.07C297.792 1048.03 299.582 1048.64 301.013 1049.79C302.353 1050.88 303.484 1052.21 304.35 1053.71C304.931 1054.82 305.234 1055.55 305.083 1055.65Z" fill="#263238"/>
<path d="M333.17 1047.69C333.347 1048 332.689 1048.75 331.577 1049.16C330.465 1049.56 329.479 1049.41 329.428 1049.16C329.378 1048.91 330.161 1048.37 331.122 1048.02C332.083 1047.67 332.967 1047.39 333.17 1047.69Z" fill="#263238"/>
<path d="M332.563 1045.59C332.563 1045.97 331.551 1046.28 330.237 1046.3C328.922 1046.33 327.886 1046.02 327.911 1045.67C327.936 1045.32 328.973 1044.99 330.237 1044.96C331.501 1044.94 332.512 1045.24 332.563 1045.59Z" fill="#263238"/>
<path d="M427.794 1047.34V1025.72L389.039 1025.44L388.71 1057.8L391.112 1057.98C401.805 1058.66 445.54 1060 452.695 1057.78C460.683 1055.3 427.794 1047.34 427.794 1047.34Z" fill="#ED7801"/>
<path d="M453.605 1055.81C453.605 1056.16 439.119 1056.46 421.221 1056.46C403.322 1056.46 388.862 1056.16 388.862 1055.81C388.862 1055.45 403.348 1055.15 421.221 1055.15C439.094 1055.15 453.605 1055.45 453.605 1055.81Z" fill="#263238"/>
<path d="M428.476 1051.76C428.173 1051.58 428.476 1050.45 429.26 1049.23C430.044 1048.02 431.105 1047.51 431.358 1047.77C431.611 1048.02 431.08 1048.98 430.322 1050.02C429.563 1051.05 428.805 1051.94 428.476 1051.76Z" fill="#263238"/>
<path d="M430.954 1053.18C430.625 1053.18 430.777 1051.76 431.561 1050.42C432.344 1049.08 433.33 1048.27 433.608 1048.48C433.886 1048.68 433.406 1049.82 432.698 1051C431.99 1052.19 431.308 1053.3 430.954 1053.18Z" fill="#263238"/>
<path d="M400.516 1055.65C400.365 1055.65 399.809 1055.2 398.949 1054.24C397.931 1053 396.796 1051.87 395.561 1050.85C394.347 1049.88 392.901 1049.25 391.365 1049.01C390.202 1048.85 389.418 1049.01 389.343 1048.85C389.267 1048.7 390 1048.17 391.39 1048.07C393.225 1048.03 395.015 1048.64 396.446 1049.79C397.794 1050.88 398.926 1052.2 399.783 1053.71C400.365 1054.82 400.668 1055.55 400.516 1055.65Z" fill="#263238"/>
<path d="M428.603 1047.69C428.78 1048 428.123 1048.75 427.01 1049.16C425.898 1049.56 424.912 1049.41 424.861 1049.16C424.811 1048.91 425.595 1048.37 426.555 1048.02C427.516 1047.67 428.401 1047.39 428.603 1047.69Z" fill="#263238"/>
<path d="M428.046 1045.59C428.046 1045.97 427.035 1046.28 425.72 1046.3C424.406 1046.33 423.395 1046.02 423.42 1045.67C423.445 1045.32 424.456 1044.99 425.72 1044.96C426.984 1044.94 428.046 1045.24 428.046 1045.59Z" fill="#263238"/>
<path d="M570.577 405.471C569.566 404.434 567.063 404.94 567.063 404.94C567.314 403.484 567.314 401.997 567.063 400.541C566.608 399.125 563.423 399.403 563.423 399.403C563.276 398.211 563.276 397.006 563.423 395.814C563.448 395.549 563.391 395.284 563.26 395.053C563.129 394.822 562.93 394.638 562.689 394.524C561.182 393.91 559.564 393.617 557.937 393.665C555.99 392.274 563.878 381.227 566.81 377.688C569.743 374.148 569.212 371.393 566.608 371.393C564.813 371.393 555.611 382.011 552.78 385.575C549.948 389.14 542.44 399.049 542.187 391.137C541.934 383.224 538.749 377.258 536.752 376.247C534.755 375.235 532.631 377.612 533.718 379.811C534.673 382.31 535.269 384.931 535.488 387.597C535.762 389.721 535.668 391.876 535.21 393.968C534.372 397.86 533.23 401.681 531.797 405.395H531.595C531.595 405.395 476.433 458.307 472.439 462.073C468.874 465.461 397.179 458.054 382.795 456.537C377.907 455.822 372.971 455.484 368.031 455.526C361.787 455.804 360.674 456.689 354.456 456.764C338.75 456.939 323.081 458.316 307.586 460.885C300.57 462.078 294.016 465.175 288.639 469.838C283.263 474.501 279.271 480.551 277.098 487.328C262.612 532.58 229.798 639.693 224.009 699.86C219.635 707.793 215.685 715.953 212.178 724.306C208.108 735.379 209.094 735.758 210.459 736.011C214.15 736.693 218.346 716.823 219.914 721.626C221.481 726.429 211.95 745.314 215.818 745.87C220.874 746.578 224.894 725.646 225.374 723.977C225.855 722.309 228.357 722.84 227.902 724.407C227.169 726.632 220.065 750.218 225.02 750.977C227.751 751.381 228.054 746.401 228.054 746.401C228.054 746.401 233.11 723.826 235.411 724.281C237.711 724.736 235.259 738.058 234.096 742.508C232.933 746.957 234.551 749.207 236.927 748.12C238.545 747.362 242.413 733.837 243.475 729.438C244.537 725.039 247.191 712.854 250.756 719.907C254.32 726.96 259.73 731.056 261.955 731.157C262.456 731.099 262.929 730.893 263.312 730.564C263.695 730.235 263.97 729.8 264.104 729.313C264.237 728.826 264.221 728.311 264.059 727.833C263.897 727.355 263.596 726.937 263.194 726.632C261.28 724.763 259.638 722.636 258.315 720.312C257.135 718.501 256.28 716.5 255.786 714.396C254.768 710.202 254.175 705.917 254.017 701.604L253.612 699.076C259.275 671.04 275.581 588.753 299.117 536.195L308.774 556.065L312.971 570.779L287.235 634.308L397.002 632.867L380.621 569.818L400.516 504.089C422.03 504.569 477.267 505.378 486.469 501.207C498.048 496.151 557.937 420.512 557.937 420.512C561.841 417.479 565.579 414.238 569.136 410.805C569.136 410.805 572.776 407.746 570.577 405.471Z" fill="#FFBE9D"/>
<path d="M282.407 587.362C285.592 576.492 301.948 522.746 301.948 522.746C301.948 522.746 309.988 566.557 307.864 571.84C305.911 576.364 303.603 580.725 300.963 584.885C282.407 613.123 284.834 627.255 284.834 627.255L396.952 623.842C397.205 608.168 387.927 571.714 386.005 565.899C384.084 560.085 390.48 541.049 390.48 541.049C390.48 541.049 403.12 528.181 402.665 521.558C402.425 515.608 401.689 509.689 400.466 503.862L468.723 506.39L466.574 460.127L368.537 450.318C365.124 459.95 334.257 455.222 334.257 455.222C300.937 456.335 298.864 462.452 285.011 473.222C271.157 483.991 248.228 576.416 248.228 576.416L282.407 587.362Z" fill="#ED7801"/>
<path d="M348.692 576.416C346.749 576.763 344.77 576.865 342.801 576.72C339.136 576.72 334.105 576.467 328.569 575.911C323.032 575.354 318.027 574.571 314.462 573.863C312.497 573.61 310.57 573.117 308.724 572.397C310.7 572.397 312.672 572.584 314.614 572.953C318.204 573.408 323.184 574.04 328.695 574.596C334.206 575.152 339.212 575.531 342.827 575.784C344.797 575.809 346.761 576.021 348.692 576.416V576.416Z" fill="#263238"/>
<path d="M356.377 566.885C354.433 567.838 352.378 568.543 350.259 568.984C340.173 571.634 329.767 572.868 319.341 572.649C317.184 572.72 315.026 572.516 312.92 572.043C315.049 571.774 317.196 571.664 319.341 571.714C323.31 571.588 328.771 571.31 334.788 570.602C340.804 569.894 346.164 568.883 349.956 568.074C352.062 567.511 354.209 567.114 356.377 566.885V566.885Z" fill="#263238"/>
<path d="M394.095 524.364C394.044 526.291 393.781 528.207 393.311 530.077C392.654 533.591 391.643 538.394 390.353 543.653C389.064 548.911 387.825 553.765 386.713 557.051C386.266 558.932 385.604 560.756 384.741 562.486C384.882 560.565 385.238 558.666 385.803 556.824C386.764 552.88 387.851 548.329 389.064 543.349C390.278 538.369 391.44 533.819 392.401 529.875C392.743 527.977 393.312 526.126 394.095 524.364V524.364Z" fill="#263238"/>
<path d="M283.595 580.916C277.746 580.013 271.974 578.669 266.328 576.896C260.559 575.547 254.898 573.773 249.391 571.587C255.236 572.505 261.007 573.849 266.657 575.607C272.428 576.951 278.089 578.726 283.595 580.916V580.916Z" fill="#263238"/>
<path d="M401.679 503.305C400.725 503.469 399.751 503.469 398.797 503.305C396.156 503.034 393.564 502.414 391.087 501.46C386.951 499.906 383.186 497.504 380.034 494.408C376.882 491.313 374.412 487.592 372.784 483.486C370.983 478.968 370.215 474.105 370.534 469.253C370.646 465.25 371.843 461.353 373.997 457.978C375.512 455.704 377.775 454.031 380.393 453.25C381.093 453.057 381.816 452.964 382.542 452.972C383.047 452.972 383.3 452.972 383.3 452.972C383.3 452.972 382.238 452.972 380.545 453.655C378.143 454.542 376.105 456.206 374.756 458.382C371.317 463.792 370.357 473.677 374.022 482.904C375.728 487.255 378.399 491.162 381.834 494.331C384.648 496.924 387.89 499.011 391.415 500.499C394.724 501.807 398.166 502.748 401.679 503.305V503.305Z" fill="#263238"/>
<path d="M460.607 505.479C459.975 497.727 459.772 489.946 460.001 482.171C459.803 474.403 460.039 466.629 460.708 458.888C461.341 466.632 461.544 474.405 461.315 482.171C461.528 489.947 461.291 497.73 460.607 505.479V505.479Z" fill="#263238"/>
<path d="M367.879 453.149C368.158 447.512 368.739 441.141 368.739 441.141C368.739 441.141 382.694 439.599 383.528 425.189C384.362 410.78 383.528 377.536 383.528 377.536L358.248 364.593L330.187 386.662L334.509 458.711L360.245 460.354C362.212 460.409 364.12 459.681 365.552 458.33C366.983 456.98 367.82 455.116 367.879 453.149V453.149Z" fill="#FFBE9D"/>
<path d="M370.382 413.788C370.382 413.788 370.382 414.066 370.154 414.395C369.966 414.633 369.723 414.822 369.446 414.945C369.168 415.069 368.865 415.123 368.562 415.103C366.944 415.103 365.376 413.232 364.82 411.058C364.556 410.004 364.556 408.901 364.82 407.847C364.872 407.387 365.038 406.947 365.303 406.568C365.568 406.188 365.923 405.88 366.337 405.673C366.677 405.533 367.059 405.533 367.399 405.673C367.651 405.798 367.855 406.002 367.98 406.254C368.157 406.684 367.98 406.962 367.98 406.937C367.98 406.912 367.98 406.684 367.728 406.431C367.595 406.25 367.401 406.124 367.182 406.078C366.963 406.031 366.734 406.067 366.539 406.179C366.229 406.366 365.972 406.629 365.79 406.943C365.609 407.257 365.51 407.611 365.503 407.973C365.29 408.914 365.29 409.89 365.503 410.83C366.008 412.802 367.374 414.395 368.587 414.546C368.824 414.579 369.066 414.561 369.296 414.496C369.527 414.431 369.742 414.319 369.927 414.167C370.23 413.965 370.331 413.763 370.382 413.788Z" fill="#EB996E"/>
<path d="M392.199 369.75C390.252 363.126 383.199 359.84 376.778 358.019C366.994 355.239 356.427 354.025 346.871 357.539C337.315 361.053 325.838 367.222 325.838 377.763C320.2 377.308 316.965 382.238 314.74 388.356C313.318 392.083 312.465 396.003 312.212 399.985V399.985C311.504 413.788 307.636 432.849 298.687 442.961C293.631 448.599 286.628 452.492 283.746 459.52C281.218 465.612 282.533 472.843 280.182 479.011C278.083 484.446 273.457 488.314 270.07 493.042C266.618 498.405 264.587 504.557 264.167 510.92C263.747 517.284 264.952 523.65 267.668 529.42C270.404 535.042 274.255 540.048 278.988 544.134C283.721 548.219 289.237 551.298 295.198 553.183C307.007 556.776 319.599 556.899 331.475 553.537C340.389 551.406 348.703 547.283 355.795 541.479C363.051 535.553 368.035 527.3 369.902 518.12C371.696 507.805 368.814 497.314 366.666 487.05C359.941 454.616 361.862 452.922 370.357 422.813C370.559 422.282 370.66 421.726 370.812 421.195C370.963 420.664 371.039 420.411 371.14 420.007C371.382 418.817 371.508 417.606 371.519 416.392C370.279 416.853 368.932 416.951 367.638 416.673C366.344 416.395 365.156 415.754 364.213 414.824C363.269 413.833 362.611 412.605 362.308 411.269C362.005 409.934 362.07 408.542 362.494 407.24C363.091 405.817 363.98 404.534 365.103 403.476C366.227 402.418 367.56 401.607 369.017 401.097C371.823 399.934 374.831 399.328 377.587 398.038C383.426 395.257 387.471 389.493 390.227 383.451C392.492 379.264 393.191 374.406 392.199 369.75V369.75Z" fill="#263238"/>
<path d="M371.393 414.471C371.928 415.26 372.369 416.108 372.708 416.999C373.466 418.591 374.478 420.841 375.59 423.445L375.792 423.926H375.261L372.733 424.153C370.989 424.153 369.523 424.482 367.804 424.456C367.654 424.423 367.515 424.352 367.4 424.25C367.285 424.149 367.198 424.019 367.146 423.875C367.071 423.645 367.071 423.397 367.146 423.167C367.205 422.826 367.281 422.489 367.374 422.156L367.829 420.361C368.058 419.164 368.413 417.994 368.891 416.872C368.844 418.093 368.666 419.305 368.36 420.487L368.006 422.282C367.879 422.889 367.652 423.824 368.006 423.749C369.27 423.749 371.065 423.471 372.733 423.369L375.261 423.142L374.933 423.698C373.846 421.17 372.935 418.794 372.405 417.15C371.939 416.311 371.598 415.408 371.393 414.471V414.471Z" fill="#ED7801"/>
<path d="M284.833 627.255L396.952 623.842L445.743 814.304L436.768 1032.78H377.486L384.741 818.955L341.386 686.36L348.06 1041.25L288.145 1042.13L281.85 708.556C281.572 699.278 278.539 678.372 279.676 669.17L284.833 627.255Z" fill="#263238"/>
<path d="M356.301 689.065C354.466 689.181 352.623 689.07 350.815 688.737C347.428 688.332 342.801 687.624 337.72 686.613C332.639 685.602 328.088 684.439 324.802 683.504C323.045 683.117 321.345 682.506 319.746 681.683C319.746 681.304 327.987 683.276 338.099 685.324C348.211 687.371 356.351 688.686 356.301 689.065Z" fill="#455A64"/>
<path d="M436.162 1020.79C436.162 1021.15 422.738 1021.45 406.179 1021.45C389.621 1021.45 376.171 1021.15 376.171 1020.79C376.171 1020.44 389.595 1020.14 406.179 1020.14C422.763 1020.14 436.162 1020.41 436.162 1020.79Z" fill="#455A64"/>
<path d="M347.529 1032.02C347.529 1032.4 334.484 1032.67 318.406 1032.67C302.327 1032.67 289.308 1032.4 289.308 1032.02C289.308 1031.64 302.353 1031.36 318.406 1031.36C334.459 1031.36 347.529 1031.66 347.529 1032.02Z" fill="#455A64"/>
<path d="M339.793 1031.11C339.439 1031.11 337.872 953.573 336.279 857.938C334.686 762.302 333.751 684.717 334.08 684.717C334.408 684.717 336.026 762.226 337.594 857.912C339.161 953.598 340.172 1031.11 339.793 1031.11Z" fill="#455A64"/>
<path d="M428.198 1020.79C428.17 1020.45 428.17 1020.1 428.198 1019.76V1016.72C428.198 1013.99 428.4 1010.07 428.552 1005.09C428.906 994.982 429.412 980.294 430.044 962.295C431.409 926.093 433.33 876.19 435.428 821.104C435.428 820.573 435.428 820.068 435.428 819.612V819.789C422.156 766.701 410.148 718.517 401.426 683.655L391.314 642.423C390.151 637.594 389.266 633.828 388.634 631.198C388.331 629.96 388.129 628.999 387.952 628.266C387.853 627.937 387.794 627.597 387.775 627.255C387.906 627.573 388.008 627.903 388.078 628.241C388.28 628.948 388.533 629.909 388.887 631.123C389.57 633.651 390.556 637.493 391.82 642.296C394.348 652.055 397.912 666.11 402.362 683.427C411.159 718.264 423.294 766.322 436.743 819.486V819.663C436.743 820.118 436.743 820.649 436.743 821.155C434.493 876.24 432.445 926.118 430.954 962.32C430.17 980.345 429.513 994.931 429.058 1005.09C428.805 1010.15 428.603 1013.99 428.476 1016.72C428.476 1018.01 428.325 1019.02 428.299 1019.76C428.303 1020.1 428.269 1020.45 428.198 1020.79V1020.79Z" fill="#455A64"/>
<path d="M408.859 815.163C404.601 816.563 400.214 817.537 395.764 818.071C390.303 819.006 385.652 819.663 383.553 819.764V819.259C384.236 819.461 384.59 819.587 384.59 819.689C384.59 819.79 384.16 819.689 383.452 819.689H381.935L383.452 819.233C385.424 818.652 390.076 817.691 395.536 816.705C399.916 815.755 404.378 815.239 408.859 815.163Z" fill="#455A64"/>
<path d="M407.822 822.419C403.879 822.599 399.928 822.422 396.017 821.888C392.068 821.807 388.134 821.376 384.261 820.599C392.162 819.954 400.115 820.568 407.822 822.419V822.419Z" fill="#455A64"/>
<path opacity="0.2" d="M284.353 631.274C285.681 632.98 287.353 634.385 289.261 635.4C291.169 636.415 293.27 637.017 295.426 637.165C299.941 637.7 304.509 637.615 309.001 636.912C337.947 633.701 368.612 630.744 396.951 623.842C360.27 625.89 321.515 625.207 284.833 627.255L284.454 630.39" fill="black"/>
<g opacity="0.2">
<path d="M322.147 682.972L342.826 763.212L341.386 686.36L322.147 682.972Z" fill="black"/>
</g>
</svg>
