<svg width="592" height="234" viewBox="0 0 592 234" fill="none" xmlns="http://www.w3.org/2000/svg">
<path d="M538.674 22.3999C539.174 20.1678 534.096 18.3305 530.29 18.141C528.468 18.0462 526.578 18.2199 524.857 17.8462C521.127 17.0407 519.635 14.0452 515.999 13.1081C513.278 12.3922 510.141 13.0292 507.522 13.8557C504.903 14.6822 502.275 15.7193 499.325 15.8351C496.782 15.9352 493.976 15.3455 491.696 16.1247C490.001 16.7038 489.153 17.8988 487.61 18.6042C486.068 19.3097 484.135 19.4413 482.262 19.5045C480.388 19.5676 478.456 19.5782 476.752 20.0625C475.048 20.5468 473.641 21.6418 473.997 22.8105L538.674 22.3999Z" fill="#F5F5F5"/>
<path d="M130.361 62.1517H58.7168V203.165H130.361V62.1517Z" fill="#F5F5F5"/>
<path d="M130.362 62.1517H94.54V202.776H130.362V62.1517Z" fill="#EBEBEB"/>
<path d="M92.2003 48.3115H66.8975V62.157H92.2003V48.3115Z" fill="#F5F5F5"/>
<path d="M92.1919 48.3115H86.165V62.157H92.1919V48.3115Z" fill="#EBEBEB"/>
<path d="M52.75 62.1517V61.3462H132.456V62.1517" fill="#E0E0E0"/>
<path d="M78.9172 68.1901H72.8564V76.1289H78.9172V68.1901Z" fill="#FAFAFA"/>
<path d="M94.5391 79.2559C94.5391 79.3349 86.5202 79.4033 76.628 79.4033C66.7357 79.4033 58.7168 79.3349 58.7168 79.2559C58.7168 79.177 66.7357 79.1033 76.628 79.1033C86.5202 79.1033 94.5391 79.1664 94.5391 79.2559Z" fill="#E0E0E0"/>
<path d="M115.054 68.1901H108.993V76.1289H115.054V68.1901Z" fill="#E0E0E0"/>
<path d="M130.667 79.2559C130.667 79.3349 122.648 79.4033 112.756 79.4033C102.864 79.4033 94.8447 79.3349 94.8447 79.2559C94.8447 79.177 102.864 79.1033 112.756 79.1033C122.648 79.1033 130.667 79.1664 130.667 79.2559Z" fill="#E0E0E0"/>
<path d="M115.054 83.9572H108.993V91.9012H115.054V83.9572Z" fill="#E0E0E0"/>
<path d="M130.667 95.0177C130.667 95.0966 122.648 95.1651 112.756 95.1651C102.864 95.1651 94.8447 95.0966 94.8447 95.0177C94.8447 94.9387 102.864 94.865 112.756 94.865C122.648 94.865 130.667 94.9334 130.667 95.0177Z" fill="#E0E0E0"/>
<path d="M115.054 100.198H108.993V108.137H115.054V100.198Z" fill="#E0E0E0"/>
<path d="M130.667 111.259C130.667 111.343 122.648 111.411 112.756 111.411C102.864 111.411 94.8447 111.343 94.8447 111.259C94.8447 111.174 102.864 111.106 112.756 111.106C122.648 111.106 130.667 111.174 130.667 111.259Z" fill="#E0E0E0"/>
<path d="M115.054 116.444H108.993V124.383H115.054V116.444Z" fill="#E0E0E0"/>
<path d="M130.667 127.499C130.667 127.584 122.648 127.652 112.756 127.652C102.864 127.652 94.8447 127.584 94.8447 127.499C94.8447 127.415 102.864 127.347 112.756 127.347C122.648 127.347 130.667 127.415 130.667 127.499Z" fill="#E0E0E0"/>
<path d="M115.054 132.222H108.993V140.16H115.054V132.222Z" fill="#E0E0E0"/>
<path d="M130.667 143.277C130.667 143.361 122.648 143.429 112.756 143.429C102.864 143.429 94.8447 143.361 94.8447 143.277C94.8447 143.193 102.864 143.124 112.756 143.124C122.648 143.124 130.667 143.193 130.667 143.277Z" fill="#E0E0E0"/>
<path d="M115.054 148.062H108.993V156.001H115.054V148.062Z" fill="#E0E0E0"/>
<path d="M115.054 164.108H108.993V172.047H115.054V164.108Z" fill="#E0E0E0"/>
<path d="M130.667 159.118C130.667 159.202 122.648 159.27 112.756 159.27C102.864 159.27 94.8447 159.202 94.8447 159.118C94.8447 159.033 102.864 158.97 112.756 158.97C122.648 158.97 130.667 159.039 130.667 159.118Z" fill="#E0E0E0"/>
<path d="M78.9172 84.1993H72.8564V92.1381H78.9172V84.1993Z" fill="#FAFAFA"/>
<path d="M94.5391 95.2547C94.5391 95.3389 86.5202 95.4074 76.628 95.4074C66.7357 95.4074 58.7168 95.3389 58.7168 95.2547C58.7168 95.1705 66.7357 95.1021 76.628 95.1021C86.5202 95.1021 94.5391 95.1705 94.5391 95.2547Z" fill="#E0E0E0"/>
<path d="M78.9172 100.203H72.8564V108.142H78.9172V100.203Z" fill="#FAFAFA"/>
<path d="M94.5391 111.264C94.5391 111.348 86.5202 111.416 76.628 111.416C66.7357 111.416 58.7168 111.348 58.7168 111.264C58.7168 111.18 66.7357 111.111 76.628 111.111C86.5202 111.111 94.5391 111.18 94.5391 111.264Z" fill="#E0E0E0"/>
<path d="M78.9172 116.212H72.8564V124.151H78.9172V116.212Z" fill="#FAFAFA"/>
<path d="M94.5391 127.273C94.5391 127.352 86.5202 127.42 76.628 127.42C66.7357 127.42 58.7168 127.352 58.7168 127.273C58.7168 127.194 66.7357 127.12 76.628 127.12C86.5202 127.12 94.5391 127.189 94.5391 127.273Z" fill="#E0E0E0"/>
<path d="M78.9172 132.222H72.8564V140.16H78.9172V132.222Z" fill="#FAFAFA"/>
<path d="M94.5391 143.277C94.5391 143.361 86.5202 143.429 76.628 143.429C66.7357 143.429 58.7168 143.361 58.7168 143.277C58.7168 143.193 66.7357 143.124 76.628 143.124C86.5202 143.124 94.5391 143.193 94.5391 143.277Z" fill="#E0E0E0"/>
<path d="M78.9172 148.225H72.8564V156.164H78.9172V148.225Z" fill="#FAFAFA"/>
<path d="M94.5391 159.276C94.5391 159.36 86.5202 159.428 76.628 159.428C66.7357 159.428 58.7168 159.36 58.7168 159.276C58.7168 159.191 66.7357 159.123 76.628 159.123C86.5202 159.123 94.5391 159.202 94.5391 159.276Z" fill="#E0E0E0"/>
<path d="M78.9172 164.235H72.8564V172.173H78.9172V164.235Z" fill="#FAFAFA"/>
<path d="M413.058 29.9912H309.787V233.252H413.058V29.9912Z" fill="#F5F5F5"/>
<path d="M413.05 29.9912H361.419V232.693H413.05V29.9912Z" fill="#EBEBEB"/>
<path d="M358.046 10.0389H321.579V29.9965H358.046V10.0389Z" fill="#F5F5F5"/>
<path d="M358.045 10.0389H349.356V29.9965H358.045V10.0389Z" fill="#EBEBEB"/>
<path d="M301.184 29.9912V28.8278H416.076V29.9912" fill="#E0E0E0"/>
<path d="M338.913 38.6986H330.174V50.1435H338.913V38.6986Z" fill="#FAFAFA"/>
<path d="M361.418 54.6342C361.418 54.7553 349.865 54.8553 335.607 54.8553C321.349 54.8553 309.787 54.7553 309.787 54.6342C309.787 54.5131 321.341 54.4183 335.607 54.4183C349.873 54.4183 361.418 54.5131 361.418 54.6342Z" fill="#E0E0E0"/>
<path d="M390.993 38.6986H382.254V50.1435H390.993V38.6986Z" fill="#E0E0E0"/>
<path d="M413.507 54.6342C413.507 54.7553 401.945 54.8553 387.687 54.8553C373.429 54.8553 361.867 54.7553 361.867 54.6342C361.867 54.5131 373.429 54.4183 387.687 54.4183C401.945 54.4183 413.507 54.5131 413.507 54.6342Z" fill="#E0E0E0"/>
<path d="M390.993 61.4253H382.254V72.8702H390.993V61.4253Z" fill="#E0E0E0"/>
<path d="M413.507 77.366C413.507 77.4871 401.945 77.5818 387.687 77.5818C373.429 77.5818 361.867 77.4871 361.867 77.366C361.867 77.2449 373.429 77.1449 387.687 77.1449C401.945 77.1449 413.507 77.2449 413.507 77.366Z" fill="#E0E0E0"/>
<path d="M390.993 84.8363H382.254V96.2812H390.993V84.8363Z" fill="#E0E0E0"/>
<path d="M413.507 100.777C413.507 100.898 401.945 100.998 387.687 100.998C373.429 100.998 361.867 100.898 361.867 100.777C361.867 100.656 373.429 100.556 387.687 100.556C401.945 100.556 413.507 100.656 413.507 100.777Z" fill="#E0E0E0"/>
<path d="M390.993 108.252H382.254V119.697H390.993V108.252Z" fill="#E0E0E0"/>
<path d="M413.507 124.188C413.507 124.309 401.945 124.409 387.687 124.409C373.429 124.409 361.867 124.309 361.867 124.188C361.867 124.067 373.429 123.972 387.687 123.972C401.945 123.972 413.507 124.067 413.507 124.188Z" fill="#E0E0E0"/>
<path d="M390.993 130.995H382.254V142.44H390.993V130.995Z" fill="#E0E0E0"/>
<path d="M413.507 146.936C413.507 147.052 401.945 147.152 387.687 147.152C373.429 147.152 361.867 147.052 361.867 146.936C361.867 146.82 373.429 146.715 387.687 146.715C401.945 146.715 413.507 146.815 413.507 146.936Z" fill="#E0E0E0"/>
<path d="M390.993 153.827H382.254V165.272H390.993V153.827Z" fill="#E0E0E0"/>
<path d="M390.993 176.964H382.254V188.409H390.993V176.964Z" fill="#E0E0E0"/>
<path d="M413.507 169.768C413.507 169.889 401.945 169.989 387.687 169.989C373.429 169.989 361.867 169.889 361.867 169.768C361.867 169.647 373.429 169.552 387.687 169.552C401.945 169.552 413.507 169.647 413.507 169.768Z" fill="#E0E0E0"/>
<path d="M338.913 61.7727H330.174V73.2176H338.913V61.7727Z" fill="#FAFAFA"/>
<path d="M361.418 77.7134C361.418 77.8292 349.865 77.9293 335.607 77.9293C321.349 77.9293 309.787 77.8292 309.787 77.7134C309.787 77.5976 321.341 77.4923 335.607 77.4923C349.873 77.4923 361.418 77.5923 361.418 77.7134Z" fill="#E0E0E0"/>
<path d="M338.913 84.8468H330.174V96.2917H338.913V84.8468Z" fill="#FAFAFA"/>
<path d="M361.418 100.788C361.418 100.903 349.865 101.003 335.607 101.003C321.349 101.003 309.787 100.903 309.787 100.788C309.787 100.672 321.341 100.566 335.607 100.566C349.873 100.566 361.418 100.666 361.418 100.788Z" fill="#E0E0E0"/>
<path d="M338.913 107.921H330.174V119.366H338.913V107.921Z" fill="#FAFAFA"/>
<path d="M361.418 123.861C361.418 123.977 349.865 124.077 335.607 124.077C321.349 124.077 309.787 123.977 309.787 123.861C309.787 123.746 321.341 123.64 335.607 123.64C349.873 123.64 361.418 123.74 361.418 123.861Z" fill="#E0E0E0"/>
<path d="M338.913 130.995H330.174V142.44H338.913V130.995Z" fill="#FAFAFA"/>
<path d="M361.418 146.936C361.418 147.052 349.865 147.152 335.607 147.152C321.349 147.152 309.787 147.052 309.787 146.936C309.787 146.82 321.341 146.715 335.607 146.715C349.873 146.715 361.418 146.815 361.418 146.936Z" fill="#E0E0E0"/>
<path d="M338.913 154.069H330.174V165.514H338.913V154.069Z" fill="#FAFAFA"/>
<path d="M361.418 170.01C361.418 170.131 349.865 170.226 335.607 170.226C321.349 170.226 309.787 170.131 309.787 170.01C309.787 169.889 321.341 169.789 335.607 169.789C349.873 169.789 361.418 169.889 361.418 170.01Z" fill="#E0E0E0"/>
<path d="M338.913 177.143H330.174V188.588H338.913V177.143Z" fill="#FAFAFA"/>
<path d="M449.5 122.198H393.079V233.246H449.5V122.198Z" fill="#F5F5F5"/>
<path d="M449.499 122.198H421.289V232.941H449.499V122.198Z" fill="#EBEBEB"/>
<path d="M419.441 111.295H399.521V122.198H419.441V111.295Z" fill="#F5F5F5"/>
<path d="M419.441 111.295H414.694V122.198H419.441V111.295Z" fill="#EBEBEB"/>
<path d="M388.374 122.198V121.561H451.152V122.198" fill="#E0E0E0"/>
<path d="M408.99 126.952H404.218V133.206H408.99V126.952Z" fill="#FAFAFA"/>
<path d="M421.289 135.665C421.289 135.728 414.974 135.78 407.184 135.78C399.394 135.78 393.079 135.728 393.079 135.665C393.079 135.601 399.394 135.543 407.184 135.543C414.974 135.543 421.289 135.586 421.289 135.665Z" fill="#E0E0E0"/>
<path d="M437.446 126.952H432.674V133.206H437.446V126.952Z" fill="#E0E0E0"/>
<path d="M449.745 135.665C449.745 135.728 443.43 135.78 435.64 135.78C427.85 135.78 421.535 135.728 421.535 135.665C421.535 135.601 427.85 135.543 435.64 135.543C443.43 135.543 449.745 135.586 449.745 135.665Z" fill="#E0E0E0"/>
<path d="M437.446 139.371H432.674V145.625H437.446V139.371Z" fill="#E0E0E0"/>
<path d="M449.745 148.078C449.745 148.147 443.43 148.199 435.64 148.199C427.85 148.199 421.535 148.147 421.535 148.078C421.535 148.01 427.85 147.957 435.64 147.957C443.43 147.957 449.745 148.015 449.745 148.078Z" fill="#E0E0E0"/>
<path d="M437.446 152.163H432.674V158.417H437.446V152.163Z" fill="#E0E0E0"/>
<path d="M449.745 160.855C449.745 160.918 443.43 160.976 435.64 160.976C427.85 160.976 421.535 160.918 421.535 160.855C421.535 160.792 427.85 160.734 435.64 160.734C443.43 160.734 449.745 160.802 449.745 160.855Z" fill="#E0E0E0"/>
<path d="M437.446 164.951H432.674V171.205H437.446V164.951Z" fill="#E0E0E0"/>
<path d="M449.745 173.663C449.745 173.726 443.43 173.779 435.64 173.779C427.85 173.779 421.535 173.726 421.535 173.663C421.535 173.6 427.85 173.542 435.64 173.542C443.43 173.542 449.745 173.595 449.745 173.663Z" fill="#E0E0E0"/>
<path d="M437.446 177.38H432.674V183.634H437.446V177.38Z" fill="#E0E0E0"/>
<path d="M449.745 186.087C449.745 186.156 443.43 186.208 435.64 186.208C427.85 186.208 421.535 186.156 421.535 186.087C421.535 186.019 427.85 185.966 435.64 185.966C443.43 185.966 449.745 186.019 449.745 186.087Z" fill="#E0E0E0"/>
<path d="M437.446 189.857H432.674V196.111H437.446V189.857Z" fill="#E0E0E0"/>
<path d="M437.446 202.491H432.674V208.746H437.446V202.491Z" fill="#E0E0E0"/>
<path d="M449.745 198.564C449.745 198.627 443.43 198.68 435.64 198.68C427.85 198.68 421.535 198.627 421.535 198.564C421.535 198.501 427.85 198.443 435.64 198.443C443.43 198.443 449.745 198.496 449.745 198.564Z" fill="#E0E0E0"/>
<path d="M408.99 139.56H404.218V145.814H408.99V139.56Z" fill="#FAFAFA"/>
<path d="M421.289 148.268C421.289 148.336 414.974 148.389 407.184 148.389C399.394 148.389 393.079 148.336 393.079 148.268C393.079 148.199 399.394 148.146 407.184 148.146C414.974 148.146 421.289 148.22 421.289 148.268Z" fill="#E0E0E0"/>
<path d="M408.99 152.168H404.218V158.423H408.99V152.168Z" fill="#FAFAFA"/>
<path d="M421.289 160.855C421.289 160.918 414.974 160.971 407.184 160.971C399.394 160.971 393.079 160.918 393.079 160.855C393.079 160.792 399.394 160.734 407.184 160.734C414.974 160.734 421.289 160.807 421.289 160.855Z" fill="#E0E0E0"/>
<path d="M408.99 164.772H404.218V171.026H408.99V164.772Z" fill="#FAFAFA"/>
<path d="M421.289 173.49C421.289 173.558 414.974 173.611 407.184 173.611C399.394 173.611 393.079 173.558 393.079 173.49C393.079 173.421 399.394 173.374 407.184 173.374C414.974 173.374 421.289 173.416 421.289 173.49Z" fill="#E0E0E0"/>
<path d="M408.99 177.38H404.218V183.634H408.99V177.38Z" fill="#FAFAFA"/>
<path d="M421.289 186.087C421.289 186.156 414.974 186.208 407.184 186.208C399.394 186.208 393.079 186.156 393.079 186.087C393.079 186.019 399.394 185.966 407.184 185.966C414.974 185.966 421.289 186.019 421.289 186.087Z" fill="#E0E0E0"/>
<path d="M408.99 189.983H404.218V196.237H408.99V189.983Z" fill="#FAFAFA"/>
<path d="M421.289 198.696C421.289 198.759 414.974 198.812 407.184 198.812C399.394 198.812 393.079 198.759 393.079 198.696C393.079 198.633 399.394 198.575 407.184 198.575C414.974 198.575 421.289 198.627 421.289 198.696Z" fill="#E0E0E0"/>
<path d="M408.99 202.591H404.218V208.846H408.99V202.591Z" fill="#FAFAFA"/>
<path d="M166.549 161.655H105.806V233.252H166.549V161.655Z" fill="#E0E0E0"/>
<path d="M166.55 161.655H138.068V233.252H166.55V161.655Z" fill="#EBEBEB"/>
<path d="M124.004 168.388H118.545V176.627H124.004V168.388Z" fill="#F5F5F5"/>
<path d="M124.004 200.644H118.545V208.882H124.004V200.644Z" fill="#F5F5F5"/>
<path d="M138.068 179.865C138.068 179.938 130.846 179.991 121.962 179.991C113.079 179.991 105.856 179.938 105.856 179.865C105.856 179.791 113.079 179.738 121.962 179.738C130.846 179.738 138.068 179.807 138.068 179.865Z" fill="#F5F5F5"/>
<path d="M124.004 184.64H118.545V192.879H124.004V184.64Z" fill="#F5F5F5"/>
<path d="M138.068 196.127C138.068 196.195 130.846 196.253 121.962 196.253C113.079 196.253 105.856 196.195 105.856 196.127C105.856 196.058 113.079 195.995 121.962 195.995C130.846 195.995 138.068 196.042 138.068 196.127Z" fill="#F5F5F5"/>
<path d="M149.579 168.388H144.12V176.627H149.579V168.388Z" fill="#E0E0E0"/>
<path d="M161.429 168.388H155.97V176.627H161.429V168.388Z" fill="#E0E0E0"/>
<path d="M149.579 184.029H144.12V192.268H149.579V184.029Z" fill="#E0E0E0"/>
<path d="M161.429 184.029H155.97V192.268H161.429V184.029Z" fill="#E0E0E0"/>
<path d="M149.579 199.664H144.12V207.903H149.579V199.664Z" fill="#E0E0E0"/>
<path d="M161.429 199.664H155.97V207.903H161.429V199.664Z" fill="#E0E0E0"/>
<path d="M171.118 159.923H101.245V161.718H171.118V159.923Z" fill="#E0E0E0"/>
<path d="M166.973 161.908C166.973 161.976 153.41 162.034 136.652 162.034C119.894 162.034 106.331 161.976 106.331 161.908C106.331 161.839 119.894 161.776 136.652 161.776C153.41 161.776 166.973 161.813 166.973 161.908Z" fill="#EBEBEB"/>
<path d="M106.5 233.199H8.67938L8.24707 137.181H106.076L106.5 233.199Z" fill="#EBEBEB"/>
<path d="M106.076 137.181H57.166V233.199H106.076V137.181Z" fill="#E0E0E0"/>
<path d="M53.9633 118.276H19.4209V137.181H53.9633V118.276Z" fill="#EBEBEB"/>
<path d="M53.9623 118.276H45.7314V137.181H53.9623V118.276Z" fill="#E0E0E0"/>
<path d="M108.942 136.075H0.101562V137.175H108.942V136.075Z" fill="#E0E0E0"/>
<path d="M35.8383 145.425H27.5566V156.27H35.8383V145.425Z" fill="white"/>
<path d="M57.1658 160.523C57.1658 160.639 46.214 160.728 32.7107 160.728C19.2074 160.728 8.24707 160.639 8.24707 160.523C8.24707 160.407 19.1989 160.328 32.7107 160.328C46.2225 160.328 57.1658 160.407 57.1658 160.523Z" fill="#E0E0E0"/>
<path d="M85.1821 145.425H76.9004V156.27H85.1821V145.425Z" fill="#F5F5F5"/>
<path d="M106.5 160.523C106.5 160.639 95.5483 160.728 82.045 160.728C68.5417 160.728 57.5898 160.639 57.5898 160.523C57.5898 160.407 68.5332 160.318 82.045 160.318C95.5568 160.318 106.5 160.407 106.5 160.523Z" fill="#EBEBEB"/>
<path d="M85.1821 166.951H76.9004V177.796H85.1821V166.951Z" fill="#F5F5F5"/>
<path d="M106.5 182.055C106.5 182.165 95.5483 182.26 82.045 182.26C68.5417 182.26 57.5898 182.165 57.5898 182.055C57.5898 181.944 68.5332 181.844 82.045 181.844C95.5568 181.844 106.5 181.939 106.5 182.055Z" fill="#EBEBEB"/>
<path d="M85.1821 189.13H76.9004V199.975H85.1821V189.13Z" fill="#F5F5F5"/>
<path d="M106.5 204.234C106.5 204.344 95.5483 204.439 82.045 204.439C68.5417 204.439 57.5898 204.344 57.5898 204.234C57.5898 204.123 68.5332 204.023 82.045 204.023C95.5568 204.023 106.5 204.118 106.5 204.234Z" fill="#EBEBEB"/>
<path d="M85.1821 211.309H76.9004V222.154H85.1821V211.309Z" fill="#F5F5F5"/>
<path d="M106.5 226.408C106.5 226.524 95.5483 226.618 82.045 226.618C68.5417 226.618 57.5898 226.524 57.5898 226.408C57.5898 226.292 68.5332 226.203 82.045 226.203C95.5568 226.203 106.5 226.297 106.5 226.408Z" fill="#EBEBEB"/>
<path d="M35.8383 167.283H27.5566V178.128H35.8383V167.283Z" fill="white"/>
<path d="M57.1658 182.381C57.1658 182.497 46.214 182.587 32.7107 182.587C19.2074 182.587 8.24707 182.497 8.24707 182.381C8.24707 182.265 19.1989 182.176 32.7107 182.176C46.2225 182.176 57.1658 182.265 57.1658 182.381Z" fill="#E0E0E0"/>
<path d="M35.8383 189.141H27.5566V199.985H35.8383V189.141Z" fill="white"/>
<path d="M57.1658 204.239C57.1658 204.355 46.214 204.444 32.7107 204.444C19.2074 204.444 8.24707 204.355 8.24707 204.239C8.24707 204.123 19.1989 204.023 32.7107 204.023C46.2225 204.023 57.1658 204.123 57.1658 204.239Z" fill="#E0E0E0"/>
<path d="M35.8383 210.999H27.5566V221.844H35.8383V210.999Z" fill="white"/>
<path d="M57.1658 226.097C57.1658 226.213 46.214 226.302 32.7107 226.302C19.2074 226.302 8.24707 226.213 8.24707 226.097C8.24707 225.981 19.1989 225.892 32.7107 225.892C46.2225 225.892 57.1658 225.981 57.1658 226.097Z" fill="#E0E0E0"/>
<path d="M570.224 84.5205C570.928 81.3302 563.68 78.7296 558.23 78.4348C555.636 78.3032 552.932 78.5506 550.473 78.0189C545.142 76.866 543.014 72.586 537.809 71.2225C533.918 70.2012 529.434 71.1119 525.671 72.2754C521.907 73.4388 518.169 74.9339 513.956 75.1024C510.294 75.2498 506.327 74.4022 503.106 75.5183C500.715 76.3448 499.461 78.0557 497.257 79.0665C495.053 80.0773 492.298 80.2615 489.628 80.351C486.958 80.4405 484.186 80.4563 481.753 81.1512C479.32 81.8462 477.303 83.4413 477.812 85.0733L570.224 84.5205Z" fill="#F5F5F5"/>
<path d="M591.898 198.111H513.201V233.246H591.898V198.111Z" fill="#EBEBEB"/>
<path d="M534.309 198.111C534.427 198.111 534.309 205.529 534.309 205.529H528.485V198.111H534.309Z" fill="#F5F5F5"/>
<path d="M552.551 233.246H591.899V198.111H552.551V233.246Z" fill="#E0E0E0"/>
<path d="M526.137 226.371H515.601V230.998H526.137V226.371Z" fill="white"/>
<path d="M533.351 226.371H528.087V230.998H533.351V226.371Z" fill="white"/>
<path d="M584.423 175.232H533.182V198.111H584.423V175.232Z" fill="#EBEBEB"/>
<path d="M546.93 175.232C546.998 175.232 546.93 180.065 546.93 180.065H543.133V175.232H546.93Z" fill="#F5F5F5"/>
<path d="M558.806 198.111H584.423V175.232H558.806V198.111Z" fill="#E0E0E0"/>
<path d="M541.608 193.631H534.75V196.648H541.608V193.631Z" fill="white"/>
<path d="M546.303 193.631H542.87V196.648H546.303V193.631Z" fill="white"/>
<path d="M60.6581 23.1896C61.0565 21.3839 56.9538 19.894 53.8768 19.7414C52.4018 19.6677 50.876 19.8046 49.4774 19.5045C46.4597 18.8517 45.2391 16.43 42.3061 15.6562C40.1022 15.0771 37.5677 15.593 35.4316 16.2616C33.2955 16.9302 31.1932 17.7672 28.8028 17.8409C26.726 17.9251 24.4713 17.4461 22.6573 18.0778C21.301 18.5464 20.589 19.515 19.3429 20.0836C18.0438 20.5838 16.5395 20.8397 15.0113 20.8206C13.4922 20.7938 11.9789 20.9475 10.5526 21.2733C9.1709 21.6629 8.0096 22.5684 8.31476 23.4949L60.6581 23.1896Z" fill="#EBEBEB"/>
<path d="M584.517 59.867C584.907 58.1035 580.906 56.6557 577.897 56.5031C576.464 56.4346 574.972 56.5662 573.608 56.2767C570.666 55.6344 569.488 53.2707 566.614 52.5179C564.47 51.9598 561.995 52.46 559.909 53.1075C557.824 53.755 555.764 54.5815 553.442 54.6868C551.416 54.7711 549.203 54.3025 547.449 54.9185C546.126 55.3765 545.44 56.3188 544.219 56.8768C542.945 57.3615 541.474 57.6082 539.981 57.5875C538.499 57.5633 537.024 57.7133 535.632 58.0297C534.284 58.4088 533.174 59.2932 533.454 60.1934L584.517 59.867Z" fill="#EBEBEB"/>
<path d="M150.773 34.3766C151.502 31.0758 143.992 28.3593 138.372 28.0592C135.676 27.9276 132.887 28.1803 130.344 27.6328C124.826 26.4378 122.622 22.0104 117.239 20.5995C113.213 19.5466 108.585 20.4837 104.685 21.705C100.786 22.9264 96.9293 24.4583 92.5723 24.6321C88.7748 24.7847 84.6636 23.9108 81.3408 25.0585C78.8741 25.9166 77.5771 27.6907 75.2969 28.7436C73.0167 29.7965 70.1685 29.9808 67.3967 30.0755C64.6248 30.1703 61.7682 30.1861 59.2506 30.902C56.733 31.618 54.6563 33.271 55.1733 34.9609L150.773 34.3766Z" fill="#F5F5F5"/>
<path d="M472.322 233.246C472.322 233.325 391.934 233.383 292.805 233.383C193.675 233.383 113.287 233.325 113.287 233.246C113.287 233.167 193.659 233.109 292.831 233.109C392.003 233.109 472.322 233.173 472.322 233.246Z" fill="#263238"/>
<path d="M256.885 211.204C257.444 211.335 257.971 211.577 258.434 211.916C258.898 212.255 259.288 212.685 259.581 213.178C260.164 214.169 260.512 215.28 260.597 216.426C260.828 218.632 260.07 221.075 259.144 223.081C256.985 221.896 255.985 219.232 255.527 217.848C254.843 215.658 254.932 211.283 256.885 211.204Z" fill="#F29A41"/>
<path d="M262.029 226.171C261.771 225.582 261.672 224.936 261.743 224.297C261.814 223.659 262.053 223.05 262.434 222.533C262.826 222.024 263.315 221.598 263.872 221.28C264.43 220.962 265.045 220.758 265.682 220.68C265.971 220.612 266.271 220.608 266.561 220.669C266.852 220.73 267.125 220.854 267.362 221.033C267.552 221.234 267.686 221.483 267.749 221.753C267.813 222.022 267.805 222.304 267.725 222.57C267.551 223.098 267.243 223.571 266.83 223.944C265.477 225.271 263.924 226.313 262.029 226.171Z" fill="#F29A41"/>
<path d="M261.16 233.273C261.132 233.123 261.119 232.972 261.123 232.82C261.123 232.494 261.096 232.078 261.081 231.578C260.991 230.202 261.125 228.82 261.476 227.487C261.851 226.149 262.578 224.937 263.581 223.976C263.886 223.691 264.224 223.444 264.587 223.239C264.685 223.18 264.787 223.129 264.892 223.086C264.961 223.054 264.997 223.039 265.003 223.044C264.521 223.337 264.069 223.677 263.655 224.06C262.699 225.029 262.004 226.225 261.633 227.534C261.287 228.853 261.142 230.216 261.202 231.578C261.202 232.104 261.202 232.525 261.202 232.82C261.202 232.972 261.188 233.123 261.16 233.273Z" fill="#263238"/>
<path d="M257.122 214.552C257.15 214.611 257.171 214.673 257.185 214.737C257.227 214.879 257.274 215.063 257.337 215.263C257.469 215.742 257.653 216.432 257.864 217.29C258.301 219.001 258.869 221.37 259.443 224.007C260.017 226.645 260.47 229.035 260.78 230.777C260.933 231.646 261.054 232.357 261.128 232.836C261.165 233.067 261.191 233.257 261.212 233.399C261.217 233.466 261.217 233.532 261.212 233.599C261.187 233.536 261.169 233.471 261.159 233.404C261.128 233.262 261.091 233.078 261.044 232.846C260.949 232.346 260.812 231.646 260.649 230.798C260.312 229.066 259.833 226.671 259.269 224.039C258.706 221.407 258.148 219.032 257.743 217.316C257.543 216.469 257.38 215.779 257.264 215.279L257.137 214.752C257.125 214.686 257.119 214.619 257.122 214.552Z" fill="#263238"/>
<path d="M259.186 228.166C258.68 226.91 257.882 225.793 256.859 224.907C255.835 224.021 254.616 223.391 253.301 223.07C252.632 222.912 251.8 222.896 251.4 223.46C251 224.023 251.295 224.802 251.674 225.376C252.491 226.558 253.64 227.472 254.976 228.002C256.312 228.532 257.775 228.655 259.181 228.356" fill="#F29A41"/>
<path d="M254.043 225.05C254.186 225.061 254.327 225.087 254.464 225.129C254.628 225.166 254.79 225.211 254.949 225.265C255.138 225.334 255.354 225.386 255.58 225.492C255.832 225.59 256.078 225.703 256.317 225.829C256.595 225.967 256.863 226.122 257.123 226.292C257.721 226.682 258.272 227.14 258.765 227.655C259.252 228.178 259.676 228.756 260.029 229.377C260.18 229.648 260.315 229.927 260.434 230.214C260.542 230.462 260.637 230.715 260.718 230.972C260.786 231.185 260.842 231.401 260.887 231.62C260.931 231.782 260.963 231.947 260.982 232.114C261.012 232.255 261.028 232.397 261.029 232.541C260.992 232.541 260.924 231.935 260.608 231.009C260.523 230.756 260.425 230.508 260.313 230.267C260.191 229.986 260.052 229.714 259.897 229.451C259.546 228.844 259.127 228.279 258.649 227.766C258.173 227.262 257.643 226.81 257.07 226.418C256.815 226.247 256.552 226.088 256.28 225.945C256.033 225.802 255.786 225.697 255.565 225.597C254.633 225.207 254.033 225.081 254.043 225.05Z" fill="#263238"/>
<path d="M424.532 227.713C424.732 226.945 424.227 226.171 423.658 225.608C423.09 225.044 422.411 224.555 422.116 223.807C421.637 222.607 422.279 221.054 421.463 220.054C420.984 219.464 420.126 219.264 419.699 218.638C419.502 218.289 419.372 217.907 419.315 217.511C418.86 215.518 417.878 213.683 416.472 212.199C416.38 213.976 416.766 215.744 417.588 217.321C417.974 217.927 418.257 218.592 418.425 219.29C418.604 220.433 417.967 221.607 418.246 222.728C418.568 224.007 420.005 224.865 420.073 226.181C420.131 227.298 419.157 228.287 419.231 229.393C419.291 229.866 419.46 230.318 419.726 230.714C420.109 231.451 420.692 232.065 421.408 232.487C422.124 232.909 422.944 233.121 423.774 233.099L426.127 233.183L424.532 227.713Z" fill="#F29A41"/>
<g opacity="0.3">
<path d="M424.532 227.713C424.732 226.945 424.227 226.171 423.658 225.608C423.09 225.044 422.411 224.555 422.116 223.807C421.637 222.607 422.279 221.054 421.463 220.054C420.984 219.464 420.126 219.264 419.699 218.638C419.502 218.289 419.372 217.907 419.315 217.511C418.86 215.518 417.878 213.683 416.472 212.199C416.38 213.976 416.766 215.744 417.588 217.321C417.974 217.927 418.257 218.592 418.425 219.29C418.604 220.433 417.967 221.607 418.246 222.728C418.568 224.007 420.005 224.865 420.073 226.181C420.131 227.298 419.157 228.287 419.231 229.393C419.291 229.866 419.46 230.318 419.726 230.714C420.109 231.451 420.692 232.065 421.408 232.487C422.124 232.909 422.944 233.121 423.774 233.099L426.127 233.183L424.532 227.713Z" fill="black"/>
</g>
<path d="M426.601 233.236C426.815 233.274 427.034 233.274 427.248 233.236C427.508 233.198 427.764 233.134 428.012 233.046C428.353 232.924 428.671 232.746 428.954 232.52C429.127 232.38 429.261 232.199 429.344 231.993C429.413 231.766 429.45 231.53 429.454 231.293C429.458 231.038 429.477 230.783 429.512 230.53C429.555 230.262 429.651 230.006 429.796 229.777C430.176 229.291 430.475 228.747 430.681 228.166C430.795 227.482 430.774 226.783 430.618 226.108C430.448 225.378 430.468 224.616 430.675 223.897C430.928 223.165 431.439 222.496 431.697 221.67C431.955 220.843 431.834 219.932 431.892 219.037C431.907 218.586 432.011 218.143 432.197 217.732C432.386 217.316 432.65 216.926 432.855 216.489C433.214 215.571 433.418 214.6 433.46 213.615C433.518 213.12 433.576 212.62 433.629 212.115C433.663 211.605 433.752 211.1 433.892 210.609C434.048 210.113 434.236 209.628 434.455 209.156C434.565 208.908 434.656 208.653 434.729 208.393C434.771 208.119 434.787 207.866 434.803 207.587C434.829 207.044 434.808 206.5 434.74 205.961C434.676 205.434 434.576 204.876 434.518 204.334V204.239V204.134L434.424 204.181C433.925 204.43 433.491 204.79 433.155 205.234C432.83 205.672 432.57 206.154 432.381 206.666C432.043 207.668 431.798 208.699 431.649 209.746C431.499 210.744 431.171 211.706 430.681 212.588C430.423 213.004 430.112 213.389 429.838 213.794C429.547 214.193 429.347 214.651 429.254 215.136C429.117 216.131 429.665 217.005 429.549 217.885C429.498 218.318 429.352 218.735 429.122 219.106C428.907 219.48 428.659 219.827 428.417 220.159C428.174 220.5 427.964 220.863 427.791 221.243C427.623 221.615 427.525 222.015 427.501 222.422C427.443 223.212 427.554 223.965 427.501 224.676C427.437 225.351 427.24 226.008 426.922 226.608C426.638 227.187 426.322 227.708 426.059 228.187C425.926 228.432 425.807 228.683 425.701 228.94C425.606 229.179 425.537 229.428 425.495 229.682C425.43 230.127 425.43 230.579 425.495 231.025C425.56 231.646 425.793 232.237 426.169 232.736C426.228 232.807 426.292 232.876 426.359 232.941C426.407 232.99 426.46 233.034 426.517 233.072L426.648 233.167C426.482 233.032 426.331 232.88 426.195 232.714C425.83 232.217 425.607 231.629 425.553 231.014C425.501 230.574 425.512 230.129 425.585 229.693C425.631 229.444 425.702 229.201 425.795 228.966C425.902 228.714 426.021 228.468 426.153 228.229C426.417 227.703 426.738 227.208 427.027 226.624C427.354 226.015 427.558 225.347 427.627 224.66C427.69 223.933 427.58 223.175 427.627 222.401C427.653 222.008 427.749 221.623 427.912 221.264C428.085 220.894 428.293 220.542 428.533 220.211C428.77 219.864 429.022 219.517 429.244 219.132C429.484 218.747 429.636 218.314 429.691 217.863C429.807 216.921 429.265 216.042 429.401 215.121C429.494 214.656 429.688 214.217 429.97 213.836C430.233 213.436 430.549 213.057 430.812 212.625C431.316 211.73 431.651 210.751 431.802 209.735C431.954 208.698 432.197 207.676 432.529 206.682C432.715 206.184 432.97 205.714 433.287 205.287C433.605 204.857 434.02 204.507 434.497 204.265L434.392 204.202V204.297C434.45 204.85 434.55 205.387 434.613 205.924C434.676 206.448 434.695 206.976 434.671 207.503C434.665 207.766 434.642 208.028 434.603 208.287C434.535 208.54 434.447 208.786 434.339 209.024C434.118 209.501 433.928 209.992 433.771 210.493C433.63 210.991 433.542 211.503 433.508 212.02C433.45 212.546 433.392 213.031 433.339 213.526C433.298 214.494 433.099 215.449 432.75 216.353C432.555 216.779 432.292 217.174 432.092 217.606C431.901 218.032 431.796 218.492 431.781 218.958C431.728 219.864 431.844 220.754 431.602 221.554C431.36 222.354 430.844 223.023 430.586 223.781C430.375 224.518 430.356 225.298 430.533 226.044C430.689 226.707 430.716 227.393 430.612 228.066C430.408 228.635 430.115 229.168 429.744 229.645C429.596 229.885 429.497 230.152 429.454 230.43C429.422 230.685 429.404 230.941 429.401 231.198C429.402 231.43 429.368 231.661 429.301 231.883C429.222 232.075 429.098 232.245 428.938 232.378C428.662 232.603 428.351 232.78 428.017 232.904C427.773 232.995 427.521 233.062 427.264 233.104C427.106 233.136 426.946 233.152 426.785 233.151L426.601 233.236Z" fill="#263238"/>
<path d="M434.008 205.539C434.006 205.564 434.006 205.589 434.008 205.613L433.955 205.824C433.908 206.008 433.855 206.287 433.766 206.64C433.676 206.992 433.46 207.377 433.276 207.866C433.061 208.411 432.875 208.966 432.718 209.53C432.539 210.162 432.381 210.857 432.192 211.599C432.051 212.397 431.797 213.172 431.439 213.899C431.249 214.278 431.028 214.668 430.86 215.089C430.689 215.522 430.574 215.975 430.518 216.437C430.393 217.393 430.217 218.342 429.991 219.28C429.523 221.206 429.07 223.044 428.664 224.713C428.259 226.381 427.864 227.871 427.548 229.145C427.232 230.419 426.985 231.414 426.811 232.135C426.727 232.478 426.664 232.751 426.617 232.946L426.569 233.162C426.567 233.186 426.567 233.211 426.569 233.236C426.569 233.236 426.569 233.209 426.595 233.162L426.659 232.957C426.711 232.757 426.785 232.488 426.88 232.146C427.064 231.43 427.333 230.419 427.664 229.172C427.996 227.924 428.375 226.408 428.807 224.749C429.238 223.091 429.675 221.243 430.149 219.316C430.374 218.373 430.55 217.419 430.675 216.458C430.731 216.008 430.841 215.566 431.002 215.142C431.17 214.731 431.381 214.347 431.576 213.957C431.932 213.22 432.184 212.437 432.323 211.63C432.486 210.883 432.639 210.188 432.808 209.561C432.976 208.935 433.166 208.377 433.334 207.893C433.502 207.408 433.713 207.013 433.797 206.65C433.881 206.287 433.924 206.018 433.96 205.829L434.008 205.603C434.008 205.566 434.008 205.539 434.008 205.539Z" fill="#263238"/>
<path d="M427.017 233.241C428.554 232.33 428.991 229.556 428.354 227.892C427.717 226.229 426.591 224.702 426.417 222.923C426.285 221.554 426.733 220.154 426.417 218.816C425.991 217.016 424.232 215.621 424.248 213.768C424.248 212.715 424.853 211.746 424.806 210.709C424.748 209.435 423.753 208.424 423.164 207.303C422.237 205.582 422.179 203.555 421.858 201.628C421.537 199.701 420.805 197.638 419.099 196.69C418.852 198.327 418.42 199.449 418.573 201.66C418.626 202.46 419.547 203.981 419.673 205.724C419.747 206.777 419.8 207.83 419.863 208.851C419.876 209.87 420.042 210.882 420.358 211.852C420.637 212.578 421.084 213.241 421.289 213.989C421.679 215.405 421.168 216.937 421.484 218.369C421.747 219.58 422.59 220.622 422.758 221.854C423 223.581 421.884 225.376 422.453 227.024C422.737 227.845 423.411 228.503 423.6 229.345C423.753 230.003 423.6 230.693 423.722 231.351C423.937 232.404 425.964 233.236 427.043 233.173" fill="#F29A41"/>
<path d="M419.521 198.317C419.521 198.317 419.521 198.348 419.521 198.406L419.557 198.675C419.589 198.912 419.631 199.259 419.71 199.728C419.789 200.196 420.026 200.686 420.236 201.307C420.447 201.928 420.626 202.623 420.8 203.413C420.973 204.202 421.121 205.071 421.274 206.008C421.396 207.02 421.662 208.009 422.063 208.946C422.274 209.44 422.516 209.93 422.7 210.451C422.876 210.99 422.984 211.549 423.021 212.115C423.108 213.314 423.26 214.507 423.474 215.689C423.943 218.111 424.39 220.427 424.801 222.533C425.211 224.639 425.617 226.508 425.943 228.098C426.27 229.687 426.538 230.951 426.728 231.846C426.817 232.278 426.891 232.62 426.943 232.862L427.007 233.125L427.033 233.215C427.035 233.185 427.035 233.155 427.033 233.125L426.985 232.857C426.938 232.615 426.875 232.267 426.796 231.83C426.617 230.935 426.364 229.656 426.059 228.077C425.754 226.497 425.338 224.555 424.922 222.449C424.506 220.343 424.074 218.043 423.606 215.605C423.393 214.426 423.242 213.236 423.153 212.041C423.113 211.465 423.001 210.895 422.821 210.346C422.632 209.819 422.39 209.319 422.174 208.835C421.776 207.908 421.509 206.93 421.379 205.929C421.221 204.992 421.068 204.118 420.884 203.328C420.725 202.617 420.53 201.914 420.3 201.223C420.105 200.612 419.863 200.107 419.773 199.643C419.684 199.18 419.636 198.848 419.589 198.617C419.589 198.506 419.552 198.422 419.542 198.354C419.535 198.341 419.528 198.329 419.521 198.317Z" fill="#263238"/>
<path d="M382.185 163.766H148.406V187.13H382.185V163.766Z" fill="#F29A41"/>
<g opacity="0.4">
<path d="M382.185 163.766H148.406V187.13H382.185V163.766Z" fill="black"/>
</g>
<path d="M331.535 190.078H262.528V211.715H331.535V190.078Z" fill="#455A64"/>
<path d="M214.307 180.291V208.893H237.87L247.315 195.205H419.362V180.291H214.307Z" fill="#263238"/>
<path d="M212.837 89.7217C212.812 89.2618 212.606 88.8304 212.266 88.5203C211.925 88.2102 211.476 88.0461 211.016 88.0634C201.703 88.4477 157.492 90.4745 148.401 94.844C141.441 98.1922 133.818 110.69 128.443 119.108C124.59 125.141 116.077 138.534 114.355 145.383C112.897 151.174 112.018 163.219 112.118 169.194L114.55 200.812H154.618L158.629 190.367C159.91 187.04 162.168 184.179 165.107 182.162C168.045 180.144 171.527 179.064 175.091 179.065H214.906V126.594L212.837 89.7217Z" fill="#F29A41"/>
<path d="M143.652 98.3448C138.135 103.609 132.597 112.559 128.443 119.108C124.874 124.693 117.314 136.586 114.845 143.756C114.798 143.888 114.761 144.014 114.719 144.146C115.94 143.809 117.82 143.119 118.404 141.961C119.283 140.208 120.41 134.201 134.339 111.527C138.572 104.615 142.699 100.572 143.652 98.3448Z" fill="#455A64"/>
<path d="M192.254 96.0022C182.009 96.5865 159.799 98.108 152.702 100.519C143.458 103.678 133.082 128.152 132.592 129.226L125.601 147.125C125.562 147.242 125.551 147.367 125.569 147.489C125.588 147.611 125.635 147.727 125.707 147.827C125.779 147.927 125.873 148.009 125.983 148.065C126.093 148.122 126.215 148.152 126.338 148.152H144.411C145.095 148.152 145.774 148.031 146.417 147.794L193.949 130.074C194.999 129.682 195.904 128.979 196.542 128.059C197.181 127.139 197.524 126.045 197.524 124.925V100.988C197.524 100.309 197.386 99.6365 197.117 99.0127C196.849 98.3889 196.456 97.8264 195.963 97.3597C195.47 96.893 194.886 96.5319 194.248 96.2985C193.611 96.065 192.932 95.9642 192.254 96.0022Z" fill="#263238"/>
<path d="M127.616 146.393C127.616 146.393 134.313 131.374 136.566 126.452C139.967 119.018 147.911 103.815 153.275 102.177C158.208 100.698 172.39 98.8976 192.353 97.7552H192.543C193.4 97.758 194.221 98.1002 194.827 98.7069C195.433 99.3136 195.774 100.136 195.775 100.993V125.473C195.773 126.076 195.588 126.664 195.244 127.16C194.9 127.655 194.413 128.034 193.848 128.247L158.729 132.58C157.321 132.753 155.968 133.231 154.764 133.98C153.559 134.729 152.532 135.732 151.754 136.917L145.668 146.199C145.311 146.331 144.933 146.399 144.552 146.399L127.616 146.393Z" fill="#455A64"/>
<path d="M157.455 132.848L145.516 146.146L152.123 101.993L153.776 101.425L150.522 134.133C150.507 134.297 150.534 134.462 150.601 134.613C150.668 134.764 150.772 134.895 150.904 134.994C151.036 135.092 151.192 135.156 151.355 135.177C151.519 135.199 151.685 135.178 151.838 135.117L157.455 132.848Z" fill="#263238"/>
<path d="M111.334 172.263C111.292 171.689 111.487 171.21 111.781 171.21L118.183 170.62C118.709 170.568 119.199 171.563 119.262 172.726L119.552 177.638C119.599 178.428 119.362 179.096 119.025 179.154L112.497 180.281C112.202 180.333 111.918 179.896 111.876 179.317L111.334 172.263Z" fill="#EBEBEB"/>
<path d="M157.456 195.211H111.329V213.705H157.456V195.211Z" fill="#263238"/>
<path d="M188.247 233.021C202.175 232.486 213.032 220.761 212.497 206.833C211.962 192.905 200.237 182.048 186.309 182.583C172.381 183.118 161.524 194.843 162.059 208.771C162.594 222.699 174.318 233.556 188.247 233.021Z" fill="#263238"/>
<path d="M162.063 207.366C162.066 207.389 162.066 207.412 162.063 207.435C161.974 214.123 164.544 220.572 169.208 225.366C173.872 230.16 180.248 232.907 186.935 233.003C193.623 233.099 200.075 230.537 204.875 225.879C209.674 221.221 212.429 214.849 212.533 208.161C212.533 208.161 212.533 208.119 212.533 208.098L162.063 207.366Z" fill="#263238"/>
<path d="M169.574 207.54C169.522 211.045 170.511 214.486 172.415 217.429C174.32 220.371 177.054 222.683 180.272 224.072C183.49 225.46 187.048 225.863 190.495 225.23C193.942 224.596 197.124 222.955 199.639 220.513C202.153 218.071 203.886 214.938 204.62 211.51C205.354 208.083 205.054 204.515 203.76 201.258C202.466 198 200.234 195.2 197.349 193.211C194.463 191.222 191.052 190.133 187.547 190.083C182.849 190.016 178.316 191.817 174.946 195.09C171.576 198.364 169.644 202.842 169.574 207.54Z" fill="#FAFAFA"/>
<path d="M187.547 190.083C182.849 190.016 178.317 191.817 174.946 195.09C171.576 198.364 169.644 202.842 169.574 207.54L205.009 208.066C205.078 203.366 203.277 198.831 200.002 195.458C196.728 192.086 192.247 190.152 187.547 190.083Z" fill="#E0E0E0"/>
<path d="M176.502 207.64C176.471 209.774 177.074 211.87 178.234 213.662C179.394 215.454 181.059 216.861 183.019 217.707C184.979 218.552 187.146 218.797 189.246 218.411C191.345 218.025 193.283 217.025 194.814 215.537C196.345 214.05 197.4 212.141 197.847 210.054C198.293 207.967 198.11 205.794 197.322 203.81C196.533 201.827 195.174 200.121 193.416 198.91C191.659 197.699 189.581 197.036 187.447 197.006C184.585 196.965 181.825 198.062 179.773 200.057C177.72 202.051 176.544 204.779 176.502 207.64Z" fill="#263238"/>
<path d="M138.34 112.032H136.282C133.962 112.032 132.081 113.913 132.081 116.234V132.938C132.081 135.258 133.962 137.139 136.282 137.139H138.34C140.661 137.139 142.542 135.258 142.542 132.938V116.234C142.542 113.913 140.661 112.032 138.34 112.032Z" fill="#263238"/>
<path d="M127.754 152.658H127.228V126.11C127.229 124.844 127.732 123.63 128.628 122.735C129.523 121.84 130.736 121.336 132.002 121.335H133.266V121.861H132.002C130.876 121.863 129.796 122.311 129 123.107C128.203 123.903 127.755 124.983 127.754 126.11V152.658Z" fill="#263238"/>
<path d="M131.339 152.69L129.876 127.868C129.855 127.443 129.92 127.019 130.068 126.621C130.215 126.222 130.441 125.857 130.732 125.548C131.024 125.239 131.375 124.992 131.764 124.822C132.153 124.651 132.573 124.561 132.998 124.557V125.083C132.643 125.083 132.293 125.156 131.967 125.296C131.642 125.436 131.349 125.642 131.106 125.9C130.863 126.158 130.675 126.462 130.554 126.795C130.433 127.128 130.381 127.483 130.402 127.836L131.866 152.663L131.339 152.69Z" fill="#263238"/>
<path d="M132.997 150.268H125.9V158.486H132.997V150.268Z" fill="#263238"/>
<path d="M130.375 134.67H127.49V135.196H130.375V134.67Z" fill="#263238"/>
<path d="M154.465 96.713L155.092 96.6287L156.939 96.4129L164.099 95.5864L190.79 92.5488C192.211 92.3961 193.659 92.2066 195.159 92.075C195.926 92.0166 196.697 92.0662 197.449 92.2224C198.215 92.4014 198.953 92.6811 199.645 93.0542C201.071 93.8482 202.228 95.0509 202.966 96.5077C203.348 97.2523 203.606 98.0543 203.73 98.8819C203.796 99.3 203.833 99.7222 203.84 100.145V101.414C203.84 108.211 203.84 115.507 203.84 123.241C203.84 138.707 203.84 155.912 203.84 174.306V174.443H176.112C174.53 174.39 172.945 174.466 171.374 174.669C168.134 175.135 165.078 176.458 162.52 178.5C159.962 180.543 157.995 183.231 156.824 186.288C156.596 186.849 156.404 187.424 156.25 188.009C156.079 188.588 155.943 189.177 155.844 189.773L155.707 190.668L155.644 191.115L155.618 191.563L155.576 192.463V192.915V192.968C155.692 192.852 155.413 193.147 155.434 193.116H120.272V192.968C120.272 185.035 120.272 177.385 120.272 170.078C120.272 166.425 120.272 162.857 120.272 159.376V154.227C120.272 153.379 120.272 152.542 120.272 151.705C120.29 150.873 120.349 150.042 120.451 149.215C120.853 146.03 121.865 142.952 123.431 140.15C124.881 137.423 126.284 134.791 127.643 132.253L135.108 118.266L141.167 106.91C141.609 106.085 142.034 105.287 142.441 104.515C142.652 104.136 142.836 103.752 143.057 103.394C143.275 103.044 143.512 102.706 143.768 102.383C144.681 101.244 145.755 100.246 146.958 99.4189C148.614 98.2946 150.466 97.4894 152.417 97.0446C153.087 96.8839 153.768 96.7731 154.455 96.713L153.928 96.7919C153.586 96.8446 153.08 96.9341 152.417 97.0867C150.477 97.5454 148.639 98.3593 146.995 99.4873C145.802 100.315 144.738 101.314 143.836 102.451C143.581 102.769 143.347 103.103 143.136 103.451C142.92 103.799 142.736 104.188 142.525 104.573L141.257 106.973L135.25 118.339C132.997 122.582 130.512 127.263 127.827 132.337L123.615 140.234C122.063 143.015 121.064 146.07 120.673 149.231C120.572 150.051 120.514 150.875 120.499 151.7C120.499 152.527 120.499 153.374 120.499 154.217V159.365C120.499 162.843 120.499 166.411 120.499 170.068C120.499 177.375 120.499 185.024 120.499 192.958L120.367 192.831H155.392C155.428 192.805 155.139 193.084 155.26 192.958V192.9V192.447L155.307 191.531V191.078L155.376 190.625L155.513 189.715C155.613 189.11 155.75 188.512 155.923 187.925C156.081 187.33 156.276 186.747 156.508 186.177C157.698 183.076 159.694 180.348 162.29 178.276C164.885 176.203 167.987 174.86 171.274 174.385C172.845 174.185 174.43 174.109 176.012 174.158H203.614L203.477 174.29C203.477 155.917 203.477 138.713 203.477 123.225C203.477 115.491 203.477 108.195 203.477 101.398C203.511 100.563 203.476 99.7269 203.372 98.8977C203.252 98.0887 203.001 97.3045 202.629 96.5761C201.915 95.1521 200.786 93.9776 199.392 93.2068C198.72 92.8389 198.001 92.5644 197.254 92.3909C196.519 92.2357 195.766 92.1844 195.017 92.2382C193.527 92.3645 192.069 92.5541 190.653 92.7067L163.967 95.6601L156.802 96.4445L154.955 96.6393L154.465 96.713Z" fill="#263238"/>
<path d="M195.439 154.896C195.439 154.896 195.586 154.896 195.85 154.832C196.237 154.764 196.606 154.617 196.934 154.401C197.452 154.061 197.84 153.557 198.034 152.969C198.153 152.602 198.202 152.216 198.177 151.832C198.165 151.405 198.055 150.987 197.855 150.61C197.626 150.179 197.286 149.817 196.869 149.562C196.452 149.308 195.975 149.17 195.486 149.163H192.012H184.052C183.389 149.163 182.75 149.408 182.256 149.85C181.762 150.291 181.447 150.899 181.372 151.558C181.29 152.183 181.406 152.818 181.704 153.374C182 153.9 182.463 154.311 183.02 154.543C183.571 154.734 184.156 154.806 184.736 154.753H186.421H189.448L193.833 154.796H195.028C195.166 154.793 195.304 154.803 195.439 154.827C195.303 154.844 195.166 154.852 195.028 154.853H193.833L189.448 154.896H186.421H184.736C184.442 154.896 184.157 154.896 183.847 154.896C183.531 154.872 183.22 154.801 182.925 154.685C182.317 154.432 181.809 153.984 181.483 153.411C181.156 152.808 181.027 152.117 181.114 151.437C181.196 150.714 181.54 150.046 182.082 149.561C182.624 149.076 183.325 148.806 184.052 148.805H192.012H195.486C196.246 148.82 196.97 149.13 197.504 149.669C198.039 150.209 198.342 150.935 198.35 151.695C198.367 152.097 198.308 152.499 198.177 152.879C197.96 153.491 197.542 154.01 196.992 154.353C196.649 154.567 196.262 154.702 195.86 154.748C195.726 154.814 195.585 154.864 195.439 154.896Z" fill="#263238"/>
<path d="M194.476 148.283C192.976 148.415 191.469 148.459 189.964 148.415C188.457 148.459 186.949 148.415 185.447 148.283C186.949 148.148 188.457 148.102 189.964 148.147C191.469 148.102 192.976 148.148 194.476 148.283Z" fill="white"/>
<path d="M159.556 213.857L155.345 213.552C156.445 198.469 158.056 189.446 160.272 185.966C164.526 179.281 168.753 178.07 173.433 177.275C177.792 176.532 182.188 176.706 186.442 176.88L187.495 176.922C196.276 177.264 214.67 176.959 214.87 176.959L214.938 181.17C214.754 181.17 196.244 181.481 187.347 181.134L186.294 181.092C182.257 180.934 178.087 180.76 174.16 181.434C169.975 182.144 167.19 182.96 163.831 188.235C162.815 189.809 160.909 195.279 159.556 213.857Z" fill="#263238"/>
<path d="M424.521 42.0469H217.112V180.144H424.521V42.0469Z" fill="#F29A41"/>
<path d="M422.036 177.412C422.036 176.522 421.994 125.873 421.925 45.1687L422.036 45.274L219.355 45.3056L219.492 45.1687C219.492 92.175 219.492 136.918 219.492 177.412L219.365 177.285L422.046 177.412L219.365 177.538H219.218V177.412C219.218 136.918 219.218 92.175 219.218 45.1687V45.0371H219.37L422.052 45.0634H422.162V45.174C422.078 125.873 422.036 176.527 422.036 177.412Z" fill="#263238"/>
<g opacity="0.5">
<path d="M246.52 116.128L248.478 155.627L402.3 123.63L399.578 82.4568L246.52 116.128Z" fill="black"/>
</g>
<path d="M258.175 143.482L259.228 139.797C261.287 140.683 263.572 140.9 265.761 140.418C268.114 139.892 269.446 138.776 269.135 137.423C268.498 134.459 259.659 138.018 258.38 132.111C257.564 128.3 260.37 125.12 265.508 124.02C267.998 123.493 270.42 123.546 272.257 124.23L271.336 127.847C269.63 127.205 267.773 127.083 265.998 127.494C263.508 128.021 262.255 129.295 262.539 130.621C263.171 133.669 272.041 130.095 273.268 135.796C274.089 139.639 271.231 142.829 266.066 143.935C263.055 144.588 260.002 144.298 258.175 143.482Z" fill="white"/>
<path d="M293.173 118.397L293.442 137.728L289.151 138.649L289.041 130.779L280.644 132.58L280.76 140.476L276.437 141.376L276.169 122.04L280.486 121.114L280.591 128.71L288.988 126.91L288.883 119.313L293.173 118.397Z" fill="white"/>
<path d="M297.563 117.455L301.87 116.528L302.138 135.859L297.821 136.786L297.563 117.455Z" fill="white"/>
<path d="M322.243 118.213C323.254 122.925 320.417 126.636 314.873 127.799L310.741 128.684L310.82 134.006L306.503 134.933L306.25 115.581L313.747 114.001C318.379 112.985 321.464 114.57 322.243 118.213ZM317.979 119.513C317.595 117.713 316.142 117.139 313.968 117.607L310.604 118.329L310.688 125.041L314.315 124.262C317.137 123.641 318.506 121.961 317.979 119.497V119.513Z" fill="white"/>
<path d="M341.353 114.091C342.364 118.829 339.526 122.514 333.983 123.677L329.856 124.567L329.945 129.89L325.628 130.816L325.354 111.485L332.851 109.874C337.5 108.879 340.585 110.464 341.353 114.091ZM337.089 115.396C336.705 113.591 335.246 113.017 333.077 113.485L329.713 114.207L329.798 120.924L333.425 120.145C336.268 119.534 337.626 117.855 337.099 115.396H337.089Z" fill="white"/>
<path d="M344.512 107.379L348.829 106.452L349.102 125.788L344.785 126.715L344.512 107.379Z" fill="white"/>
<path d="M370.181 101.893L370.455 121.224L366.928 121.982L357.53 111.843L357.688 123.951L353.477 124.862L353.203 105.526L356.751 104.762L366.159 114.907L365.969 102.799L370.181 101.893Z" fill="white"/>
<path d="M387.254 107.594L391.176 106.752L391.276 114.707C389.538 116.646 387.218 117.97 384.664 118.481C379.047 119.687 374.799 117.192 373.772 112.401C372.414 106.084 376.02 100.293 383.037 98.7765C386.586 98.0132 389.423 98.5923 391.461 100.356L388.923 103.515C387.344 102.298 385.701 102.046 383.659 102.488C379.316 103.42 377.204 107.142 378.078 111.222C378.673 114.001 380.932 115.486 384.454 114.728C385.517 114.511 386.519 114.059 387.386 113.406L387.254 107.594Z" fill="white"/>
<path d="M277.186 79.5823V114.08L364.849 94.8018L364.818 60.704L277.186 79.5823Z" fill="#F29A41"/>
<g opacity="0.3">
<path d="M277.186 79.5823V114.08L364.849 94.8018L364.818 60.704L277.186 79.5823Z" fill="black"/>
</g>
<path d="M374.898 79.5824L405.943 72.3122L404.716 69.0061L374.898 79.5824Z" fill="#FAFAFA"/>
<path d="M235.891 102.814L257.475 97.7605L256.622 95.4652L235.891 102.814Z" fill="#FAFAFA"/>
<path d="M309.787 154.822L340.832 147.546L339.61 144.246L309.787 154.822Z" fill="#FAFAFA"/>
<path d="M350.94 63.0468C350.94 63.1205 334.367 67.0846 313.894 71.8964C293.42 76.7081 276.8 80.5564 276.779 80.4827C276.758 80.409 293.347 76.4448 313.831 71.6331C334.314 66.8214 350.924 62.9731 350.94 63.0468Z" fill="#FAFAFA"/>
<path d="M276.953 110.616C276.953 110.69 269.846 112.196 261.044 113.965C252.242 115.733 245.098 117.123 245.082 117.049C245.066 116.976 252.189 115.47 260.991 113.696C269.793 111.922 276.937 110.543 276.953 110.616Z" fill="#FAFAFA"/>
<path d="M277.233 107.494C277.208 107.404 277.198 107.31 277.201 107.215C277.201 107 277.201 106.736 277.175 106.421C277.175 105.689 277.175 104.699 277.132 103.493C277.132 100.982 277.09 97.5868 277.069 93.8332C277.048 90.0797 276.996 86.6789 276.969 84.173C276.969 82.9674 276.938 81.9777 276.927 81.2459V80.4457C276.914 80.355 276.914 80.2627 276.927 80.172C276.951 80.2612 276.964 80.3533 276.964 80.4457C276.964 80.6616 276.996 80.9195 277.017 81.2407C277.059 81.9303 277.101 82.9306 277.143 84.1677C277.232 86.6367 277.301 90.0534 277.327 93.828C277.354 97.6026 277.327 101.019 277.327 103.488C277.327 104.699 277.296 105.689 277.285 106.421C277.285 106.736 277.285 107 277.259 107.215C277.258 107.309 277.249 107.402 277.233 107.494Z" fill="#FAFAFA"/>
<path d="M187.632 107.442C187.632 107.442 187.569 107.505 187.437 107.605L186.858 108.021C186.331 108.384 185.61 108.89 184.694 109.516C182.857 110.758 180.298 112.454 177.445 114.28C174.592 116.107 171.986 117.723 170.075 118.876C169.127 119.45 168.353 119.929 167.816 120.224L167.195 120.571C167.124 120.617 167.048 120.654 166.969 120.682C166.969 120.682 167.032 120.619 167.164 120.529L167.758 120.129L169.975 118.713L177.287 114.049L184.573 109.353L186.789 107.937L187.4 107.558C187.473 107.511 187.551 107.472 187.632 107.442Z" fill="#FAFAFA"/>
<path d="M178.635 109.821C178.635 109.821 178.571 109.885 178.44 109.985L177.861 110.401C177.334 110.758 176.613 111.269 175.692 111.89C173.855 113.138 171.296 114.828 168.448 116.628C165.6 118.429 162.989 120.077 161.078 121.229C160.13 121.803 159.356 122.282 158.819 122.572L158.198 122.925C158.128 122.971 158.052 123.007 157.972 123.03C158.031 122.972 158.096 122.921 158.166 122.877L158.761 122.482L160.972 121.061L168.29 116.402L175.576 111.706L177.792 110.285L178.398 109.911C178.472 109.871 178.552 109.841 178.635 109.821Z" fill="#FAFAFA"/>
<path d="M134.313 125.146C134.233 125.002 134.178 124.845 134.15 124.683C134.066 124.383 133.95 123.941 133.819 123.393C133.472 121.962 133.296 120.496 133.292 119.024C133.285 117.536 133.627 116.068 134.292 114.738C134.5 114.34 134.751 113.966 135.04 113.622C135.137 113.491 135.255 113.375 135.387 113.28C135.051 113.779 134.742 114.296 134.461 114.828C133.861 116.15 133.554 117.587 133.561 119.039C133.577 120.494 133.733 121.943 134.029 123.367C134.161 123.953 134.256 124.548 134.313 125.146Z" fill="#FAFAFA"/>
<path d="M112.877 162.471C112.858 162.284 112.858 162.095 112.877 161.908C112.877 161.529 112.877 160.981 112.908 160.329C112.95 158.976 113.05 157.107 113.214 155.064C113.377 153.021 113.571 151.147 113.74 149.8C113.824 149.126 113.898 148.584 113.956 148.22C113.976 148.025 114.016 147.833 114.077 147.646C114.103 147.842 114.103 148.04 114.077 148.236L113.94 149.815C113.824 151.226 113.666 153.053 113.493 155.08C113.319 157.107 113.214 158.928 113.113 160.344C113.066 160.976 113.024 161.508 112.992 161.924C112.976 162.11 112.937 162.294 112.877 162.471Z" fill="#FAFAFA"/>
<path d="M170.57 172.689C170.57 172.747 169.554 172.889 167.98 173.4C167.058 173.699 166.159 174.063 165.29 174.49C163.158 175.548 161.23 176.974 159.593 178.701C158.925 179.402 158.308 180.15 157.746 180.939C156.793 182.292 156.345 183.224 156.298 183.197C156.376 182.968 156.475 182.746 156.593 182.534C156.71 182.277 156.844 182.027 156.993 181.786C157.161 181.502 157.345 181.17 157.588 180.828C158.133 180.014 158.742 179.245 159.409 178.528C160.236 177.651 161.136 176.846 162.099 176.122C163.071 175.416 164.104 174.798 165.184 174.274C166.067 173.85 166.982 173.498 167.922 173.221C168.317 173.09 168.69 173.016 169.011 172.937C169.288 172.87 169.567 172.817 169.849 172.779C170.086 172.726 170.327 172.696 170.57 172.689Z" fill="#FAFAFA"/>
<path d="M222.414 140.908C222.408 140.833 222.408 140.757 222.414 140.682C222.414 140.52 222.414 140.299 222.414 140.018C222.414 139.418 222.414 138.56 222.377 137.465C222.346 135.233 222.304 132.027 222.246 128.073C222.104 120.129 221.909 109.184 221.693 97.092C221.477 84.9996 221.293 74.0337 221.219 66.1055C221.182 62.1413 221.172 58.93 221.177 56.7137C221.177 55.6134 221.177 54.7553 221.177 54.1604V53.4971C221.177 53.3445 221.177 53.2708 221.177 53.2708C221.184 53.346 221.184 53.4218 221.177 53.4971C221.177 53.6551 221.177 53.8762 221.177 54.1604C221.177 54.7553 221.177 55.6134 221.214 56.7137C221.245 58.9458 221.288 62.1466 221.346 66.1002C221.488 74.0443 221.682 84.989 221.898 97.0868C222.114 109.184 222.304 120.14 222.372 128.068C222.409 132.037 222.425 135.243 222.419 137.46C222.419 138.56 222.419 139.418 222.419 140.018C222.419 140.297 222.419 140.518 222.419 140.682C222.422 140.757 222.42 140.833 222.414 140.908Z" fill="#FAFAFA"/>
<path d="M374.73 232.992C388.657 232.435 399.496 220.693 398.939 206.766C398.382 192.838 386.64 182 372.713 182.557C358.785 183.113 347.947 194.855 348.504 208.783C349.06 222.71 360.802 233.549 374.73 232.992Z" fill="#263238"/>
<path d="M348.476 207.366C348.476 207.366 348.476 207.414 348.476 207.435C348.38 214.127 350.946 220.583 355.61 225.383C360.274 230.183 366.653 232.934 373.346 233.031C380.038 233.127 386.494 230.561 391.294 225.897C396.094 221.233 398.845 214.853 398.941 208.161V208.098L348.476 207.366Z" fill="#263238"/>
<path d="M355.988 207.54C355.938 211.043 356.927 214.483 358.831 217.424C360.735 220.365 363.468 222.675 366.685 224.062C369.902 225.45 373.459 225.852 376.904 225.219C380.35 224.585 383.531 222.944 386.044 220.503C388.557 218.062 390.29 214.931 391.023 211.505C391.757 208.079 391.458 204.513 390.165 201.257C388.872 198.001 386.642 195.201 383.758 193.212C380.873 191.223 377.464 190.135 373.961 190.083C369.263 190.016 364.731 191.817 361.36 195.09C357.99 198.364 356.057 202.842 355.988 207.54Z" fill="#FAFAFA"/>
<path d="M373.961 190.083C371.635 190.049 369.324 190.474 367.162 191.332C365 192.191 363.028 193.468 361.359 195.089C359.69 196.71 358.356 198.644 357.435 200.78C356.514 202.917 356.022 205.214 355.988 207.54L391.418 208.067C391.454 205.739 391.03 203.428 390.172 201.264C389.314 199.101 388.037 197.127 386.416 195.457C384.795 193.787 382.861 192.453 380.723 191.531C378.586 190.609 376.288 190.117 373.961 190.083Z" fill="#E0E0E0"/>
<path d="M362.938 207.64C362.907 209.774 363.509 211.87 364.669 213.662C365.829 215.454 367.495 216.861 369.455 217.707C371.415 218.552 373.582 218.797 375.681 218.411C377.781 218.025 379.718 217.025 381.249 215.537C382.78 214.05 383.836 212.141 384.282 210.054C384.729 207.967 384.546 205.794 383.757 203.81C382.969 201.827 381.61 200.121 379.852 198.91C378.094 197.699 376.017 197.036 373.882 197.006C371.021 196.965 368.261 198.062 366.208 200.057C364.156 202.051 362.979 204.779 362.938 207.64Z" fill="#263238"/>
<path d="M340.532 214.71C340.532 214.71 336.689 178.912 373.782 178.912C408.001 178.912 407.243 209.698 406.917 214.463H401.552C401.552 214.463 404.285 184.119 373.782 184.119C343.28 184.119 345.933 215.079 345.933 215.079C345.933 215.079 343.68 214.968 340.532 214.71Z" fill="#455A64"/>
<path d="M360.4 182.618C360.308 182.665 360.211 182.701 360.111 182.724C359.916 182.792 359.626 182.86 359.268 182.987C358.239 183.314 357.231 183.706 356.252 184.161C353.009 185.648 350.136 187.836 347.84 190.567C345.544 193.298 343.883 196.504 342.975 199.954C342.697 200.993 342.484 202.048 342.338 203.113C342.28 203.492 342.259 203.787 342.227 203.987C342.218 204.09 342.201 204.192 342.175 204.292C342.162 204.191 342.162 204.088 342.175 203.987C342.175 203.781 342.175 203.46 342.238 203.102C342.342 202.019 342.529 200.946 342.796 199.891C343.659 196.388 345.314 193.13 347.634 190.367C349.954 187.604 352.877 185.411 356.178 183.955C357.171 183.512 358.195 183.143 359.242 182.85C359.61 182.745 359.905 182.687 360.1 182.639C360.199 182.621 360.3 182.614 360.4 182.618Z" fill="#FAFAFA"/>
<path d="M451.513 219.048L455.998 225.797L458.014 232.157C458.048 232.266 458.103 232.367 458.178 232.453C458.252 232.54 458.344 232.61 458.447 232.66C458.549 232.709 458.661 232.737 458.775 232.741C458.89 232.745 459.003 232.725 459.109 232.683C459.238 232.64 459.353 232.565 459.445 232.466C459.537 232.366 459.602 232.246 459.636 232.114C460.046 230.451 461.526 224.323 461.173 223.844C460.82 223.365 456.909 216.416 456.909 216.416L451.513 219.048Z" fill="#455A64"/>
<g opacity="0.6">
<path d="M459.109 232.678L460.857 223.381L461.041 223.67C461.201 223.92 461.267 224.219 461.226 224.513C461.115 225.297 460.757 227.461 459.646 232.093C459.615 232.227 459.55 232.351 459.458 232.453C459.366 232.555 459.25 232.632 459.12 232.678H459.109Z" fill="white"/>
</g>
<g opacity="0.6">
<path d="M458.05 222.059C458.011 222.174 458.012 222.3 458.054 222.414C458.096 222.528 458.177 222.624 458.282 222.686C458.396 222.735 458.524 222.739 458.64 222.697C458.757 222.655 458.853 222.57 458.909 222.459C458.957 222.337 458.958 222.201 458.911 222.079C458.864 221.956 458.773 221.855 458.656 221.796C458.532 221.756 458.398 221.766 458.282 221.824C458.165 221.882 458.077 221.984 458.035 222.107" fill="white"/>
</g>
<path d="M458.778 228.698C458.478 228.585 458.16 228.533 457.84 228.545C457.526 228.604 457.226 228.722 456.956 228.893C456.956 228.893 456.993 228.771 457.14 228.645C457.337 228.488 457.574 228.391 457.825 228.366C458.075 228.337 458.328 228.382 458.551 228.498C458.72 228.587 458.793 228.682 458.778 228.698Z" fill="#263238"/>
<path d="M458.872 229.924C458.605 229.935 458.339 229.965 458.077 230.014C457.828 230.108 457.587 230.221 457.355 230.351C457.313 230.325 457.55 229.972 458.029 229.824C458.167 229.772 458.316 229.754 458.463 229.771C458.609 229.788 458.75 229.841 458.872 229.924Z" fill="#263238"/>
<path d="M458.946 226.945C458.533 226.932 458.12 226.952 457.709 227.003C457.311 227.106 456.922 227.242 456.546 227.408C456.841 227.085 457.243 226.879 457.678 226.829C458.101 226.719 458.55 226.76 458.946 226.945Z" fill="#263238"/>
<path d="M457.75 224.781C457.75 224.834 457.277 224.913 456.776 225.208C456.276 225.502 455.955 225.866 455.913 225.834C456.073 225.492 456.347 225.217 456.687 225.055C456.997 224.839 457.375 224.742 457.75 224.781Z" fill="#263238"/>
<path d="M456.482 222.765C456.114 222.856 455.759 222.998 455.429 223.186C455.141 223.418 454.885 223.687 454.666 223.986C454.666 223.986 454.666 223.849 454.766 223.654C454.904 223.408 455.096 223.197 455.329 223.038C455.562 222.879 455.829 222.777 456.108 222.738C456.351 222.717 456.482 222.744 456.482 222.765Z" fill="#263238"/>
<path d="M455.224 222.796C455.152 222.723 455.095 222.638 455.055 222.544C454.925 222.292 454.848 222.016 454.829 221.733C454.797 221.529 454.832 221.32 454.929 221.138C454.967 221.081 455.022 221.036 455.086 221.011C455.15 220.985 455.22 220.98 455.287 220.996C455.414 221.038 455.523 221.124 455.592 221.238C455.722 221.478 455.765 221.756 455.712 222.025C455.659 222.293 455.514 222.534 455.303 222.707C455.09 222.873 454.833 222.972 454.564 222.991C454.295 223.011 454.026 222.95 453.792 222.817C453.733 222.785 453.682 222.74 453.643 222.685C453.603 222.631 453.577 222.568 453.565 222.501C453.558 222.433 453.573 222.363 453.608 222.303C453.643 222.243 453.696 222.197 453.76 222.17C453.952 222.1 454.159 222.081 454.36 222.117C454.641 222.149 454.913 222.229 455.166 222.354C455.26 222.394 455.346 222.451 455.419 222.523C455.082 222.38 454.728 222.286 454.366 222.244C454.188 222.219 454.007 222.239 453.839 222.301C453.804 222.315 453.774 222.34 453.754 222.372C453.734 222.405 453.725 222.443 453.729 222.48C453.741 222.523 453.762 222.563 453.79 222.597C453.818 222.632 453.852 222.66 453.892 222.68C454.098 222.789 454.331 222.836 454.563 222.817C454.796 222.797 455.018 222.712 455.203 222.57C455.376 222.42 455.495 222.217 455.543 221.993C455.59 221.769 455.563 221.535 455.466 221.328C455.421 221.245 455.348 221.182 455.261 221.149C455.224 221.139 455.185 221.14 455.149 221.154C455.113 221.167 455.082 221.191 455.061 221.222C454.971 221.382 454.938 221.568 454.966 221.749C454.995 222.11 455.082 222.463 455.224 222.796Z" fill="#263238"/>
<path d="M447.248 222.907L446.722 229.682C446.722 229.682 453.444 231.983 453.471 233.246L440.31 233.215L440.678 222.628L447.248 222.907Z" fill="#455A64"/>
<g opacity="0.6">
<path d="M442.684 228.95C442.555 228.982 442.443 229.061 442.37 229.171C442.297 229.281 442.268 229.415 442.289 229.545C442.319 229.674 442.397 229.786 442.506 229.86C442.615 229.934 442.748 229.965 442.879 229.945C443.014 229.909 443.132 229.824 443.209 229.707C443.285 229.589 443.316 229.447 443.294 229.308C443.253 229.175 443.161 229.064 443.037 228.999C442.914 228.933 442.77 228.92 442.636 228.961" fill="white"/>
</g>
<g opacity="0.6">
<path d="M440.325 233.215L440.362 232.162L453.086 232.636C453.22 232.707 453.334 232.81 453.419 232.935C453.503 233.061 453.555 233.206 453.571 233.357L440.325 233.215Z" fill="white"/>
</g>
<path d="M446.948 229.624C446.948 229.687 446.622 229.703 446.296 229.898C445.969 230.093 445.769 230.356 445.737 230.33C445.706 230.303 445.79 229.93 446.185 229.703C446.58 229.477 446.964 229.566 446.948 229.624Z" fill="#263238"/>
<path d="M448.306 230.251C448.306 230.314 448.038 230.409 447.806 230.672C447.574 230.935 447.506 231.198 447.437 231.198C447.369 231.198 447.348 230.83 447.643 230.509C447.938 230.188 448.306 230.188 448.306 230.251Z" fill="#263238"/>
<path d="M449.027 231.925C448.969 231.925 448.89 231.609 449.069 231.262C449.248 230.914 449.554 230.788 449.596 230.846C449.638 230.904 449.427 231.083 449.285 231.372C449.143 231.662 449.09 231.925 449.027 231.925Z" fill="#263238"/>
<path d="M446.896 228.066C446.864 228.124 446.574 228.024 446.211 228.034C445.848 228.045 445.558 228.145 445.527 228.092C445.495 228.04 445.774 227.813 446.206 227.808C446.638 227.803 446.927 228.019 446.896 228.066Z" fill="#263238"/>
<g opacity="0.3">
<path d="M447.143 224.249L447.054 225.455L440.584 225.139L440.621 224.049L447.143 224.249Z" fill="black"/>
</g>
<path d="M446.975 226.697C446.757 226.748 446.53 226.739 446.317 226.671C446.08 226.617 445.85 226.536 445.632 226.429C445.504 226.367 445.381 226.295 445.264 226.213C445.19 226.17 445.124 226.115 445.069 226.05C445.032 226 445.012 225.94 445.012 225.879C445.012 225.817 445.032 225.757 445.069 225.708C445.104 225.664 445.148 225.629 445.198 225.606C445.248 225.582 445.303 225.57 445.359 225.571C445.441 225.575 445.522 225.589 445.601 225.613C445.74 225.654 445.876 225.707 446.006 225.771C446.225 225.881 446.426 226.025 446.601 226.197C446.896 226.492 446.99 226.724 446.964 226.724C446.938 226.724 446.796 226.539 446.496 226.292C446.318 226.151 446.123 226.033 445.917 225.939C445.797 225.883 445.671 225.839 445.543 225.808C445.406 225.766 445.29 225.76 445.248 225.808C445.206 225.855 445.248 225.839 445.248 225.881C445.286 225.929 445.332 225.97 445.385 226.002C445.495 226.079 445.609 226.149 445.727 226.213C445.927 226.323 446.137 226.415 446.354 226.487C446.565 226.543 446.772 226.614 446.975 226.697Z" fill="#263238"/>
<path d="M446.884 226.787C446.768 226.594 446.716 226.369 446.737 226.144C446.737 225.754 446.84 225.371 447.037 225.034C447.074 224.946 447.134 224.869 447.211 224.813C447.288 224.756 447.379 224.721 447.474 224.713C447.532 224.718 447.588 224.739 447.635 224.773C447.682 224.808 447.719 224.854 447.742 224.907C447.77 224.988 447.789 225.071 447.8 225.155C447.823 225.353 447.805 225.554 447.749 225.746C447.693 225.937 447.6 226.116 447.474 226.271C447.2 226.597 446.948 226.666 446.948 226.645C446.948 226.624 447.158 226.497 447.369 226.176C447.487 225.99 447.566 225.783 447.6 225.565C447.619 225.438 447.619 225.309 447.6 225.181C447.6 225.039 447.542 224.928 447.484 224.939C447.427 224.949 447.306 225.034 447.248 225.144C447.178 225.256 447.118 225.374 447.069 225.497C446.987 225.706 446.936 225.926 446.916 226.15C446.863 226.534 446.921 226.776 446.884 226.787Z" fill="#263238"/>
<path d="M452.06 167.172C452.06 167.172 454.476 172.126 455.108 175.659C455.287 176.659 448.19 227.44 448.19 227.44L439.799 227.124L443.731 179.87L442.331 170.394L452.06 167.172Z" fill="#263238"/>
<path d="M431.676 170.241C431.618 173.671 431.794 177.101 432.202 180.507C432.824 185.487 434.245 191.157 434.708 194.326C435.73 201.339 437.741 202.665 437.741 202.665L453.839 223.265L460.157 217.585L445.943 194.879C445.943 194.879 442.163 169.683 442.294 170.363C442.426 171.042 431.676 170.241 431.676 170.241Z" fill="#263238"/>
<path d="M438.078 202.97C438.124 203.046 438.175 203.118 438.231 203.186L438.689 203.776L440.379 205.955C441.805 207.814 443.748 210.362 445.901 213.178C448.054 215.995 450.013 218.553 451.466 220.375C452.187 221.285 452.782 222.017 453.203 222.517L453.687 223.086C453.741 223.156 453.801 223.221 453.866 223.281C453.823 223.204 453.772 223.131 453.714 223.065L453.256 222.47L451.566 220.296L446.043 213.068C443.895 210.241 441.932 207.693 440.479 205.876C439.757 204.96 439.163 204.234 438.747 203.734L438.257 203.16C438.204 203.091 438.144 203.027 438.078 202.97Z" fill="#455A64"/>
<path d="M436.283 174.1C436.274 174.383 436.196 174.659 436.057 174.906C435.493 176.149 434.459 177.118 433.182 177.601C432.926 177.717 432.648 177.777 432.366 177.775C433.212 177.417 433.998 176.932 434.698 176.338C435.339 175.678 435.874 174.923 436.283 174.1Z" fill="#455A64"/>
<path d="M453.655 171.226C453.271 171.401 452.843 171.462 452.425 171.4C452.006 171.339 451.615 171.157 451.297 170.878C451.334 170.81 451.823 171.036 452.466 171.126C453.108 171.215 453.64 171.152 453.655 171.226Z" fill="#455A64"/>
<path d="M444.595 178.228C444.621 178.338 444.641 178.451 444.652 178.564C444.684 178.807 444.721 179.128 444.774 179.533C444.868 180.402 445.005 181.639 445.179 183.145C445.505 186.24 445.953 190.515 446.469 195.432V195.374L448.801 199.101L456.903 212.141C457.919 213.799 458.745 215.147 459.33 216.11L459.961 217.184C460.043 217.307 460.111 217.438 460.167 217.574C460.074 217.459 459.99 217.338 459.914 217.211L459.219 216.158L456.719 212.236C454.613 208.893 451.733 204.308 448.548 199.243L446.221 195.511V195.479C445.748 190.578 445.326 186.282 445.026 183.181L444.7 179.559C444.668 179.154 444.642 178.833 444.626 178.586C444.601 178.468 444.591 178.348 444.595 178.228Z" fill="#455A64"/>
<path d="M442.148 133.975L447.17 135.585L447.549 146.235C447.549 146.235 450.265 158.749 450.855 160.328C451.547 162.221 452.06 164.173 452.387 166.161C452.387 166.161 451.418 173.226 444.359 174.058C437.299 174.89 430.729 170.836 430.729 170.836C430.729 170.836 428.376 160.307 426.217 150.863C424.164 141.877 425.833 136.517 425.833 136.517L433.567 133.738L442.148 133.975Z" fill="#455A64"/>
<path d="M445.878 139.903L441.264 140.461L441.407 141.648L446.022 141.089L445.878 139.903Z" fill="#FAFAFA"/>
<path d="M446.99 127.162C446.946 126.903 446.807 126.669 446.599 126.508C446.392 126.346 446.131 126.268 445.869 126.288C445.986 126.2 446.079 126.083 446.14 125.949C446.2 125.815 446.226 125.668 446.215 125.521C446.204 125.375 446.157 125.233 446.077 125.11C445.997 124.986 445.887 124.885 445.758 124.814C446.004 124.439 446.103 123.986 446.033 123.542C445.964 123.099 445.733 122.696 445.384 122.414L440.083 129.726C440.491 130.05 440.96 130.288 441.462 130.425C441.964 130.563 442.489 130.597 443.005 130.526C444.039 130.374 445.033 130.016 445.927 129.473C446.173 129.368 446.377 129.182 446.506 128.947C446.606 128.7 446.464 128.342 446.19 128.336C446.446 128.276 446.67 128.122 446.818 127.905C446.966 127.687 447.027 127.423 446.99 127.162Z" fill="#263238"/>
<path d="M433.824 123.167C433.726 123.143 433.622 123.15 433.527 123.186C433.432 123.223 433.351 123.287 433.293 123.372C433.236 123.456 433.206 123.555 433.207 123.657C433.208 123.758 433.239 123.857 433.298 123.941C433.14 123.919 432.979 123.941 432.832 124.004C432.686 124.066 432.559 124.168 432.465 124.296C432.371 124.425 432.314 124.577 432.299 124.736C432.284 124.895 432.313 125.055 432.382 125.199C432.009 125.178 431.639 125.279 431.329 125.488C431.172 125.595 431.049 125.745 430.975 125.919C430.9 126.093 430.877 126.286 430.908 126.473C430.952 126.653 431.064 126.809 431.222 126.908C431.379 127.006 431.569 127.039 431.75 126.999C431.658 127.161 431.613 127.347 431.623 127.533C431.632 127.72 431.695 127.9 431.803 128.052C431.86 128.123 431.932 128.18 432.014 128.22C432.095 128.261 432.185 128.283 432.276 128.285C432.367 128.288 432.457 128.271 432.541 128.235C432.625 128.199 432.7 128.146 432.761 128.078C432.66 128.215 432.608 128.381 432.613 128.551C432.618 128.721 432.679 128.884 432.788 129.014C432.896 129.145 433.046 129.235 433.212 129.27C433.378 129.306 433.551 129.285 433.703 129.21C433.662 129.379 433.675 129.557 433.74 129.718C433.806 129.88 433.921 130.016 434.068 130.108C434.216 130.2 434.389 130.244 434.562 130.232C434.736 130.22 434.902 130.153 435.035 130.042L433.824 123.167Z" fill="#263238"/>
<path d="M434.15 121.766L433.919 134.712C433.902 135.732 434.273 136.721 434.957 137.478C435.641 138.236 436.587 138.705 437.604 138.791C438.152 138.84 438.705 138.775 439.227 138.602C439.75 138.428 440.232 138.149 440.642 137.782C441.053 137.415 441.383 136.967 441.614 136.467C441.845 135.967 441.971 135.425 441.984 134.875C441.984 133.643 442.026 132.632 442.026 132.632C442.026 132.632 445.184 132.421 445.495 129.315C445.679 127.515 445.727 123.409 445.737 120.255C445.741 119.228 445.359 118.237 444.667 117.479C443.975 116.72 443.023 116.249 441.999 116.16L440.12 115.996C439.346 115.972 438.576 116.104 437.854 116.383C437.132 116.662 436.473 117.083 435.917 117.621C435.36 118.158 434.917 118.802 434.614 119.515C434.31 120.227 434.153 120.992 434.15 121.766Z" fill="#FFBE9D"/>
<path d="M442.016 132.632C440.575 132.496 439.205 131.947 438.067 131.053C438.067 131.053 438.868 133.406 442 133.401L442.016 132.632Z" fill="#EB996E"/>
<path d="M444.858 123.419C444.8 123.472 444.484 123.193 444.005 123.151C443.526 123.109 443.158 123.319 443.11 123.256C443.063 123.193 443.152 123.125 443.316 123.03C443.534 122.903 443.786 122.848 444.037 122.872C444.287 122.894 444.523 122.996 444.711 123.161C444.848 123.282 444.89 123.393 444.858 123.419Z" fill="#263238"/>
<path d="M439.799 123.625C439.79 123.741 439.736 123.848 439.648 123.925C439.561 124.002 439.447 124.041 439.331 124.035C439.274 124.035 439.218 124.024 439.165 124.002C439.113 123.98 439.065 123.948 439.026 123.907C438.986 123.866 438.955 123.818 438.934 123.765C438.913 123.712 438.903 123.655 438.904 123.598C438.914 123.483 438.968 123.375 439.056 123.298C439.143 123.222 439.257 123.182 439.373 123.188C439.43 123.188 439.486 123.199 439.539 123.221C439.591 123.243 439.639 123.276 439.678 123.316C439.718 123.357 439.749 123.405 439.77 123.458C439.791 123.511 439.801 123.568 439.799 123.625Z" fill="#263238"/>
<path d="M444.432 124.046C444.422 124.162 444.368 124.269 444.281 124.346C444.193 124.423 444.079 124.462 443.963 124.456C443.907 124.455 443.851 124.443 443.799 124.42C443.747 124.397 443.7 124.364 443.661 124.323C443.622 124.282 443.591 124.233 443.571 124.18C443.551 124.127 443.541 124.071 443.542 124.014C443.55 123.898 443.604 123.789 443.692 123.712C443.78 123.636 443.894 123.596 444.011 123.604C444.068 123.604 444.124 123.615 444.177 123.638C444.229 123.66 444.277 123.693 444.316 123.734C444.356 123.776 444.386 123.825 444.406 123.878C444.426 123.932 444.435 123.989 444.432 124.046Z" fill="#263238"/>
<path d="M440.204 123.009C440.146 123.061 439.83 122.782 439.351 122.74C438.872 122.698 438.499 122.909 438.451 122.846C438.404 122.782 438.493 122.714 438.656 122.619C438.874 122.493 439.126 122.438 439.377 122.461C439.627 122.483 439.865 122.583 440.057 122.746C440.194 122.872 440.236 122.982 440.204 123.009Z" fill="#263238"/>
<path d="M441.626 126.71C441.89 126.652 442.161 126.628 442.431 126.636C442.558 126.636 442.674 126.636 442.7 126.541C442.723 126.417 442.707 126.288 442.653 126.173C442.563 125.862 442.468 125.546 442.374 125.209C442.107 124.392 441.908 123.554 441.779 122.703C442.108 123.497 442.373 124.316 442.574 125.151C442.663 125.494 442.753 125.815 442.837 126.12C442.893 126.277 442.893 126.448 442.837 126.604C442.815 126.646 442.785 126.682 442.747 126.71C442.71 126.739 442.667 126.758 442.621 126.768C442.551 126.775 442.48 126.775 442.41 126.768C442.148 126.781 441.884 126.762 441.626 126.71Z" fill="#263238"/>
<path d="M440.188 126.915C440.267 126.915 440.225 127.442 440.636 127.847C441.046 128.252 441.604 128.247 441.604 128.315C441.604 128.384 441.468 128.41 441.236 128.394C440.931 128.37 440.644 128.24 440.425 128.026C440.214 127.823 440.092 127.545 440.083 127.252C440.083 127.031 440.157 126.91 440.188 126.915Z" fill="#263238"/>
<path d="M440.467 121.461C440.404 121.587 439.941 121.461 439.367 121.503C438.793 121.545 438.314 121.635 438.267 121.503C438.219 121.372 438.33 121.329 438.525 121.219C438.781 121.084 439.066 121.012 439.356 121.008C439.647 121 439.935 121.06 440.199 121.182C440.394 121.293 440.488 121.403 440.467 121.461Z" fill="#263238"/>
<path d="M444.916 122.04C444.822 122.145 444.5 122.003 444.106 121.961C443.711 121.919 443.369 121.961 443.3 121.851C443.232 121.74 443.332 121.687 443.49 121.598C443.697 121.492 443.932 121.45 444.163 121.477C444.394 121.504 444.613 121.599 444.79 121.751C444.922 121.898 444.958 121.993 444.916 122.04Z" fill="#263238"/>
<path d="M434.992 124.193C434.94 124.167 432.887 123.372 432.787 125.509C432.687 127.647 434.834 127.326 434.845 127.262C434.856 127.199 434.992 124.193 434.992 124.193Z" fill="#FFBE9D"/>
<path d="M434.24 126.415C434.24 126.415 434.197 126.441 434.134 126.468C434.044 126.501 433.945 126.501 433.855 126.468C433.723 126.372 433.618 126.244 433.551 126.095C433.485 125.946 433.459 125.782 433.476 125.62C433.483 125.437 433.528 125.258 433.608 125.094C433.634 125.029 433.675 124.971 433.727 124.925C433.779 124.878 433.841 124.844 433.908 124.825C433.951 124.816 433.996 124.823 434.035 124.844C434.073 124.865 434.103 124.9 434.118 124.941C434.118 125.004 434.118 125.046 434.118 125.046C434.118 125.046 434.166 125.015 434.155 124.925C434.146 124.872 434.118 124.823 434.076 124.788C434.021 124.74 433.949 124.715 433.876 124.72C433.788 124.733 433.704 124.768 433.633 124.823C433.563 124.877 433.507 124.948 433.471 125.03C433.368 125.21 433.312 125.413 433.308 125.62C433.287 125.809 433.322 126.001 433.409 126.17C433.496 126.34 433.631 126.48 433.797 126.573C433.854 126.591 433.913 126.598 433.972 126.591C434.031 126.585 434.088 126.566 434.14 126.536C434.229 126.468 434.245 126.42 434.24 126.415Z" fill="#EB996E"/>
<path d="M433.813 124.004C434.017 124.008 434.216 124.067 434.388 124.176C434.561 124.284 434.701 124.438 434.792 124.62C434.903 124.935 434.903 125.283 435.013 125.599C435.124 125.915 435.414 126.22 435.745 126.167C435.859 126.144 435.964 126.09 436.05 126.013C436.136 125.935 436.2 125.836 436.235 125.725C436.301 125.502 436.322 125.267 436.298 125.036C436.261 124.03 436.14 123.024 436.187 122.024C436.199 121.011 436.506 120.022 437.072 119.181C437.363 118.765 437.762 118.436 438.225 118.229C438.689 118.021 439.2 117.943 439.704 118.002C440.362 118.113 440.936 118.529 441.583 118.666C441.97 118.751 442.372 118.748 442.757 118.657C443.143 118.566 443.503 118.389 443.81 118.139C443.889 118.076 444.242 117.886 444.242 117.886C444.251 117.649 444.193 117.413 444.074 117.207C442.879 115.886 440.557 115.338 438.809 115.628C437.915 115.766 437.061 116.096 436.307 116.597C435.554 117.098 434.918 117.757 434.445 118.529C433.56 120.082 433.582 122.345 433.845 124.014" fill="#263238"/>
<path d="M446.116 119.724C445.928 120.024 445.664 120.27 445.351 120.436C445.037 120.602 444.686 120.683 444.332 120.671C443.623 120.639 442.926 120.473 442.279 120.182C441.253 119.829 440.195 119.577 439.12 119.429C439.015 119.429 438.888 119.429 438.841 119.318C438.794 119.208 438.909 119.06 439.025 118.981C440.02 118.339 442.3 118.092 443.484 118.144C444.078 118.157 444.659 118.321 445.171 118.622C445.683 118.922 446.11 119.349 446.411 119.861" fill="#263238"/>
<path d="M445.806 119.792C445.189 119.015 444.294 118.509 443.31 118.381C441.422 118.223 439.527 118.588 437.833 119.437C436.139 120.286 434.711 121.585 433.708 123.193C433.518 122.286 433.422 121.361 433.424 120.434C433.476 119.797 434.192 116.06 438.162 115.217C438.178 115.207 444.221 113.475 445.806 119.792Z" fill="#455A64"/>
<path d="M434.124 122.388C435.525 120.65 437.287 119.238 439.288 118.25C441.637 117.179 444.114 116.416 446.659 115.981C447.312 115.827 447.99 115.814 448.649 115.944C448.976 116.016 449.276 116.178 449.516 116.413C449.755 116.647 449.923 116.945 450.002 117.271C450.133 118.092 448.591 119.213 447.896 119.64C447.197 120.021 446.479 120.364 445.743 120.666C445.743 120.666 445.895 119.176 443.526 118.655C440.289 117.944 434.124 122.388 434.124 122.388Z" fill="#455A64"/>
<path d="M449.064 116.049C448.84 116.002 448.613 115.967 448.385 115.944C447.756 115.92 447.126 115.962 446.506 116.07C444.451 116.417 442.44 116.987 440.51 117.771C438.565 118.518 436.779 119.626 435.245 121.035C434.787 121.464 434.384 121.949 434.045 122.477C433.813 122.856 433.724 123.088 433.703 123.077C433.682 123.067 433.703 123.014 433.745 122.903C433.802 122.739 433.873 122.578 433.955 122.424C434.264 121.861 434.655 121.347 435.113 120.898C436.63 119.421 438.432 118.271 440.409 117.518C442.357 116.723 444.396 116.171 446.479 115.875C447.114 115.786 447.758 115.774 448.396 115.839C448.577 115.852 448.755 115.895 448.922 115.965C449.017 116.012 449.07 116.039 449.064 116.049Z" fill="#263238"/>
<path d="M441.378 116.876C442.151 116.547 442.973 116.346 443.81 116.281C443.627 116.109 443.424 115.961 443.205 115.839C442.553 115.89 441.913 116.044 441.31 116.297L441.378 116.876Z" fill="#FAFAFA"/>
<path d="M446.164 120.845C446.262 120.709 446.322 120.549 446.337 120.382C446.352 120.215 446.323 120.046 446.252 119.895C446.18 119.743 446.07 119.613 445.931 119.518C445.793 119.423 445.631 119.367 445.464 119.355C445.574 119.311 445.675 119.244 445.758 119.159C445.842 119.075 445.907 118.973 445.949 118.862C445.992 118.751 446.011 118.632 446.005 118.513C446 118.394 445.969 118.278 445.917 118.171C445.792 117.964 445.603 117.804 445.378 117.716C445.153 117.629 444.906 117.618 444.674 117.686C444.445 117.762 444.237 117.892 444.068 118.064C443.898 118.236 443.772 118.446 443.7 118.676C443.602 118.531 443.469 118.413 443.312 118.334C443.155 118.255 442.981 118.217 442.806 118.224C442.63 118.232 442.46 118.284 442.311 118.376C442.161 118.468 442.038 118.597 441.952 118.75C441.906 118.618 441.811 118.509 441.687 118.445C441.563 118.38 441.419 118.365 441.284 118.402C441.017 118.49 440.773 118.636 440.568 118.829C440.362 119.024 440.097 119.144 439.815 119.171L439.631 119.25C439.782 119.492 440.016 119.671 440.289 119.752C440.563 119.834 440.857 119.812 441.115 119.692C441.113 119.872 441.169 120.047 441.275 120.192C441.382 120.336 441.532 120.443 441.704 120.494C441.875 120.546 442.059 120.54 442.228 120.478C442.396 120.416 442.54 120.301 442.637 120.15C442.67 120.283 442.735 120.406 442.827 120.507C442.919 120.608 443.035 120.684 443.164 120.729C443.293 120.774 443.432 120.786 443.567 120.764C443.702 120.742 443.829 120.687 443.937 120.603C443.996 120.757 444.09 120.895 444.212 121.005C444.334 121.116 444.48 121.197 444.639 121.241C444.798 121.285 444.965 121.291 445.126 121.259C445.288 121.227 445.439 121.157 445.569 121.056C445.703 121.269 445.791 121.508 445.825 121.758C445.86 122.008 445.841 122.262 445.769 122.503C445.943 122.465 446.102 122.378 446.229 122.253C446.355 122.129 446.444 121.971 446.486 121.798C446.527 121.625 446.518 121.444 446.462 121.275C446.405 121.107 446.302 120.958 446.164 120.845Z" fill="#263238"/>
<path d="M437.261 120.319C436.527 120.644 435.822 121.033 435.156 121.482C434.486 121.939 433.95 122.566 433.603 123.298L434.655 124.304C434.945 124.399 435.182 124.499 435.403 124.304C435.517 124.205 435.605 124.079 435.658 123.937C435.712 123.796 435.729 123.643 435.708 123.493C435.848 123.523 435.993 123.514 436.128 123.467C436.263 123.42 436.382 123.336 436.473 123.226C436.564 123.116 436.622 122.983 436.643 122.841C436.663 122.7 436.644 122.556 436.588 122.424C436.692 122.4 436.788 122.348 436.866 122.274C436.943 122.2 437 122.106 437.03 122.003C437.057 121.9 437.057 121.792 437.031 121.688C437.004 121.585 436.951 121.491 436.877 121.414C436.996 121.407 437.11 121.365 437.206 121.294C437.301 121.223 437.374 121.125 437.415 121.013C437.456 120.901 437.463 120.78 437.436 120.664C437.408 120.548 437.348 120.443 437.261 120.361V120.319Z" fill="#263238"/>
<path d="M447.169 135.586C447.169 135.586 450.28 137.454 451.217 139.118C452.154 140.782 457.135 152.921 456.929 154.911C456.724 156.901 452.049 158.128 452.049 158.128L447.169 151.811L449.401 150.479L447.169 146.178V135.586Z" fill="#455A64"/>
<path d="M452.06 158.112C452.06 158.112 440.752 160.376 436.646 155.48L437.835 151.347C437.835 151.347 445.306 153.116 447.643 152.358L452.06 158.112Z" fill="#FFBE9D"/>
<path d="M453.229 148.068C453.271 148.152 451.902 148.726 450.476 149.815C449.049 150.905 448.149 152.084 448.075 152.026C448.204 151.731 448.382 151.461 448.602 151.226C449.099 150.623 449.662 150.077 450.281 149.599C450.904 149.126 451.576 148.722 452.287 148.394C452.58 148.233 452.899 148.122 453.229 148.068Z" fill="#263238"/>
<path d="M449.601 150.326C449.198 149.688 448.857 149.013 448.585 148.31C448.224 147.648 447.914 146.96 447.658 146.251C448.155 146.829 448.552 147.486 448.832 148.194C449.187 148.865 449.446 149.583 449.601 150.326Z" fill="#263238"/>
<path d="M447.548 145.214C447.518 144.62 447.426 144.031 447.274 143.456C447.179 142.867 447.025 142.288 446.816 141.729C446.943 142.912 447.188 144.08 447.548 145.214Z" fill="#263238"/>
<path d="M427.249 137.165C427.465 137.391 430.571 139.45 431.608 142.956C432.645 146.462 433.787 150.121 433.787 150.121L437.835 150.647L435.551 159.986C434.005 159.748 432.528 159.18 431.221 158.32C429.914 157.461 428.807 156.331 427.975 155.006C426.168 151.858 424.707 148.524 423.616 145.061C423.616 145.061 423.958 133.722 427.249 137.165Z" fill="#455A64"/>
<path d="M436.446 150.463C436.446 150.463 434.729 146.62 434.498 146.567C434.266 146.515 430.955 145.351 430.955 145.351C430.854 145.621 430.854 145.918 430.955 146.188L429.76 146.341C429.76 146.341 429.939 147.073 430.344 147.173L429.912 147.557C430.129 147.842 430.406 148.076 430.723 148.241C430.845 148.302 430.979 148.333 431.115 148.333C431.251 148.333 431.386 148.302 431.508 148.241C431.508 148.241 431.36 148.515 432.034 148.947C432.708 149.378 433.882 150 433.882 150L436.446 150.463Z" fill="#FFBE9D"/>
<path d="M433.887 150.021C433.887 150.021 432.713 149.378 432.039 148.968C431.455 148.599 431.471 148.347 431.513 148.273C431.392 148.328 431.261 148.356 431.128 148.356C430.996 148.356 430.865 148.328 430.744 148.273C430.426 148.104 430.148 147.869 429.928 147.583L430.323 147.167C429.928 147.052 429.754 146.362 429.749 146.33L430.939 146.178C430.843 145.909 430.843 145.615 430.939 145.346C430.97 145.346 434.261 146.515 434.487 146.562C434.713 146.609 436.366 150.305 436.44 150.463L433.887 150.021ZM430.96 146.183L429.765 146.336C429.765 146.42 429.97 147.062 430.344 147.157L429.907 147.541C430.119 147.823 430.393 148.054 430.707 148.215C430.829 148.274 430.962 148.305 431.097 148.305C431.232 148.305 431.365 148.274 431.486 148.215V148.247C431.486 148.247 431.349 148.52 432.013 148.941C432.676 149.363 433.818 149.994 433.861 149.994L436.403 150.442C435.803 149.11 434.64 146.604 434.466 146.567C434.292 146.53 431.107 145.414 430.928 145.351C430.834 145.623 430.846 145.919 430.96 146.183Z" fill="#EB996E"/>
<path d="M431.06 146.199C431.759 146.538 432.484 146.822 433.229 147.046C433.534 147.157 433.834 147.236 434.071 147.352C434.283 147.452 434.456 147.618 434.566 147.825C434.766 148.183 434.839 148.441 434.871 148.431C434.858 148.197 434.794 147.968 434.682 147.762C434.571 147.524 434.386 147.329 434.155 147.204C433.874 147.078 433.586 146.969 433.292 146.878C432.565 146.598 431.819 146.371 431.06 146.199Z" fill="#EB996E"/>
<path d="M430.286 147.167C430.47 147.277 430.674 147.35 430.886 147.383C431.265 147.488 431.802 147.573 432.371 147.725C432.855 147.846 433.312 148.06 433.713 148.357C434.019 148.594 434.15 148.799 434.177 148.783C434.103 148.575 433.971 148.393 433.798 148.257C433.4 147.916 432.927 147.672 432.418 147.546C431.834 147.388 431.292 147.325 430.913 147.257C430.708 147.204 430.498 147.174 430.286 147.167Z" fill="#EB996E"/>
<path d="M433.324 148.926C433.129 148.662 432.848 148.476 432.529 148.399C432.229 148.264 431.892 148.232 431.571 148.31C431.571 148.368 431.992 148.394 432.472 148.568C432.951 148.741 433.293 148.968 433.324 148.926Z" fill="#EB996E"/>
<path d="M437.488 151.642L447.696 146.493L449.565 150.3C449.565 150.3 440.157 159.623 435.751 159.502" fill="#FFBE9D"/>
<path d="M431.286 140.85C431.301 141.107 431.347 141.362 431.423 141.608C431.534 142.066 431.691 142.698 431.881 143.393C432.071 144.088 432.25 144.719 432.407 145.172C432.465 145.421 432.554 145.661 432.671 145.888C432.652 145.633 432.606 145.381 432.534 145.135C432.423 144.677 432.265 144.045 432.076 143.345C431.886 142.645 431.707 142.024 431.549 141.576C431.49 141.325 431.402 141.081 431.286 140.85Z" fill="#263238"/>
<path d="M431.728 153.521C431.76 153.521 431.849 153.053 432.086 152.321C432.221 151.896 432.427 151.497 432.697 151.142C433.02 150.72 433.486 150.43 434.008 150.326C434.553 150.301 435.098 150.363 435.624 150.51L436.961 150.779C437.129 150.801 437.293 150.843 437.45 150.905C437.562 150.955 437.651 151.045 437.698 151.158C437.719 151.206 437.73 151.258 437.73 151.31C437.73 151.363 437.719 151.415 437.698 151.463C437.698 151.463 437.84 151.379 437.782 151.137C437.762 151.068 437.727 151.003 437.681 150.948C437.635 150.893 437.578 150.848 437.514 150.816C437.346 150.738 437.169 150.683 436.987 150.652L435.655 150.347C435.111 150.185 434.543 150.117 433.976 150.147C433.403 150.26 432.893 150.585 432.549 151.058C432.275 151.432 432.072 151.853 431.949 152.3C431.863 152.598 431.794 152.9 431.744 153.206C431.723 153.309 431.717 153.416 431.728 153.521Z" fill="#263238"/>
<path d="M430.323 151.468C430.602 150.975 430.976 150.542 431.424 150.194C431.918 149.899 432.449 149.669 433.003 149.51C432.827 149.482 432.646 149.496 432.476 149.552C432.066 149.638 431.677 149.806 431.334 150.047C430.987 150.289 430.7 150.608 430.497 150.979C430.397 151.124 430.338 151.293 430.323 151.468Z" fill="#263238"/>
<path d="M423.616 145.062C423.616 145.062 423.616 145.13 423.669 145.262C423.721 145.393 423.779 145.593 423.858 145.82C424.032 146.346 424.269 147.02 424.564 147.867C424.859 148.715 425.217 149.768 425.722 150.873C426.227 151.979 426.822 153.169 427.543 154.374C428.217 155.516 429.076 156.537 430.086 157.396C430.909 158.098 431.832 158.675 432.824 159.107C433.496 159.396 434.204 159.593 434.93 159.691C435.125 159.721 435.322 159.74 435.519 159.749C435.656 159.749 435.724 159.749 435.724 159.749C435.724 159.749 435.445 159.718 434.94 159.628C434.232 159.501 433.542 159.287 432.887 158.991C430.721 157.991 428.915 156.35 427.712 154.29C426.996 153.095 426.417 151.89 425.885 150.81C425.353 149.731 425.011 148.705 424.69 147.831C424.369 146.957 424.122 146.278 423.932 145.799L423.711 145.272C423.687 145.199 423.655 145.128 423.616 145.062Z" fill="#263238"/>
<path d="M426.543 137.386C426.543 137.439 427.322 137.723 428.212 138.255C429.101 138.786 429.738 139.339 429.791 139.308C428.93 138.36 427.804 137.694 426.559 137.397L426.543 137.386Z" fill="#263238"/>
<path d="M434.287 162.192C434.455 162.294 434.631 162.383 434.814 162.455C434.987 162.539 435.198 162.634 435.445 162.729C435.693 162.824 435.972 162.95 436.298 163.05C437.043 163.315 437.802 163.537 438.572 163.713C439.519 163.922 440.477 164.073 441.441 164.166C442.408 164.246 443.379 164.263 444.347 164.219C445.138 164.182 445.925 164.099 446.706 163.971C447.038 163.924 447.338 163.856 447.596 163.803C447.854 163.75 448.085 163.692 448.264 163.645C448.456 163.602 448.644 163.546 448.828 163.477C448.632 163.496 448.439 163.53 448.248 163.577C448.069 163.613 447.843 163.661 447.58 163.703C447.317 163.745 447.017 163.808 446.685 163.845C445.907 163.957 445.123 164.027 444.337 164.056C443.376 164.087 442.415 164.063 441.457 163.982C440.5 163.893 439.549 163.749 438.609 163.55C437.843 163.383 437.085 163.175 436.34 162.929C436.014 162.834 435.735 162.724 435.482 162.634C435.229 162.545 435.019 162.461 434.845 162.392C434.664 162.313 434.477 162.246 434.287 162.192Z" fill="#263238"/>
<path d="M442.578 167.493C443.287 167.402 443.981 167.225 444.647 166.967C445.331 166.771 445.989 166.491 446.605 166.135C446.605 166.088 445.7 166.425 444.589 166.793C443.478 167.162 442.568 167.446 442.578 167.493Z" fill="#263238"/>
<g opacity="0.3">
<path d="M450.369 158.391C448.037 158.852 445.64 158.888 443.294 158.496C442.442 158.238 441.551 158.131 440.662 158.181C439.957 158.352 439.276 158.61 438.635 158.949C437.424 159.447 436.108 159.637 434.805 159.502C433.502 159.367 432.253 158.911 431.17 158.175C431.551 158.903 432.1 159.529 432.773 160C433.445 160.472 434.22 160.776 435.034 160.886C436.662 161.093 438.316 160.946 439.883 160.455C440.815 160.151 441.78 159.956 442.757 159.876C443.999 159.844 445.215 160.249 446.442 160.271C447.881 160.312 449.294 159.885 450.469 159.054L450.369 158.391Z" fill="black"/>
</g>
<g opacity="0.3">
<path d="M446.327 166.498C445.804 167.377 445.081 168.121 444.218 168.669C443.355 169.218 442.375 169.556 441.357 169.657C440.918 169.712 440.471 169.676 440.046 169.552C439.833 169.489 439.636 169.384 439.465 169.241C439.295 169.099 439.156 168.923 439.057 168.725C439.529 168.422 440.051 168.207 440.599 168.088L446.269 166.535" fill="black"/>
</g>
<path d="M449.412 150.452C449.274 150.622 449.121 150.779 448.954 150.921C448.649 151.216 448.206 151.637 447.685 152.174C447.164 152.711 446.543 153.374 445.785 154.032C445.027 154.69 444.163 155.369 443.253 156.075C442.396 156.746 441.497 157.361 440.562 157.917C439.796 158.374 438.985 158.75 438.141 159.039C437.572 159.232 436.987 159.375 436.393 159.465C436.178 159.503 435.959 159.515 435.74 159.502C436.532 159.335 437.312 159.12 438.078 158.86C438.898 158.547 439.688 158.16 440.436 157.702C441.348 157.138 442.227 156.523 443.068 155.859C443.979 155.154 444.848 154.485 445.601 153.843C446.353 153.2 446.985 152.563 447.533 152.037C448.08 151.511 448.543 151.11 448.87 150.842C449.034 150.69 449.216 150.559 449.412 150.452Z" fill="#EB996E"/>
</svg>
