<svg width="512" height="247" viewBox="0 0 512 247" fill="none" xmlns="http://www.w3.org/2000/svg">
<path d="M417.804 217.824L396.481 188.48V217.824H375.033V125.026H396.481V176.316L417.679 147.85H444.144L415.045 182.962L444.395 217.824H417.804Z" fill="white"/>
<path d="M321.976 218.075C313.698 218.075 306.089 216.152 299.148 212.306C292.291 208.461 286.814 203.11 282.717 196.255C278.703 189.316 276.696 181.541 276.696 172.93C276.696 164.319 278.703 156.586 282.717 149.731C286.814 142.875 292.291 137.525 299.148 133.679C306.089 129.833 313.698 127.911 321.976 127.911C330.255 127.911 337.822 129.833 344.679 133.679C351.619 137.525 357.055 142.875 360.985 149.731C364.998 156.586 367.005 164.319 367.005 172.93C367.005 181.541 364.998 189.316 360.985 196.255C356.971 203.11 351.536 208.461 344.679 212.306C337.822 216.152 330.255 218.075 321.976 218.075ZM321.976 198.512C329 198.512 334.603 196.171 338.784 191.49C343.048 186.808 345.181 180.621 345.181 172.93C345.181 165.155 343.048 158.969 338.784 154.37C334.603 149.689 329 147.348 321.976 147.348C314.869 147.348 309.182 149.647 304.918 154.245C300.737 158.843 298.646 165.071 298.646 172.93C298.646 180.705 300.737 186.933 304.918 191.615C309.182 196.213 314.869 198.512 321.976 198.512Z" fill="white"/>
<path d="M89.9326 127.66C98.629 127.66 105.528 130.293 110.628 135.56C115.813 140.827 118.405 148.142 118.405 157.506V198.387H97.082V160.39C97.082 155.875 95.8696 152.406 93.4446 149.981C91.1033 147.473 87.8421 146.219 83.6611 146.219C79.4802 146.219 76.1772 147.473 73.7522 149.981C71.4109 152.406 70.2402 155.875 70.2402 160.39V198.387H48.9173V160.39C48.9173 155.875 47.7048 152.406 45.2799 149.981C42.9385 147.473 39.6774 146.219 35.4964 146.219C31.3154 146.219 28.0125 147.473 25.5875 149.981C23.2462 152.406 22.0755 155.875 22.0755 160.39V198.387H0.627145V128.412H22.0755V137.19C24.2496 134.264 27.0927 131.965 30.6047 130.293C34.1167 128.538 38.0886 127.66 42.5204 127.66C47.7884 127.66 52.4711 128.788 56.5685 131.046C60.7494 133.303 64.0106 136.521 66.3519 140.702C68.7769 136.856 72.0799 133.721 76.2608 131.296C80.4418 128.872 84.999 127.66 89.9326 127.66Z" fill="#352A2B"/>
<path d="M34.3675 90.1644C27.9289 90.1644 22.1591 89.1194 17.0583 87.0293C11.9576 84.9393 7.86022 81.846 4.7663 77.7495C1.75601 73.6531 0.167239 68.7206 0 62.952H22.8281C23.1626 66.2125 24.2914 68.7206 26.2147 70.4762C28.1379 72.1482 30.6465 72.9842 33.7404 72.9842C36.9179 72.9842 39.4265 72.2736 41.2661 70.8524C43.1058 69.3476 44.0256 67.2993 44.0256 64.7077C44.0256 62.534 43.273 60.7366 41.7679 59.3154C40.3463 57.8941 38.5485 56.7237 36.3744 55.8041C34.2839 54.8845 31.2736 53.8395 27.3435 52.669C21.6574 50.9134 17.0165 49.1578 13.4209 47.4021C9.82527 45.6465 6.73136 43.0548 4.13916 39.6272C1.54696 36.1995 0.250858 31.7268 0.250858 26.2091C0.250858 18.0162 3.21934 11.6206 9.15632 7.02254C15.0933 2.34085 22.8281 0 32.3607 0C42.0605 0 49.8789 2.34085 55.8159 7.02254C61.7529 11.6206 64.9304 18.058 65.3485 26.3345H42.1441C41.9769 23.4921 40.9317 21.2766 39.0084 19.6882C37.0852 18.0162 34.6184 17.1801 31.6081 17.1801C29.0159 17.1801 26.9254 17.8907 25.3367 19.312C23.7479 20.6496 22.9535 22.6142 22.9535 25.2059C22.9535 28.0484 24.2914 30.2638 26.9672 31.8522C29.6431 33.4407 33.824 35.1545 39.5101 36.9937C45.1962 38.9166 49.7953 40.7558 53.3073 42.5114C56.903 44.2671 59.9969 46.8169 62.5891 50.161C65.1813 53.5051 66.4774 57.8105 66.4774 63.0774C66.4774 68.0935 65.1813 72.6498 62.5891 76.7463C60.0805 80.8428 56.4012 84.1033 51.5513 86.5277C46.7014 88.9522 40.9735 90.1644 34.3675 90.1644Z" fill="white"/>
<path d="M101.723 31.3506V119.383H80.2746V31.3506H101.723Z" fill="white"/>
<path d="M206.582 48.6562C215.278 48.6562 222.177 51.2896 227.277 56.5565C232.462 61.8234 235.054 69.1386 235.054 78.502V119.383H213.731V81.3862C213.731 76.8717 212.519 73.4022 210.094 70.9778C207.752 68.4698 204.491 67.2157 200.31 67.2157C196.129 67.2157 192.826 68.4698 190.401 70.9778C188.06 73.4022 186.889 76.8717 186.889 81.3862V119.383H165.566V81.3862C165.566 76.8717 164.354 73.4022 161.929 70.9778C159.587 68.4698 156.326 67.2157 152.145 67.2157C147.964 67.2157 144.661 68.4698 142.236 70.9778C139.895 73.4022 138.724 76.8717 138.724 81.3862V119.383H117.276V49.4086H138.724V58.1867C140.899 55.2607 143.742 52.9616 147.254 51.2896C150.766 49.534 154.738 48.6562 159.169 48.6562C164.437 48.6562 169.12 49.7848 173.217 52.042C177.398 54.2993 180.66 57.5179 183.001 61.698C185.426 57.8523 188.729 54.7173 192.91 52.2928C197.091 49.8684 201.648 48.6562 206.582 48.6562Z" fill="#352A2B"/>
<path d="M268.543 58.6884C270.634 55.4279 273.519 52.7944 277.198 50.788C280.877 48.7816 285.184 47.7783 290.117 47.7783C295.887 47.7783 301.113 49.2414 305.796 52.1674C310.479 55.0935 314.158 59.2736 316.834 64.7077C319.593 70.1418 320.973 76.4537 320.973 83.6435C320.973 90.8332 319.593 97.1869 316.834 102.705C314.158 108.139 310.479 112.361 305.796 115.37C301.113 118.296 295.887 119.759 290.117 119.759C285.267 119.759 280.961 118.756 277.198 116.75C273.519 114.743 270.634 112.152 268.543 108.975V152.113H247.095V48.7816H268.543V58.6884ZM299.148 83.6435C299.148 78.2929 297.643 74.1129 294.633 71.1032C291.706 68.0099 288.069 66.4633 283.72 66.4633C279.456 66.4633 275.818 68.0099 272.808 71.1032C269.881 74.1965 268.418 78.4184 268.418 83.7689C268.418 89.1194 269.881 93.3412 272.808 96.4345C275.818 99.5278 279.456 101.074 283.72 101.074C287.985 101.074 291.622 99.5278 294.633 96.4345C297.643 93.2576 299.148 88.994 299.148 83.6435Z" fill="#352A2B"/>
<path d="M399.617 82.0132C399.617 84.0197 399.491 86.1097 399.24 88.2833H350.699C351.034 92.6306 352.414 95.9747 354.839 98.3155C357.347 100.573 360.399 101.701 363.995 101.701C369.347 101.701 373.068 99.4442 375.158 94.9297H397.986C396.816 99.5278 394.683 103.666 391.589 107.345C388.579 111.023 384.774 113.907 380.175 115.997C375.576 118.087 370.434 119.132 364.747 119.132C357.891 119.132 351.787 117.669 346.435 114.743C341.083 111.817 336.902 107.637 333.892 102.203C330.882 96.7689 329.377 90.4152 329.377 83.1418C329.377 75.8685 330.84 69.5148 333.767 64.0807C336.777 58.6466 340.958 54.4665 346.309 51.5404C351.661 48.6144 357.807 47.1513 364.747 47.1513C371.521 47.1513 377.541 48.5726 382.809 51.415C388.077 54.2575 392.175 58.3121 395.101 63.5791C398.112 68.846 399.617 74.9907 399.617 82.0132ZM377.667 76.3701C377.667 72.6916 376.412 69.7656 373.904 67.5919C371.395 65.4183 368.26 64.3315 364.497 64.3315C360.901 64.3315 357.849 65.3765 355.34 67.4665C352.915 69.5566 351.41 72.5244 350.825 76.3701H377.667Z" fill="#352A2B"/>
<path d="M429.72 26.5853V119.383H408.271V26.5853H429.72Z" fill="#352A2B"/>
<path d="M241.451 127.66C249.645 127.66 256.168 130.335 261.018 135.685C265.951 140.952 268.418 148.226 268.418 157.506V198.387H247.095V160.39C247.095 155.708 245.883 152.071 243.458 149.48C241.033 146.888 237.772 145.592 233.674 145.592C229.577 145.592 226.316 146.888 223.891 149.48C221.466 152.071 220.253 155.708 220.253 160.39V198.387H198.805V128.412H220.253V137.692C222.427 134.599 225.354 132.174 229.033 130.419C232.713 128.579 236.852 127.66 241.451 127.66Z" fill="#352A2B"/>
<path d="M504.874 161.65C505.953 163.342 506.97 165.172 507.926 167.14L466.986 193.214C469.604 196.701 472.565 198.78 475.868 199.452C479.197 200.008 482.377 199.321 485.41 197.389C489.924 194.515 491.849 190.612 491.186 185.682L510.44 173.42C511.924 177.927 512.349 182.562 511.716 187.327C511.154 192.046 509.495 196.523 506.739 200.756C503.983 204.989 500.207 208.632 495.412 211.687C489.629 215.37 483.694 217.415 477.608 217.821C471.522 218.228 465.749 216.948 460.29 213.982C454.831 211.016 450.147 206.465 446.239 200.331C442.33 194.196 440.15 188.051 439.699 181.896C439.318 175.696 440.598 169.925 443.539 164.582C446.48 159.24 450.878 154.704 456.731 150.976C462.444 147.338 468.286 145.303 474.256 144.871C480.227 144.439 485.861 145.657 491.16 148.528C496.529 151.353 501.101 155.727 504.874 161.65ZM483.329 168.681C481.352 165.578 478.722 163.784 475.438 163.298C472.154 162.812 468.926 163.58 465.752 165.601C462.719 167.533 460.707 170.053 459.714 173.164C458.792 176.229 459.117 179.541 460.69 183.099L483.329 168.681Z" fill="white"/>
<path d="M193.913 161.644C193.913 163.65 193.788 165.74 193.537 167.914H144.996C145.33 172.261 146.71 175.605 149.135 177.946C151.644 180.203 154.696 181.332 158.291 181.332C163.643 181.332 167.364 179.075 169.455 174.56H192.283C191.112 179.158 188.98 183.297 185.886 186.975C182.875 190.654 179.071 193.538 174.472 195.628C169.873 197.718 164.73 198.763 159.044 198.763C152.187 198.763 146.083 197.3 140.731 194.374C135.38 191.448 131.199 187.268 128.188 181.834C125.178 176.399 123.673 170.046 123.673 162.772C123.673 155.499 125.136 149.145 128.063 143.711C131.073 138.277 135.254 134.097 140.606 131.171C145.958 128.245 152.104 126.782 159.044 126.782C165.817 126.782 171.838 128.203 177.106 131.046C182.374 133.888 186.471 137.943 189.398 143.21C192.408 148.477 193.913 154.621 193.913 161.644ZM171.963 156.001C171.963 152.322 170.709 149.396 168.2 147.223C165.692 145.049 162.556 143.962 158.793 143.962C155.197 143.962 152.145 145.007 149.637 147.097C147.212 149.187 145.707 152.155 145.121 156.001H171.963Z" fill="#352A2B"/>
<path fill-rule="evenodd" clip-rule="evenodd" d="M101.326 4.95555C101.517 5.03176 101.681 5.16344 101.796 5.3336C101.912 5.50375 101.974 5.70459 101.974 5.91018V17.7909C101.974 17.9965 101.912 18.1973 101.796 18.3675C101.681 18.5376 101.517 18.6693 101.326 18.7455L91.3801 22.7231C91.1348 22.8212 90.8612 22.8212 90.616 22.7231L80.6698 18.7455C80.4791 18.6691 80.3156 18.5373 80.2005 18.3672C80.0853 18.197 80.0237 17.9963 80.0237 17.7909V5.91018C80.0237 5.70474 80.0853 5.50403 80.2005 5.33389C80.3156 5.16375 80.4791 5.03198 80.6698 4.95555L90.2346 1.13019L90.2401 1.12882L90.616 0.977945C90.8616 0.87951 91.1358 0.87951 91.3815 0.977945L91.7574 1.12882L91.7629 1.13019L101.326 4.95555ZM99.4413 5.67838L90.9987 9.05524L82.5562 5.67838L81.3956 6.14335V6.69199L90.3128 10.2581V21.1239L90.9987 21.3982L91.6847 21.1239V10.2595L100.602 6.69336V6.14472L99.4413 5.67975V5.67838Z" fill="white"/>
<path d="M263.777 152.113H268.543V198.387H263.777V152.113Z" fill="#352A2B"/>
<path d="M276.947 227.856H366.629V246.667H276.947V227.856Z" fill="white"/>
<path d="M0.376348 100.573H66.2266V119.383H0.376348V100.573Z" fill="white"/>
</svg>
