<svg width="512" height="519" viewBox="0 0 512 519" fill="none" xmlns="http://www.w3.org/2000/svg">
<path d="M128.557 2.99854H29.2334V106.533H128.557V2.99854Z" fill="#E0E0E0"/>
<path d="M121.831 2.99854H22.5068V106.533H121.831V2.99854Z" fill="#EBEBEB"/>
<path d="M108.484 16.9185H35.8662V92.6132H108.484V16.9185Z" fill="#FAFAFA"/>
<path d="M35.8646 93.1155C35.3303 93.8783 34.7231 94.5874 34.0515 95.2327C32.8818 96.4025 31.2441 98.0986 29.3725 99.9117C27.5009 101.725 25.8633 103.327 24.6935 104.462C24.0608 105.119 23.3676 105.714 22.623 106.24C23.1364 105.475 23.7284 104.765 24.3894 104.123C25.5591 102.953 27.1968 101.245 29.0684 99.4438C30.94 97.6424 32.5776 96.0282 33.8059 94.8818C34.4255 94.2195 35.1159 93.6272 35.8646 93.1155V93.1155Z" fill="#E0E0E0"/>
<path d="M108.483 92.8936C109.226 93.4309 109.915 94.038 110.542 94.7067C111.712 95.8764 113.408 97.5141 115.221 99.3857C117.034 101.257 118.625 102.895 119.772 104.065C120.431 104.694 121.027 105.388 121.55 106.135C120.801 105.61 120.111 105.006 119.491 104.334C118.321 103.164 116.625 101.526 114.812 99.6547C112.999 97.7831 111.408 96.1455 110.261 94.9757C109.597 94.3463 109.001 93.6483 108.483 92.8936V92.8936Z" fill="#E0E0E0"/>
<path d="M108.283 17.1174C108.816 16.3713 109.424 15.6815 110.096 15.0586C111.266 13.8889 112.892 12.1928 114.717 10.3796C116.542 8.56652 118.226 6.96396 119.454 5.82929C120.089 5.17062 120.787 4.57515 121.537 4.05127C121.001 4.79191 120.394 5.47762 119.723 6.09834C118.554 7.26809 116.928 8.97593 115.044 10.7774C113.161 12.5788 111.535 14.193 110.295 15.3394C109.686 15.9985 109.012 16.5942 108.283 17.1174V17.1174Z" fill="#E0E0E0"/>
<path d="M35.6667 17.3041C34.9242 16.7668 34.2348 16.1597 33.608 15.491C32.4382 14.3212 30.7304 12.6836 28.9289 10.812C27.1275 8.94037 25.5133 7.30272 24.3669 6.13296C23.7082 5.50565 23.1163 4.81179 22.6006 4.0625C23.3403 4.59447 24.026 5.19784 24.6477 5.86392C25.8174 7.03367 27.5252 8.67132 29.3267 10.5429C31.1281 12.4145 32.7423 14.0522 33.8887 15.2219C34.5531 15.8514 35.1491 16.5493 35.6667 17.3041V17.3041Z" fill="#E0E0E0"/>
<path d="M108.285 92.6133C108.285 92.6133 108.285 92.4846 108.285 92.2507C108.285 92.0167 108.285 91.6424 108.285 91.1979C108.285 90.2504 108.285 88.8584 108.285 87.1155C108.285 83.536 108.285 78.3189 108.285 71.6864C108.285 58.4331 108.215 39.5416 108.157 16.9186L108.402 17.1525H35.9829L36.2519 16.8835C36.2519 44.6651 36.2519 70.6921 36.2519 92.5782L36.018 92.3443L88.4697 92.4612L103.185 92.5314H107.08H103.244H88.5633L35.9244 92.6484H35.6904V92.4144C35.6904 70.4933 35.6904 44.4546 35.6904 16.7197V16.439H35.9712H108.391H108.625V16.6846C108.625 39.3661 108.531 58.3161 108.508 71.663C108.508 78.2721 108.508 83.4658 108.437 87.0336C108.437 88.7882 108.437 90.1451 108.437 91.0692C108.437 91.5137 108.437 91.853 108.437 92.0986C108.437 92.3443 108.285 92.6133 108.285 92.6133Z" fill="#E0E0E0"/>
<path d="M55.0266 48.5366C55.0266 48.5366 53.4708 67.2527 73.7426 67.2527C73.766 57.2747 65.5193 49.3788 55.0266 48.5366Z" fill="#EBEBEB"/>
<path d="M92.1643 48.5485C92.1643 48.5485 73.4482 46.9928 73.4482 67.2646C83.4262 67.2997 91.3221 59.0412 92.1643 48.5485Z" fill="#EBEBEB"/>
<path d="M72.8643 38.2896C72.8643 38.2896 57.5522 52.0341 73.7065 67.276C81.2163 59.3217 80.5379 46.8404 72.8643 38.2896Z" fill="#E0E0E0"/>
<path d="M384.277 382.127C378.096 378.263 371.114 375.863 363.865 375.108C360.531 374.769 356.846 374.863 354.202 376.886C353.896 377.067 353.643 377.326 353.468 377.636C353.294 377.946 353.204 378.297 353.208 378.653C353.375 379.143 353.711 379.558 354.156 379.823C362.461 386.151 375.024 386.958 384.277 382.104" fill="#E0E0E0"/>
<path d="M383.75 381.542C379.023 378.074 374.611 374.195 370.567 369.95C366.507 365.675 363.653 360.399 362.297 354.661C361.946 352.918 361.841 350.93 362.952 349.55C373.48 357.738 381.668 368.371 383.75 381.542" fill="#E0E0E0"/>
<path d="M384.171 382.045C383.196 376.308 383.275 370.441 384.405 364.733C385.727 359.083 388.804 353.679 393.635 350.45C395.448 354.696 394.664 359.586 393.389 364.019C391.407 370.892 388.317 377.395 384.242 383.273" fill="#E0E0E0"/>
<path d="M394.464 400.539C388.218 401.299 382.767 404.598 378.088 408.821C373.4 413.097 370.134 418.706 368.729 424.893C374.871 424.519 380.076 420.214 383.843 415.348C387.609 410.482 390.241 405.171 394.37 400.633" fill="#E0E0E0"/>
<path d="M396.711 403.452C394.25 397.201 393.39 390.435 394.207 383.768C395.024 377.1 397.493 370.743 401.39 365.271C404.957 377.939 403.647 392.257 396.711 403.452Z" fill="#E0E0E0"/>
<path d="M410.315 419.665C404.599 419.308 398.904 420.642 393.941 423.5C388.978 426.358 384.966 430.614 382.405 435.737C382.054 436.427 381.75 437.305 382.218 437.925C382.458 438.158 382.753 438.329 383.075 438.423C383.397 438.517 383.737 438.53 384.066 438.463C389.564 438.112 394.442 434.801 398.465 431.035C402.489 427.268 405.999 422.905 410.444 419.653" fill="#E0E0E0"/>
<path d="M409.882 418.788C406.953 409.352 406.775 399.277 409.367 389.743C410.385 386 412.105 382.069 415.567 380.315C415.704 380.222 415.86 380.159 416.023 380.131C416.186 380.103 416.354 380.109 416.514 380.151C416.793 380.298 417.006 380.544 417.111 380.841C418.27 383.456 418.772 386.316 418.573 389.17C418.366 392.012 417.927 394.832 417.263 397.604C416.175 402.762 415.602 408.307 412.771 412.752C412.1 413.819 411.498 414.929 410.97 416.074C410.432 417.244 410.432 417.606 409.94 418.507" fill="#E0E0E0"/>
<path d="M445.911 424.156C443.244 413.991 446.075 401.685 452.473 393.356C452.953 392.748 453.573 392.093 454.345 392.186C455.515 392.292 455.83 393.871 455.772 395.052C455.292 405.496 451.874 415.592 445.911 424.179" fill="#E0E0E0"/>
<path d="M449.162 426.368C461.503 429.584 475.657 426.461 485.916 418.893C479.767 415.811 472.741 414.951 466.03 416.46C459.386 417.98 453.315 420.952 449.174 426.368" fill="#E0E0E0"/>
<path d="M451.899 419.606C458.813 408.341 472.054 400.995 485.261 400.328C483.74 405.697 479.318 409.862 474.347 412.388C469.376 414.915 463.819 416.003 458.333 417.067C456.204 417.477 453.28 417.933 451.899 419.606Z" fill="#E0E0E0"/>
<path d="M446.602 386.806C448.473 380.396 450.357 373.939 450.871 367.272C451.386 360.604 450.427 353.667 446.976 347.947C440.519 360.44 439.876 375.027 446.403 387.473" fill="#E0E0E0"/>
<path d="M468.334 375.822C475.879 362.101 491.273 351.152 506.854 349.608C500.841 364.581 484.453 376.138 468.334 375.822Z" fill="#E0E0E0"/>
<path d="M463.585 378.513C474.838 380.221 484.43 387.415 494.946 391.767C497.148 392.835 499.594 393.303 502.035 393.124C503.173 393.118 504.282 392.762 505.211 392.104C506.14 391.446 506.844 390.518 507.228 389.446C507.611 388.374 507.655 387.21 507.354 386.112C507.053 385.014 506.421 384.036 505.544 383.309C504.054 381.936 502.304 380.874 500.397 380.186C488.934 375.413 476.651 375.297 464.579 378.186" fill="#E0E0E0"/>
<path d="M457.069 386.409C459.619 387.134 460.485 388.456 462.509 390.175C469.389 396.023 477.528 400.202 486.29 402.387C487.202 402.61 488.384 402.703 488.84 401.885C489.296 401.066 488.735 400.294 488.22 399.662C484.4 395.179 479.441 391.808 473.867 389.906C468.369 387.871 463.62 385.403 457.069 385.929" fill="#E0E0E0"/>
<path d="M449.713 338.717C454.332 342.968 459.79 346.204 465.735 348.218C471.68 350.233 477.981 350.981 484.232 350.415C484.806 350.426 485.364 350.227 485.8 349.854C486.665 348.906 485.624 347.444 484.63 346.66C474.477 338.753 462.194 335.466 449.725 338.671" fill="#E0E0E0"/>
<path d="M458.428 335.536C464.537 331.038 471.624 328.048 479.11 326.812C486.595 325.576 494.267 326.128 501.498 328.424C496.07 333.769 488.549 336.612 480.969 337.431C473.402 338.124 465.773 337.482 458.428 335.536Z" fill="#E0E0E0"/>
<path d="M454.965 313.626C453.971 303.496 454.614 295.507 453.912 285.33C453.912 284.511 453.69 283.54 452.93 283.247C451.865 282.838 450.988 284.136 450.59 285.213C449.115 289.93 448.737 294.922 449.485 299.808C450.233 304.694 452.087 309.344 454.906 313.404" fill="#E0E0E0"/>
<path d="M454.237 314.738C461.104 310.492 466.251 304.959 471.012 298.443C474.322 293.904 477.118 288.477 476.369 282.909C471.69 282.815 467.292 285.377 464.262 288.921C461.375 292.59 459.276 296.815 458.097 301.332C456.752 305.789 455.816 310.363 454.237 314.738" fill="#E0E0E0"/>
<path d="M470.72 310.164C485.82 304.572 499.799 296.328 512.001 285.822C507.076 283.833 501.473 285.026 496.502 286.991C485.237 291.542 476.031 299.215 470.51 310.024" fill="#E0E0E0"/>
<path d="M458.87 320.282C466.497 321.113 474.241 321.662 481.797 320.399C489.354 319.136 496.255 316.211 503.192 313.287C503.811 313.098 504.334 312.679 504.654 312.117C504.762 311.796 504.769 311.449 504.675 311.123C504.581 310.797 504.39 310.507 504.128 310.292C503.596 309.867 502.97 309.575 502.303 309.438C494.758 307.321 486.605 308.269 479.177 310.819C472.1 313.22 465.293 316.356 458.87 320.177" fill="#E0E0E0"/>
<path d="M415.356 339.068C410.162 328.54 410.501 316.328 414.982 305.508C418.152 310.327 418.491 316.457 417.953 322.2C417.415 327.944 415.613 333.828 415.52 339.595" fill="#E0E0E0"/>
<path d="M394.58 328.588C388.072 328.503 381.617 329.778 375.629 332.33C369.641 334.882 364.251 338.655 359.804 343.409C366.284 344.426 372.952 342.754 378.847 339.899C384.743 337.045 389.983 332.986 395.224 328.974" fill="#E0E0E0"/>
<path d="M380.626 323.92C374.274 323.405 368.157 322.621 362.051 324.493C355.944 326.365 350.353 330.611 347.908 336.495C353.9 336.976 359.911 335.841 365.314 333.208C370.685 330.574 375.809 327.466 380.626 323.92" fill="#E0E0E0"/>
<path d="M401.297 324.131C395.588 320.387 389.716 316.586 383.072 315.03C376.428 313.474 368.707 314.621 364.063 319.639C369.456 322.797 375.983 323.148 382.23 323.148C388.476 323.148 396.126 323.066 402.01 325.148" fill="#E0E0E0"/>
<path d="M401.329 324.434C391.562 314.842 387.865 297.612 391.796 284.511C399.503 296.312 402.873 310.424 401.329 324.434" fill="#E0E0E0"/>
<path d="M428.188 297.262C430.037 292.981 431.323 288.489 432.984 284.126C434.489 279.703 436.801 275.598 439.804 272.019C442.862 268.423 447.21 266.172 451.911 265.749C450.406 272.355 447.541 278.576 443.499 284.013C439.457 289.451 434.326 293.987 428.434 297.332" fill="#E0E0E0"/>
<path d="M423.335 302.923C420.282 298.735 416.761 293.038 412.632 289.904C408.503 286.769 403.11 284.874 398.068 286.078C400.682 290.656 404.326 294.562 408.712 297.486C413.097 300.41 418.104 302.271 423.335 302.923" fill="#E0E0E0"/>
<path d="M424.305 297.601C422.305 292.525 420.293 287.389 419.486 281.997C418.679 276.604 419.17 270.837 421.931 266.135C427.288 276.265 429.02 287.191 424.574 297.718" fill="#E0E0E0"/>
<path d="M428.235 266.146C431.277 256.098 440.471 248.693 450.402 245.301C451.636 244.801 452.971 244.601 454.297 244.716C454.957 244.793 455.58 245.06 456.089 245.487C456.598 245.913 456.972 246.478 457.163 247.114C457.526 248.822 456.111 250.354 454.824 251.489C447.057 258.117 438.028 263.103 428.282 266.146" fill="#E0E0E0"/>
<path d="M428.352 257.923C428.738 251.454 429.136 244.88 431.242 238.739C433.347 232.598 437.418 226.843 443.325 224.164C444.331 230.703 441.442 237.207 437.956 242.88C434.47 248.553 430.282 253.817 428.188 260.099" fill="#E0E0E0"/>
<path d="M428.188 262.391C425.685 255.068 425.416 245.769 421.041 239.382C417.976 234.925 413.063 231.884 410.419 227.17C408.825 231.696 409.048 236.665 411.039 241.031C413.031 245.353 415.776 249.286 419.146 252.647C422.398 256.156 425.17 258.718 428.188 262.391Z" fill="#E0E0E0"/>
<path d="M428.236 478.011C428.049 478.011 427.874 429.163 427.862 368.932C427.85 308.701 427.991 259.829 428.19 259.829C428.388 259.829 428.552 308.666 428.564 368.932C428.576 429.198 428.435 478.011 428.236 478.011Z" fill="#E0E0E0"/>
<path d="M470.919 331.698C470.33 331.986 469.715 332.217 469.083 332.389L464.029 334.097C459.772 335.547 453.911 337.606 447.559 340.249C441.208 342.893 435.335 345.139 431.955 348.063C430.609 349.193 429.537 350.613 428.82 352.216C428.34 353.386 428.258 354.064 428.188 354.052C428.16 353.882 428.16 353.708 428.188 353.538C428.264 353.052 428.386 352.574 428.551 352.111C429.188 350.407 430.237 348.888 431.604 347.689C433.644 345.966 435.926 344.551 438.377 343.49C441.079 342.226 444.085 340.904 447.267 339.594C453.642 336.986 459.549 334.915 463.854 333.617C466.006 332.95 467.761 332.447 468.989 332.12C469.618 331.918 470.264 331.777 470.919 331.698V331.698Z" fill="#E0E0E0"/>
<path d="M484.909 297.331C484.909 297.331 484.757 297.542 484.394 297.881L482.827 299.355L476.978 304.666L457.502 322.013C449.898 328.774 443.336 335.243 438.786 340.109C436.505 342.542 434.703 344.554 433.475 345.958C432.914 346.613 432.446 347.128 432.06 347.572C431.674 348.017 431.557 348.134 431.533 348.11C431.654 347.891 431.795 347.684 431.954 347.49C432.247 347.093 432.68 346.508 433.264 345.782C434.434 344.32 436.177 342.273 438.411 339.77C444.289 333.349 450.506 327.246 457.034 321.487C464.661 314.726 471.609 308.619 476.651 304.291L482.651 299.144L484.301 297.776C484.486 297.605 484.69 297.456 484.909 297.331V297.331Z" fill="#E0E0E0"/>
<path d="M449.303 328.891C449.104 328.798 450.683 325.137 452.274 320.493C453.865 315.849 454.614 311.942 454.824 311.977C455.035 312.012 454.555 316.024 452.941 320.727C452.266 322.717 451.486 324.669 450.602 326.575C450.282 327.406 449.845 328.186 449.303 328.891V328.891Z" fill="#E0E0E0"/>
<path d="M428.283 358.428C427.846 358.018 427.454 357.563 427.113 357.071L424.107 353.222C421.592 349.959 418.106 345.467 414.199 340.542C410.292 335.618 406.701 331.184 404.104 328.014L401.051 324.236C400.65 323.791 400.297 323.305 399.998 322.785C400.461 323.167 400.885 323.594 401.261 324.06C402.045 324.903 403.156 326.154 404.502 327.71C407.204 330.833 410.865 335.196 414.772 340.133C418.679 345.069 422.118 349.608 424.539 352.942C425.709 354.614 426.703 355.971 427.359 356.931C427.709 357.402 428.018 357.903 428.283 358.428V358.428Z" fill="#E0E0E0"/>
<path d="M418.924 346.438C418.807 346.567 416.316 343.596 415.005 339.104C414.268 336.709 413.967 334.201 414.116 331.699H414.421C414.292 332.261 414.187 332.565 414.128 332.553C414.07 332.541 414.07 332.226 414.128 331.652H414.444C414.59 334.09 415.01 336.503 415.696 338.846C416.947 343.221 419.111 346.321 418.924 346.438Z" fill="#E0E0E0"/>
<path d="M406.9 331.242C406.059 330.598 405.139 330.063 404.163 329.651C401.7 328.915 399.109 328.707 396.56 329.043C393.979 329.242 391.42 329.657 388.909 330.283C387.881 330.612 386.829 330.862 385.763 331.031C386.702 330.475 387.719 330.061 388.781 329.803C391.294 329.022 393.888 328.532 396.513 328.341C399.155 327.989 401.843 328.278 404.35 329.183C405.416 329.548 406.319 330.277 406.9 331.242V331.242Z" fill="#E0E0E0"/>
<path d="M403.974 327.558C403.974 327.663 402.384 326.915 399.787 326.026C392.993 323.698 385.717 323.146 378.649 324.423C375.947 324.903 374.31 325.406 374.274 325.289C374.617 325.073 374.992 324.915 375.386 324.821C376.422 324.458 377.481 324.161 378.556 323.932C385.692 322.364 393.133 322.93 399.951 325.558C400.975 325.95 401.975 326.403 402.945 326.915C403.635 327.289 403.998 327.511 403.974 327.558Z" fill="#E0E0E0"/>
<path d="M428.189 311.977C428.002 311.977 426.633 307.298 425.136 301.356C423.639 295.413 422.563 290.606 422.797 290.559C423.031 290.512 424.352 295.238 425.85 301.18C427.347 307.123 428.376 311.93 428.189 311.977Z" fill="#E0E0E0"/>
<path d="M428.386 311.977C428.176 312.047 427.287 308.865 424.994 305.613C423.556 303.691 421.877 301.962 419.999 300.467C420.711 300.644 421.371 300.984 421.929 301.461C423.345 302.498 424.575 303.768 425.567 305.216C427.08 307.185 428.052 309.516 428.386 311.977V311.977Z" fill="#E0E0E0"/>
<path d="M428.234 452.009C428.164 452.009 428.012 450.839 427.462 448.757C426.657 445.837 425.563 443.004 424.199 440.3C420.83 433.41 414.689 424.66 406.886 415.91C403.014 411.489 399.271 407.324 396.089 403.335C393.232 399.822 390.647 396.095 388.357 392.188C386.826 389.551 385.523 386.788 384.462 383.929C384.1 382.9 383.842 382.116 383.69 381.59C383.589 381.287 383.526 380.972 383.503 380.654C383.573 380.654 383.924 381.824 384.731 383.765C385.887 386.568 387.247 389.281 388.802 391.883C391.134 395.728 393.741 399.399 396.604 402.867C399.798 406.809 403.553 410.962 407.424 415.384C415.25 424.169 421.38 433.012 424.667 440.03C426 442.781 427.032 445.667 427.743 448.64C427.938 449.445 428.082 450.262 428.176 451.085C428.231 451.389 428.251 451.699 428.234 452.009V452.009Z" fill="#E0E0E0"/>
<path d="M466.814 408.412C466.163 408.842 465.487 409.232 464.79 409.582C462.961 410.623 461.209 411.796 459.55 413.091C457.092 415.001 454.788 417.101 452.66 419.372C450.238 421.923 447.747 424.894 445.208 428.064C440.132 434.439 435.383 440.077 432.54 444.581C431.09 446.815 430.037 448.698 429.347 450.02C429.028 450.726 428.657 451.406 428.235 452.055C428.269 451.856 428.332 451.663 428.423 451.482C428.575 451.12 428.785 450.57 429.101 449.903C429.993 447.982 430.997 446.115 432.107 444.312C434.88 439.703 439.594 433.983 444.659 427.619C447.209 424.437 449.724 421.466 452.192 418.916C454.356 416.652 456.703 414.57 459.21 412.693C460.915 411.433 462.727 410.325 464.626 409.383C465.293 409.044 465.796 408.833 466.206 408.681C466.388 408.55 466.595 408.459 466.814 408.412V408.412Z" fill="#E0E0E0"/>
<path d="M467.563 422.542C466.158 422.857 464.73 423.065 463.293 423.162C459.864 423.518 456.473 424.183 453.163 425.151C449.892 426.218 446.824 427.828 444.086 429.911C441.992 431.537 441.01 432.871 440.916 432.789C441.063 432.425 441.277 432.091 441.548 431.807C442.212 430.957 442.956 430.174 443.77 429.467C446.476 427.214 449.589 425.503 452.941 424.425C456.297 423.431 459.754 422.819 463.247 422.601C464.681 422.449 466.125 422.429 467.563 422.542V422.542Z" fill="#E0E0E0"/>
<path d="M442.155 431.246C441.933 431.117 443.863 428.17 445.349 424.227C446.834 420.285 447.08 416.741 447.337 416.776C447.447 417.554 447.424 418.346 447.267 419.116C447.053 420.958 446.634 422.771 446.015 424.52C445.369 426.254 444.538 427.913 443.536 429.468C443.176 430.132 442.709 430.733 442.155 431.246V431.246Z" fill="#E0E0E0"/>
<path d="M479.307 370.465C479.088 370.606 478.857 370.727 478.617 370.827L476.605 371.74C475.727 372.114 474.663 372.594 473.458 373.225C472.253 373.857 470.849 374.489 469.376 375.378L467.036 376.699C466.229 377.167 465.422 377.717 464.58 378.243C462.86 379.296 461.141 380.583 459.304 381.881C451.435 387.757 444.57 394.867 438.974 402.937C437.734 404.82 436.506 406.587 435.523 408.341C435.02 409.207 434.494 410.026 434.061 410.844L432.809 413.184C431.979 414.681 431.394 416.108 430.809 417.337C430.224 418.565 429.768 419.676 429.429 420.542L428.586 422.577C428.5 422.823 428.386 423.059 428.247 423.279C428.282 423.022 428.349 422.771 428.446 422.53C428.645 421.981 428.879 421.29 429.171 420.436C429.542 419.332 429.967 418.247 430.446 417.185C430.996 415.933 431.557 414.482 432.365 412.962L433.534 410.552C433.955 409.722 434.47 408.891 434.973 408.002C435.932 406.224 437.149 404.493 438.389 402.539C443.961 394.368 450.884 387.204 458.86 381.355C460.731 380.045 462.474 378.77 464.217 377.74C465.083 377.214 465.89 376.676 466.709 376.22L469.048 374.921C470.534 374.067 471.972 373.447 473.201 372.863C474.244 372.343 475.314 371.878 476.406 371.471L478.476 370.687C478.741 370.573 479.021 370.498 479.307 370.465Z" fill="#E0E0E0"/>
<path d="M448.775 390.912C449.062 389.928 449.646 389.058 450.448 388.421C452.327 386.78 454.727 385.86 457.221 385.824C459.661 385.807 462.079 386.281 464.333 387.216C465.288 387.517 466.194 387.955 467.024 388.514C466.063 388.324 465.123 388.042 464.216 387.672C461.983 386.908 459.64 386.513 457.28 386.502C454.94 386.552 452.678 387.347 450.822 388.771C450.091 389.436 449.407 390.151 448.775 390.912V390.912Z" fill="#E0E0E0"/>
<path d="M444.214 395.626C444.015 395.521 445.735 392.995 446.133 389.38C446.53 385.765 445.489 382.911 445.7 382.853C445.91 382.794 446.168 383.484 446.495 384.678C447.329 387.822 446.94 391.166 445.407 394.036C444.811 395.112 444.331 395.673 444.214 395.626Z" fill="#E0E0E0"/>
<path d="M394.499 459.027C395.552 477.743 401.178 496.681 409.835 515.877H447.454C455.712 496.81 460.941 477.86 461.877 459.027H394.499Z" fill="#E0E0E0"/>
<path d="M455.783 489.171C455.783 489.37 443.396 489.534 428.107 489.534C412.818 489.534 400.442 489.37 400.442 489.171C400.442 488.972 412.83 488.82 428.107 488.82C443.384 488.82 455.783 488.984 455.783 489.171Z" fill="#FAFAFA"/>
<path d="M454.94 495.933C454.94 496.132 443.324 496.296 429.007 496.296C414.689 496.296 403.062 496.132 403.062 495.933C403.062 495.734 414.677 495.582 429.007 495.582C443.336 495.582 454.94 495.746 454.94 495.933Z" fill="#FAFAFA"/>
<path d="M410.409 471.227C410.876 476.996 410.876 482.794 410.409 488.563C410.21 488.563 410.058 484.679 410.058 479.895C410.058 475.111 410.245 471.227 410.409 471.227Z" fill="#FAFAFA"/>
<path d="M430.598 471.227C430.797 471.227 430.949 475.24 430.949 480.199C430.949 485.159 430.797 489.171 430.598 489.171C430.399 489.171 430.247 485.159 430.247 480.199C430.247 475.24 430.399 471.227 430.598 471.227Z" fill="#FAFAFA"/>
<path d="M449.525 471.075C449.724 471.075 449.876 475.169 449.876 480.223C449.876 485.276 449.724 489.382 449.525 489.382C449.326 489.382 449.174 485.288 449.174 480.223C449.174 475.158 449.326 471.075 449.525 471.075Z" fill="#FAFAFA"/>
<path d="M460.707 471.227C460.707 471.426 446.179 471.578 428.259 471.578C410.338 471.578 395.81 471.426 395.81 471.227C395.81 471.029 410.326 470.876 428.259 470.876C446.191 470.876 460.707 471.029 460.707 471.227Z" fill="#FAFAFA"/>
<path d="M440.494 285.002H14.1426V298.138H440.494V285.002Z" fill="#EBEBEB"/>
<path d="M51.026 296.524L19.0801 515.818H25.9348L65.3321 298.139L51.026 296.524Z" fill="#EBEBEB"/>
<path d="M410.385 295.133L444.086 515.818H437.243L396.067 297.145L410.385 295.133Z" fill="#EBEBEB"/>
<path d="M30.3319 232.095V261.666H25.3955V264.848H30.3319V284.64H122.649V266.626H115.817V262.695H122.649V256.847H125.69V254.18H122.064V232.095H30.3319Z" fill="#F5F5F5"/>
<path d="M98.1201 232.141V284.301H122.626V266.298H115.795V262.707L122.626 262.824V256.94H125.726L125.668 253.899L122.065 253.817V232.059L98.1201 232.141Z" fill="#E0E0E0"/>
<path d="M99.8627 264.414C99.8627 264.602 83.1704 264.742 62.571 264.742C41.9717 264.742 25.2676 264.602 25.2676 264.414C25.2676 264.227 41.9717 264.087 62.571 264.087C83.1704 264.087 99.8627 264.239 99.8627 264.414Z" fill="#E0E0E0"/>
<path d="M99.8627 261.409C99.8627 261.596 83.1704 261.736 62.571 261.736C41.9717 261.736 25.2676 261.596 25.2676 261.409C25.2676 261.221 41.9717 261.081 62.571 261.081C83.1704 261.081 99.8627 261.233 99.8627 261.409Z" fill="#E0E0E0"/>
<path d="M104.659 253.325C104.659 253.512 87.9546 253.652 67.3669 253.652C46.7792 253.652 30.0635 253.512 30.0635 253.325C30.0635 253.138 46.7559 252.997 67.3669 252.997C87.978 252.997 104.659 253.149 104.659 253.325Z" fill="#E0E0E0"/>
<path d="M105.104 275.374C105.104 275.562 88.4116 275.714 67.8122 275.714C47.2129 275.714 30.5088 275.562 30.5088 275.374C30.5088 275.187 47.2012 275.047 67.8122 275.047C88.4233 275.047 105.104 275.176 105.104 275.374Z" fill="#E0E0E0"/>
<path d="M129.47 212.256H113.374V231.393H129.47V212.256Z" fill="#F5F5F5"/>
<path d="M113.924 211.004H41.1885V232.586H113.924V211.004Z" fill="#E0E0E0"/>
<path d="M129.949 212.829H111.97V211.039H129.949C130.191 211.039 130.423 211.135 130.594 211.306C130.765 211.477 130.861 211.709 130.861 211.951C130.852 212.187 130.752 212.41 130.582 212.574C130.412 212.738 130.185 212.829 129.949 212.829Z" fill="#E0E0E0"/>
<path d="M129.949 232.597H111.97V230.772H129.949C130.191 230.772 130.423 230.869 130.594 231.04C130.765 231.211 130.861 231.443 130.861 231.685C130.861 231.927 130.765 232.159 130.594 232.33C130.423 232.501 130.191 232.597 129.949 232.597Z" fill="#E0E0E0"/>
<path d="M108.214 211.004H99.6162V232.586H108.214V211.004Z" fill="#EBEBEB"/>
<path d="M56.71 211.25H48.1123V232.832H56.71V211.25Z" fill="#EBEBEB"/>
<path d="M129.469 215.426C129.469 215.426 125.96 215.519 121.69 215.519C117.42 215.519 113.899 215.519 113.899 215.426C113.899 215.332 117.409 215.32 121.69 215.32C125.971 215.32 129.469 215.367 129.469 215.426Z" fill="#E0E0E0"/>
<path d="M129.469 218.291C129.469 218.291 125.96 218.385 121.69 218.385C117.42 218.385 113.899 218.385 113.899 218.291C113.899 218.198 117.409 218.198 121.69 218.198C125.971 218.198 129.469 218.233 129.469 218.291Z" fill="#E0E0E0"/>
<path d="M129.469 221.824C129.469 221.824 125.96 221.918 121.69 221.918C117.42 221.918 113.899 221.918 113.899 221.824C113.899 221.731 117.409 221.731 121.69 221.731C125.971 221.731 129.469 221.766 129.469 221.824Z" fill="#E0E0E0"/>
<path d="M129.469 225.357C129.469 225.357 125.96 225.45 121.69 225.45C117.42 225.45 113.899 225.45 113.899 225.357C113.899 225.263 117.409 225.263 121.69 225.263C125.971 225.263 129.469 225.298 129.469 225.357Z" fill="#E0E0E0"/>
<path d="M129.469 228.889C129.469 228.889 125.96 228.983 121.69 228.983C117.42 228.983 113.899 228.983 113.899 228.889C113.899 228.796 117.409 228.796 121.69 228.796C125.971 228.796 129.469 228.831 129.469 228.889Z" fill="#E0E0E0"/>
<path d="M94.9846 219.883H62.2666V223.766H94.9846V219.883Z" fill="#EBEBEB"/>
<path d="M98.646 190.053L107.7 211.32H101.875L97.8506 199.961L98.646 190.053Z" fill="#E0E0E0"/>
<path d="M70.8521 170.823L67.3545 211.319H96.9375L100.189 170.823H70.8521Z" fill="#EBEBEB"/>
<path d="M73.7415 174.028L70.6768 207.951L92.8904 208.243L95.8849 173.829L73.7415 174.028Z" fill="#FAFAFA"/>
<path d="M78.4548 178.73L76.7119 202.066H88.5615L90.6437 178.73H78.4548Z" fill="#E0E0E0"/>
<path d="M418.412 20.2943L407.475 20.3535L407.769 74.7813L418.706 74.7222L418.412 20.2943Z" fill="#E0E0E0"/>
<path d="M341.033 20.4327L312.702 20.5859L312.865 50.6365L341.196 50.4832L341.033 20.4327Z" fill="#EBEBEB"/>
<path d="M369.224 20.2923L340.893 20.4456L341.055 50.4961L369.386 50.3428L369.224 20.2923Z" fill="#F5F5F5"/>
<path d="M312.747 28.9083C331.568 29.0721 350.448 28.9083 369.269 28.651C369.338 28.6372 369.4 28.6 369.445 28.5456C369.49 28.4912 369.514 28.423 369.514 28.3527C369.514 28.2823 369.49 28.2141 369.445 28.1597C369.4 28.1053 369.338 28.0681 369.269 28.0544C350.452 27.9452 331.615 28.0583 312.758 28.3936C312.69 28.3936 312.625 28.4207 312.576 28.469C312.528 28.5172 312.501 28.5827 312.501 28.651C312.501 28.7192 312.528 28.7847 312.576 28.8329C312.625 28.8812 312.69 28.9083 312.758 28.9083H312.747Z" fill="#E0E0E0"/>
<path d="M346.517 49.9974L295.049 50.2759L295.181 74.7585L346.65 74.48L346.517 49.9974Z" fill="#EBEBEB"/>
<path d="M397.737 49.7083L346.269 49.9868L346.401 74.4694L397.869 74.1909L397.737 49.7083Z" fill="#F5F5F5"/>
<path d="M295.072 57.0993C329.264 57.4854 363.573 57.0993 397.764 56.5963C397.845 56.5963 397.922 56.5643 397.979 56.5073C398.037 56.4502 398.069 56.3729 398.069 56.2922C398.069 56.2115 398.037 56.1342 397.979 56.0771C397.922 56.0201 397.845 55.9881 397.764 55.9881C363.573 55.8126 329.252 55.8243 295.072 56.5846C295.004 56.5846 294.938 56.6118 294.89 56.66C294.842 56.7083 294.814 56.7737 294.814 56.842C294.814 56.9102 294.842 56.9757 294.89 57.024C294.938 57.0722 295.004 57.0993 295.072 57.0993V57.0993Z" fill="#E0E0E0"/>
<path d="M475.226 74.7737H275.83V83.5468H475.226V74.7737Z" fill="#E0E0E0"/>
<path d="M316.57 78.9973H308.476V108.931H316.57V78.9973Z" fill="#E0E0E0"/>
<path d="M437.406 78.9973H429.312V108.931H437.406V78.9973Z" fill="#E0E0E0"/>
<path d="M429.075 -9.36246e-05L418.138 0.059082L418.543 74.9222L429.48 74.863L429.075 -9.36246e-05Z" fill="#EBEBEB"/>
<path d="M446.17 13.9444L429.174 14.0364L429.502 74.6989L446.498 74.6069L446.17 13.9444Z" fill="#F5F5F5"/>
<path d="M446.062 25.6452C443.237 25.9382 440.396 26.0359 437.558 25.9376C434.724 26.0361 431.886 25.9384 429.065 25.6452C434.724 25.2553 440.403 25.2553 446.062 25.6452V25.6452Z" fill="#E0E0E0"/>
<path d="M446.062 23.0947C443.237 23.3876 440.396 23.4854 437.558 23.3871C434.724 23.4856 431.886 23.3879 429.065 23.0947C434.724 22.7048 440.403 22.7048 446.062 23.0947V23.0947Z" fill="#E0E0E0"/>
<path d="M446.062 65.4985C440.403 65.8884 434.724 65.8884 429.065 65.4985C434.724 65.1086 440.403 65.1086 446.062 65.4985V65.4985Z" fill="#E0E0E0"/>
<path d="M446.062 62.9479C440.403 63.3378 434.724 63.3378 429.065 62.9479C434.724 62.558 440.403 62.558 446.062 62.9479V62.9479Z" fill="#E0E0E0"/>
<path d="M437.838 57.3918C437.675 57.3918 437.534 51.274 437.534 43.7174C437.534 36.1608 437.675 30.0547 437.838 30.0547C438.002 30.0547 438.131 36.1725 438.131 43.7174C438.131 51.2623 437.99 57.3918 437.838 57.3918Z" fill="#E0E0E0"/>
<path d="M464.742 28.8616H446.236V74.6574H464.742V28.8616Z" fill="#EBEBEB"/>
<path d="M426.599 12.801C426.601 13.4238 426.419 14.0333 426.074 14.5523C425.73 15.0713 425.239 15.4764 424.665 15.7164C424.09 15.9564 423.457 16.0203 422.846 15.9002C422.234 15.7802 421.673 15.4814 421.231 15.0418C420.79 14.6022 420.489 14.0416 420.367 13.4308C420.245 12.8201 420.306 12.1869 420.544 11.6112C420.782 11.0356 421.185 10.5434 421.703 10.1971C422.221 9.85087 422.829 9.66602 423.452 9.66602C424.285 9.66601 425.083 9.99592 425.673 10.5835C426.263 11.1711 426.596 11.9684 426.599 12.801V12.801Z" fill="#E0E0E0"/>
<path d="M424.421 21.4565H422.479V65.989H424.421V21.4565Z" fill="#E0E0E0"/>
<path d="M490.945 515.819C490.945 515.982 380.989 516.123 245.484 516.123C109.98 516.123 0 515.982 0 515.819C0 515.655 109.887 515.514 245.484 515.514C381.082 515.514 490.945 515.643 490.945 515.819Z" fill="#263238"/>
<path d="M243.476 367.634L291.705 515.818H282.92L226.421 367.634H243.476Z" fill="#E0E0E0"/>
<path d="M243.474 367.634H242.304H239.029L226.372 367.704L226.489 367.529C236.175 392.76 257.055 447.329 281.245 510.496C281.9 512.227 282.555 514.005 283.21 515.654L282.93 515.467H291.703L291.41 515.865C277.946 474.327 265.933 437.304 257.289 410.657C252.984 397.311 249.521 386.572 247.135 379.144C245.965 375.436 245.03 372.559 244.398 370.593L243.696 368.359C243.544 367.856 243.474 367.587 243.474 367.587C243.474 367.587 243.567 367.821 243.731 368.312L244.468 370.5C245.111 372.453 246.059 375.296 247.275 378.969C249.709 386.373 253.218 397.077 257.593 410.365C266.307 437.047 278.414 474.105 291.983 515.643L292.112 516.04H282.754L282.672 515.842C282.029 514.134 281.362 512.414 280.707 510.683C256.669 447.423 235.905 392.795 226.325 367.599V367.423H226.512L239.239 367.494H242.479C243.135 367.61 243.474 367.634 243.474 367.634Z" fill="#263238"/>
<path d="M148.56 367.634L100.331 515.818H109.104L165.615 367.634H148.56Z" fill="#E0E0E0"/>
<path d="M148.56 367.634C148.56 367.634 148.923 367.634 149.648 367.634H152.888L165.615 367.563H165.802L165.732 367.739C156.164 392.935 135.401 447.563 111.362 510.823L109.385 515.982L109.315 516.181H99.957L100.086 515.783L134.488 410.505L144.805 379.109C145.975 375.436 146.969 372.593 147.613 370.64L148.35 368.453C148.513 367.961 148.607 367.727 148.607 367.727C148.607 367.727 148.537 367.996 148.385 368.499L147.683 370.733C147.051 372.699 146.127 375.576 144.946 379.284C142.548 386.712 139.097 397.451 134.792 410.798C126.136 437.445 114.134 474.467 100.671 516.005L100.378 515.607H109.151L108.871 515.795L110.836 510.636C135.026 447.469 155.906 392.854 165.533 367.68L165.662 367.856L152.994 367.786H149.73L148.56 367.634Z" fill="#263238"/>
<path d="M227.659 370.886C227.394 371.11 227.113 371.314 226.816 371.494L224.336 373.132L215.201 379.121C207.492 384.198 196.859 391.239 185.173 399.077L155.251 419.255L146.174 425.349L143.705 426.917C143.427 427.124 143.129 427.304 142.816 427.455C143.074 427.225 143.348 427.014 143.635 426.823L146.045 425.104L155.017 418.857C162.609 413.617 173.148 406.423 184.846 398.585C196.543 390.748 207.2 383.753 214.978 378.77C218.862 376.29 221.997 374.29 224.22 372.921L226.758 371.377C227.045 371.191 227.346 371.026 227.659 370.886V370.886Z" fill="#263238"/>
<path d="M135.133 209.658C135.133 209.658 120.019 211.214 117.82 220.315C115.621 229.415 108.462 341.969 117.82 357.913C127.178 373.856 247.663 371.634 256.027 369.446C264.39 367.259 268.332 361.831 267.478 355.199C266.625 348.566 184.578 340.343 184.578 340.343L189.585 222.876C189.585 222.876 160.083 208.02 135.133 209.658Z" fill="#263238"/>
<path d="M267.548 358.042H267.185H266.109L261.98 358.147C258.388 358.241 253.195 358.287 246.773 358.276C233.905 358.276 216.184 357.831 196.637 356.427C186.87 355.714 177.57 354.813 169.136 353.854C160.702 352.895 153.122 351.842 146.782 350.848C143.601 350.38 140.746 349.877 138.231 349.456C135.716 349.035 133.552 348.649 131.786 348.286L127.727 347.502L126.674 347.292L126.323 347.198C126.444 347.182 126.565 347.182 126.686 347.198L127.75 347.35L131.833 348.017C133.599 348.321 135.763 348.684 138.29 349.058C140.816 349.432 143.671 349.924 146.841 350.356C153.192 351.304 160.772 352.275 169.195 353.234C177.617 354.193 186.916 355.047 196.684 355.761C216.219 357.164 233.941 357.644 246.773 357.784C253.183 357.855 258.377 357.866 261.98 357.855H267.197L267.548 358.042Z" fill="#455A64"/>
<path d="M249.861 429.116C249.767 429.256 230.677 415.839 207.235 399.17C183.793 382.501 164.855 368.85 164.949 368.756C165.042 368.663 184.133 382.033 207.586 398.714C231.04 415.394 249.955 428.975 249.861 429.116Z" fill="#263238"/>
<path d="M145.808 108.603L136.157 91.6068C142.118 81.9293 144.243 70.3723 142.115 59.2076C139.987 48.0429 133.759 38.0779 124.657 31.2714C115.555 24.4649 104.236 21.3093 92.925 22.4247C81.6141 23.5402 71.1295 28.846 63.5321 37.2994C55.9347 45.7527 51.774 56.7421 51.8678 68.1075C51.9616 79.4728 56.3031 90.392 64.039 98.7188C71.7749 107.046 82.3457 112.178 93.6734 113.106C105.001 114.035 116.267 110.693 125.255 103.737L145.808 108.603Z" fill="white"/>
<path d="M145.809 108.603L125.198 103.924H124.917L125.093 103.69L125.35 103.948C119.014 108.898 111.478 112.079 103.511 113.165C101.125 113.505 98.7134 113.63 96.3051 113.54C95.0652 113.47 93.8018 113.434 92.5268 113.329L88.6783 112.756C77.2103 110.506 67.0297 103.973 60.2065 94.4845C56.4173 89.2511 53.7892 83.269 52.4979 76.9382C51.1874 70.2233 51.3711 63.3023 53.0359 56.6664C54.7591 49.7405 58.1073 43.3247 62.8034 37.9503C67.5711 32.4338 73.5865 28.1348 80.3497 25.4105C86.8369 22.8489 93.8167 21.7775 100.774 22.2756C107.343 22.7288 113.733 24.6217 119.49 27.8202C129.835 33.5431 137.59 43.0185 141.153 54.2918C142.558 59.1037 143.224 64.1008 143.13 69.1125C142.882 77.1068 140.53 84.8941 136.311 91.6888V91.5016L145.809 108.592C145.177 107.516 142.206 102.38 136.007 91.6771V91.5952V91.5016C140.135 84.7388 142.414 77.0099 142.616 69.0891C142.692 64.1412 142.014 59.2106 140.604 54.4672C137.082 43.323 129.426 33.9508 119.209 28.2764C113.529 25.1339 107.227 23.2808 100.75 22.8488C93.8999 22.3625 87.0279 23.4219 80.6421 25.9486C73.9866 28.6347 68.0676 32.8694 63.3766 38.3012C58.7505 43.5939 55.4541 49.914 53.7612 56.7365C52.1103 63.2668 51.9226 70.0812 53.2114 76.6925C54.462 82.9557 57.0385 88.8786 60.768 94.0634C67.4839 103.446 77.5231 109.918 88.8421 112.159L92.6438 112.744C93.9071 112.85 95.1471 112.885 96.3753 112.967C98.7553 113.062 101.139 112.949 103.499 112.627C111.393 111.586 118.873 108.483 125.186 103.632L126.356 102.755L125.479 103.924L125.373 103.644L145.809 108.603Z" fill="#263238"/>
<path d="M89.6259 61.6968H92.5035L98.7734 52.9471V47.2036C98.7734 47.2036 103.218 46.9345 102.704 54.4444C102.189 61.9542 102.704 60.0475 102.704 60.0475C102.704 60.0475 112.144 60.0475 112.927 60.9131C113.501 61.498 113.758 70.8794 113.851 75.9561C113.917 77.183 113.568 78.3964 112.862 79.4017C112.156 80.407 111.133 81.1462 109.956 81.5008C109.625 81.5932 109.283 81.6404 108.939 81.6411C106.599 81.6411 94.5623 79.7227 94.5623 79.7227H89.5908L89.6259 61.6968Z" fill="#D64D54"/>
<path d="M81.3916 60.1177L83.1696 79.7812H88.0943V60.5154L81.3916 60.1177Z" fill="#D64D54"/>
<path d="M327.789 309.299C327.789 309.299 354.857 309.299 355.968 334.519C357.08 359.739 277.174 492.786 277.174 492.786L251.872 480.773L306.125 351.667L188.401 340.087L191.735 310.469L327.789 309.299Z" fill="#FFBE9D"/>
<path d="M282.52 485.112L281.736 486.901C281.736 486.901 306.535 512.402 304.312 518.274L244.526 491.37L254.294 471.835C261.324 479.965 270.425 484.62 282.52 485.112Z" fill="#455A64"/>
<g opacity="0.6">
<path d="M257.488 480.936C256.834 480.854 256.172 481.015 255.629 481.388C255.085 481.761 254.698 482.32 254.54 482.96C254.431 483.611 254.577 484.279 254.948 484.825C255.318 485.372 255.884 485.755 256.528 485.896C257.221 485.981 257.92 485.807 258.492 485.407C259.065 485.008 259.469 484.411 259.628 483.732C259.674 483.042 259.449 482.362 259.001 481.836C258.553 481.309 257.918 480.978 257.23 480.913" fill="white"/>
</g>
<g opacity="0.6">
<path d="M244.528 491.383L246.868 486.704L303.308 514.205C303.308 514.205 305.449 516.544 304.303 518.299L244.528 491.383Z" fill="white"/>
</g>
<path d="M281.864 487.16C281.724 487.44 280.203 486.926 278.355 487.218C276.507 487.511 275.173 488.388 274.951 488.154C274.729 487.92 275.934 486.423 278.191 486.107C280.449 485.791 282.051 486.914 281.864 487.16Z" fill="#263238"/>
<path d="M286.977 492.575C286.919 492.879 285.421 492.809 283.877 493.605C282.333 494.4 281.456 495.57 281.175 495.429C280.894 495.289 281.444 493.546 283.386 492.599C285.328 491.651 287.094 492.295 286.977 492.575Z" fill="#263238"/>
<path d="M287.164 501.676C286.872 501.676 287.164 499.98 288.579 498.717C289.995 497.454 291.703 497.442 291.714 497.734C291.726 498.027 290.545 498.506 289.375 499.559C288.205 500.612 287.468 501.782 287.164 501.676Z" fill="#263238"/>
<path d="M276.578 214.21L281.385 228.914L255.171 230.961L252.118 223.088L276.578 214.21Z" fill="#FFBE9D"/>
<path d="M351.008 233.499C351.511 234.505 352.821 234.668 353.827 235.195C354.764 235.731 355.532 236.52 356.042 237.471C356.553 238.423 356.787 239.498 356.716 240.576C356.548 242.73 355.835 244.807 354.646 246.611C354.28 247.345 353.747 247.982 353.09 248.471C352.757 248.703 352.361 248.827 351.955 248.827C351.55 248.827 351.154 248.703 350.821 248.471C350.049 247.828 350.142 246.635 350.306 245.641C350.926 241.909 350.119 237.195 350.996 233.51" fill="#FFBE9D"/>
<path d="M176.668 49.1343C176.446 47.4939 176.847 45.8298 177.791 44.4701C178.735 43.1103 180.154 42.1535 181.768 41.7882L210.708 23.3763C221.739 20.8965 235.636 39.3201 237.612 50.4327C239.61 62.6467 240.394 75.0285 239.952 87.3969C239.157 106.417 226.687 108.452 226.687 108.452L236.045 171.701L190.951 143.896L176.668 49.1343Z" fill="#FFBE9D"/>
<path d="M231.602 66.2127C231.679 66.8347 231.511 67.4623 231.133 67.9624C230.755 68.4626 230.197 68.7958 229.578 68.8914C228.968 69.0042 228.339 68.8704 227.828 68.5195C227.317 68.1686 226.966 67.6292 226.852 67.0198C226.775 66.3978 226.943 65.7701 227.321 65.27C227.699 64.7699 228.257 64.4367 228.876 64.3411C229.486 64.2283 230.115 64.362 230.626 64.7129C231.137 65.0639 231.488 65.6033 231.602 66.2127V66.2127Z" fill="#263238"/>
<path d="M235.319 59.3805C235.085 59.6379 233.166 59.6028 230.745 60.5503C228.323 61.4978 226.721 62.7611 226.417 62.6909C226.113 62.6207 226.417 62.2815 227.154 61.6966C228.17 60.8665 229.321 60.2176 230.558 59.7782C231.737 59.3242 232.99 59.0903 234.254 59.0881C235.096 59.0647 235.436 59.2635 235.319 59.3805Z" fill="#263238"/>
<path d="M207.645 67.3706C207.719 67.9939 207.548 68.6215 207.168 69.1212C206.789 69.6209 206.23 69.9537 205.61 70.0494C205.002 70.1587 204.375 70.0234 203.867 69.6727C203.359 69.3221 203.009 68.7847 202.896 68.1778C202.815 67.5552 202.982 66.926 203.361 66.4252C203.739 65.9243 204.299 65.5918 204.919 65.499C205.529 65.3862 206.158 65.52 206.669 65.8709C207.18 66.2218 207.531 66.7612 207.645 67.3706Z" fill="#263238"/>
<path d="M210.159 64.2827C209.808 64.423 208.007 63.3469 205.211 62.9375C202.416 62.528 200.228 62.9375 199.959 62.7503C199.69 62.5631 200.228 62.3643 201.129 62.142C202.532 61.8634 203.974 61.8356 205.387 62.0601C206.756 62.2476 208.078 62.6921 209.282 63.3703C210.113 63.8499 210.382 64.2242 210.159 64.2827Z" fill="#263238"/>
<path d="M221.574 80.1908C222.88 79.5999 224.256 79.1793 225.668 78.9391C226.312 78.7988 226.92 78.5999 226.979 78.132C226.958 77.4465 226.725 76.7844 226.312 76.237C225.532 74.6773 224.69 73.0826 223.785 71.4527C220.276 64.6331 217.609 58.9948 217.936 58.8545C218.264 58.7141 221.305 64.1301 224.838 70.9497L227.283 75.7691C227.791 76.5168 228.019 77.4199 227.926 78.3192C227.857 78.562 227.734 78.7861 227.565 78.9745C227.397 79.1629 227.189 79.3108 226.955 79.407C226.602 79.5456 226.232 79.6399 225.856 79.6878C224.455 80.0334 223.017 80.2024 221.574 80.1908V80.1908Z" fill="#263238"/>
<path d="M226.675 108.499C217.938 109.791 209.013 108.574 200.94 104.99C200.94 104.99 208.626 118.138 227.108 114.207L226.675 108.499Z" fill="#EB996E"/>
<path d="M221.87 86.4961C221.241 85.6767 220.436 85.0086 219.515 84.541C218.594 84.0734 217.58 83.8181 216.547 83.7939C215.95 83.8064 215.371 83.9998 214.886 84.3487C214.402 84.6975 214.035 85.1853 213.833 85.7474C213.631 86.4736 213.608 87.2379 213.764 87.9751C213.921 88.7124 214.254 89.4009 214.734 89.9819C215.206 90.5968 215.847 91.0605 216.578 91.3161C217.309 91.5717 218.1 91.6081 218.852 91.4207C220.072 90.9173 221.112 90.057 221.834 88.9526C222.097 88.6713 222.285 88.3298 222.384 87.9583C222.427 87.7239 222.418 87.4829 222.357 87.2525C222.296 87.022 222.186 86.8077 222.033 86.6247" fill="#EB996E"/>
<path d="M214.194 82.8582C214.616 82.7763 214.943 85.572 217.563 87.2799C220.184 88.9877 223.131 88.3327 223.202 88.7187C223.202 88.8941 222.605 89.3386 221.342 89.5258C219.708 89.7386 218.052 89.3701 216.663 88.4847C215.329 87.6275 214.381 86.2851 214.019 84.7415C213.773 83.5367 214.007 82.8582 214.194 82.8582Z" fill="#263238"/>
<path d="M210.977 52.783C210.732 53.4849 208.135 53.1924 205.129 53.6136C202.122 54.0347 199.642 54.8886 199.221 54.2686C199.034 53.9645 199.455 53.2977 200.391 52.5959C201.699 51.732 203.187 51.1777 204.742 50.975C206.297 50.7723 207.877 50.9266 209.363 51.4261C210.509 51.9525 211.083 52.4438 210.977 52.783Z" fill="#263238"/>
<path d="M235.461 53.6142C234.958 54.2575 232.689 53.9066 230.033 54.1757C227.378 54.4447 225.179 55.1232 224.594 54.5617C224.325 54.2926 224.594 53.661 225.541 53.0059C226.829 52.1805 228.298 51.6792 229.821 51.5447C231.345 51.4103 232.879 51.6467 234.291 52.2339C235.297 52.7369 235.671 53.2983 235.461 53.6142Z" fill="#263238"/>
<path d="M163.978 97.7491C164.446 89.2684 165.802 62.1184 171.277 47.3094C176.751 32.5003 184.46 25.8678 192.391 22.7445C195.386 21.4647 198.661 20.9796 201.899 21.3362C205.137 21.6927 208.228 22.8789 210.873 24.7799C214.944 27.6575 217.307 37.1325 217.307 37.1325C217.307 37.1325 198.064 43.7767 192.742 55.8486C186.577 69.6516 185.478 76.366 185.478 76.366L183.817 83.7238C183.817 83.7238 187.431 115.705 189.057 122.326L162.972 147.546C163.826 139.217 163.51 106.218 163.978 97.7491Z" fill="#263238"/>
<path d="M217.88 37.1796C217.88 37.1796 229.028 34.6647 234.655 46.9354C237.205 52.4917 239.731 69.3128 239.731 69.3128C239.731 69.3128 240.679 55.5682 239.205 48.0934C237.731 40.6187 232.877 31.4946 226.49 26.8741C220.103 22.2536 215.26 20.5107 205.271 22.2653C208.279 23.0174 211.01 24.6122 213.143 26.8624C214.652 28.6287 215.401 30.1962 217.88 37.1796Z" fill="#263238"/>
<path d="M185.686 77.2782C185.008 73.1607 180.188 70.9148 176.843 73.4064C175.006 74.7633 173.766 77.2197 174.445 81.5946C176.27 93.2922 187.581 89.0109 187.546 88.6833C187.511 88.3558 186.482 82.0859 185.686 77.2782Z" fill="#FFBE9D"/>
<path d="M183.302 84.8116C183.302 84.8116 183.126 84.9871 182.81 85.1976C182.355 85.4745 181.812 85.5705 181.29 85.4667C179.991 85.2093 178.658 83.4079 178.272 81.3258C178.085 80.3315 178.125 79.3078 178.389 78.3312C178.437 77.9492 178.578 77.5849 178.801 77.2707C179.023 76.9565 179.319 76.702 179.664 76.5298C179.889 76.4353 180.139 76.4209 180.373 76.489C180.608 76.5572 180.811 76.7037 180.951 76.9041C181.161 77.2082 181.114 77.4422 181.184 77.4539C181.255 77.4656 181.407 77.2199 181.184 76.752C181.075 76.4737 180.873 76.2421 180.611 76.097C180.252 75.9065 179.832 75.8645 179.442 75.98C178.977 76.1504 178.564 76.4364 178.24 76.8109C177.917 77.1855 177.694 77.6362 177.593 78.1206C177.258 79.2036 177.193 80.3525 177.406 81.4661C177.839 83.8056 179.383 85.8176 181.149 86.0399C181.475 86.0812 181.806 86.0491 182.118 85.9459C182.429 85.8427 182.714 85.6709 182.951 85.4433C183.325 85.0924 183.349 84.8233 183.302 84.8116Z" fill="#EB996E"/>
<path d="M196.989 21.4572C196.989 21.5507 198.604 21.3168 201.177 21.3636C202.683 21.3931 204.175 21.6576 205.599 22.1473C207.328 22.7869 208.917 23.7563 210.278 25.0015C212.795 27.2514 214.757 30.0542 216.009 33.1898C216.969 35.5293 217.179 37.1903 217.32 37.167C217.303 36.7919 217.248 36.4196 217.156 36.0557C216.223 31.6732 213.911 27.7048 210.558 24.7325C209.155 23.4328 207.504 22.4301 205.704 21.7847C204.241 21.2954 202.707 21.0542 201.165 21.0711C200.133 21.0707 199.101 21.1371 198.077 21.27C197.71 21.3022 197.346 21.3648 196.989 21.4572V21.4572Z" fill="#455A64"/>
<path d="M175.826 86.9759C175.831 86.9097 175.831 86.8433 175.826 86.7771L175.663 86.2507C175.581 86.005 175.499 85.7126 175.394 85.3851L175.078 84.2153C174.44 81.6582 174.172 79.0228 174.282 76.3897C174.431 72.4837 175.391 68.6514 177.101 65.1366C179.288 60.8812 182.406 57.1745 186.225 54.293C188.185 52.7805 190.236 51.3897 192.367 50.1287C194.425 48.8888 196.496 47.8594 198.414 46.713C201.769 44.6663 204.96 42.3628 207.959 39.8232C210.521 37.6592 212.498 35.7992 213.808 34.4891C214.475 33.8341 214.978 33.3194 215.317 32.9567L215.703 32.5473C215.785 32.4538 215.832 32.407 215.82 32.3953L215.68 32.5122L215.259 32.8983L213.715 34.4072C212.346 35.6823 210.346 37.5071 207.761 39.6243C204.751 42.122 201.56 44.3936 198.215 46.4206C196.32 47.5904 194.227 48.5613 192.156 49.8129C190.005 51.0734 187.938 52.4722 185.968 54.0006C182.085 56.9097 178.916 60.6663 176.704 64.9846C174.988 68.5484 174.047 72.4356 173.943 76.3897C173.863 79.045 174.174 81.6976 174.867 84.2621L175.218 85.4319C175.347 85.7594 175.452 86.0401 175.534 86.2858L175.744 86.8122C175.791 86.9175 175.815 86.9759 175.826 86.9759Z" fill="#455A64"/>
<path d="M172.611 82.8583C172.611 82.8583 172.611 82.7881 172.611 82.6711L172.541 82.1096C172.541 81.6183 172.354 80.9399 172.26 79.969C171.985 77.3342 171.942 74.6804 172.132 72.0381C172.417 68.1248 173.204 64.2643 174.471 60.5511C176.055 56.0158 178.366 51.7686 181.314 47.9762C184.35 44.2283 187.894 40.9212 191.842 38.1503C195.351 35.5301 198.861 33.4713 201.656 31.6231C204.452 29.7749 206.78 28.3595 208.336 27.2833C209.119 26.7686 209.704 26.3358 210.102 26.0434L210.558 25.7158L210.71 25.5872C210.71 25.5872 210.64 25.5872 210.535 25.6807L210.055 25.9732L208.242 27.1429C206.674 28.1606 204.358 29.5994 201.492 31.354C198.627 33.1087 195.211 35.2142 191.608 37.8345C187.651 40.6086 184.107 43.9285 181.08 47.6955C178.073 51.5242 175.721 55.8247 174.12 60.4224C172.838 64.1718 172.051 68.0729 171.781 72.0264C171.618 74.6803 171.708 77.3438 172.05 79.9807C172.167 80.9165 172.331 81.63 172.412 82.1213C172.412 82.3436 172.494 82.5307 172.529 82.6711C172.564 82.8115 172.6 82.8583 172.611 82.8583Z" fill="#455A64"/>
<path d="M235.063 127.906C235.063 127.906 250.142 134.035 253.031 141.884C255.92 149.733 277.841 214.549 277.841 214.549L252.399 224.305L240.795 170.964L235.063 127.906Z" fill="#455A64"/>
<path d="M157.111 311.965C157.111 311.965 312.688 304.818 322.456 307.392C332.223 309.965 338.06 314.89 340.002 326.599C341.944 338.308 371.936 493.441 371.936 493.441L344.658 501.465C344.658 501.465 306.383 414.085 304.757 399.463C303.132 384.841 297.739 354.872 297.739 354.872C297.739 354.872 238.596 355.843 195.046 354.872C151.496 353.901 157.345 313.591 157.345 313.591L157.111 311.965Z" fill="#FFBE9D"/>
<path d="M344.318 502.167L344.119 501.7C342.552 498.12 305.798 414.073 304.184 399.522C302.687 386.105 297.973 359.399 297.271 355.457C291.422 355.551 236.011 356.369 195.058 355.457C181.524 355.153 171.335 351.047 164.75 343.268C154.783 331.489 156.561 314.995 156.784 313.603L156.421 311.416H157.076C163.439 311.123 312.875 304.292 322.608 306.865C333.533 309.755 338.739 315.451 340.587 326.529C342.505 338.086 372.17 491.815 372.521 493.371L372.615 493.886L344.318 502.167ZM298.242 354.276L298.335 354.767C298.394 355.059 303.74 384.923 305.354 399.393C306.886 413.208 341.955 493.804 344.997 500.752L371.281 493.032C369.363 483.1 341.312 337.922 339.44 326.693C337.686 316.165 332.726 310.714 322.315 307.977C313.098 305.532 168.832 312.036 157.801 312.539L157.977 313.603V313.685C157.977 313.861 155.637 330.693 165.674 342.531C172.037 350.041 181.933 353.995 195.105 354.299C238.14 355.258 297.177 354.299 297.774 354.299L298.242 354.276Z" fill="#EB996E"/>
<path d="M167.615 228.06L171.533 252.297C171.533 252.297 154.513 284.547 152.595 312.27C151.683 325.442 159.239 352.416 159.239 352.416C159.239 352.416 219.177 359.002 251.509 358.16L286.005 356.651L292.088 302.76L253.369 297.169L253.954 223.732C253.954 223.732 260.973 204.396 261.511 198.675C262.751 186.604 262.236 174.391 250.176 158.74L235.063 127.905L230.021 125.566L232.419 162.916L188.974 121.635L166.971 129.531L160.736 158.951L167.615 228.06Z" fill="#455A64"/>
<g opacity="0.3">
<path d="M242.924 306.093C240.105 306.585 219.763 306.877 216.944 307.368C216.464 307.515 215.96 307.563 215.461 307.509C214.962 307.455 214.48 307.299 214.043 307.052C213.691 306.719 213.447 306.288 213.343 305.815C213.239 305.341 213.279 304.847 213.458 304.397C213.831 303.491 214.417 302.689 215.166 302.058C220.091 297.379 226.489 294.677 232.712 292.033C234.701 291.202 236.853 290.348 238.936 290.863C239.956 291.201 240.88 291.782 241.626 292.556C242.372 293.331 242.918 294.275 243.217 295.308C243.81 297.37 244.055 299.517 243.942 301.66" fill="black"/>
</g>
<g opacity="0.3">
<path d="M169.216 244.962C176.481 243.266 181.043 236.107 183.99 229.253C186.938 222.398 189.371 214.83 195.15 210.104C199.384 206.594 205.058 205.05 208.719 200.98C210.459 198.986 211.613 196.549 212.053 193.939C212.493 191.329 212.201 188.648 211.211 186.194C210.158 183.691 208.041 181.328 205.362 181.187C202.203 181.024 199.747 183.761 197.817 186.276C188.989 197.841 180.664 209.772 172.843 222.07C168.643 228.679 164.456 236.704 167.38 243.968" fill="black"/>
</g>
<path d="M169.265 133.391C169.265 133.391 156.971 137.298 152.525 145.007C148.08 152.716 140.711 190.148 138.933 200.231C137.155 210.314 128.557 251.805 138.933 258.333C149.309 264.86 162.948 254.823 166.504 248.846C170.06 242.869 184.577 211.788 184.577 211.788L171.534 200.828C171.534 200.828 173.873 171.186 173.02 164.951C172.166 158.717 169.265 133.391 169.265 133.391Z" fill="#FFBE9D"/>
<path d="M130.709 210.35L159.239 212.209L172.27 196.909L175.873 172.812L174.914 126.712C174.914 126.712 149.448 132.924 143.939 152.283C139.856 166.589 130.709 210.35 130.709 210.35Z" fill="#455A64"/>
<path d="M181.196 155.827C179.558 155.605 177.464 157.535 178.856 162.191C180.026 166.074 182.225 169.853 182.061 172.017C181.898 174.181 181.055 178.684 181.055 181.024C180.953 183.311 180.731 185.591 180.389 187.855L160.971 211.25L177.78 226.083L191.08 205.191C191.08 205.191 195.092 205.858 197.42 203.191L200.929 199.178C200.929 199.178 209.937 195.845 208.1 190.99C208.1 190.99 210.767 188.452 208.346 184.381C208.346 184.381 209.609 180.147 207.773 177.655C207.773 177.655 207.609 171.982 206.1 170.976C204.591 169.97 188.986 169.806 188.986 169.806C188.136 167.212 187.157 164.663 186.05 162.167C184.342 159.348 183.477 156.132 181.196 155.827Z" fill="#FFBE9D"/>
<path d="M187.839 178.837C187.839 178.895 187.43 178.673 187.067 178.123C186.595 177.382 186.388 176.503 186.482 175.629C186.575 174.755 186.963 173.939 187.582 173.315C188.05 172.859 188.448 172.719 188.483 172.777C187.787 173.619 187.309 174.62 187.091 175.69C187.092 176.783 187.348 177.86 187.839 178.837V178.837Z" fill="#EB996E"/>
<path d="M207.117 177.234C204.765 177.92 202.345 178.348 199.9 178.509C197.476 178.862 195.02 178.944 192.577 178.755C194.981 178.336 197.406 178.051 199.841 177.901C202.252 177.54 204.681 177.317 207.117 177.234Z" fill="#EB996E"/>
<path d="M208.498 183.925C206.559 184.712 204.512 185.201 202.427 185.375C200.371 185.756 198.27 185.827 196.192 185.586C196.192 185.41 198.953 185.235 202.345 184.767C205.738 184.299 208.463 183.761 208.498 183.925Z" fill="#EB996E"/>
<path d="M208.158 190.791C205.131 191.719 201.95 192.033 198.8 191.715C200.339 191.378 201.905 191.179 203.479 191.118C205.026 190.874 206.592 190.764 208.158 190.791V190.791Z" fill="#EB996E"/>
<path d="M193.419 192.897C193.419 192.967 193.092 192.897 192.694 192.674C192.17 192.317 191.802 191.773 191.665 191.154C191.515 190.541 191.598 189.895 191.899 189.341C192.132 188.931 192.39 188.767 192.448 188.814C192.507 188.861 191.969 189.832 192.249 191.013C192.53 192.195 193.501 192.745 193.419 192.897Z" fill="#EB996E"/>
<path d="M189.582 187.328C189.582 187.387 189.196 187.188 188.833 186.685C188.368 186.021 188.1 185.238 188.061 184.428C188.013 183.615 188.191 182.805 188.576 182.088C188.892 181.55 189.196 181.316 189.255 181.363C188.897 182.33 188.699 183.35 188.67 184.381C188.819 185.405 189.127 186.399 189.582 187.328Z" fill="#EB996E"/>
<path d="M203.363 198.172C202.515 198.622 201.583 198.892 200.626 198.967C199.699 199.234 198.726 199.302 197.771 199.166C198.618 198.712 199.551 198.441 200.509 198.371C201.434 198.097 202.408 198.029 203.363 198.172V198.172Z" fill="#EB996E"/>
<path d="M195.841 169.911C195.841 170.087 193.502 170.087 190.542 170.379C187.583 170.672 185.302 171.128 185.255 170.964C186.913 170.262 188.684 169.865 190.484 169.794C192.262 169.516 194.076 169.555 195.841 169.911Z" fill="#EB996E"/>
<path d="M247.205 226.141H343.897C345.603 226.141 347.24 226.819 348.446 228.025C349.653 229.232 350.331 230.868 350.331 232.575V301.111H240.795V232.563C240.798 230.863 241.474 229.233 242.675 228.03C243.876 226.826 245.505 226.147 247.205 226.141V226.141Z" fill="#E0E0E0"/>
<path d="M350.331 306.094H221.658C221.658 304.784 222.178 303.529 223.104 302.603C224.03 301.677 225.285 301.157 226.595 301.157H350.331V306.094Z" fill="#E0E0E0"/>
<path d="M346.282 230.96H244.116V301.157H346.282V230.96Z" fill="white"/>
<path d="M346.272 301.11C346.272 301.11 346.272 300.666 346.272 299.824C346.272 298.981 346.272 297.718 346.272 296.104C346.272 292.84 346.272 288.068 346.202 281.962C346.202 269.749 346.132 252.238 346.074 230.914L346.319 231.159H244.165L244.469 230.855C244.469 255.923 244.469 279.727 244.469 301.04L244.2 300.76L317.789 300.9L338.844 300.982H344.448H345.886H346.389H345.921H344.506H338.961L318.011 301.052L244.235 301.192H243.954V301.11C243.954 279.786 243.954 255.981 243.954 230.925V230.621H244.258H346.413H346.658V230.925C346.658 252.308 346.565 269.878 346.53 282.125C346.53 288.208 346.53 292.957 346.53 296.162C346.53 297.765 346.53 298.993 346.53 299.835C346.53 300.678 346.272 301.11 346.272 301.11Z" fill="#263238"/>
<path d="M349.793 301.11C349.793 301.285 322.175 301.414 288.112 301.414C254.049 301.414 226.419 301.285 226.419 301.11C226.419 300.934 254.037 300.806 288.112 300.806C322.187 300.806 349.793 300.993 349.793 301.11Z" fill="#263238"/>
<path d="M295.189 292.91C310.015 292.91 322.034 280.891 322.034 266.065C322.034 251.238 310.015 239.219 295.189 239.219C280.362 239.219 268.343 251.238 268.343 266.065C268.343 280.891 280.362 292.91 295.189 292.91Z" fill="#D64D54"/>
<path d="M278.507 266.719L284.192 261.338L292.041 268.567L307.493 254.027L313.108 259.338L291.959 279.411L278.507 266.719Z" fill="white"/>
<path d="M180.413 187.855C180.542 187.96 172.482 197.692 162.41 209.577C152.339 221.462 144.069 231.007 143.94 230.925C143.811 230.843 151.871 221.099 161.942 209.203C172.014 197.306 180.284 187.75 180.413 187.855Z" fill="#EB996E"/>
<path d="M179.019 172.777C178.756 176.171 178.291 179.545 177.627 182.884C177.167 186.258 176.503 189.602 175.639 192.897C175.901 189.499 176.366 186.121 177.031 182.778C177.499 179.409 178.163 176.069 179.019 172.777V172.777Z" fill="#263238"/>
<path d="M253.954 223.731C253.995 223.492 254.058 223.257 254.141 223.029L254.772 221.064C255.334 219.368 256.164 216.912 257.112 213.858C258.243 210.292 259.188 206.668 259.943 203.003C260.885 198.528 261.305 193.959 261.194 189.387C260.772 181.063 258.434 172.949 254.363 165.676C253.154 163.462 251.826 161.314 250.386 159.243C249.895 158.506 249.473 157.956 249.216 157.57C249.066 157.378 248.936 157.17 248.83 156.95C249.009 157.112 249.17 157.292 249.31 157.488C249.614 157.862 250.07 158.389 250.596 159.114C252.117 161.141 253.508 163.263 254.761 165.466C256.623 168.745 258.155 172.201 259.334 175.783C260.802 180.171 261.648 184.742 261.849 189.364C261.967 193.985 261.527 198.604 260.539 203.12C259.752 206.795 258.76 210.423 257.568 213.987C256.562 217.028 255.673 219.473 255.041 221.146C254.737 221.926 254.492 222.569 254.305 223.076C254.215 223.308 254.097 223.528 253.954 223.731V223.731Z" fill="#263238"/>
<path d="M229.098 187.305C229.146 187.85 229.146 188.398 229.098 188.943C229.096 189.585 229.049 190.226 228.957 190.861C228.873 191.71 228.744 192.553 228.571 193.388C228.384 194.401 228.134 195.401 227.823 196.383C227.493 197.522 227.103 198.643 226.653 199.74C225.573 202.215 224.232 204.568 222.653 206.758C221.033 208.944 219.178 210.945 217.12 212.724C216.218 213.495 215.272 214.213 214.289 214.876C213.447 215.474 212.568 216.017 211.657 216.502C210.901 216.939 210.12 217.33 209.317 217.672C208.742 217.952 208.148 218.191 207.539 218.386C207.033 218.594 206.508 218.755 205.972 218.865C205.913 218.737 208.159 218.047 211.388 216.163C212.271 215.656 213.126 215.101 213.95 214.502C214.862 213.894 215.739 213.122 216.698 212.338C220.729 208.792 223.925 204.398 226.056 199.471C226.503 198.4 226.893 197.307 227.226 196.196C227.549 195.229 227.819 194.244 228.033 193.248C229.004 189.645 228.981 187.305 229.098 187.305Z" fill="#263238"/>
<path d="M261.255 197.938C261.188 197.873 261.133 197.798 261.091 197.716L260.682 197.002C260.296 196.359 259.769 195.481 259.102 194.393C258.436 193.306 257.395 191.972 256.307 190.451C255.219 188.931 253.838 187.27 252.376 185.41C246.364 178.064 237.485 168.413 227.308 158.108C217.132 147.802 207.575 138.819 200.568 132.373L195.795 128.104C194.392 126.864 193.175 125.764 192.157 124.922L189.818 122.945L189.221 122.419C189.144 122.364 189.077 122.297 189.022 122.22C189.106 122.261 189.185 122.312 189.256 122.372C189.432 122.5 189.642 122.653 189.888 122.851L192.298 124.735L196.006 127.846C197.445 129.086 199.059 130.502 200.837 132.057C207.937 138.374 217.518 147.346 227.741 157.64C237.965 167.934 246.773 177.666 252.704 185.094C254.154 186.977 255.464 188.673 256.587 190.194L259.301 194.218C259.921 195.388 260.471 196.23 260.787 196.897L261.161 197.599C261.239 197.825 261.27 197.938 261.255 197.938Z" fill="#263238"/>
<path d="M238.538 252.051C238.323 252.126 238.098 252.169 237.871 252.179L235.964 252.448C234.303 252.671 231.882 252.928 228.946 253.197C222.968 253.735 214.675 254.168 205.551 254.063C196.426 253.957 188.098 253.291 182.155 252.612C179.173 252.273 176.763 251.946 175.137 251.676L173.23 251.372C173.007 251.348 172.787 251.297 172.575 251.22C172.8 251.192 173.028 251.192 173.254 251.22L175.172 251.419C176.833 251.618 179.254 251.875 182.191 252.156C188.145 252.729 196.415 253.326 205.586 253.431C214.756 253.536 223.003 253.162 228.981 252.741C231.964 252.53 234.385 252.343 235.999 252.191L237.918 252.039C238.124 252.021 238.332 252.025 238.538 252.051V252.051Z" fill="#263238"/>
<path d="M289.2 226.059C289.2 226.059 308.361 218.584 310.174 217.988C311.987 217.391 328.738 216.081 328.738 216.081L350.332 223.837C350.332 223.837 350.53 228.27 345.489 227.673C341.044 226.923 336.661 225.843 332.376 224.445L329.346 226.246L289.2 226.059Z" fill="#FFBE9D"/>
<path d="M349.291 228.902C349.794 229.92 351.104 230.072 352.11 230.61C353.041 231.154 353.803 231.944 354.313 232.894C354.823 233.843 355.06 234.915 354.999 235.991C354.831 238.142 354.119 240.215 352.929 242.015C352.564 242.742 352.035 243.375 351.385 243.863C351.052 244.095 350.656 244.219 350.25 244.219C349.845 244.219 349.449 244.095 349.116 243.863C348.796 243.474 348.581 243.01 348.491 242.515C348.401 242.019 348.439 241.509 348.601 241.033C349.221 237.301 348.414 232.575 349.291 228.891" fill="#FFBE9D"/>
<path d="M371 487.65L371.655 489.475C371.655 489.475 407.216 490.867 409.649 496.646L347.792 518.38L341.394 497.5C352.097 498.529 361.888 495.628 371 487.65Z" fill="#455A64"/>
<g opacity="0.6">
<path d="M349.981 501.874C349.449 502.266 349.079 502.841 348.943 503.488C348.807 504.135 348.915 504.81 349.245 505.383C349.617 505.94 350.191 506.33 350.846 506.472C351.5 506.614 352.184 506.496 352.754 506.144C353.318 505.73 353.708 505.122 353.849 504.436C353.989 503.751 353.87 503.038 353.514 502.436C353.068 501.909 352.436 501.575 351.749 501.503C351.063 501.431 350.375 501.627 349.829 502.05" fill="white"/>
</g>
<g opacity="0.6">
<path d="M347.792 518.381L346.26 513.363L406.104 494.366C406.104 494.366 409.274 494.6 409.614 496.705L347.792 518.381Z" fill="white"/>
</g>
<path d="M371.936 489.581C372.03 489.886 370.568 490.552 369.421 492.05C368.275 493.547 367.936 495.091 367.62 495.068C367.304 495.044 367.129 493.138 368.544 491.36C369.96 489.582 371.901 489.277 371.936 489.581Z" fill="#263238"/>
<path d="M379.364 489.979C379.539 490.248 378.405 491.219 377.831 492.856C377.258 494.494 377.434 495.956 377.13 496.05C376.825 496.143 376.03 494.494 376.79 492.47C377.551 490.447 379.258 489.698 379.364 489.979Z" fill="#263238"/>
<path d="M385.773 496.46C385.528 496.623 384.604 495.29 384.767 493.336C384.931 491.383 386.148 490.26 386.358 490.459C386.569 490.658 386.019 491.862 385.879 493.442C385.738 495.021 386.066 496.319 385.773 496.46Z" fill="#263238"/>
</svg>
