<svg width="282" height="265" viewBox="0 0 282 265" fill="none" xmlns="http://www.w3.org/2000/svg">
<path d="M262.796 28.6996C263.085 26.5879 260.1 24.847 257.862 24.6648C256.794 24.5831 255.681 24.7465 254.67 24.3945C252.476 23.6278 251.596 20.7934 249.459 19.8884C247.857 19.2159 246.015 19.813 244.463 20.5985C242.911 21.3841 241.384 22.3583 239.649 22.484C238.141 22.5782 236.507 22.0189 235.187 22.7605C234.2 23.3073 233.685 24.4385 232.78 25.1047C231.836 25.6858 230.745 25.9825 229.637 25.9594C228.535 25.93 227.437 26.1091 226.401 26.4874C225.395 26.9461 224.572 28.0083 224.779 29.0892L262.796 28.6996Z" fill="#FAFAFA"/>
<path d="M191.453 172.727C191.56 172.727 191.742 172.689 191.962 172.645C192.158 172.612 192.351 172.564 192.54 172.501C192.63 172.472 192.718 172.439 192.804 172.4C192.906 172.351 192.998 172.283 193.074 172.199C193.395 171.791 199.064 158.737 199.485 157.48C199.549 157.287 199.599 157.09 199.636 156.889V156.94C199.683 156.658 199.659 156.369 199.565 156.099C199.472 155.829 199.313 155.586 199.101 155.394L189.857 172.991H187.971L182.774 173.255C182.675 173.26 182.582 173.302 182.515 173.374C182.447 173.445 182.409 173.54 182.409 173.638V175.687C178.494 177.736 171.932 181.274 171.147 181.796C170.978 181.907 170.816 182.028 170.663 182.16H170.713C170.5 182.351 170.339 182.592 170.245 182.861C170.15 183.13 170.126 183.419 170.173 183.7L185.256 177.032L184.936 192.335V194.057V195.05V195.371L184.659 212.736H189.618L188.6 195.352V195.226L188.53 194.057L188.411 191.958L187.493 176.334H187.984H189.681C189.681 176.598 189.743 176.906 189.781 177.246C189.561 177.441 188.776 178.176 188.75 178.616C188.725 179.056 191.616 193.071 192.006 194.328C192.066 194.522 192.138 194.713 192.22 194.9V194.837C192.342 195.096 192.528 195.319 192.759 195.487C192.991 195.655 193.262 195.762 193.546 195.798L190.975 176.184C191.035 176.127 191.081 176.059 191.111 175.983C191.142 175.907 191.155 175.825 191.151 175.744L191.101 174.682C191.17 174.465 191.17 174.232 191.101 174.015V173.613L191.453 172.727Z" fill="#EBEBEB"/>
<path d="M239.336 197.948C239.47 197.936 239.602 197.915 239.732 197.885C239.883 197.858 240.032 197.823 240.179 197.778L240.38 197.696C240.463 197.663 240.537 197.609 240.593 197.539C240.838 197.231 245.213 187.151 245.539 186.176C245.587 186.028 245.625 185.877 245.653 185.724V185.762C245.69 185.544 245.673 185.321 245.601 185.112C245.53 184.904 245.407 184.716 245.244 184.568L238.105 198.136H236.628L232.618 198.344C232.542 198.347 232.47 198.379 232.417 198.434C232.364 198.49 232.335 198.563 232.335 198.639V200.223C229.318 201.8 224.253 204.534 223.643 204.93C223.512 205.019 223.386 205.115 223.266 205.219H223.31C223.146 205.367 223.021 205.554 222.947 205.762C222.874 205.971 222.854 206.195 222.889 206.413L234.516 201.26L234.327 213.088V214.414V215.181V215.426L234.045 228.787H237.872L237.08 215.369V215.275L237.024 214.37L236.929 212.748L236.219 200.688H236.596H237.91C237.91 200.895 237.954 201.128 237.985 201.392C237.815 201.543 237.212 202.108 237.193 202.454C237.174 202.8 239.406 213.603 239.707 214.59C239.754 214.74 239.811 214.887 239.877 215.03V214.961C239.972 215.16 240.115 215.332 240.294 215.462C240.473 215.592 240.682 215.674 240.901 215.702L238.915 200.562C238.961 200.52 238.997 200.468 239.021 200.411C239.045 200.353 239.056 200.291 239.054 200.229L239.016 199.406C239.028 199.312 239.028 199.217 239.016 199.123C239.009 199.044 238.992 198.966 238.966 198.89V198.582C239.072 198.413 239.211 198.193 239.336 197.948Z" fill="#EBEBEB"/>
<path d="M234.867 227.53C219.306 217.946 201.281 211.994 183.005 212.063C164.729 212.133 147.145 218.053 130.213 224.715C104 235.015 76.2275 250.784 51.7861 264.799H274.656C263.614 250.237 250.428 237.121 234.867 227.53Z" fill="#EBEBEB"/>
<path d="M4.34277 264.799C4.34277 264.799 33.46 234.764 101.04 228.592C168.62 222.421 268.051 264.799 268.051 264.799H4.34277Z" fill="#F5F5F5"/>
<path d="M219.112 54.888C219.709 50.4887 213.55 46.9315 208.918 46.5544C206.712 46.3784 204.418 46.7178 202.325 45.9888C197.794 44.4113 195.984 38.5539 191.565 36.6874C188.26 35.2921 184.451 36.5365 181.252 38.1517C178.053 39.7669 174.879 41.7906 171.297 42.0231C168.155 42.2179 164.805 41.0678 162.077 42.5887C160.047 43.72 158.985 46.0579 157.113 47.4406C155.24 48.8232 152.895 49.0746 150.62 49.2003C148.345 49.326 146.001 49.3448 143.933 50.2938C141.866 51.2428 140.163 53.4362 140.577 55.661L219.112 54.888Z" fill="#EBEBEB"/>
<path d="M45.1309 140.694H51.9624C52.3103 140.71 52.6388 140.859 52.8797 141.111C53.1207 141.362 53.2558 141.697 53.257 142.045L53.5273 147.953C53.5437 148.134 53.5241 148.316 53.4697 148.489C53.4152 148.662 53.3271 148.823 53.2102 148.962C53.0934 149.101 52.9502 149.216 52.7889 149.299C52.6276 149.383 52.4513 149.433 52.2703 149.449L45.156 149.549L45.1309 140.694Z" fill="#E0E0E0"/>
<path d="M60.302 147.984C61.6658 148.11 98.9343 142.014 102.353 141.14C106.199 140.16 106.426 137.231 106.426 137.231L50.2087 142.171L49.9824 145.47L56.6568 144.942C56.6568 144.942 58.9382 147.852 60.302 147.984Z" fill="#F5F5F5"/>
<path d="M102.354 141.14C102.878 141.003 103.392 140.831 103.893 140.625L101.499 140.813L56.6572 144.942C56.6572 144.942 58.9386 147.852 60.3024 147.984C61.6662 148.116 98.9222 142.014 102.354 141.14Z" fill="#EBEBEB"/>
<path d="M51.7861 145.332C51.7861 145.238 56.8956 144.703 63.2055 144.144C69.5154 143.585 74.6438 143.195 74.6563 143.283C74.6689 143.371 69.5531 143.912 63.2369 144.471C56.9208 145.03 51.7861 145.42 51.7861 145.332Z" fill="#E0E0E0"/>
<path d="M37.8976 149.549L36.3516 246.152H49.5118L43.8241 149.549H37.8976Z" fill="#F5F5F5"/>
<path d="M37.8975 149.549L37.709 161.295L44.176 155.507L43.824 149.549H37.8975Z" fill="#E0E0E0"/>
<path d="M30.374 142.416V148.537C30.374 148.806 30.4806 149.063 30.6704 149.253C30.8602 149.442 31.1175 149.549 31.3859 149.549H45.1306V140.694L31.3042 141.398C31.0497 141.42 30.8128 141.537 30.6405 141.725C30.4682 141.914 30.3731 142.16 30.374 142.416Z" fill="#F5F5F5"/>
<path d="M43.9114 135.622C42.8744 134.73 8.90531 118.213 5.6121 116.956C1.9041 115.549 0.03125 117.811 0.03125 117.811L48.8072 146.187L50.9 143.622L45.1369 140.21C45.1369 140.21 44.9483 136.514 43.9114 135.622Z" fill="#F5F5F5"/>
<path d="M5.61288 116.956C5.10661 116.768 4.58793 116.614 4.06055 116.497L6.12194 117.723L45.1377 140.21C45.1377 140.21 44.9491 136.514 43.8807 135.622C42.8123 134.729 8.90609 118.213 5.61288 116.956Z" fill="#EBEBEB"/>
<path d="M30.6445 131.857C30.9208 131.968 31.186 132.105 31.4364 132.266L33.5607 133.473L40.5304 137.432C43.258 138.972 45.7091 140.398 47.4437 141.473C48.3172 142.014 49.0211 142.454 49.4988 142.774C49.7595 142.922 50.0039 143.097 50.2278 143.296C49.9516 143.182 49.6865 143.043 49.4359 142.881L47.3243 141.674L40.3482 137.715C37.6269 136.175 35.1696 134.748 33.435 133.674C32.5551 133.14 31.8575 132.693 31.3736 132.373C31.1144 132.225 30.8702 132.052 30.6445 131.857Z" fill="#E0E0E0"/>
<path d="M37.2306 191.009H46.268L46.5948 196.584H37.1426L37.2306 191.009Z" fill="#EBEBEB"/>
<path d="M37.1111 198.576H46.7079L46.7959 200.022L37.0859 200.06L37.1111 198.576Z" fill="#EBEBEB"/>
<path d="M48.3606 156.588C48.6183 157.933 65.0026 191.958 66.8064 194.994C68.8363 198.4 71.7085 197.791 71.7085 197.791L51.0819 145.263L47.8516 145.979L50.2461 152.226C50.2461 152.226 48.103 155.256 48.3606 156.588Z" fill="#F5F5F5"/>
<path d="M66.807 194.994C67.0873 195.456 67.398 195.899 67.7371 196.32L66.8698 194.076L50.2341 152.226C50.2341 152.226 48.091 155.243 48.3487 156.588C48.6063 157.933 64.9844 191.958 66.807 194.994Z" fill="#EBEBEB"/>
<path d="M47.7393 145.696C47.8906 145.94 48.0189 146.196 48.1226 146.463L49.0591 148.644C49.8447 150.485 50.8942 153.043 52.0192 155.89C53.1441 158.737 54.1308 161.32 54.8096 163.212C55.1427 164.155 55.4381 164.921 55.5763 165.456C55.6799 165.728 55.7557 166.01 55.8026 166.298C55.6623 166.043 55.5465 165.776 55.4569 165.5C55.2307 164.921 54.9353 164.18 54.5896 163.294L51.7175 156.01C50.6114 153.194 49.6058 150.655 48.8454 148.732L48.0158 146.513C47.8922 146.253 47.7994 145.979 47.7393 145.696Z" fill="#E0E0E0"/>
<path d="M51.6488 144.414C51.6488 145.043 52.1767 146.3 51.7996 146.696C51.4225 147.092 50.153 146.966 49.4994 146.966C48.3116 146.966 47.3438 145.822 47.3438 144.414C47.3438 143.007 48.3116 141.869 49.4994 141.869C50.3004 141.79 51.109 141.854 51.8876 142.058C52.4155 142.234 51.6488 143.786 51.6488 144.414Z" fill="#F5F5F5"/>
<path d="M53.2259 144.414C53.2259 145.822 52.2644 146.966 51.0766 146.966C49.8887 146.966 48.9209 145.822 48.9209 144.414C48.9209 143.007 49.8887 141.869 51.0766 141.869C52.2644 141.869 53.2259 143.013 53.2259 144.414Z" fill="#E0E0E0"/>
<path d="M49.0469 141.869C49.3057 141.805 49.5723 141.778 49.8388 141.787H50.7438C50.9134 141.787 51.102 141.756 51.3157 141.787C51.5328 141.814 51.7447 141.874 51.9441 141.963C52.3582 142.178 52.7086 142.497 52.9602 142.89C53.2117 143.283 53.3554 143.735 53.3771 144.201C53.4119 144.603 53.3641 145.007 53.2365 145.39C53.109 145.773 52.9044 146.125 52.6355 146.426C52.4229 146.668 52.1543 146.855 51.8531 146.97C51.5519 147.085 51.2272 147.124 50.9072 147.085C50.4278 147.103 49.9478 147.074 49.4742 146.997C49.9393 146.901 50.4135 146.857 50.8883 146.865C51.1684 146.884 51.449 146.837 51.7077 146.728C51.9664 146.619 52.1958 146.451 52.3778 146.237C52.6097 145.962 52.7847 145.644 52.8926 145.301C53.0005 144.958 53.0391 144.597 53.0063 144.238C52.9848 143.825 52.858 143.424 52.638 143.073C52.4181 142.722 52.1122 142.433 51.7493 142.234C51.5796 142.148 51.397 142.091 51.2088 142.064C51.0288 142.054 50.8484 142.054 50.6683 142.064L49.7633 142.026C49.5185 142.007 49.2774 141.954 49.0469 141.869Z" fill="#E0E0E0"/>
<path d="M50.8936 146.928C50.572 146.921 50.2622 146.806 50.0137 146.602C49.6895 146.384 49.4154 146.1 49.2097 145.768C49.0041 145.436 48.8715 145.064 48.821 144.677C48.7704 144.289 48.803 143.896 48.9166 143.522C49.0301 143.149 49.222 142.804 49.4795 142.51C49.8754 142.064 50.2337 141.938 50.2462 141.97C50.2588 142.001 49.976 142.208 49.6618 142.655C49.235 143.223 49.0474 143.935 49.139 144.64C49.2306 145.345 49.5941 145.985 50.152 146.426C50.5731 146.765 50.9124 146.878 50.8936 146.928Z" fill="#E0E0E0"/>
<path d="M49.9508 146.972C49.611 147.059 49.2512 147.019 48.939 146.859C48.5397 146.71 48.1811 146.469 47.8922 146.156C47.6032 145.843 47.3921 145.466 47.2758 145.056C47.1596 144.646 47.1415 144.215 47.2229 143.796C47.3044 143.378 47.4832 142.985 47.7449 142.648C48.1408 142.133 48.5305 141.982 48.543 142.02C48.5556 142.058 48.2476 142.278 47.9146 142.787C47.7015 143.104 47.5603 143.464 47.5006 143.842C47.4408 144.22 47.4641 144.606 47.5688 144.974C47.6735 145.342 47.857 145.683 48.1067 145.972C48.3563 146.262 48.6661 146.494 49.0144 146.652C49.5674 146.909 49.9571 146.922 49.9508 146.972Z" fill="#E0E0E0"/>
<path d="M117.594 162.219H121.83C122.045 162.227 122.249 162.319 122.398 162.475C122.547 162.631 122.63 162.839 122.628 163.055L122.798 166.713C122.808 166.826 122.795 166.94 122.761 167.049C122.727 167.157 122.671 167.258 122.597 167.344C122.523 167.431 122.433 167.502 122.331 167.553C122.23 167.604 122.119 167.635 122.006 167.643L117.606 167.699L117.594 162.219Z" fill="#E0E0E0"/>
<path d="M118.864 171.414C118.813 172.262 123.577 195.164 124.206 197.257C124.916 199.607 126.72 199.67 126.72 199.67L122.176 165.016L120.127 164.959L120.636 169.076C120.636 169.076 118.908 170.565 118.864 171.414Z" fill="#F5F5F5"/>
<path d="M124.206 197.256C124.304 197.576 124.423 197.889 124.564 198.193L124.388 196.716L120.617 169.063C120.617 169.063 118.876 170.553 118.832 171.401C118.788 172.249 123.577 195.164 124.206 197.256Z" fill="#EBEBEB"/>
<path d="M120.29 166.065C120.378 166.065 120.868 169.208 121.384 173.092C121.899 176.976 122.251 180.149 122.157 180.162C122.062 180.174 121.579 177.019 121.063 173.129C120.548 169.239 120.183 166.078 120.29 166.065Z" fill="#E0E0E0"/>
<path d="M113.113 167.699L112.157 227.536H120.309L116.789 167.699H113.113Z" fill="#F5F5F5"/>
<path d="M113.113 167.699L113 174.977L117.003 171.395L116.79 167.699H113.113Z" fill="#E0E0E0"/>
<path d="M108.455 163.281V167.052C108.455 167.219 108.522 167.378 108.639 167.496C108.757 167.614 108.917 167.68 109.084 167.68H117.593V162.2L109.052 162.634C108.888 162.642 108.733 162.714 108.622 162.835C108.51 162.956 108.45 163.116 108.455 163.281Z" fill="#F5F5F5"/>
<path d="M126.078 160.943C126.599 160.277 135.92 138.821 136.611 136.747C137.384 134.415 135.939 133.315 135.939 133.315L119.661 164.255L121.301 165.481L123.262 161.823C123.262 161.823 125.55 161.609 126.078 160.943Z" fill="#F5F5F5"/>
<path d="M136.631 136.747C136.731 136.427 136.813 136.102 136.876 135.773L136.172 137.08L123.288 161.823C123.288 161.823 125.569 161.609 126.097 160.943C126.625 160.277 135.92 138.821 136.631 136.747Z" fill="#EBEBEB"/>
<path d="M128.052 152.635C127.804 153.274 127.508 153.894 127.166 154.489L124.922 158.92C124.036 160.648 123.213 162.2 122.584 163.319C122.273 163.934 121.91 164.52 121.497 165.072C121.741 164.421 122.038 163.791 122.383 163.187L124.627 158.756C125.513 157.028 126.336 155.475 126.965 154.357C127.276 153.752 127.64 153.176 128.052 152.635Z" fill="#E0E0E0"/>
<path d="M112.704 193.385H118.297L118.505 196.835H112.647L112.704 193.385Z" fill="#EBEBEB"/>
<path d="M112.629 198.073H118.574L118.624 198.96L112.616 198.985L112.629 198.073Z" fill="#EBEBEB"/>
<path d="M113.22 164.249C112.39 164.45 91.7699 175.486 89.9662 176.686C87.9111 178.031 88.3636 179.791 88.3636 179.791L120.29 165.632L119.762 163.652L115.991 165.305C115.991 165.305 114.043 164.054 113.22 164.249Z" fill="#F5F5F5"/>
<path d="M89.9407 176.687C89.6601 176.877 89.3934 177.087 89.1426 177.315L90.5064 176.724L115.966 165.311C115.966 165.311 114.043 164.054 113.219 164.255C112.396 164.456 91.7696 175.486 89.9407 176.687Z" fill="#EBEBEB"/>
<path d="M119.944 163.577C119.379 163.936 118.787 164.249 118.172 164.513C117.053 165.06 115.501 165.77 113.772 166.556C112.044 167.341 110.46 168.001 109.31 168.441C108.704 168.72 108.073 168.941 107.425 169.101C108.007 168.769 108.612 168.479 109.235 168.234L113.634 166.241C115.362 165.475 116.927 164.777 118.071 164.293C118.673 164 119.3 163.76 119.944 163.577Z" fill="#E0E0E0"/>
<path d="M121.635 164.525C121.635 164.915 121.955 165.682 121.729 165.933C121.503 166.185 120.705 166.103 120.302 166.103C119.939 166.03 119.613 165.834 119.378 165.547C119.144 165.261 119.016 164.902 119.016 164.532C119.016 164.162 119.144 163.803 119.378 163.516C119.613 163.23 119.939 163.034 120.302 162.961C120.798 162.91 121.298 162.948 121.779 163.074C122.1 163.168 121.635 164.13 121.635 164.525Z" fill="#F5F5F5"/>
<path d="M122.609 164.526C122.566 164.78 122.451 165.016 122.278 165.207C122.105 165.398 121.881 165.535 121.633 165.603C121.384 165.671 121.122 165.666 120.876 165.59C120.63 165.513 120.411 165.368 120.245 165.171C120.079 164.974 119.972 164.734 119.938 164.479C119.904 164.224 119.943 163.964 120.051 163.73C120.16 163.497 120.333 163.299 120.55 163.16C120.767 163.022 121.019 162.948 121.277 162.948C121.662 162.983 122.017 163.169 122.266 163.464C122.516 163.759 122.639 164.14 122.609 164.526Z" fill="#E0E0E0"/>
<path d="M120.02 162.948C120.02 162.917 120.202 162.885 120.51 162.86L121.069 162.829C121.176 162.829 121.289 162.829 121.434 162.829C121.575 162.843 121.713 162.881 121.842 162.942C122.108 163.079 122.333 163.283 122.495 163.535C122.658 163.786 122.751 164.076 122.766 164.375C122.787 164.632 122.755 164.891 122.671 165.135C122.588 165.379 122.456 165.604 122.282 165.795C122.145 165.949 121.971 166.067 121.777 166.139C121.583 166.21 121.374 166.232 121.17 166.204C120.869 166.226 120.567 166.194 120.277 166.109C120.558 166.016 120.855 165.975 121.151 165.99C121.317 165.996 121.482 165.963 121.634 165.894C121.785 165.825 121.919 165.723 122.024 165.594C122.163 165.43 122.268 165.24 122.332 165.035C122.397 164.83 122.421 164.614 122.401 164.4C122.39 164.156 122.318 163.918 122.191 163.708C122.065 163.499 121.889 163.324 121.679 163.199C121.483 163.106 121.267 163.065 121.05 163.08L120.485 163.042C120.325 163.04 120.167 163.008 120.02 162.948Z" fill="#E0E0E0"/>
<path d="M121.164 166.078C121.164 166.116 120.919 166.078 120.592 165.908C120.381 165.774 120.203 165.595 120.069 165.384C119.935 165.174 119.849 164.936 119.818 164.688C119.786 164.441 119.809 164.189 119.885 163.951C119.961 163.714 120.089 163.495 120.259 163.313C120.517 163.036 120.749 162.973 120.768 163.005C120.787 163.036 120.617 163.181 120.441 163.457C120.196 163.803 120.09 164.229 120.144 164.649C120.199 165.07 120.411 165.454 120.737 165.726C120.982 165.94 121.183 166.028 121.164 166.078Z" fill="#E0E0E0"/>
<path d="M120.586 166.109C120.586 166.147 120.328 166.21 119.957 166.072C119.701 165.98 119.47 165.83 119.283 165.632C119.097 165.434 118.959 165.195 118.883 164.934C118.812 164.672 118.803 164.396 118.858 164.13C118.912 163.864 119.028 163.614 119.197 163.4C119.461 163.08 119.712 162.998 119.731 163.036C119.75 163.074 119.568 163.218 119.392 163.532C119.156 163.928 119.086 164.4 119.197 164.846C119.265 165.064 119.376 165.266 119.522 165.441C119.669 165.615 119.849 165.759 120.052 165.864C120.347 166.034 120.586 166.053 120.586 166.109Z" fill="#E0E0E0"/>
<path d="M137.888 25.1612C138.258 22.4713 134.462 20.2591 131.603 20.0328C130.239 19.9197 128.831 20.1271 127.543 19.6809C124.752 18.7067 123.634 15.1056 120.913 13.9555C118.876 13.0945 116.513 13.8612 114.559 14.8542C112.604 15.8472 110.637 17.0979 108.431 17.2361C106.514 17.3618 104.434 16.6516 102.775 17.5881C101.518 18.2857 100.889 19.7249 99.7141 20.5733C98.5388 21.4218 97.1185 21.5852 95.717 21.6606C94.3155 21.736 92.87 21.7486 91.6005 22.333C90.3309 22.9175 89.2688 24.2625 89.5328 25.6388L137.888 25.1612Z" fill="#F5F5F5"/>
<path d="M258.309 107.347C258.982 107.315 252.615 114.851 252.615 114.851H255.311L253.061 120.765L259.811 113.047H256.914L258.309 107.347Z" fill="#E0E0E0"/>
<path d="M269.088 114.059C269.082 113.988 269.082 113.916 269.088 113.845C269.088 113.694 269.056 113.493 269.038 113.217C269.024 112.886 268.987 112.556 268.924 112.23C268.865 111.784 268.772 111.343 268.648 110.91C268.346 109.709 267.863 108.56 267.215 107.504C265.691 104.959 263.327 103.025 260.53 102.035C257.733 101.045 254.679 101.061 251.893 102.08C251.324 102.286 250.77 102.53 250.234 102.809C249.693 103.11 249.172 103.446 248.675 103.815C248.169 104.192 247.689 104.601 247.236 105.04C246.787 105.506 246.367 106 245.979 106.517C245.19 107.582 244.577 108.766 244.163 110.024C243.291 112.628 243.291 115.446 244.163 118.05C244.579 119.307 245.192 120.491 245.979 121.557C246.367 122.074 246.787 122.568 247.236 123.034C247.688 123.483 248.169 123.903 248.675 124.291C249.172 124.659 249.693 124.995 250.234 125.296C250.77 125.575 251.324 125.819 251.893 126.025C254.034 126.803 256.344 126.998 258.586 126.591C260.538 126.23 262.379 125.416 263.96 124.215C265.264 123.228 266.369 122.002 267.215 120.601C267.863 119.545 268.346 118.397 268.648 117.195C268.772 116.762 268.865 116.321 268.924 115.875C268.987 115.55 269.024 115.22 269.038 114.889C269.038 114.631 269.075 114.43 269.088 114.26C269.081 114.191 269.081 114.122 269.088 114.053C269.095 114.122 269.095 114.191 269.088 114.26C269.088 114.417 269.088 114.618 269.088 114.889C269.088 115.224 269.059 115.558 269 115.888C268.955 116.34 268.873 116.788 268.755 117.227C268.467 118.445 267.994 119.613 267.353 120.689C265.821 123.298 263.424 125.287 260.578 126.312C257.732 127.337 254.617 127.334 251.773 126.302C251.189 126.095 250.62 125.847 250.07 125.56C249.515 125.257 248.981 124.914 248.474 124.536C247.951 124.152 247.455 123.732 246.991 123.279C246.539 122.804 246.119 122.3 245.734 121.77C244.913 120.683 244.276 119.469 243.848 118.176C242.952 115.504 242.952 112.614 243.848 109.942C244.283 108.654 244.919 107.443 245.734 106.354C246.119 105.824 246.539 105.32 246.991 104.846C247.455 104.393 247.951 103.973 248.474 103.589C248.981 103.21 249.515 102.868 250.07 102.564C252.696 101.195 255.704 100.742 258.618 101.276C260.427 101.624 262.142 102.354 263.648 103.416C265.154 104.478 266.417 105.848 267.353 107.435C267.995 108.513 268.467 109.683 268.755 110.904C268.873 111.343 268.955 111.79 269 112.243C269.059 112.573 269.088 112.907 269.088 113.242C269.088 113.493 269.088 113.701 269.088 113.87C269.093 113.933 269.093 113.996 269.088 114.059Z" fill="#E0E0E0"/>
<path d="M247.751 123.775C246.535 125.022 245.245 126.193 243.886 127.282C242.598 128.453 241.238 129.542 239.813 130.544C241.022 129.293 242.311 128.121 243.672 127.037C244.96 125.863 246.323 124.774 247.751 123.775Z" fill="#E0E0E0"/>
<path d="M240.524 130.475C240.524 130.599 240.487 130.72 240.418 130.824C240.349 130.927 240.25 131.008 240.136 131.055C240.021 131.103 239.894 131.115 239.772 131.091C239.651 131.067 239.539 131.007 239.451 130.919C239.363 130.831 239.303 130.719 239.279 130.597C239.254 130.475 239.267 130.349 239.314 130.234C239.362 130.119 239.443 130.021 239.546 129.952C239.649 129.883 239.771 129.846 239.895 129.846C240.062 129.846 240.222 129.912 240.339 130.03C240.457 130.148 240.524 130.308 240.524 130.475Z" fill="#E0E0E0"/>
<path d="M159.123 107.014H169.348C169.869 107.038 170.361 107.262 170.721 107.638C171.081 108.015 171.283 108.516 171.284 109.037L171.686 117.88C171.71 118.151 171.681 118.424 171.599 118.683C171.517 118.943 171.385 119.183 171.209 119.391C171.034 119.599 170.819 119.771 170.578 119.895C170.336 120.02 170.072 120.095 169.801 120.117L159.217 120.262L159.123 107.014Z" fill="#E2DCDC"/>
<path opacity="0.5" d="M159.123 107.014H169.348C169.869 107.038 170.361 107.262 170.721 107.638C171.081 108.015 171.283 108.516 171.284 109.037L171.686 117.88C171.71 118.151 171.681 118.424 171.599 118.683C171.517 118.943 171.385 119.183 171.209 119.391C171.034 119.599 170.819 119.771 170.578 119.895C170.336 120.02 170.072 120.095 169.801 120.117L159.217 120.262L159.123 107.014Z" fill="black"/>
<path d="M162.178 129.23C162.072 131.279 173.566 186.604 175.094 191.657C176.809 197.313 181.196 197.489 181.196 197.489L170.217 113.776L165.271 113.644L166.49 123.587C166.49 123.587 162.285 127.182 162.178 129.23Z" fill="#E2DCDC"/>
<path opacity="0.3" d="M175.094 191.657C175.33 192.428 175.619 193.182 175.961 193.913L175.534 190.349L166.49 123.58C166.49 123.58 162.285 127.181 162.178 129.237C162.072 131.292 173.566 186.604 175.094 191.657Z" fill="black"/>
<path d="M165.596 116.29C165.684 116.29 166.772 123.895 168.016 133.297C169.26 142.699 170.203 150.328 170.115 150.341C170.027 150.353 168.94 142.743 167.689 133.372C166.439 124.001 165.502 116.29 165.596 116.29Z" fill="#263238"/>
<path d="M148.295 120.262L145.988 264.799H165.678L157.175 120.262H148.295Z" fill="#E2DCDC"/>
<path opacity="0.5" d="M148.295 120.262L148.019 137.834L157.697 129.18L157.175 120.262H148.295Z" fill="black"/>
<path d="M137.045 109.584V118.741C137.045 119.144 137.205 119.531 137.49 119.817C137.776 120.102 138.162 120.262 138.566 120.262H159.123V107.014L138.516 108.07C138.122 108.081 137.747 108.246 137.473 108.529C137.198 108.811 137.045 109.19 137.045 109.584Z" fill="#E2DCDC"/>
<path d="M179.605 103.94C180.862 102.325 203.381 50.5201 205.052 45.4923C206.938 39.8361 203.424 37.2028 203.424 37.2028L164.126 111.935L168.092 114.895L172.824 106.065C172.824 106.065 178.336 105.549 179.605 103.94Z" fill="#E2DCDC"/>
<path opacity="0.3" d="M205.051 45.4923C205.299 44.7219 205.498 43.9369 205.648 43.1418L203.939 46.2842L172.823 106.046C172.823 106.046 178.335 105.531 179.604 103.922C180.874 102.313 203.38 50.5013 205.051 45.4923Z" fill="black"/>
<path d="M184.394 83.8608C184.359 83.9722 184.313 84.0796 184.256 84.1814C184.13 84.4139 183.986 84.703 183.803 85.0612C183.376 85.8594 182.804 86.9467 182.106 88.279C180.68 90.994 178.744 94.7712 176.614 98.9631C174.483 103.155 172.516 106.901 171.033 109.591C170.297 110.936 169.688 112.023 169.248 112.764L168.739 113.613C168.686 113.715 168.621 113.81 168.544 113.896C168.578 113.786 168.625 113.681 168.682 113.581L169.135 112.702L170.832 109.484C172.258 106.762 174.194 102.992 176.324 98.7997C178.455 94.6078 180.422 90.8683 181.905 88.1722C182.641 86.8272 183.25 85.7463 183.69 85.0298C183.891 84.682 184.061 84.3992 184.199 84.1814C184.245 84.064 184.311 83.9555 184.394 83.8608Z" fill="#263238"/>
<path opacity="0.4" d="M147.308 182.292H160.827L161.311 190.639H147.17L147.308 182.292Z" fill="white"/>
<path opacity="0.4" d="M147.126 193.618H161.493L161.618 195.773L147.088 195.836L147.126 193.618Z" fill="white"/>
<g opacity="0.4">
<path d="M159.123 113.638C159.123 113.732 154.183 113.896 148.087 114.009C141.991 114.122 137.045 114.147 137.045 114.059C137.045 113.971 141.985 113.801 148.081 113.682C154.177 113.562 159.123 113.55 159.123 113.638Z" fill="white"/>
</g>
<path d="M148.571 111.928C146.572 112.406 96.753 139.072 92.3411 141.963C87.3699 145.212 88.4697 149.467 88.4697 149.467L165.665 115.272L164.408 110.483L155.22 114.467C155.22 114.467 150.544 111.457 148.571 111.928Z" fill="#E2DCDC"/>
<path opacity="0.2" d="M92.323 141.963C91.6475 142.41 91.0029 142.901 90.3936 143.434L93.693 142.014L155.189 114.468C155.189 114.468 150.545 111.457 148.553 111.954C146.56 112.45 96.7349 139.072 92.323 141.963Z" fill="black"/>
<path d="M164.792 110.301C164.425 110.52 164.045 110.718 163.655 110.891L160.443 112.419C157.728 113.676 153.97 115.416 149.79 117.283C145.611 119.15 141.815 120.796 139.037 121.934C137.655 122.506 136.523 122.952 135.738 123.254L134.833 123.58C134.73 123.63 134.619 123.661 134.506 123.675C134.6 123.611 134.701 123.558 134.808 123.517L135.694 123.134L138.949 121.72L149.633 116.981L160.317 112.205L163.567 110.778C163.963 110.59 164.373 110.431 164.792 110.301Z" fill="#263238"/>
<path d="M168.877 112.582C168.877 113.531 169.663 115.391 169.104 115.995C168.632 116.504 166.64 116.397 165.66 116.397C163.881 116.397 162.436 114.688 162.436 112.582C162.436 110.477 163.881 108.774 165.66 108.774C166.857 108.655 168.066 108.751 169.229 109.056C170.009 109.32 168.877 111.639 168.877 112.582Z" fill="#E2DCDC"/>
<path d="M171.241 112.582C171.241 114.688 169.795 116.397 168.017 116.397C166.238 116.397 164.799 114.688 164.799 112.582C164.799 110.477 166.238 108.774 168.017 108.774C169.795 108.774 171.241 110.477 171.241 112.582Z" fill="#E2DCDC"/>
<path opacity="0.5" d="M171.241 112.582C171.241 114.688 169.795 116.397 168.017 116.397C166.238 116.397 164.799 114.688 164.799 112.582C164.799 110.477 166.238 108.774 168.017 108.774C169.795 108.774 171.241 110.477 171.241 112.582Z" fill="black"/>
<path d="M164.98 108.748C165.371 108.684 165.766 108.657 166.162 108.667H167.52H167.922C168.07 108.645 168.22 108.645 168.368 108.667C168.69 108.703 169.004 108.79 169.298 108.924C169.903 109.246 170.414 109.719 170.781 110.298C171.148 110.876 171.358 111.54 171.391 112.224C171.443 112.813 171.373 113.407 171.186 113.968C170.999 114.529 170.699 115.046 170.304 115.486C169.996 115.841 169.606 116.117 169.168 116.288C168.73 116.46 168.257 116.523 167.79 116.472C167.117 116.472 166.583 116.472 166.219 116.441C166.029 116.45 165.838 116.433 165.653 116.391C165.835 116.343 166.024 116.32 166.212 116.322L167.771 116.252C168.202 116.283 168.633 116.212 169.031 116.043C169.429 115.875 169.781 115.615 170.059 115.285C170.418 114.87 170.69 114.386 170.859 113.864C171.027 113.341 171.088 112.79 171.039 112.243C171.008 111.615 170.819 111.006 170.489 110.471C170.159 109.936 169.7 109.492 169.154 109.182C168.89 109.054 168.608 108.967 168.318 108.924C168.182 108.909 168.045 108.909 167.909 108.924H167.507L166.149 108.887C165.756 108.879 165.365 108.833 164.98 108.748Z" fill="#263238"/>
<path d="M167.746 116.34C167.283 116.285 166.847 116.097 166.489 115.8C166.017 115.474 165.619 115.054 165.32 114.565C165.022 114.076 164.829 113.529 164.755 112.961C164.681 112.393 164.727 111.815 164.89 111.266C165.054 110.717 165.331 110.208 165.703 109.773C165.979 109.388 166.361 109.093 166.803 108.924C166.841 108.975 166.375 109.245 165.885 109.911C165.559 110.334 165.319 110.818 165.18 111.334C165.04 111.85 165.004 112.388 165.073 112.918C165.142 113.448 165.315 113.959 165.581 114.422C165.848 114.886 166.203 115.292 166.627 115.618C166.987 115.877 167.361 116.119 167.746 116.34Z" fill="#263238"/>
<path d="M166.338 116.409C166.338 116.409 166.194 116.453 165.93 116.441C165.558 116.414 165.193 116.327 164.849 116.183C164.263 115.959 163.737 115.601 163.314 115.139C162.891 114.676 162.581 114.121 162.409 113.518C162.238 112.914 162.21 112.279 162.327 111.663C162.443 111.047 162.702 110.466 163.083 109.968C163.3 109.662 163.568 109.397 163.875 109.182C164.088 109.031 164.22 108.975 164.233 108.987C163.884 109.333 163.563 109.705 163.271 110.1C162.941 110.58 162.72 111.127 162.625 111.702C162.53 112.277 162.564 112.866 162.723 113.426C162.882 113.987 163.163 114.506 163.546 114.945C163.928 115.385 164.403 115.735 164.937 115.97C165.391 116.155 165.86 116.302 166.338 116.409Z" fill="#263238"/>
<path opacity="0.5" d="M113.1 133.315L116.009 137.25L130.559 130.808L126.888 127.138L113.1 133.315Z" fill="black"/>
<path opacity="0.5" d="M147.534 167.58C147.534 167.58 148.665 169.415 151.714 170.848C155.635 172.683 159.148 168.611 158.897 164.287L147.716 153.251L147.534 167.58Z" fill="black"/>
<path d="M80.6963 88.499H92.1157C92.6976 88.5265 93.2467 88.7767 93.6492 89.1979C94.0516 89.6191 94.2767 90.179 94.2776 90.7615L94.7301 100.641C94.7585 100.948 94.7252 101.257 94.6322 101.55C94.5392 101.844 94.3884 102.116 94.1887 102.35C93.989 102.584 93.7443 102.776 93.4693 102.915C93.1942 103.053 92.8942 103.135 92.587 103.155L80.7654 103.318L80.6963 88.499Z" fill="#E2DCDC"/>
<path opacity="0.5" d="M80.6963 88.499H92.1157C92.6976 88.5265 93.2467 88.7767 93.6492 89.1979C94.0516 89.6191 94.2767 90.179 94.2776 90.7615L94.7301 100.641C94.7585 100.948 94.7252 101.257 94.6322 101.55C94.5392 101.844 94.3884 102.116 94.1887 102.35C93.989 102.584 93.7443 102.776 93.4693 102.915C93.1942 103.053 92.8942 103.135 92.587 103.155L80.7654 103.318L80.6963 88.499Z" fill="black"/>
<path d="M95.8169 114.48C97.0738 116.403 143.857 158.794 148.558 162.357C153.85 166.361 157.91 163.614 157.91 163.614L92.907 95.2362L88.3506 98.3786L95.9928 106.549C95.9928 106.549 94.5662 112.563 95.8169 114.48Z" fill="#E2DCDC"/>
<path opacity="0.3" d="M148.572 162.357C149.297 162.894 150.054 163.385 150.84 163.828L148.1 160.912L95.9933 106.549C95.9933 106.549 94.5667 112.563 95.8173 114.48C97.068 116.397 143.858 158.794 148.572 162.357Z" fill="black"/>
<path d="M90.3989 100.578C90.4618 100.515 96.4449 106.681 103.76 114.348C111.076 122.015 116.958 128.288 116.889 128.35C116.82 128.413 110.837 122.248 103.521 114.574C96.206 106.901 90.3361 100.628 90.3989 100.578Z" fill="#263238"/>
<path d="M68.6035 103.306L66.0205 264.799H88.0234L78.5209 103.306H68.6035Z" fill="#E2DCDC"/>
<path opacity="0.5" d="M68.604 103.306L68.0195 139.927L79.7846 124.787L78.5213 103.306H68.604Z" fill="black"/>
<path d="M56.0283 91.3712V101.609C56.0283 102.059 56.2071 102.491 56.5253 102.809C56.8436 103.127 57.2752 103.306 57.7252 103.306H80.696V88.499L57.6372 89.6806C57.2037 89.7031 56.7953 89.8909 56.496 90.2053C56.1967 90.5198 56.0293 90.937 56.0283 91.3712Z" fill="#E2DCDC"/>
<path d="M92.3417 73.6606C92.2286 71.373 73.0915 11.2028 70.8164 5.78535C68.2523 -0.335996 63.3564 0.00338125 63.3564 0.00338125L85.1834 91.7607L90.7014 91.3333L88.1875 80.423C88.1875 80.423 92.4548 75.9483 92.3417 73.6606Z" fill="#E2DCDC"/>
<path opacity="0.3" d="M70.8163 5.76649C70.4627 4.93536 70.0532 4.12907 69.5908 3.35315L70.477 7.26226L88.2 80.4293C88.2 80.4293 92.4547 75.9483 92.3416 73.6606C92.2285 71.373 73.0914 11.2028 70.8163 5.76649Z" fill="black"/>
<path d="M70.2007 106.643C68.6672 108.352 39.9397 164.57 37.7274 170.037C35.2135 176.19 38.9844 179.395 38.9844 179.395L88.0494 98.8122L83.8386 95.2362L77.9372 104.745C77.9372 104.745 71.7279 104.94 70.2007 106.643Z" fill="#E2DCDC"/>
<path opacity="0.2" d="M37.727 170.037C37.3942 170.877 37.1171 171.738 36.8975 172.614L39.0217 169.214L77.9054 104.745C77.9054 104.745 71.7275 104.94 70.2003 106.63C68.6731 108.321 39.9393 164.569 37.727 170.037Z" fill="black"/>
<path d="M91.5994 94.7271C91.5994 95.783 92.4729 97.8695 91.8507 98.5357C91.3228 99.1013 89.0917 98.9819 87.9982 98.9819C86.0122 98.9819 84.4033 97.0965 84.4033 94.7271C84.4033 92.3578 86.0122 90.4661 87.9982 90.4661C89.0917 90.4661 90.5121 90.2712 91.989 90.7803C92.8626 91.0757 91.5994 93.665 91.5994 94.7271Z" fill="#E2DCDC"/>
<path d="M94.2331 94.7271C94.2331 97.0776 92.6243 98.9819 90.6383 98.9819C88.6523 98.9819 87.0371 97.0965 87.0371 94.7271C87.0371 92.3578 88.6523 90.4661 90.6383 90.4661C92.6243 90.4661 94.2331 92.3703 94.2331 94.7271Z" fill="#E2DCDC"/>
<path opacity="0.5" d="M94.2331 94.7271C94.2331 97.0776 92.6243 98.9819 90.6383 98.9819C88.6523 98.9819 87.0371 97.0965 87.0371 94.7271C87.0371 92.3578 88.6523 90.4661 90.6383 90.4661C92.6243 90.4661 94.2331 92.3703 94.2331 94.7271Z" fill="black"/>
<path d="M87.2441 90.4661C87.681 90.4017 88.1225 90.3744 88.5639 90.3844L90.0786 90.353H90.5311C90.6958 90.3311 90.8628 90.3311 91.0276 90.353C91.3844 90.3933 91.7325 90.491 92.0583 90.6421C92.7304 91.0002 93.2981 91.5267 93.7057 92.1701C94.1133 92.8135 94.3469 93.5516 94.3836 94.3124C94.4428 94.9692 94.3663 95.6313 94.1587 96.2573C93.9511 96.8833 93.6169 97.4599 93.1769 97.9512C92.8315 98.3468 92.3958 98.6533 91.9068 98.8447C91.4178 99.0362 90.8898 99.1069 90.3677 99.0511H88.6142C88.4034 99.0637 88.1919 99.0468 87.9857 99.0008C88.1918 98.9529 88.4027 98.9297 88.6142 98.9316L90.3551 98.8625C90.8385 98.8983 91.3235 98.8189 91.7703 98.631C92.2171 98.4431 92.613 98.152 92.9256 97.7815C93.3295 97.3163 93.6352 96.7741 93.8242 96.1876C94.0132 95.6011 94.0816 94.9825 94.0254 94.3689C93.9944 93.6622 93.7829 92.9752 93.411 92.3734C93.0391 91.7716 92.5193 91.2751 91.9011 90.9312C91.606 90.7864 91.2901 90.6889 90.9647 90.6421C90.8126 90.6201 90.6581 90.6201 90.5059 90.6421H90.0534L88.5388 90.6044C88.104 90.5965 87.6708 90.5502 87.2441 90.4661Z" fill="#263238"/>
<path d="M90.3299 98.919C90.3299 98.919 90.179 98.919 89.9213 98.8373C89.5613 98.7088 89.2208 98.5311 88.9095 98.3094C88.3932 97.9422 87.9563 97.4746 87.6248 96.9347C87.2932 96.3948 87.074 95.7936 86.9801 95.167C86.9034 94.5344 86.9576 93.8927 87.1392 93.2819C87.3208 92.6711 87.626 92.1041 88.0359 91.6161C88.278 91.3211 88.5617 91.0628 88.8781 90.8494C89.1043 90.6986 89.2426 90.642 89.2552 90.6608C88.8864 91.0027 88.54 91.368 88.2182 91.7544C87.8503 92.228 87.5798 92.7698 87.4223 93.3485C87.2647 93.9272 87.2234 94.5313 87.3005 95.1261C87.3776 95.7209 87.5717 96.2945 87.8716 96.8139C88.1715 97.3332 88.5712 97.7881 89.0478 98.1523C89.4586 98.4345 89.8868 98.6906 90.3299 98.919Z" fill="#263238"/>
<path d="M88.7595 99.0006C88.6103 99.0316 88.4563 99.0316 88.307 99.0006C87.8916 98.9676 87.4841 98.8678 87.1004 98.7053C86.4494 98.4553 85.8656 98.0572 85.395 97.5426C84.9245 97.0279 84.5802 96.4109 84.3893 95.7402C84.1985 95.0695 84.1664 94.3636 84.2955 93.6783C84.4246 92.9931 84.7114 92.3473 85.1332 91.792C85.3765 91.4529 85.6712 91.1539 86.0068 90.9059C86.1245 90.8059 86.2614 90.731 86.409 90.6859C86.0103 91.0721 85.6465 91.4927 85.3218 91.9429C84.9434 92.4801 84.6901 93.0953 84.5806 93.7432C84.471 94.3911 84.5081 95.0554 84.6889 95.6871C84.8698 96.3188 85.1898 96.9021 85.6256 97.3939C86.0614 97.8857 86.6018 98.2737 87.2072 98.5293C87.7094 98.7328 88.229 98.8906 88.7595 99.0006Z" fill="#263238"/>
<path d="M84.0643 94.8025C83.8672 95.2354 83.6426 95.6552 83.3918 96.0594C82.9016 96.9079 82.2354 98.0768 81.4121 99.4972C79.7278 102.394 77.3773 106.41 74.7314 110.753C72.0855 115.096 69.647 119.062 67.8182 121.877C66.9132 123.285 66.1653 124.391 65.6374 125.189L65.0089 126.069C64.9418 126.175 64.8639 126.274 64.7764 126.364C64.8205 126.247 64.8819 126.137 64.9586 126.038C65.1032 125.793 65.2917 125.491 65.5243 125.12C66.0396 124.284 66.7812 123.147 67.6171 121.751C69.3831 118.904 71.7901 114.958 74.436 110.583C77.0819 106.209 79.4638 102.281 81.1984 99.3778C82.0531 97.9763 82.7507 96.8639 83.2661 95.9966C83.5051 95.5811 83.7717 95.1822 84.0643 94.8025Z" fill="#263238"/>
<path d="M81.6133 53.2478C81.6655 53.3665 81.7034 53.491 81.7264 53.6186L81.9904 54.6933C82.2166 55.6674 82.5371 57.0061 82.9205 58.6464C83.7124 61.9836 84.8562 66.584 86.132 71.6621C87.4078 76.7402 88.5139 81.3532 89.2744 84.7092C89.6452 86.3873 89.9029 87.7448 90.104 88.6875C90.1857 89.1337 90.2548 89.4919 90.3051 89.7748C90.3372 89.9001 90.3541 90.0288 90.3554 90.1581C90.3032 90.0394 90.2652 89.9149 90.2422 89.7873C90.1731 89.5108 90.0914 89.1588 89.9846 88.7126C89.752 87.7385 89.4378 86.3998 89.0481 84.7595C88.2563 81.4223 87.1124 76.8219 85.8366 71.7438C84.5608 66.6657 83.4547 62.0527 82.6942 58.6967C82.3297 57.0187 82.0658 55.6611 81.8647 54.7184C81.783 54.2722 81.7138 53.914 81.6636 53.6312C81.6314 53.5059 81.6146 53.3771 81.6133 53.2478Z" fill="#263238"/>
<path opacity="0.4" d="M67.4922 172.614H82.6007L83.1475 181.934H67.3477L67.4922 172.614Z" fill="white"/>
<path opacity="0.4" d="M67.2906 185.265H83.3419L83.4864 187.678L67.2529 187.741L67.2906 185.265Z" fill="white"/>
<g opacity="0.4">
<path d="M80.6964 95.9024C80.6964 95.9904 75.1721 96.1727 68.3657 96.2984C61.5593 96.424 56.0225 96.4618 56.0225 96.3675C56.0225 96.2732 61.5405 96.1035 68.3594 95.9715C75.1784 95.8396 80.6964 95.8144 80.6964 95.9024Z" fill="white"/>
</g>
<path d="M157.91 163.602C157.841 163.664 143.455 148.663 125.814 130.098C108.172 111.532 93.8934 96.4302 93.9563 96.3674C94.0191 96.3045 108.411 111.306 126.052 129.878C143.694 148.449 157.998 163.539 157.91 163.602Z" fill="#263238"/>
<path d="M223.24 132.63H231.8C232.237 132.65 232.649 132.837 232.951 133.153C233.254 133.469 233.422 133.89 233.422 134.327L233.761 141.731C233.782 141.96 233.758 142.192 233.688 142.412C233.619 142.632 233.506 142.835 233.357 143.011C233.208 143.187 233.025 143.331 232.819 143.435C232.613 143.539 232.388 143.6 232.158 143.616L223.291 143.742L223.24 132.63Z" fill="#E2DCDC"/>
<path opacity="0.5" d="M223.24 132.63H231.8C232.237 132.65 232.649 132.837 232.951 133.153C233.254 133.469 233.422 133.89 233.422 134.327L233.761 141.731C233.782 141.96 233.758 142.192 233.688 142.412C233.619 142.632 233.506 142.835 233.357 143.011C233.208 143.187 233.025 143.331 232.819 143.435C232.613 143.539 232.388 143.6 232.158 143.616L223.291 143.742L223.24 132.63Z" fill="black"/>
<path d="M234.571 152.113C235.508 153.552 270.583 185.334 274.109 187.999C278.074 191.003 281.116 188.935 281.116 188.935L232.384 137.658L228.972 140.009L234.703 146.136C234.703 146.136 233.635 150.674 234.571 152.113Z" fill="#E2DCDC"/>
<path opacity="0.3" d="M274.109 187.999C274.652 188.404 275.221 188.774 275.813 189.105L273.764 186.899L234.704 146.161C234.704 146.161 233.636 150.674 234.572 152.113C235.508 153.552 270.584 185.334 274.109 187.999Z" fill="black"/>
<path d="M230.512 141.68C230.574 141.618 235.074 146.224 240.567 151.975C246.06 157.725 250.447 162.433 250.378 162.496C250.308 162.558 245.815 157.952 240.322 152.201C234.829 146.451 230.442 141.743 230.512 141.68Z" fill="#263238"/>
<path d="M214.171 143.736L212.235 264.799H228.727L221.606 143.736H214.171Z" fill="#E2DCDC"/>
<path opacity="0.5" d="M214.171 143.736L213.731 171.187L222.549 159.837L221.606 143.736H214.171Z" fill="black"/>
<path d="M204.744 134.786V142.46C204.744 142.793 204.877 143.113 205.112 143.349C205.348 143.584 205.668 143.717 206.001 143.717H223.228V132.63L205.938 133.51C205.613 133.526 205.306 133.669 205.083 133.907C204.861 134.145 204.739 134.46 204.744 134.786Z" fill="#E2DCDC"/>
<path d="M231.964 121.506C231.882 119.791 217.509 74.6913 215.831 70.5999C213.908 66.0121 210.237 66.2634 210.237 66.2634L226.578 135.069L230.713 134.755L228.828 126.584C228.828 126.584 232.052 123.203 231.964 121.506Z" fill="#E2DCDC"/>
<path opacity="0.3" d="M215.818 70.6125C215.553 69.9886 215.244 69.3838 214.895 68.8025L215.561 71.7312L228.847 126.584C228.847 126.584 232.039 123.222 231.951 121.506C231.863 119.791 217.534 74.6913 215.818 70.6125Z" fill="black"/>
<path d="M215.365 146.237C214.221 147.494 192.677 189.664 191.024 193.762C189.139 198.369 191.948 200.77 191.948 200.77L228.726 140.367L225.584 137.683L221.185 144.817C221.185 144.817 216.509 144.955 215.365 146.237Z" fill="#E2DCDC"/>
<path opacity="0.2" d="M191.024 193.762C190.771 194.39 190.561 195.035 190.396 195.692L191.986 193.14L221.134 144.817C221.134 144.817 216.502 144.955 215.359 146.237C214.215 147.519 192.677 189.664 191.024 193.762Z" fill="black"/>
<path d="M231.41 137.3C231.41 138.092 232.039 139.65 231.599 140.16C231.159 140.669 229.531 140.493 228.708 140.493C227.218 140.493 226.012 139.066 226.012 137.3C226.012 135.534 227.218 134.107 228.708 134.107C229.711 134.007 230.725 134.087 231.699 134.346C232.353 134.566 231.41 136.508 231.41 137.3Z" fill="#E2DCDC"/>
<path d="M233.415 137.3C233.415 139.066 232.208 140.493 230.719 140.493C229.229 140.493 228.022 139.066 228.022 137.3C228.022 135.534 229.229 134.107 230.719 134.107C232.208 134.107 233.415 135.54 233.415 137.3Z" fill="#E2DCDC"/>
<path opacity="0.5" d="M233.415 137.3C233.415 139.066 232.208 140.493 230.719 140.493C229.229 140.493 228.022 139.066 228.022 137.3C228.022 135.534 229.229 134.107 230.719 134.107C232.208 134.107 233.415 135.54 233.415 137.3Z" fill="black"/>
<path d="M228.143 134.107C228.469 134.043 228.803 134.016 229.136 134.026L230.273 133.994C230.487 133.994 230.719 133.957 230.983 133.994C231.255 134.026 231.52 134.101 231.769 134.214C232.281 134.483 232.713 134.88 233.024 135.368C233.335 135.855 233.513 136.415 233.541 136.992C233.586 137.49 233.528 137.993 233.37 138.467C233.212 138.942 232.958 139.379 232.624 139.751C232.36 140.051 232.028 140.282 231.656 140.425C231.284 140.569 230.883 140.62 230.487 140.574C229.889 140.596 229.289 140.569 228.696 140.493C229.281 140.392 229.874 140.346 230.468 140.354C230.823 140.374 231.179 140.311 231.506 140.17C231.833 140.03 232.123 139.815 232.353 139.544C232.649 139.2 232.873 138.8 233.012 138.368C233.151 137.937 233.203 137.482 233.164 137.03C233.139 136.508 232.982 136.001 232.709 135.556C232.435 135.111 232.053 134.742 231.599 134.485C231.381 134.378 231.148 134.306 230.908 134.271C230.682 134.233 230.455 134.271 230.229 134.271L229.092 134.233C228.771 134.228 228.453 134.185 228.143 134.107Z" fill="#263238"/>
<path d="M230.455 140.442C230.057 140.42 229.677 140.268 229.374 140.009C228.974 139.737 228.636 139.383 228.383 138.971C228.129 138.559 227.966 138.098 227.904 137.618C227.841 137.138 227.881 136.651 228.021 136.187C228.161 135.724 228.397 135.296 228.714 134.931C228.945 134.605 229.272 134.361 229.65 134.233C229.682 134.283 229.299 134.516 228.896 135.075C228.356 135.791 228.119 136.691 228.236 137.58C228.354 138.469 228.817 139.276 229.525 139.826C230.046 140.26 230.48 140.392 230.455 140.442Z" fill="#263238"/>
<path d="M229.28 140.505C228.853 140.586 228.412 140.524 228.023 140.329C227.528 140.144 227.083 139.844 226.725 139.455C226.366 139.066 226.104 138.599 225.96 138.09C225.816 137.581 225.793 137.045 225.894 136.526C225.995 136.007 226.216 135.518 226.54 135.1C227.024 134.472 227.508 134.258 227.521 134.29C227.237 134.585 226.973 134.897 226.729 135.226C226.455 135.627 226.272 136.083 226.194 136.562C226.116 137.042 226.144 137.532 226.277 137.999C226.409 138.466 226.643 138.899 226.961 139.265C227.279 139.632 227.674 139.925 228.118 140.122C228.496 140.275 228.885 140.403 229.28 140.505Z" fill="#263238"/>
<path d="M225.761 137.357C225.619 137.682 225.446 137.994 225.245 138.287L223.775 140.876C222.518 143.051 220.758 146.036 218.747 149.316C216.736 152.597 214.932 155.545 213.568 157.65C212.883 158.706 212.311 159.535 211.922 160.126C211.728 160.436 211.507 160.729 211.262 161C211.423 160.673 211.608 160.358 211.815 160.057L213.373 157.543L218.47 149.166L223.599 140.801L225.164 138.287C225.337 137.961 225.537 137.65 225.761 137.357Z" fill="#263238"/>
<path d="M223.925 106.234C224.049 106.585 224.148 106.944 224.22 107.309C224.402 108.063 224.641 109.063 224.93 110.276C225.559 112.821 226.414 116.24 227.35 120.03C228.286 123.819 229.135 127.295 229.675 129.809C229.946 131.066 230.159 132.09 230.304 132.794C230.391 133.157 230.448 133.527 230.474 133.9C230.349 133.549 230.251 133.19 230.178 132.825C230.002 132.071 229.757 131.072 229.468 129.859C228.839 127.314 227.991 123.895 227.048 120.105C226.106 116.315 225.27 112.84 224.723 110.326C224.453 109.069 224.245 108.045 224.095 107.341C224.007 106.977 223.95 106.607 223.925 106.234Z" fill="#263238"/>
<path opacity="0.4" d="M213.336 195.692H224.661L225.07 202.68H213.229L213.336 195.692Z" fill="white"/>
<path opacity="0.4" d="M213.185 205.175H225.221L225.327 206.985L213.16 207.035L213.185 205.175Z" fill="white"/>
<g opacity="0.4">
<path d="M223.24 138.186C223.24 138.274 219.099 138.425 213.995 138.519C208.892 138.613 204.744 138.626 204.744 138.519C204.744 138.412 208.879 138.28 213.989 138.18C219.098 138.079 223.24 138.092 223.24 138.186Z" fill="white"/>
</g>
<path d="M281.117 188.935C281.054 188.998 270.27 177.767 257.028 163.847C243.786 149.926 233.114 138.595 233.177 138.532C233.24 138.469 244.025 149.7 257.266 163.62C270.508 177.541 281.18 188.873 281.117 188.935Z" fill="#263238"/>
<path d="M276.422 264.799C276.422 264.887 214.574 264.962 138.29 264.962C62.0053 264.962 0.144531 264.887 0.144531 264.799C0.144531 264.711 61.9864 264.635 138.29 264.635C214.593 264.635 276.422 264.704 276.422 264.799Z" fill="#263238"/>
<path d="M104.912 255.491C105.662 256.999 106.313 258.555 106.86 260.148C107.509 261.703 108.055 263.298 108.494 264.924C107.1 261.862 105.903 258.713 104.912 255.497V255.491Z" fill="#263238"/>
<path d="M103.089 242.324C103.274 242.581 103.434 242.854 103.567 243.141C103.862 243.676 104.258 244.461 104.729 245.442C105.948 248.004 107.036 250.626 107.991 253.298C108.942 255.978 109.756 258.705 110.429 261.468C110.681 262.53 110.869 263.391 110.983 263.982C111.056 264.289 111.104 264.602 111.127 264.918C111.007 264.626 110.916 264.323 110.857 264.013L110.228 261.499C109.663 259.4 108.821 256.522 107.714 253.398C106.608 250.275 105.439 247.503 104.572 245.523L103.504 243.179C103.343 242.906 103.204 242.62 103.089 242.324Z" fill="#263238"/>
<path d="M184.231 256.088C184.592 256.397 184.905 256.757 185.162 257.156C185.831 258.081 186.406 259.071 186.877 260.11C187.35 261.149 187.717 262.234 187.971 263.347C188.107 263.802 188.174 264.274 188.172 264.748C187.715 263.223 187.183 261.721 186.576 260.249C185.867 258.822 185.084 257.433 184.231 256.088Z" fill="#263238"/>
<path d="M183.264 243.87C183.472 244.085 183.659 244.318 183.823 244.568C184.169 245.027 184.64 245.718 185.193 246.585C188.064 251.152 190.105 256.19 191.22 261.468C191.428 262.48 191.566 263.297 191.641 263.869C191.7 264.162 191.727 264.461 191.723 264.761C191.629 264.478 191.559 264.188 191.516 263.894C191.402 263.328 191.226 262.517 190.994 261.518C189.772 256.306 187.758 251.313 185.023 246.711C184.495 245.831 184.056 245.127 183.766 244.644C183.575 244.402 183.406 244.144 183.264 243.87Z" fill="#263238"/>
<path d="M185.024 236.398C185.124 236.398 185.527 238.472 186.57 240.866C187.613 243.261 188.845 245.008 188.757 245.064C188.415 244.743 188.121 244.375 187.883 243.971C187.258 243.03 186.718 242.035 186.268 240.998C185.822 239.962 185.471 238.887 185.219 237.787C185.083 237.337 185.017 236.868 185.024 236.398Z" fill="#263238"/>
<path d="M248.418 258.2C248.815 258.398 249.181 258.652 249.505 258.954C250.333 259.627 251.105 260.367 251.812 261.166C252.517 261.964 253.158 262.818 253.728 263.718C253.994 264.074 254.206 264.468 254.357 264.887C254.269 264.943 253.226 263.221 251.585 261.38C249.945 259.538 248.355 258.281 248.418 258.2Z" fill="#263238"/>
<path d="M249.436 249.527C249.436 249.527 249.625 249.684 249.92 250.017C250.216 250.35 250.624 250.846 251.108 251.475C253.617 254.776 255.545 258.48 256.808 262.429C257.053 263.183 257.223 263.806 257.324 264.239C257.39 264.458 257.432 264.684 257.449 264.912C257.399 264.912 257.122 263.988 256.595 262.505C255.218 258.632 253.315 254.967 250.938 251.613C250.008 250.293 249.399 249.527 249.436 249.527Z" fill="#263238"/>
<path d="M44.4023 241.206C44.6097 241.459 44.7948 241.731 44.9554 242.016C45.2948 242.544 45.7536 243.336 46.2878 244.335C49.0516 249.563 50.7963 255.268 51.4287 261.147C51.5481 262.272 51.6047 263.183 51.6235 263.812C51.6465 264.14 51.6465 264.47 51.6235 264.798C51.5499 264.479 51.5078 264.152 51.4978 263.824C51.4475 263.196 51.3533 262.291 51.2024 261.172C50.8146 258.265 50.1839 255.395 49.317 252.594C48.4576 249.785 47.3666 247.052 46.0552 244.423C45.5525 243.418 45.1251 242.607 44.7983 242.06C44.6429 241.787 44.5105 241.501 44.4023 241.206Z" fill="#263238"/>
<path d="M40.2542 248.898C40.4811 249.013 40.6923 249.157 40.8826 249.326C41.4185 249.743 41.9305 250.19 42.4161 250.664C44.0347 252.221 45.44 253.986 46.5955 255.912C47.7542 257.848 48.6543 259.927 49.2728 262.096C49.4593 262.75 49.6124 263.413 49.7316 264.082C49.7892 264.325 49.8208 264.574 49.8258 264.824C49.763 264.824 49.5619 263.793 49.0465 262.165C47.7056 257.911 45.3777 254.035 42.2527 250.853C41.0398 249.615 40.2165 248.948 40.2542 248.898Z" fill="#263238"/>
<path d="M40.6564 257.697C41.0613 257.901 41.4339 258.164 41.7626 258.476C42.5965 259.189 43.3604 259.981 44.0439 260.839C44.7302 261.688 45.3322 262.601 45.8414 263.567C46.0794 263.956 46.2554 264.38 46.363 264.824C46.275 264.868 45.3763 263.008 43.7862 261.053C42.1962 259.098 40.5873 257.791 40.6564 257.697Z" fill="#263238"/>
<path d="M54.8475 258.633C54.5595 259.618 54.3286 260.619 54.1561 261.631C54.098 262.655 54.098 263.681 54.1561 264.704C53.8245 263.702 53.7151 262.64 53.8356 261.592C53.9561 260.543 54.3035 259.534 54.8537 258.633H54.8475Z" fill="#263238"/>
<path d="M114.773 251.318C115.157 251.287 115.544 251.335 115.91 251.457C116.276 251.579 116.614 251.773 116.903 252.028C117.482 252.547 117.933 253.192 118.223 253.913C118.763 255.371 118.912 256.943 118.657 258.476C117.029 258.162 115.829 256.666 115.263 255.862C114.377 254.605 113.535 251.777 114.773 251.324" fill="#E2DCDC"/>
<path d="M121.146 259.859C120.859 259.535 120.663 259.142 120.577 258.718C120.49 258.294 120.518 257.855 120.656 257.445C120.798 257.033 121.023 256.653 121.315 256.329C121.608 256.005 121.963 255.744 122.359 255.56C122.529 255.457 122.719 255.393 122.917 255.372C123.115 255.351 123.315 255.375 123.503 255.441C123.668 255.529 123.806 255.661 123.903 255.821C124.001 255.981 124.053 256.164 124.056 256.352C124.052 256.726 123.95 257.092 123.76 257.414C123.169 258.545 122.384 259.532 121.146 259.827" fill="#E2DCDC"/>
<path d="M122.044 264.61C121.997 264.518 121.959 264.421 121.931 264.321C121.856 264.114 121.762 263.85 121.642 263.535C121.304 262.672 121.106 261.759 121.058 260.833C121.026 259.899 121.243 258.973 121.686 258.149C121.824 257.904 121.991 257.677 122.183 257.471L122.346 257.307C122.364 257.287 122.386 257.27 122.409 257.257C122.17 257.546 121.959 257.857 121.78 258.187C121.366 259.006 121.165 259.916 121.196 260.833C121.248 261.748 121.435 262.65 121.749 263.51C121.856 263.843 121.944 264.139 122 264.308C122.025 264.407 122.04 264.508 122.044 264.61Z" fill="#263238"/>
<path d="M115.602 253.411L115.677 253.517L115.891 253.838C116.073 254.121 116.331 254.523 116.645 255.026C117.274 256.038 118.128 257.439 119.033 259.01C119.938 260.582 120.724 262.027 121.277 263.077C121.554 263.605 121.78 264.032 121.905 264.334L122.075 264.679L122.132 264.805C122.101 264.771 122.076 264.733 122.056 264.692C122.006 264.604 121.949 264.491 121.868 264.359C121.704 264.051 121.472 263.636 121.195 263.102C120.623 262.058 119.825 260.626 118.92 259.054C118.015 257.483 117.173 256.075 116.563 255.057L115.834 253.851C115.759 253.712 115.69 253.605 115.64 253.517C115.589 253.43 115.596 253.417 115.602 253.411Z" fill="#263238"/>
<path d="M119.732 261.725C119.149 261.024 118.408 260.472 117.57 260.113C116.732 259.755 115.821 259.601 114.911 259.664C114.446 259.702 113.912 259.865 113.774 260.293C113.635 260.72 113.975 261.179 114.339 261.468C115.107 262.057 116.031 262.406 116.996 262.471C117.961 262.536 118.924 262.313 119.763 261.832" fill="#E2DCDC"/>
<path d="M115.791 260.783C115.885 260.758 115.983 260.746 116.08 260.745H116.419C116.551 260.745 116.702 260.745 116.866 260.745C117.049 260.755 117.232 260.776 117.412 260.808C117.625 260.838 117.835 260.882 118.041 260.94C118.982 261.182 119.846 261.658 120.555 262.322C120.709 262.464 120.854 262.615 120.989 262.775C121.108 262.91 121.219 263.053 121.322 263.202C121.411 263.323 121.493 263.449 121.567 263.579C121.63 263.675 121.685 263.776 121.73 263.881C121.777 263.965 121.817 264.054 121.85 264.145C121.85 264.145 121.655 263.781 121.265 263.246C121.164 263.121 121.058 262.976 120.919 262.832C120.781 262.687 120.643 262.542 120.486 262.392C120.135 262.077 119.752 261.801 119.342 261.568C118.925 261.347 118.487 261.168 118.035 261.034C117.821 260.978 117.626 260.927 117.406 260.896C117.186 260.864 117.035 260.839 116.872 260.82C116.206 260.764 115.791 260.802 115.791 260.783Z" fill="#263238"/>
<path d="M208.219 109.195C207.104 109.799 205.814 109.996 204.569 109.752C203.325 109.507 202.204 108.837 201.4 107.856C202.55 107.43 203.795 107.33 204.998 107.566C206.201 107.802 207.316 108.366 208.219 109.195Z" fill="#E2DCDC"/>
<path d="M110.939 79.6626C109.817 80.8726 108.309 81.6547 106.674 81.8749C105.039 82.095 103.378 81.7395 101.977 80.8693C103.215 79.8626 104.706 79.2173 106.288 79.0044C107.869 78.7915 109.478 79.0192 110.939 79.6626Z" fill="#E2DCDC"/>
<path d="M5.70026 90.29C5.15528 91.2639 4.28846 92.0179 3.24844 92.4227C2.20841 92.8274 1.05996 92.8578 0 92.5085C0.653003 91.6489 1.53111 90.9866 2.53715 90.5951C3.54319 90.2035 4.63794 90.0979 5.70026 90.29Z" fill="#E2DCDC"/>
<path d="M52.4148 56.1136C50.8539 56.6484 49.1556 56.6236 47.6111 56.0434C46.0665 55.4632 44.7719 54.3637 43.9492 52.9335C45.5163 52.6322 47.1362 52.7697 48.63 53.3309C50.1239 53.892 51.4337 54.855 52.4148 56.1136Z" fill="#E2DCDC"/>
<path d="M116.889 78.324C115.865 78.1047 114.948 77.5346 114.299 76.7119C113.65 75.8892 113.308 74.8657 113.332 73.8179C114.282 74.1697 115.116 74.7763 115.744 75.5713C116.371 76.3662 116.768 77.3186 116.889 78.324Z" fill="#E2DCDC"/>
<g opacity="0.5">
<path d="M116.889 78.324C115.865 78.1047 114.948 77.5346 114.299 76.7119C113.65 75.8892 113.308 74.8657 113.332 73.8179C114.282 74.1697 115.116 74.7763 115.744 75.5713C116.371 76.3662 116.768 77.3186 116.889 78.324Z" fill="black"/>
</g>
<path d="M196.335 98.9002C194.666 99.2805 192.917 99.0691 191.387 98.3022C189.856 97.5352 188.64 96.2604 187.945 94.6957C189.596 94.5541 191.253 94.8718 192.734 95.6139C194.215 96.356 195.461 97.4934 196.335 98.9002Z" fill="#E2DCDC"/>
<g opacity="0.5">
<path d="M196.336 98.9001C194.667 99.2804 192.918 99.069 191.388 98.302C189.857 97.5351 188.641 96.2603 187.946 94.6956C189.597 94.5539 191.254 94.8717 192.735 95.6138C194.216 96.3559 195.462 97.4933 196.336 98.9001Z" fill="black"/>
</g>
<path d="M77.1266 79.3232C74.7511 79.8686 72.2598 79.5697 70.0807 78.4778C67.9016 77.386 66.1708 75.5694 65.1855 73.3401C69.7671 72.7871 74.9772 75.4832 77.1266 79.3232Z" fill="#E2DCDC"/>
<g opacity="0.5">
<path d="M77.1266 79.3232C74.7511 79.8686 72.2598 79.5697 70.0807 78.4778C67.9016 77.386 66.1708 75.5694 65.1855 73.3401C69.7671 72.7871 74.9772 75.4832 77.1266 79.3232Z" fill="black"/>
</g>
<path d="M166.998 87.0535C166.196 87.7275 165.184 88.1017 164.136 88.1121C163.088 88.1224 162.069 87.7682 161.254 87.1101C162.113 86.5714 163.104 86.281 164.118 86.271C165.132 86.261 166.129 86.5319 166.998 87.0535Z" fill="#E2DCDC"/>
<path d="M144.348 78.1731C143.718 78.7501 142.906 79.0895 142.053 79.1331C141.199 79.1766 140.358 78.9217 139.672 78.4119C140.354 77.9456 141.151 77.6765 141.976 77.6344C142.801 77.5922 143.622 77.7787 144.348 78.1731Z" fill="#E2DCDC"/>
<g opacity="0.5">
<path d="M144.348 78.1731C143.718 78.7501 142.906 79.0895 142.053 79.1331C141.199 79.1766 140.358 78.9217 139.672 78.4119C140.354 77.9456 141.151 77.6765 141.976 77.6344C142.801 77.5922 143.622 77.7787 144.348 78.1731Z" fill="white"/>
</g>
<path d="M15.7803 64.3279C14.7506 65.9468 13.1897 67.1571 11.3653 67.7511C9.54094 68.3451 7.56671 68.2858 5.78125 67.5834C6.98515 66.1708 8.5565 65.119 10.3213 64.5444C12.0861 63.9698 13.9755 63.8949 15.7803 64.3279Z" fill="#E2DCDC"/>
<g opacity="0.5">
<path d="M15.7803 64.3279C14.7506 65.9468 13.1897 67.1571 11.3653 67.7511C9.54094 68.3451 7.56671 68.2858 5.78125 67.5834C6.98515 66.1708 8.5565 65.119 10.3213 64.5444C12.0861 63.9698 13.9755 63.8949 15.7803 64.3279Z" fill="white"/>
</g>
<path d="M201.495 96.1349C200.66 95.9478 199.917 95.4749 199.393 94.7978C198.87 94.1207 198.6 93.2821 198.629 92.4269C199.402 92.7208 200.079 93.2227 200.585 93.877C201.09 94.5314 201.405 95.3127 201.495 96.1349Z" fill="#E2DCDC"/>
<g opacity="0.5">
<path d="M201.496 96.135C200.661 95.948 199.918 95.475 199.394 94.7979C198.871 94.1209 198.601 93.2822 198.63 92.427C199.403 92.721 200.08 93.2228 200.586 93.8772C201.091 94.5315 201.406 95.3129 201.496 96.135Z" fill="white"/>
</g>
<path d="M29.4128 56.0005C29.4391 56.0608 29.4581 56.1241 29.4693 56.189L29.5259 56.4215L29.6579 56.7295C29.9989 57.379 30.5672 57.8801 31.2542 58.1373C31.7416 58.3397 32.2665 58.4361 32.794 58.4201C33.417 58.4168 34.0242 58.2239 34.5348 57.867C35.123 57.3859 35.5589 56.7444 35.7898 56.0205C36.0207 55.2965 36.0367 54.5211 35.8358 53.7882C35.6449 52.9246 35.2084 52.1345 34.5788 51.5132C33.8723 50.8536 33.0057 50.39 32.0649 50.1682C31.0327 49.9213 29.9595 49.8984 28.9177 50.1011C27.8759 50.3039 26.8896 50.7275 26.0253 51.3435C25.0856 51.996 24.3318 52.8819 23.8382 53.9139C23.3408 54.9983 23.2515 56.2257 23.5868 57.3705C23.9545 58.5523 24.6419 59.6094 25.5728 60.4249C26.524 61.287 27.6523 61.9306 28.8786 62.3104C31.3925 63.096 33.9692 63.0834 36.4203 63.1525C38.8713 63.2216 41.2909 63.2091 43.566 63.2091C48.1225 63.2091 52.2264 63.1399 55.6704 63.0897L63.8406 62.9514L66.0654 62.92H66.6373C66.704 62.9105 66.7717 62.9105 66.8384 62.92H66.6436L66.0654 62.9577L63.8469 63.0457C61.9238 63.1211 59.1333 63.2028 55.6767 63.2908C52.2201 63.3788 48.135 63.4479 43.566 63.4793C41.2909 63.4793 38.8964 63.4793 36.414 63.4416C33.9315 63.4039 31.3233 63.3976 28.7654 62.5932C26.2075 61.7887 23.989 59.9347 23.2663 57.4585C22.9086 56.2428 23.0047 54.9385 23.5365 53.7882C24.0601 52.7076 24.852 51.7793 25.8367 51.0921C26.7391 50.4575 27.7667 50.0232 28.8506 49.8183C29.9346 49.6134 31.0498 49.6427 32.1215 49.9043C33.0978 50.1496 33.9941 50.6432 34.7234 51.3372C35.3972 51.9894 35.8666 52.8236 36.0746 53.738C36.2767 54.5123 36.25 55.3286 35.998 56.0882C35.7459 56.8477 35.2792 57.518 34.6542 58.0179C34.1092 58.3872 33.4649 58.5823 32.8065 58.5772C32.26 58.5823 31.7184 58.4732 31.2165 58.2567C30.5105 57.976 29.9361 57.4397 29.6076 56.7546L29.4945 56.4341L29.4505 56.1953C29.4277 56.1328 29.4149 56.067 29.4128 56.0005Z" fill="#263238"/>
<path d="M23.2471 67.8976C23.2471 67.8096 32.1463 67.6211 43.1194 67.4828C54.0926 67.3445 63.0044 67.3005 63.0044 67.3885C63.0044 67.4765 54.1052 67.6713 43.1257 67.8096C32.1463 67.9479 23.2471 68.017 23.2471 67.8976Z" fill="#263238"/>
<path d="M13.6632 79.493H13.8517C14.0367 79.4966 14.2205 79.5241 14.3985 79.5747C15.0962 79.7706 15.7128 80.1846 16.1582 80.7562C16.5194 81.1996 16.7864 81.7119 16.9431 82.2619C17.0998 82.8119 17.1428 83.388 17.0695 83.9552C16.9596 84.6666 16.63 85.3258 16.1268 85.8406C15.5654 86.4205 14.8573 86.8374 14.078 87.0472C13.2194 87.2766 12.3157 87.2766 11.4572 87.0472C10.5226 86.7947 9.69267 86.2509 9.08786 85.4949C8.44922 84.6471 8.04504 83.6461 7.91596 82.5925C7.78689 81.5389 7.93746 80.4699 8.35255 79.493C9.2387 77.419 11.1618 75.8415 13.3426 74.8925C14.4558 74.3983 15.6189 74.0254 16.8118 73.7801C18.0185 73.5665 19.244 73.3151 20.4947 73.1517C25.4911 72.5232 30.2863 72.2655 34.6416 72.1021C38.997 71.9387 42.9187 71.9136 46.2119 71.9136C49.5051 71.9136 52.1761 71.945 54.0175 71.9827L56.1355 72.0456H56.6885C56.7513 72.0414 56.8143 72.0414 56.8771 72.0456C56.8145 72.0537 56.7511 72.0537 56.6885 72.0456H54.0175H46.2119C42.9187 72.0833 39.0033 72.1461 34.6479 72.3095C30.2926 72.4729 25.5162 72.7306 20.5387 73.3779C19.2817 73.5225 18.0813 73.7676 16.881 74.0064C15.6986 74.2634 14.5479 74.6491 13.4495 75.1565C11.3127 76.0804 9.45866 77.6076 8.60394 79.5558C8.20649 80.4837 8.05942 81.4996 8.17742 82.502C8.29542 83.5045 8.67437 84.4585 9.27641 85.2687C9.83629 85.9908 10.6109 86.5167 11.4886 86.7707C12.3116 86.9949 13.1796 86.9949 14.0025 86.7707C14.7395 86.6023 15.4171 86.2374 15.9634 85.7149C16.4448 85.2288 16.7633 84.6051 16.8747 83.93C16.9516 83.3863 16.9177 82.8326 16.7752 82.3023C16.6326 81.772 16.3843 81.2761 16.0451 80.8442C15.6244 80.2819 15.0406 79.8627 14.3733 79.6438C14.199 79.5901 14.0202 79.5523 13.8391 79.5307C13.7792 79.5251 13.7201 79.5125 13.6632 79.493Z" fill="#263238"/>
<path d="M126.87 76.1745C126.895 76.2262 126.912 76.2812 126.921 76.3379L126.971 76.539L127.09 76.803C127.382 77.3656 127.873 77.7999 128.467 78.0222C128.89 78.1908 129.343 78.2721 129.799 78.2611C130.335 78.2562 130.857 78.0873 131.295 77.7771C131.801 77.3624 132.175 76.8095 132.373 76.1858C132.57 75.562 132.582 74.8944 132.407 74.264C132.244 73.5213 131.869 72.8421 131.326 72.3094C130.724 71.7432 129.986 71.3426 129.183 71.1467C128.292 70.9373 127.367 70.9198 126.468 71.0954C125.57 71.2709 124.72 71.6354 123.973 72.1648C123.164 72.7297 122.515 73.4939 122.088 74.3834C121.659 75.3158 121.583 76.3719 121.874 77.3561C122.465 79.3672 124.319 80.9446 126.437 81.5857C128.555 82.2267 130.836 82.2582 132.966 82.3147C135.097 82.3713 137.177 82.365 139.151 82.365C143.091 82.365 146.636 82.3084 149.615 82.2644L156.679 82.1513H158.596H159.092C159.15 82.1431 159.21 82.1431 159.268 82.1513C159.212 82.159 159.155 82.159 159.098 82.1513L158.596 82.1827L156.679 82.2707C155.013 82.3336 152.6 82.409 149.621 82.4844C146.642 82.5598 143.091 82.629 139.151 82.6541C137.177 82.6541 135.11 82.6541 132.96 82.6227C130.811 82.5912 128.561 82.585 126.336 81.8874C124.111 81.1897 122.194 79.5809 121.566 77.4315C121.258 76.3733 121.343 75.2394 121.805 74.2388C122.254 73.3011 122.941 72.4972 123.797 71.9072C124.578 71.3552 125.469 70.9776 126.409 70.7998C127.35 70.6219 128.317 70.6481 129.246 70.8765C130.095 71.0919 130.872 71.5251 131.502 72.1334C132.077 72.7047 132.47 73.4326 132.633 74.2263C132.81 74.8995 132.784 75.6097 132.561 76.2687C132.338 76.9278 131.926 77.5069 131.376 77.9343C130.905 78.2576 130.345 78.4267 129.774 78.4182C129.3 78.4284 128.83 78.334 128.397 78.1416C127.782 77.9015 127.282 77.4333 127.002 76.8344L126.902 76.5642L126.864 76.3505C126.857 76.2919 126.859 76.2325 126.87 76.1745Z" fill="#263238"/>
<path d="M121.547 86.494C121.547 86.3998 129.246 86.2301 138.742 86.1107C148.238 85.9913 155.943 85.9598 155.943 86.0541C155.943 86.1484 148.244 86.3118 138.748 86.4375C129.252 86.5632 121.547 86.582 121.547 86.494Z" fill="#263238"/>
</svg>
