<svg width="512" height="512" viewBox="0 0 512 512" fill="none" xmlns="http://www.w3.org/2000/svg">
<path d="M0 256C0 397.385 114.615 512 256 512C397.385 512 512 397.385 512 256C512 114.615 397.385 0 256 0C114.615 0 0 114.615 0 256Z" fill="#C9111B"/>
<path d="M377.6 193.6C374.4 182.4 366.4 174.4 355.2 171.2C336 166.4 254.4 166.4 254.4 166.4C254.4 166.4 174.4 166.4 153.6 171.2C142.4 174.4 134.4 182.4 131.2 193.6C128 214.4 128 256 128 256C128 256 128 297.6 132.8 318.4C136 329.6 144 337.6 155.2 340.8C174.4 345.6 256 345.6 256 345.6C256 345.6 336 345.6 356.8 340.8C368 337.6 376 329.6 379.2 318.4C384 297.6 384 256 384 256C384 256 384 214.4 377.6 193.6ZM230.4 294.4V217.6L297.6 256L230.4 294.4Z" fill="white"/>
</svg>
